{"frames":[{"note":46,"velocity":101,"hitTime":24,"closestNoteTime":0,"hitSuccessfully":true},{"note":36,"velocity":50,"hitTime":40,"closestNoteTime":0,"hitSuccessfully":true},{"note":46,"velocity":91,"hitTime":488,"closestNoteTime":480,"hitSuccessfully":true},{"note":38,"velocity":97,"hitTime":960,"closestNoteTime":960,"hitSuccessfully":true},{"note":46,"velocity":105,"hitTime":976,"closestNoteTime":960,"hitSuccessfully":true},{"note":46,"velocity":94,"hitTime":1432,"closestNoteTime":1440,"hitSuccessfully":true},{"note":46,"velocity":109,"hitTime":1928,"closestNoteTime":1920,"hitSuccessfully":true},{"note":46,"velocity":91,"hitTime":2392,"closestNoteTime":2400,"hitSuccessfully":true},{"note":46,"velocity":104,"hitTime":2848,"closestNoteTime":2880,"hitSuccessfully":true},{"note":38,"velocity":95,"hitTime":2864,"closestNoteTime":2880,"hitSuccessfully":true},{"note":38,"velocity":50,"hitTime":2944,"closestNoteTime":4800,"hitSuccessfully":false},{"note":46,"velocity":90,"hitTime":3328,"closestNoteTime":3360,"hitSuccessfully":true},{"note":46,"velocity":120,"hitTime":3800,"closestNoteTime":3840,"hitSuccessfully":true},{"note":36,"velocity":52,"hitTime":3824,"closestNoteTime":3840,"hitSuccessfully":true},{"note":46,"velocity":93,"hitTime":4280,"closestNoteTime":4320,"hitSuccessfully":true},{"note":46,"velocity":104,"hitTime":4752,"closestNoteTime":4800,"hitSuccessfully":true},{"note":38,"velocity":89,"hitTime":4760,"closestNoteTime":4800,"hitSuccessfully":true},{"note":46,"velocity":93,"hitTime":5232,"closestNoteTime":5280,"hitSuccessfully":true},{"note":36,"velocity":55,"hitTime":5696,"closestNoteTime":5760,"hitSuccessfully":true},{"note":46,"velocity":108,"hitTime":5712,"closestNoteTime":5760,"hitSuccessfully":true},{"note":46,"velocity":91,"hitTime":6208,"closestNoteTime":6240,"hitSuccessfully":true},{"note":46,"velocity":102,"hitTime":6704,"closestNoteTime":6720,"hitSuccessfully":true},{"note":38,"velocity":92,"hitTime":6728,"closestNoteTime":6720,"hitSuccessfully":true},{"note":46,"velocity":110,"hitTime":7656,"closestNoteTime":7680,"hitSuccessfully":true},{"note":36,"velocity":42,"hitTime":7656,"closestNoteTime":7680,"hitSuccessfully":true},{"note":46,"velocity":91,"hitTime":8160,"closestNoteTime":8160,"hitSuccessfully":true},{"note":46,"velocity":102,"hitTime":8632,"closestNoteTime":8640,"hitSuccessfully":true},{"note":38,"velocity":92,"hitTime":8648,"closestNoteTime":8640,"hitSuccessfully":true},{"note":46,"velocity":91,"hitTime":9128,"closestNoteTime":9120,"hitSuccessfully":true},{"note":46,"velocity":120,"hitTime":9584,"closestNoteTime":9600,"hitSuccessfully":true},{"note":36,"velocity":58,"hitTime":9608,"closestNoteTime":9600,"hitSuccessfully":true},{"note":46,"velocity":94,"hitTime":10088,"closestNoteTime":10080,"hitSuccessfully":true},{"note":46,"velocity":100,"hitTime":10528,"closestNoteTime":10560,"hitSuccessfully":true},{"note":38,"velocity":94,"hitTime":10544,"closestNoteTime":10560,"hitSuccessfully":true},{"note":46,"velocity":97,"hitTime":11024,"closestNoteTime":11040,"hitSuccessfully":true},{"note":36,"velocity":46,"hitTime":11480,"closestNoteTime":11520,"hitSuccessfully":true},{"note":46,"velocity":107,"hitTime":11480,"closestNoteTime":11520,"hitSuccessfully":true},{"note":46,"velocity":88,"hitTime":12008,"closestNoteTime":12000,"hitSuccessfully":true},{"note":46,"velocity":97,"hitTime":12432,"closestNoteTime":12480,"hitSuccessfully":true},{"note":38,"velocity":96,"hitTime":12472,"closestNoteTime":12480,"hitSuccessfully":true},{"note":46,"velocity":97,"hitTime":12928,"closestNoteTime":12960,"hitSuccessfully":true},{"note":46,"velocity":110,"hitTime":13384,"closestNoteTime":13440,"hitSuccessfully":true},{"note":36,"velocity":50,"hitTime":13400,"closestNoteTime":13440,"hitSuccessfully":true},{"note":46,"velocity":91,"hitTime":13864,"closestNoteTime":13920,"hitSuccessfully":true},{"note":46,"velocity":103,"hitTime":14344,"closestNoteTime":14400,"hitSuccessfully":true},{"note":38,"velocity":89,"hitTime":14360,"closestNoteTime":14400,"hitSuccessfully":true},{"note":46,"velocity":97,"hitTime":14832,"closestNoteTime":14880,"hitSuccessfully":true}]}