{"frames":[{"note":46,"velocity":66,"hitTime":72,"closestNoteTime":0,"hitSuccessfully":true},{"note":46,"velocity":75,"hitTime":512,"closestNoteTime":480,"hitSuccessfully":true},{"note":46,"velocity":72,"hitTime":984,"closestNoteTime":960,"hitSuccessfully":true},{"note":46,"velocity":76,"hitTime":1456,"closestNoteTime":1440,"hitSuccessfully":true},{"note":46,"velocity":79,"hitTime":1936,"closestNoteTime":1920,"hitSuccessfully":true},{"note":46,"velocity":77,"hitTime":2400,"closestNoteTime":2400,"hitSuccessfully":true},{"note":46,"velocity":77,"hitTime":2896,"closestNoteTime":2880,"hitSuccessfully":true},{"note":46,"velocity":79,"hitTime":3344,"closestNoteTime":3360,"hitSuccessfully":true},{"note":46,"velocity":80,"hitTime":3808,"closestNoteTime":3840,"hitSuccessfully":true},{"note":46,"velocity":77,"hitTime":4248,"closestNoteTime":4320,"hitSuccessfully":true},{"note":46,"velocity":77,"hitTime":4744,"closestNoteTime":4800,"hitSuccessfully":true},{"note":46,"velocity":74,"hitTime":5224,"closestNoteTime":5280,"hitSuccessfully":true},{"note":46,"velocity":75,"hitTime":5712,"closestNoteTime":5760,"hitSuccessfully":true},{"note":46,"velocity":76,"hitTime":6168,"closestNoteTime":6240,"hitSuccessfully":true},{"note":46,"velocity":76,"hitTime":6648,"closestNoteTime":6720,"hitSuccessfully":true},{"note":46,"velocity":74,"hitTime":7112,"closestNoteTime":7200,"hitSuccessfully":true},{"note":46,"velocity":77,"hitTime":7600,"closestNoteTime":7680,"hitSuccessfully":true},{"note":46,"velocity":72,"hitTime":8048,"closestNoteTime":8160,"hitSuccessfully":true},{"note":46,"velocity":77,"hitTime":8544,"closestNoteTime":8640,"hitSuccessfully":true},{"note":46,"velocity":75,"hitTime":9056,"closestNoteTime":9120,"hitSuccessfully":true},{"note":46,"velocity":75,"hitTime":9552,"closestNoteTime":9600,"hitSuccessfully":true},{"note":46,"velocity":77,"hitTime":10056,"closestNoteTime":10080,"hitSuccessfully":true},{"note":46,"velocity":74,"hitTime":10568,"closestNoteTime":10560,"hitSuccessfully":true},{"note":46,"velocity":77,"hitTime":11088,"closestNoteTime":11040,"hitSuccessfully":true},{"note":46,"velocity":73,"hitTime":11576,"closestNoteTime":11520,"hitSuccessfully":true},{"note":46,"velocity":76,"hitTime":12056,"closestNoteTime":12000,"hitSuccessfully":true},{"note":46,"velocity":75,"hitTime":12520,"closestNoteTime":12480,"hitSuccessfully":true},{"note":46,"velocity":73,"hitTime":12992,"closestNoteTime":12960,"hitSuccessfully":true},{"note":46,"velocity":74,"hitTime":13448,"closestNoteTime":13440,"hitSuccessfully":true},{"note":46,"velocity":76,"hitTime":13944,"closestNoteTime":13920,"hitSuccessfully":true},{"note":46,"velocity":75,"hitTime":14440,"closestNoteTime":14400,"hitSuccessfully":true},{"note":46,"velocity":73,"hitTime":14936,"closestNoteTime":14880,"hitSuccessfully":true}]}