{"frames":[{"note":36,"velocity":43,"hitTime":3968,"closestNoteTime":3840,"hitSuccessfully":true},{"note":46,"velocity":91,"hitTime":3984,"closestNoteTime":3840,"hitSuccessfully":true},{"note":46,"velocity":80,"hitTime":4464,"closestNoteTime":4320,"hitSuccessfully":true},{"note":38,"velocity":78,"hitTime":4928,"closestNoteTime":4800,"hitSuccessfully":true},{"note":46,"velocity":91,"hitTime":4960,"closestNoteTime":4800,"hitSuccessfully":true},{"note":46,"velocity":79,"hitTime":5440,"closestNoteTime":5280,"hitSuccessfully":true},{"note":46,"velocity":96,"hitTime":5920,"closestNoteTime":5760,"hitSuccessfully":true},{"note":46,"velocity":82,"hitTime":6432,"closestNoteTime":6240,"hitSuccessfully":true},{"note":36,"velocity":61,"hitTime":6832,"closestNoteTime":7680,"hitSuccessfully":false},{"note":38,"velocity":78,"hitTime":6848,"closestNoteTime":6720,"hitSuccessfully":true},{"note":46,"velocity":97,"hitTime":6880,"closestNoteTime":6720,"hitSuccessfully":true},{"note":46,"velocity":80,"hitTime":7360,"closestNoteTime":7200,"hitSuccessfully":true},{"note":46,"velocity":89,"hitTime":7840,"closestNoteTime":7680,"hitSuccessfully":true},{"note":46,"velocity":84,"hitTime":8320,"closestNoteTime":8160,"hitSuccessfully":true},{"note":38,"velocity":82,"hitTime":8784,"closestNoteTime":8640,"hitSuccessfully":true},{"note":46,"velocity":96,"hitTime":8816,"closestNoteTime":8640,"hitSuccessfully":true},{"note":36,"velocity":36,"hitTime":8832,"closestNoteTime":9600,"hitSuccessfully":false},{"note":46,"velocity":75,"hitTime":9312,"closestNoteTime":9120,"hitSuccessfully":true},{"note":46,"velocity":91,"hitTime":9776,"closestNoteTime":9600,"hitSuccessfully":true},{"note":46,"velocity":85,"hitTime":10224,"closestNoteTime":10080,"hitSuccessfully":true},{"note":36,"velocity":36,"hitTime":10688,"closestNoteTime":11520,"hitSuccessfully":false},{"note":38,"velocity":82,"hitTime":10704,"closestNoteTime":10560,"hitSuccessfully":true},{"note":46,"velocity":96,"hitTime":10704,"closestNoteTime":10560,"hitSuccessfully":true},{"note":46,"velocity":79,"hitTime":11696,"closestNoteTime":11520,"hitSuccessfully":true},{"note":46,"velocity":85,"hitTime":12128,"closestNoteTime":12000,"hitSuccessfully":true},{"note":36,"velocity":36,"hitTime":12576,"closestNoteTime":13440,"hitSuccessfully":false},{"note":38,"velocity":91,"hitTime":12608,"closestNoteTime":12480,"hitSuccessfully":true},{"note":46,"velocity":100,"hitTime":12608,"closestNoteTime":12480,"hitSuccessfully":true},{"note":46,"velocity":82,"hitTime":13120,"closestNoteTime":12960,"hitSuccessfully":true},{"note":46,"velocity":89,"hitTime":13600,"closestNoteTime":13440,"hitSuccessfully":true},{"note":46,"velocity":85,"hitTime":14080,"closestNoteTime":13920,"hitSuccessfully":true},{"note":36,"velocity":43,"hitTime":14512,"closestNoteTime":15360,"hitSuccessfully":false},{"note":46,"velocity":94,"hitTime":14512,"closestNoteTime":14400,"hitSuccessfully":true},{"note":38,"velocity":86,"hitTime":14544,"closestNoteTime":14400,"hitSuccessfully":true},{"note":46,"velocity":73,"hitTime":15040,"closestNoteTime":14880,"hitSuccessfully":true},{"note":46,"velocity":94,"hitTime":15552,"closestNoteTime":15360,"hitSuccessfully":true},{"note":46,"velocity":86,"hitTime":16032,"closestNoteTime":15840,"hitSuccessfully":true},{"note":38,"velocity":88,"hitTime":16464,"closestNoteTime":16320,"hitSuccessfully":true},{"note":46,"velocity":101,"hitTime":16496,"closestNoteTime":16320,"hitSuccessfully":true},{"note":46,"velocity":82,"hitTime":16976,"closestNoteTime":16800,"hitSuccessfully":true},{"note":46,"velocity":84,"hitTime":17376,"closestNoteTime":17280,"hitSuccessfully":true},{"note":46,"velocity":88,"hitTime":17888,"closestNoteTime":17760,"hitSuccessfully":true},{"note":36,"velocity":50,"hitTime":18288,"closestNoteTime":19200,"hitSuccessfully":false},{"note":38,"velocity":88,"hitTime":18336,"closestNoteTime":18240,"hitSuccessfully":true},{"note":46,"velocity":100,"hitTime":18368,"closestNoteTime":18240,"hitSuccessfully":true},{"note":46,"velocity":85,"hitTime":18896,"closestNoteTime":18720,"hitSuccessfully":true},{"note":46,"velocity":93,"hitTime":19360,"closestNoteTime":19200,"hitSuccessfully":true},{"note":46,"velocity":88,"hitTime":19808,"closestNoteTime":19680,"hitSuccessfully":true},{"note":36,"velocity":36,"hitTime":20272,"closestNoteTime":21120,"hitSuccessfully":false},{"note":38,"velocity":84,"hitTime":20288,"closestNoteTime":20160,"hitSuccessfully":true},{"note":46,"velocity":103,"hitTime":20288,"closestNoteTime":20160,"hitSuccessfully":true},{"note":46,"velocity":85,"hitTime":20784,"closestNoteTime":20640,"hitSuccessfully":true},{"note":46,"velocity":90,"hitTime":21264,"closestNoteTime":21120,"hitSuccessfully":true},{"note":46,"velocity":86,"hitTime":21712,"closestNoteTime":21600,"hitSuccessfully":true},{"note":46,"velocity":101,"hitTime":22192,"closestNoteTime":22080,"hitSuccessfully":true},{"note":38,"velocity":79,"hitTime":22224,"closestNoteTime":22080,"hitSuccessfully":true},{"note":46,"velocity":70,"hitTime":22736,"closestNoteTime":22560,"hitSuccessfully":true},{"note":46,"velocity":97,"hitTime":23216,"closestNoteTime":23040,"hitSuccessfully":true},{"note":46,"velocity":85,"hitTime":23664,"closestNoteTime":23520,"hitSuccessfully":true},{"note":36,"velocity":48,"hitTime":24128,"closestNoteTime":24960,"hitSuccessfully":false},{"note":46,"velocity":99,"hitTime":24128,"closestNoteTime":24000,"hitSuccessfully":true},{"note":38,"velocity":84,"hitTime":24144,"closestNoteTime":24000,"hitSuccessfully":true},{"note":46,"velocity":86,"hitTime":24656,"closestNoteTime":24480,"hitSuccessfully":true},{"note":46,"velocity":91,"hitTime":25088,"closestNoteTime":24960,"hitSuccessfully":true},{"note":46,"velocity":90,"hitTime":25536,"closestNoteTime":25440,"hitSuccessfully":true},{"note":38,"velocity":88,"hitTime":26032,"closestNoteTime":25920,"hitSuccessfully":true},{"note":46,"velocity":102,"hitTime":26048,"closestNoteTime":25920,"hitSuccessfully":true},{"note":36,"velocity":28,"hitTime":26080,"closestNoteTime":26880,"hitSuccessfully":false},{"note":46,"velocity":82,"hitTime":26560,"closestNoteTime":26400,"hitSuccessfully":true},{"note":46,"velocity":93,"hitTime":27040,"closestNoteTime":26880,"hitSuccessfully":true},{"note":46,"velocity":88,"hitTime":27472,"closestNoteTime":27360,"hitSuccessfully":true},{"note":36,"velocity":38,"hitTime":27952,"closestNoteTime":28800,"hitSuccessfully":false},{"note":38,"velocity":83,"hitTime":27984,"closestNoteTime":27840,"hitSuccessfully":true},{"note":46,"velocity":101,"hitTime":27984,"closestNoteTime":27840,"hitSuccessfully":true},{"note":46,"velocity":85,"hitTime":28480,"closestNoteTime":28320,"hitSuccessfully":true},{"note":46,"velocity":85,"hitTime":28944,"closestNoteTime":28800,"hitSuccessfully":true},{"note":46,"velocity":89,"hitTime":29424,"closestNoteTime":29280,"hitSuccessfully":true},{"note":36,"velocity":40,"hitTime":29824,"closestNoteTime":28800,"hitSuccessfully":false},{"note":38,"velocity":91,"hitTime":29872,"closestNoteTime":29760,"hitSuccessfully":true},{"note":46,"velocity":105,"hitTime":29904,"closestNoteTime":29760,"hitSuccessfully":true},{"note":46,"velocity":82,"hitTime":30384,"closestNoteTime":30240,"hitSuccessfully":true}]}