{"frames":[{"note":36,"velocity":69,"hitTime":-16,"closestNoteTime":0,"hitSuccessfully":true},{"note":46,"velocity":124,"hitTime":64,"closestNoteTime":0,"hitSuccessfully":true},{"note":46,"velocity":97,"hitTime":528,"closestNoteTime":480,"hitSuccessfully":true},{"note":38,"velocity":104,"hitTime":1008,"closestNoteTime":960,"hitSuccessfully":true},{"note":46,"velocity":102,"hitTime":1520,"closestNoteTime":1440,"hitSuccessfully":true},{"note":46,"velocity":108,"hitTime":1968,"closestNoteTime":1920,"hitSuccessfully":true},{"note":36,"velocity":52,"hitTime":2160,"closestNoteTime":1920,"hitSuccessfully":true},{"note":46,"velocity":96,"hitTime":2416,"closestNoteTime":2400,"hitSuccessfully":true},{"note":46,"velocity":120,"hitTime":2848,"closestNoteTime":2880,"hitSuccessfully":true},{"note":38,"velocity":100,"hitTime":2928,"closestNoteTime":2880,"hitSuccessfully":true},{"note":46,"velocity":106,"hitTime":3360,"closestNoteTime":3360,"hitSuccessfully":true},{"note":46,"velocity":122,"hitTime":3808,"closestNoteTime":3840,"hitSuccessfully":true},{"note":36,"velocity":69,"hitTime":3872,"closestNoteTime":3840,"hitSuccessfully":true},{"note":46,"velocity":105,"hitTime":4320,"closestNoteTime":4320,"hitSuccessfully":true},{"note":46,"velocity":107,"hitTime":4784,"closestNoteTime":4800,"hitSuccessfully":true},{"note":38,"velocity":102,"hitTime":4832,"closestNoteTime":4800,"hitSuccessfully":true},{"note":46,"velocity":105,"hitTime":5296,"closestNoteTime":5280,"hitSuccessfully":true},{"note":46,"velocity":107,"hitTime":5744,"closestNoteTime":5760,"hitSuccessfully":true},{"note":36,"velocity":66,"hitTime":5824,"closestNoteTime":5760,"hitSuccessfully":true},{"note":46,"velocity":105,"hitTime":6272,"closestNoteTime":6240,"hitSuccessfully":true},{"note":46,"velocity":114,"hitTime":6736,"closestNoteTime":6720,"hitSuccessfully":true},{"note":38,"velocity":104,"hitTime":6816,"closestNoteTime":6720,"hitSuccessfully":true},{"note":46,"velocity":103,"hitTime":7248,"closestNoteTime":7200,"hitSuccessfully":true},{"note":46,"velocity":120,"hitTime":7696,"closestNoteTime":7680,"hitSuccessfully":true},{"note":36,"velocity":65,"hitTime":7728,"closestNoteTime":7680,"hitSuccessfully":true},{"note":46,"velocity":108,"hitTime":8176,"closestNoteTime":8160,"hitSuccessfully":true},{"note":46,"velocity":108,"hitTime":8656,"closestNoteTime":8640,"hitSuccessfully":true},{"note":38,"velocity":85,"hitTime":8768,"closestNoteTime":8640,"hitSuccessfully":true},{"note":46,"velocity":105,"hitTime":9168,"closestNoteTime":9120,"hitSuccessfully":true},{"note":46,"velocity":105,"hitTime":9632,"closestNoteTime":9600,"hitSuccessfully":true},{"note":36,"velocity":62,"hitTime":9680,"closestNoteTime":9600,"hitSuccessfully":true},{"note":46,"velocity":104,"hitTime":10112,"closestNoteTime":10080,"hitSuccessfully":true},{"note":46,"velocity":108,"hitTime":10560,"closestNoteTime":10560,"hitSuccessfully":true},{"note":38,"velocity":99,"hitTime":10640,"closestNoteTime":10560,"hitSuccessfully":true},{"note":46,"velocity":99,"hitTime":11072,"closestNoteTime":11040,"hitSuccessfully":true},{"note":46,"velocity":116,"hitTime":11552,"closestNoteTime":11520,"hitSuccessfully":true},{"note":36,"velocity":62,"hitTime":11664,"closestNoteTime":11520,"hitSuccessfully":true},{"note":46,"velocity":102,"hitTime":12016,"closestNoteTime":12000,"hitSuccessfully":true},{"note":46,"velocity":108,"hitTime":12512,"closestNoteTime":12480,"hitSuccessfully":true},{"note":38,"velocity":99,"hitTime":12544,"closestNoteTime":12480,"hitSuccessfully":true},{"note":46,"velocity":102,"hitTime":12976,"closestNoteTime":12960,"hitSuccessfully":true},{"note":36,"velocity":52,"hitTime":13504,"closestNoteTime":13440,"hitSuccessfully":true},{"note":46,"velocity":112,"hitTime":13936,"closestNoteTime":13920,"hitSuccessfully":true},{"note":46,"velocity":108,"hitTime":14400,"closestNoteTime":14400,"hitSuccessfully":true},{"note":38,"velocity":94,"hitTime":14416,"closestNoteTime":14400,"hitSuccessfully":true},{"note":46,"velocity":106,"hitTime":14880,"closestNoteTime":14880,"hitSuccessfully":true},{"note":46,"velocity":112,"hitTime":15360,"closestNoteTime":15360,"hitSuccessfully":true},{"note":36,"velocity":52,"hitTime":15376,"closestNoteTime":15360,"hitSuccessfully":true},{"note":46,"velocity":105,"hitTime":15840,"closestNoteTime":15840,"hitSuccessfully":true},{"note":46,"velocity":106,"hitTime":16288,"closestNoteTime":16320,"hitSuccessfully":true},{"note":38,"velocity":90,"hitTime":16352,"closestNoteTime":16320,"hitSuccessfully":true},{"note":46,"velocity":100,"hitTime":16752,"closestNoteTime":16800,"hitSuccessfully":true},{"note":46,"velocity":105,"hitTime":17200,"closestNoteTime":17280,"hitSuccessfully":true},{"note":36,"velocity":51,"hitTime":17312,"closestNoteTime":17280,"hitSuccessfully":true},{"note":46,"velocity":101,"hitTime":17680,"closestNoteTime":17760,"hitSuccessfully":true},{"note":46,"velocity":107,"hitTime":18160,"closestNoteTime":18240,"hitSuccessfully":true},{"note":38,"velocity":98,"hitTime":18192,"closestNoteTime":18240,"hitSuccessfully":true},{"note":46,"velocity":104,"hitTime":18656,"closestNoteTime":18720,"hitSuccessfully":true},{"note":46,"velocity":108,"hitTime":19136,"closestNoteTime":19200,"hitSuccessfully":true},{"note":36,"velocity":55,"hitTime":19216,"closestNoteTime":19200,"hitSuccessfully":true},{"note":46,"velocity":101,"hitTime":19616,"closestNoteTime":19680,"hitSuccessfully":true},{"note":46,"velocity":107,"hitTime":20096,"closestNoteTime":20160,"hitSuccessfully":true},{"note":38,"velocity":101,"hitTime":20128,"closestNoteTime":20160,"hitSuccessfully":true},{"note":46,"velocity":101,"hitTime":20608,"closestNoteTime":20640,"hitSuccessfully":true},{"note":46,"velocity":105,"hitTime":21088,"closestNoteTime":21120,"hitSuccessfully":true},{"note":36,"velocity":50,"hitTime":21200,"closestNoteTime":21120,"hitSuccessfully":true},{"note":46,"velocity":100,"hitTime":21568,"closestNoteTime":21600,"hitSuccessfully":true},{"note":46,"velocity":110,"hitTime":22016,"closestNoteTime":22080,"hitSuccessfully":true},{"note":38,"velocity":101,"hitTime":22080,"closestNoteTime":22080,"hitSuccessfully":true},{"note":46,"velocity":103,"hitTime":22512,"closestNoteTime":22560,"hitSuccessfully":true},{"note":46,"velocity":106,"hitTime":23008,"closestNoteTime":23040,"hitSuccessfully":true},{"note":36,"velocity":48,"hitTime":23120,"closestNoteTime":23040,"hitSuccessfully":true},{"note":46,"velocity":106,"hitTime":23552,"closestNoteTime":23520,"hitSuccessfully":true},{"note":46,"velocity":104,"hitTime":24000,"closestNoteTime":24000,"hitSuccessfully":true},{"note":38,"velocity":90,"hitTime":24064,"closestNoteTime":24000,"hitSuccessfully":true},{"note":46,"velocity":104,"hitTime":24512,"closestNoteTime":24480,"hitSuccessfully":true},{"note":46,"velocity":107,"hitTime":24976,"closestNoteTime":24960,"hitSuccessfully":true},{"note":36,"velocity":42,"hitTime":25136,"closestNoteTime":24960,"hitSuccessfully":true},{"note":46,"velocity":103,"hitTime":25472,"closestNoteTime":25440,"hitSuccessfully":true},{"note":46,"velocity":109,"hitTime":25904,"closestNoteTime":25920,"hitSuccessfully":true},{"note":38,"velocity":99,"hitTime":25936,"closestNoteTime":25920,"hitSuccessfully":true},{"note":46,"velocity":104,"hitTime":26384,"closestNoteTime":26400,"hitSuccessfully":true},{"note":46,"velocity":106,"hitTime":26864,"closestNoteTime":26880,"hitSuccessfully":true},{"note":46,"velocity":100,"hitTime":27248,"closestNoteTime":27360,"hitSuccessfully":true},{"note":46,"velocity":99,"hitTime":27840,"closestNoteTime":27840,"hitSuccessfully":true},{"note":38,"velocity":87,"hitTime":27888,"closestNoteTime":27840,"hitSuccessfully":true},{"note":46,"velocity":99,"hitTime":28320,"closestNoteTime":28320,"hitSuccessfully":true},{"note":46,"velocity":105,"hitTime":28800,"closestNoteTime":28800,"hitSuccessfully":true},{"note":36,"velocity":55,"hitTime":28880,"closestNoteTime":28800,"hitSuccessfully":true},{"note":46,"velocity":100,"hitTime":29408,"closestNoteTime":29280,"hitSuccessfully":true},{"note":46,"velocity":105,"hitTime":29840,"closestNoteTime":29760,"hitSuccessfully":true},{"note":38,"velocity":89,"hitTime":29888,"closestNoteTime":29760,"hitSuccessfully":true},{"note":46,"velocity":104,"hitTime":30320,"closestNoteTime":30240,"hitSuccessfully":true}]}