{"frames":[{"note":46,"velocity":17,"hitTime":-416,"closestNoteTime":0,"hitSuccessfully":false},{"note":46,"velocity":82,"hitTime":40,"closestNoteTime":0,"hitSuccessfully":true},{"note":46,"velocity":85,"hitTime":504,"closestNoteTime":480,"hitSuccessfully":true},{"note":46,"velocity":88,"hitTime":976,"closestNoteTime":960,"hitSuccessfully":true},{"note":38,"velocity":85,"hitTime":976,"closestNoteTime":960,"hitSuccessfully":true},{"note":46,"velocity":85,"hitTime":1496,"closestNoteTime":1440,"hitSuccessfully":true},{"note":46,"velocity":85,"hitTime":1952,"closestNoteTime":1920,"hitSuccessfully":true},{"note":46,"velocity":87,"hitTime":2448,"closestNoteTime":2400,"hitSuccessfully":true},{"note":46,"velocity":90,"hitTime":2904,"closestNoteTime":2880,"hitSuccessfully":true},{"note":38,"velocity":84,"hitTime":2904,"closestNoteTime":2880,"hitSuccessfully":true},{"note":46,"velocity":85,"hitTime":3384,"closestNoteTime":3360,"hitSuccessfully":true},{"note":46,"velocity":85,"hitTime":3880,"closestNoteTime":3840,"hitSuccessfully":true},{"note":46,"velocity":85,"hitTime":4344,"closestNoteTime":4320,"hitSuccessfully":true},{"note":38,"velocity":87,"hitTime":4816,"closestNoteTime":4800,"hitSuccessfully":true},{"note":46,"velocity":93,"hitTime":4816,"closestNoteTime":4800,"hitSuccessfully":true},{"note":46,"velocity":86,"hitTime":5296,"closestNoteTime":5280,"hitSuccessfully":true},{"note":46,"velocity":87,"hitTime":5768,"closestNoteTime":5760,"hitSuccessfully":true},{"note":46,"velocity":85,"hitTime":6264,"closestNoteTime":6240,"hitSuccessfully":true},{"note":38,"velocity":81,"hitTime":6720,"closestNoteTime":6720,"hitSuccessfully":true},{"note":46,"velocity":90,"hitTime":6728,"closestNoteTime":6720,"hitSuccessfully":true},{"note":46,"velocity":85,"hitTime":7208,"closestNoteTime":7200,"hitSuccessfully":true},{"note":46,"velocity":88,"hitTime":7664,"closestNoteTime":7680,"hitSuccessfully":true},{"note":46,"velocity":82,"hitTime":8176,"closestNoteTime":8160,"hitSuccessfully":true},{"note":38,"velocity":84,"hitTime":8640,"closestNoteTime":8640,"hitSuccessfully":true},{"note":46,"velocity":93,"hitTime":8656,"closestNoteTime":8640,"hitSuccessfully":true},{"note":46,"velocity":84,"hitTime":9112,"closestNoteTime":9120,"hitSuccessfully":true},{"note":46,"velocity":86,"hitTime":9592,"closestNoteTime":9600,"hitSuccessfully":true},{"note":46,"velocity":85,"hitTime":10064,"closestNoteTime":10080,"hitSuccessfully":true},{"note":46,"velocity":91,"hitTime":10544,"closestNoteTime":10560,"hitSuccessfully":true},{"note":38,"velocity":88,"hitTime":10544,"closestNoteTime":10560,"hitSuccessfully":true},{"note":46,"velocity":82,"hitTime":11024,"closestNoteTime":11040,"hitSuccessfully":true},{"note":46,"velocity":84,"hitTime":11520,"closestNoteTime":11520,"hitSuccessfully":true},{"note":46,"velocity":86,"hitTime":11992,"closestNoteTime":12000,"hitSuccessfully":true},{"note":46,"velocity":93,"hitTime":12472,"closestNoteTime":12480,"hitSuccessfully":true},{"note":38,"velocity":87,"hitTime":12472,"closestNoteTime":12480,"hitSuccessfully":true},{"note":46,"velocity":85,"hitTime":12952,"closestNoteTime":12960,"hitSuccessfully":true},{"note":46,"velocity":84,"hitTime":13408,"closestNoteTime":13440,"hitSuccessfully":true},{"note":46,"velocity":86,"hitTime":13904,"closestNoteTime":13920,"hitSuccessfully":true},{"note":38,"velocity":82,"hitTime":14416,"closestNoteTime":14400,"hitSuccessfully":true},{"note":46,"velocity":97,"hitTime":14416,"closestNoteTime":14400,"hitSuccessfully":true},{"note":46,"velocity":87,"hitTime":14880,"closestNoteTime":14880,"hitSuccessfully":true}]}