{"frames":[{"note":46,"velocity":86,"hitTime":8,"closestNoteTime":0,"hitSuccessfully":true},{"note":46,"velocity":70,"hitTime":504,"closestNoteTime":480,"hitSuccessfully":true},{"note":46,"velocity":80,"hitTime":968,"closestNoteTime":960,"hitSuccessfully":true},{"note":38,"velocity":85,"hitTime":1000,"closestNoteTime":0,"hitSuccessfully":false},{"note":46,"velocity":70,"hitTime":1480,"closestNoteTime":1440,"hitSuccessfully":true},{"note":46,"velocity":79,"hitTime":1960,"closestNoteTime":1920,"hitSuccessfully":true},{"note":46,"velocity":83,"hitTime":2456,"closestNoteTime":2400,"hitSuccessfully":true},{"note":46,"velocity":80,"hitTime":2928,"closestNoteTime":2880,"hitSuccessfully":true},{"note":46,"velocity":70,"hitTime":3424,"closestNoteTime":3360,"hitSuccessfully":true},{"note":46,"velocity":82,"hitTime":3904,"closestNoteTime":3840,"hitSuccessfully":true},{"note":46,"velocity":75,"hitTime":4384,"closestNoteTime":4320,"hitSuccessfully":true},{"note":46,"velocity":58,"hitTime":4896,"closestNoteTime":4800,"hitSuccessfully":true},{"note":46,"velocity":80,"hitTime":5352,"closestNoteTime":5280,"hitSuccessfully":true},{"note":46,"velocity":60,"hitTime":5816,"closestNoteTime":5760,"hitSuccessfully":true},{"note":46,"velocity":73,"hitTime":6248,"closestNoteTime":6240,"hitSuccessfully":true},{"note":46,"velocity":74,"hitTime":6712,"closestNoteTime":6720,"hitSuccessfully":true},{"note":46,"velocity":79,"hitTime":7200,"closestNoteTime":7200,"hitSuccessfully":true},{"note":46,"velocity":80,"hitTime":7696,"closestNoteTime":7680,"hitSuccessfully":true},{"note":46,"velocity":77,"hitTime":8168,"closestNoteTime":8160,"hitSuccessfully":true},{"note":46,"velocity":77,"hitTime":8656,"closestNoteTime":8640,"hitSuccessfully":true},{"note":46,"velocity":79,"hitTime":9120,"closestNoteTime":9120,"hitSuccessfully":true},{"note":46,"velocity":73,"hitTime":9648,"closestNoteTime":9600,"hitSuccessfully":true},{"note":46,"velocity":76,"hitTime":10128,"closestNoteTime":10080,"hitSuccessfully":true},{"note":46,"velocity":80,"hitTime":10624,"closestNoteTime":10560,"hitSuccessfully":true},{"note":46,"velocity":72,"hitTime":11088,"closestNoteTime":11040,"hitSuccessfully":true},{"note":46,"velocity":77,"hitTime":11576,"closestNoteTime":11520,"hitSuccessfully":true},{"note":46,"velocity":82,"hitTime":12056,"closestNoteTime":12000,"hitSuccessfully":true},{"note":46,"velocity":82,"hitTime":12536,"closestNoteTime":12480,"hitSuccessfully":true},{"note":46,"velocity":76,"hitTime":13016,"closestNoteTime":12960,"hitSuccessfully":true},{"note":46,"velocity":76,"hitTime":13488,"closestNoteTime":13440,"hitSuccessfully":true},{"note":46,"velocity":75,"hitTime":13968,"closestNoteTime":13920,"hitSuccessfully":true},{"note":46,"velocity":80,"hitTime":14440,"closestNoteTime":14400,"hitSuccessfully":true},{"note":46,"velocity":85,"hitTime":14904,"closestNoteTime":14880,"hitSuccessfully":true}]}