{"frames":[{"note":46,"velocity":82,"hitTime":48,"closestNoteTime":0,"hitSuccessfully":true},{"note":36,"velocity":38,"hitTime":112,"closestNoteTime":0,"hitSuccessfully":true},{"note":46,"velocity":67,"hitTime":560,"closestNoteTime":480,"hitSuccessfully":true},{"note":46,"velocity":82,"hitTime":1072,"closestNoteTime":960,"hitSuccessfully":true},{"note":38,"velocity":78,"hitTime":1104,"closestNoteTime":960,"hitSuccessfully":true},{"note":46,"velocity":73,"hitTime":1520,"closestNoteTime":1440,"hitSuccessfully":true},{"note":46,"velocity":87,"hitTime":2000,"closestNoteTime":1920,"hitSuccessfully":true},{"note":36,"velocity":58,"hitTime":2000,"closestNoteTime":1920,"hitSuccessfully":true},{"note":46,"velocity":76,"hitTime":2496,"closestNoteTime":2400,"hitSuccessfully":true},{"note":38,"velocity":85,"hitTime":2944,"closestNoteTime":2880,"hitSuccessfully":true},{"note":38,"velocity":67,"hitTime":3008,"closestNoteTime":4800,"hitSuccessfully":false},{"note":46,"velocity":84,"hitTime":3024,"closestNoteTime":2880,"hitSuccessfully":true},{"note":46,"velocity":87,"hitTime":3904,"closestNoteTime":3840,"hitSuccessfully":true},{"note":36,"velocity":23,"hitTime":4336,"closestNoteTime":3840,"hitSuccessfully":false},{"note":46,"velocity":70,"hitTime":4384,"closestNoteTime":4320,"hitSuccessfully":true},{"note":46,"velocity":88,"hitTime":4896,"closestNoteTime":4800,"hitSuccessfully":true},{"note":38,"velocity":86,"hitTime":4928,"closestNoteTime":4800,"hitSuccessfully":true},{"note":46,"velocity":76,"hitTime":5360,"closestNoteTime":5280,"hitSuccessfully":true},{"note":46,"velocity":87,"hitTime":5856,"closestNoteTime":5760,"hitSuccessfully":true},{"note":36,"velocity":62,"hitTime":5888,"closestNoteTime":5760,"hitSuccessfully":true},{"note":46,"velocity":77,"hitTime":6320,"closestNoteTime":6240,"hitSuccessfully":true},{"note":38,"velocity":82,"hitTime":6800,"closestNoteTime":6720,"hitSuccessfully":true},{"note":46,"velocity":74,"hitTime":6880,"closestNoteTime":6720,"hitSuccessfully":true},{"note":46,"velocity":66,"hitTime":7280,"closestNoteTime":7200,"hitSuccessfully":true},{"note":46,"velocity":90,"hitTime":7792,"closestNoteTime":7680,"hitSuccessfully":true},{"note":46,"velocity":80,"hitTime":8272,"closestNoteTime":8160,"hitSuccessfully":true},{"note":46,"velocity":94,"hitTime":8704,"closestNoteTime":8640,"hitSuccessfully":true},{"note":36,"velocity":55,"hitTime":8736,"closestNoteTime":9600,"hitSuccessfully":false},{"note":38,"velocity":87,"hitTime":8752,"closestNoteTime":8640,"hitSuccessfully":true},{"note":38,"velocity":41,"hitTime":8864,"closestNoteTime":10560,"hitSuccessfully":false},{"note":46,"velocity":66,"hitTime":9232,"closestNoteTime":9120,"hitSuccessfully":true},{"note":46,"velocity":91,"hitTime":9696,"closestNoteTime":9600,"hitSuccessfully":true},{"note":46,"velocity":79,"hitTime":10208,"closestNoteTime":10080,"hitSuccessfully":true},{"note":46,"velocity":85,"hitTime":10656,"closestNoteTime":10560,"hitSuccessfully":true},{"note":38,"velocity":78,"hitTime":10688,"closestNoteTime":10560,"hitSuccessfully":true},{"note":38,"velocity":53,"hitTime":10784,"closestNoteTime":12480,"hitSuccessfully":false},{"note":46,"velocity":64,"hitTime":11184,"closestNoteTime":11040,"hitSuccessfully":true},{"note":46,"velocity":85,"hitTime":11616,"closestNoteTime":11520,"hitSuccessfully":true},{"note":36,"velocity":60,"hitTime":11648,"closestNoteTime":11520,"hitSuccessfully":true},{"note":46,"velocity":79,"hitTime":12096,"closestNoteTime":12000,"hitSuccessfully":true},{"note":38,"velocity":85,"hitTime":12576,"closestNoteTime":12480,"hitSuccessfully":true},{"note":46,"velocity":85,"hitTime":12576,"closestNoteTime":12480,"hitSuccessfully":true},{"note":38,"velocity":60,"hitTime":12656,"closestNoteTime":14400,"hitSuccessfully":false},{"note":46,"velocity":79,"hitTime":13056,"closestNoteTime":12960,"hitSuccessfully":true},{"note":46,"velocity":90,"hitTime":13552,"closestNoteTime":13440,"hitSuccessfully":true},{"note":46,"velocity":82,"hitTime":14032,"closestNoteTime":13920,"hitSuccessfully":true},{"note":46,"velocity":90,"hitTime":14480,"closestNoteTime":14400,"hitSuccessfully":true},{"note":46,"velocity":65,"hitTime":14992,"closestNoteTime":14880,"hitSuccessfully":true},{"note":46,"velocity":91,"hitTime":15600,"closestNoteTime":15360,"hitSuccessfully":true},{"note":46,"velocity":88,"hitTime":16512,"closestNoteTime":16320,"hitSuccessfully":true},{"note":38,"velocity":85,"hitTime":16544,"closestNoteTime":16320,"hitSuccessfully":true},{"note":38,"velocity":50,"hitTime":16656,"closestNoteTime":18240,"hitSuccessfully":false},{"note":46,"velocity":79,"hitTime":16976,"closestNoteTime":16800,"hitSuccessfully":true},{"note":46,"velocity":91,"hitTime":17408,"closestNoteTime":17280,"hitSuccessfully":true},{"note":36,"velocity":34,"hitTime":17456,"closestNoteTime":17280,"hitSuccessfully":true},{"note":46,"velocity":84,"hitTime":17856,"closestNoteTime":17760,"hitSuccessfully":true},{"note":46,"velocity":90,"hitTime":18304,"closestNoteTime":18240,"hitSuccessfully":true},{"note":38,"velocity":82,"hitTime":18368,"closestNoteTime":18240,"hitSuccessfully":true},{"note":38,"velocity":53,"hitTime":18448,"closestNoteTime":20160,"hitSuccessfully":false},{"note":46,"velocity":70,"hitTime":18880,"closestNoteTime":18720,"hitSuccessfully":true},{"note":46,"velocity":89,"hitTime":19344,"closestNoteTime":19200,"hitSuccessfully":true},{"note":36,"velocity":46,"hitTime":19376,"closestNoteTime":19200,"hitSuccessfully":true},{"note":46,"velocity":82,"hitTime":19856,"closestNoteTime":19680,"hitSuccessfully":true},{"note":46,"velocity":88,"hitTime":20320,"closestNoteTime":20160,"hitSuccessfully":true},{"note":38,"velocity":85,"hitTime":20336,"closestNoteTime":20160,"hitSuccessfully":true},{"note":38,"velocity":63,"hitTime":20400,"closestNoteTime":22080,"hitSuccessfully":false},{"note":46,"velocity":76,"hitTime":20800,"closestNoteTime":20640,"hitSuccessfully":true},{"note":46,"velocity":95,"hitTime":21280,"closestNoteTime":21120,"hitSuccessfully":true},{"note":46,"velocity":85,"hitTime":21760,"closestNoteTime":21600,"hitSuccessfully":true},{"note":36,"velocity":50,"hitTime":22192,"closestNoteTime":23040,"hitSuccessfully":false},{"note":46,"velocity":91,"hitTime":22224,"closestNoteTime":22080,"hitSuccessfully":true},{"note":46,"velocity":62,"hitTime":22720,"closestNoteTime":22560,"hitSuccessfully":true},{"note":46,"velocity":84,"hitTime":23232,"closestNoteTime":23040,"hitSuccessfully":true},{"note":46,"velocity":79,"hitTime":23792,"closestNoteTime":23520,"hitSuccessfully":true},{"note":38,"velocity":84,"hitTime":24176,"closestNoteTime":24000,"hitSuccessfully":true},{"note":46,"velocity":91,"hitTime":24176,"closestNoteTime":24000,"hitSuccessfully":true},{"note":46,"velocity":79,"hitTime":24688,"closestNoteTime":24480,"hitSuccessfully":true},{"note":36,"velocity":52,"hitTime":25056,"closestNoteTime":24960,"hitSuccessfully":true},{"note":46,"velocity":88,"hitTime":25104,"closestNoteTime":24960,"hitSuccessfully":true},{"note":46,"velocity":80,"hitTime":25600,"closestNoteTime":25440,"hitSuccessfully":true},{"note":46,"velocity":82,"hitTime":26080,"closestNoteTime":25920,"hitSuccessfully":true},{"note":38,"velocity":81,"hitTime":26080,"closestNoteTime":25920,"hitSuccessfully":true},{"note":38,"velocity":62,"hitTime":26160,"closestNoteTime":27840,"hitSuccessfully":false},{"note":46,"velocity":75,"hitTime":26560,"closestNoteTime":26400,"hitSuccessfully":true},{"note":46,"velocity":95,"hitTime":27008,"closestNoteTime":26880,"hitSuccessfully":true},{"note":46,"velocity":85,"hitTime":27520,"closestNoteTime":27360,"hitSuccessfully":true},{"note":36,"velocity":50,"hitTime":27888,"closestNoteTime":28800,"hitSuccessfully":false},{"note":46,"velocity":93,"hitTime":27952,"closestNoteTime":27840,"hitSuccessfully":true},{"note":46,"velocity":47,"hitTime":28592,"closestNoteTime":28320,"hitSuccessfully":true},{"note":46,"velocity":77,"hitTime":29072,"closestNoteTime":28800,"hitSuccessfully":true},{"note":46,"velocity":84,"hitTime":30032,"closestNoteTime":29760,"hitSuccessfully":true},{"note":38,"velocity":64,"hitTime":30096,"closestNoteTime":29760,"hitSuccessfully":false}]}