{"frames":[{"note":46,"velocity":94,"hitTime":56,"closestNoteTime":0,"hitSuccessfully":true},{"note":46,"velocity":97,"hitTime":512,"closestNoteTime":480,"hitSuccessfully":true},{"note":46,"velocity":94,"hitTime":984,"closestNoteTime":960,"hitSuccessfully":true},{"note":46,"velocity":97,"hitTime":1448,"closestNoteTime":1440,"hitSuccessfully":true},{"note":46,"velocity":95,"hitTime":1936,"closestNoteTime":1920,"hitSuccessfully":true},{"note":46,"velocity":94,"hitTime":2416,"closestNoteTime":2400,"hitSuccessfully":true},{"note":46,"velocity":91,"hitTime":2912,"closestNoteTime":2880,"hitSuccessfully":true},{"note":46,"velocity":95,"hitTime":3408,"closestNoteTime":3360,"hitSuccessfully":true},{"note":46,"velocity":93,"hitTime":3872,"closestNoteTime":3840,"hitSuccessfully":true},{"note":46,"velocity":95,"hitTime":4368,"closestNoteTime":4320,"hitSuccessfully":true},{"note":46,"velocity":94,"hitTime":4864,"closestNoteTime":4800,"hitSuccessfully":true},{"note":46,"velocity":95,"hitTime":5336,"closestNoteTime":5280,"hitSuccessfully":true},{"note":46,"velocity":94,"hitTime":5832,"closestNoteTime":5760,"hitSuccessfully":true},{"note":46,"velocity":94,"hitTime":6312,"closestNoteTime":6240,"hitSuccessfully":true},{"note":46,"velocity":91,"hitTime":6792,"closestNoteTime":6720,"hitSuccessfully":true},{"note":46,"velocity":93,"hitTime":7288,"closestNoteTime":7200,"hitSuccessfully":true},{"note":46,"velocity":94,"hitTime":7768,"closestNoteTime":7680,"hitSuccessfully":true},{"note":46,"velocity":91,"hitTime":8240,"closestNoteTime":8160,"hitSuccessfully":true},{"note":46,"velocity":91,"hitTime":8704,"closestNoteTime":8640,"hitSuccessfully":true},{"note":46,"velocity":91,"hitTime":9176,"closestNoteTime":9120,"hitSuccessfully":true},{"note":46,"velocity":91,"hitTime":9680,"closestNoteTime":9600,"hitSuccessfully":true},{"note":46,"velocity":91,"hitTime":10168,"closestNoteTime":10080,"hitSuccessfully":true},{"note":46,"velocity":93,"hitTime":10632,"closestNoteTime":10560,"hitSuccessfully":true},{"note":46,"velocity":90,"hitTime":11112,"closestNoteTime":11040,"hitSuccessfully":true},{"note":46,"velocity":94,"hitTime":11584,"closestNoteTime":11520,"hitSuccessfully":true},{"note":46,"velocity":90,"hitTime":12056,"closestNoteTime":12000,"hitSuccessfully":true},{"note":46,"velocity":91,"hitTime":12536,"closestNoteTime":12480,"hitSuccessfully":true},{"note":46,"velocity":89,"hitTime":13032,"closestNoteTime":12960,"hitSuccessfully":true},{"note":46,"velocity":91,"hitTime":13512,"closestNoteTime":13440,"hitSuccessfully":true},{"note":46,"velocity":93,"hitTime":13984,"closestNoteTime":13920,"hitSuccessfully":true},{"note":46,"velocity":91,"hitTime":14448,"closestNoteTime":14400,"hitSuccessfully":true},{"note":46,"velocity":97,"hitTime":14928,"closestNoteTime":14880,"hitSuccessfully":true}]}