{"frames":[{"note":46,"velocity":60,"hitTime":-48,"closestNoteTime":0,"hitSuccessfully":true},{"note":46,"velocity":64,"hitTime":384,"closestNoteTime":480,"hitSuccessfully":true},{"note":46,"velocity":65,"hitTime":888,"closestNoteTime":960,"hitSuccessfully":true},{"note":46,"velocity":74,"hitTime":1384,"closestNoteTime":1440,"hitSuccessfully":true},{"note":46,"velocity":75,"hitTime":1944,"closestNoteTime":1920,"hitSuccessfully":true},{"note":36,"velocity":23,"hitTime":2656,"closestNoteTime":1920,"hitSuccessfully":false},{"note":46,"velocity":67,"hitTime":2912,"closestNoteTime":2880,"hitSuccessfully":true},{"note":46,"velocity":70,"hitTime":3392,"closestNoteTime":3360,"hitSuccessfully":true},{"note":46,"velocity":73,"hitTime":3864,"closestNoteTime":3840,"hitSuccessfully":true},{"note":36,"velocity":48,"hitTime":4424,"closestNoteTime":3840,"hitSuccessfully":false},{"note":46,"velocity":67,"hitTime":4720,"closestNoteTime":4800,"hitSuccessfully":true},{"note":46,"velocity":62,"hitTime":5224,"closestNoteTime":5280,"hitSuccessfully":true},{"note":46,"velocity":74,"hitTime":5792,"closestNoteTime":5760,"hitSuccessfully":true},{"note":46,"velocity":62,"hitTime":6272,"closestNoteTime":6240,"hitSuccessfully":true},{"note":36,"velocity":47,"hitTime":6776,"closestNoteTime":7680,"hitSuccessfully":false},{"note":46,"velocity":73,"hitTime":6904,"closestNoteTime":6720,"hitSuccessfully":false},{"note":36,"velocity":20,"hitTime":6904,"closestNoteTime":7680,"hitSuccessfully":false},{"note":46,"velocity":58,"hitTime":7328,"closestNoteTime":7200,"hitSuccessfully":true},{"note":46,"velocity":64,"hitTime":7768,"closestNoteTime":7680,"hitSuccessfully":true},{"note":46,"velocity":73,"hitTime":8240,"closestNoteTime":8160,"hitSuccessfully":true},{"note":36,"velocity":21,"hitTime":8656,"closestNoteTime":9600,"hitSuccessfully":false},{"note":36,"velocity":26,"hitTime":8744,"closestNoteTime":9600,"hitSuccessfully":false},{"note":46,"velocity":56,"hitTime":8896,"closestNoteTime":9120,"hitSuccessfully":false},{"note":46,"velocity":65,"hitTime":9280,"closestNoteTime":9120,"hitSuccessfully":false},{"note":46,"velocity":62,"hitTime":9736,"closestNoteTime":9600,"hitSuccessfully":true},{"note":46,"velocity":72,"hitTime":10192,"closestNoteTime":10080,"hitSuccessfully":true},{"note":36,"velocity":55,"hitTime":10304,"closestNoteTime":9600,"hitSuccessfully":false},{"note":46,"velocity":65,"hitTime":10744,"closestNoteTime":10560,"hitSuccessfully":false},{"note":46,"velocity":60,"hitTime":11248,"closestNoteTime":11040,"hitSuccessfully":false},{"note":46,"velocity":60,"hitTime":11760,"closestNoteTime":11520,"hitSuccessfully":false},{"note":46,"velocity":54,"hitTime":12312,"closestNoteTime":12480,"hitSuccessfully":false},{"note":36,"velocity":47,"hitTime":12856,"closestNoteTime":13440,"hitSuccessfully":false},{"note":46,"velocity":64,"hitTime":12856,"closestNoteTime":12960,"hitSuccessfully":true},{"note":36,"velocity":27,"hitTime":12936,"closestNoteTime":13440,"hitSuccessfully":false},{"note":46,"velocity":60,"hitTime":13488,"closestNoteTime":13440,"hitSuccessfully":true},{"note":46,"velocity":70,"hitTime":14008,"closestNoteTime":13920,"hitSuccessfully":true},{"note":46,"velocity":70,"hitTime":14480,"closestNoteTime":14400,"hitSuccessfully":true},{"note":36,"velocity":58,"hitTime":14960,"closestNoteTime":13440,"hitSuccessfully":false},{"note":46,"velocity":64,"hitTime":14984,"closestNoteTime":14880,"hitSuccessfully":true},{"note":36,"velocity":27,"hitTime":15064,"closestNoteTime":13440,"hitSuccessfully":false}]}