{"frames":[{"note":46,"velocity":54,"hitTime":112,"closestNoteTime":0,"hitSuccessfully":true},{"note":46,"velocity":46,"hitTime":552,"closestNoteTime":480,"hitSuccessfully":true},{"note":46,"velocity":55,"hitTime":1008,"closestNoteTime":960,"hitSuccessfully":true},{"note":38,"velocity":56,"hitTime":1032,"closestNoteTime":960,"hitSuccessfully":true},{"note":46,"velocity":48,"hitTime":1560,"closestNoteTime":1440,"hitSuccessfully":true},{"note":46,"velocity":50,"hitTime":2024,"closestNoteTime":1920,"hitSuccessfully":true},{"note":46,"velocity":52,"hitTime":2520,"closestNoteTime":2400,"hitSuccessfully":true},{"note":38,"velocity":36,"hitTime":2992,"closestNoteTime":2880,"hitSuccessfully":true},{"note":46,"velocity":52,"hitTime":3416,"closestNoteTime":3360,"hitSuccessfully":true},{"note":46,"velocity":56,"hitTime":3848,"closestNoteTime":3840,"hitSuccessfully":true},{"note":46,"velocity":54,"hitTime":4352,"closestNoteTime":4320,"hitSuccessfully":true},{"note":46,"velocity":58,"hitTime":4888,"closestNoteTime":4800,"hitSuccessfully":true},{"note":46,"velocity":55,"hitTime":5720,"closestNoteTime":5760,"hitSuccessfully":true},{"note":46,"velocity":58,"hitTime":6232,"closestNoteTime":6240,"hitSuccessfully":true},{"note":46,"velocity":65,"hitTime":6712,"closestNoteTime":6720,"hitSuccessfully":true},{"note":38,"velocity":41,"hitTime":6968,"closestNoteTime":6720,"hitSuccessfully":false},{"note":46,"velocity":65,"hitTime":7584,"closestNoteTime":7680,"hitSuccessfully":true},{"note":46,"velocity":58,"hitTime":8024,"closestNoteTime":8160,"hitSuccessfully":true},{"note":46,"velocity":55,"hitTime":8544,"closestNoteTime":8640,"hitSuccessfully":true},{"note":38,"velocity":64,"hitTime":8896,"closestNoteTime":8640,"hitSuccessfully":false},{"note":46,"velocity":60,"hitTime":9352,"closestNoteTime":9120,"hitSuccessfully":false},{"note":38,"velocity":26,"hitTime":9392,"closestNoteTime":8640,"hitSuccessfully":false},{"note":46,"velocity":52,"hitTime":9856,"closestNoteTime":10080,"hitSuccessfully":false},{"note":46,"velocity":54,"hitTime":10416,"closestNoteTime":10560,"hitSuccessfully":true},{"note":38,"velocity":50,"hitTime":10832,"closestNoteTime":10560,"hitSuccessfully":false},{"note":46,"velocity":54,"hitTime":11288,"closestNoteTime":11520,"hitSuccessfully":false},{"note":46,"velocity":55,"hitTime":11784,"closestNoteTime":12000,"hitSuccessfully":false},{"note":46,"velocity":58,"hitTime":12256,"closestNoteTime":12480,"hitSuccessfully":false},{"note":38,"velocity":49,"hitTime":12736,"closestNoteTime":12480,"hitSuccessfully":false},{"note":38,"velocity":26,"hitTime":12776,"closestNoteTime":12480,"hitSuccessfully":false},{"note":46,"velocity":48,"hitTime":13176,"closestNoteTime":12960,"hitSuccessfully":false},{"note":46,"velocity":58,"hitTime":13648,"closestNoteTime":13440,"hitSuccessfully":false},{"note":46,"velocity":52,"hitTime":14168,"closestNoteTime":14400,"hitSuccessfully":false},{"note":46,"velocity":54,"hitTime":14648,"closestNoteTime":14880,"hitSuccessfully":false},{"note":38,"velocity":53,"hitTime":14904,"closestNoteTime":14400,"hitSuccessfully":false},{"note":38,"velocity":19,"hitTime":14984,"closestNoteTime":14400,"hitSuccessfully":false}]}