{"frames":[{"note":46,"velocity":102,"hitTime":208,"closestNoteTime":0,"hitSuccessfully":true},{"note":36,"velocity":85,"hitTime":240,"closestNoteTime":0,"hitSuccessfully":true},{"note":46,"velocity":85,"hitTime":640,"closestNoteTime":480,"hitSuccessfully":true},{"note":46,"velocity":88,"hitTime":1088,"closestNoteTime":960,"hitSuccessfully":true},{"note":36,"velocity":52,"hitTime":1280,"closestNoteTime":1920,"hitSuccessfully":false},{"note":36,"velocity":67,"hitTime":2080,"closestNoteTime":1920,"hitSuccessfully":true},{"note":46,"velocity":106,"hitTime":2112,"closestNoteTime":1920,"hitSuccessfully":true},{"note":46,"velocity":100,"hitTime":2960,"closestNoteTime":2880,"hitSuccessfully":true},{"note":36,"velocity":62,"hitTime":2992,"closestNoteTime":3840,"hitSuccessfully":false},{"note":46,"velocity":109,"hitTime":3904,"closestNoteTime":3840,"hitSuccessfully":true},{"note":38,"velocity":91,"hitTime":3920,"closestNoteTime":4800,"hitSuccessfully":false},{"note":36,"velocity":73,"hitTime":3952,"closestNoteTime":3840,"hitSuccessfully":true},{"note":38,"velocity":58,"hitTime":4352,"closestNoteTime":4800,"hitSuccessfully":false},{"note":36,"velocity":39,"hitTime":4864,"closestNoteTime":5760,"hitSuccessfully":false},{"note":46,"velocity":67,"hitTime":4944,"closestNoteTime":4800,"hitSuccessfully":true},{"note":46,"velocity":88,"hitTime":5344,"closestNoteTime":5280,"hitSuccessfully":true},{"note":46,"velocity":99,"hitTime":5808,"closestNoteTime":5760,"hitSuccessfully":true},{"note":36,"velocity":48,"hitTime":5872,"closestNoteTime":5760,"hitSuccessfully":true},{"note":46,"velocity":79,"hitTime":6272,"closestNoteTime":6240,"hitSuccessfully":true},{"note":46,"velocity":101,"hitTime":7824,"closestNoteTime":7680,"hitSuccessfully":true},{"note":46,"velocity":99,"hitTime":8720,"closestNoteTime":8640,"hitSuccessfully":true},{"note":46,"velocity":101,"hitTime":9728,"closestNoteTime":9600,"hitSuccessfully":true},{"note":46,"velocity":103,"hitTime":10720,"closestNoteTime":10560,"hitSuccessfully":true},{"note":46,"velocity":82,"hitTime":10784,"closestNoteTime":11040,"hitSuccessfully":true},{"note":46,"velocity":83,"hitTime":11280,"closestNoteTime":11520,"hitSuccessfully":true},{"note":46,"velocity":91,"hitTime":11632,"closestNoteTime":12000,"hitSuccessfully":false},{"note":46,"velocity":84,"hitTime":12224,"closestNoteTime":12000,"hitSuccessfully":true},{"note":46,"velocity":84,"hitTime":12672,"closestNoteTime":12480,"hitSuccessfully":true},{"note":46,"velocity":64,"hitTime":12736,"closestNoteTime":12960,"hitSuccessfully":true},{"note":46,"velocity":80,"hitTime":13168,"closestNoteTime":13440,"hitSuccessfully":true},{"note":46,"velocity":80,"hitTime":13568,"closestNoteTime":13920,"hitSuccessfully":false},{"note":46,"velocity":77,"hitTime":14064,"closestNoteTime":13920,"hitSuccessfully":true},{"note":46,"velocity":75,"hitTime":14496,"closestNoteTime":14400,"hitSuccessfully":true},{"note":38,"velocity":94,"hitTime":15456,"closestNoteTime":16320,"hitSuccessfully":false},{"note":36,"velocity":96,"hitTime":15456,"closestNoteTime":15360,"hitSuccessfully":true},{"note":46,"velocity":107,"hitTime":15456,"closestNoteTime":15360,"hitSuccessfully":true},{"note":46,"velocity":44,"hitTime":16160,"closestNoteTime":16320,"hitSuccessfully":true},{"note":46,"velocity":74,"hitTime":16560,"closestNoteTime":16800,"hitSuccessfully":true},{"note":36,"velocity":28,"hitTime":16640,"closestNoteTime":17280,"hitSuccessfully":false},{"note":46,"velocity":64,"hitTime":16944,"closestNoteTime":17280,"hitSuccessfully":false},{"note":46,"velocity":97,"hitTime":17424,"closestNoteTime":17280,"hitSuccessfully":true},{"note":36,"velocity":83,"hitTime":17440,"closestNoteTime":17280,"hitSuccessfully":true},{"note":46,"velocity":75,"hitTime":17952,"closestNoteTime":17760,"hitSuccessfully":true},{"note":46,"velocity":46,"hitTime":18272,"closestNoteTime":18240,"hitSuccessfully":true},{"note":46,"velocity":102,"hitTime":19344,"closestNoteTime":19200,"hitSuccessfully":true},{"note":38,"velocity":98,"hitTime":19344,"closestNoteTime":20160,"hitSuccessfully":false},{"note":36,"velocity":73,"hitTime":19392,"closestNoteTime":19200,"hitSuccessfully":true},{"note":38,"velocity":62,"hitTime":19776,"closestNoteTime":20160,"hitSuccessfully":false},{"note":46,"velocity":80,"hitTime":20208,"closestNoteTime":20160,"hitSuccessfully":true},{"note":46,"velocity":82,"hitTime":20656,"closestNoteTime":20640,"hitSuccessfully":true},{"note":36,"velocity":89,"hitTime":21200,"closestNoteTime":21120,"hitSuccessfully":true},{"note":46,"velocity":102,"hitTime":21200,"closestNoteTime":21120,"hitSuccessfully":true},{"note":46,"velocity":80,"hitTime":22080,"closestNoteTime":22080,"hitSuccessfully":true},{"note":46,"velocity":77,"hitTime":22560,"closestNoteTime":22560,"hitSuccessfully":true},{"note":46,"velocity":101,"hitTime":23072,"closestNoteTime":23040,"hitSuccessfully":true},{"note":36,"velocity":88,"hitTime":23088,"closestNoteTime":23040,"hitSuccessfully":true},{"note":38,"velocity":101,"hitTime":23088,"closestNoteTime":24000,"hitSuccessfully":false},{"note":46,"velocity":84,"hitTime":23152,"closestNoteTime":23520,"hitSuccessfully":false},{"note":38,"velocity":72,"hitTime":24064,"closestNoteTime":24000,"hitSuccessfully":true},{"note":38,"velocity":81,"hitTime":24512,"closestNoteTime":25920,"hitSuccessfully":false},{"note":38,"velocity":101,"hitTime":25056,"closestNoteTime":25920,"hitSuccessfully":false},{"note":46,"velocity":103,"hitTime":25056,"closestNoteTime":24960,"hitSuccessfully":true},{"note":36,"velocity":82,"hitTime":25056,"closestNoteTime":24960,"hitSuccessfully":true},{"note":46,"velocity":86,"hitTime":26016,"closestNoteTime":25920,"hitSuccessfully":true},{"note":46,"velocity":75,"hitTime":26416,"closestNoteTime":26400,"hitSuccessfully":true},{"note":38,"velocity":88,"hitTime":26928,"closestNoteTime":27840,"hitSuccessfully":false},{"note":46,"velocity":100,"hitTime":26944,"closestNoteTime":26880,"hitSuccessfully":true},{"note":36,"velocity":80,"hitTime":26944,"closestNoteTime":26880,"hitSuccessfully":true},{"note":46,"velocity":79,"hitTime":27680,"closestNoteTime":27840,"hitSuccessfully":true},{"note":46,"velocity":73,"hitTime":28080,"closestNoteTime":28320,"hitSuccessfully":true},{"note":36,"velocity":60,"hitTime":30128,"closestNoteTime":28800,"hitSuccessfully":false},{"note":46,"velocity":74,"hitTime":30128,"closestNoteTime":30240,"hitSuccessfully":true}]}