{
  "frames": [
    {
      "note": 46,
      "velocity": 88,
      "hitTime": 166,
      "closestNoteTime": 0,
      "hitSuccessfully": true
    },
    {
      "note": 46,
      "velocity": 66,
      "hitTime": 575,
      "closestNoteTime": 480,
      "hitSuccessfully": true
    },
    {
      "note": 46,
      "velocity": 97,
      "hitTime": 1069,
      "closestNoteTime": 960,
      "hitSuccessfully": true
    },
    {
      "note": 46,
      "velocity": 79,
      "hitTime": 1449,
      "closestNoteTime": 1440,
      "hitSuccessfully": true
    },
    {
      "note": 46,
      "velocity": 101,
      "hitTime": 1979,
      "closestNoteTime": 1920,
      "hitSuccessfully": true
    },
    {
      "note": 46,
      "velocity": 86,
      "hitTime": 2420,
      "closestNoteTime": 2400,
      "hitSuccessfully": true
    },
    {
      "note": 46,
      "velocity": 94,
      "hitTime": 2931,
      "closestNoteTime": 2880,
      "hitSuccessfully": true
    },
    {
      "note": 46,
      "velocity": 75,
      "hitTime": 3393,
      "closestNoteTime": 3360,
      "hitSuccessfully": true
    },
    {
      "note": 46,
      "velocity": 97,
      "hitTime": 3958,
      "closestNoteTime": 3840,
      "hitSuccessfully": true
    },
    {
      "note": 46,
      "velocity": 77,
      "hitTime": 4366,
      "closestNoteTime": 4320,
      "hitSuccessfully": true
    },
    {
      "note": 46,
      "velocity": 95,
      "hitTime": 4888,
      "closestNoteTime": 4800,
      "hitSuccessfully": true
    },
    {
      "note": 46,
      "velocity": 58,
      "hitTime": 5297,
      "closestNoteTime": 5280,
      "hitSuccessfully": true
    },
    {
      "note": 46,
      "velocity": 97,
      "hitTime": 5830,
      "closestNoteTime": 5760,
      "hitSuccessfully": true
    },
    {
      "note": 46,
      "velocity": 80,
      "hitTime": 6300,
      "closestNoteTime": 6240,
      "hitSuccessfully": true
    },
    {
      "note": 46,
      "velocity": 95,
      "hitTime": 6803,
      "closestNoteTime": 6720,
      "hitSuccessfully": true
    },
    {
      "note": 46,
      "velocity": 62,
      "hitTime": 7212,
      "closestNoteTime": 7200,
      "hitSuccessfully": true
    },
    {
      "note": 46,
      "velocity": 106,
      "hitTime": 7765,
      "closestNoteTime": 7680,
      "hitSuccessfully": true
    },
    {
      "note": 46,
      "velocity": 67,
      "hitTime": 8236,
      "closestNoteTime": 8160,
      "hitSuccessfully": true
    },
    {
      "note": 46,
      "velocity": 91,
      "hitTime": 8748,
      "closestNoteTime": 8640,
      "hitSuccessfully": true
    },
    {
      "note": 46,
      "velocity": 17,
      "hitTime": 9211,
      "closestNoteTime": 9120,
      "hitSuccessfully": true
    },
    {
      "note": 46,
      "velocity": 100,
      "hitTime": 9672,
      "closestNoteTime": 9600,
      "hitSuccessfully": true
    },
    {
      "note": 46,
      "velocity": 62,
      "hitTime": 10141,
      "closestNoteTime": 10080,
      "hitSuccessfully": true
    },
    {
      "note": 46,
      "velocity": 97,
      "hitTime": 10674,
      "closestNoteTime": 10560,
      "hitSuccessfully": true
    },
    {
      "note": 46,
      "velocity": 82,
      "hitTime": 11063,
      "closestNoteTime": 11040,
      "hitSuccessfully": true
    },
    {
      "note": 46,
      "velocity": 93,
      "hitTime": 11636,
      "closestNoteTime": 11520,
      "hitSuccessfully": true
    },
    {
      "note": 46,
      "velocity": 79,
      "hitTime": 12036,
      "closestNoteTime": 12000,
      "hitSuccessfully": true
    },
    {
      "note": 46,
      "velocity": 93,
      "hitTime": 12549,
      "closestNoteTime": 12480,
      "hitSuccessfully": true
    },
    {
      "note": 46,
      "velocity": 88,
      "hitTime": 13009,
      "closestNoteTime": 12960,
      "hitSuccessfully": true
    },
    {
      "note": 46,
      "velocity": 93,
      "hitTime": 13531,
      "closestNoteTime": 13440,
      "hitSuccessfully": true
    },
    {
      "note": 46,
      "velocity": 82,
      "hitTime": 13971,
      "closestNoteTime": 13920,
      "hitSuccessfully": true
    },
    {
      "note": 46,
      "velocity": 80,
      "hitTime": 14472,
      "closestNoteTime": 14400,
      "hitSuccessfully": true
    }
  ]
}