{"frames":[{"note":46,"velocity":88,"hitTime":16,"closestNoteTime":0,"hitSuccessfully":true},{"note":46,"velocity":87,"hitTime":488,"closestNoteTime":480,"hitSuccessfully":true},{"note":46,"velocity":87,"hitTime":968,"closestNoteTime":960,"hitSuccessfully":true},{"note":46,"velocity":87,"hitTime":1448,"closestNoteTime":1440,"hitSuccessfully":true},{"note":46,"velocity":86,"hitTime":1920,"closestNoteTime":1920,"hitSuccessfully":true},{"note":46,"velocity":86,"hitTime":2432,"closestNoteTime":2400,"hitSuccessfully":true},{"note":46,"velocity":85,"hitTime":2912,"closestNoteTime":2880,"hitSuccessfully":true},{"note":46,"velocity":88,"hitTime":3408,"closestNoteTime":3360,"hitSuccessfully":true},{"note":46,"velocity":87,"hitTime":3888,"closestNoteTime":3840,"hitSuccessfully":true},{"note":46,"velocity":87,"hitTime":4368,"closestNoteTime":4320,"hitSuccessfully":true},{"note":46,"velocity":87,"hitTime":4848,"closestNoteTime":4800,"hitSuccessfully":true},{"note":46,"velocity":85,"hitTime":5320,"closestNoteTime":5280,"hitSuccessfully":true},{"note":46,"velocity":85,"hitTime":5800,"closestNoteTime":5760,"hitSuccessfully":true},{"note":46,"velocity":85,"hitTime":6272,"closestNoteTime":6240,"hitSuccessfully":true},{"note":46,"velocity":87,"hitTime":6752,"closestNoteTime":6720,"hitSuccessfully":true},{"note":46,"velocity":85,"hitTime":7232,"closestNoteTime":7200,"hitSuccessfully":true},{"note":46,"velocity":85,"hitTime":7704,"closestNoteTime":7680,"hitSuccessfully":true},{"note":46,"velocity":84,"hitTime":8208,"closestNoteTime":8160,"hitSuccessfully":true},{"note":46,"velocity":82,"hitTime":8664,"closestNoteTime":8640,"hitSuccessfully":true},{"note":46,"velocity":83,"hitTime":9160,"closestNoteTime":9120,"hitSuccessfully":true},{"note":46,"velocity":83,"hitTime":9640,"closestNoteTime":9600,"hitSuccessfully":true},{"note":46,"velocity":77,"hitTime":10112,"closestNoteTime":10080,"hitSuccessfully":true},{"note":46,"velocity":82,"hitTime":10592,"closestNoteTime":10560,"hitSuccessfully":true},{"note":46,"velocity":79,"hitTime":11088,"closestNoteTime":11040,"hitSuccessfully":true},{"note":46,"velocity":82,"hitTime":11560,"closestNoteTime":11520,"hitSuccessfully":true},{"note":46,"velocity":77,"hitTime":12040,"closestNoteTime":12000,"hitSuccessfully":true},{"note":46,"velocity":79,"hitTime":12512,"closestNoteTime":12480,"hitSuccessfully":true},{"note":46,"velocity":79,"hitTime":12992,"closestNoteTime":12960,"hitSuccessfully":true},{"note":46,"velocity":76,"hitTime":13456,"closestNoteTime":13440,"hitSuccessfully":true},{"note":46,"velocity":77,"hitTime":13968,"closestNoteTime":13920,"hitSuccessfully":true},{"note":46,"velocity":77,"hitTime":14408,"closestNoteTime":14400,"hitSuccessfully":true},{"note":46,"velocity":80,"hitTime":14920,"closestNoteTime":14880,"hitSuccessfully":true}]}