{"frames":[{"note":46,"velocity":99,"hitTime":80,"closestNoteTime":0,"hitSuccessfully":true},{"note":36,"velocity":66,"hitTime":112,"closestNoteTime":0,"hitSuccessfully":true},{"note":46,"velocity":101,"hitTime":592,"closestNoteTime":480,"hitSuccessfully":true},{"note":38,"velocity":98,"hitTime":1040,"closestNoteTime":960,"hitSuccessfully":true},{"note":38,"velocity":63,"hitTime":1152,"closestNoteTime":2880,"hitSuccessfully":false},{"note":46,"velocity":101,"hitTime":1504,"closestNoteTime":1440,"hitSuccessfully":true},{"note":46,"velocity":106,"hitTime":1952,"closestNoteTime":1920,"hitSuccessfully":true},{"note":36,"velocity":72,"hitTime":2064,"closestNoteTime":1920,"hitSuccessfully":true},{"note":46,"velocity":105,"hitTime":2464,"closestNoteTime":2400,"hitSuccessfully":true},{"note":46,"velocity":106,"hitTime":2928,"closestNoteTime":2880,"hitSuccessfully":true},{"note":38,"velocity":94,"hitTime":2944,"closestNoteTime":2880,"hitSuccessfully":true},{"note":46,"velocity":105,"hitTime":3408,"closestNoteTime":3360,"hitSuccessfully":true},{"note":46,"velocity":112,"hitTime":3856,"closestNoteTime":3840,"hitSuccessfully":true},{"note":36,"velocity":81,"hitTime":3968,"closestNoteTime":3840,"hitSuccessfully":true},{"note":46,"velocity":106,"hitTime":4368,"closestNoteTime":4320,"hitSuccessfully":true},{"note":46,"velocity":104,"hitTime":4816,"closestNoteTime":4800,"hitSuccessfully":true},{"note":38,"velocity":90,"hitTime":4848,"closestNoteTime":4800,"hitSuccessfully":true},{"note":46,"velocity":104,"hitTime":5280,"closestNoteTime":5280,"hitSuccessfully":true},{"note":46,"velocity":108,"hitTime":5760,"closestNoteTime":5760,"hitSuccessfully":true},{"note":36,"velocity":61,"hitTime":5856,"closestNoteTime":5760,"hitSuccessfully":true},{"note":46,"velocity":106,"hitTime":6272,"closestNoteTime":6240,"hitSuccessfully":true},{"note":38,"velocity":94,"hitTime":6752,"closestNoteTime":6720,"hitSuccessfully":true},{"note":46,"velocity":108,"hitTime":6752,"closestNoteTime":6720,"hitSuccessfully":true},{"note":46,"velocity":103,"hitTime":7200,"closestNoteTime":7200,"hitSuccessfully":true},{"note":46,"velocity":114,"hitTime":7680,"closestNoteTime":7680,"hitSuccessfully":true},{"note":36,"velocity":64,"hitTime":7792,"closestNoteTime":7680,"hitSuccessfully":true},{"note":46,"velocity":107,"hitTime":8240,"closestNoteTime":8160,"hitSuccessfully":true},{"note":46,"velocity":110,"hitTime":8656,"closestNoteTime":8640,"hitSuccessfully":true},{"note":38,"velocity":97,"hitTime":8704,"closestNoteTime":8640,"hitSuccessfully":true},{"note":46,"velocity":106,"hitTime":9136,"closestNoteTime":9120,"hitSuccessfully":true},{"note":46,"velocity":104,"hitTime":9584,"closestNoteTime":9600,"hitSuccessfully":true},{"note":36,"velocity":54,"hitTime":9664,"closestNoteTime":9600,"hitSuccessfully":true},{"note":46,"velocity":127,"hitTime":10128,"closestNoteTime":10080,"hitSuccessfully":true},{"note":46,"velocity":109,"hitTime":10576,"closestNoteTime":10560,"hitSuccessfully":true},{"note":38,"velocity":93,"hitTime":10576,"closestNoteTime":10560,"hitSuccessfully":true},{"note":36,"velocity":27,"hitTime":10736,"closestNoteTime":11520,"hitSuccessfully":false},{"note":46,"velocity":103,"hitTime":11088,"closestNoteTime":11040,"hitSuccessfully":true},{"note":46,"velocity":108,"hitTime":11536,"closestNoteTime":11520,"hitSuccessfully":true},{"note":36,"velocity":59,"hitTime":11632,"closestNoteTime":11520,"hitSuccessfully":true},{"note":46,"velocity":102,"hitTime":12000,"closestNoteTime":12000,"hitSuccessfully":true},{"note":46,"velocity":105,"hitTime":12448,"closestNoteTime":12480,"hitSuccessfully":true},{"note":38,"velocity":96,"hitTime":12480,"closestNoteTime":12480,"hitSuccessfully":true},{"note":36,"velocity":22,"hitTime":12640,"closestNoteTime":13440,"hitSuccessfully":false},{"note":46,"velocity":102,"hitTime":12928,"closestNoteTime":12960,"hitSuccessfully":true},{"note":36,"velocity":42,"hitTime":13088,"closestNoteTime":13440,"hitSuccessfully":false},{"note":46,"velocity":108,"hitTime":13408,"closestNoteTime":13440,"hitSuccessfully":true},{"note":36,"velocity":54,"hitTime":13552,"closestNoteTime":13440,"hitSuccessfully":true},{"note":46,"velocity":106,"hitTime":13904,"closestNoteTime":13920,"hitSuccessfully":true},{"note":46,"velocity":106,"hitTime":14352,"closestNoteTime":14400,"hitSuccessfully":true},{"note":38,"velocity":95,"hitTime":14384,"closestNoteTime":14400,"hitSuccessfully":true},{"note":46,"velocity":99,"hitTime":14832,"closestNoteTime":14880,"hitSuccessfully":true},{"note":46,"velocity":114,"hitTime":15312,"closestNoteTime":15360,"hitSuccessfully":true},{"note":36,"velocity":73,"hitTime":15392,"closestNoteTime":15360,"hitSuccessfully":true},{"note":46,"velocity":103,"hitTime":15856,"closestNoteTime":15840,"hitSuccessfully":true},{"note":46,"velocity":104,"hitTime":16288,"closestNoteTime":16320,"hitSuccessfully":true},{"note":38,"velocity":91,"hitTime":16304,"closestNoteTime":16320,"hitSuccessfully":true},{"note":46,"velocity":101,"hitTime":16768,"closestNoteTime":16800,"hitSuccessfully":true},{"note":46,"velocity":118,"hitTime":17264,"closestNoteTime":17280,"hitSuccessfully":true},{"note":36,"velocity":64,"hitTime":17376,"closestNoteTime":17280,"hitSuccessfully":true},{"note":46,"velocity":94,"hitTime":17840,"closestNoteTime":17760,"hitSuccessfully":true},{"note":46,"velocity":109,"hitTime":18256,"closestNoteTime":18240,"hitSuccessfully":true},{"note":38,"velocity":93,"hitTime":18336,"closestNoteTime":18240,"hitSuccessfully":true},{"note":46,"velocity":104,"hitTime":18768,"closestNoteTime":18720,"hitSuccessfully":true},{"note":46,"velocity":104,"hitTime":19232,"closestNoteTime":19200,"hitSuccessfully":true},{"note":36,"velocity":48,"hitTime":19360,"closestNoteTime":19200,"hitSuccessfully":true},{"note":46,"velocity":86,"hitTime":19760,"closestNoteTime":19680,"hitSuccessfully":true},{"note":46,"velocity":108,"hitTime":20192,"closestNoteTime":20160,"hitSuccessfully":true},{"note":38,"velocity":94,"hitTime":20272,"closestNoteTime":20160,"hitSuccessfully":true},{"note":36,"velocity":42,"hitTime":20272,"closestNoteTime":21120,"hitSuccessfully":false},{"note":46,"velocity":105,"hitTime":20704,"closestNoteTime":20640,"hitSuccessfully":true},{"note":46,"velocity":103,"hitTime":21184,"closestNoteTime":21120,"hitSuccessfully":true},{"note":36,"velocity":54,"hitTime":21360,"closestNoteTime":21120,"hitSuccessfully":true},{"note":46,"velocity":99,"hitTime":21664,"closestNoteTime":21600,"hitSuccessfully":true},{"note":46,"velocity":108,"hitTime":22144,"closestNoteTime":22080,"hitSuccessfully":true},{"note":38,"velocity":96,"hitTime":22192,"closestNoteTime":22080,"hitSuccessfully":true},{"note":46,"velocity":106,"hitTime":22592,"closestNoteTime":22560,"hitSuccessfully":true},{"note":46,"velocity":108,"hitTime":23024,"closestNoteTime":23040,"hitSuccessfully":true},{"note":36,"velocity":36,"hitTime":23168,"closestNoteTime":23040,"hitSuccessfully":true},{"note":46,"velocity":105,"hitTime":23536,"closestNoteTime":23520,"hitSuccessfully":true},{"note":46,"velocity":107,"hitTime":24016,"closestNoteTime":24000,"hitSuccessfully":true},{"note":38,"velocity":92,"hitTime":24048,"closestNoteTime":24000,"hitSuccessfully":true},{"note":46,"velocity":106,"hitTime":24480,"closestNoteTime":24480,"hitSuccessfully":true},{"note":46,"velocity":105,"hitTime":24976,"closestNoteTime":24960,"hitSuccessfully":true},{"note":36,"velocity":46,"hitTime":25120,"closestNoteTime":24960,"hitSuccessfully":true},{"note":46,"velocity":103,"hitTime":25408,"closestNoteTime":25440,"hitSuccessfully":true},{"note":46,"velocity":116,"hitTime":25920,"closestNoteTime":25920,"hitSuccessfully":true},{"note":38,"velocity":99,"hitTime":25920,"closestNoteTime":25920,"hitSuccessfully":true},{"note":36,"velocity":30,"hitTime":26048,"closestNoteTime":26880,"hitSuccessfully":false},{"note":46,"velocity":105,"hitTime":26400,"closestNoteTime":26400,"hitSuccessfully":true},{"note":46,"velocity":104,"hitTime":26848,"closestNoteTime":26880,"hitSuccessfully":true},{"note":46,"velocity":103,"hitTime":27344,"closestNoteTime":27360,"hitSuccessfully":true},{"note":46,"velocity":125,"hitTime":27840,"closestNoteTime":27840,"hitSuccessfully":true},{"note":38,"velocity":100,"hitTime":27840,"closestNoteTime":27840,"hitSuccessfully":true},{"note":36,"velocity":50,"hitTime":28000,"closestNoteTime":28800,"hitSuccessfully":false},{"note":46,"velocity":105,"hitTime":28352,"closestNoteTime":28320,"hitSuccessfully":true},{"note":46,"velocity":108,"hitTime":28816,"closestNoteTime":28800,"hitSuccessfully":true},{"note":46,"velocity":104,"hitTime":29216,"closestNoteTime":29280,"hitSuccessfully":true},{"note":46,"velocity":127,"hitTime":29744,"closestNoteTime":29760,"hitSuccessfully":true},{"note":38,"velocity":96,"hitTime":29776,"closestNoteTime":29760,"hitSuccessfully":true},{"note":36,"velocity":58,"hitTime":29936,"closestNoteTime":28800,"hitSuccessfully":false},{"note":46,"velocity":106,"hitTime":30224,"closestNoteTime":30240,"hitSuccessfully":true},{"note":46,"velocity":105,"hitTime":30704,"closestNoteTime":960,"hitSuccessfully":false}]}