{
  "frames": [
    {
      "note": 36,
      "velocity": 60,
      "hitTime": -16,
      "closestNoteTime": 0,
      "hitSuccessfully": true
    },
    {
      "note": 46,
      "velocity": 122,
      "hitTime": 44,
      "closestNoteTime": 0,
      "hitSuccessfully": true
    },
    {
      "note": 36,
      "velocity": 46,
      "hitTime": 465,
      "closestNoteTime": 480,
      "hitSuccessfully": false
    },
    {
      "note": 46,
      "velocity": 94,
      "hitTime": 514,
      "closestNoteTime": 480,
      "hitSuccessfully": true
    },
    {
      "note": 36,
      "velocity": 44,
      "hitTime": 985,
      "closestNoteTime": 960,
      "hitSuccessfully": false
    },
    {
      "note": 38,
      "velocity": 98,
      "hitTime": 996,
      "closestNoteTime": 960,
      "hitSuccessfully": true
    },
    {
      "note": 36,
      "velocity": 39,
      "hitTime": 1436,
      "closestNoteTime": 1440,
      "hitSuccessfully": false
    },
    {
      "note": 46,
      "velocity": 95,
      "hitTime": 1459,
      "closestNoteTime": 1440,
      "hitSuccessfully": true
    },
    {
      "note": 36,
      "velocity": 55,
      "hitTime": 1908,
      "closestNoteTime": 1920,
      "hitSuccessfully": true
    },
    {
      "note": 46,
      "velocity": 110,
      "hitTime": 1919,
      "closestNoteTime": 1920,
      "hitSuccessfully": true
    },
    {
      "note": 46,
      "velocity": 88,
      "hitTime": 2408,
      "closestNoteTime": 2400,
      "hitSuccessfully": true
    },
    {
      "note": 38,
      "velocity": 102,
      "hitTime": 2850,
      "closestNoteTime": 2880,
      "hitSuccessfully": true
    },
    {
      "note": 36,
      "velocity": 30,
      "hitTime": 2861,
      "closestNoteTime": 2880,
      "hitSuccessfully": false
    },
    {
      "note": 46,
      "velocity": 88,
      "hitTime": 2879,
      "closestNoteTime": 2880,
      "hitSuccessfully": true
    },
    {
      "note": 46,
      "velocity": 87,
      "hitTime": 3320,
      "closestNoteTime": 3360,
      "hitSuccessfully": true
    },
    {
      "note": 36,
      "velocity": 54,
      "hitTime": 3783,
      "closestNoteTime": 3840,
      "hitSuccessfully": true
    },
    {
      "note": 46,
      "velocity": 104,
      "hitTime": 3791,
      "closestNoteTime": 3840,
      "hitSuccessfully": true
    },
    {
      "note": 36,
      "velocity": 32,
      "hitTime": 4284,
      "closestNoteTime": 4320,
      "hitSuccessfully": false
    },
    {
      "note": 46,
      "velocity": 96,
      "hitTime": 4316,
      "closestNoteTime": 4320,
      "hitSuccessfully": true
    },
    {
      "note": 38,
      "velocity": 86,
      "hitTime": 4805,
      "closestNoteTime": 4800,
      "hitSuccessfully": true
    },
    {
      "note": 46,
      "velocity": 83,
      "hitTime": 4817,
      "closestNoteTime": 4800,
      "hitSuccessfully": true
    },
    {
      "note": 46,
      "velocity": 88,
      "hitTime": 5277,
      "closestNoteTime": 5280,
      "hitSuccessfully": true
    },
    {
      "note": 46,
      "velocity": 60,
      "hitTime": 5318,
      "closestNoteTime": 5760,
      "hitSuccessfully": false
    },
    {
      "note": 36,
      "velocity": 51,
      "hitTime": 5727,
      "closestNoteTime": 5760,
      "hitSuccessfully": true
    },
    {
      "note": 46,
      "velocity": 106,
      "hitTime": 5747,
      "closestNoteTime": 5760,
      "hitSuccessfully": true
    },
    {
      "note": 46,
      "velocity": 70,
      "hitTime": 6251,
      "closestNoteTime": 6240,
      "hitSuccessfully": true
    },
    {
      "note": 46,
      "velocity": 102,
      "hitTime": 6680,
      "closestNoteTime": 6720,
      "hitSuccessfully": true
    },
    {
      "note": 36,
      "velocity": 32,
      "hitTime": 6689,
      "closestNoteTime": 6720,
      "hitSuccessfully": false
    },
    {
      "note": 38,
      "velocity": 89,
      "hitTime": 6712,
      "closestNoteTime": 6720,
      "hitSuccessfully": true
    },
    {
      "note": 46,
      "velocity": 94,
      "hitTime": 7161,
      "closestNoteTime": 7200,
      "hitSuccessfully": true
    },
    {
      "note": 36,
      "velocity": 50,
      "hitTime": 7622,
      "closestNoteTime": 7680,
      "hitSuccessfully": true
    },
    {
      "note": 46,
      "velocity": 103,
      "hitTime": 7651,
      "closestNoteTime": 7680,
      "hitSuccessfully": true
    },
    {
      "note": 46,
      "velocity": 87,
      "hitTime": 8143,
      "closestNoteTime": 8160,
      "hitSuccessfully": true
    },
    {
      "note": 36,
      "velocity": 54,
      "hitTime": 8584,
      "closestNoteTime": 8640,
      "hitSuccessfully": false
    },
    {
      "note": 40,
      "velocity": 127,
      "hitTime": 8615,
      "closestNoteTime": 8640,
      "hitSuccessfully": false
    },
    {
      "note": 46,
      "velocity": 109,
      "hitTime": 8624,
      "closestNoteTime": 8640,
      "hitSuccessfully": true
    },
    {
      "note": 46,
      "velocity": 95,
      "hitTime": 9065,
      "closestNoteTime": 9120,
      "hitSuccessfully": true
    },
    {
      "note": 36,
      "velocity": 42,
      "hitTime": 9525,
      "closestNoteTime": 9600,
      "hitSuccessfully": true
    },
    {
      "note": 46,
      "velocity": 106,
      "hitTime": 9556,
      "closestNoteTime": 9600,
      "hitSuccessfully": true
    },
    {
      "note": 38,
      "velocity": 85,
      "hitTime": 9569,
      "closestNoteTime": 10080,
      "hitSuccessfully": false
    },
    {
      "note": 46,
      "velocity": 97,
      "hitTime": 10029,
      "closestNoteTime": 10080,
      "hitSuccessfully": true
    },
    {
      "note": 36,
      "velocity": 58,
      "hitTime": 10467,
      "closestNoteTime": 10560,
      "hitSuccessfully": false
    },
    {
      "note": 46,
      "velocity": 103,
      "hitTime": 10499,
      "closestNoteTime": 10560,
      "hitSuccessfully": true
    },
    {
      "note": 36,
      "velocity": 21,
      "hitTime": 11032,
      "closestNoteTime": 11040,
      "hitSuccessfully": false
    },
    {
      "note": 46,
      "velocity": 91,
      "hitTime": 11043,
      "closestNoteTime": 11040,
      "hitSuccessfully": true
    },
    {
      "note": 46,
      "velocity": 120,
      "hitTime": 11502,
      "closestNoteTime": 11520,
      "hitSuccessfully": true
    },
    {
      "note": 36,
      "velocity": 58,
      "hitTime": 11504,
      "closestNoteTime": 11520,
      "hitSuccessfully": true
    },
    {
      "note": 46,
      "velocity": 94,
      "hitTime": 12014,
      "closestNoteTime": 12000,
      "hitSuccessfully": true
    },
    {
      "note": 36,
      "velocity": 54,
      "hitTime": 12475,
      "closestNoteTime": 12480,
      "hitSuccessfully": false
    },
    {
      "note": 38,
      "velocity": 89,
      "hitTime": 12486,
      "closestNoteTime": 12480,
      "hitSuccessfully": true
    },
    {
      "note": 46,
      "velocity": 107,
      "hitTime": 12486,
      "closestNoteTime": 12480,
      "hitSuccessfully": true
    },
    {
      "note": 46,
      "velocity": 58,
      "hitTime": 12979,
      "closestNoteTime": 12960,
      "hitSuccessfully": true
    },
    {
      "note": 36,
      "velocity": 42,
      "hitTime": 13376,
      "closestNoteTime": 13440,
      "hitSuccessfully": true
    },
    {
      "note": 46,
      "velocity": 104,
      "hitTime": 13408,
      "closestNoteTime": 13440,
      "hitSuccessfully": true
    },
    {
      "note": 36,
      "velocity": 26,
      "hitTime": 13888,
      "closestNoteTime": 13920,
      "hitSuccessfully": false
    },
    {
      "note": 46,
      "velocity": 88,
      "hitTime": 13920,
      "closestNoteTime": 13920,
      "hitSuccessfully": true
    },
    {
      "note": 46,
      "velocity": 101,
      "hitTime": 14349,
      "closestNoteTime": 14400,
      "hitSuccessfully": true
    },
    {
      "note": 38,
      "velocity": 96,
      "hitTime": 14349,
      "closestNoteTime": 14400,
      "hitSuccessfully": true
    },
    {
      "note": 38,
      "velocity": 66,
      "hitTime": 14420,
      "closestNoteTime": 14880,
      "hitSuccessfully": false
    }
  ]
}