{
  "frames": [
    {
      "note": 36,
      "velocity": 66,
      "hitTime": 2002,
      "closestNoteTime": 1920,
      "hitSuccessfully": true
    },
    {
      "note": 46,
      "velocity": 101,
      "hitTime": 2027,
      "closestNoteTime": 1920,
      "hitSuccessfully": true
    },
    {
      "note": 46,
      "velocity": 79,
      "hitTime": 2433,
      "closestNoteTime": 2400,
      "hitSuccessfully": true
    },
    {
      "note": 38,
      "velocity": 88,
      "hitTime": 2908,
      "closestNoteTime": 2880,
      "hitSuccessfully": true
    },
    {
      "note": 46,
      "velocity": 97,
      "hitTime": 2949,
      "closestNoteTime": 2880,
      "hitSuccessfully": true
    },
    {
      "note": 46,
      "velocity": 80,
      "hitTime": 3398,
      "closestNoteTime": 3360,
      "hitSuccessfully": true
    },
    {
      "note": 36,
      "velocity": 66,
      "hitTime": 3891,
      "closestNoteTime": 3840,
      "hitSuccessfully": true
    },
    {
      "note": 46,
      "velocity": 98,
      "hitTime": 3893,
      "closestNoteTime": 3840,
      "hitSuccessfully": true
    },
    {
      "note": 46,
      "velocity": 83,
      "hitTime": 4360,
      "closestNoteTime": 4320,
      "hitSuccessfully": true
    },
    {
      "note": 38,
      "velocity": 86,
      "hitTime": 4868,
      "closestNoteTime": 4800,
      "hitSuccessfully": true
    },
    {
      "note": 46,
      "velocity": 91,
      "hitTime": 4872,
      "closestNoteTime": 4800,
      "hitSuccessfully": true
    },
    {
      "note": 46,
      "velocity": 83,
      "hitTime": 5304,
      "closestNoteTime": 5280,
      "hitSuccessfully": true
    },
    {
      "note": 46,
      "velocity": 97,
      "hitTime": 5816,
      "closestNoteTime": 5760,
      "hitSuccessfully": true
    },
    {
      "note": 36,
      "velocity": 59,
      "hitTime": 5817,
      "closestNoteTime": 5760,
      "hitSuccessfully": true
    },
    {
      "note": 46,
      "velocity": 86,
      "hitTime": 6330,
      "closestNoteTime": 6240,
      "hitSuccessfully": true
    },
    {
      "note": 46,
      "velocity": 94,
      "hitTime": 6819,
      "closestNoteTime": 6720,
      "hitSuccessfully": true
    },
    {
      "note": 38,
      "velocity": 88,
      "hitTime": 6842,
      "closestNoteTime": 6720,
      "hitSuccessfully": true
    },
    {
      "note": 46,
      "velocity": 80,
      "hitTime": 7292,
      "closestNoteTime": 7200,
      "hitSuccessfully": true
    },
    {
      "note": 36,
      "velocity": 55,
      "hitTime": 7741,
      "closestNoteTime": 7680,
      "hitSuccessfully": true
    },
    {
      "note": 46,
      "velocity": 99,
      "hitTime": 7804,
      "closestNoteTime": 7680,
      "hitSuccessfully": true
    },
    {
      "note": 46,
      "velocity": 88,
      "hitTime": 8254,
      "closestNoteTime": 8160,
      "hitSuccessfully": true
    },
    {
      "note": 46,
      "velocity": 93,
      "hitTime": 8784,
      "closestNoteTime": 8640,
      "hitSuccessfully": true
    },
    {
      "note": 38,
      "velocity": 82,
      "hitTime": 8806,
      "closestNoteTime": 8640,
      "hitSuccessfully": true
    },
    {
      "note": 46,
      "velocity": 82,
      "hitTime": 9256,
      "closestNoteTime": 9120,
      "hitSuccessfully": true
    },
    {
      "note": 46,
      "velocity": 99,
      "hitTime": 9705,
      "closestNoteTime": 9600,
      "hitSuccessfully": true
    },
    {
      "note": 36,
      "velocity": 48,
      "hitTime": 9728,
      "closestNoteTime": 9600,
      "hitSuccessfully": true
    },
    {
      "note": 46,
      "velocity": 88,
      "hitTime": 10216,
      "closestNoteTime": 10080,
      "hitSuccessfully": true
    },
    {
      "note": 46,
      "velocity": 98,
      "hitTime": 10713,
      "closestNoteTime": 10560,
      "hitSuccessfully": true
    },
    {
      "note": 38,
      "velocity": 87,
      "hitTime": 10713,
      "closestNoteTime": 10560,
      "hitSuccessfully": true
    },
    {
      "note": 46,
      "velocity": 82,
      "hitTime": 11162,
      "closestNoteTime": 11040,
      "hitSuccessfully": true
    },
    {
      "note": 36,
      "velocity": 58,
      "hitTime": 11612,
      "closestNoteTime": 11520,
      "hitSuccessfully": true
    },
    {
      "note": 46,
      "velocity": 101,
      "hitTime": 11635,
      "closestNoteTime": 11520,
      "hitSuccessfully": true
    },
    {
      "note": 46,
      "velocity": 85,
      "hitTime": 12084,
      "closestNoteTime": 12000,
      "hitSuccessfully": true
    },
    {
      "note": 38,
      "velocity": 88,
      "hitTime": 12574,
      "closestNoteTime": 12480,
      "hitSuccessfully": true
    },
    {
      "note": 46,
      "velocity": 94,
      "hitTime": 12612,
      "closestNoteTime": 12480,
      "hitSuccessfully": true
    },
    {
      "note": 46,
      "velocity": 83,
      "hitTime": 13063,
      "closestNoteTime": 12960,
      "hitSuccessfully": true
    },
    {
      "note": 36,
      "velocity": 54,
      "hitTime": 13536,
      "closestNoteTime": 13440,
      "hitSuccessfully": true
    },
    {
      "note": 46,
      "velocity": 95,
      "hitTime": 13559,
      "closestNoteTime": 13440,
      "hitSuccessfully": true
    },
    {
      "note": 46,
      "velocity": 85,
      "hitTime": 14031,
      "closestNoteTime": 13920,
      "hitSuccessfully": true
    },
    {
      "note": 38,
      "velocity": 88,
      "hitTime": 14497,
      "closestNoteTime": 14400,
      "hitSuccessfully": true
    },
    {
      "note": 46,
      "velocity": 95,
      "hitTime": 14520,
      "closestNoteTime": 14400,
      "hitSuccessfully": true
    },
    {
      "note": 46,
      "velocity": 80,
      "hitTime": 14952,
      "closestNoteTime": 14880,
      "hitSuccessfully": true
    },
    {
      "note": 46,
      "velocity": 98,
      "hitTime": 15458,
      "closestNoteTime": 15360,
      "hitSuccessfully": true
    },
    {
      "note": 36,
      "velocity": 50,
      "hitTime": 15459,
      "closestNoteTime": 15360,
      "hitSuccessfully": true
    },
    {
      "note": 46,
      "velocity": 88,
      "hitTime": 15932,
      "closestNoteTime": 15840,
      "hitSuccessfully": true
    },
    {
      "note": 46,
      "velocity": 100,
      "hitTime": 16467,
      "closestNoteTime": 16320,
      "hitSuccessfully": true
    },
    {
      "note": 38,
      "velocity": 88,
      "hitTime": 16467,
      "closestNoteTime": 16320,
      "hitSuccessfully": true
    },
    {
      "note": 46,
      "velocity": 87,
      "hitTime": 16934,
      "closestNoteTime": 16800,
      "hitSuccessfully": true
    },
    {
      "note": 46,
      "velocity": 101,
      "hitTime": 17429,
      "closestNoteTime": 17280,
      "hitSuccessfully": true
    },
    {
      "note": 36,
      "velocity": 52,
      "hitTime": 17444,
      "closestNoteTime": 17280,
      "hitSuccessfully": true
    },
    {
      "note": 46,
      "velocity": 88,
      "hitTime": 17902,
      "closestNoteTime": 17760,
      "hitSuccessfully": true
    },
    {
      "note": 38,
      "velocity": 94,
      "hitTime": 18391,
      "closestNoteTime": 18240,
      "hitSuccessfully": true
    },
    {
      "note": 46,
      "velocity": 103,
      "hitTime": 18406,
      "closestNoteTime": 18240,
      "hitSuccessfully": true
    },
    {
      "note": 46,
      "velocity": 82,
      "hitTime": 18876,
      "closestNoteTime": 18720,
      "hitSuccessfully": true
    },
    {
      "note": 36,
      "velocity": 47,
      "hitTime": 19313,
      "closestNoteTime": 19200,
      "hitSuccessfully": true
    },
    {
      "note": 46,
      "velocity": 100,
      "hitTime": 19330,
      "closestNoteTime": 19200,
      "hitSuccessfully": true
    },
    {
      "note": 46,
      "velocity": 88,
      "hitTime": 19802,
      "closestNoteTime": 19680,
      "hitSuccessfully": true
    },
    {
      "note": 46,
      "velocity": 96,
      "hitTime": 20275,
      "closestNoteTime": 20160,
      "hitSuccessfully": true
    },
    {
      "note": 38,
      "velocity": 87,
      "hitTime": 20315,
      "closestNoteTime": 20160,
      "hitSuccessfully": true
    },
    {
      "note": 46,
      "velocity": 84,
      "hitTime": 20763,
      "closestNoteTime": 20640,
      "hitSuccessfully": true
    },
    {
      "note": 46,
      "velocity": 98,
      "hitTime": 21219,
      "closestNoteTime": 21120,
      "hitSuccessfully": true
    },
    {
      "note": 36,
      "velocity": 52,
      "hitTime": 21219,
      "closestNoteTime": 21120,
      "hitSuccessfully": true
    },
    {
      "note": 46,
      "velocity": 85,
      "hitTime": 21726,
      "closestNoteTime": 21600,
      "hitSuccessfully": true
    },
    {
      "note": 38,
      "velocity": 88,
      "hitTime": 22222,
      "closestNoteTime": 22080,
      "hitSuccessfully": true
    },
    {
      "note": 46,
      "velocity": 97,
      "hitTime": 22239,
      "closestNoteTime": 22080,
      "hitSuccessfully": true
    },
    {
      "note": 46,
      "velocity": 85,
      "hitTime": 22694,
      "closestNoteTime": 22560,
      "hitSuccessfully": true
    },
    {
      "note": 36,
      "velocity": 48,
      "hitTime": 23143,
      "closestNoteTime": 23040,
      "hitSuccessfully": true
    },
    {
      "note": 46,
      "velocity": 97,
      "hitTime": 23184,
      "closestNoteTime": 23040,
      "hitSuccessfully": true
    }
  ]
}