{
  "frames": [
    {
      "note": 36,
      "velocity": 52,
      "hitTime": 122,
      "closestNoteTime": 0,
      "hitSuccessfully": true
    },
    {
      "note": 46,
      "velocity": 58,
      "hitTime": 226,
      "closestNoteTime": 0,
      "hitSuccessfully": true
    },
    {
      "note": 46,
      "velocity": 60,
      "hitTime": 617,
      "closestNoteTime": 480,
      "hitSuccessfully": true
    },
    {
      "note": 46,
      "velocity": 70,
      "hitTime": 946,
      "closestNoteTime": 960,
      "hitSuccessfully": true
    },
    {
      "note": 38,
      "velocity": 92,
      "hitTime": 1211,
      "closestNoteTime": 1440,
      "hitSuccessfully": true
    },
    {
      "note": 46,
      "velocity": 77,
      "hitTime": 1355,
      "closestNoteTime": 1440,
      "hitSuccessfully": true
    },
    {
      "note": 46,
      "velocity": 77,
      "hitTime": 1683,
      "closestNoteTime": 1920,
      "hitSuccessfully": true
    },
    {
      "note": 46,
      "velocity": 84,
      "hitTime": 2132,
      "closestNoteTime": 1920,
      "hitSuccessfully": true
    },
    {
      "note": 46,
      "velocity": 70,
      "hitTime": 2518,
      "closestNoteTime": 2880,
      "hitSuccessfully": true
    },
    {
      "note": 46,
      "velocity": 87,
      "hitTime": 2972,
      "closestNoteTime": 2880,
      "hitSuccessfully": true
    },
    {
      "note": 38,
      "velocity": 90,
      "hitTime": 2991,
      "closestNoteTime": 2880,
      "hitSuccessfully": true
    },
    {
      "note": 46,
      "velocity": 77,
      "hitTime": 3440,
      "closestNoteTime": 3840,
      "hitSuccessfully": true
    },
    {
      "note": 46,
      "velocity": 84,
      "hitTime": 3872,
      "closestNoteTime": 3840,
      "hitSuccessfully": true
    },
    {
      "note": 36,
      "velocity": 54,
      "hitTime": 3912,
      "closestNoteTime": 3840,
      "hitSuccessfully": true
    },
    {
      "note": 46,
      "velocity": 79,
      "hitTime": 4304,
      "closestNoteTime": 4800,
      "hitSuccessfully": true
    },
    {
      "note": 46,
      "velocity": 87,
      "hitTime": 4793,
      "closestNoteTime": 4800,
      "hitSuccessfully": true
    },
    {
      "note": 38,
      "velocity": 80,
      "hitTime": 4793,
      "closestNoteTime": 4800,
      "hitSuccessfully": true
    },
    {
      "note": 46,
      "velocity": 76,
      "hitTime": 5306,
      "closestNoteTime": 5760,
      "hitSuccessfully": true
    },
    {
      "note": 46,
      "velocity": 83,
      "hitTime": 5755,
      "closestNoteTime": 5760,
      "hitSuccessfully": true
    },
    {
      "note": 36,
      "velocity": 52,
      "hitTime": 5879,
      "closestNoteTime": 5760,
      "hitSuccessfully": true
    },
    {
      "note": 46,
      "velocity": 73,
      "hitTime": 6291,
      "closestNoteTime": 6720,
      "hitSuccessfully": true
    },
    {
      "note": 38,
      "velocity": 81,
      "hitTime": 6758,
      "closestNoteTime": 6720,
      "hitSuccessfully": true
    },
    {
      "note": 46,
      "velocity": 88,
      "hitTime": 6758,
      "closestNoteTime": 7200,
      "hitSuccessfully": true
    },
    {
      "note": 46,
      "velocity": 70,
      "hitTime": 7270,
      "closestNoteTime": 7680,
      "hitSuccessfully": true
    },
    {
      "note": 46,
      "velocity": 83,
      "hitTime": 7725,
      "closestNoteTime": 7680,
      "hitSuccessfully": true
    },
    {
      "note": 36,
      "velocity": 59,
      "hitTime": 7766,
      "closestNoteTime": 7680,
      "hitSuccessfully": true
    },
    {
      "note": 46,
      "velocity": 82,
      "hitTime": 8152,
      "closestNoteTime": 8640,
      "hitSuccessfully": true
    },
    {
      "note": 38,
      "velocity": 79,
      "hitTime": 8647,
      "closestNoteTime": 8640,
      "hitSuccessfully": true
    },
    {
      "note": 46,
      "velocity": 88,
      "hitTime": 8647,
      "closestNoteTime": 9120,
      "hitSuccessfully": true
    },
    {
      "note": 46,
      "velocity": 80,
      "hitTime": 9195,
      "closestNoteTime": 9600,
      "hitSuccessfully": true
    },
    {
      "note": 46,
      "velocity": 91,
      "hitTime": 9646,
      "closestNoteTime": 9600,
      "hitSuccessfully": true
    },
    {
      "note": 36,
      "velocity": 56,
      "hitTime": 9706,
      "closestNoteTime": 9600,
      "hitSuccessfully": true
    },
    {
      "note": 46,
      "velocity": 79,
      "hitTime": 10139,
      "closestNoteTime": 10560,
      "hitSuccessfully": true
    },
    {
      "note": 38,
      "velocity": 82,
      "hitTime": 10588,
      "closestNoteTime": 10560,
      "hitSuccessfully": true
    },
    {
      "note": 46,
      "velocity": 91,
      "hitTime": 10628,
      "closestNoteTime": 11040,
      "hitSuccessfully": true
    },
    {
      "note": 46,
      "velocity": 85,
      "hitTime": 11101,
      "closestNoteTime": 11520,
      "hitSuccessfully": true
    },
    {
      "note": 36,
      "velocity": 47,
      "hitTime": 11573,
      "closestNoteTime": 11520,
      "hitSuccessfully": true
    },
    {
      "note": 46,
      "velocity": 90,
      "hitTime": 11573,
      "closestNoteTime": 12000,
      "hitSuccessfully": true
    },
    {
      "note": 46,
      "velocity": 82,
      "hitTime": 12058,
      "closestNoteTime": 12480,
      "hitSuccessfully": true
    },
    {
      "note": 38,
      "velocity": 75,
      "hitTime": 12535,
      "closestNoteTime": 12480,
      "hitSuccessfully": true
    },
    {
      "note": 46,
      "velocity": 91,
      "hitTime": 12535,
      "closestNoteTime": 12960,
      "hitSuccessfully": true
    },
    {
      "note": 46,
      "velocity": 82,
      "hitTime": 13025,
      "closestNoteTime": 13440,
      "hitSuccessfully": true
    },
    {
      "note": 46,
      "velocity": 88,
      "hitTime": 13520,
      "closestNoteTime": 13440,
      "hitSuccessfully": true
    },
    {
      "note": 36,
      "velocity": 42,
      "hitTime": 13573,
      "closestNoteTime": 13440,
      "hitSuccessfully": true
    },
    {
      "note": 46,
      "velocity": 86,
      "hitTime": 14007,
      "closestNoteTime": 14400,
      "hitSuccessfully": true
    },
    {
      "note": 46,
      "velocity": 90,
      "hitTime": 14522,
      "closestNoteTime": 14400,
      "hitSuccessfully": true
    },
    {
      "note": 38,
      "velocity": 82,
      "hitTime": 14545,
      "closestNoteTime": 14400,
      "hitSuccessfully": true
    },
    {
      "note": 46,
      "velocity": 83,
      "hitTime": 15035,
      "closestNoteTime": 15360,
      "hitSuccessfully": true
    },
    {
      "note": 36,
      "velocity": 47,
      "hitTime": 15467,
      "closestNoteTime": 15360,
      "hitSuccessfully": true
    },
    {
      "note": 46,
      "velocity": 88,
      "hitTime": 15467,
      "closestNoteTime": 15840,
      "hitSuccessfully": true
    },
    {
      "note": 46,
      "velocity": 77,
      "hitTime": 15933,
      "closestNoteTime": 16320,
      "hitSuccessfully": true
    },
    {
      "note": 38,
      "velocity": 75,
      "hitTime": 16388,
      "closestNoteTime": 16320,
      "hitSuccessfully": true
    },
    {
      "note": 46,
      "velocity": 88,
      "hitTime": 16424,
      "closestNoteTime": 16800,
      "hitSuccessfully": true
    },
    {
      "note": 46,
      "velocity": 79,
      "hitTime": 16918,
      "closestNoteTime": 17280,
      "hitSuccessfully": true
    },
    {
      "note": 36,
      "velocity": 52,
      "hitTime": 17348,
      "closestNoteTime": 17280,
      "hitSuccessfully": true
    },
    {
      "note": 46,
      "velocity": 89,
      "hitTime": 17408,
      "closestNoteTime": 17760,
      "hitSuccessfully": true
    },
    {
      "note": 46,
      "velocity": 80,
      "hitTime": 17863,
      "closestNoteTime": 18240,
      "hitSuccessfully": true
    },
    {
      "note": 38,
      "velocity": 81,
      "hitTime": 18329,
      "closestNoteTime": 18240,
      "hitSuccessfully": true
    },
    {
      "note": 46,
      "velocity": 88,
      "hitTime": 18329,
      "closestNoteTime": 18720,
      "hitSuccessfully": true
    },
    {
      "note": 46,
      "velocity": 82,
      "hitTime": 18825,
      "closestNoteTime": 19200,
      "hitSuccessfully": true
    },
    {
      "note": 36,
      "velocity": 52,
      "hitTime": 19193,
      "closestNoteTime": 19200,
      "hitSuccessfully": true
    },
    {
      "note": 46,
      "velocity": 88,
      "hitTime": 19274,
      "closestNoteTime": 19680,
      "hitSuccessfully": true
    },
    {
      "note": 46,
      "velocity": 82,
      "hitTime": 19746,
      "closestNoteTime": 20160,
      "hitSuccessfully": true
    },
    {
      "note": 46,
      "velocity": 88,
      "hitTime": 20213,
      "closestNoteTime": 20160,
      "hitSuccessfully": true
    },
    {
      "note": 38,
      "velocity": 84,
      "hitTime": 20236,
      "closestNoteTime": 20160,
      "hitSuccessfully": true
    },
    {
      "note": 46,
      "velocity": 82,
      "hitTime": 20726,
      "closestNoteTime": 21120,
      "hitSuccessfully": true
    },
    {
      "note": 36,
      "velocity": 55,
      "hitTime": 21180,
      "closestNoteTime": 21120,
      "hitSuccessfully": true
    },
    {
      "note": 46,
      "velocity": 87,
      "hitTime": 21198,
      "closestNoteTime": 21600,
      "hitSuccessfully": true
    },
    {
      "note": 46,
      "velocity": 83,
      "hitTime": 21647,
      "closestNoteTime": 22080,
      "hitSuccessfully": true
    },
    {
      "note": 38,
      "velocity": 84,
      "hitTime": 22143,
      "closestNoteTime": 22080,
      "hitSuccessfully": true
    },
    {
      "note": 46,
      "velocity": 90,
      "hitTime": 22143,
      "closestNoteTime": 22560,
      "hitSuccessfully": true
    },
    {
      "note": 46,
      "velocity": 88,
      "hitTime": 22632,
      "closestNoteTime": 23040,
      "hitSuccessfully": true
    },
    {
      "note": 36,
      "velocity": 46,
      "hitTime": 23000,
      "closestNoteTime": 23040,
      "hitSuccessfully": true
    },
    {
      "note": 46,
      "velocity": 91,
      "hitTime": 23081,
      "closestNoteTime": 23520,
      "hitSuccessfully": true
    },
    {
      "note": 46,
      "velocity": 80,
      "hitTime": 23554,
      "closestNoteTime": 24000,
      "hitSuccessfully": true
    },
    {
      "note": 38,
      "velocity": 83,
      "hitTime": 23998,
      "closestNoteTime": 24000,
      "hitSuccessfully": true
    },
    {
      "note": 46,
      "velocity": 89,
      "hitTime": 24084,
      "closestNoteTime": 24480,
      "hitSuccessfully": true
    },
    {
      "note": 46,
      "velocity": 77,
      "hitTime": 24556,
      "closestNoteTime": 24960,
      "hitSuccessfully": true
    },
    {
      "note": 46,
      "velocity": 85,
      "hitTime": 24965,
      "closestNoteTime": 24960,
      "hitSuccessfully": true
    },
    {
      "note": 36,
      "velocity": 52,
      "hitTime": 25050,
      "closestNoteTime": 24960,
      "hitSuccessfully": true
    },
    {
      "note": 46,
      "velocity": 70,
      "hitTime": 25457,
      "closestNoteTime": 25920,
      "hitSuccessfully": true
    },
    {
      "note": 46,
      "velocity": 91,
      "hitTime": 25910,
      "closestNoteTime": 25920,
      "hitSuccessfully": true
    },
    {
      "note": 38,
      "velocity": 91,
      "hitTime": 26031,
      "closestNoteTime": 25920,
      "hitSuccessfully": true
    },
    {
      "note": 46,
      "velocity": 82,
      "hitTime": 26480,
      "closestNoteTime": 26880,
      "hitSuccessfully": true
    },
    {
      "note": 46,
      "velocity": 91,
      "hitTime": 26975,
      "closestNoteTime": 26880,
      "hitSuccessfully": true
    },
    {
      "note": 36,
      "velocity": 39,
      "hitTime": 26993,
      "closestNoteTime": 26880,
      "hitSuccessfully": true
    },
    {
      "note": 46,
      "velocity": 79,
      "hitTime": 27488,
      "closestNoteTime": 27840,
      "hitSuccessfully": true
    },
    {
      "note": 46,
      "velocity": 88,
      "hitTime": 27954,
      "closestNoteTime": 27840,
      "hitSuccessfully": true
    },
    {
      "note": 38,
      "velocity": 88,
      "hitTime": 27974,
      "closestNoteTime": 27840,
      "hitSuccessfully": true
    },
    {
      "note": 46,
      "velocity": 80,
      "hitTime": 28467,
      "closestNoteTime": 28800,
      "hitSuccessfully": true
    },
    {
      "note": 46,
      "velocity": 80,
      "hitTime": 28922,
      "closestNoteTime": 28800,
      "hitSuccessfully": true
    },
    {
      "note": 46,
      "velocity": 80,
      "hitTime": 29389,
      "closestNoteTime": 29760,
      "hitSuccessfully": true
    },
    {
      "note": 38,
      "velocity": 87,
      "hitTime": 29884,
      "closestNoteTime": 29760,
      "hitSuccessfully": true
    },
    {
      "note": 46,
      "velocity": 93,
      "hitTime": 29884,
      "closestNoteTime": 30240,
      "hitSuccessfully": true
    },
    {
      "note": 36,
      "velocity": 30,
      "hitTime": 29901,
      "closestNoteTime": 28800,
      "hitSuccessfully": false
    },
    {
      "note": 46,
      "velocity": 60,
      "hitTime": 29982,
      "closestNoteTime": 28800,
      "hitSuccessfully": false
    }
  ]
}