{"frames":[{"note":36,"velocity":32,"hitTime":32,"closestNoteTime":0,"hitSuccessfully":true},{"note":46,"velocity":91,"hitTime":144,"closestNoteTime":0,"hitSuccessfully":true},{"note":46,"velocity":60,"hitTime":592,"closestNoteTime":480,"hitSuccessfully":true},{"note":38,"velocity":84,"hitTime":1104,"closestNoteTime":960,"hitSuccessfully":true},{"note":46,"velocity":100,"hitTime":1104,"closestNoteTime":960,"hitSuccessfully":true},{"note":46,"velocity":70,"hitTime":1568,"closestNoteTime":1440,"hitSuccessfully":true},{"note":46,"velocity":107,"hitTime":2016,"closestNoteTime":1920,"hitSuccessfully":true},{"note":36,"velocity":50,"hitTime":2096,"closestNoteTime":1920,"hitSuccessfully":true},{"note":46,"velocity":88,"hitTime":2416,"closestNoteTime":2400,"hitSuccessfully":true},{"note":46,"velocity":109,"hitTime":2928,"closestNoteTime":2880,"hitSuccessfully":true},{"note":38,"velocity":74,"hitTime":2960,"closestNoteTime":2880,"hitSuccessfully":true},{"note":46,"velocity":83,"hitTime":3520,"closestNoteTime":3360,"hitSuccessfully":true},{"note":46,"velocity":102,"hitTime":3968,"closestNoteTime":3840,"hitSuccessfully":true},{"note":36,"velocity":54,"hitTime":4000,"closestNoteTime":3840,"hitSuccessfully":true},{"note":46,"velocity":96,"hitTime":4448,"closestNoteTime":4320,"hitSuccessfully":true},{"note":38,"velocity":84,"hitTime":4928,"closestNoteTime":4800,"hitSuccessfully":true},{"note":46,"velocity":107,"hitTime":4960,"closestNoteTime":4800,"hitSuccessfully":true},{"note":46,"velocity":72,"hitTime":5440,"closestNoteTime":5280,"hitSuccessfully":true},{"note":36,"velocity":56,"hitTime":5872,"closestNoteTime":5760,"hitSuccessfully":true},{"note":46,"velocity":105,"hitTime":5904,"closestNoteTime":5760,"hitSuccessfully":true},{"note":46,"velocity":67,"hitTime":6352,"closestNoteTime":6240,"hitSuccessfully":true},{"note":38,"velocity":80,"hitTime":6816,"closestNoteTime":6720,"hitSuccessfully":true},{"note":46,"velocity":120,"hitTime":6832,"closestNoteTime":6720,"hitSuccessfully":true},{"note":46,"velocity":82,"hitTime":7312,"closestNoteTime":7200,"hitSuccessfully":true},{"note":36,"velocity":55,"hitTime":7792,"closestNoteTime":7680,"hitSuccessfully":true},{"note":46,"velocity":107,"hitTime":7792,"closestNoteTime":7680,"hitSuccessfully":true},{"note":46,"velocity":94,"hitTime":8304,"closestNoteTime":8160,"hitSuccessfully":true},{"note":38,"velocity":83,"hitTime":8736,"closestNoteTime":8640,"hitSuccessfully":true},{"note":46,"velocity":116,"hitTime":8784,"closestNoteTime":8640,"hitSuccessfully":true},{"note":46,"velocity":89,"hitTime":9248,"closestNoteTime":9120,"hitSuccessfully":true},{"note":46,"velocity":104,"hitTime":9696,"closestNoteTime":9600,"hitSuccessfully":true},{"note":36,"velocity":55,"hitTime":9760,"closestNoteTime":9600,"hitSuccessfully":true},{"note":46,"velocity":127,"hitTime":10720,"closestNoteTime":10560,"hitSuccessfully":true},{"note":38,"velocity":86,"hitTime":10768,"closestNoteTime":10560,"hitSuccessfully":true},{"note":46,"velocity":80,"hitTime":11232,"closestNoteTime":11040,"hitSuccessfully":true},{"note":46,"velocity":97,"hitTime":11632,"closestNoteTime":11520,"hitSuccessfully":true},{"note":46,"velocity":100,"hitTime":12128,"closestNoteTime":12000,"hitSuccessfully":true},{"note":36,"velocity":54,"hitTime":12624,"closestNoteTime":13440,"hitSuccessfully":false},{"note":46,"velocity":105,"hitTime":12640,"closestNoteTime":12480,"hitSuccessfully":true},{"note":38,"velocity":90,"hitTime":12672,"closestNoteTime":12480,"hitSuccessfully":true},{"note":46,"velocity":93,"hitTime":13120,"closestNoteTime":12960,"hitSuccessfully":true},{"note":46,"velocity":103,"hitTime":13536,"closestNoteTime":13440,"hitSuccessfully":true},{"note":46,"velocity":93,"hitTime":13984,"closestNoteTime":13920,"hitSuccessfully":true},{"note":46,"velocity":97,"hitTime":14544,"closestNoteTime":14400,"hitSuccessfully":true},{"note":46,"velocity":90,"hitTime":15024,"closestNoteTime":14880,"hitSuccessfully":true},{"note":46,"velocity":102,"hitTime":15568,"closestNoteTime":15360,"hitSuccessfully":true},{"note":46,"velocity":65,"hitTime":16016,"closestNoteTime":15840,"hitSuccessfully":true},{"note":36,"velocity":44,"hitTime":19168,"closestNoteTime":19200,"hitSuccessfully":true},{"note":46,"velocity":85,"hitTime":19360,"closestNoteTime":19200,"hitSuccessfully":true},{"note":46,"velocity":65,"hitTime":19792,"closestNoteTime":19680,"hitSuccessfully":true},{"note":38,"velocity":87,"hitTime":20256,"closestNoteTime":20160,"hitSuccessfully":true},{"note":46,"velocity":104,"hitTime":20304,"closestNoteTime":20160,"hitSuccessfully":true},{"note":46,"velocity":79,"hitTime":20752,"closestNoteTime":20640,"hitSuccessfully":true},{"note":46,"velocity":108,"hitTime":21232,"closestNoteTime":21120,"hitSuccessfully":true},{"note":36,"velocity":48,"hitTime":21296,"closestNoteTime":21120,"hitSuccessfully":true},{"note":46,"velocity":73,"hitTime":21664,"closestNoteTime":21600,"hitSuccessfully":true},{"note":38,"velocity":84,"hitTime":22096,"closestNoteTime":22080,"hitSuccessfully":true},{"note":46,"velocity":88,"hitTime":22128,"closestNoteTime":22080,"hitSuccessfully":true},{"note":46,"velocity":97,"hitTime":22640,"closestNoteTime":22560,"hitSuccessfully":true},{"note":46,"velocity":112,"hitTime":23168,"closestNoteTime":23040,"hitSuccessfully":true},{"note":36,"velocity":58,"hitTime":23216,"closestNoteTime":23040,"hitSuccessfully":true},{"note":46,"velocity":77,"hitTime":23680,"closestNoteTime":23520,"hitSuccessfully":true},{"note":38,"velocity":91,"hitTime":24112,"closestNoteTime":24000,"hitSuccessfully":true},{"note":46,"velocity":103,"hitTime":24160,"closestNoteTime":24000,"hitSuccessfully":true},{"note":46,"velocity":79,"hitTime":24592,"closestNoteTime":24480,"hitSuccessfully":true},{"note":46,"velocity":102,"hitTime":25040,"closestNoteTime":24960,"hitSuccessfully":true},{"note":36,"velocity":36,"hitTime":25120,"closestNoteTime":24960,"hitSuccessfully":true},{"note":46,"velocity":91,"hitTime":25488,"closestNoteTime":25440,"hitSuccessfully":true},{"note":38,"velocity":81,"hitTime":25968,"closestNoteTime":25920,"hitSuccessfully":true},{"note":46,"velocity":97,"hitTime":26000,"closestNoteTime":25920,"hitSuccessfully":true},{"note":46,"velocity":107,"hitTime":26512,"closestNoteTime":26400,"hitSuccessfully":true},{"note":46,"velocity":112,"hitTime":26960,"closestNoteTime":26880,"hitSuccessfully":true},{"note":36,"velocity":58,"hitTime":27024,"closestNoteTime":26880,"hitSuccessfully":true},{"note":46,"velocity":97,"hitTime":27504,"closestNoteTime":27360,"hitSuccessfully":true},{"note":46,"velocity":104,"hitTime":27952,"closestNoteTime":27840,"hitSuccessfully":true},{"note":36,"velocity":36,"hitTime":27984,"closestNoteTime":28800,"hitSuccessfully":false},{"note":46,"velocity":77,"hitTime":28464,"closestNoteTime":28320,"hitSuccessfully":true},{"note":46,"velocity":73,"hitTime":28848,"closestNoteTime":28800,"hitSuccessfully":true},{"note":36,"velocity":46,"hitTime":28944,"closestNoteTime":28800,"hitSuccessfully":true},{"note":46,"velocity":75,"hitTime":29264,"closestNoteTime":29280,"hitSuccessfully":true},{"note":36,"velocity":61,"hitTime":29760,"closestNoteTime":17280,"hitSuccessfully":false},{"note":46,"velocity":91,"hitTime":29776,"closestNoteTime":29760,"hitSuccessfully":true},{"note":38,"velocity":88,"hitTime":29888,"closestNoteTime":29760,"hitSuccessfully":true},{"note":46,"velocity":70,"hitTime":30448,"closestNoteTime":30240,"hitSuccessfully":true}]}