{"frames":[{"note":46,"velocity":64,"hitTime":104,"closestNoteTime":0,"hitSuccessfully":true},{"note":46,"velocity":50,"hitTime":560,"closestNoteTime":480,"hitSuccessfully":true},{"note":38,"velocity":78,"hitTime":976,"closestNoteTime":960,"hitSuccessfully":true},{"note":46,"velocity":62,"hitTime":984,"closestNoteTime":960,"hitSuccessfully":true},{"note":46,"velocity":56,"hitTime":1472,"closestNoteTime":1440,"hitSuccessfully":true},{"note":36,"velocity":36,"hitTime":1912,"closestNoteTime":1920,"hitSuccessfully":true},{"note":46,"velocity":70,"hitTime":1912,"closestNoteTime":1920,"hitSuccessfully":true},{"note":46,"velocity":55,"hitTime":2432,"closestNoteTime":2400,"hitSuccessfully":true},{"note":46,"velocity":75,"hitTime":2904,"closestNoteTime":2880,"hitSuccessfully":true},{"note":38,"velocity":78,"hitTime":2912,"closestNoteTime":2880,"hitSuccessfully":true},{"note":46,"velocity":62,"hitTime":3384,"closestNoteTime":3360,"hitSuccessfully":true},{"note":36,"velocity":38,"hitTime":3864,"closestNoteTime":3840,"hitSuccessfully":true},{"note":46,"velocity":70,"hitTime":3880,"closestNoteTime":3840,"hitSuccessfully":true},{"note":46,"velocity":58,"hitTime":4360,"closestNoteTime":4320,"hitSuccessfully":true},{"note":46,"velocity":70,"hitTime":4840,"closestNoteTime":4800,"hitSuccessfully":true},{"note":38,"velocity":82,"hitTime":4856,"closestNoteTime":4800,"hitSuccessfully":true},{"note":46,"velocity":60,"hitTime":5320,"closestNoteTime":5280,"hitSuccessfully":true},{"note":36,"velocity":30,"hitTime":5776,"closestNoteTime":5760,"hitSuccessfully":true},{"note":46,"velocity":62,"hitTime":5808,"closestNoteTime":5760,"hitSuccessfully":true},{"note":46,"velocity":66,"hitTime":6272,"closestNoteTime":6240,"hitSuccessfully":true},{"note":38,"velocity":78,"hitTime":6744,"closestNoteTime":6720,"hitSuccessfully":true},{"note":46,"velocity":73,"hitTime":6752,"closestNoteTime":6720,"hitSuccessfully":true},{"note":46,"velocity":54,"hitTime":7240,"closestNoteTime":7200,"hitSuccessfully":true},{"note":36,"velocity":32,"hitTime":7696,"closestNoteTime":7680,"hitSuccessfully":true},{"note":46,"velocity":72,"hitTime":7696,"closestNoteTime":7680,"hitSuccessfully":true},{"note":46,"velocity":60,"hitTime":8176,"closestNoteTime":8160,"hitSuccessfully":true},{"note":46,"velocity":74,"hitTime":8640,"closestNoteTime":8640,"hitSuccessfully":true},{"note":38,"velocity":82,"hitTime":8656,"closestNoteTime":8640,"hitSuccessfully":true},{"note":46,"velocity":60,"hitTime":9136,"closestNoteTime":9120,"hitSuccessfully":true},{"note":36,"velocity":26,"hitTime":9592,"closestNoteTime":9600,"hitSuccessfully":true},{"note":46,"velocity":70,"hitTime":9608,"closestNoteTime":9600,"hitSuccessfully":true},{"note":46,"velocity":60,"hitTime":10104,"closestNoteTime":10080,"hitSuccessfully":true},{"note":38,"velocity":76,"hitTime":10568,"closestNoteTime":10560,"hitSuccessfully":true},{"note":46,"velocity":77,"hitTime":10568,"closestNoteTime":10560,"hitSuccessfully":true},{"note":46,"velocity":56,"hitTime":11040,"closestNoteTime":11040,"hitSuccessfully":true},{"note":46,"velocity":70,"hitTime":11512,"closestNoteTime":11520,"hitSuccessfully":true},{"note":46,"velocity":50,"hitTime":12000,"closestNoteTime":12000,"hitSuccessfully":true},{"note":46,"velocity":72,"hitTime":12472,"closestNoteTime":12480,"hitSuccessfully":true},{"note":38,"velocity":82,"hitTime":12472,"closestNoteTime":12480,"hitSuccessfully":true},{"note":46,"velocity":62,"hitTime":12952,"closestNoteTime":12960,"hitSuccessfully":true},{"note":36,"velocity":36,"hitTime":13392,"closestNoteTime":13440,"hitSuccessfully":true},{"note":46,"velocity":74,"hitTime":13424,"closestNoteTime":13440,"hitSuccessfully":true},{"note":46,"velocity":64,"hitTime":13904,"closestNoteTime":13920,"hitSuccessfully":true},{"note":38,"velocity":82,"hitTime":14384,"closestNoteTime":14400,"hitSuccessfully":true},{"note":46,"velocity":75,"hitTime":14400,"closestNoteTime":14400,"hitSuccessfully":true},{"note":46,"velocity":65,"hitTime":14880,"closestNoteTime":14880,"hitSuccessfully":true}]}