{"frames":[{"note":36,"velocity":32,"hitTime":128,"closestNoteTime":0,"hitSuccessfully":true},{"note":46,"velocity":101,"hitTime":160,"closestNoteTime":0,"hitSuccessfully":true},{"note":46,"velocity":88,"hitTime":640,"closestNoteTime":480,"hitSuccessfully":true},{"note":46,"velocity":94,"hitTime":1040,"closestNoteTime":960,"hitSuccessfully":true},{"note":46,"velocity":85,"hitTime":1520,"closestNoteTime":1440,"hitSuccessfully":true},{"note":36,"velocity":59,"hitTime":2000,"closestNoteTime":1920,"hitSuccessfully":true},{"note":46,"velocity":96,"hitTime":2000,"closestNoteTime":1920,"hitSuccessfully":true},{"note":46,"velocity":85,"hitTime":2480,"closestNoteTime":2400,"hitSuccessfully":true},{"note":38,"velocity":78,"hitTime":2992,"closestNoteTime":2880,"hitSuccessfully":true},{"note":46,"velocity":93,"hitTime":2992,"closestNoteTime":2880,"hitSuccessfully":true},{"note":38,"velocity":52,"hitTime":3040,"closestNoteTime":4800,"hitSuccessfully":false},{"note":46,"velocity":83,"hitTime":3472,"closestNoteTime":3360,"hitSuccessfully":true},{"note":46,"velocity":99,"hitTime":3952,"closestNoteTime":3840,"hitSuccessfully":true},{"note":36,"velocity":58,"hitTime":3984,"closestNoteTime":3840,"hitSuccessfully":true},{"note":46,"velocity":85,"hitTime":4384,"closestNoteTime":4320,"hitSuccessfully":true},{"note":38,"velocity":86,"hitTime":4896,"closestNoteTime":4800,"hitSuccessfully":true},{"note":46,"velocity":93,"hitTime":4896,"closestNoteTime":4800,"hitSuccessfully":true},{"note":46,"velocity":83,"hitTime":5344,"closestNoteTime":5280,"hitSuccessfully":true},{"note":46,"velocity":99,"hitTime":5824,"closestNoteTime":5760,"hitSuccessfully":true},{"note":36,"velocity":42,"hitTime":5888,"closestNoteTime":5760,"hitSuccessfully":true},{"note":46,"velocity":62,"hitTime":6368,"closestNoteTime":6240,"hitSuccessfully":true},{"note":38,"velocity":77,"hitTime":6800,"closestNoteTime":6720,"hitSuccessfully":true},{"note":46,"velocity":91,"hitTime":6816,"closestNoteTime":6720,"hitSuccessfully":true},{"note":38,"velocity":44,"hitTime":6880,"closestNoteTime":8640,"hitSuccessfully":false},{"note":46,"velocity":85,"hitTime":7248,"closestNoteTime":7200,"hitSuccessfully":true},{"note":46,"velocity":94,"hitTime":7728,"closestNoteTime":7680,"hitSuccessfully":true},{"note":36,"velocity":46,"hitTime":7728,"closestNoteTime":7680,"hitSuccessfully":true},{"note":46,"velocity":65,"hitTime":8240,"closestNoteTime":8160,"hitSuccessfully":true},{"note":46,"velocity":95,"hitTime":8720,"closestNoteTime":8640,"hitSuccessfully":true},{"note":38,"velocity":81,"hitTime":8720,"closestNoteTime":8640,"hitSuccessfully":true},{"note":46,"velocity":85,"hitTime":9200,"closestNoteTime":9120,"hitSuccessfully":true},{"note":46,"velocity":100,"hitTime":9680,"closestNoteTime":9600,"hitSuccessfully":true},{"note":36,"velocity":58,"hitTime":9680,"closestNoteTime":9600,"hitSuccessfully":true},{"note":46,"velocity":87,"hitTime":10144,"closestNoteTime":10080,"hitSuccessfully":true},{"note":46,"velocity":98,"hitTime":10656,"closestNoteTime":10560,"hitSuccessfully":true},{"note":46,"velocity":83,"hitTime":11136,"closestNoteTime":11040,"hitSuccessfully":true},{"note":36,"velocity":44,"hitTime":11568,"closestNoteTime":11520,"hitSuccessfully":true},{"note":46,"velocity":99,"hitTime":11584,"closestNoteTime":11520,"hitSuccessfully":true},{"note":46,"velocity":88,"hitTime":12064,"closestNoteTime":12000,"hitSuccessfully":true},{"note":38,"velocity":85,"hitTime":12544,"closestNoteTime":12480,"hitSuccessfully":true},{"note":46,"velocity":104,"hitTime":12576,"closestNoteTime":12480,"hitSuccessfully":true},{"note":46,"velocity":79,"hitTime":13040,"closestNoteTime":12960,"hitSuccessfully":true},{"note":46,"velocity":99,"hitTime":13536,"closestNoteTime":13440,"hitSuccessfully":true},{"note":36,"velocity":39,"hitTime":13568,"closestNoteTime":13440,"hitSuccessfully":true},{"note":46,"velocity":89,"hitTime":14048,"closestNoteTime":13920,"hitSuccessfully":true},{"note":38,"velocity":84,"hitTime":14512,"closestNoteTime":14400,"hitSuccessfully":true},{"note":38,"velocity":67,"hitTime":14560,"closestNoteTime":16320,"hitSuccessfully":false},{"note":46,"velocity":99,"hitTime":14560,"closestNoteTime":14400,"hitSuccessfully":true},{"note":46,"velocity":77,"hitTime":15008,"closestNoteTime":14880,"hitSuccessfully":true},{"note":36,"velocity":48,"hitTime":15472,"closestNoteTime":15360,"hitSuccessfully":true},{"note":46,"velocity":95,"hitTime":15472,"closestNoteTime":15360,"hitSuccessfully":true},{"note":46,"velocity":91,"hitTime":15920,"closestNoteTime":15840,"hitSuccessfully":true},{"note":46,"velocity":95,"hitTime":16432,"closestNoteTime":16320,"hitSuccessfully":true},{"note":38,"velocity":85,"hitTime":16432,"closestNoteTime":16320,"hitSuccessfully":true},{"note":46,"velocity":89,"hitTime":16896,"closestNoteTime":16800,"hitSuccessfully":true},{"note":36,"velocity":55,"hitTime":17376,"closestNoteTime":17280,"hitSuccessfully":true},{"note":46,"velocity":104,"hitTime":17376,"closestNoteTime":17280,"hitSuccessfully":true},{"note":46,"velocity":91,"hitTime":17824,"closestNoteTime":17760,"hitSuccessfully":true},{"note":38,"velocity":86,"hitTime":18304,"closestNoteTime":18240,"hitSuccessfully":true},{"note":46,"velocity":101,"hitTime":18368,"closestNoteTime":18240,"hitSuccessfully":true},{"note":46,"velocity":77,"hitTime":18848,"closestNoteTime":18720,"hitSuccessfully":true},{"note":36,"velocity":46,"hitTime":19248,"closestNoteTime":19200,"hitSuccessfully":true},{"note":46,"velocity":100,"hitTime":19280,"closestNoteTime":19200,"hitSuccessfully":true},{"note":46,"velocity":86,"hitTime":19760,"closestNoteTime":19680,"hitSuccessfully":true},{"note":46,"velocity":102,"hitTime":20256,"closestNoteTime":20160,"hitSuccessfully":true},{"note":38,"velocity":85,"hitTime":20256,"closestNoteTime":20160,"hitSuccessfully":true},{"note":46,"velocity":88,"hitTime":20752,"closestNoteTime":20640,"hitSuccessfully":true},{"note":46,"velocity":100,"hitTime":21232,"closestNoteTime":21120,"hitSuccessfully":true},{"note":36,"velocity":38,"hitTime":21248,"closestNoteTime":21120,"hitSuccessfully":true},{"note":46,"velocity":94,"hitTime":21680,"closestNoteTime":21600,"hitSuccessfully":true},{"note":38,"velocity":88,"hitTime":22224,"closestNoteTime":22080,"hitSuccessfully":true},{"note":46,"velocity":100,"hitTime":22224,"closestNoteTime":22080,"hitSuccessfully":true},{"note":46,"velocity":88,"hitTime":22704,"closestNoteTime":22560,"hitSuccessfully":true},{"note":36,"velocity":50,"hitTime":23104,"closestNoteTime":23040,"hitSuccessfully":true},{"note":46,"velocity":103,"hitTime":23184,"closestNoteTime":23040,"hitSuccessfully":true},{"note":46,"velocity":91,"hitTime":23632,"closestNoteTime":23520,"hitSuccessfully":true},{"note":38,"velocity":85,"hitTime":24144,"closestNoteTime":24000,"hitSuccessfully":true},{"note":46,"velocity":97,"hitTime":24144,"closestNoteTime":24000,"hitSuccessfully":true},{"note":38,"velocity":67,"hitTime":24576,"closestNoteTime":25920,"hitSuccessfully":false},{"note":46,"velocity":91,"hitTime":24608,"closestNoteTime":24480,"hitSuccessfully":true},{"note":36,"velocity":38,"hitTime":25024,"closestNoteTime":24960,"hitSuccessfully":true},{"note":46,"velocity":101,"hitTime":25088,"closestNoteTime":24960,"hitSuccessfully":true},{"note":46,"velocity":88,"hitTime":25568,"closestNoteTime":25440,"hitSuccessfully":true},{"note":46,"velocity":99,"hitTime":26048,"closestNoteTime":25920,"hitSuccessfully":true},{"note":38,"velocity":91,"hitTime":26048,"closestNoteTime":25920,"hitSuccessfully":true},{"note":46,"velocity":73,"hitTime":26528,"closestNoteTime":26400,"hitSuccessfully":true},{"note":46,"velocity":99,"hitTime":26976,"closestNoteTime":26880,"hitSuccessfully":true},{"note":36,"velocity":27,"hitTime":27088,"closestNoteTime":26880,"hitSuccessfully":true},{"note":46,"velocity":87,"hitTime":27488,"closestNoteTime":27360,"hitSuccessfully":true},{"note":46,"velocity":105,"hitTime":28000,"closestNoteTime":27840,"hitSuccessfully":true},{"note":38,"velocity":89,"hitTime":28000,"closestNoteTime":27840,"hitSuccessfully":true},{"note":46,"velocity":70,"hitTime":28480,"closestNoteTime":28320,"hitSuccessfully":true},{"note":46,"velocity":91,"hitTime":28960,"closestNoteTime":28800,"hitSuccessfully":true},{"note":46,"velocity":88,"hitTime":29440,"closestNoteTime":29280,"hitSuccessfully":true},{"note":36,"velocity":36,"hitTime":29936,"closestNoteTime":28800,"hitSuccessfully":false},{"note":46,"velocity":100,"hitTime":29952,"closestNoteTime":29760,"hitSuccessfully":true},{"note":38,"velocity":79,"hitTime":29984,"closestNoteTime":29760,"hitSuccessfully":true}]}