{"frames":[{"note":46,"velocity":85,"hitTime":-24,"closestNoteTime":0,"hitSuccessfully":true},{"note":46,"velocity":88,"hitTime":472,"closestNoteTime":480,"hitSuccessfully":true},{"note":46,"velocity":87,"hitTime":928,"closestNoteTime":960,"hitSuccessfully":true},{"note":46,"velocity":87,"hitTime":1440,"closestNoteTime":1440,"hitSuccessfully":true},{"note":46,"velocity":85,"hitTime":1920,"closestNoteTime":1920,"hitSuccessfully":true},{"note":46,"velocity":85,"hitTime":2400,"closestNoteTime":2400,"hitSuccessfully":true},{"note":46,"velocity":85,"hitTime":2872,"closestNoteTime":2880,"hitSuccessfully":true},{"note":46,"velocity":83,"hitTime":3352,"closestNoteTime":3360,"hitSuccessfully":true},{"note":46,"velocity":86,"hitTime":3832,"closestNoteTime":3840,"hitSuccessfully":true},{"note":46,"velocity":85,"hitTime":4328,"closestNoteTime":4320,"hitSuccessfully":true},{"note":46,"velocity":85,"hitTime":4784,"closestNoteTime":4800,"hitSuccessfully":true},{"note":46,"velocity":83,"hitTime":5264,"closestNoteTime":5280,"hitSuccessfully":true},{"note":46,"velocity":85,"hitTime":5744,"closestNoteTime":5760,"hitSuccessfully":true},{"note":46,"velocity":85,"hitTime":6232,"closestNoteTime":6240,"hitSuccessfully":true},{"note":46,"velocity":84,"hitTime":6712,"closestNoteTime":6720,"hitSuccessfully":true},{"note":46,"velocity":85,"hitTime":7192,"closestNoteTime":7200,"hitSuccessfully":true},{"note":46,"velocity":85,"hitTime":7672,"closestNoteTime":7680,"hitSuccessfully":true},{"note":46,"velocity":52,"hitTime":7720,"closestNoteTime":8160,"hitSuccessfully":false},{"note":46,"velocity":82,"hitTime":8160,"closestNoteTime":8160,"hitSuccessfully":true},{"note":46,"velocity":87,"hitTime":8664,"closestNoteTime":8640,"hitSuccessfully":true},{"note":46,"velocity":89,"hitTime":9136,"closestNoteTime":9120,"hitSuccessfully":true},{"note":46,"velocity":86,"hitTime":9616,"closestNoteTime":9600,"hitSuccessfully":true},{"note":46,"velocity":88,"hitTime":10096,"closestNoteTime":10080,"hitSuccessfully":true},{"note":46,"velocity":88,"hitTime":10568,"closestNoteTime":10560,"hitSuccessfully":true},{"note":46,"velocity":87,"hitTime":11048,"closestNoteTime":11040,"hitSuccessfully":true},{"note":46,"velocity":88,"hitTime":11528,"closestNoteTime":11520,"hitSuccessfully":true},{"note":46,"velocity":86,"hitTime":12016,"closestNoteTime":12000,"hitSuccessfully":true},{"note":46,"velocity":86,"hitTime":12512,"closestNoteTime":12480,"hitSuccessfully":true},{"note":46,"velocity":84,"hitTime":12992,"closestNoteTime":12960,"hitSuccessfully":true},{"note":46,"velocity":88,"hitTime":13456,"closestNoteTime":13440,"hitSuccessfully":true},{"note":46,"velocity":88,"hitTime":13952,"closestNoteTime":13920,"hitSuccessfully":true},{"note":46,"velocity":86,"hitTime":14448,"closestNoteTime":14400,"hitSuccessfully":true},{"note":46,"velocity":89,"hitTime":14944,"closestNoteTime":14880,"hitSuccessfully":true}]}