{"frames":[{"note":46,"velocity":85,"hitTime":200,"closestNoteTime":0,"hitSuccessfully":false},{"note":46,"velocity":88,"hitTime":640,"closestNoteTime":480,"hitSuccessfully":false},{"note":46,"velocity":91,"hitTime":1112,"closestNoteTime":960,"hitSuccessfully":false},{"note":46,"velocity":91,"hitTime":1592,"closestNoteTime":1440,"hitSuccessfully":false},{"note":38,"velocity":76,"hitTime":2056,"closestNoteTime":2880,"hitSuccessfully":false},{"note":38,"velocity":54,"hitTime":2096,"closestNoteTime":2880,"hitSuccessfully":false},{"note":46,"velocity":85,"hitTime":2472,"closestNoteTime":2400,"hitSuccessfully":true},{"note":46,"velocity":91,"hitTime":2904,"closestNoteTime":2880,"hitSuccessfully":true},{"note":38,"velocity":76,"hitTime":3064,"closestNoteTime":2880,"hitSuccessfully":false},{"note":38,"velocity":36,"hitTime":3168,"closestNoteTime":2880,"hitSuccessfully":false},{"note":46,"velocity":88,"hitTime":3504,"closestNoteTime":3360,"hitSuccessfully":true},{"note":46,"velocity":88,"hitTime":3936,"closestNoteTime":3840,"hitSuccessfully":true},{"note":46,"velocity":88,"hitTime":4400,"closestNoteTime":4320,"hitSuccessfully":true},{"note":46,"velocity":91,"hitTime":4896,"closestNoteTime":4800,"hitSuccessfully":true},{"note":38,"velocity":78,"hitTime":5032,"closestNoteTime":4800,"hitSuccessfully":false},{"note":38,"velocity":17,"hitTime":5112,"closestNoteTime":4800,"hitSuccessfully":false},{"note":46,"velocity":89,"hitTime":5472,"closestNoteTime":5280,"hitSuccessfully":false},{"note":46,"velocity":91,"hitTime":5944,"closestNoteTime":5760,"hitSuccessfully":false},{"note":46,"velocity":102,"hitTime":6424,"closestNoteTime":6240,"hitSuccessfully":false},{"note":46,"velocity":80,"hitTime":6928,"closestNoteTime":6720,"hitSuccessfully":false},{"note":46,"velocity":86,"hitTime":7416,"closestNoteTime":7200,"hitSuccessfully":false},{"note":46,"velocity":75,"hitTime":7456,"closestNoteTime":7680,"hitSuccessfully":false},{"note":38,"velocity":71,"hitTime":7920,"closestNoteTime":8640,"hitSuccessfully":false},{"note":46,"velocity":93,"hitTime":8376,"closestNoteTime":8160,"hitSuccessfully":false},{"note":46,"velocity":76,"hitTime":9248,"closestNoteTime":9120,"hitSuccessfully":true},{"note":46,"velocity":76,"hitTime":9728,"closestNoteTime":9600,"hitSuccessfully":true},{"note":46,"velocity":73,"hitTime":10200,"closestNoteTime":10080,"hitSuccessfully":true},{"note":46,"velocity":77,"hitTime":10624,"closestNoteTime":10560,"hitSuccessfully":true},{"note":46,"velocity":80,"hitTime":11096,"closestNoteTime":11040,"hitSuccessfully":true},{"note":38,"velocity":71,"hitTime":11176,"closestNoteTime":10560,"hitSuccessfully":false},{"note":38,"velocity":37,"hitTime":11232,"closestNoteTime":10560,"hitSuccessfully":false},{"note":46,"velocity":77,"hitTime":11680,"closestNoteTime":11520,"hitSuccessfully":false},{"note":46,"velocity":77,"hitTime":12256,"closestNoteTime":12480,"hitSuccessfully":false},{"note":46,"velocity":73,"hitTime":13072,"closestNoteTime":12960,"hitSuccessfully":true},{"note":46,"velocity":75,"hitTime":13624,"closestNoteTime":13440,"hitSuccessfully":false},{"note":46,"velocity":79,"hitTime":14096,"closestNoteTime":13920,"hitSuccessfully":false},{"note":46,"velocity":108,"hitTime":14592,"closestNoteTime":14400,"hitSuccessfully":false},{"note":46,"velocity":77,"hitTime":15128,"closestNoteTime":14880,"hitSuccessfully":false},{"note":38,"velocity":56,"hitTime":15216,"closestNoteTime":14400,"hitSuccessfully":false}]}