{"frames":[{"note":46,"velocity":85,"hitTime":16,"closestNoteTime":0,"hitSuccessfully":true},{"note":46,"velocity":88,"hitTime":496,"closestNoteTime":480,"hitSuccessfully":true},{"note":46,"velocity":87,"hitTime":952,"closestNoteTime":960,"hitSuccessfully":true},{"note":46,"velocity":85,"hitTime":1448,"closestNoteTime":1440,"hitSuccessfully":true},{"note":46,"velocity":85,"hitTime":1936,"closestNoteTime":1920,"hitSuccessfully":true},{"note":46,"velocity":85,"hitTime":2400,"closestNoteTime":2400,"hitSuccessfully":true},{"note":46,"velocity":85,"hitTime":2872,"closestNoteTime":2880,"hitSuccessfully":true},{"note":46,"velocity":87,"hitTime":3336,"closestNoteTime":3360,"hitSuccessfully":true},{"note":46,"velocity":85,"hitTime":3832,"closestNoteTime":3840,"hitSuccessfully":true},{"note":46,"velocity":84,"hitTime":4304,"closestNoteTime":4320,"hitSuccessfully":true},{"note":46,"velocity":86,"hitTime":4800,"closestNoteTime":4800,"hitSuccessfully":true},{"note":46,"velocity":85,"hitTime":5248,"closestNoteTime":5280,"hitSuccessfully":true},{"note":46,"velocity":85,"hitTime":5736,"closestNoteTime":5760,"hitSuccessfully":true},{"note":46,"velocity":87,"hitTime":6232,"closestNoteTime":6240,"hitSuccessfully":true},{"note":46,"velocity":88,"hitTime":6712,"closestNoteTime":6720,"hitSuccessfully":true},{"note":46,"velocity":87,"hitTime":7168,"closestNoteTime":7200,"hitSuccessfully":true},{"note":46,"velocity":91,"hitTime":7664,"closestNoteTime":7680,"hitSuccessfully":true},{"note":46,"velocity":91,"hitTime":8160,"closestNoteTime":8160,"hitSuccessfully":true},{"note":46,"velocity":91,"hitTime":8640,"closestNoteTime":8640,"hitSuccessfully":true},{"note":46,"velocity":91,"hitTime":9120,"closestNoteTime":9120,"hitSuccessfully":true},{"note":46,"velocity":88,"hitTime":9592,"closestNoteTime":9600,"hitSuccessfully":true},{"note":46,"velocity":88,"hitTime":10072,"closestNoteTime":10080,"hitSuccessfully":true},{"note":46,"velocity":88,"hitTime":10552,"closestNoteTime":10560,"hitSuccessfully":true},{"note":46,"velocity":91,"hitTime":11048,"closestNoteTime":11040,"hitSuccessfully":true},{"note":46,"velocity":89,"hitTime":11528,"closestNoteTime":11520,"hitSuccessfully":true},{"note":46,"velocity":86,"hitTime":12016,"closestNoteTime":12000,"hitSuccessfully":true},{"note":46,"velocity":88,"hitTime":12480,"closestNoteTime":12480,"hitSuccessfully":true},{"note":46,"velocity":60,"hitTime":12520,"closestNoteTime":12960,"hitSuccessfully":false},{"note":46,"velocity":87,"hitTime":12992,"closestNoteTime":12960,"hitSuccessfully":true},{"note":46,"velocity":88,"hitTime":13456,"closestNoteTime":13440,"hitSuccessfully":true},{"note":46,"velocity":87,"hitTime":13928,"closestNoteTime":13920,"hitSuccessfully":true},{"note":46,"velocity":88,"hitTime":14424,"closestNoteTime":14400,"hitSuccessfully":true},{"note":46,"velocity":91,"hitTime":14920,"closestNoteTime":14880,"hitSuccessfully":true}]}