{"frames":[{"note":46,"velocity":83,"hitTime":-40,"closestNoteTime":0,"hitSuccessfully":true},{"note":46,"velocity":85,"hitTime":488,"closestNoteTime":480,"hitSuccessfully":true},{"note":46,"velocity":91,"hitTime":1008,"closestNoteTime":960,"hitSuccessfully":true},{"note":46,"velocity":79,"hitTime":1544,"closestNoteTime":1440,"hitSuccessfully":true},{"note":46,"velocity":79,"hitTime":2008,"closestNoteTime":1920,"hitSuccessfully":true},{"note":46,"velocity":88,"hitTime":2504,"closestNoteTime":2400,"hitSuccessfully":true},{"note":46,"velocity":80,"hitTime":3000,"closestNoteTime":2880,"hitSuccessfully":true},{"note":46,"velocity":82,"hitTime":3480,"closestNoteTime":3360,"hitSuccessfully":true},{"note":46,"velocity":85,"hitTime":3936,"closestNoteTime":3840,"hitSuccessfully":true},{"note":46,"velocity":86,"hitTime":4424,"closestNoteTime":4320,"hitSuccessfully":true},{"note":46,"velocity":89,"hitTime":4872,"closestNoteTime":4800,"hitSuccessfully":true},{"note":46,"velocity":85,"hitTime":5368,"closestNoteTime":5280,"hitSuccessfully":true},{"note":46,"velocity":89,"hitTime":5856,"closestNoteTime":5760,"hitSuccessfully":true},{"note":46,"velocity":86,"hitTime":6336,"closestNoteTime":6240,"hitSuccessfully":true},{"note":46,"velocity":87,"hitTime":6832,"closestNoteTime":6720,"hitSuccessfully":true},{"note":46,"velocity":86,"hitTime":7312,"closestNoteTime":7200,"hitSuccessfully":true},{"note":46,"velocity":88,"hitTime":7808,"closestNoteTime":7680,"hitSuccessfully":true},{"note":46,"velocity":90,"hitTime":8248,"closestNoteTime":8160,"hitSuccessfully":true},{"note":46,"velocity":89,"hitTime":8728,"closestNoteTime":8640,"hitSuccessfully":true},{"note":46,"velocity":85,"hitTime":9256,"closestNoteTime":9120,"hitSuccessfully":true},{"note":46,"velocity":91,"hitTime":9720,"closestNoteTime":9600,"hitSuccessfully":true},{"note":46,"velocity":87,"hitTime":10200,"closestNoteTime":10080,"hitSuccessfully":true},{"note":46,"velocity":88,"hitTime":10672,"closestNoteTime":10560,"hitSuccessfully":true},{"note":46,"velocity":95,"hitTime":11184,"closestNoteTime":11040,"hitSuccessfully":true},{"note":46,"velocity":91,"hitTime":11648,"closestNoteTime":11520,"hitSuccessfully":true},{"note":46,"velocity":91,"hitTime":12088,"closestNoteTime":12000,"hitSuccessfully":true},{"note":46,"velocity":90,"hitTime":12544,"closestNoteTime":12480,"hitSuccessfully":true},{"note":46,"velocity":91,"hitTime":13072,"closestNoteTime":12960,"hitSuccessfully":true},{"note":46,"velocity":86,"hitTime":13560,"closestNoteTime":13440,"hitSuccessfully":true},{"note":46,"velocity":93,"hitTime":14016,"closestNoteTime":13920,"hitSuccessfully":true},{"note":46,"velocity":87,"hitTime":14408,"closestNoteTime":14400,"hitSuccessfully":true},{"note":46,"velocity":94,"hitTime":14848,"closestNoteTime":14880,"hitSuccessfully":true}]}