{"frames":[{"note":46,"velocity":74,"hitTime":24,"closestNoteTime":0,"hitSuccessfully":true},{"note":46,"velocity":72,"hitTime":464,"closestNoteTime":480,"hitSuccessfully":true},{"note":46,"velocity":74,"hitTime":992,"closestNoteTime":960,"hitSuccessfully":true},{"note":46,"velocity":77,"hitTime":1456,"closestNoteTime":1440,"hitSuccessfully":true},{"note":46,"velocity":73,"hitTime":1928,"closestNoteTime":1920,"hitSuccessfully":true},{"note":46,"velocity":73,"hitTime":2424,"closestNoteTime":2400,"hitSuccessfully":true},{"note":46,"velocity":74,"hitTime":2928,"closestNoteTime":2880,"hitSuccessfully":true},{"note":46,"velocity":72,"hitTime":3400,"closestNoteTime":3360,"hitSuccessfully":true},{"note":46,"velocity":77,"hitTime":3880,"closestNoteTime":3840,"hitSuccessfully":true},{"note":46,"velocity":76,"hitTime":4360,"closestNoteTime":4320,"hitSuccessfully":true},{"note":46,"velocity":77,"hitTime":4848,"closestNoteTime":4800,"hitSuccessfully":true},{"note":46,"velocity":75,"hitTime":5312,"closestNoteTime":5280,"hitSuccessfully":true},{"note":46,"velocity":76,"hitTime":5792,"closestNoteTime":5760,"hitSuccessfully":true},{"note":46,"velocity":73,"hitTime":6280,"closestNoteTime":6240,"hitSuccessfully":true},{"note":46,"velocity":79,"hitTime":6760,"closestNoteTime":6720,"hitSuccessfully":true},{"note":46,"velocity":76,"hitTime":7224,"closestNoteTime":7200,"hitSuccessfully":true},{"note":46,"velocity":76,"hitTime":7712,"closestNoteTime":7680,"hitSuccessfully":true},{"note":46,"velocity":77,"hitTime":8208,"closestNoteTime":8160,"hitSuccessfully":true},{"note":46,"velocity":76,"hitTime":8672,"closestNoteTime":8640,"hitSuccessfully":true},{"note":46,"velocity":73,"hitTime":9128,"closestNoteTime":9120,"hitSuccessfully":true},{"note":46,"velocity":67,"hitTime":9608,"closestNoteTime":9600,"hitSuccessfully":true},{"note":46,"velocity":76,"hitTime":10104,"closestNoteTime":10080,"hitSuccessfully":true},{"note":46,"velocity":76,"hitTime":10600,"closestNoteTime":10560,"hitSuccessfully":true},{"note":46,"velocity":77,"hitTime":11072,"closestNoteTime":11040,"hitSuccessfully":true},{"note":46,"velocity":79,"hitTime":11552,"closestNoteTime":11520,"hitSuccessfully":true},{"note":46,"velocity":76,"hitTime":12032,"closestNoteTime":12000,"hitSuccessfully":true},{"note":46,"velocity":77,"hitTime":12528,"closestNoteTime":12480,"hitSuccessfully":true},{"note":46,"velocity":76,"hitTime":13008,"closestNoteTime":12960,"hitSuccessfully":true},{"note":46,"velocity":77,"hitTime":13496,"closestNoteTime":13440,"hitSuccessfully":true},{"note":46,"velocity":67,"hitTime":13960,"closestNoteTime":13920,"hitSuccessfully":true},{"note":46,"velocity":79,"hitTime":14440,"closestNoteTime":14400,"hitSuccessfully":true},{"note":46,"velocity":80,"hitTime":14936,"closestNoteTime":14880,"hitSuccessfully":true}]}