{"frames":[{"note":46,"velocity":70,"hitTime":-32,"closestNoteTime":0,"hitSuccessfully":true},{"note":36,"velocity":21,"hitTime":-16,"closestNoteTime":0,"hitSuccessfully":true},{"note":46,"velocity":70,"hitTime":424,"closestNoteTime":480,"hitSuccessfully":true},{"note":46,"velocity":67,"hitTime":832,"closestNoteTime":960,"hitSuccessfully":true},{"note":46,"velocity":72,"hitTime":1320,"closestNoteTime":1440,"hitSuccessfully":true},{"note":46,"velocity":75,"hitTime":1736,"closestNoteTime":1920,"hitSuccessfully":false},{"note":36,"velocity":67,"hitTime":1928,"closestNoteTime":1920,"hitSuccessfully":true},{"note":46,"velocity":70,"hitTime":2072,"closestNoteTime":1920,"hitSuccessfully":false},{"note":46,"velocity":66,"hitTime":2408,"closestNoteTime":2400,"hitSuccessfully":true},{"note":46,"velocity":72,"hitTime":2864,"closestNoteTime":2880,"hitSuccessfully":true},{"note":46,"velocity":76,"hitTime":3288,"closestNoteTime":3360,"hitSuccessfully":true},{"note":46,"velocity":79,"hitTime":3696,"closestNoteTime":3840,"hitSuccessfully":true},{"note":36,"velocity":38,"hitTime":3744,"closestNoteTime":3840,"hitSuccessfully":true},{"note":46,"velocity":70,"hitTime":4200,"closestNoteTime":4320,"hitSuccessfully":true},{"note":46,"velocity":75,"hitTime":4616,"closestNoteTime":4800,"hitSuccessfully":false},{"note":46,"velocity":67,"hitTime":5072,"closestNoteTime":5280,"hitSuccessfully":false},{"note":46,"velocity":77,"hitTime":5488,"closestNoteTime":5280,"hitSuccessfully":false},{"note":36,"velocity":48,"hitTime":5592,"closestNoteTime":5760,"hitSuccessfully":false},{"note":36,"velocity":28,"hitTime":5688,"closestNoteTime":5760,"hitSuccessfully":true},{"note":46,"velocity":70,"hitTime":5888,"closestNoteTime":5760,"hitSuccessfully":true},{"note":46,"velocity":64,"hitTime":6328,"closestNoteTime":6240,"hitSuccessfully":true},{"note":46,"velocity":74,"hitTime":6800,"closestNoteTime":6720,"hitSuccessfully":true},{"note":46,"velocity":74,"hitTime":7216,"closestNoteTime":7200,"hitSuccessfully":true},{"note":36,"velocity":60,"hitTime":7504,"closestNoteTime":7680,"hitSuccessfully":false},{"note":46,"velocity":70,"hitTime":7536,"closestNoteTime":7680,"hitSuccessfully":true},{"note":46,"velocity":64,"hitTime":7912,"closestNoteTime":8160,"hitSuccessfully":false},{"note":46,"velocity":65,"hitTime":8368,"closestNoteTime":8160,"hitSuccessfully":false},{"note":46,"velocity":70,"hitTime":8712,"closestNoteTime":8640,"hitSuccessfully":true},{"note":46,"velocity":67,"hitTime":9208,"closestNoteTime":9120,"hitSuccessfully":true},{"note":46,"velocity":75,"hitTime":9520,"closestNoteTime":9600,"hitSuccessfully":true},{"note":36,"velocity":51,"hitTime":9520,"closestNoteTime":9600,"hitSuccessfully":true},{"note":36,"velocity":28,"hitTime":9592,"closestNoteTime":7680,"hitSuccessfully":false},{"note":46,"velocity":67,"hitTime":9864,"closestNoteTime":10080,"hitSuccessfully":false},{"note":46,"velocity":70,"hitTime":10336,"closestNoteTime":10560,"hitSuccessfully":false},{"note":46,"velocity":74,"hitTime":10720,"closestNoteTime":10560,"hitSuccessfully":false},{"note":46,"velocity":67,"hitTime":11120,"closestNoteTime":11040,"hitSuccessfully":true},{"note":36,"velocity":43,"hitTime":11256,"closestNoteTime":11520,"hitSuccessfully":false},{"note":46,"velocity":70,"hitTime":11440,"closestNoteTime":11520,"hitSuccessfully":true},{"note":46,"velocity":32,"hitTime":11600,"closestNoteTime":12000,"hitSuccessfully":false},{"note":36,"velocity":39,"hitTime":11712,"closestNoteTime":11520,"hitSuccessfully":false},{"note":46,"velocity":58,"hitTime":12152,"closestNoteTime":12000,"hitSuccessfully":false},{"note":46,"velocity":72,"hitTime":12528,"closestNoteTime":12480,"hitSuccessfully":true},{"note":46,"velocity":72,"hitTime":12848,"closestNoteTime":12960,"hitSuccessfully":true},{"note":46,"velocity":64,"hitTime":13208,"closestNoteTime":13440,"hitSuccessfully":false},{"note":36,"velocity":55,"hitTime":13488,"closestNoteTime":13440,"hitSuccessfully":true},{"note":46,"velocity":67,"hitTime":13504,"closestNoteTime":13440,"hitSuccessfully":true},{"note":46,"velocity":64,"hitTime":13864,"closestNoteTime":13920,"hitSuccessfully":true},{"note":46,"velocity":72,"hitTime":14280,"closestNoteTime":14400,"hitSuccessfully":true},{"note":46,"velocity":75,"hitTime":14816,"closestNoteTime":14880,"hitSuccessfully":true}]}