{"frames":[{"note":46,"velocity":91,"hitTime":56,"closestNoteTime":0,"hitSuccessfully":true},{"note":46,"velocity":85,"hitTime":528,"closestNoteTime":480,"hitSuccessfully":true},{"note":46,"velocity":88,"hitTime":968,"closestNoteTime":960,"hitSuccessfully":true},{"note":38,"velocity":77,"hitTime":984,"closestNoteTime":960,"hitSuccessfully":true},{"note":46,"velocity":80,"hitTime":1448,"closestNoteTime":1440,"hitSuccessfully":true},{"note":46,"velocity":79,"hitTime":1936,"closestNoteTime":1920,"hitSuccessfully":true},{"note":46,"velocity":82,"hitTime":2424,"closestNoteTime":2400,"hitSuccessfully":true},{"note":46,"velocity":87,"hitTime":2872,"closestNoteTime":2880,"hitSuccessfully":true},{"note":38,"velocity":77,"hitTime":2872,"closestNoteTime":2880,"hitSuccessfully":true},{"note":46,"velocity":82,"hitTime":3352,"closestNoteTime":3360,"hitSuccessfully":true},{"note":46,"velocity":83,"hitTime":3848,"closestNoteTime":3840,"hitSuccessfully":true},{"note":46,"velocity":83,"hitTime":4352,"closestNoteTime":4320,"hitSuccessfully":true},{"note":46,"velocity":84,"hitTime":4824,"closestNoteTime":4800,"hitSuccessfully":true},{"note":38,"velocity":66,"hitTime":4840,"closestNoteTime":4800,"hitSuccessfully":true},{"note":46,"velocity":77,"hitTime":5304,"closestNoteTime":5280,"hitSuccessfully":true},{"note":46,"velocity":77,"hitTime":5784,"closestNoteTime":5760,"hitSuccessfully":true},{"note":46,"velocity":82,"hitTime":6280,"closestNoteTime":6240,"hitSuccessfully":true},{"note":46,"velocity":83,"hitTime":6736,"closestNoteTime":6720,"hitSuccessfully":true},{"note":38,"velocity":73,"hitTime":6752,"closestNoteTime":6720,"hitSuccessfully":true},{"note":46,"velocity":80,"hitTime":7216,"closestNoteTime":7200,"hitSuccessfully":true},{"note":46,"velocity":79,"hitTime":7728,"closestNoteTime":7680,"hitSuccessfully":true},{"note":46,"velocity":83,"hitTime":8208,"closestNoteTime":8160,"hitSuccessfully":true},{"note":46,"velocity":80,"hitTime":8696,"closestNoteTime":8640,"hitSuccessfully":true},{"note":38,"velocity":72,"hitTime":8720,"closestNoteTime":8640,"hitSuccessfully":true},{"note":46,"velocity":74,"hitTime":9184,"closestNoteTime":9120,"hitSuccessfully":true},{"note":46,"velocity":76,"hitTime":9688,"closestNoteTime":9600,"hitSuccessfully":true},{"note":46,"velocity":77,"hitTime":10136,"closestNoteTime":10080,"hitSuccessfully":true},{"note":46,"velocity":85,"hitTime":10624,"closestNoteTime":10560,"hitSuccessfully":true},{"note":38,"velocity":37,"hitTime":10632,"closestNoteTime":10560,"hitSuccessfully":true},{"note":46,"velocity":77,"hitTime":11064,"closestNoteTime":11040,"hitSuccessfully":true},{"note":46,"velocity":82,"hitTime":11560,"closestNoteTime":11520,"hitSuccessfully":true},{"note":46,"velocity":80,"hitTime":12032,"closestNoteTime":12000,"hitSuccessfully":true},{"note":46,"velocity":85,"hitTime":12504,"closestNoteTime":12480,"hitSuccessfully":true},{"note":38,"velocity":71,"hitTime":12520,"closestNoteTime":12480,"hitSuccessfully":true},{"note":46,"velocity":80,"hitTime":12976,"closestNoteTime":12960,"hitSuccessfully":true},{"note":46,"velocity":85,"hitTime":13456,"closestNoteTime":13440,"hitSuccessfully":true},{"note":46,"velocity":83,"hitTime":13968,"closestNoteTime":13920,"hitSuccessfully":true},{"note":46,"velocity":85,"hitTime":14424,"closestNoteTime":14400,"hitSuccessfully":true},{"note":38,"velocity":71,"hitTime":14432,"closestNoteTime":14400,"hitSuccessfully":true},{"note":46,"velocity":80,"hitTime":14888,"closestNoteTime":14880,"hitSuccessfully":true}]}