{"frames":[{"note":46,"velocity":55,"hitTime":192,"closestNoteTime":0,"hitSuccessfully":false},{"note":46,"velocity":56,"hitTime":616,"closestNoteTime":480,"hitSuccessfully":true},{"note":46,"velocity":60,"hitTime":1088,"closestNoteTime":960,"hitSuccessfully":true},{"note":36,"velocity":26,"hitTime":1112,"closestNoteTime":1920,"hitSuccessfully":false},{"note":46,"velocity":39,"hitTime":1568,"closestNoteTime":1440,"hitSuccessfully":true},{"note":36,"velocity":31,"hitTime":1664,"closestNoteTime":1920,"hitSuccessfully":false},{"note":38,"velocity":26,"hitTime":1664,"closestNoteTime":960,"hitSuccessfully":false},{"note":46,"velocity":56,"hitTime":2104,"closestNoteTime":1920,"hitSuccessfully":false},{"note":46,"velocity":60,"hitTime":2560,"closestNoteTime":2400,"hitSuccessfully":false},{"note":38,"velocity":61,"hitTime":2976,"closestNoteTime":2880,"hitSuccessfully":true},{"note":46,"velocity":70,"hitTime":3416,"closestNoteTime":3360,"hitSuccessfully":true},{"note":46,"velocity":60,"hitTime":3856,"closestNoteTime":3840,"hitSuccessfully":true},{"note":46,"velocity":48,"hitTime":4232,"closestNoteTime":4320,"hitSuccessfully":true},{"note":38,"velocity":50,"hitTime":4672,"closestNoteTime":4800,"hitSuccessfully":true},{"note":36,"velocity":32,"hitTime":4728,"closestNoteTime":3840,"hitSuccessfully":false},{"note":46,"velocity":60,"hitTime":5240,"closestNoteTime":5280,"hitSuccessfully":true},{"note":46,"velocity":56,"hitTime":5704,"closestNoteTime":5760,"hitSuccessfully":true},{"note":46,"velocity":50,"hitTime":6176,"closestNoteTime":6240,"hitSuccessfully":true},{"note":46,"velocity":58,"hitTime":6632,"closestNoteTime":6720,"hitSuccessfully":true},{"note":38,"velocity":46,"hitTime":6896,"closestNoteTime":6720,"hitSuccessfully":false},{"note":38,"velocity":24,"hitTime":7016,"closestNoteTime":6720,"hitSuccessfully":false},{"note":46,"velocity":60,"hitTime":7408,"closestNoteTime":7200,"hitSuccessfully":false},{"note":46,"velocity":44,"hitTime":7904,"closestNoteTime":7680,"hitSuccessfully":false},{"note":46,"velocity":44,"hitTime":8264,"closestNoteTime":8160,"hitSuccessfully":true},{"note":38,"velocity":58,"hitTime":8608,"closestNoteTime":8640,"hitSuccessfully":true},{"note":38,"velocity":30,"hitTime":8680,"closestNoteTime":10560,"hitSuccessfully":false},{"note":36,"velocity":26,"hitTime":8944,"closestNoteTime":9600,"hitSuccessfully":false},{"note":46,"velocity":40,"hitTime":9000,"closestNoteTime":9120,"hitSuccessfully":true},{"note":46,"velocity":13,"hitTime":9576,"closestNoteTime":9600,"hitSuccessfully":true},{"note":36,"velocity":25,"hitTime":9936,"closestNoteTime":9600,"hitSuccessfully":false},{"note":46,"velocity":47,"hitTime":10016,"closestNoteTime":10080,"hitSuccessfully":true},{"note":46,"velocity":54,"hitTime":10472,"closestNoteTime":10560,"hitSuccessfully":true},{"note":46,"velocity":55,"hitTime":10864,"closestNoteTime":11040,"hitSuccessfully":false},{"note":38,"velocity":62,"hitTime":11048,"closestNoteTime":10560,"hitSuccessfully":false},{"note":38,"velocity":28,"hitTime":11152,"closestNoteTime":10560,"hitSuccessfully":false},{"note":36,"velocity":26,"hitTime":11544,"closestNoteTime":11520,"hitSuccessfully":true},{"note":46,"velocity":54,"hitTime":11544,"closestNoteTime":11520,"hitSuccessfully":true},{"note":46,"velocity":54,"hitTime":12056,"closestNoteTime":12000,"hitSuccessfully":true},{"note":46,"velocity":50,"hitTime":12520,"closestNoteTime":12480,"hitSuccessfully":true},{"note":46,"velocity":40,"hitTime":12992,"closestNoteTime":12960,"hitSuccessfully":true},{"note":38,"velocity":61,"hitTime":13072,"closestNoteTime":12480,"hitSuccessfully":false},{"note":38,"velocity":26,"hitTime":13208,"closestNoteTime":12480,"hitSuccessfully":false},{"note":46,"velocity":62,"hitTime":13512,"closestNoteTime":13440,"hitSuccessfully":true},{"note":46,"velocity":44,"hitTime":14048,"closestNoteTime":13920,"hitSuccessfully":true},{"note":46,"velocity":44,"hitTime":14424,"closestNoteTime":14400,"hitSuccessfully":true},{"note":36,"velocity":39,"hitTime":14720,"closestNoteTime":13440,"hitSuccessfully":false},{"note":46,"velocity":47,"hitTime":15144,"closestNoteTime":14880,"hitSuccessfully":false}]}