{"frames":[{"note":36,"velocity":50,"hitTime":4224,"closestNoteTime":3840,"hitSuccessfully":false},{"note":36,"velocity":21,"hitTime":4448,"closestNoteTime":3840,"hitSuccessfully":false},{"note":46,"velocity":75,"hitTime":4816,"closestNoteTime":4800,"hitSuccessfully":true},{"note":36,"velocity":38,"hitTime":5216,"closestNoteTime":5760,"hitSuccessfully":false},{"note":46,"velocity":77,"hitTime":5328,"closestNoteTime":5280,"hitSuccessfully":true},{"note":46,"velocity":75,"hitTime":5968,"closestNoteTime":5760,"hitSuccessfully":true},{"note":46,"velocity":76,"hitTime":6720,"closestNoteTime":6720,"hitSuccessfully":true},{"note":46,"velocity":77,"hitTime":7600,"closestNoteTime":7680,"hitSuccessfully":true},{"note":36,"velocity":55,"hitTime":7680,"closestNoteTime":7680,"hitSuccessfully":true},{"note":36,"velocity":31,"hitTime":7872,"closestNoteTime":9600,"hitSuccessfully":false},{"note":46,"velocity":75,"hitTime":8192,"closestNoteTime":8160,"hitSuccessfully":true},{"note":46,"velocity":74,"hitTime":8832,"closestNoteTime":8640,"hitSuccessfully":true},{"note":46,"velocity":73,"hitTime":9424,"closestNoteTime":9600,"hitSuccessfully":true},{"note":36,"velocity":52,"hitTime":9776,"closestNoteTime":9600,"hitSuccessfully":true},{"note":46,"velocity":65,"hitTime":10064,"closestNoteTime":10080,"hitSuccessfully":true},{"note":46,"velocity":70,"hitTime":10624,"closestNoteTime":10560,"hitSuccessfully":true},{"note":46,"velocity":73,"hitTime":11216,"closestNoteTime":11040,"hitSuccessfully":true},{"note":46,"velocity":79,"hitTime":11808,"closestNoteTime":11520,"hitSuccessfully":true},{"note":46,"velocity":75,"hitTime":12400,"closestNoteTime":12480,"hitSuccessfully":true},{"note":46,"velocity":67,"hitTime":12976,"closestNoteTime":12960,"hitSuccessfully":true},{"note":46,"velocity":72,"hitTime":13552,"closestNoteTime":13440,"hitSuccessfully":true},{"note":46,"velocity":50,"hitTime":14048,"closestNoteTime":13920,"hitSuccessfully":true},{"note":46,"velocity":83,"hitTime":14992,"closestNoteTime":14880,"hitSuccessfully":true},{"note":36,"velocity":55,"hitTime":15232,"closestNoteTime":15360,"hitSuccessfully":true},{"note":46,"velocity":73,"hitTime":15472,"closestNoteTime":15360,"hitSuccessfully":true},{"note":46,"velocity":72,"hitTime":16032,"closestNoteTime":15840,"hitSuccessfully":true},{"note":46,"velocity":73,"hitTime":16624,"closestNoteTime":16800,"hitSuccessfully":true},{"note":46,"velocity":77,"hitTime":17328,"closestNoteTime":17280,"hitSuccessfully":true},{"note":38,"velocity":68,"hitTime":17904,"closestNoteTime":18240,"hitSuccessfully":false},{"note":36,"velocity":42,"hitTime":18256,"closestNoteTime":19200,"hitSuccessfully":false},{"note":36,"velocity":26,"hitTime":18416,"closestNoteTime":19200,"hitSuccessfully":false},{"note":46,"velocity":82,"hitTime":18848,"closestNoteTime":18720,"hitSuccessfully":true},{"note":46,"velocity":79,"hitTime":19360,"closestNoteTime":19200,"hitSuccessfully":true},{"note":46,"velocity":80,"hitTime":19872,"closestNoteTime":19680,"hitSuccessfully":true},{"note":38,"velocity":71,"hitTime":20320,"closestNoteTime":20160,"hitSuccessfully":true},{"note":36,"velocity":39,"hitTime":20592,"closestNoteTime":21120,"hitSuccessfully":false},{"note":46,"velocity":75,"hitTime":20672,"closestNoteTime":20640,"hitSuccessfully":true},{"note":36,"velocity":27,"hitTime":20768,"closestNoteTime":21120,"hitSuccessfully":false},{"note":46,"velocity":77,"hitTime":21152,"closestNoteTime":21120,"hitSuccessfully":true},{"note":46,"velocity":73,"hitTime":21712,"closestNoteTime":21600,"hitSuccessfully":true},{"note":46,"velocity":60,"hitTime":22224,"closestNoteTime":22080,"hitSuccessfully":true},{"note":38,"velocity":66,"hitTime":22752,"closestNoteTime":22080,"hitSuccessfully":false},{"note":46,"velocity":80,"hitTime":22976,"closestNoteTime":23040,"hitSuccessfully":true},{"note":36,"velocity":48,"hitTime":23024,"closestNoteTime":23040,"hitSuccessfully":true},{"note":46,"velocity":70,"hitTime":23456,"closestNoteTime":23520,"hitSuccessfully":true},{"note":46,"velocity":74,"hitTime":24016,"closestNoteTime":24000,"hitSuccessfully":true},{"note":46,"velocity":65,"hitTime":24528,"closestNoteTime":24480,"hitSuccessfully":true},{"note":46,"velocity":77,"hitTime":25120,"closestNoteTime":24960,"hitSuccessfully":true},{"note":38,"velocity":71,"hitTime":25408,"closestNoteTime":25920,"hitSuccessfully":false},{"note":36,"velocity":48,"hitTime":25536,"closestNoteTime":24960,"hitSuccessfully":false},{"note":46,"velocity":77,"hitTime":25680,"closestNoteTime":25440,"hitSuccessfully":true},{"note":46,"velocity":72,"hitTime":26128,"closestNoteTime":25920,"hitSuccessfully":true},{"note":46,"velocity":65,"hitTime":26640,"closestNoteTime":26400,"hitSuccessfully":true},{"note":46,"velocity":70,"hitTime":27200,"closestNoteTime":27360,"hitSuccessfully":true},{"note":46,"velocity":70,"hitTime":27792,"closestNoteTime":27840,"hitSuccessfully":true},{"note":38,"velocity":62,"hitTime":28304,"closestNoteTime":27840,"hitSuccessfully":false},{"note":36,"velocity":59,"hitTime":28464,"closestNoteTime":28800,"hitSuccessfully":false},{"note":46,"velocity":80,"hitTime":28512,"closestNoteTime":28320,"hitSuccessfully":true},{"note":46,"velocity":70,"hitTime":28944,"closestNoteTime":28800,"hitSuccessfully":true},{"note":46,"velocity":73,"hitTime":29504,"closestNoteTime":29280,"hitSuccessfully":true},{"note":46,"velocity":67,"hitTime":29984,"closestNoteTime":29760,"hitSuccessfully":true},{"note":46,"velocity":60,"hitTime":30448,"closestNoteTime":30240,"hitSuccessfully":true}]}