{"frames":[{"note":46,"velocity":99,"hitTime":-32,"closestNoteTime":0,"hitSuccessfully":true},{"note":36,"velocity":27,"hitTime":-32,"closestNoteTime":0,"hitSuccessfully":true},{"note":46,"velocity":75,"hitTime":384,"closestNoteTime":480,"hitSuccessfully":true},{"note":46,"velocity":96,"hitTime":840,"closestNoteTime":960,"hitSuccessfully":true},{"note":36,"velocity":42,"hitTime":880,"closestNoteTime":1920,"hitSuccessfully":false},{"note":36,"velocity":87,"hitTime":1264,"closestNoteTime":1920,"hitSuccessfully":false},{"note":46,"velocity":91,"hitTime":1736,"closestNoteTime":1920,"hitSuccessfully":false},{"note":36,"velocity":101,"hitTime":2080,"closestNoteTime":1920,"hitSuccessfully":false},{"note":46,"velocity":82,"hitTime":2472,"closestNoteTime":2400,"hitSuccessfully":true},{"note":36,"velocity":34,"hitTime":2592,"closestNoteTime":1920,"hitSuccessfully":false},{"note":46,"velocity":89,"hitTime":2896,"closestNoteTime":2880,"hitSuccessfully":true},{"note":36,"velocity":39,"hitTime":2896,"closestNoteTime":3840,"hitSuccessfully":false},{"note":36,"velocity":65,"hitTime":3152,"closestNoteTime":3840,"hitSuccessfully":false},{"note":46,"velocity":86,"hitTime":3432,"closestNoteTime":3360,"hitSuccessfully":true},{"note":46,"velocity":79,"hitTime":3760,"closestNoteTime":3840,"hitSuccessfully":true},{"note":36,"velocity":67,"hitTime":3808,"closestNoteTime":3840,"hitSuccessfully":true},{"note":36,"velocity":25,"hitTime":4456,"closestNoteTime":5760,"hitSuccessfully":false},{"note":46,"velocity":88,"hitTime":4464,"closestNoteTime":4320,"hitSuccessfully":true},{"note":46,"velocity":91,"hitTime":4920,"closestNoteTime":4800,"hitSuccessfully":true},{"note":46,"velocity":94,"hitTime":5320,"closestNoteTime":5280,"hitSuccessfully":true},{"note":46,"velocity":95,"hitTime":5808,"closestNoteTime":5760,"hitSuccessfully":true},{"note":36,"velocity":62,"hitTime":6256,"closestNoteTime":5760,"hitSuccessfully":false},{"note":46,"velocity":88,"hitTime":6712,"closestNoteTime":6720,"hitSuccessfully":true},{"note":36,"velocity":78,"hitTime":7128,"closestNoteTime":7680,"hitSuccessfully":false},{"note":36,"velocity":80,"hitTime":7680,"closestNoteTime":7680,"hitSuccessfully":true},{"note":46,"velocity":93,"hitTime":7688,"closestNoteTime":7680,"hitSuccessfully":true},{"note":46,"velocity":79,"hitTime":8216,"closestNoteTime":8160,"hitSuccessfully":true},{"note":46,"velocity":94,"hitTime":8560,"closestNoteTime":8640,"hitSuccessfully":true},{"note":36,"velocity":35,"hitTime":8712,"closestNoteTime":9600,"hitSuccessfully":false},{"note":46,"velocity":80,"hitTime":8992,"closestNoteTime":9120,"hitSuccessfully":true},{"note":46,"velocity":88,"hitTime":9368,"closestNoteTime":9600,"hitSuccessfully":false},{"note":36,"velocity":81,"hitTime":9592,"closestNoteTime":9600,"hitSuccessfully":true},{"note":46,"velocity":73,"hitTime":9712,"closestNoteTime":9600,"hitSuccessfully":true},{"note":46,"velocity":80,"hitTime":10024,"closestNoteTime":10080,"hitSuccessfully":true},{"note":46,"velocity":101,"hitTime":10528,"closestNoteTime":10560,"hitSuccessfully":true},{"note":46,"velocity":93,"hitTime":10984,"closestNoteTime":11040,"hitSuccessfully":true},{"note":36,"velocity":77,"hitTime":11400,"closestNoteTime":11520,"hitSuccessfully":true},{"note":46,"velocity":91,"hitTime":11912,"closestNoteTime":12000,"hitSuccessfully":true},{"note":46,"velocity":89,"hitTime":12336,"closestNoteTime":12480,"hitSuccessfully":true},{"note":46,"velocity":85,"hitTime":12752,"closestNoteTime":12960,"hitSuccessfully":false},{"note":46,"velocity":98,"hitTime":13152,"closestNoteTime":12960,"hitSuccessfully":false},{"note":36,"velocity":82,"hitTime":13384,"closestNoteTime":13440,"hitSuccessfully":true},{"note":46,"velocity":89,"hitTime":13544,"closestNoteTime":13440,"hitSuccessfully":true},{"note":46,"velocity":88,"hitTime":13960,"closestNoteTime":13920,"hitSuccessfully":true},{"note":46,"velocity":74,"hitTime":14296,"closestNoteTime":14400,"hitSuccessfully":true},{"note":36,"velocity":62,"hitTime":14696,"closestNoteTime":5760,"hitSuccessfully":false},{"note":46,"velocity":70,"hitTime":14824,"closestNoteTime":14880,"hitSuccessfully":true},{"note":46,"velocity":82,"hitTime":15296,"closestNoteTime":12960,"hitSuccessfully":false}]}