{"frames":[{"note":36,"velocity":48,"hitTime":19280,"closestNoteTime":19200,"hitSuccessfully":true},{"note":46,"velocity":85,"hitTime":19360,"closestNoteTime":19200,"hitSuccessfully":true},{"note":46,"velocity":79,"hitTime":19808,"closestNoteTime":19680,"hitSuccessfully":true},{"note":46,"velocity":102,"hitTime":20288,"closestNoteTime":20160,"hitSuccessfully":true},{"note":38,"velocity":99,"hitTime":20288,"closestNoteTime":20160,"hitSuccessfully":true},{"note":46,"velocity":73,"hitTime":20400,"closestNoteTime":20640,"hitSuccessfully":true},{"note":46,"velocity":77,"hitTime":20720,"closestNoteTime":21120,"hitSuccessfully":false},{"note":46,"velocity":66,"hitTime":21168,"closestNoteTime":21120,"hitSuccessfully":true},{"note":46,"velocity":77,"hitTime":21680,"closestNoteTime":21600,"hitSuccessfully":true},{"note":38,"velocity":94,"hitTime":22160,"closestNoteTime":22080,"hitSuccessfully":true},{"note":46,"velocity":91,"hitTime":22160,"closestNoteTime":22080,"hitSuccessfully":true},{"note":46,"velocity":74,"hitTime":22672,"closestNoteTime":22560,"hitSuccessfully":true},{"note":46,"velocity":91,"hitTime":23104,"closestNoteTime":23040,"hitSuccessfully":true},{"note":36,"velocity":61,"hitTime":23136,"closestNoteTime":23040,"hitSuccessfully":true},{"note":46,"velocity":79,"hitTime":23616,"closestNoteTime":23520,"hitSuccessfully":true},{"note":46,"velocity":109,"hitTime":24096,"closestNoteTime":24000,"hitSuccessfully":true},{"note":38,"velocity":98,"hitTime":24128,"closestNoteTime":24000,"hitSuccessfully":true},{"note":46,"velocity":80,"hitTime":24576,"closestNoteTime":24480,"hitSuccessfully":true},{"note":46,"velocity":70,"hitTime":25104,"closestNoteTime":24960,"hitSuccessfully":true},{"note":46,"velocity":75,"hitTime":25536,"closestNoteTime":25440,"hitSuccessfully":true},{"note":38,"velocity":92,"hitTime":26016,"closestNoteTime":25920,"hitSuccessfully":true},{"note":46,"velocity":100,"hitTime":26048,"closestNoteTime":25920,"hitSuccessfully":true},{"note":46,"velocity":76,"hitTime":26480,"closestNoteTime":26400,"hitSuccessfully":true},{"note":46,"velocity":80,"hitTime":26928,"closestNoteTime":26880,"hitSuccessfully":true},{"note":36,"velocity":56,"hitTime":26928,"closestNoteTime":26880,"hitSuccessfully":true},{"note":46,"velocity":77,"hitTime":27472,"closestNoteTime":27360,"hitSuccessfully":true},{"note":46,"velocity":108,"hitTime":27952,"closestNoteTime":27840,"hitSuccessfully":true},{"note":38,"velocity":95,"hitTime":27952,"closestNoteTime":27840,"hitSuccessfully":true},{"note":46,"velocity":80,"hitTime":28432,"closestNoteTime":28320,"hitSuccessfully":true},{"note":46,"velocity":82,"hitTime":28864,"closestNoteTime":28800,"hitSuccessfully":true},{"note":36,"velocity":70,"hitTime":28880,"closestNoteTime":28800,"hitSuccessfully":true},{"note":46,"velocity":72,"hitTime":29392,"closestNoteTime":29280,"hitSuccessfully":true},{"note":38,"velocity":97,"hitTime":29856,"closestNoteTime":29760,"hitSuccessfully":true},{"note":46,"velocity":101,"hitTime":29872,"closestNoteTime":29760,"hitSuccessfully":true},{"note":46,"velocity":76,"hitTime":30336,"closestNoteTime":30240,"hitSuccessfully":true}]}