{"frames":[{"note":46,"velocity":66,"hitTime":80,"closestNoteTime":0,"hitSuccessfully":true},{"note":46,"velocity":62,"hitTime":544,"closestNoteTime":480,"hitSuccessfully":true},{"note":46,"velocity":76,"hitTime":992,"closestNoteTime":960,"hitSuccessfully":true},{"note":38,"velocity":68,"hitTime":1000,"closestNoteTime":960,"hitSuccessfully":true},{"note":38,"velocity":30,"hitTime":1056,"closestNoteTime":2880,"hitSuccessfully":false},{"note":46,"velocity":66,"hitTime":1472,"closestNoteTime":1440,"hitSuccessfully":true},{"note":46,"velocity":74,"hitTime":1928,"closestNoteTime":1920,"hitSuccessfully":true},{"note":46,"velocity":64,"hitTime":2448,"closestNoteTime":2400,"hitSuccessfully":true},{"note":38,"velocity":72,"hitTime":2888,"closestNoteTime":2880,"hitSuccessfully":true},{"note":46,"velocity":80,"hitTime":2920,"closestNoteTime":2880,"hitSuccessfully":true},{"note":38,"velocity":53,"hitTime":2960,"closestNoteTime":4800,"hitSuccessfully":false},{"note":46,"velocity":67,"hitTime":3400,"closestNoteTime":3360,"hitSuccessfully":true},{"note":46,"velocity":76,"hitTime":3864,"closestNoteTime":3840,"hitSuccessfully":true},{"note":46,"velocity":66,"hitTime":4352,"closestNoteTime":4320,"hitSuccessfully":true},{"note":38,"velocity":77,"hitTime":4848,"closestNoteTime":4800,"hitSuccessfully":true},{"note":46,"velocity":82,"hitTime":4848,"closestNoteTime":4800,"hitSuccessfully":true},{"note":46,"velocity":72,"hitTime":5312,"closestNoteTime":5280,"hitSuccessfully":true},{"note":46,"velocity":75,"hitTime":5792,"closestNoteTime":5760,"hitSuccessfully":true},{"note":46,"velocity":67,"hitTime":6288,"closestNoteTime":6240,"hitSuccessfully":true},{"note":38,"velocity":74,"hitTime":6768,"closestNoteTime":6720,"hitSuccessfully":true},{"note":46,"velocity":84,"hitTime":6784,"closestNoteTime":6720,"hitSuccessfully":true},{"note":46,"velocity":67,"hitTime":7264,"closestNoteTime":7200,"hitSuccessfully":true},{"note":46,"velocity":76,"hitTime":7752,"closestNoteTime":7680,"hitSuccessfully":true},{"note":46,"velocity":60,"hitTime":8248,"closestNoteTime":8160,"hitSuccessfully":true},{"note":38,"velocity":71,"hitTime":8728,"closestNoteTime":8640,"hitSuccessfully":true},{"note":46,"velocity":80,"hitTime":8728,"closestNoteTime":8640,"hitSuccessfully":true},{"note":46,"velocity":70,"hitTime":9192,"closestNoteTime":9120,"hitSuccessfully":true},{"note":46,"velocity":77,"hitTime":9680,"closestNoteTime":9600,"hitSuccessfully":true},{"note":46,"velocity":60,"hitTime":10144,"closestNoteTime":10080,"hitSuccessfully":true},{"note":38,"velocity":73,"hitTime":10616,"closestNoteTime":10560,"hitSuccessfully":true},{"note":46,"velocity":85,"hitTime":10624,"closestNoteTime":10560,"hitSuccessfully":true},{"note":38,"velocity":41,"hitTime":10696,"closestNoteTime":12480,"hitSuccessfully":false},{"note":46,"velocity":66,"hitTime":11112,"closestNoteTime":11040,"hitSuccessfully":true},{"note":46,"velocity":67,"hitTime":11576,"closestNoteTime":11520,"hitSuccessfully":true},{"note":46,"velocity":55,"hitTime":12088,"closestNoteTime":12000,"hitSuccessfully":true},{"note":46,"velocity":79,"hitTime":12568,"closestNoteTime":12480,"hitSuccessfully":true},{"note":38,"velocity":71,"hitTime":12568,"closestNoteTime":12480,"hitSuccessfully":true},{"note":38,"velocity":39,"hitTime":12624,"closestNoteTime":14400,"hitSuccessfully":false},{"note":46,"velocity":56,"hitTime":13024,"closestNoteTime":12960,"hitSuccessfully":true},{"note":46,"velocity":76,"hitTime":13488,"closestNoteTime":13440,"hitSuccessfully":true},{"note":46,"velocity":65,"hitTime":13976,"closestNoteTime":13920,"hitSuccessfully":true},{"note":38,"velocity":71,"hitTime":14440,"closestNoteTime":14400,"hitSuccessfully":true},{"note":46,"velocity":80,"hitTime":14456,"closestNoteTime":14400,"hitSuccessfully":true},{"note":46,"velocity":66,"hitTime":14936,"closestNoteTime":14880,"hitSuccessfully":true}]}