{"frames":[{"note":46,"velocity":72,"hitTime":304,"closestNoteTime":480,"hitSuccessfully":true},{"note":46,"velocity":64,"hitTime":864,"closestNoteTime":960,"hitSuccessfully":true},{"note":46,"velocity":75,"hitTime":1344,"closestNoteTime":1440,"hitSuccessfully":true},{"note":38,"velocity":21,"hitTime":1504,"closestNoteTime":960,"hitSuccessfully":false},{"note":46,"velocity":74,"hitTime":1856,"closestNoteTime":1920,"hitSuccessfully":true},{"note":38,"velocity":76,"hitTime":2256,"closestNoteTime":2880,"hitSuccessfully":false},{"note":46,"velocity":70,"hitTime":2784,"closestNoteTime":2880,"hitSuccessfully":true},{"note":46,"velocity":58,"hitTime":3136,"closestNoteTime":3360,"hitSuccessfully":true},{"note":38,"velocity":82,"hitTime":3296,"closestNoteTime":2880,"hitSuccessfully":false},{"note":46,"velocity":72,"hitTime":3600,"closestNoteTime":3840,"hitSuccessfully":true},{"note":46,"velocity":67,"hitTime":4048,"closestNoteTime":4320,"hitSuccessfully":true},{"note":46,"velocity":70,"hitTime":4496,"closestNoteTime":4800,"hitSuccessfully":false},{"note":38,"velocity":79,"hitTime":4960,"closestNoteTime":4800,"hitSuccessfully":true},{"note":46,"velocity":77,"hitTime":5152,"closestNoteTime":5280,"hitSuccessfully":true},{"note":36,"velocity":39,"hitTime":5360,"closestNoteTime":5760,"hitSuccessfully":false},{"note":46,"velocity":70,"hitTime":5600,"closestNoteTime":5760,"hitSuccessfully":true},{"note":46,"velocity":65,"hitTime":6048,"closestNoteTime":6240,"hitSuccessfully":true},{"note":46,"velocity":55,"hitTime":6512,"closestNoteTime":6720,"hitSuccessfully":true},{"note":38,"velocity":82,"hitTime":7024,"closestNoteTime":6720,"hitSuccessfully":false},{"note":36,"velocity":44,"hitTime":7200,"closestNoteTime":7680,"hitSuccessfully":false},{"note":46,"velocity":56,"hitTime":7264,"closestNoteTime":7200,"hitSuccessfully":true},{"note":46,"velocity":62,"hitTime":7760,"closestNoteTime":7680,"hitSuccessfully":true},{"note":46,"velocity":66,"hitTime":8224,"closestNoteTime":8160,"hitSuccessfully":true},{"note":46,"velocity":62,"hitTime":8672,"closestNoteTime":8640,"hitSuccessfully":true},{"note":38,"velocity":58,"hitTime":9344,"closestNoteTime":8640,"hitSuccessfully":false},{"note":46,"velocity":73,"hitTime":9616,"closestNoteTime":9600,"hitSuccessfully":true},{"note":36,"velocity":79,"hitTime":9696,"closestNoteTime":9600,"hitSuccessfully":true},{"note":46,"velocity":67,"hitTime":10224,"closestNoteTime":10080,"hitSuccessfully":true},{"note":38,"velocity":61,"hitTime":10528,"closestNoteTime":10560,"hitSuccessfully":true},{"note":46,"velocity":65,"hitTime":10736,"closestNoteTime":10560,"hitSuccessfully":true},{"note":46,"velocity":62,"hitTime":11328,"closestNoteTime":11040,"hitSuccessfully":true},{"note":46,"velocity":62,"hitTime":11808,"closestNoteTime":11520,"hitSuccessfully":true},{"note":38,"velocity":63,"hitTime":12560,"closestNoteTime":12480,"hitSuccessfully":true},{"note":46,"velocity":67,"hitTime":12720,"closestNoteTime":12480,"hitSuccessfully":true},{"note":36,"velocity":58,"hitTime":12800,"closestNoteTime":13440,"hitSuccessfully":false},{"note":36,"velocity":27,"hitTime":12960,"closestNoteTime":13440,"hitSuccessfully":false},{"note":46,"velocity":65,"hitTime":13232,"closestNoteTime":12960,"hitSuccessfully":true},{"note":46,"velocity":62,"hitTime":13744,"closestNoteTime":13920,"hitSuccessfully":true},{"note":46,"velocity":65,"hitTime":14304,"closestNoteTime":14400,"hitSuccessfully":true},{"note":38,"velocity":72,"hitTime":14864,"closestNoteTime":14400,"hitSuccessfully":false},{"note":46,"velocity":64,"hitTime":15296,"closestNoteTime":15360,"hitSuccessfully":true},{"note":36,"velocity":62,"hitTime":15344,"closestNoteTime":15360,"hitSuccessfully":true},{"note":46,"velocity":65,"hitTime":15824,"closestNoteTime":15840,"hitSuccessfully":true},{"note":46,"velocity":62,"hitTime":16336,"closestNoteTime":16320,"hitSuccessfully":true},{"note":46,"velocity":64,"hitTime":16896,"closestNoteTime":16800,"hitSuccessfully":true},{"note":46,"velocity":65,"hitTime":17536,"closestNoteTime":17280,"hitSuccessfully":true},{"note":38,"velocity":68,"hitTime":18080,"closestNoteTime":18240,"hitSuccessfully":true},{"note":46,"velocity":66,"hitTime":18368,"closestNoteTime":18240,"hitSuccessfully":true},{"note":36,"velocity":46,"hitTime":18432,"closestNoteTime":19200,"hitSuccessfully":false},{"note":46,"velocity":66,"hitTime":19232,"closestNoteTime":19200,"hitSuccessfully":true},{"note":46,"velocity":65,"hitTime":19712,"closestNoteTime":19680,"hitSuccessfully":true},{"note":46,"velocity":66,"hitTime":20304,"closestNoteTime":20160,"hitSuccessfully":true},{"note":38,"velocity":76,"hitTime":20560,"closestNoteTime":20160,"hitSuccessfully":false},{"note":46,"velocity":70,"hitTime":21312,"closestNoteTime":21120,"hitSuccessfully":true},{"note":46,"velocity":66,"hitTime":21824,"closestNoteTime":21600,"hitSuccessfully":true},{"note":46,"velocity":66,"hitTime":22448,"closestNoteTime":22560,"hitSuccessfully":true},{"note":38,"velocity":68,"hitTime":23056,"closestNoteTime":24000,"hitSuccessfully":false},{"note":38,"velocity":36,"hitTime":23168,"closestNoteTime":24000,"hitSuccessfully":false},{"note":46,"velocity":72,"hitTime":23264,"closestNoteTime":23040,"hitSuccessfully":true},{"note":36,"velocity":60,"hitTime":23264,"closestNoteTime":23040,"hitSuccessfully":true},{"note":36,"velocity":32,"hitTime":23456,"closestNoteTime":24960,"hitSuccessfully":false},{"note":46,"velocity":62,"hitTime":23808,"closestNoteTime":23520,"hitSuccessfully":true},{"note":46,"velocity":64,"hitTime":24288,"closestNoteTime":24000,"hitSuccessfully":true},{"note":46,"velocity":55,"hitTime":24736,"closestNoteTime":24480,"hitSuccessfully":true},{"note":46,"velocity":65,"hitTime":25312,"closestNoteTime":25440,"hitSuccessfully":true},{"note":46,"velocity":55,"hitTime":25728,"closestNoteTime":25920,"hitSuccessfully":true},{"note":38,"velocity":72,"hitTime":26592,"closestNoteTime":25920,"hitSuccessfully":false},{"note":36,"velocity":44,"hitTime":26752,"closestNoteTime":26880,"hitSuccessfully":true},{"note":46,"velocity":75,"hitTime":26832,"closestNoteTime":26880,"hitSuccessfully":true},{"note":36,"velocity":27,"hitTime":26960,"closestNoteTime":28800,"hitSuccessfully":false},{"note":46,"velocity":62,"hitTime":27392,"closestNoteTime":27360,"hitSuccessfully":true},{"note":46,"velocity":66,"hitTime":27904,"closestNoteTime":27840,"hitSuccessfully":true},{"note":46,"velocity":48,"hitTime":28416,"closestNoteTime":28320,"hitSuccessfully":true},{"note":46,"velocity":47,"hitTime":28944,"closestNoteTime":28800,"hitSuccessfully":true},{"note":38,"velocity":85,"hitTime":29344,"closestNoteTime":29760,"hitSuccessfully":false},{"note":36,"velocity":52,"hitTime":29456,"closestNoteTime":28800,"hitSuccessfully":false},{"note":38,"velocity":56,"hitTime":29456,"closestNoteTime":29760,"hitSuccessfully":false},{"note":38,"velocity":17,"hitTime":29568,"closestNoteTime":29760,"hitSuccessfully":true},{"note":36,"velocity":32,"hitTime":29616,"closestNoteTime":28800,"hitSuccessfully":false},{"note":46,"velocity":42,"hitTime":29744,"closestNoteTime":29760,"hitSuccessfully":true},{"note":46,"velocity":66,"hitTime":30288,"closestNoteTime":30240,"hitSuccessfully":true}]}