{"frames":[{"note":46,"velocity":95,"hitTime":88,"closestNoteTime":0,"hitSuccessfully":true},{"note":36,"velocity":48,"hitTime":104,"closestNoteTime":0,"hitSuccessfully":true},{"note":36,"velocity":42,"hitTime":656,"closestNoteTime":1920,"hitSuccessfully":false},{"note":38,"velocity":89,"hitTime":1096,"closestNoteTime":960,"hitSuccessfully":true},{"note":36,"velocity":30,"hitTime":1104,"closestNoteTime":1920,"hitSuccessfully":false},{"note":46,"velocity":105,"hitTime":1456,"closestNoteTime":1440,"hitSuccessfully":true},{"note":46,"velocity":91,"hitTime":1936,"closestNoteTime":1920,"hitSuccessfully":true},{"note":46,"velocity":94,"hitTime":2392,"closestNoteTime":2400,"hitSuccessfully":true},{"note":38,"velocity":88,"hitTime":2832,"closestNoteTime":2880,"hitSuccessfully":true},{"note":36,"velocity":61,"hitTime":2888,"closestNoteTime":3840,"hitSuccessfully":false},{"note":46,"velocity":104,"hitTime":2984,"closestNoteTime":2880,"hitSuccessfully":true},{"note":46,"velocity":97,"hitTime":3408,"closestNoteTime":3360,"hitSuccessfully":true},{"note":46,"velocity":96,"hitTime":3888,"closestNoteTime":3840,"hitSuccessfully":true},{"note":46,"velocity":79,"hitTime":3928,"closestNoteTime":4320,"hitSuccessfully":false},{"note":46,"velocity":91,"hitTime":4360,"closestNoteTime":4320,"hitSuccessfully":true},{"note":46,"velocity":103,"hitTime":4856,"closestNoteTime":4800,"hitSuccessfully":true},{"note":36,"velocity":78,"hitTime":4880,"closestNoteTime":5760,"hitSuccessfully":false},{"note":46,"velocity":87,"hitTime":5296,"closestNoteTime":5280,"hitSuccessfully":true},{"note":46,"velocity":90,"hitTime":5776,"closestNoteTime":5760,"hitSuccessfully":true},{"note":46,"velocity":85,"hitTime":6264,"closestNoteTime":6240,"hitSuccessfully":true},{"note":46,"velocity":100,"hitTime":6760,"closestNoteTime":6720,"hitSuccessfully":true},{"note":38,"velocity":92,"hitTime":6768,"closestNoteTime":6720,"hitSuccessfully":true},{"note":46,"velocity":91,"hitTime":7224,"closestNoteTime":7200,"hitSuccessfully":true},{"note":46,"velocity":60,"hitTime":7264,"closestNoteTime":7680,"hitSuccessfully":false},{"note":46,"velocity":93,"hitTime":7696,"closestNoteTime":7680,"hitSuccessfully":true},{"note":46,"velocity":76,"hitTime":7736,"closestNoteTime":8160,"hitSuccessfully":false},{"note":46,"velocity":91,"hitTime":8192,"closestNoteTime":8160,"hitSuccessfully":true},{"note":36,"velocity":77,"hitTime":8656,"closestNoteTime":9600,"hitSuccessfully":false},{"note":46,"velocity":103,"hitTime":8672,"closestNoteTime":8640,"hitSuccessfully":true},{"note":46,"velocity":91,"hitTime":9152,"closestNoteTime":9120,"hitSuccessfully":true},{"note":46,"velocity":88,"hitTime":9592,"closestNoteTime":9600,"hitSuccessfully":true},{"note":46,"velocity":86,"hitTime":10088,"closestNoteTime":10080,"hitSuccessfully":true},{"note":38,"velocity":92,"hitTime":10560,"closestNoteTime":10560,"hitSuccessfully":true},{"note":46,"velocity":102,"hitTime":10568,"closestNoteTime":10560,"hitSuccessfully":true},{"note":46,"velocity":86,"hitTime":11040,"closestNoteTime":11040,"hitSuccessfully":true},{"note":46,"velocity":104,"hitTime":11480,"closestNoteTime":11520,"hitSuccessfully":true},{"note":36,"velocity":64,"hitTime":11496,"closestNoteTime":11520,"hitSuccessfully":true},{"note":46,"velocity":97,"hitTime":11512,"closestNoteTime":12000,"hitSuccessfully":false},{"note":46,"velocity":91,"hitTime":12000,"closestNoteTime":12000,"hitSuccessfully":true},{"note":38,"velocity":93,"hitTime":12496,"closestNoteTime":12480,"hitSuccessfully":true},{"note":46,"velocity":101,"hitTime":12512,"closestNoteTime":12480,"hitSuccessfully":true},{"note":46,"velocity":93,"hitTime":12968,"closestNoteTime":12960,"hitSuccessfully":true},{"note":36,"velocity":78,"hitTime":13424,"closestNoteTime":13440,"hitSuccessfully":true},{"note":46,"velocity":105,"hitTime":13424,"closestNoteTime":13440,"hitSuccessfully":true},{"note":46,"velocity":89,"hitTime":13944,"closestNoteTime":13920,"hitSuccessfully":true},{"note":46,"velocity":100,"hitTime":14440,"closestNoteTime":14400,"hitSuccessfully":true},{"note":38,"velocity":96,"hitTime":14456,"closestNoteTime":14400,"hitSuccessfully":true},{"note":46,"velocity":83,"hitTime":14480,"closestNoteTime":14880,"hitSuccessfully":false},{"note":46,"velocity":86,"hitTime":14896,"closestNoteTime":14880,"hitSuccessfully":true}]}