{"frames":[{"note":46,"velocity":91,"hitTime":24,"closestNoteTime":0,"hitSuccessfully":true},{"note":36,"velocity":52,"hitTime":88,"closestNoteTime":0,"hitSuccessfully":true},{"note":46,"velocity":89,"hitTime":504,"closestNoteTime":480,"hitSuccessfully":true},{"note":46,"velocity":82,"hitTime":960,"closestNoteTime":960,"hitSuccessfully":true},{"note":46,"velocity":83,"hitTime":1440,"closestNoteTime":1440,"hitSuccessfully":true},{"note":46,"velocity":100,"hitTime":1920,"closestNoteTime":1920,"hitSuccessfully":true},{"note":36,"velocity":46,"hitTime":1952,"closestNoteTime":1920,"hitSuccessfully":true},{"note":46,"velocity":88,"hitTime":2400,"closestNoteTime":2400,"hitSuccessfully":true},{"note":46,"velocity":83,"hitTime":2856,"closestNoteTime":2880,"hitSuccessfully":true},{"note":46,"velocity":88,"hitTime":3368,"closestNoteTime":3360,"hitSuccessfully":true},{"note":46,"velocity":102,"hitTime":3880,"closestNoteTime":3840,"hitSuccessfully":true},{"note":36,"velocity":50,"hitTime":3888,"closestNoteTime":3840,"hitSuccessfully":true},{"note":46,"velocity":88,"hitTime":4328,"closestNoteTime":4320,"hitSuccessfully":true},{"note":46,"velocity":89,"hitTime":4824,"closestNoteTime":4800,"hitSuccessfully":true},{"note":46,"velocity":89,"hitTime":5312,"closestNoteTime":5280,"hitSuccessfully":true},{"note":46,"velocity":100,"hitTime":5792,"closestNoteTime":5760,"hitSuccessfully":true},{"note":36,"velocity":55,"hitTime":5808,"closestNoteTime":5760,"hitSuccessfully":true},{"note":46,"velocity":88,"hitTime":6272,"closestNoteTime":6240,"hitSuccessfully":true},{"note":46,"velocity":83,"hitTime":6744,"closestNoteTime":6720,"hitSuccessfully":true},{"note":46,"velocity":86,"hitTime":7224,"closestNoteTime":7200,"hitSuccessfully":true},{"note":46,"velocity":102,"hitTime":7720,"closestNoteTime":7680,"hitSuccessfully":true},{"note":36,"velocity":65,"hitTime":7720,"closestNoteTime":7680,"hitSuccessfully":true},{"note":46,"velocity":85,"hitTime":8184,"closestNoteTime":8160,"hitSuccessfully":true},{"note":46,"velocity":87,"hitTime":8680,"closestNoteTime":8640,"hitSuccessfully":true},{"note":46,"velocity":90,"hitTime":9160,"closestNoteTime":9120,"hitSuccessfully":true},{"note":46,"velocity":90,"hitTime":9632,"closestNoteTime":9600,"hitSuccessfully":true},{"note":36,"velocity":52,"hitTime":9808,"closestNoteTime":9600,"hitSuccessfully":false},{"note":46,"velocity":91,"hitTime":10128,"closestNoteTime":10080,"hitSuccessfully":true},{"note":46,"velocity":82,"hitTime":10600,"closestNoteTime":10560,"hitSuccessfully":true},{"note":46,"velocity":88,"hitTime":11088,"closestNoteTime":11040,"hitSuccessfully":true},{"note":36,"velocity":61,"hitTime":11560,"closestNoteTime":11520,"hitSuccessfully":true},{"note":46,"velocity":103,"hitTime":11584,"closestNoteTime":11520,"hitSuccessfully":true},{"note":46,"velocity":88,"hitTime":12040,"closestNoteTime":12000,"hitSuccessfully":true},{"note":46,"velocity":87,"hitTime":12512,"closestNoteTime":12480,"hitSuccessfully":true},{"note":46,"velocity":89,"hitTime":12992,"closestNoteTime":12960,"hitSuccessfully":true},{"note":46,"velocity":99,"hitTime":13488,"closestNoteTime":13440,"hitSuccessfully":true},{"note":36,"velocity":59,"hitTime":13488,"closestNoteTime":13440,"hitSuccessfully":true},{"note":46,"velocity":89,"hitTime":13952,"closestNoteTime":13920,"hitSuccessfully":true},{"note":46,"velocity":91,"hitTime":14424,"closestNoteTime":14400,"hitSuccessfully":true},{"note":46,"velocity":94,"hitTime":14904,"closestNoteTime":14880,"hitSuccessfully":true}]}