{"frames":[{"note":36,"velocity":42,"hitTime":96,"closestNoteTime":0,"hitSuccessfully":true},{"note":46,"velocity":97,"hitTime":128,"closestNoteTime":0,"hitSuccessfully":true},{"note":46,"velocity":88,"hitTime":608,"closestNoteTime":480,"hitSuccessfully":true},{"note":46,"velocity":95,"hitTime":1072,"closestNoteTime":960,"hitSuccessfully":true},{"note":38,"velocity":85,"hitTime":1072,"closestNoteTime":960,"hitSuccessfully":true},{"note":46,"velocity":83,"hitTime":1552,"closestNoteTime":1440,"hitSuccessfully":true},{"note":36,"velocity":64,"hitTime":2000,"closestNoteTime":1920,"hitSuccessfully":true},{"note":46,"velocity":94,"hitTime":2032,"closestNoteTime":1920,"hitSuccessfully":true},{"note":46,"velocity":88,"hitTime":2480,"closestNoteTime":2400,"hitSuccessfully":true},{"note":38,"velocity":85,"hitTime":2960,"closestNoteTime":2880,"hitSuccessfully":true},{"note":46,"velocity":87,"hitTime":2960,"closestNoteTime":2880,"hitSuccessfully":true},{"note":46,"velocity":85,"hitTime":3440,"closestNoteTime":3360,"hitSuccessfully":true},{"note":46,"velocity":95,"hitTime":3936,"closestNoteTime":3840,"hitSuccessfully":true},{"note":36,"velocity":55,"hitTime":3952,"closestNoteTime":3840,"hitSuccessfully":true},{"note":46,"velocity":89,"hitTime":4416,"closestNoteTime":4320,"hitSuccessfully":true},{"note":46,"velocity":89,"hitTime":4912,"closestNoteTime":4800,"hitSuccessfully":true},{"note":38,"velocity":82,"hitTime":4912,"closestNoteTime":4800,"hitSuccessfully":true},{"note":46,"velocity":85,"hitTime":5376,"closestNoteTime":5280,"hitSuccessfully":true},{"note":46,"velocity":99,"hitTime":5856,"closestNoteTime":5760,"hitSuccessfully":true},{"note":36,"velocity":51,"hitTime":5904,"closestNoteTime":5760,"hitSuccessfully":true},{"note":46,"velocity":88,"hitTime":6336,"closestNoteTime":6240,"hitSuccessfully":true},{"note":46,"velocity":89,"hitTime":6816,"closestNoteTime":6720,"hitSuccessfully":true},{"note":38,"velocity":82,"hitTime":6848,"closestNoteTime":6720,"hitSuccessfully":true},{"note":46,"velocity":85,"hitTime":7296,"closestNoteTime":7200,"hitSuccessfully":true},{"note":46,"velocity":99,"hitTime":7792,"closestNoteTime":7680,"hitSuccessfully":true},{"note":36,"velocity":44,"hitTime":7840,"closestNoteTime":7680,"hitSuccessfully":true},{"note":46,"velocity":89,"hitTime":8272,"closestNoteTime":8160,"hitSuccessfully":true},{"note":38,"velocity":80,"hitTime":8752,"closestNoteTime":8640,"hitSuccessfully":true},{"note":46,"velocity":93,"hitTime":8752,"closestNoteTime":8640,"hitSuccessfully":true},{"note":46,"velocity":84,"hitTime":9200,"closestNoteTime":9120,"hitSuccessfully":true},{"note":36,"velocity":55,"hitTime":9664,"closestNoteTime":9600,"hitSuccessfully":true},{"note":46,"velocity":98,"hitTime":9680,"closestNoteTime":9600,"hitSuccessfully":true},{"note":46,"velocity":89,"hitTime":10144,"closestNoteTime":10080,"hitSuccessfully":true},{"note":46,"velocity":83,"hitTime":10592,"closestNoteTime":10560,"hitSuccessfully":true},{"note":38,"velocity":82,"hitTime":10656,"closestNoteTime":10560,"hitSuccessfully":true},{"note":46,"velocity":80,"hitTime":11072,"closestNoteTime":11040,"hitSuccessfully":true},{"note":46,"velocity":98,"hitTime":11584,"closestNoteTime":11520,"hitSuccessfully":true},{"note":36,"velocity":61,"hitTime":11648,"closestNoteTime":11520,"hitSuccessfully":true},{"note":46,"velocity":87,"hitTime":12064,"closestNoteTime":12000,"hitSuccessfully":true},{"note":46,"velocity":84,"hitTime":12576,"closestNoteTime":12480,"hitSuccessfully":true},{"note":38,"velocity":82,"hitTime":12608,"closestNoteTime":12480,"hitSuccessfully":true},{"note":46,"velocity":82,"hitTime":13056,"closestNoteTime":12960,"hitSuccessfully":true},{"note":46,"velocity":98,"hitTime":13536,"closestNoteTime":13440,"hitSuccessfully":true},{"note":36,"velocity":48,"hitTime":13600,"closestNoteTime":13440,"hitSuccessfully":true},{"note":46,"velocity":87,"hitTime":14048,"closestNoteTime":13920,"hitSuccessfully":true},{"note":46,"velocity":88,"hitTime":14528,"closestNoteTime":14400,"hitSuccessfully":true},{"note":38,"velocity":82,"hitTime":14560,"closestNoteTime":14400,"hitSuccessfully":true},{"note":46,"velocity":85,"hitTime":14960,"closestNoteTime":14880,"hitSuccessfully":true},{"note":36,"velocity":52,"hitTime":15392,"closestNoteTime":15360,"hitSuccessfully":true},{"note":46,"velocity":93,"hitTime":15472,"closestNoteTime":15360,"hitSuccessfully":true},{"note":46,"velocity":88,"hitTime":15952,"closestNoteTime":15840,"hitSuccessfully":true},{"note":46,"velocity":84,"hitTime":16464,"closestNoteTime":16320,"hitSuccessfully":true},{"note":38,"velocity":84,"hitTime":16480,"closestNoteTime":16320,"hitSuccessfully":true},{"note":46,"velocity":74,"hitTime":16944,"closestNoteTime":16800,"hitSuccessfully":true},{"note":36,"velocity":46,"hitTime":17376,"closestNoteTime":17280,"hitSuccessfully":true},{"note":46,"velocity":94,"hitTime":17424,"closestNoteTime":17280,"hitSuccessfully":true},{"note":46,"velocity":86,"hitTime":17872,"closestNoteTime":17760,"hitSuccessfully":true},{"note":46,"velocity":87,"hitTime":18352,"closestNoteTime":18240,"hitSuccessfully":true},{"note":38,"velocity":82,"hitTime":18384,"closestNoteTime":18240,"hitSuccessfully":true},{"note":46,"velocity":82,"hitTime":18848,"closestNoteTime":18720,"hitSuccessfully":true},{"note":36,"velocity":40,"hitTime":19328,"closestNoteTime":19200,"hitSuccessfully":true},{"note":46,"velocity":99,"hitTime":19376,"closestNoteTime":19200,"hitSuccessfully":true},{"note":46,"velocity":89,"hitTime":19856,"closestNoteTime":19680,"hitSuccessfully":true},{"note":38,"velocity":82,"hitTime":20336,"closestNoteTime":20160,"hitSuccessfully":true},{"note":46,"velocity":96,"hitTime":20368,"closestNoteTime":20160,"hitSuccessfully":true},{"note":46,"velocity":79,"hitTime":20736,"closestNoteTime":20640,"hitSuccessfully":true},{"note":46,"velocity":94,"hitTime":21232,"closestNoteTime":21120,"hitSuccessfully":true},{"note":36,"velocity":42,"hitTime":21232,"closestNoteTime":21120,"hitSuccessfully":true},{"note":46,"velocity":89,"hitTime":21728,"closestNoteTime":21600,"hitSuccessfully":true},{"note":38,"velocity":83,"hitTime":22208,"closestNoteTime":22080,"hitSuccessfully":true},{"note":46,"velocity":93,"hitTime":22240,"closestNoteTime":22080,"hitSuccessfully":true},{"note":46,"velocity":90,"hitTime":22704,"closestNoteTime":22560,"hitSuccessfully":true},{"note":36,"velocity":44,"hitTime":23072,"closestNoteTime":23040,"hitSuccessfully":true},{"note":46,"velocity":96,"hitTime":23184,"closestNoteTime":23040,"hitSuccessfully":true},{"note":46,"velocity":90,"hitTime":23632,"closestNoteTime":23520,"hitSuccessfully":true},{"note":46,"velocity":87,"hitTime":24112,"closestNoteTime":24000,"hitSuccessfully":true},{"note":38,"velocity":82,"hitTime":24144,"closestNoteTime":24000,"hitSuccessfully":true},{"note":46,"velocity":70,"hitTime":24592,"closestNoteTime":24480,"hitSuccessfully":true},{"note":36,"velocity":40,"hitTime":25104,"closestNoteTime":24960,"hitSuccessfully":true},{"note":46,"velocity":94,"hitTime":25104,"closestNoteTime":24960,"hitSuccessfully":true},{"note":46,"velocity":82,"hitTime":25568,"closestNoteTime":25440,"hitSuccessfully":true},{"note":46,"velocity":97,"hitTime":26064,"closestNoteTime":25920,"hitSuccessfully":true},{"note":38,"velocity":84,"hitTime":26096,"closestNoteTime":25920,"hitSuccessfully":true},{"note":38,"velocity":50,"hitTime":26176,"closestNoteTime":27840,"hitSuccessfully":false},{"note":46,"velocity":85,"hitTime":26560,"closestNoteTime":26400,"hitSuccessfully":true},{"note":36,"velocity":52,"hitTime":27040,"closestNoteTime":26880,"hitSuccessfully":true},{"note":46,"velocity":99,"hitTime":27040,"closestNoteTime":26880,"hitSuccessfully":true},{"note":46,"velocity":91,"hitTime":27520,"closestNoteTime":27360,"hitSuccessfully":true},{"note":38,"velocity":82,"hitTime":28000,"closestNoteTime":27840,"hitSuccessfully":true},{"note":46,"velocity":96,"hitTime":28000,"closestNoteTime":27840,"hitSuccessfully":true},{"note":38,"velocity":53,"hitTime":28048,"closestNoteTime":29760,"hitSuccessfully":false},{"note":46,"velocity":88,"hitTime":28480,"closestNoteTime":28320,"hitSuccessfully":true},{"note":46,"velocity":101,"hitTime":28960,"closestNoteTime":28800,"hitSuccessfully":true},{"note":36,"velocity":48,"hitTime":28992,"closestNoteTime":28800,"hitSuccessfully":true},{"note":46,"velocity":89,"hitTime":29424,"closestNoteTime":29280,"hitSuccessfully":true},{"note":38,"velocity":80,"hitTime":29904,"closestNoteTime":29760,"hitSuccessfully":true},{"note":46,"velocity":94,"hitTime":29920,"closestNoteTime":29760,"hitSuccessfully":true},{"note":38,"velocity":58,"hitTime":29984,"closestNoteTime":0,"hitSuccessfully":false}]}