{
  "frames": [
    {
      "note": 36,
      "velocity": 30,
      "hitTime": -16,
      "closestNoteTime": 0,
      "hitSuccessfully": true
    },
    {
      "note": 46,
      "velocity": 76,
      "hitTime": -7,
      "closestNoteTime": 0,
      "hitSuccessfully": true
    },
    {
      "note": 46,
      "velocity": 60,
      "hitTime": 485,
      "closestNoteTime": 480,
      "hitSuccessfully": true
    },
    {
      "note": 38,
      "velocity": 82,
      "hitTime": 946,
      "closestNoteTime": 960,
      "hitSuccessfully": true
    },
    {
      "note": 46,
      "velocity": 67,
      "hitTime": 946,
      "closestNoteTime": 960,
      "hitSuccessfully": true
    },
    {
      "note": 46,
      "velocity": 66,
      "hitTime": 1465,
      "closestNoteTime": 1440,
      "hitSuccessfully": true
    },
    {
      "note": 36,
      "velocity": 43,
      "hitTime": 1899,
      "closestNoteTime": 1920,
      "hitSuccessfully": true
    },
    {
      "note": 46,
      "velocity": 82,
      "hitTime": 1928,
      "closestNoteTime": 1920,
      "hitSuccessfully": true
    },
    {
      "note": 46,
      "velocity": 58,
      "hitTime": 2441,
      "closestNoteTime": 2400,
      "hitSuccessfully": true
    },
    {
      "note": 38,
      "velocity": 79,
      "hitTime": 2922,
      "closestNoteTime": 2880,
      "hitSuccessfully": true
    },
    {
      "note": 46,
      "velocity": 77,
      "hitTime": 2933,
      "closestNoteTime": 2880,
      "hitSuccessfully": true
    },
    {
      "note": 46,
      "velocity": 55,
      "hitTime": 3434,
      "closestNoteTime": 3360,
      "hitSuccessfully": true
    },
    {
      "note": 36,
      "velocity": 26,
      "hitTime": 3875,
      "closestNoteTime": 3840,
      "hitSuccessfully": true
    },
    {
      "note": 46,
      "velocity": 76,
      "hitTime": 3890,
      "closestNoteTime": 3840,
      "hitSuccessfully": true
    },
    {
      "note": 46,
      "velocity": 56,
      "hitTime": 4376,
      "closestNoteTime": 4320,
      "hitSuccessfully": true
    },
    {
      "note": 46,
      "velocity": 79,
      "hitTime": 4848,
      "closestNoteTime": 4800,
      "hitSuccessfully": true
    },
    {
      "note": 38,
      "velocity": 82,
      "hitTime": 4856,
      "closestNoteTime": 4800,
      "hitSuccessfully": true
    },
    {
      "note": 46,
      "velocity": 58,
      "hitTime": 5318,
      "closestNoteTime": 5280,
      "hitSuccessfully": true
    },
    {
      "note": 46,
      "velocity": 82,
      "hitTime": 5789,
      "closestNoteTime": 5760,
      "hitSuccessfully": true
    },
    {
      "note": 36,
      "velocity": 30,
      "hitTime": 5790,
      "closestNoteTime": 5760,
      "hitSuccessfully": true
    },
    {
      "note": 46,
      "velocity": 60,
      "hitTime": 6239,
      "closestNoteTime": 6240,
      "hitSuccessfully": true
    },
    {
      "note": 46,
      "velocity": 77,
      "hitTime": 6742,
      "closestNoteTime": 6720,
      "hitSuccessfully": true
    },
    {
      "note": 38,
      "velocity": 82,
      "hitTime": 6764,
      "closestNoteTime": 6720,
      "hitSuccessfully": true
    },
    {
      "note": 46,
      "velocity": 60,
      "hitTime": 7244,
      "closestNoteTime": 7200,
      "hitSuccessfully": true
    },
    {
      "note": 36,
      "velocity": 36,
      "hitTime": 7705,
      "closestNoteTime": 7680,
      "hitSuccessfully": true
    },
    {
      "note": 46,
      "velocity": 79,
      "hitTime": 7714,
      "closestNoteTime": 7680,
      "hitSuccessfully": true
    },
    {
      "note": 46,
      "velocity": 60,
      "hitTime": 8186,
      "closestNoteTime": 8160,
      "hitSuccessfully": true
    },
    {
      "note": 46,
      "velocity": 77,
      "hitTime": 8679,
      "closestNoteTime": 8640,
      "hitSuccessfully": true
    },
    {
      "note": 38,
      "velocity": 78,
      "hitTime": 8679,
      "closestNoteTime": 8640,
      "hitSuccessfully": true
    },
    {
      "note": 46,
      "velocity": 56,
      "hitTime": 9160,
      "closestNoteTime": 9120,
      "hitSuccessfully": true
    },
    {
      "note": 46,
      "velocity": 77,
      "hitTime": 9609,
      "closestNoteTime": 9600,
      "hitSuccessfully": true
    },
    {
      "note": 36,
      "velocity": 36,
      "hitTime": 9620,
      "closestNoteTime": 9600,
      "hitSuccessfully": true
    },
    {
      "note": 46,
      "velocity": 62,
      "hitTime": 10081,
      "closestNoteTime": 10080,
      "hitSuccessfully": true
    },
    {
      "note": 46,
      "velocity": 76,
      "hitTime": 10569,
      "closestNoteTime": 10560,
      "hitSuccessfully": true
    },
    {
      "note": 38,
      "velocity": 82,
      "hitTime": 10591,
      "closestNoteTime": 10560,
      "hitSuccessfully": true
    },
    {
      "note": 46,
      "velocity": 60,
      "hitTime": 11052,
      "closestNoteTime": 11040,
      "hitSuccessfully": true
    },
    {
      "note": 36,
      "velocity": 34,
      "hitTime": 11504,
      "closestNoteTime": 11520,
      "hitSuccessfully": true
    },
    {
      "note": 46,
      "velocity": 77,
      "hitTime": 11511,
      "closestNoteTime": 11520,
      "hitSuccessfully": true
    },
    {
      "note": 46,
      "velocity": 58,
      "hitTime": 11985,
      "closestNoteTime": 12000,
      "hitSuccessfully": true
    },
    {
      "note": 38,
      "velocity": 82,
      "hitTime": 12466,
      "closestNoteTime": 12480,
      "hitSuccessfully": true
    },
    {
      "note": 46,
      "velocity": 77,
      "hitTime": 12466,
      "closestNoteTime": 12480,
      "hitSuccessfully": true
    },
    {
      "note": 46,
      "velocity": 62,
      "hitTime": 12979,
      "closestNoteTime": 12960,
      "hitSuccessfully": true
    },
    {
      "note": 36,
      "velocity": 39,
      "hitTime": 13460,
      "closestNoteTime": 13440,
      "hitSuccessfully": true
    },
    {
      "note": 46,
      "velocity": 80,
      "hitTime": 13460,
      "closestNoteTime": 13440,
      "hitSuccessfully": true
    },
    {
      "note": 46,
      "velocity": 60,
      "hitTime": 13959,
      "closestNoteTime": 13920,
      "hitSuccessfully": true
    },
    {
      "note": 46,
      "velocity": 73,
      "hitTime": 14442,
      "closestNoteTime": 14400,
      "hitSuccessfully": true
    }
  ]
}