{"frames":[{"note":46,"velocity":28,"hitTime":-4608,"closestNoteTime":0,"hitSuccessfully":false},{"note":46,"velocity":62,"hitTime":-8,"closestNoteTime":0,"hitSuccessfully":true},{"note":46,"velocity":66,"hitTime":480,"closestNoteTime":480,"hitSuccessfully":true},{"note":46,"velocity":67,"hitTime":968,"closestNoteTime":960,"hitSuccessfully":true},{"note":46,"velocity":70,"hitTime":1464,"closestNoteTime":1440,"hitSuccessfully":true},{"note":46,"velocity":70,"hitTime":1952,"closestNoteTime":1920,"hitSuccessfully":true},{"note":46,"velocity":67,"hitTime":2416,"closestNoteTime":2400,"hitSuccessfully":true},{"note":46,"velocity":72,"hitTime":2896,"closestNoteTime":2880,"hitSuccessfully":true},{"note":46,"velocity":65,"hitTime":3384,"closestNoteTime":3360,"hitSuccessfully":true},{"note":46,"velocity":72,"hitTime":3880,"closestNoteTime":3840,"hitSuccessfully":true},{"note":46,"velocity":76,"hitTime":4344,"closestNoteTime":4320,"hitSuccessfully":true},{"note":46,"velocity":74,"hitTime":4824,"closestNoteTime":4800,"hitSuccessfully":true},{"note":46,"velocity":76,"hitTime":5312,"closestNoteTime":5280,"hitSuccessfully":true},{"note":46,"velocity":74,"hitTime":5792,"closestNoteTime":5760,"hitSuccessfully":true},{"note":46,"velocity":70,"hitTime":6288,"closestNoteTime":6240,"hitSuccessfully":true},{"note":46,"velocity":66,"hitTime":6768,"closestNoteTime":6720,"hitSuccessfully":true},{"note":46,"velocity":72,"hitTime":7240,"closestNoteTime":7200,"hitSuccessfully":true},{"note":46,"velocity":73,"hitTime":7736,"closestNoteTime":7680,"hitSuccessfully":true},{"note":46,"velocity":73,"hitTime":8200,"closestNoteTime":8160,"hitSuccessfully":true},{"note":46,"velocity":72,"hitTime":8680,"closestNoteTime":8640,"hitSuccessfully":true},{"note":46,"velocity":65,"hitTime":9168,"closestNoteTime":9120,"hitSuccessfully":true},{"note":46,"velocity":74,"hitTime":9648,"closestNoteTime":9600,"hitSuccessfully":true},{"note":46,"velocity":76,"hitTime":10128,"closestNoteTime":10080,"hitSuccessfully":true},{"note":46,"velocity":76,"hitTime":10600,"closestNoteTime":10560,"hitSuccessfully":true},{"note":46,"velocity":72,"hitTime":11096,"closestNoteTime":11040,"hitSuccessfully":true},{"note":46,"velocity":74,"hitTime":11576,"closestNoteTime":11520,"hitSuccessfully":true},{"note":46,"velocity":72,"hitTime":12056,"closestNoteTime":12000,"hitSuccessfully":true},{"note":46,"velocity":77,"hitTime":12536,"closestNoteTime":12480,"hitSuccessfully":true},{"note":46,"velocity":74,"hitTime":13032,"closestNoteTime":12960,"hitSuccessfully":true},{"note":46,"velocity":70,"hitTime":13512,"closestNoteTime":13440,"hitSuccessfully":true},{"note":46,"velocity":70,"hitTime":13968,"closestNoteTime":13920,"hitSuccessfully":true},{"note":46,"velocity":70,"hitTime":14456,"closestNoteTime":14400,"hitSuccessfully":true},{"note":46,"velocity":74,"hitTime":14960,"closestNoteTime":14880,"hitSuccessfully":true}]}