{"frames":[{"note":36,"velocity":46,"hitTime":64,"closestNoteTime":0,"hitSuccessfully":true},{"note":46,"velocity":99,"hitTime":128,"closestNoteTime":0,"hitSuccessfully":true},{"note":46,"velocity":88,"hitTime":608,"closestNoteTime":480,"hitSuccessfully":true},{"note":38,"velocity":86,"hitTime":1088,"closestNoteTime":960,"hitSuccessfully":true},{"note":46,"velocity":99,"hitTime":1120,"closestNoteTime":960,"hitSuccessfully":true},{"note":38,"velocity":61,"hitTime":1168,"closestNoteTime":2880,"hitSuccessfully":false},{"note":46,"velocity":77,"hitTime":1616,"closestNoteTime":1440,"hitSuccessfully":true},{"note":36,"velocity":66,"hitTime":2048,"closestNoteTime":1920,"hitSuccessfully":true},{"note":46,"velocity":97,"hitTime":2112,"closestNoteTime":1920,"hitSuccessfully":true},{"note":46,"velocity":85,"hitTime":2528,"closestNoteTime":2400,"hitSuccessfully":true},{"note":38,"velocity":84,"hitTime":3008,"closestNoteTime":2880,"hitSuccessfully":true},{"note":46,"velocity":91,"hitTime":3008,"closestNoteTime":2880,"hitSuccessfully":true},{"note":38,"velocity":58,"hitTime":3088,"closestNoteTime":4800,"hitSuccessfully":false},{"note":46,"velocity":82,"hitTime":3472,"closestNoteTime":3360,"hitSuccessfully":true},{"note":46,"velocity":97,"hitTime":3984,"closestNoteTime":3840,"hitSuccessfully":true},{"note":36,"velocity":65,"hitTime":4032,"closestNoteTime":3840,"hitSuccessfully":true},{"note":46,"velocity":82,"hitTime":4464,"closestNoteTime":4320,"hitSuccessfully":true},{"note":46,"velocity":93,"hitTime":4976,"closestNoteTime":4800,"hitSuccessfully":true},{"note":38,"velocity":82,"hitTime":4976,"closestNoteTime":4800,"hitSuccessfully":true},{"note":46,"velocity":79,"hitTime":5456,"closestNoteTime":5280,"hitSuccessfully":true},{"note":36,"velocity":54,"hitTime":5904,"closestNoteTime":5760,"hitSuccessfully":true},{"note":46,"velocity":95,"hitTime":5936,"closestNoteTime":5760,"hitSuccessfully":true},{"note":46,"velocity":86,"hitTime":6416,"closestNoteTime":6240,"hitSuccessfully":true},{"note":46,"velocity":89,"hitTime":6864,"closestNoteTime":6720,"hitSuccessfully":true},{"note":38,"velocity":83,"hitTime":6896,"closestNoteTime":6720,"hitSuccessfully":true},{"note":38,"velocity":52,"hitTime":6976,"closestNoteTime":8640,"hitSuccessfully":false},{"note":46,"velocity":80,"hitTime":7360,"closestNoteTime":7200,"hitSuccessfully":true},{"note":46,"velocity":97,"hitTime":7840,"closestNoteTime":7680,"hitSuccessfully":true},{"note":36,"velocity":58,"hitTime":7840,"closestNoteTime":7680,"hitSuccessfully":true},{"note":46,"velocity":85,"hitTime":8256,"closestNoteTime":8160,"hitSuccessfully":true},{"note":38,"velocity":86,"hitTime":8800,"closestNoteTime":8640,"hitSuccessfully":true},{"note":46,"velocity":94,"hitTime":8800,"closestNoteTime":8640,"hitSuccessfully":true},{"note":46,"velocity":80,"hitTime":9328,"closestNoteTime":9120,"hitSuccessfully":true},{"note":46,"velocity":100,"hitTime":9824,"closestNoteTime":9600,"hitSuccessfully":true},{"note":36,"velocity":58,"hitTime":9840,"closestNoteTime":9600,"hitSuccessfully":true},{"note":46,"velocity":88,"hitTime":10304,"closestNoteTime":10080,"hitSuccessfully":true},{"note":46,"velocity":86,"hitTime":10704,"closestNoteTime":10560,"hitSuccessfully":true},{"note":38,"velocity":83,"hitTime":10752,"closestNoteTime":10560,"hitSuccessfully":true},{"note":46,"velocity":77,"hitTime":11184,"closestNoteTime":11040,"hitSuccessfully":true},{"note":46,"velocity":96,"hitTime":11696,"closestNoteTime":11520,"hitSuccessfully":true},{"note":36,"velocity":58,"hitTime":11712,"closestNoteTime":11520,"hitSuccessfully":true},{"note":46,"velocity":85,"hitTime":12144,"closestNoteTime":12000,"hitSuccessfully":true},{"note":38,"velocity":82,"hitTime":12624,"closestNoteTime":12480,"hitSuccessfully":true},{"note":46,"velocity":88,"hitTime":12624,"closestNoteTime":12480,"hitSuccessfully":true},{"note":38,"velocity":50,"hitTime":12704,"closestNoteTime":14400,"hitSuccessfully":false},{"note":46,"velocity":83,"hitTime":13088,"closestNoteTime":12960,"hitSuccessfully":true},{"note":46,"velocity":99,"hitTime":13584,"closestNoteTime":13440,"hitSuccessfully":true},{"note":36,"velocity":64,"hitTime":13584,"closestNoteTime":13440,"hitSuccessfully":true},{"note":46,"velocity":86,"hitTime":14048,"closestNoteTime":13920,"hitSuccessfully":true},{"note":38,"velocity":85,"hitTime":14528,"closestNoteTime":14400,"hitSuccessfully":true},{"note":46,"velocity":91,"hitTime":14560,"closestNoteTime":14400,"hitSuccessfully":true},{"note":46,"velocity":82,"hitTime":15008,"closestNoteTime":14880,"hitSuccessfully":true},{"note":36,"velocity":55,"hitTime":15488,"closestNoteTime":15360,"hitSuccessfully":true},{"note":46,"velocity":98,"hitTime":15488,"closestNoteTime":15360,"hitSuccessfully":true},{"note":46,"velocity":83,"hitTime":15952,"closestNoteTime":15840,"hitSuccessfully":true},{"note":38,"velocity":86,"hitTime":16448,"closestNoteTime":16320,"hitSuccessfully":true},{"note":46,"velocity":97,"hitTime":16512,"closestNoteTime":16320,"hitSuccessfully":true},{"note":38,"velocity":54,"hitTime":16528,"closestNoteTime":18240,"hitSuccessfully":false},{"note":46,"velocity":79,"hitTime":16992,"closestNoteTime":16800,"hitSuccessfully":true},{"note":36,"velocity":51,"hitTime":17472,"closestNoteTime":17280,"hitSuccessfully":true},{"note":46,"velocity":98,"hitTime":17472,"closestNoteTime":17280,"hitSuccessfully":true},{"note":46,"velocity":83,"hitTime":17952,"closestNoteTime":17760,"hitSuccessfully":true},{"note":38,"velocity":84,"hitTime":18416,"closestNoteTime":18240,"hitSuccessfully":true},{"note":46,"velocity":95,"hitTime":18432,"closestNoteTime":18240,"hitSuccessfully":true},{"note":38,"velocity":53,"hitTime":18496,"closestNoteTime":20160,"hitSuccessfully":false},{"note":46,"velocity":75,"hitTime":18864,"closestNoteTime":18720,"hitSuccessfully":true},{"note":46,"velocity":94,"hitTime":19312,"closestNoteTime":19200,"hitSuccessfully":true},{"note":36,"velocity":52,"hitTime":19344,"closestNoteTime":19200,"hitSuccessfully":true},{"note":46,"velocity":88,"hitTime":19776,"closestNoteTime":19680,"hitSuccessfully":true},{"note":38,"velocity":78,"hitTime":20304,"closestNoteTime":20160,"hitSuccessfully":true},{"note":46,"velocity":93,"hitTime":20304,"closestNoteTime":20160,"hitSuccessfully":true},{"note":46,"velocity":84,"hitTime":20800,"closestNoteTime":20640,"hitSuccessfully":true},{"note":46,"velocity":97,"hitTime":21296,"closestNoteTime":21120,"hitSuccessfully":true},{"note":46,"velocity":85,"hitTime":21760,"closestNoteTime":21600,"hitSuccessfully":true},{"note":36,"velocity":52,"hitTime":22160,"closestNoteTime":23040,"hitSuccessfully":false},{"note":46,"velocity":93,"hitTime":22208,"closestNoteTime":22080,"hitSuccessfully":true},{"note":38,"velocity":79,"hitTime":22240,"closestNoteTime":22080,"hitSuccessfully":true},{"note":46,"velocity":77,"hitTime":22688,"closestNoteTime":22560,"hitSuccessfully":true},{"note":46,"velocity":99,"hitTime":23200,"closestNoteTime":23040,"hitSuccessfully":true},{"note":46,"velocity":88,"hitTime":23680,"closestNoteTime":23520,"hitSuccessfully":true},{"note":46,"velocity":94,"hitTime":24160,"closestNoteTime":24000,"hitSuccessfully":true},{"note":38,"velocity":82,"hitTime":24160,"closestNoteTime":24000,"hitSuccessfully":true},{"note":36,"velocity":38,"hitTime":24160,"closestNoteTime":24960,"hitSuccessfully":false},{"note":46,"velocity":80,"hitTime":24672,"closestNoteTime":24480,"hitSuccessfully":true},{"note":46,"velocity":93,"hitTime":25136,"closestNoteTime":24960,"hitSuccessfully":true},{"note":46,"velocity":88,"hitTime":25616,"closestNoteTime":25440,"hitSuccessfully":true},{"note":38,"velocity":89,"hitTime":26064,"closestNoteTime":25920,"hitSuccessfully":true},{"note":46,"velocity":97,"hitTime":26064,"closestNoteTime":25920,"hitSuccessfully":true},{"note":38,"velocity":58,"hitTime":26144,"closestNoteTime":27840,"hitSuccessfully":false},{"note":46,"velocity":79,"hitTime":26576,"closestNoteTime":26400,"hitSuccessfully":true},{"note":36,"velocity":60,"hitTime":27008,"closestNoteTime":26880,"hitSuccessfully":true},{"note":46,"velocity":93,"hitTime":27040,"closestNoteTime":26880,"hitSuccessfully":true},{"note":46,"velocity":87,"hitTime":27488,"closestNoteTime":27360,"hitSuccessfully":true},{"note":38,"velocity":84,"hitTime":28000,"closestNoteTime":27840,"hitSuccessfully":true},{"note":46,"velocity":95,"hitTime":28000,"closestNoteTime":27840,"hitSuccessfully":true},{"note":46,"velocity":85,"hitTime":28512,"closestNoteTime":28320,"hitSuccessfully":true},{"note":36,"velocity":44,"hitTime":28992,"closestNoteTime":28800,"hitSuccessfully":true},{"note":46,"velocity":99,"hitTime":29008,"closestNoteTime":28800,"hitSuccessfully":true},{"note":46,"velocity":88,"hitTime":29472,"closestNoteTime":29280,"hitSuccessfully":true},{"note":38,"velocity":85,"hitTime":29920,"closestNoteTime":29760,"hitSuccessfully":true},{"note":46,"velocity":97,"hitTime":29952,"closestNoteTime":29760,"hitSuccessfully":true},{"note":38,"velocity":60,"hitTime":29984,"closestNoteTime":0,"hitSuccessfully":false},{"note":46,"velocity":82,"hitTime":30384,"closestNoteTime":30240,"hitSuccessfully":true}]}