{"frames":[{"note":46,"velocity":60,"hitTime":960,"closestNoteTime":960,"hitSuccessfully":true},{"note":46,"velocity":74,"hitTime":1744,"closestNoteTime":1920,"hitSuccessfully":true},{"note":36,"velocity":27,"hitTime":1872,"closestNoteTime":1920,"hitSuccessfully":true},{"note":46,"velocity":70,"hitTime":2752,"closestNoteTime":2880,"hitSuccessfully":true},{"note":36,"velocity":25,"hitTime":2816,"closestNoteTime":3840,"hitSuccessfully":false},{"note":36,"velocity":30,"hitTime":3696,"closestNoteTime":3840,"hitSuccessfully":true},{"note":46,"velocity":65,"hitTime":5296,"closestNoteTime":5280,"hitSuccessfully":true},{"note":46,"velocity":64,"hitTime":6016,"closestNoteTime":5760,"hitSuccessfully":true},{"note":46,"velocity":72,"hitTime":6608,"closestNoteTime":6720,"hitSuccessfully":true},{"note":36,"velocity":40,"hitTime":7120,"closestNoteTime":7680,"hitSuccessfully":false},{"note":36,"velocity":21,"hitTime":7360,"closestNoteTime":7680,"hitSuccessfully":false},{"note":46,"velocity":56,"hitTime":8320,"closestNoteTime":8160,"hitSuccessfully":true},{"note":46,"velocity":66,"hitTime":9184,"closestNoteTime":9120,"hitSuccessfully":true},{"note":46,"velocity":70,"hitTime":10016,"closestNoteTime":10080,"hitSuccessfully":true},{"note":46,"velocity":65,"hitTime":10656,"closestNoteTime":10560,"hitSuccessfully":true},{"note":36,"velocity":28,"hitTime":11248,"closestNoteTime":11520,"hitSuccessfully":true},{"note":46,"velocity":65,"hitTime":12208,"closestNoteTime":12000,"hitSuccessfully":true},{"note":46,"velocity":62,"hitTime":13088,"closestNoteTime":12960,"hitSuccessfully":true},{"note":46,"velocity":67,"hitTime":13952,"closestNoteTime":13920,"hitSuccessfully":true},{"note":46,"velocity":76,"hitTime":14720,"closestNoteTime":14880,"hitSuccessfully":true},{"note":36,"velocity":55,"hitTime":14800,"closestNoteTime":15360,"hitSuccessfully":false},{"note":46,"velocity":65,"hitTime":15712,"closestNoteTime":15840,"hitSuccessfully":true},{"note":46,"velocity":62,"hitTime":16592,"closestNoteTime":16320,"hitSuccessfully":true},{"note":46,"velocity":66,"hitTime":17424,"closestNoteTime":17280,"hitSuccessfully":true},{"note":36,"velocity":43,"hitTime":18304,"closestNoteTime":19200,"hitSuccessfully":false},{"note":46,"velocity":67,"hitTime":19296,"closestNoteTime":19200,"hitSuccessfully":true},{"note":46,"velocity":70,"hitTime":20208,"closestNoteTime":20160,"hitSuccessfully":true},{"note":46,"velocity":72,"hitTime":21168,"closestNoteTime":21120,"hitSuccessfully":true},{"note":36,"velocity":47,"hitTime":22080,"closestNoteTime":21120,"hitSuccessfully":false},{"note":46,"velocity":67,"hitTime":23024,"closestNoteTime":23040,"hitSuccessfully":true},{"note":46,"velocity":66,"hitTime":24016,"closestNoteTime":24000,"hitSuccessfully":true},{"note":46,"velocity":72,"hitTime":24896,"closestNoteTime":24960,"hitSuccessfully":true},{"note":46,"velocity":74,"hitTime":25888,"closestNoteTime":25920,"hitSuccessfully":true},{"note":36,"velocity":52,"hitTime":25968,"closestNoteTime":26880,"hitSuccessfully":false},{"note":46,"velocity":73,"hitTime":26960,"closestNoteTime":26880,"hitSuccessfully":true},{"note":46,"velocity":66,"hitTime":27872,"closestNoteTime":27840,"hitSuccessfully":true},{"note":46,"velocity":77,"hitTime":28800,"closestNoteTime":28800,"hitSuccessfully":true},{"note":46,"velocity":55,"hitTime":30176,"closestNoteTime":30240,"hitSuccessfully":true}]}