{"frames":[{"note":46,"velocity":13,"hitTime":-760,"closestNoteTime":0,"hitSuccessfully":false},{"note":46,"velocity":99,"hitTime":88,"closestNoteTime":0,"hitSuccessfully":true},{"note":36,"velocity":66,"hitTime":96,"closestNoteTime":0,"hitSuccessfully":true},{"note":46,"velocity":91,"hitTime":568,"closestNoteTime":480,"hitSuccessfully":true},{"note":46,"velocity":93,"hitTime":1048,"closestNoteTime":960,"hitSuccessfully":true},{"note":46,"velocity":93,"hitTime":1520,"closestNoteTime":1440,"hitSuccessfully":true},{"note":36,"velocity":64,"hitTime":1984,"closestNoteTime":1920,"hitSuccessfully":true},{"note":46,"velocity":108,"hitTime":1984,"closestNoteTime":1920,"hitSuccessfully":true},{"note":46,"velocity":93,"hitTime":2456,"closestNoteTime":2400,"hitSuccessfully":true},{"note":46,"velocity":87,"hitTime":2936,"closestNoteTime":2880,"hitSuccessfully":true},{"note":46,"velocity":93,"hitTime":3416,"closestNoteTime":3360,"hitSuccessfully":true},{"note":46,"velocity":110,"hitTime":3928,"closestNoteTime":3840,"hitSuccessfully":true},{"note":36,"velocity":67,"hitTime":3944,"closestNoteTime":3840,"hitSuccessfully":true},{"note":46,"velocity":99,"hitTime":4408,"closestNoteTime":4320,"hitSuccessfully":true},{"note":46,"velocity":93,"hitTime":4896,"closestNoteTime":4800,"hitSuccessfully":true},{"note":46,"velocity":70,"hitTime":4920,"closestNoteTime":5280,"hitSuccessfully":false},{"note":46,"velocity":95,"hitTime":5344,"closestNoteTime":5280,"hitSuccessfully":true},{"note":36,"velocity":66,"hitTime":5816,"closestNoteTime":5760,"hitSuccessfully":true},{"note":46,"velocity":110,"hitTime":5832,"closestNoteTime":5760,"hitSuccessfully":true},{"note":46,"velocity":94,"hitTime":6296,"closestNoteTime":6240,"hitSuccessfully":true},{"note":46,"velocity":93,"hitTime":6792,"closestNoteTime":6720,"hitSuccessfully":true},{"note":46,"velocity":67,"hitTime":6832,"closestNoteTime":7200,"hitSuccessfully":false},{"note":46,"velocity":97,"hitTime":7272,"closestNoteTime":7200,"hitSuccessfully":true},{"note":46,"velocity":110,"hitTime":7768,"closestNoteTime":7680,"hitSuccessfully":true},{"note":36,"velocity":72,"hitTime":7768,"closestNoteTime":7680,"hitSuccessfully":true},{"note":46,"velocity":93,"hitTime":8224,"closestNoteTime":8160,"hitSuccessfully":true},{"note":46,"velocity":91,"hitTime":8704,"closestNoteTime":8640,"hitSuccessfully":true},{"note":46,"velocity":94,"hitTime":9184,"closestNoteTime":9120,"hitSuccessfully":true},{"note":46,"velocity":107,"hitTime":9672,"closestNoteTime":9600,"hitSuccessfully":true},{"note":36,"velocity":72,"hitTime":9672,"closestNoteTime":9600,"hitSuccessfully":true},{"note":46,"velocity":93,"hitTime":10128,"closestNoteTime":10080,"hitSuccessfully":true},{"note":46,"velocity":90,"hitTime":10624,"closestNoteTime":10560,"hitSuccessfully":true},{"note":46,"velocity":91,"hitTime":11072,"closestNoteTime":11040,"hitSuccessfully":true},{"note":36,"velocity":72,"hitTime":11544,"closestNoteTime":11520,"hitSuccessfully":true},{"note":46,"velocity":109,"hitTime":11560,"closestNoteTime":11520,"hitSuccessfully":true},{"note":46,"velocity":91,"hitTime":12040,"closestNoteTime":12000,"hitSuccessfully":true},{"note":46,"velocity":70,"hitTime":12064,"closestNoteTime":12480,"hitSuccessfully":false},{"note":46,"velocity":93,"hitTime":12520,"closestNoteTime":12480,"hitSuccessfully":true},{"note":46,"velocity":96,"hitTime":13000,"closestNoteTime":12960,"hitSuccessfully":true},{"note":46,"velocity":73,"hitTime":13032,"closestNoteTime":13440,"hitSuccessfully":false},{"note":46,"velocity":110,"hitTime":13512,"closestNoteTime":13440,"hitSuccessfully":true},{"note":36,"velocity":76,"hitTime":13528,"closestNoteTime":13440,"hitSuccessfully":true},{"note":46,"velocity":91,"hitTime":13984,"closestNoteTime":13920,"hitSuccessfully":true},{"note":46,"velocity":93,"hitTime":14464,"closestNoteTime":14400,"hitSuccessfully":true},{"note":46,"velocity":95,"hitTime":14920,"closestNoteTime":14880,"hitSuccessfully":true}]}