{"frames":[{"note":46,"velocity":75,"hitTime":56,"closestNoteTime":0,"hitSuccessfully":true},{"note":46,"velocity":73,"hitTime":536,"closestNoteTime":480,"hitSuccessfully":true},{"note":38,"velocity":64,"hitTime":1000,"closestNoteTime":960,"hitSuccessfully":true},{"note":46,"velocity":82,"hitTime":1000,"closestNoteTime":960,"hitSuccessfully":true},{"note":38,"velocity":37,"hitTime":1040,"closestNoteTime":2880,"hitSuccessfully":false},{"note":46,"velocity":76,"hitTime":1488,"closestNoteTime":1440,"hitSuccessfully":true},{"note":46,"velocity":76,"hitTime":1968,"closestNoteTime":1920,"hitSuccessfully":true},{"note":46,"velocity":72,"hitTime":2464,"closestNoteTime":2400,"hitSuccessfully":true},{"note":46,"velocity":82,"hitTime":2928,"closestNoteTime":2880,"hitSuccessfully":true},{"note":38,"velocity":64,"hitTime":2944,"closestNoteTime":2880,"hitSuccessfully":true},{"note":38,"velocity":21,"hitTime":3000,"closestNoteTime":4800,"hitSuccessfully":false},{"note":46,"velocity":73,"hitTime":3424,"closestNoteTime":3360,"hitSuccessfully":true},{"note":46,"velocity":79,"hitTime":3920,"closestNoteTime":3840,"hitSuccessfully":true},{"note":46,"velocity":73,"hitTime":4392,"closestNoteTime":4320,"hitSuccessfully":true},{"note":46,"velocity":82,"hitTime":4872,"closestNoteTime":4800,"hitSuccessfully":true},{"note":38,"velocity":68,"hitTime":4872,"closestNoteTime":4800,"hitSuccessfully":true},{"note":46,"velocity":75,"hitTime":5352,"closestNoteTime":5280,"hitSuccessfully":true},{"note":46,"velocity":75,"hitTime":5808,"closestNoteTime":5760,"hitSuccessfully":true},{"note":46,"velocity":65,"hitTime":6288,"closestNoteTime":6240,"hitSuccessfully":true},{"note":46,"velocity":82,"hitTime":6776,"closestNoteTime":6720,"hitSuccessfully":true},{"note":38,"velocity":66,"hitTime":6784,"closestNoteTime":6720,"hitSuccessfully":true},{"note":46,"velocity":60,"hitTime":7256,"closestNoteTime":7200,"hitSuccessfully":true},{"note":46,"velocity":73,"hitTime":7736,"closestNoteTime":7680,"hitSuccessfully":true},{"note":46,"velocity":67,"hitTime":8216,"closestNoteTime":8160,"hitSuccessfully":true},{"note":46,"velocity":82,"hitTime":8688,"closestNoteTime":8640,"hitSuccessfully":true},{"note":38,"velocity":66,"hitTime":8704,"closestNoteTime":8640,"hitSuccessfully":true},{"note":46,"velocity":79,"hitTime":9184,"closestNoteTime":9120,"hitSuccessfully":true},{"note":46,"velocity":77,"hitTime":9664,"closestNoteTime":9600,"hitSuccessfully":true},{"note":46,"velocity":76,"hitTime":10136,"closestNoteTime":10080,"hitSuccessfully":true},{"note":46,"velocity":85,"hitTime":10600,"closestNoteTime":10560,"hitSuccessfully":true},{"note":38,"velocity":74,"hitTime":10600,"closestNoteTime":10560,"hitSuccessfully":true},{"note":46,"velocity":72,"hitTime":11112,"closestNoteTime":11040,"hitSuccessfully":true},{"note":46,"velocity":79,"hitTime":11552,"closestNoteTime":11520,"hitSuccessfully":true},{"note":46,"velocity":75,"hitTime":12048,"closestNoteTime":12000,"hitSuccessfully":true},{"note":38,"velocity":71,"hitTime":12528,"closestNoteTime":12480,"hitSuccessfully":true},{"note":46,"velocity":83,"hitTime":12544,"closestNoteTime":12480,"hitSuccessfully":true},{"note":38,"velocity":41,"hitTime":12584,"closestNoteTime":14400,"hitSuccessfully":false},{"note":46,"velocity":67,"hitTime":13024,"closestNoteTime":12960,"hitSuccessfully":true},{"note":46,"velocity":79,"hitTime":13496,"closestNoteTime":13440,"hitSuccessfully":true},{"note":46,"velocity":75,"hitTime":13976,"closestNoteTime":13920,"hitSuccessfully":true},{"note":38,"velocity":69,"hitTime":14456,"closestNoteTime":14400,"hitSuccessfully":true},{"note":46,"velocity":83,"hitTime":14456,"closestNoteTime":14400,"hitSuccessfully":true},{"note":38,"velocity":37,"hitTime":14512,"closestNoteTime":0,"hitSuccessfully":false},{"note":46,"velocity":74,"hitTime":14936,"closestNoteTime":14880,"hitSuccessfully":true}]}