{"frames":[{"note":46,"velocity":73,"hitTime":88,"closestNoteTime":0,"hitSuccessfully":true},{"note":46,"velocity":73,"hitTime":560,"closestNoteTime":480,"hitSuccessfully":true},{"note":38,"velocity":70,"hitTime":1016,"closestNoteTime":960,"hitSuccessfully":true},{"note":46,"velocity":72,"hitTime":1032,"closestNoteTime":960,"hitSuccessfully":true},{"note":46,"velocity":73,"hitTime":1480,"closestNoteTime":1440,"hitSuccessfully":true},{"note":46,"velocity":77,"hitTime":1976,"closestNoteTime":1920,"hitSuccessfully":true},{"note":46,"velocity":70,"hitTime":2432,"closestNoteTime":2400,"hitSuccessfully":true},{"note":38,"velocity":78,"hitTime":2888,"closestNoteTime":2880,"hitSuccessfully":true},{"note":46,"velocity":82,"hitTime":2888,"closestNoteTime":2880,"hitSuccessfully":true},{"note":46,"velocity":65,"hitTime":3344,"closestNoteTime":3360,"hitSuccessfully":true},{"note":46,"velocity":77,"hitTime":3840,"closestNoteTime":3840,"hitSuccessfully":true},{"note":46,"velocity":77,"hitTime":4296,"closestNoteTime":4320,"hitSuccessfully":true},{"note":38,"velocity":74,"hitTime":4776,"closestNoteTime":4800,"hitSuccessfully":true},{"note":46,"velocity":79,"hitTime":4776,"closestNoteTime":4800,"hitSuccessfully":true},{"note":46,"velocity":77,"hitTime":5216,"closestNoteTime":5280,"hitSuccessfully":true},{"note":46,"velocity":74,"hitTime":5728,"closestNoteTime":5760,"hitSuccessfully":true},{"note":46,"velocity":75,"hitTime":6208,"closestNoteTime":6240,"hitSuccessfully":true},{"note":38,"velocity":74,"hitTime":6688,"closestNoteTime":6720,"hitSuccessfully":true},{"note":46,"velocity":82,"hitTime":6688,"closestNoteTime":6720,"hitSuccessfully":true},{"note":46,"velocity":79,"hitTime":7120,"closestNoteTime":7200,"hitSuccessfully":true},{"note":46,"velocity":85,"hitTime":7624,"closestNoteTime":7680,"hitSuccessfully":true},{"note":46,"velocity":80,"hitTime":8112,"closestNoteTime":8160,"hitSuccessfully":true},{"note":38,"velocity":78,"hitTime":8608,"closestNoteTime":8640,"hitSuccessfully":true},{"note":46,"velocity":74,"hitTime":8608,"closestNoteTime":8640,"hitSuccessfully":true},{"note":46,"velocity":80,"hitTime":9088,"closestNoteTime":9120,"hitSuccessfully":true},{"note":46,"velocity":85,"hitTime":9568,"closestNoteTime":9600,"hitSuccessfully":true},{"note":46,"velocity":80,"hitTime":10040,"closestNoteTime":10080,"hitSuccessfully":true},{"note":38,"velocity":79,"hitTime":10536,"closestNoteTime":10560,"hitSuccessfully":true},{"note":46,"velocity":79,"hitTime":10536,"closestNoteTime":10560,"hitSuccessfully":true},{"note":46,"velocity":64,"hitTime":10984,"closestNoteTime":11040,"hitSuccessfully":true},{"note":46,"velocity":83,"hitTime":11456,"closestNoteTime":11520,"hitSuccessfully":true},{"note":46,"velocity":73,"hitTime":11952,"closestNoteTime":12000,"hitSuccessfully":true},{"note":38,"velocity":77,"hitTime":12432,"closestNoteTime":12480,"hitSuccessfully":true},{"note":46,"velocity":70,"hitTime":12432,"closestNoteTime":12480,"hitSuccessfully":true},{"note":46,"velocity":60,"hitTime":12928,"closestNoteTime":12960,"hitSuccessfully":true},{"note":46,"velocity":73,"hitTime":13424,"closestNoteTime":13440,"hitSuccessfully":true},{"note":46,"velocity":79,"hitTime":13920,"closestNoteTime":13920,"hitSuccessfully":true},{"note":38,"velocity":87,"hitTime":14392,"closestNoteTime":14400,"hitSuccessfully":true},{"note":46,"velocity":86,"hitTime":14400,"closestNoteTime":14400,"hitSuccessfully":true},{"note":46,"velocity":79,"hitTime":14856,"closestNoteTime":14880,"hitSuccessfully":true}]}