{
  "frames": [
    {
      "note": 36,
      "velocity": 22,
      "hitTime": 13,
      "closestNoteTime": 0,
      "hitSuccessfully": true
    },
    {
      "note": 46,
      "velocity": 77,
      "hitTime": 76,
      "closestNoteTime": 0,
      "hitSuccessfully": true
    },
    {
      "note": 46,
      "velocity": 67,
      "hitTime": 514,
      "closestNoteTime": 480,
      "hitSuccessfully": true
    },
    {
      "note": 46,
      "velocity": 64,
      "hitTime": 955,
      "closestNoteTime": 960,
      "hitSuccessfully": true
    },
    {
      "note": 46,
      "velocity": 66,
      "hitTime": 1436,
      "closestNoteTime": 1440,
      "hitSuccessfully": true
    },
    {
      "note": 46,
      "velocity": 73,
      "hitTime": 1896,
      "closestNoteTime": 1920,
      "hitSuccessfully": true
    },
    {
      "note": 36,
      "velocity": 42,
      "hitTime": 1908,
      "closestNoteTime": 1920,
      "hitSuccessfully": true
    },
    {
      "note": 46,
      "velocity": 64,
      "hitTime": 2367,
      "closestNoteTime": 2400,
      "hitSuccessfully": true
    },
    {
      "note": 46,
      "velocity": 44,
      "hitTime": 2829,
      "closestNoteTime": 2880,
      "hitSuccessfully": true
    },
    {
      "note": 46,
      "velocity": 65,
      "hitTime": 3331,
      "closestNoteTime": 3360,
      "hitSuccessfully": true
    },
    {
      "note": 36,
      "velocity": 46,
      "hitTime": 3791,
      "closestNoteTime": 3840,
      "hitSuccessfully": true
    },
    {
      "note": 46,
      "velocity": 75,
      "hitTime": 3791,
      "closestNoteTime": 3840,
      "hitSuccessfully": true
    },
    {
      "note": 46,
      "velocity": 65,
      "hitTime": 4284,
      "closestNoteTime": 4320,
      "hitSuccessfully": true
    },
    {
      "note": 46,
      "velocity": 64,
      "hitTime": 4753,
      "closestNoteTime": 4800,
      "hitSuccessfully": true
    },
    {
      "note": 46,
      "velocity": 65,
      "hitTime": 5266,
      "closestNoteTime": 5280,
      "hitSuccessfully": true
    },
    {
      "note": 46,
      "velocity": 79,
      "hitTime": 5767,
      "closestNoteTime": 5760,
      "hitSuccessfully": true
    },
    {
      "note": 36,
      "velocity": 27,
      "hitTime": 5779,
      "closestNoteTime": 5760,
      "hitSuccessfully": true
    },
    {
      "note": 46,
      "velocity": 70,
      "hitTime": 6228,
      "closestNoteTime": 6240,
      "hitSuccessfully": true
    },
    {
      "note": 46,
      "velocity": 64,
      "hitTime": 6689,
      "closestNoteTime": 6720,
      "hitSuccessfully": true
    },
    {
      "note": 46,
      "velocity": 60,
      "hitTime": 7181,
      "closestNoteTime": 7200,
      "hitSuccessfully": true
    },
    {
      "note": 36,
      "velocity": 39,
      "hitTime": 7653,
      "closestNoteTime": 7680,
      "hitSuccessfully": true
    },
    {
      "note": 46,
      "velocity": 76,
      "hitTime": 7674,
      "closestNoteTime": 7680,
      "hitSuccessfully": true
    },
    {
      "note": 46,
      "velocity": 66,
      "hitTime": 8155,
      "closestNoteTime": 8160,
      "hitSuccessfully": true
    },
    {
      "note": 46,
      "velocity": 60,
      "hitTime": 8624,
      "closestNoteTime": 8640,
      "hitSuccessfully": true
    },
    {
      "note": 46,
      "velocity": 64,
      "hitTime": 9128,
      "closestNoteTime": 9120,
      "hitSuccessfully": true
    },
    {
      "note": 46,
      "velocity": 73,
      "hitTime": 9610,
      "closestNoteTime": 9600,
      "hitSuccessfully": true
    },
    {
      "note": 36,
      "velocity": 44,
      "hitTime": 9618,
      "closestNoteTime": 9600,
      "hitSuccessfully": true
    },
    {
      "note": 46,
      "velocity": 62,
      "hitTime": 10078,
      "closestNoteTime": 10080,
      "hitSuccessfully": true
    },
    {
      "note": 46,
      "velocity": 62,
      "hitTime": 10559,
      "closestNoteTime": 10560,
      "hitSuccessfully": true
    },
    {
      "note": 46,
      "velocity": 62,
      "hitTime": 11043,
      "closestNoteTime": 11040,
      "hitSuccessfully": true
    },
    {
      "note": 46,
      "velocity": 74,
      "hitTime": 11524,
      "closestNoteTime": 11520,
      "hitSuccessfully": true
    },
    {
      "note": 36,
      "velocity": 25,
      "hitTime": 11552,
      "closestNoteTime": 11520,
      "hitSuccessfully": true
    },
    {
      "note": 46,
      "velocity": 64,
      "hitTime": 12013,
      "closestNoteTime": 12000,
      "hitSuccessfully": true
    },
    {
      "note": 46,
      "velocity": 58,
      "hitTime": 12486,
      "closestNoteTime": 12480,
      "hitSuccessfully": true
    },
    {
      "note": 46,
      "velocity": 50,
      "hitTime": 12985,
      "closestNoteTime": 12960,
      "hitSuccessfully": true
    },
    {
      "note": 36,
      "velocity": 35,
      "hitTime": 13428,
      "closestNoteTime": 13440,
      "hitSuccessfully": true
    },
    {
      "note": 46,
      "velocity": 73,
      "hitTime": 13446,
      "closestNoteTime": 13440,
      "hitSuccessfully": true
    },
    {
      "note": 46,
      "velocity": 60,
      "hitTime": 13940,
      "closestNoteTime": 13920,
      "hitSuccessfully": true
    },
    {
      "note": 46,
      "velocity": 60,
      "hitTime": 14421,
      "closestNoteTime": 14400,
      "hitSuccessfully": true
    }
  ]
}