{"frames":[{"note":46,"velocity":64,"hitTime":128,"closestNoteTime":0,"hitSuccessfully":true},{"note":46,"velocity":58,"hitTime":560,"closestNoteTime":480,"hitSuccessfully":true},{"note":46,"velocity":70,"hitTime":1000,"closestNoteTime":960,"hitSuccessfully":true},{"note":46,"velocity":67,"hitTime":1632,"closestNoteTime":1440,"hitSuccessfully":false},{"note":46,"velocity":65,"hitTime":2016,"closestNoteTime":1920,"hitSuccessfully":true},{"note":46,"velocity":60,"hitTime":2432,"closestNoteTime":2400,"hitSuccessfully":true},{"note":46,"velocity":65,"hitTime":3248,"closestNoteTime":3360,"hitSuccessfully":true},{"note":46,"velocity":64,"hitTime":3888,"closestNoteTime":3840,"hitSuccessfully":true},{"note":46,"velocity":67,"hitTime":4400,"closestNoteTime":4320,"hitSuccessfully":true},{"note":38,"velocity":28,"hitTime":4792,"closestNoteTime":4800,"hitSuccessfully":true},{"note":38,"velocity":37,"hitTime":4896,"closestNoteTime":6720,"hitSuccessfully":false},{"note":46,"velocity":70,"hitTime":5376,"closestNoteTime":5280,"hitSuccessfully":true},{"note":46,"velocity":62,"hitTime":5856,"closestNoteTime":5760,"hitSuccessfully":true},{"note":46,"velocity":65,"hitTime":6352,"closestNoteTime":6240,"hitSuccessfully":true},{"note":38,"velocity":63,"hitTime":6784,"closestNoteTime":6720,"hitSuccessfully":true},{"note":46,"velocity":70,"hitTime":7248,"closestNoteTime":7200,"hitSuccessfully":true},{"note":46,"velocity":64,"hitTime":7744,"closestNoteTime":7680,"hitSuccessfully":true},{"note":46,"velocity":70,"hitTime":8216,"closestNoteTime":8160,"hitSuccessfully":true},{"note":46,"velocity":60,"hitTime":9088,"closestNoteTime":9120,"hitSuccessfully":true},{"note":46,"velocity":67,"hitTime":9648,"closestNoteTime":9600,"hitSuccessfully":true},{"note":46,"velocity":62,"hitTime":10104,"closestNoteTime":10080,"hitSuccessfully":true},{"note":46,"velocity":72,"hitTime":11024,"closestNoteTime":11040,"hitSuccessfully":true},{"note":46,"velocity":64,"hitTime":11560,"closestNoteTime":11520,"hitSuccessfully":true},{"note":46,"velocity":66,"hitTime":12048,"closestNoteTime":12000,"hitSuccessfully":true},{"note":46,"velocity":75,"hitTime":12912,"closestNoteTime":12960,"hitSuccessfully":true},{"note":46,"velocity":56,"hitTime":13424,"closestNoteTime":13440,"hitSuccessfully":true},{"note":46,"velocity":73,"hitTime":13960,"closestNoteTime":13920,"hitSuccessfully":true},{"note":46,"velocity":62,"hitTime":14832,"closestNoteTime":14880,"hitSuccessfully":true}]}