{"frames":[{"note":46,"velocity":96,"hitTime":256,"closestNoteTime":0,"hitSuccessfully":true},{"note":36,"velocity":55,"hitTime":320,"closestNoteTime":0,"hitSuccessfully":false},{"note":46,"velocity":96,"hitTime":800,"closestNoteTime":960,"hitSuccessfully":true},{"note":36,"velocity":61,"hitTime":880,"closestNoteTime":0,"hitSuccessfully":false},{"note":46,"velocity":100,"hitTime":1312,"closestNoteTime":1440,"hitSuccessfully":true},{"note":36,"velocity":51,"hitTime":1360,"closestNoteTime":1920,"hitSuccessfully":false},{"note":46,"velocity":100,"hitTime":1840,"closestNoteTime":1920,"hitSuccessfully":true},{"note":36,"velocity":60,"hitTime":1888,"closestNoteTime":1920,"hitSuccessfully":true},{"note":46,"velocity":94,"hitTime":2320,"closestNoteTime":2400,"hitSuccessfully":true},{"note":36,"velocity":64,"hitTime":2592,"closestNoteTime":3840,"hitSuccessfully":false},{"note":46,"velocity":89,"hitTime":2752,"closestNoteTime":2880,"hitSuccessfully":true},{"note":36,"velocity":58,"hitTime":3120,"closestNoteTime":3840,"hitSuccessfully":false},{"note":46,"velocity":97,"hitTime":3952,"closestNoteTime":3840,"hitSuccessfully":true},{"note":36,"velocity":71,"hitTime":4112,"closestNoteTime":3840,"hitSuccessfully":true},{"note":46,"velocity":98,"hitTime":4496,"closestNoteTime":4320,"hitSuccessfully":true},{"note":36,"velocity":36,"hitTime":4592,"closestNoteTime":5760,"hitSuccessfully":false},{"note":46,"velocity":95,"hitTime":4976,"closestNoteTime":4800,"hitSuccessfully":true},{"note":36,"velocity":69,"hitTime":5136,"closestNoteTime":5760,"hitSuccessfully":false},{"note":46,"velocity":95,"hitTime":5504,"closestNoteTime":5280,"hitSuccessfully":true},{"note":36,"velocity":30,"hitTime":5696,"closestNoteTime":5760,"hitSuccessfully":true},{"note":46,"velocity":94,"hitTime":6016,"closestNoteTime":5760,"hitSuccessfully":true},{"note":46,"velocity":91,"hitTime":6448,"closestNoteTime":6240,"hitSuccessfully":true},{"note":46,"velocity":97,"hitTime":8208,"closestNoteTime":8160,"hitSuccessfully":true},{"note":46,"velocity":91,"hitTime":8720,"closestNoteTime":8640,"hitSuccessfully":true},{"note":46,"velocity":88,"hitTime":9232,"closestNoteTime":9120,"hitSuccessfully":true},{"note":36,"velocity":39,"hitTime":9744,"closestNoteTime":9600,"hitSuccessfully":true},{"note":46,"velocity":95,"hitTime":9744,"closestNoteTime":9600,"hitSuccessfully":true},{"note":46,"velocity":95,"hitTime":10224,"closestNoteTime":10080,"hitSuccessfully":true},{"note":36,"velocity":58,"hitTime":10272,"closestNoteTime":11520,"hitSuccessfully":false},{"note":36,"velocity":50,"hitTime":10912,"closestNoteTime":11520,"hitSuccessfully":false},{"note":46,"velocity":94,"hitTime":11424,"closestNoteTime":11520,"hitSuccessfully":true},{"note":46,"velocity":95,"hitTime":11968,"closestNoteTime":12000,"hitSuccessfully":true},{"note":46,"velocity":91,"hitTime":12496,"closestNoteTime":12480,"hitSuccessfully":true},{"note":46,"velocity":91,"hitTime":12976,"closestNoteTime":12960,"hitSuccessfully":true},{"note":46,"velocity":91,"hitTime":13440,"closestNoteTime":13440,"hitSuccessfully":true},{"note":46,"velocity":85,"hitTime":13856,"closestNoteTime":13920,"hitSuccessfully":true},{"note":46,"velocity":105,"hitTime":14592,"closestNoteTime":14400,"hitSuccessfully":true},{"note":36,"velocity":74,"hitTime":14640,"closestNoteTime":15360,"hitSuccessfully":false},{"note":46,"velocity":100,"hitTime":15360,"closestNoteTime":15360,"hitSuccessfully":true},{"note":46,"velocity":91,"hitTime":15904,"closestNoteTime":15840,"hitSuccessfully":true},{"note":46,"velocity":91,"hitTime":16400,"closestNoteTime":16320,"hitSuccessfully":true},{"note":46,"velocity":91,"hitTime":16880,"closestNoteTime":16800,"hitSuccessfully":true},{"note":36,"velocity":36,"hitTime":17024,"closestNoteTime":17280,"hitSuccessfully":true},{"note":46,"velocity":88,"hitTime":17344,"closestNoteTime":17280,"hitSuccessfully":true},{"note":46,"velocity":88,"hitTime":17776,"closestNoteTime":17760,"hitSuccessfully":true},{"note":36,"velocity":21,"hitTime":18656,"closestNoteTime":19200,"hitSuccessfully":false},{"note":46,"velocity":97,"hitTime":19136,"closestNoteTime":19200,"hitSuccessfully":true},{"note":36,"velocity":46,"hitTime":19216,"closestNoteTime":19200,"hitSuccessfully":true},{"note":46,"velocity":98,"hitTime":19680,"closestNoteTime":19680,"hitSuccessfully":true},{"note":46,"velocity":99,"hitTime":20208,"closestNoteTime":20160,"hitSuccessfully":true},{"note":46,"velocity":93,"hitTime":20720,"closestNoteTime":20640,"hitSuccessfully":true},{"note":46,"velocity":90,"hitTime":21168,"closestNoteTime":21120,"hitSuccessfully":true},{"note":36,"velocity":36,"hitTime":21552,"closestNoteTime":21120,"hitSuccessfully":false},{"note":46,"velocity":88,"hitTime":21568,"closestNoteTime":21600,"hitSuccessfully":true},{"note":36,"velocity":22,"hitTime":22624,"closestNoteTime":23040,"hitSuccessfully":false},{"note":46,"velocity":93,"hitTime":22800,"closestNoteTime":22560,"hitSuccessfully":true},{"note":46,"velocity":91,"hitTime":23312,"closestNoteTime":23040,"hitSuccessfully":true},{"note":46,"velocity":91,"hitTime":23856,"closestNoteTime":24000,"hitSuccessfully":true},{"note":46,"velocity":93,"hitTime":24416,"closestNoteTime":24480,"hitSuccessfully":true},{"note":46,"velocity":88,"hitTime":24848,"closestNoteTime":24960,"hitSuccessfully":true},{"note":46,"velocity":85,"hitTime":25296,"closestNoteTime":25440,"hitSuccessfully":true},{"note":36,"velocity":46,"hitTime":25568,"closestNoteTime":24960,"hitSuccessfully":false},{"note":46,"velocity":91,"hitTime":26368,"closestNoteTime":26400,"hitSuccessfully":true},{"note":46,"velocity":88,"hitTime":26928,"closestNoteTime":26880,"hitSuccessfully":true},{"note":46,"velocity":86,"hitTime":27360,"closestNoteTime":27360,"hitSuccessfully":true},{"note":46,"velocity":84,"hitTime":27840,"closestNoteTime":27840,"hitSuccessfully":true},{"note":46,"velocity":90,"hitTime":28320,"closestNoteTime":28320,"hitSuccessfully":true},{"note":46,"velocity":82,"hitTime":28688,"closestNoteTime":28800,"hitSuccessfully":true},{"note":36,"velocity":21,"hitTime":29360,"closestNoteTime":28800,"hitSuccessfully":false},{"note":36,"velocity":30,"hitTime":29600,"closestNoteTime":28800,"hitSuccessfully":false},{"note":46,"velocity":85,"hitTime":30192,"closestNoteTime":30240,"hitSuccessfully":true},{"note":46,"velocity":91,"hitTime":30704,"closestNoteTime":29760,"hitSuccessfully":false}]}