{"frames":[{"note":46,"velocity":74,"hitTime":88,"closestNoteTime":0,"hitSuccessfully":true},{"note":46,"velocity":66,"hitTime":552,"closestNoteTime":480,"hitSuccessfully":true},{"note":46,"velocity":64,"hitTime":1008,"closestNoteTime":960,"hitSuccessfully":true},{"note":46,"velocity":75,"hitTime":1504,"closestNoteTime":1440,"hitSuccessfully":true},{"note":46,"velocity":84,"hitTime":1976,"closestNoteTime":1920,"hitSuccessfully":true},{"note":36,"velocity":46,"hitTime":1984,"closestNoteTime":1920,"hitSuccessfully":true},{"note":46,"velocity":76,"hitTime":2880,"closestNoteTime":2880,"hitSuccessfully":true},{"note":46,"velocity":73,"hitTime":3416,"closestNoteTime":3360,"hitSuccessfully":true},{"note":36,"velocity":52,"hitTime":3872,"closestNoteTime":3840,"hitSuccessfully":true},{"note":46,"velocity":83,"hitTime":3888,"closestNoteTime":3840,"hitSuccessfully":true},{"note":46,"velocity":74,"hitTime":4368,"closestNoteTime":4320,"hitSuccessfully":true},{"note":46,"velocity":70,"hitTime":4824,"closestNoteTime":4800,"hitSuccessfully":true},{"note":46,"velocity":66,"hitTime":5304,"closestNoteTime":5280,"hitSuccessfully":true},{"note":36,"velocity":38,"hitTime":5720,"closestNoteTime":5760,"hitSuccessfully":true},{"note":46,"velocity":77,"hitTime":5760,"closestNoteTime":5760,"hitSuccessfully":true},{"note":46,"velocity":75,"hitTime":6256,"closestNoteTime":6240,"hitSuccessfully":true},{"note":46,"velocity":70,"hitTime":6728,"closestNoteTime":6720,"hitSuccessfully":true},{"note":46,"velocity":73,"hitTime":7208,"closestNoteTime":7200,"hitSuccessfully":true},{"note":36,"velocity":44,"hitTime":7608,"closestNoteTime":7680,"hitSuccessfully":true},{"note":46,"velocity":82,"hitTime":7664,"closestNoteTime":7680,"hitSuccessfully":true},{"note":46,"velocity":74,"hitTime":8160,"closestNoteTime":8160,"hitSuccessfully":true},{"note":46,"velocity":77,"hitTime":8616,"closestNoteTime":8640,"hitSuccessfully":true},{"note":46,"velocity":73,"hitTime":9152,"closestNoteTime":9120,"hitSuccessfully":true},{"note":36,"velocity":43,"hitTime":9600,"closestNoteTime":9600,"hitSuccessfully":true},{"note":46,"velocity":84,"hitTime":9616,"closestNoteTime":9600,"hitSuccessfully":true},{"note":46,"velocity":70,"hitTime":10112,"closestNoteTime":10080,"hitSuccessfully":true},{"note":46,"velocity":75,"hitTime":10568,"closestNoteTime":10560,"hitSuccessfully":true},{"note":46,"velocity":70,"hitTime":11064,"closestNoteTime":11040,"hitSuccessfully":true},{"note":36,"velocity":31,"hitTime":11480,"closestNoteTime":11520,"hitSuccessfully":true},{"note":46,"velocity":85,"hitTime":11520,"closestNoteTime":11520,"hitSuccessfully":true},{"note":46,"velocity":76,"hitTime":12024,"closestNoteTime":12000,"hitSuccessfully":true},{"note":46,"velocity":77,"hitTime":12512,"closestNoteTime":12480,"hitSuccessfully":true},{"note":46,"velocity":74,"hitTime":12976,"closestNoteTime":12960,"hitSuccessfully":true},{"note":36,"velocity":32,"hitTime":13408,"closestNoteTime":13440,"hitSuccessfully":true},{"note":46,"velocity":83,"hitTime":13456,"closestNoteTime":13440,"hitSuccessfully":true},{"note":46,"velocity":74,"hitTime":13944,"closestNoteTime":13920,"hitSuccessfully":true},{"note":46,"velocity":75,"hitTime":14408,"closestNoteTime":14400,"hitSuccessfully":true},{"note":46,"velocity":73,"hitTime":14888,"closestNoteTime":14880,"hitSuccessfully":true}]}