{"frames":[{"note":46,"velocity":74,"hitTime":96,"closestNoteTime":0,"hitSuccessfully":true},{"note":36,"velocity":46,"hitTime":112,"closestNoteTime":0,"hitSuccessfully":true},{"note":46,"velocity":67,"hitTime":536,"closestNoteTime":480,"hitSuccessfully":true},{"note":38,"velocity":84,"hitTime":992,"closestNoteTime":960,"hitSuccessfully":true},{"note":46,"velocity":79,"hitTime":1016,"closestNoteTime":960,"hitSuccessfully":true},{"note":46,"velocity":70,"hitTime":1472,"closestNoteTime":1440,"hitSuccessfully":true},{"note":36,"velocity":39,"hitTime":1928,"closestNoteTime":1920,"hitSuccessfully":true},{"note":46,"velocity":79,"hitTime":1944,"closestNoteTime":1920,"hitSuccessfully":true},{"note":46,"velocity":70,"hitTime":2400,"closestNoteTime":2400,"hitSuccessfully":true},{"note":38,"velocity":87,"hitTime":2880,"closestNoteTime":2880,"hitSuccessfully":true},{"note":46,"velocity":79,"hitTime":2880,"closestNoteTime":2880,"hitSuccessfully":true},{"note":46,"velocity":70,"hitTime":3344,"closestNoteTime":3360,"hitSuccessfully":true},{"note":46,"velocity":79,"hitTime":3800,"closestNoteTime":3840,"hitSuccessfully":true},{"note":36,"velocity":44,"hitTime":3816,"closestNoteTime":3840,"hitSuccessfully":true},{"note":46,"velocity":73,"hitTime":4296,"closestNoteTime":4320,"hitSuccessfully":true},{"note":38,"velocity":82,"hitTime":4784,"closestNoteTime":4800,"hitSuccessfully":true},{"note":46,"velocity":84,"hitTime":4792,"closestNoteTime":4800,"hitSuccessfully":true},{"note":46,"velocity":77,"hitTime":5248,"closestNoteTime":5280,"hitSuccessfully":true},{"note":46,"velocity":79,"hitTime":5728,"closestNoteTime":5760,"hitSuccessfully":true},{"note":36,"velocity":30,"hitTime":5744,"closestNoteTime":5760,"hitSuccessfully":true},{"note":46,"velocity":76,"hitTime":6200,"closestNoteTime":6240,"hitSuccessfully":true},{"note":46,"velocity":93,"hitTime":6680,"closestNoteTime":6720,"hitSuccessfully":true},{"note":46,"velocity":79,"hitTime":7176,"closestNoteTime":7200,"hitSuccessfully":true},{"note":46,"velocity":87,"hitTime":7648,"closestNoteTime":7680,"hitSuccessfully":true},{"note":36,"velocity":42,"hitTime":7656,"closestNoteTime":7680,"hitSuccessfully":true},{"note":46,"velocity":74,"hitTime":8136,"closestNoteTime":8160,"hitSuccessfully":true},{"note":38,"velocity":82,"hitTime":8632,"closestNoteTime":8640,"hitSuccessfully":true},{"note":46,"velocity":85,"hitTime":8648,"closestNoteTime":8640,"hitSuccessfully":true},{"note":46,"velocity":70,"hitTime":9088,"closestNoteTime":9120,"hitSuccessfully":true},{"note":46,"velocity":79,"hitTime":9568,"closestNoteTime":9600,"hitSuccessfully":true},{"note":36,"velocity":42,"hitTime":9624,"closestNoteTime":9600,"hitSuccessfully":true},{"note":46,"velocity":66,"hitTime":10040,"closestNoteTime":10080,"hitSuccessfully":true},{"note":38,"velocity":81,"hitTime":10520,"closestNoteTime":10560,"hitSuccessfully":true},{"note":46,"velocity":82,"hitTime":10552,"closestNoteTime":10560,"hitSuccessfully":true},{"note":46,"velocity":73,"hitTime":11008,"closestNoteTime":11040,"hitSuccessfully":true},{"note":46,"velocity":80,"hitTime":11456,"closestNoteTime":11520,"hitSuccessfully":true},{"note":36,"velocity":47,"hitTime":11512,"closestNoteTime":11520,"hitSuccessfully":true},{"note":46,"velocity":70,"hitTime":11912,"closestNoteTime":12000,"hitSuccessfully":true},{"note":38,"velocity":76,"hitTime":12384,"closestNoteTime":12480,"hitSuccessfully":true},{"note":46,"velocity":88,"hitTime":12384,"closestNoteTime":12480,"hitSuccessfully":true},{"note":46,"velocity":76,"hitTime":12880,"closestNoteTime":12960,"hitSuccessfully":true},{"note":36,"velocity":52,"hitTime":13360,"closestNoteTime":13440,"hitSuccessfully":true},{"note":46,"velocity":80,"hitTime":13360,"closestNoteTime":13440,"hitSuccessfully":true},{"note":46,"velocity":74,"hitTime":13840,"closestNoteTime":13920,"hitSuccessfully":true},{"note":38,"velocity":77,"hitTime":14312,"closestNoteTime":14400,"hitSuccessfully":true},{"note":46,"velocity":82,"hitTime":14328,"closestNoteTime":14400,"hitSuccessfully":true},{"note":46,"velocity":72,"hitTime":14792,"closestNoteTime":14880,"hitSuccessfully":true}]}