{"frames":[{"note":46,"velocity":80,"hitTime":96,"closestNoteTime":0,"hitSuccessfully":true},{"note":46,"velocity":64,"hitTime":608,"closestNoteTime":480,"hitSuccessfully":true},{"note":38,"velocity":84,"hitTime":1136,"closestNoteTime":960,"hitSuccessfully":true},{"note":46,"velocity":93,"hitTime":1136,"closestNoteTime":960,"hitSuccessfully":true},{"note":46,"velocity":70,"hitTime":1600,"closestNoteTime":1440,"hitSuccessfully":true},{"note":46,"velocity":58,"hitTime":2096,"closestNoteTime":1920,"hitSuccessfully":true},{"note":46,"velocity":66,"hitTime":2560,"closestNoteTime":2400,"hitSuccessfully":true},{"note":46,"velocity":85,"hitTime":2992,"closestNoteTime":2880,"hitSuccessfully":true},{"note":36,"velocity":59,"hitTime":2992,"closestNoteTime":3840,"hitSuccessfully":false},{"note":38,"velocity":92,"hitTime":2992,"closestNoteTime":2880,"hitSuccessfully":true},{"note":46,"velocity":79,"hitTime":3488,"closestNoteTime":3360,"hitSuccessfully":true},{"note":46,"velocity":85,"hitTime":3952,"closestNoteTime":3840,"hitSuccessfully":true},{"note":46,"velocity":73,"hitTime":4464,"closestNoteTime":4320,"hitSuccessfully":true},{"note":46,"velocity":101,"hitTime":4912,"closestNoteTime":4800,"hitSuccessfully":true},{"note":38,"velocity":85,"hitTime":4944,"closestNoteTime":4800,"hitSuccessfully":true},{"note":46,"velocity":76,"hitTime":5392,"closestNoteTime":5280,"hitSuccessfully":true},{"note":46,"velocity":77,"hitTime":5904,"closestNoteTime":5760,"hitSuccessfully":true},{"note":46,"velocity":74,"hitTime":6352,"closestNoteTime":6240,"hitSuccessfully":true},{"note":38,"velocity":87,"hitTime":6816,"closestNoteTime":6720,"hitSuccessfully":true},{"note":46,"velocity":97,"hitTime":6864,"closestNoteTime":6720,"hitSuccessfully":true},{"note":46,"velocity":94,"hitTime":7408,"closestNoteTime":7200,"hitSuccessfully":true},{"note":46,"velocity":82,"hitTime":7824,"closestNoteTime":7680,"hitSuccessfully":true},{"note":36,"velocity":64,"hitTime":7824,"closestNoteTime":7680,"hitSuccessfully":true},{"note":46,"velocity":79,"hitTime":8416,"closestNoteTime":8160,"hitSuccessfully":true},{"note":46,"velocity":91,"hitTime":8848,"closestNoteTime":8640,"hitSuccessfully":true},{"note":38,"velocity":92,"hitTime":8896,"closestNoteTime":8640,"hitSuccessfully":true},{"note":46,"velocity":77,"hitTime":9328,"closestNoteTime":9120,"hitSuccessfully":true},{"note":46,"velocity":73,"hitTime":9760,"closestNoteTime":9600,"hitSuccessfully":true},{"note":46,"velocity":47,"hitTime":10288,"closestNoteTime":10080,"hitSuccessfully":true},{"note":46,"velocity":96,"hitTime":10720,"closestNoteTime":10560,"hitSuccessfully":true},{"note":38,"velocity":91,"hitTime":10800,"closestNoteTime":10560,"hitSuccessfully":true},{"note":46,"velocity":82,"hitTime":11184,"closestNoteTime":11040,"hitSuccessfully":true},{"note":36,"velocity":60,"hitTime":11584,"closestNoteTime":11520,"hitSuccessfully":true},{"note":46,"velocity":87,"hitTime":11584,"closestNoteTime":11520,"hitSuccessfully":true},{"note":46,"velocity":79,"hitTime":11664,"closestNoteTime":12000,"hitSuccessfully":false},{"note":46,"velocity":64,"hitTime":12144,"closestNoteTime":12000,"hitSuccessfully":true},{"note":38,"velocity":91,"hitTime":12656,"closestNoteTime":12480,"hitSuccessfully":true},{"note":46,"velocity":91,"hitTime":12656,"closestNoteTime":12480,"hitSuccessfully":true},{"note":46,"velocity":74,"hitTime":13104,"closestNoteTime":12960,"hitSuccessfully":true},{"note":46,"velocity":86,"hitTime":13536,"closestNoteTime":13440,"hitSuccessfully":true},{"note":36,"velocity":60,"hitTime":13568,"closestNoteTime":13440,"hitSuccessfully":true},{"note":46,"velocity":48,"hitTime":13648,"closestNoteTime":13920,"hitSuccessfully":true},{"note":46,"velocity":72,"hitTime":14048,"closestNoteTime":14400,"hitSuccessfully":false},{"note":38,"velocity":89,"hitTime":14576,"closestNoteTime":14400,"hitSuccessfully":true},{"note":46,"velocity":97,"hitTime":14608,"closestNoteTime":14400,"hitSuccessfully":true},{"note":46,"velocity":79,"hitTime":15040,"closestNoteTime":14880,"hitSuccessfully":true},{"note":46,"velocity":89,"hitTime":15456,"closestNoteTime":15360,"hitSuccessfully":true},{"note":36,"velocity":58,"hitTime":15488,"closestNoteTime":15360,"hitSuccessfully":true},{"note":46,"velocity":67,"hitTime":15520,"closestNoteTime":15840,"hitSuccessfully":false},{"note":46,"velocity":31,"hitTime":16448,"closestNoteTime":16320,"hitSuccessfully":true},{"note":38,"velocity":96,"hitTime":16496,"closestNoteTime":16320,"hitSuccessfully":true},{"note":46,"velocity":73,"hitTime":16992,"closestNoteTime":16800,"hitSuccessfully":true},{"note":46,"velocity":36,"hitTime":17120,"closestNoteTime":17280,"hitSuccessfully":true},{"note":46,"velocity":70,"hitTime":17472,"closestNoteTime":17760,"hitSuccessfully":true},{"note":46,"velocity":50,"hitTime":17984,"closestNoteTime":18240,"hitSuccessfully":true},{"note":36,"velocity":50,"hitTime":18352,"closestNoteTime":19200,"hitSuccessfully":false},{"note":38,"velocity":91,"hitTime":18384,"closestNoteTime":18240,"hitSuccessfully":true},{"note":46,"velocity":101,"hitTime":18384,"closestNoteTime":18720,"hitSuccessfully":false},{"note":46,"velocity":70,"hitTime":18832,"closestNoteTime":18720,"hitSuccessfully":true},{"note":46,"velocity":79,"hitTime":19264,"closestNoteTime":19200,"hitSuccessfully":true},{"note":36,"velocity":55,"hitTime":19312,"closestNoteTime":19200,"hitSuccessfully":true},{"note":46,"velocity":74,"hitTime":19696,"closestNoteTime":19680,"hitSuccessfully":true},{"note":38,"velocity":88,"hitTime":20176,"closestNoteTime":20160,"hitSuccessfully":true},{"note":46,"velocity":104,"hitTime":20224,"closestNoteTime":20160,"hitSuccessfully":true},{"note":46,"velocity":73,"hitTime":20656,"closestNoteTime":20640,"hitSuccessfully":true},{"note":46,"velocity":80,"hitTime":21088,"closestNoteTime":21120,"hitSuccessfully":true},{"note":46,"velocity":70,"hitTime":21168,"closestNoteTime":21600,"hitSuccessfully":false},{"note":46,"velocity":74,"hitTime":21616,"closestNoteTime":21600,"hitSuccessfully":true},{"note":38,"velocity":91,"hitTime":22128,"closestNoteTime":22080,"hitSuccessfully":true},{"note":46,"velocity":95,"hitTime":22160,"closestNoteTime":22080,"hitSuccessfully":true},{"note":46,"velocity":80,"hitTime":22640,"closestNoteTime":22560,"hitSuccessfully":true},{"note":46,"velocity":88,"hitTime":23088,"closestNoteTime":23040,"hitSuccessfully":true},{"note":36,"velocity":61,"hitTime":23120,"closestNoteTime":23040,"hitSuccessfully":true},{"note":46,"velocity":79,"hitTime":23200,"closestNoteTime":23520,"hitSuccessfully":false},{"note":46,"velocity":80,"hitTime":23632,"closestNoteTime":23520,"hitSuccessfully":true},{"note":46,"velocity":87,"hitTime":24192,"closestNoteTime":24000,"hitSuccessfully":true},{"note":46,"velocity":75,"hitTime":24672,"closestNoteTime":24480,"hitSuccessfully":true},{"note":46,"velocity":86,"hitTime":25072,"closestNoteTime":24960,"hitSuccessfully":true},{"note":36,"velocity":47,"hitTime":25120,"closestNoteTime":24960,"hitSuccessfully":true},{"note":46,"velocity":36,"hitTime":25712,"closestNoteTime":25440,"hitSuccessfully":true},{"note":46,"velocity":85,"hitTime":26112,"closestNoteTime":25920,"hitSuccessfully":true},{"note":38,"velocity":86,"hitTime":26144,"closestNoteTime":25920,"hitSuccessfully":true},{"note":46,"velocity":66,"hitTime":26224,"closestNoteTime":26400,"hitSuccessfully":true},{"note":46,"velocity":73,"hitTime":26656,"closestNoteTime":26880,"hitSuccessfully":true},{"note":46,"velocity":60,"hitTime":27024,"closestNoteTime":27360,"hitSuccessfully":false},{"note":46,"velocity":46,"hitTime":27104,"closestNoteTime":27360,"hitSuccessfully":true},{"note":46,"velocity":75,"hitTime":27504,"closestNoteTime":27840,"hitSuccessfully":false},{"note":46,"velocity":56,"hitTime":27584,"closestNoteTime":27840,"hitSuccessfully":true},{"note":38,"velocity":90,"hitTime":28016,"closestNoteTime":27840,"hitSuccessfully":true},{"note":46,"velocity":80,"hitTime":28016,"closestNoteTime":28320,"hitSuccessfully":false},{"note":46,"velocity":76,"hitTime":28128,"closestNoteTime":28320,"hitSuccessfully":true},{"note":36,"velocity":23,"hitTime":28256,"closestNoteTime":28800,"hitSuccessfully":false},{"note":46,"velocity":91,"hitTime":28496,"closestNoteTime":28800,"hitSuccessfully":false},{"note":46,"velocity":70,"hitTime":28608,"closestNoteTime":28800,"hitSuccessfully":true},{"note":46,"velocity":79,"hitTime":28928,"closestNoteTime":29280,"hitSuccessfully":false},{"note":46,"velocity":55,"hitTime":29008,"closestNoteTime":29280,"hitSuccessfully":true},{"note":46,"velocity":58,"hitTime":29376,"closestNoteTime":29760,"hitSuccessfully":false},{"note":38,"velocity":82,"hitTime":29888,"closestNoteTime":29760,"hitSuccessfully":true},{"note":46,"velocity":73,"hitTime":29952,"closestNoteTime":29760,"hitSuccessfully":true}]}