{"frames":[{"note":46,"velocity":93,"hitTime":64,"closestNoteTime":0,"hitSuccessfully":true},{"note":46,"velocity":100,"hitTime":552,"closestNoteTime":480,"hitSuccessfully":true},{"note":46,"velocity":104,"hitTime":1000,"closestNoteTime":960,"hitSuccessfully":true},{"note":46,"velocity":102,"hitTime":1480,"closestNoteTime":1440,"hitSuccessfully":true},{"note":46,"velocity":101,"hitTime":1952,"closestNoteTime":1920,"hitSuccessfully":true},{"note":46,"velocity":103,"hitTime":2440,"closestNoteTime":2400,"hitSuccessfully":true},{"note":46,"velocity":108,"hitTime":2888,"closestNoteTime":2880,"hitSuccessfully":true},{"note":46,"velocity":100,"hitTime":3368,"closestNoteTime":3360,"hitSuccessfully":true},{"note":46,"velocity":99,"hitTime":3848,"closestNoteTime":3840,"hitSuccessfully":true},{"note":46,"velocity":100,"hitTime":4344,"closestNoteTime":4320,"hitSuccessfully":true},{"note":46,"velocity":106,"hitTime":4800,"closestNoteTime":4800,"hitSuccessfully":true},{"note":46,"velocity":101,"hitTime":5280,"closestNoteTime":5280,"hitSuccessfully":true},{"note":46,"velocity":100,"hitTime":5752,"closestNoteTime":5760,"hitSuccessfully":true},{"note":46,"velocity":102,"hitTime":6248,"closestNoteTime":6240,"hitSuccessfully":true},{"note":46,"velocity":109,"hitTime":6728,"closestNoteTime":6720,"hitSuccessfully":true},{"note":46,"velocity":100,"hitTime":7208,"closestNoteTime":7200,"hitSuccessfully":true},{"note":46,"velocity":103,"hitTime":7688,"closestNoteTime":7680,"hitSuccessfully":true},{"note":46,"velocity":99,"hitTime":8176,"closestNoteTime":8160,"hitSuccessfully":true},{"note":46,"velocity":120,"hitTime":8640,"closestNoteTime":8640,"hitSuccessfully":true},{"note":46,"velocity":102,"hitTime":9112,"closestNoteTime":9120,"hitSuccessfully":true},{"note":46,"velocity":102,"hitTime":9576,"closestNoteTime":9600,"hitSuccessfully":true},{"note":46,"velocity":100,"hitTime":10064,"closestNoteTime":10080,"hitSuccessfully":true},{"note":46,"velocity":105,"hitTime":11008,"closestNoteTime":11040,"hitSuccessfully":true},{"note":46,"velocity":109,"hitTime":11496,"closestNoteTime":11520,"hitSuccessfully":true},{"note":46,"velocity":105,"hitTime":11976,"closestNoteTime":12000,"hitSuccessfully":true},{"note":46,"velocity":127,"hitTime":12432,"closestNoteTime":12480,"hitSuccessfully":true},{"note":46,"velocity":105,"hitTime":12912,"closestNoteTime":12960,"hitSuccessfully":true},{"note":46,"velocity":109,"hitTime":13392,"closestNoteTime":13440,"hitSuccessfully":true},{"note":46,"velocity":105,"hitTime":13872,"closestNoteTime":13920,"hitSuccessfully":true},{"note":46,"velocity":127,"hitTime":14368,"closestNoteTime":14400,"hitSuccessfully":true},{"note":46,"velocity":108,"hitTime":14840,"closestNoteTime":14880,"hitSuccessfully":true}]}