{"frames":[{"note":46,"velocity":76,"hitTime":48,"closestNoteTime":0,"hitSuccessfully":true},{"note":36,"velocity":70,"hitTime":48,"closestNoteTime":0,"hitSuccessfully":true},{"note":46,"velocity":65,"hitTime":480,"closestNoteTime":480,"hitSuccessfully":true},{"note":46,"velocity":80,"hitTime":960,"closestNoteTime":960,"hitSuccessfully":true},{"note":38,"velocity":84,"hitTime":976,"closestNoteTime":960,"hitSuccessfully":true},{"note":46,"velocity":70,"hitTime":1480,"closestNoteTime":1440,"hitSuccessfully":true},{"note":46,"velocity":72,"hitTime":1968,"closestNoteTime":1920,"hitSuccessfully":true},{"note":46,"velocity":67,"hitTime":2472,"closestNoteTime":2400,"hitSuccessfully":true},{"note":38,"velocity":87,"hitTime":2904,"closestNoteTime":2880,"hitSuccessfully":true},{"note":46,"velocity":67,"hitTime":2912,"closestNoteTime":2880,"hitSuccessfully":true},{"note":46,"velocity":73,"hitTime":3368,"closestNoteTime":3360,"hitSuccessfully":true},{"note":46,"velocity":82,"hitTime":3880,"closestNoteTime":3840,"hitSuccessfully":true},{"note":46,"velocity":75,"hitTime":4384,"closestNoteTime":4320,"hitSuccessfully":true},{"note":38,"velocity":87,"hitTime":4856,"closestNoteTime":4800,"hitSuccessfully":true},{"note":46,"velocity":80,"hitTime":4872,"closestNoteTime":4800,"hitSuccessfully":true},{"note":46,"velocity":67,"hitTime":5328,"closestNoteTime":5280,"hitSuccessfully":true},{"note":46,"velocity":74,"hitTime":5808,"closestNoteTime":5760,"hitSuccessfully":true},{"note":46,"velocity":73,"hitTime":6304,"closestNoteTime":6240,"hitSuccessfully":true},{"note":38,"velocity":82,"hitTime":6768,"closestNoteTime":6720,"hitSuccessfully":true},{"note":46,"velocity":75,"hitTime":6784,"closestNoteTime":6720,"hitSuccessfully":true},{"note":46,"velocity":60,"hitTime":7264,"closestNoteTime":7200,"hitSuccessfully":true},{"note":46,"velocity":76,"hitTime":7744,"closestNoteTime":7680,"hitSuccessfully":true},{"note":46,"velocity":67,"hitTime":8240,"closestNoteTime":8160,"hitSuccessfully":true},{"note":46,"velocity":80,"hitTime":8696,"closestNoteTime":8640,"hitSuccessfully":true},{"note":38,"velocity":81,"hitTime":8696,"closestNoteTime":8640,"hitSuccessfully":true},{"note":46,"velocity":64,"hitTime":9176,"closestNoteTime":9120,"hitSuccessfully":true},{"note":36,"velocity":48,"hitTime":9624,"closestNoteTime":9600,"hitSuccessfully":true},{"note":46,"velocity":79,"hitTime":9664,"closestNoteTime":9600,"hitSuccessfully":true},{"note":46,"velocity":66,"hitTime":10120,"closestNoteTime":10080,"hitSuccessfully":true},{"note":38,"velocity":79,"hitTime":10560,"closestNoteTime":10560,"hitSuccessfully":true},{"note":46,"velocity":77,"hitTime":10568,"closestNoteTime":10560,"hitSuccessfully":true},{"note":46,"velocity":77,"hitTime":11024,"closestNoteTime":11040,"hitSuccessfully":true},{"note":36,"velocity":52,"hitTime":11480,"closestNoteTime":11520,"hitSuccessfully":true},{"note":46,"velocity":77,"hitTime":11496,"closestNoteTime":11520,"hitSuccessfully":true},{"note":46,"velocity":70,"hitTime":11992,"closestNoteTime":12000,"hitSuccessfully":true},{"note":46,"velocity":82,"hitTime":12488,"closestNoteTime":12480,"hitSuccessfully":true},{"note":38,"velocity":84,"hitTime":12488,"closestNoteTime":12480,"hitSuccessfully":true},{"note":46,"velocity":70,"hitTime":12968,"closestNoteTime":12960,"hitSuccessfully":true},{"note":36,"velocity":58,"hitTime":13440,"closestNoteTime":13440,"hitSuccessfully":true},{"note":46,"velocity":79,"hitTime":13448,"closestNoteTime":13440,"hitSuccessfully":true},{"note":46,"velocity":73,"hitTime":13936,"closestNoteTime":13920,"hitSuccessfully":true},{"note":46,"velocity":82,"hitTime":14424,"closestNoteTime":14400,"hitSuccessfully":true},{"note":38,"velocity":89,"hitTime":14424,"closestNoteTime":14400,"hitSuccessfully":true},{"note":46,"velocity":73,"hitTime":14912,"closestNoteTime":14880,"hitSuccessfully":true}]}