{
  "frames": [
    {
      "note": 46,
      "velocity": 102,
      "hitTime": 1091,
      "closestNoteTime": 960,
      "hitSuccessfully": true
    },
    {
      "note": 36,
      "velocity": 75,
      "hitTime": 1172,
      "closestNoteTime": 960,
      "hitSuccessfully": false
    },
    {
      "note": 38,
      "velocity": 86,
      "hitTime": 1995,
      "closestNoteTime": 1920,
      "hitSuccessfully": false
    },
    {
      "note": 46,
      "velocity": 95,
      "hitTime": 2036,
      "closestNoteTime": 1920,
      "hitSuccessfully": true
    },
    {
      "note": 36,
      "velocity": 43,
      "hitTime": 2076,
      "closestNoteTime": 1920,
      "hitSuccessfully": true
    },
    {
      "note": 46,
      "velocity": 80,
      "hitTime": 2462,
      "closestNoteTime": 2400,
      "hitSuccessfully": true
    },
    {
      "note": 46,
      "velocity": 98,
      "hitTime": 2934,
      "closestNoteTime": 2880,
      "hitSuccessfully": true
    },
    {
      "note": 36,
      "velocity": 55,
      "hitTime": 3078,
      "closestNoteTime": 2880,
      "hitSuccessfully": false
    },
    {
      "note": 46,
      "velocity": 103,
      "hitTime": 3879,
      "closestNoteTime": 3840,
      "hitSuccessfully": true
    },
    {
      "note": 36,
      "velocity": 54,
      "hitTime": 3879,
      "closestNoteTime": 3840,
      "hitSuccessfully": true
    },
    {
      "note": 36,
      "velocity": 55,
      "hitTime": 4674,
      "closestNoteTime": 4800,
      "hitSuccessfully": false
    },
    {
      "note": 38,
      "velocity": 72,
      "hitTime": 4777,
      "closestNoteTime": 4800,
      "hitSuccessfully": true
    },
    {
      "note": 46,
      "velocity": 107,
      "hitTime": 4818,
      "closestNoteTime": 4800,
      "hitSuccessfully": true
    },
    {
      "note": 46,
      "velocity": 50,
      "hitTime": 5267,
      "closestNoteTime": 5280,
      "hitSuccessfully": true
    },
    {
      "note": 46,
      "velocity": 101,
      "hitTime": 5682,
      "closestNoteTime": 5760,
      "hitSuccessfully": true
    },
    {
      "note": 36,
      "velocity": 64,
      "hitTime": 6580,
      "closestNoteTime": 6720,
      "hitSuccessfully": false
    },
    {
      "note": 46,
      "velocity": 101,
      "hitTime": 6659,
      "closestNoteTime": 6720,
      "hitSuccessfully": true
    },
    {
      "note": 36,
      "velocity": 55,
      "hitTime": 7583,
      "closestNoteTime": 7680,
      "hitSuccessfully": true
    },
    {
      "note": 46,
      "velocity": 107,
      "hitTime": 7583,
      "closestNoteTime": 7680,
      "hitSuccessfully": true
    },
    {
      "note": 36,
      "velocity": 47,
      "hitTime": 8527,
      "closestNoteTime": 8640,
      "hitSuccessfully": false
    },
    {
      "note": 46,
      "velocity": 97,
      "hitTime": 8568,
      "closestNoteTime": 8640,
      "hitSuccessfully": true
    },
    {
      "note": 36,
      "velocity": 46,
      "hitTime": 9426,
      "closestNoteTime": 9600,
      "hitSuccessfully": true
    },
    {
      "note": 46,
      "velocity": 98,
      "hitTime": 9506,
      "closestNoteTime": 9600,
      "hitSuccessfully": true
    },
    {
      "note": 36,
      "velocity": 50,
      "hitTime": 10330,
      "closestNoteTime": 10560,
      "hitSuccessfully": false
    },
    {
      "note": 46,
      "velocity": 106,
      "hitTime": 10451,
      "closestNoteTime": 10560,
      "hitSuccessfully": true
    },
    {
      "note": 36,
      "velocity": 56,
      "hitTime": 11332,
      "closestNoteTime": 11520,
      "hitSuccessfully": true
    },
    {
      "note": 46,
      "velocity": 112,
      "hitTime": 11396,
      "closestNoteTime": 11520,
      "hitSuccessfully": true
    },
    {
      "note": 36,
      "velocity": 59,
      "hitTime": 12293,
      "closestNoteTime": 12480,
      "hitSuccessfully": false
    },
    {
      "note": 46,
      "velocity": 102,
      "hitTime": 12398,
      "closestNoteTime": 12480,
      "hitSuccessfully": true
    },
    {
      "note": 36,
      "velocity": 58,
      "hitTime": 13296,
      "closestNoteTime": 13440,
      "hitSuccessfully": true
    },
    {
      "note": 46,
      "velocity": 127,
      "hitTime": 13377,
      "closestNoteTime": 13440,
      "hitSuccessfully": true
    },
    {
      "note": 36,
      "velocity": 52,
      "hitTime": 14241,
      "closestNoteTime": 14400,
      "hitSuccessfully": false
    },
    {
      "note": 46,
      "velocity": 127,
      "hitTime": 14299,
      "closestNoteTime": 14400,
      "hitSuccessfully": true
    },
    {
      "note": 36,
      "velocity": 64,
      "hitTime": 15220,
      "closestNoteTime": 15360,
      "hitSuccessfully": true
    },
    {
      "note": 38,
      "velocity": 87,
      "hitTime": 15243,
      "closestNoteTime": 15360,
      "hitSuccessfully": false
    },
    {
      "note": 46,
      "velocity": 100,
      "hitTime": 15243,
      "closestNoteTime": 15360,
      "hitSuccessfully": true
    },
    {
      "note": 36,
      "velocity": 51,
      "hitTime": 16188,
      "closestNoteTime": 16320,
      "hitSuccessfully": false
    },
    {
      "note": 46,
      "velocity": 96,
      "hitTime": 16246,
      "closestNoteTime": 16320,
      "hitSuccessfully": true
    },
    {
      "note": 36,
      "velocity": 55,
      "hitTime": 17022,
      "closestNoteTime": 16800,
      "hitSuccessfully": true
    },
    {
      "note": 38,
      "velocity": 89,
      "hitTime": 17126,
      "closestNoteTime": 17280,
      "hitSuccessfully": false
    },
    {
      "note": 46,
      "velocity": 93,
      "hitTime": 17150,
      "closestNoteTime": 17280,
      "hitSuccessfully": true
    },
    {
      "note": 36,
      "velocity": 58,
      "hitTime": 17943,
      "closestNoteTime": 17760,
      "hitSuccessfully": false
    },
    {
      "note": 46,
      "velocity": 96,
      "hitTime": 18048,
      "closestNoteTime": 18240,
      "hitSuccessfully": true
    },
    {
      "note": 36,
      "velocity": 58,
      "hitTime": 18847,
      "closestNoteTime": 18720,
      "hitSuccessfully": true
    },
    {
      "note": 38,
      "velocity": 91,
      "hitTime": 18907,
      "closestNoteTime": 18720,
      "hitSuccessfully": false
    },
    {
      "note": 46,
      "velocity": 102,
      "hitTime": 18948,
      "closestNoteTime": 18720,
      "hitSuccessfully": true
    },
    {
      "note": 36,
      "velocity": 48,
      "hitTime": 19811,
      "closestNoteTime": 19680,
      "hitSuccessfully": false
    },
    {
      "note": 46,
      "velocity": 99,
      "hitTime": 19874,
      "closestNoteTime": 19680,
      "hitSuccessfully": true
    },
    {
      "note": 36,
      "velocity": 34,
      "hitTime": 20796,
      "closestNoteTime": 20640,
      "hitSuccessfully": true
    },
    {
      "note": 38,
      "velocity": 84,
      "hitTime": 20796,
      "closestNoteTime": 20640,
      "hitSuccessfully": false
    },
    {
      "note": 46,
      "velocity": 89,
      "hitTime": 20832,
      "closestNoteTime": 20640,
      "hitSuccessfully": true
    },
    {
      "note": 46,
      "velocity": 76,
      "hitTime": 21735,
      "closestNoteTime": 21600,
      "hitSuccessfully": true
    },
    {
      "note": 36,
      "velocity": 23,
      "hitTime": 21816,
      "closestNoteTime": 22080,
      "hitSuccessfully": false
    },
    {
      "note": 46,
      "velocity": 94,
      "hitTime": 24154,
      "closestNoteTime": 24000,
      "hitSuccessfully": true
    },
    {
      "note": 36,
      "velocity": 58,
      "hitTime": 24212,
      "closestNoteTime": 24000,
      "hitSuccessfully": false
    },
    {
      "note": 46,
      "velocity": 67,
      "hitTime": 24212,
      "closestNoteTime": 24000,
      "hitSuccessfully": true
    },
    {
      "note": 46,
      "velocity": 85,
      "hitTime": 25053,
      "closestNoteTime": 24960,
      "hitSuccessfully": true
    },
    {
      "note": 36,
      "velocity": 22,
      "hitTime": 25130,
      "closestNoteTime": 24960,
      "hitSuccessfully": true
    },
    {
      "note": 36,
      "velocity": 46,
      "hitTime": 25957,
      "closestNoteTime": 25920,
      "hitSuccessfully": false
    },
    {
      "note": 46,
      "velocity": 93,
      "hitTime": 26037,
      "closestNoteTime": 25920,
      "hitSuccessfully": true
    },
    {
      "note": 36,
      "velocity": 52,
      "hitTime": 26896,
      "closestNoteTime": 26880,
      "hitSuccessfully": true
    },
    {
      "note": 46,
      "velocity": 94,
      "hitTime": 26936,
      "closestNoteTime": 26880,
      "hitSuccessfully": true
    },
    {
      "note": 36,
      "velocity": 46,
      "hitTime": 27817,
      "closestNoteTime": 27840,
      "hitSuccessfully": false
    },
    {
      "note": 46,
      "velocity": 97,
      "hitTime": 27856,
      "closestNoteTime": 27840,
      "hitSuccessfully": true
    },
    {
      "note": 36,
      "velocity": 36,
      "hitTime": 28779,
      "closestNoteTime": 28800,
      "hitSuccessfully": true
    },
    {
      "note": 46,
      "velocity": 91,
      "hitTime": 28802,
      "closestNoteTime": 28800,
      "hitSuccessfully": true
    },
    {
      "note": 36,
      "velocity": 46,
      "hitTime": 29684,
      "closestNoteTime": 29760,
      "hitSuccessfully": false
    },
    {
      "note": 46,
      "velocity": 91,
      "hitTime": 29741,
      "closestNoteTime": 29760,
      "hitSuccessfully": true
    },
    {
      "note": 36,
      "velocity": 56,
      "hitTime": 30623,
      "closestNoteTime": 30240,
      "hitSuccessfully": false
    },
    {
      "note": 38,
      "velocity": 84,
      "hitTime": 30662,
      "closestNoteTime": 30240,
      "hitSuccessfully": false
    }
  ]
}