{"frames":[{"note":46,"velocity":60,"hitTime":64,"closestNoteTime":0,"hitSuccessfully":true},{"note":46,"velocity":79,"hitTime":560,"closestNoteTime":480,"hitSuccessfully":true},{"note":46,"velocity":75,"hitTime":984,"closestNoteTime":960,"hitSuccessfully":true},{"note":46,"velocity":73,"hitTime":1424,"closestNoteTime":1440,"hitSuccessfully":true},{"note":46,"velocity":73,"hitTime":1896,"closestNoteTime":1920,"hitSuccessfully":true},{"note":46,"velocity":72,"hitTime":2352,"closestNoteTime":2400,"hitSuccessfully":true},{"note":46,"velocity":70,"hitTime":3136,"closestNoteTime":3360,"hitSuccessfully":false},{"note":46,"velocity":60,"hitTime":3552,"closestNoteTime":3360,"hitSuccessfully":false},{"note":46,"velocity":75,"hitTime":4040,"closestNoteTime":3840,"hitSuccessfully":false},{"note":46,"velocity":77,"hitTime":4448,"closestNoteTime":4320,"hitSuccessfully":true},{"note":38,"velocity":75,"hitTime":4856,"closestNoteTime":4800,"hitSuccessfully":true},{"note":46,"velocity":76,"hitTime":5040,"closestNoteTime":4800,"hitSuccessfully":false},{"note":46,"velocity":74,"hitTime":5376,"closestNoteTime":5280,"hitSuccessfully":true},{"note":46,"velocity":75,"hitTime":5832,"closestNoteTime":5760,"hitSuccessfully":true},{"note":46,"velocity":77,"hitTime":6272,"closestNoteTime":6240,"hitSuccessfully":true},{"note":38,"velocity":74,"hitTime":6664,"closestNoteTime":6720,"hitSuccessfully":true},{"note":46,"velocity":80,"hitTime":7064,"closestNoteTime":7200,"hitSuccessfully":true},{"note":46,"velocity":76,"hitTime":7464,"closestNoteTime":7680,"hitSuccessfully":false},{"note":46,"velocity":79,"hitTime":7960,"closestNoteTime":8160,"hitSuccessfully":false},{"note":46,"velocity":77,"hitTime":8376,"closestNoteTime":8160,"hitSuccessfully":false},{"note":46,"velocity":74,"hitTime":8960,"closestNoteTime":9120,"hitSuccessfully":false},{"note":46,"velocity":72,"hitTime":9416,"closestNoteTime":9600,"hitSuccessfully":false},{"note":46,"velocity":73,"hitTime":9848,"closestNoteTime":10080,"hitSuccessfully":false},{"note":38,"velocity":70,"hitTime":10328,"closestNoteTime":10560,"hitSuccessfully":false},{"note":46,"velocity":76,"hitTime":10784,"closestNoteTime":10560,"hitSuccessfully":false},{"note":46,"velocity":76,"hitTime":11264,"closestNoteTime":11040,"hitSuccessfully":false},{"note":46,"velocity":70,"hitTime":11720,"closestNoteTime":11520,"hitSuccessfully":false},{"note":46,"velocity":76,"hitTime":12200,"closestNoteTime":12000,"hitSuccessfully":false},{"note":38,"velocity":74,"hitTime":12520,"closestNoteTime":12480,"hitSuccessfully":true},{"note":46,"velocity":74,"hitTime":12888,"closestNoteTime":12960,"hitSuccessfully":true},{"note":46,"velocity":74,"hitTime":13328,"closestNoteTime":13440,"hitSuccessfully":true},{"note":46,"velocity":75,"hitTime":13808,"closestNoteTime":13920,"hitSuccessfully":true},{"note":46,"velocity":80,"hitTime":14288,"closestNoteTime":14400,"hitSuccessfully":true},{"note":38,"velocity":73,"hitTime":14496,"closestNoteTime":14400,"hitSuccessfully":true},{"note":46,"velocity":76,"hitTime":14840,"closestNoteTime":14880,"hitSuccessfully":true},{"note":46,"velocity":76,"hitTime":15312,"closestNoteTime":12480,"hitSuccessfully":false}]}