{"frames":[{"note":36,"velocity":52,"hitTime":-176,"closestNoteTime":0,"hitSuccessfully":false},{"note":46,"velocity":60,"hitTime":64,"closestNoteTime":0,"hitSuccessfully":true},{"note":46,"velocity":72,"hitTime":440,"closestNoteTime":480,"hitSuccessfully":true},{"note":46,"velocity":76,"hitTime":864,"closestNoteTime":960,"hitSuccessfully":true},{"note":46,"velocity":77,"hitTime":1320,"closestNoteTime":1440,"hitSuccessfully":true},{"note":46,"velocity":79,"hitTime":1696,"closestNoteTime":1920,"hitSuccessfully":false},{"note":36,"velocity":51,"hitTime":1736,"closestNoteTime":1920,"hitSuccessfully":false},{"note":36,"velocity":20,"hitTime":1840,"closestNoteTime":1920,"hitSuccessfully":true},{"note":46,"velocity":73,"hitTime":2080,"closestNoteTime":1920,"hitSuccessfully":false},{"note":46,"velocity":72,"hitTime":2512,"closestNoteTime":2400,"hitSuccessfully":true},{"note":46,"velocity":74,"hitTime":3024,"closestNoteTime":2880,"hitSuccessfully":true},{"note":46,"velocity":77,"hitTime":3472,"closestNoteTime":3360,"hitSuccessfully":true},{"note":46,"velocity":80,"hitTime":3888,"closestNoteTime":3840,"hitSuccessfully":true},{"note":36,"velocity":61,"hitTime":3928,"closestNoteTime":3840,"hitSuccessfully":true},{"note":46,"velocity":77,"hitTime":4320,"closestNoteTime":4320,"hitSuccessfully":true},{"note":46,"velocity":75,"hitTime":4856,"closestNoteTime":4800,"hitSuccessfully":true},{"note":46,"velocity":73,"hitTime":5296,"closestNoteTime":5280,"hitSuccessfully":true},{"note":46,"velocity":77,"hitTime":5768,"closestNoteTime":5760,"hitSuccessfully":true},{"note":36,"velocity":64,"hitTime":5928,"closestNoteTime":5760,"hitSuccessfully":false},{"note":46,"velocity":70,"hitTime":6224,"closestNoteTime":6240,"hitSuccessfully":true},{"note":46,"velocity":67,"hitTime":6704,"closestNoteTime":6720,"hitSuccessfully":true},{"note":46,"velocity":77,"hitTime":7208,"closestNoteTime":7200,"hitSuccessfully":true},{"note":46,"velocity":73,"hitTime":7576,"closestNoteTime":7680,"hitSuccessfully":true},{"note":36,"velocity":44,"hitTime":7736,"closestNoteTime":7680,"hitSuccessfully":true},{"note":46,"velocity":73,"hitTime":7984,"closestNoteTime":8160,"hitSuccessfully":false},{"note":46,"velocity":70,"hitTime":8480,"closestNoteTime":8640,"hitSuccessfully":false},{"note":46,"velocity":75,"hitTime":8912,"closestNoteTime":9120,"hitSuccessfully":false},{"note":46,"velocity":77,"hitTime":9336,"closestNoteTime":9120,"hitSuccessfully":false},{"note":46,"velocity":66,"hitTime":9632,"closestNoteTime":9600,"hitSuccessfully":true},{"note":36,"velocity":61,"hitTime":9688,"closestNoteTime":9600,"hitSuccessfully":true},{"note":46,"velocity":70,"hitTime":10008,"closestNoteTime":10080,"hitSuccessfully":true},{"note":46,"velocity":70,"hitTime":10528,"closestNoteTime":10560,"hitSuccessfully":true},{"note":46,"velocity":75,"hitTime":11016,"closestNoteTime":11040,"hitSuccessfully":true},{"note":46,"velocity":73,"hitTime":11464,"closestNoteTime":11520,"hitSuccessfully":true},{"note":36,"velocity":62,"hitTime":11584,"closestNoteTime":11520,"hitSuccessfully":true},{"note":46,"velocity":64,"hitTime":11976,"closestNoteTime":12000,"hitSuccessfully":true},{"note":46,"velocity":73,"hitTime":12536,"closestNoteTime":12480,"hitSuccessfully":true},{"note":46,"velocity":76,"hitTime":12952,"closestNoteTime":12960,"hitSuccessfully":true},{"note":46,"velocity":77,"hitTime":13408,"closestNoteTime":13440,"hitSuccessfully":true},{"note":36,"velocity":48,"hitTime":13520,"closestNoteTime":13440,"hitSuccessfully":true},{"note":46,"velocity":64,"hitTime":13928,"closestNoteTime":13920,"hitSuccessfully":true},{"note":46,"velocity":77,"hitTime":14424,"closestNoteTime":14400,"hitSuccessfully":true},{"note":46,"velocity":75,"hitTime":14912,"closestNoteTime":14880,"hitSuccessfully":true}]}