{
  "frames": [
    {
      "note": 46,
      "velocity": 100,
      "hitTime": 118,
      "closestNoteTime": 0,
      "hitSuccessfully": true
    },
    {
      "note": 46,
      "velocity": 91,
      "hitTime": 590,
      "closestNoteTime": 480,
      "hitSuccessfully": true
    },
    {
      "note": 40,
      "velocity": 116,
      "hitTime": 1039,
      "closestNoteTime": 960,
      "hitSuccessfully": false
    },
    {
      "note": 46,
      "velocity": 102,
      "hitTime": 1060,
      "closestNoteTime": 960,
      "hitSuccessfully": true
    },
    {
      "note": 46,
      "velocity": 79,
      "hitTime": 1471,
      "closestNoteTime": 1440,
      "hitSuccessfully": true
    },
    {
      "note": 46,
      "velocity": 90,
      "hitTime": 1961,
      "closestNoteTime": 1920,
      "hitSuccessfully": true
    },
    {
      "note": 46,
      "velocity": 86,
      "hitTime": 2415,
      "closestNoteTime": 2400,
      "hitSuccessfully": true
    },
    {
      "note": 40,
      "velocity": 115,
      "hitTime": 2901,
      "closestNoteTime": 2880,
      "hitSuccessfully": false
    },
    {
      "note": 46,
      "velocity": 104,
      "hitTime": 2905,
      "closestNoteTime": 2880,
      "hitSuccessfully": true
    },
    {
      "note": 46,
      "velocity": 83,
      "hitTime": 3354,
      "closestNoteTime": 3360,
      "hitSuccessfully": true
    },
    {
      "note": 46,
      "velocity": 88,
      "hitTime": 3787,
      "closestNoteTime": 3840,
      "hitSuccessfully": true
    },
    {
      "note": 46,
      "velocity": 91,
      "hitTime": 4236,
      "closestNoteTime": 4320,
      "hitSuccessfully": true
    },
    {
      "note": 40,
      "velocity": 119,
      "hitTime": 4749,
      "closestNoteTime": 4800,
      "hitSuccessfully": false
    },
    {
      "note": 46,
      "velocity": 109,
      "hitTime": 4750,
      "closestNoteTime": 4800,
      "hitSuccessfully": true
    },
    {
      "note": 46,
      "velocity": 88,
      "hitTime": 5198,
      "closestNoteTime": 5280,
      "hitSuccessfully": true
    },
    {
      "note": 46,
      "velocity": 89,
      "hitTime": 5669,
      "closestNoteTime": 5760,
      "hitSuccessfully": true
    },
    {
      "note": 46,
      "velocity": 89,
      "hitTime": 6139,
      "closestNoteTime": 6240,
      "hitSuccessfully": true
    },
    {
      "note": 46,
      "velocity": 93,
      "hitTime": 6613,
      "closestNoteTime": 6720,
      "hitSuccessfully": true
    },
    {
      "note": 40,
      "velocity": 127,
      "hitTime": 6615,
      "closestNoteTime": 6720,
      "hitSuccessfully": false
    },
    {
      "note": 46,
      "velocity": 99,
      "hitTime": 7064,
      "closestNoteTime": 7200,
      "hitSuccessfully": true
    },
    {
      "note": 46,
      "velocity": 90,
      "hitTime": 7536,
      "closestNoteTime": 7680,
      "hitSuccessfully": true
    },
    {
      "note": 46,
      "velocity": 86,
      "hitTime": 7986,
      "closestNoteTime": 8160,
      "hitSuccessfully": true
    },
    {
      "note": 46,
      "velocity": 64,
      "hitTime": 8063,
      "closestNoteTime": 7680,
      "hitSuccessfully": false
    },
    {
      "note": 38,
      "velocity": 103,
      "hitTime": 8435,
      "closestNoteTime": 8640,
      "hitSuccessfully": true
    },
    {
      "note": 46,
      "velocity": 105,
      "hitTime": 8474,
      "closestNoteTime": 8640,
      "hitSuccessfully": true
    },
    {
      "note": 46,
      "velocity": 87,
      "hitTime": 8948,
      "closestNoteTime": 9120,
      "hitSuccessfully": true
    },
    {
      "note": 46,
      "velocity": 87,
      "hitTime": 9380,
      "closestNoteTime": 9600,
      "hitSuccessfully": true
    },
    {
      "note": 46,
      "velocity": 84,
      "hitTime": 9844,
      "closestNoteTime": 10080,
      "hitSuccessfully": true
    },
    {
      "note": 38,
      "velocity": 96,
      "hitTime": 10301,
      "closestNoteTime": 10560,
      "hitSuccessfully": true
    },
    {
      "note": 46,
      "velocity": 104,
      "hitTime": 10339,
      "closestNoteTime": 10560,
      "hitSuccessfully": true
    },
    {
      "note": 36,
      "velocity": 88,
      "hitTime": 10422,
      "closestNoteTime": 11040,
      "hitSuccessfully": false
    },
    {
      "note": 46,
      "velocity": 85,
      "hitTime": 10849,
      "closestNoteTime": 11040,
      "hitSuccessfully": true
    },
    {
      "note": 46,
      "velocity": 85,
      "hitTime": 11240,
      "closestNoteTime": 11520,
      "hitSuccessfully": true
    },
    {
      "note": 46,
      "velocity": 64,
      "hitTime": 11304,
      "closestNoteTime": 11520,
      "hitSuccessfully": false
    },
    {
      "note": 46,
      "velocity": 80,
      "hitTime": 11672,
      "closestNoteTime": 11520,
      "hitSuccessfully": true
    },
    {
      "note": 38,
      "velocity": 99,
      "hitTime": 12142,
      "closestNoteTime": 12480,
      "hitSuccessfully": true
    },
    {
      "note": 46,
      "velocity": 98,
      "hitTime": 12144,
      "closestNoteTime": 12480,
      "hitSuccessfully": true
    },
    {
      "note": 46,
      "velocity": 89,
      "hitTime": 12571,
      "closestNoteTime": 12960,
      "hitSuccessfully": true
    },
    {
      "note": 46,
      "velocity": 87,
      "hitTime": 13020,
      "closestNoteTime": 13440,
      "hitSuccessfully": true
    },
    {
      "note": 46,
      "velocity": 85,
      "hitTime": 13452,
      "closestNoteTime": 13440,
      "hitSuccessfully": true
    },
    {
      "note": 46,
      "velocity": 65,
      "hitTime": 13529,
      "closestNoteTime": 13440,
      "hitSuccessfully": false
    },
    {
      "note": 46,
      "velocity": 101,
      "hitTime": 13942,
      "closestNoteTime": 14400,
      "hitSuccessfully": true
    },
    {
      "note": 38,
      "velocity": 87,
      "hitTime": 13942,
      "closestNoteTime": 14400,
      "hitSuccessfully": true
    },
    {
      "note": 46,
      "velocity": 88,
      "hitTime": 14414,
      "closestNoteTime": 14880,
      "hitSuccessfully": true
    },
    {
      "note": 46,
      "velocity": 87,
      "hitTime": 14846,
      "closestNoteTime": 15360,
      "hitSuccessfully": true
    },
    {
      "note": 46,
      "velocity": 67,
      "hitTime": 14909,
      "closestNoteTime": 15360,
      "hitSuccessfully": false
    },
    {
      "note": 46,
      "velocity": 88,
      "hitTime": 15313,
      "closestNoteTime": 15360,
      "hitSuccessfully": true
    },
    {
      "note": 46,
      "velocity": 103,
      "hitTime": 15768,
      "closestNoteTime": 15360,
      "hitSuccessfully": true
    },
    {
      "note": 38,
      "velocity": 99,
      "hitTime": 15782,
      "closestNoteTime": 15360,
      "hitSuccessfully": true
    },
    {
      "note": 38,
      "velocity": 47,
      "hitTime": 15888,
      "closestNoteTime": 15360,
      "hitSuccessfully": false
    },
    {
      "note": 46,
      "velocity": 82,
      "hitTime": 16217,
      "closestNoteTime": 16800,
      "hitSuccessfully": false
    },
    {
      "note": 46,
      "velocity": 77,
      "hitTime": 16689,
      "closestNoteTime": 16800,
      "hitSuccessfully": true
    },
    {
      "note": 46,
      "velocity": 80,
      "hitTime": 17099,
      "closestNoteTime": 17280,
      "hitSuccessfully": true
    },
    {
      "note": 46,
      "velocity": 96,
      "hitTime": 17566,
      "closestNoteTime": 17760,
      "hitSuccessfully": true
    },
    {
      "note": 38,
      "velocity": 92,
      "hitTime": 17570,
      "closestNoteTime": 17280,
      "hitSuccessfully": false
    },
    {
      "note": 46,
      "velocity": 101,
      "hitTime": 23154,
      "closestNoteTime": 23040,
      "hitSuccessfully": true
    },
    {
      "note": 46,
      "velocity": 88,
      "hitTime": 23609,
      "closestNoteTime": 23520,
      "hitSuccessfully": true
    },
    {
      "note": 46,
      "velocity": 97,
      "hitTime": 24062,
      "closestNoteTime": 24000,
      "hitSuccessfully": true
    },
    {
      "note": 38,
      "velocity": 87,
      "hitTime": 24077,
      "closestNoteTime": 24000,
      "hitSuccessfully": true
    },
    {
      "note": 46,
      "velocity": 76,
      "hitTime": 24494,
      "closestNoteTime": 24480,
      "hitSuccessfully": true
    },
    {
      "note": 46,
      "velocity": 87,
      "hitTime": 24943,
      "closestNoteTime": 24960,
      "hitSuccessfully": true
    },
    {
      "note": 46,
      "velocity": 88,
      "hitTime": 25416,
      "closestNoteTime": 25440,
      "hitSuccessfully": true
    },
    {
      "note": 40,
      "velocity": 122,
      "hitTime": 25905,
      "closestNoteTime": 25920,
      "hitSuccessfully": false
    },
    {
      "note": 46,
      "velocity": 106,
      "hitTime": 25905,
      "closestNoteTime": 25920,
      "hitSuccessfully": true
    },
    {
      "note": 46,
      "velocity": 86,
      "hitTime": 26395,
      "closestNoteTime": 26400,
      "hitSuccessfully": true
    },
    {
      "note": 46,
      "velocity": 91,
      "hitTime": 26804,
      "closestNoteTime": 26880,
      "hitSuccessfully": true
    },
    {
      "note": 46,
      "velocity": 87,
      "hitTime": 27254,
      "closestNoteTime": 27360,
      "hitSuccessfully": true
    },
    {
      "note": 46,
      "velocity": 103,
      "hitTime": 27762,
      "closestNoteTime": 27840,
      "hitSuccessfully": true
    },
    {
      "note": 38,
      "velocity": 96,
      "hitTime": 27766,
      "closestNoteTime": 27840,
      "hitSuccessfully": true
    },
    {
      "note": 46,
      "velocity": 90,
      "hitTime": 28238,
      "closestNoteTime": 28320,
      "hitSuccessfully": true
    },
    {
      "note": 46,
      "velocity": 89,
      "hitTime": 28687,
      "closestNoteTime": 28800,
      "hitSuccessfully": true
    },
    {
      "note": 46,
      "velocity": 88,
      "hitTime": 29116,
      "closestNoteTime": 29280,
      "hitSuccessfully": true
    },
    {
      "note": 36,
      "velocity": 73,
      "hitTime": 29488,
      "closestNoteTime": 29760,
      "hitSuccessfully": false
    },
    {
      "note": 40,
      "velocity": 127,
      "hitTime": 29592,
      "closestNoteTime": 29760,
      "hitSuccessfully": false
    },
    {
      "note": 46,
      "velocity": 107,
      "hitTime": 29606,
      "closestNoteTime": 29760,
      "hitSuccessfully": true
    },
    {
      "note": 46,
      "velocity": 96,
      "hitTime": 30121,
      "closestNoteTime": 30240,
      "hitSuccessfully": true
    }
  ]
}