{"frames":[{"note":46,"velocity":80,"hitTime":256,"closestNoteTime":0,"hitSuccessfully":true},{"note":36,"velocity":48,"hitTime":288,"closestNoteTime":0,"hitSuccessfully":true},{"note":46,"velocity":75,"hitTime":752,"closestNoteTime":480,"hitSuccessfully":true},{"note":36,"velocity":58,"hitTime":928,"closestNoteTime":1920,"hitSuccessfully":false},{"note":46,"velocity":83,"hitTime":1200,"closestNoteTime":960,"hitSuccessfully":true},{"note":36,"velocity":55,"hitTime":1472,"closestNoteTime":1920,"hitSuccessfully":false},{"note":46,"velocity":85,"hitTime":1744,"closestNoteTime":1920,"hitSuccessfully":true},{"note":36,"velocity":35,"hitTime":2032,"closestNoteTime":1920,"hitSuccessfully":true},{"note":46,"velocity":86,"hitTime":2240,"closestNoteTime":2400,"hitSuccessfully":true},{"note":36,"velocity":61,"hitTime":2560,"closestNoteTime":3840,"hitSuccessfully":false},{"note":36,"velocity":52,"hitTime":3392,"closestNoteTime":3840,"hitSuccessfully":false},{"note":46,"velocity":91,"hitTime":3616,"closestNoteTime":3360,"hitSuccessfully":true},{"note":36,"velocity":51,"hitTime":3936,"closestNoteTime":3840,"hitSuccessfully":true},{"note":46,"velocity":87,"hitTime":4096,"closestNoteTime":3840,"hitSuccessfully":true},{"note":36,"velocity":26,"hitTime":4544,"closestNoteTime":5760,"hitSuccessfully":false},{"note":46,"velocity":86,"hitTime":4544,"closestNoteTime":4320,"hitSuccessfully":true},{"note":46,"velocity":85,"hitTime":5008,"closestNoteTime":4800,"hitSuccessfully":true},{"note":36,"velocity":42,"hitTime":5088,"closestNoteTime":5760,"hitSuccessfully":false},{"note":46,"velocity":82,"hitTime":5408,"closestNoteTime":5280,"hitSuccessfully":true},{"note":36,"velocity":32,"hitTime":5584,"closestNoteTime":5760,"hitSuccessfully":true},{"note":46,"velocity":80,"hitTime":5760,"closestNoteTime":5760,"hitSuccessfully":true},{"note":36,"velocity":55,"hitTime":6080,"closestNoteTime":7680,"hitSuccessfully":false},{"note":36,"velocity":48,"hitTime":6992,"closestNoteTime":7680,"hitSuccessfully":false},{"note":46,"velocity":88,"hitTime":7072,"closestNoteTime":7200,"hitSuccessfully":true},{"note":46,"velocity":85,"hitTime":7568,"closestNoteTime":7680,"hitSuccessfully":true},{"note":46,"velocity":90,"hitTime":8048,"closestNoteTime":8160,"hitSuccessfully":true},{"note":36,"velocity":61,"hitTime":8464,"closestNoteTime":7680,"hitSuccessfully":false},{"note":46,"velocity":85,"hitTime":8544,"closestNoteTime":8640,"hitSuccessfully":true},{"note":36,"velocity":46,"hitTime":8912,"closestNoteTime":9600,"hitSuccessfully":false},{"note":46,"velocity":80,"hitTime":8992,"closestNoteTime":9120,"hitSuccessfully":true},{"note":46,"velocity":79,"hitTime":9424,"closestNoteTime":9600,"hitSuccessfully":true},{"note":36,"velocity":83,"hitTime":9776,"closestNoteTime":9600,"hitSuccessfully":true},{"note":46,"velocity":83,"hitTime":10736,"closestNoteTime":10560,"hitSuccessfully":true},{"note":46,"velocity":87,"hitTime":11216,"closestNoteTime":11040,"hitSuccessfully":true},{"note":46,"velocity":89,"hitTime":11696,"closestNoteTime":11520,"hitSuccessfully":true},{"note":46,"velocity":85,"hitTime":12128,"closestNoteTime":12000,"hitSuccessfully":true},{"note":46,"velocity":83,"hitTime":12560,"closestNoteTime":12480,"hitSuccessfully":true},{"note":36,"velocity":91,"hitTime":13136,"closestNoteTime":13440,"hitSuccessfully":false},{"note":46,"velocity":83,"hitTime":13760,"closestNoteTime":13920,"hitSuccessfully":true},{"note":46,"velocity":89,"hitTime":14608,"closestNoteTime":14400,"hitSuccessfully":true},{"note":46,"velocity":87,"hitTime":15072,"closestNoteTime":14880,"hitSuccessfully":true},{"note":46,"velocity":84,"hitTime":15552,"closestNoteTime":15360,"hitSuccessfully":true},{"note":46,"velocity":80,"hitTime":15952,"closestNoteTime":15840,"hitSuccessfully":true},{"note":46,"velocity":85,"hitTime":16432,"closestNoteTime":16320,"hitSuccessfully":true},{"note":46,"velocity":79,"hitTime":16784,"closestNoteTime":16800,"hitSuccessfully":true},{"note":36,"velocity":70,"hitTime":17232,"closestNoteTime":17280,"hitSuccessfully":true},{"note":46,"velocity":89,"hitTime":18144,"closestNoteTime":18240,"hitSuccessfully":true},{"note":46,"velocity":88,"hitTime":18608,"closestNoteTime":18720,"hitSuccessfully":true},{"note":36,"velocity":36,"hitTime":18688,"closestNoteTime":19200,"hitSuccessfully":false},{"note":46,"velocity":90,"hitTime":19088,"closestNoteTime":19200,"hitSuccessfully":true},{"note":46,"velocity":87,"hitTime":19600,"closestNoteTime":19680,"hitSuccessfully":true},{"note":46,"velocity":88,"hitTime":20080,"closestNoteTime":20160,"hitSuccessfully":true},{"note":46,"velocity":83,"hitTime":20448,"closestNoteTime":20640,"hitSuccessfully":true},{"note":36,"velocity":46,"hitTime":20672,"closestNoteTime":21120,"hitSuccessfully":false},{"note":36,"velocity":28,"hitTime":21152,"closestNoteTime":21120,"hitSuccessfully":true},{"note":46,"velocity":90,"hitTime":21552,"closestNoteTime":21600,"hitSuccessfully":true},{"note":46,"velocity":80,"hitTime":22240,"closestNoteTime":22080,"hitSuccessfully":true},{"note":46,"velocity":80,"hitTime":22704,"closestNoteTime":22560,"hitSuccessfully":true},{"note":46,"velocity":79,"hitTime":23104,"closestNoteTime":23040,"hitSuccessfully":true},{"note":46,"velocity":77,"hitTime":23536,"closestNoteTime":23520,"hitSuccessfully":true},{"note":46,"velocity":79,"hitTime":24016,"closestNoteTime":24000,"hitSuccessfully":true},{"note":36,"velocity":60,"hitTime":24272,"closestNoteTime":24960,"hitSuccessfully":false},{"note":46,"velocity":85,"hitTime":25376,"closestNoteTime":25440,"hitSuccessfully":true},{"note":36,"velocity":51,"hitTime":25424,"closestNoteTime":24960,"hitSuccessfully":false},{"note":46,"velocity":79,"hitTime":25808,"closestNoteTime":25920,"hitSuccessfully":true},{"note":46,"velocity":80,"hitTime":26256,"closestNoteTime":26400,"hitSuccessfully":true},{"note":46,"velocity":83,"hitTime":26768,"closestNoteTime":26880,"hitSuccessfully":true},{"note":46,"velocity":82,"hitTime":27168,"closestNoteTime":27360,"hitSuccessfully":true},{"note":46,"velocity":80,"hitTime":27600,"closestNoteTime":27840,"hitSuccessfully":true},{"note":46,"velocity":82,"hitTime":29024,"closestNoteTime":28800,"hitSuccessfully":true},{"note":46,"velocity":83,"hitTime":29504,"closestNoteTime":29280,"hitSuccessfully":true},{"note":36,"velocity":27,"hitTime":29632,"closestNoteTime":28800,"hitSuccessfully":false},{"note":46,"velocity":82,"hitTime":29984,"closestNoteTime":29760,"hitSuccessfully":true},{"note":46,"velocity":82,"hitTime":30416,"closestNoteTime":30240,"hitSuccessfully":true}]}