{"frames":[{"note":46,"velocity":76,"hitTime":48,"closestNoteTime":0,"hitSuccessfully":true},{"note":46,"velocity":65,"hitTime":504,"closestNoteTime":480,"hitSuccessfully":true},{"note":46,"velocity":70,"hitTime":984,"closestNoteTime":960,"hitSuccessfully":true},{"note":46,"velocity":75,"hitTime":1472,"closestNoteTime":1440,"hitSuccessfully":true},{"note":46,"velocity":76,"hitTime":1952,"closestNoteTime":1920,"hitSuccessfully":true},{"note":46,"velocity":70,"hitTime":2432,"closestNoteTime":2400,"hitSuccessfully":true},{"note":46,"velocity":74,"hitTime":2912,"closestNoteTime":2880,"hitSuccessfully":true},{"note":46,"velocity":76,"hitTime":3424,"closestNoteTime":3360,"hitSuccessfully":true},{"note":46,"velocity":75,"hitTime":3896,"closestNoteTime":3840,"hitSuccessfully":true},{"note":46,"velocity":75,"hitTime":4360,"closestNoteTime":4320,"hitSuccessfully":true},{"note":46,"velocity":85,"hitTime":4832,"closestNoteTime":4800,"hitSuccessfully":true},{"note":46,"velocity":70,"hitTime":5328,"closestNoteTime":5280,"hitSuccessfully":true},{"note":46,"velocity":74,"hitTime":5792,"closestNoteTime":5760,"hitSuccessfully":true},{"note":46,"velocity":80,"hitTime":6280,"closestNoteTime":6240,"hitSuccessfully":true},{"note":46,"velocity":75,"hitTime":6768,"closestNoteTime":6720,"hitSuccessfully":true},{"note":46,"velocity":65,"hitTime":7240,"closestNoteTime":7200,"hitSuccessfully":true},{"note":46,"velocity":80,"hitTime":7720,"closestNoteTime":7680,"hitSuccessfully":true},{"note":46,"velocity":70,"hitTime":8200,"closestNoteTime":8160,"hitSuccessfully":true},{"note":46,"velocity":73,"hitTime":8688,"closestNoteTime":8640,"hitSuccessfully":true},{"note":46,"velocity":77,"hitTime":9184,"closestNoteTime":9120,"hitSuccessfully":true},{"note":46,"velocity":76,"hitTime":9688,"closestNoteTime":9600,"hitSuccessfully":true},{"note":46,"velocity":79,"hitTime":10184,"closestNoteTime":10080,"hitSuccessfully":true},{"note":46,"velocity":62,"hitTime":10696,"closestNoteTime":10560,"hitSuccessfully":true},{"note":46,"velocity":62,"hitTime":11136,"closestNoteTime":11040,"hitSuccessfully":true},{"note":46,"velocity":66,"hitTime":11568,"closestNoteTime":11520,"hitSuccessfully":true},{"note":46,"velocity":66,"hitTime":12016,"closestNoteTime":12000,"hitSuccessfully":true},{"note":46,"velocity":66,"hitTime":12512,"closestNoteTime":12480,"hitSuccessfully":true},{"note":46,"velocity":74,"hitTime":12992,"closestNoteTime":12960,"hitSuccessfully":true},{"note":46,"velocity":77,"hitTime":13496,"closestNoteTime":13440,"hitSuccessfully":true},{"note":46,"velocity":66,"hitTime":13976,"closestNoteTime":13920,"hitSuccessfully":true},{"note":46,"velocity":70,"hitTime":14456,"closestNoteTime":14400,"hitSuccessfully":true},{"note":46,"velocity":60,"hitTime":14920,"closestNoteTime":14880,"hitSuccessfully":true}]}