{"frames":[{"note":36,"velocity":84,"hitTime":16,"closestNoteTime":0,"hitSuccessfully":true},{"note":46,"velocity":127,"hitTime":96,"closestNoteTime":0,"hitSuccessfully":true},{"note":46,"velocity":122,"hitTime":544,"closestNoteTime":480,"hitSuccessfully":true},{"note":46,"velocity":127,"hitTime":1008,"closestNoteTime":960,"hitSuccessfully":true},{"note":38,"velocity":116,"hitTime":1040,"closestNoteTime":960,"hitSuccessfully":true},{"note":46,"velocity":109,"hitTime":1408,"closestNoteTime":1440,"hitSuccessfully":true},{"note":46,"velocity":127,"hitTime":1920,"closestNoteTime":1920,"hitSuccessfully":true},{"note":36,"velocity":96,"hitTime":1936,"closestNoteTime":1920,"hitSuccessfully":true},{"note":46,"velocity":127,"hitTime":2368,"closestNoteTime":2400,"hitSuccessfully":true},{"note":46,"velocity":127,"hitTime":2880,"closestNoteTime":2880,"hitSuccessfully":true},{"note":38,"velocity":110,"hitTime":2880,"closestNoteTime":2880,"hitSuccessfully":true},{"note":38,"velocity":67,"hitTime":2960,"closestNoteTime":4800,"hitSuccessfully":false},{"note":46,"velocity":122,"hitTime":3280,"closestNoteTime":3360,"hitSuccessfully":true},{"note":46,"velocity":127,"hitTime":3760,"closestNoteTime":3840,"hitSuccessfully":true},{"note":36,"velocity":101,"hitTime":4000,"closestNoteTime":3840,"hitSuccessfully":true},{"note":46,"velocity":125,"hitTime":4224,"closestNoteTime":4320,"hitSuccessfully":true},{"note":46,"velocity":127,"hitTime":4656,"closestNoteTime":4800,"hitSuccessfully":true},{"note":46,"velocity":114,"hitTime":5056,"closestNoteTime":5280,"hitSuccessfully":true},{"note":46,"velocity":127,"hitTime":5536,"closestNoteTime":5760,"hitSuccessfully":true},{"note":36,"velocity":86,"hitTime":5792,"closestNoteTime":5760,"hitSuccessfully":true},{"note":46,"velocity":108,"hitTime":5904,"closestNoteTime":6240,"hitSuccessfully":false},{"note":46,"velocity":127,"hitTime":6816,"closestNoteTime":6720,"hitSuccessfully":true},{"note":46,"velocity":109,"hitTime":7264,"closestNoteTime":7200,"hitSuccessfully":true},{"note":46,"velocity":127,"hitTime":7760,"closestNoteTime":7680,"hitSuccessfully":true},{"note":46,"velocity":108,"hitTime":8208,"closestNoteTime":8160,"hitSuccessfully":true},{"note":46,"velocity":127,"hitTime":8688,"closestNoteTime":8640,"hitSuccessfully":true},{"note":46,"velocity":96,"hitTime":9200,"closestNoteTime":9120,"hitSuccessfully":true},{"note":46,"velocity":108,"hitTime":9600,"closestNoteTime":9600,"hitSuccessfully":true},{"note":46,"velocity":101,"hitTime":10080,"closestNoteTime":10080,"hitSuccessfully":true},{"note":46,"velocity":127,"hitTime":10560,"closestNoteTime":10560,"hitSuccessfully":true},{"note":46,"velocity":100,"hitTime":11072,"closestNoteTime":11040,"hitSuccessfully":true},{"note":46,"velocity":116,"hitTime":11536,"closestNoteTime":11520,"hitSuccessfully":true},{"note":46,"velocity":103,"hitTime":11984,"closestNoteTime":12000,"hitSuccessfully":true},{"note":46,"velocity":127,"hitTime":12496,"closestNoteTime":12480,"hitSuccessfully":true},{"note":46,"velocity":106,"hitTime":12944,"closestNoteTime":12960,"hitSuccessfully":true},{"note":46,"velocity":120,"hitTime":13456,"closestNoteTime":13440,"hitSuccessfully":true},{"note":46,"velocity":104,"hitTime":13888,"closestNoteTime":13920,"hitSuccessfully":true},{"note":46,"velocity":127,"hitTime":14416,"closestNoteTime":14400,"hitSuccessfully":true},{"note":46,"velocity":110,"hitTime":14800,"closestNoteTime":14880,"hitSuccessfully":true},{"note":36,"velocity":108,"hitTime":15328,"closestNoteTime":15360,"hitSuccessfully":true},{"note":46,"velocity":127,"hitTime":15392,"closestNoteTime":15360,"hitSuccessfully":true},{"note":46,"velocity":112,"hitTime":15792,"closestNoteTime":15840,"hitSuccessfully":true},{"note":46,"velocity":127,"hitTime":16288,"closestNoteTime":16320,"hitSuccessfully":true},{"note":38,"velocity":101,"hitTime":16288,"closestNoteTime":16320,"hitSuccessfully":true},{"note":38,"velocity":77,"hitTime":16352,"closestNoteTime":18240,"hitSuccessfully":false},{"note":46,"velocity":112,"hitTime":16752,"closestNoteTime":16800,"hitSuccessfully":true},{"note":46,"velocity":107,"hitTime":17184,"closestNoteTime":17280,"hitSuccessfully":true},{"note":46,"velocity":104,"hitTime":17600,"closestNoteTime":17760,"hitSuccessfully":true},{"note":46,"velocity":127,"hitTime":18096,"closestNoteTime":18240,"hitSuccessfully":true},{"note":36,"velocity":36,"hitTime":18112,"closestNoteTime":17280,"hitSuccessfully":false},{"note":46,"velocity":124,"hitTime":18656,"closestNoteTime":18720,"hitSuccessfully":true},{"note":46,"velocity":114,"hitTime":19056,"closestNoteTime":19200,"hitSuccessfully":true},{"note":46,"velocity":102,"hitTime":19424,"closestNoteTime":19680,"hitSuccessfully":true},{"note":38,"velocity":98,"hitTime":19904,"closestNoteTime":20160,"hitSuccessfully":true},{"note":46,"velocity":127,"hitTime":19904,"closestNoteTime":20160,"hitSuccessfully":true},{"note":38,"velocity":60,"hitTime":19984,"closestNoteTime":18240,"hitSuccessfully":false},{"note":46,"velocity":103,"hitTime":20384,"closestNoteTime":20640,"hitSuccessfully":true},{"note":46,"velocity":104,"hitTime":20880,"closestNoteTime":21120,"hitSuccessfully":true},{"note":46,"velocity":101,"hitTime":21328,"closestNoteTime":21600,"hitSuccessfully":true},{"note":46,"velocity":127,"hitTime":21776,"closestNoteTime":22080,"hitSuccessfully":false},{"note":38,"velocity":102,"hitTime":21808,"closestNoteTime":22080,"hitSuccessfully":true},{"note":46,"velocity":105,"hitTime":22272,"closestNoteTime":22080,"hitSuccessfully":true},{"note":46,"velocity":106,"hitTime":22688,"closestNoteTime":22560,"hitSuccessfully":true},{"note":46,"velocity":103,"hitTime":23152,"closestNoteTime":23040,"hitSuccessfully":true},{"note":46,"velocity":127,"hitTime":23632,"closestNoteTime":23520,"hitSuccessfully":true},{"note":38,"velocity":107,"hitTime":23664,"closestNoteTime":24000,"hitSuccessfully":false},{"note":38,"velocity":67,"hitTime":23712,"closestNoteTime":24000,"hitSuccessfully":true},{"note":46,"velocity":103,"hitTime":24080,"closestNoteTime":24000,"hitSuccessfully":true},{"note":46,"velocity":110,"hitTime":24560,"closestNoteTime":24480,"hitSuccessfully":true},{"note":46,"velocity":99,"hitTime":25024,"closestNoteTime":24960,"hitSuccessfully":true},{"note":46,"velocity":127,"hitTime":25504,"closestNoteTime":25440,"hitSuccessfully":true},{"note":38,"velocity":111,"hitTime":25504,"closestNoteTime":25920,"hitSuccessfully":false},{"note":38,"velocity":64,"hitTime":25584,"closestNoteTime":25920,"hitSuccessfully":false},{"note":46,"velocity":104,"hitTime":26016,"closestNoteTime":25920,"hitSuccessfully":true},{"note":46,"velocity":104,"hitTime":26416,"closestNoteTime":26400,"hitSuccessfully":true},{"note":46,"velocity":106,"hitTime":26928,"closestNoteTime":26880,"hitSuccessfully":true},{"note":46,"velocity":124,"hitTime":27376,"closestNoteTime":27360,"hitSuccessfully":true},{"note":38,"velocity":107,"hitTime":27408,"closestNoteTime":27840,"hitSuccessfully":false},{"note":46,"velocity":104,"hitTime":27856,"closestNoteTime":27840,"hitSuccessfully":true},{"note":46,"velocity":100,"hitTime":28336,"closestNoteTime":28320,"hitSuccessfully":true},{"note":46,"velocity":98,"hitTime":28800,"closestNoteTime":28800,"hitSuccessfully":true},{"note":46,"velocity":124,"hitTime":29248,"closestNoteTime":29280,"hitSuccessfully":true},{"note":46,"velocity":98,"hitTime":29712,"closestNoteTime":29760,"hitSuccessfully":true},{"note":46,"velocity":103,"hitTime":30224,"closestNoteTime":30240,"hitSuccessfully":true},{"note":46,"velocity":85,"hitTime":30672,"closestNoteTime":6240,"hitSuccessfully":false}]}