{"frames":[{"note":46,"velocity":83,"hitTime":40,"closestNoteTime":0,"hitSuccessfully":true},{"note":46,"velocity":79,"hitTime":496,"closestNoteTime":480,"hitSuccessfully":true},{"note":46,"velocity":77,"hitTime":976,"closestNoteTime":960,"hitSuccessfully":true},{"note":46,"velocity":80,"hitTime":1472,"closestNoteTime":1440,"hitSuccessfully":true},{"note":46,"velocity":79,"hitTime":1952,"closestNoteTime":1920,"hitSuccessfully":true},{"note":46,"velocity":80,"hitTime":2432,"closestNoteTime":2400,"hitSuccessfully":true},{"note":46,"velocity":80,"hitTime":2928,"closestNoteTime":2880,"hitSuccessfully":true},{"note":46,"velocity":82,"hitTime":3400,"closestNoteTime":3360,"hitSuccessfully":true},{"note":46,"velocity":79,"hitTime":3880,"closestNoteTime":3840,"hitSuccessfully":true},{"note":46,"velocity":82,"hitTime":4376,"closestNoteTime":4320,"hitSuccessfully":true},{"note":46,"velocity":82,"hitTime":4856,"closestNoteTime":4800,"hitSuccessfully":true},{"note":46,"velocity":80,"hitTime":5328,"closestNoteTime":5280,"hitSuccessfully":true},{"note":46,"velocity":82,"hitTime":5816,"closestNoteTime":5760,"hitSuccessfully":true},{"note":46,"velocity":80,"hitTime":6304,"closestNoteTime":6240,"hitSuccessfully":true},{"note":46,"velocity":80,"hitTime":6768,"closestNoteTime":6720,"hitSuccessfully":true},{"note":46,"velocity":83,"hitTime":7256,"closestNoteTime":7200,"hitSuccessfully":true},{"note":46,"velocity":87,"hitTime":7744,"closestNoteTime":7680,"hitSuccessfully":true},{"note":46,"velocity":76,"hitTime":8232,"closestNoteTime":8160,"hitSuccessfully":true},{"note":46,"velocity":86,"hitTime":8728,"closestNoteTime":8640,"hitSuccessfully":true},{"note":46,"velocity":85,"hitTime":9208,"closestNoteTime":9120,"hitSuccessfully":true},{"note":46,"velocity":82,"hitTime":9672,"closestNoteTime":9600,"hitSuccessfully":true},{"note":46,"velocity":84,"hitTime":10168,"closestNoteTime":10080,"hitSuccessfully":true},{"note":46,"velocity":84,"hitTime":10624,"closestNoteTime":10560,"hitSuccessfully":true},{"note":46,"velocity":83,"hitTime":11120,"closestNoteTime":11040,"hitSuccessfully":true},{"note":46,"velocity":82,"hitTime":11592,"closestNoteTime":11520,"hitSuccessfully":true},{"note":46,"velocity":80,"hitTime":12072,"closestNoteTime":12000,"hitSuccessfully":true},{"note":46,"velocity":82,"hitTime":12568,"closestNoteTime":12480,"hitSuccessfully":true},{"note":46,"velocity":82,"hitTime":13048,"closestNoteTime":12960,"hitSuccessfully":true},{"note":46,"velocity":77,"hitTime":13544,"closestNoteTime":13440,"hitSuccessfully":true},{"note":46,"velocity":79,"hitTime":14000,"closestNoteTime":13920,"hitSuccessfully":true},{"note":46,"velocity":85,"hitTime":14480,"closestNoteTime":14400,"hitSuccessfully":true},{"note":46,"velocity":83,"hitTime":14960,"closestNoteTime":14880,"hitSuccessfully":true}]}