{"frames":[{"note":36,"velocity":77,"hitTime":80,"closestNoteTime":0,"hitSuccessfully":true},{"note":46,"velocity":84,"hitTime":80,"closestNoteTime":0,"hitSuccessfully":true},{"note":46,"velocity":70,"hitTime":560,"closestNoteTime":480,"hitSuccessfully":true},{"note":46,"velocity":94,"hitTime":1040,"closestNoteTime":960,"hitSuccessfully":true},{"note":38,"velocity":94,"hitTime":1040,"closestNoteTime":960,"hitSuccessfully":true},{"note":46,"velocity":76,"hitTime":1584,"closestNoteTime":1440,"hitSuccessfully":true},{"note":46,"velocity":84,"hitTime":2032,"closestNoteTime":1920,"hitSuccessfully":true},{"note":36,"velocity":61,"hitTime":2064,"closestNoteTime":1920,"hitSuccessfully":true},{"note":46,"velocity":77,"hitTime":2544,"closestNoteTime":2400,"hitSuccessfully":true},{"note":46,"velocity":94,"hitTime":3056,"closestNoteTime":2880,"hitSuccessfully":true},{"note":38,"velocity":91,"hitTime":3056,"closestNoteTime":2880,"hitSuccessfully":true},{"note":46,"velocity":62,"hitTime":3536,"closestNoteTime":3360,"hitSuccessfully":true},{"note":36,"velocity":61,"hitTime":3984,"closestNoteTime":3840,"hitSuccessfully":true},{"note":46,"velocity":82,"hitTime":3984,"closestNoteTime":3840,"hitSuccessfully":true},{"note":46,"velocity":67,"hitTime":4464,"closestNoteTime":4320,"hitSuccessfully":true},{"note":38,"velocity":84,"hitTime":4928,"closestNoteTime":4800,"hitSuccessfully":true},{"note":46,"velocity":89,"hitTime":4928,"closestNoteTime":4800,"hitSuccessfully":true},{"note":46,"velocity":76,"hitTime":5376,"closestNoteTime":5280,"hitSuccessfully":true},{"note":46,"velocity":79,"hitTime":5856,"closestNoteTime":5760,"hitSuccessfully":true},{"note":36,"velocity":80,"hitTime":5856,"closestNoteTime":5760,"hitSuccessfully":true},{"note":46,"velocity":62,"hitTime":6288,"closestNoteTime":6240,"hitSuccessfully":true},{"note":38,"velocity":96,"hitTime":6800,"closestNoteTime":6720,"hitSuccessfully":true},{"note":46,"velocity":97,"hitTime":6800,"closestNoteTime":6720,"hitSuccessfully":true},{"note":46,"velocity":76,"hitTime":7280,"closestNoteTime":7200,"hitSuccessfully":true},{"note":46,"velocity":90,"hitTime":7760,"closestNoteTime":7680,"hitSuccessfully":true},{"note":36,"velocity":77,"hitTime":7792,"closestNoteTime":7680,"hitSuccessfully":true},{"note":46,"velocity":97,"hitTime":8704,"closestNoteTime":8640,"hitSuccessfully":true},{"note":38,"velocity":95,"hitTime":8704,"closestNoteTime":8640,"hitSuccessfully":true},{"note":46,"velocity":79,"hitTime":9152,"closestNoteTime":9120,"hitSuccessfully":true},{"note":46,"velocity":91,"hitTime":9664,"closestNoteTime":9600,"hitSuccessfully":true},{"note":36,"velocity":76,"hitTime":9696,"closestNoteTime":9600,"hitSuccessfully":true},{"note":46,"velocity":66,"hitTime":10144,"closestNoteTime":10080,"hitSuccessfully":true},{"note":46,"velocity":98,"hitTime":10624,"closestNoteTime":10560,"hitSuccessfully":true},{"note":38,"velocity":95,"hitTime":10624,"closestNoteTime":10560,"hitSuccessfully":true},{"note":46,"velocity":75,"hitTime":11088,"closestNoteTime":11040,"hitSuccessfully":true},{"note":46,"velocity":94,"hitTime":11568,"closestNoteTime":11520,"hitSuccessfully":true},{"note":36,"velocity":79,"hitTime":11600,"closestNoteTime":11520,"hitSuccessfully":true},{"note":46,"velocity":82,"hitTime":12048,"closestNoteTime":12000,"hitSuccessfully":true},{"note":46,"velocity":102,"hitTime":12528,"closestNoteTime":12480,"hitSuccessfully":true},{"note":38,"velocity":99,"hitTime":12560,"closestNoteTime":12480,"hitSuccessfully":true},{"note":46,"velocity":80,"hitTime":13040,"closestNoteTime":12960,"hitSuccessfully":true},{"note":46,"velocity":88,"hitTime":13520,"closestNoteTime":13440,"hitSuccessfully":true},{"note":36,"velocity":80,"hitTime":13552,"closestNoteTime":13440,"hitSuccessfully":true},{"note":46,"velocity":83,"hitTime":13984,"closestNoteTime":13920,"hitSuccessfully":true},{"note":46,"velocity":94,"hitTime":14480,"closestNoteTime":14400,"hitSuccessfully":true},{"note":38,"velocity":100,"hitTime":14480,"closestNoteTime":14400,"hitSuccessfully":true},{"note":46,"velocity":82,"hitTime":14960,"closestNoteTime":14880,"hitSuccessfully":true},{"note":46,"velocity":93,"hitTime":15472,"closestNoteTime":15360,"hitSuccessfully":true},{"note":36,"velocity":76,"hitTime":15472,"closestNoteTime":15360,"hitSuccessfully":true},{"note":46,"velocity":76,"hitTime":15952,"closestNoteTime":15840,"hitSuccessfully":true},{"note":38,"velocity":98,"hitTime":16416,"closestNoteTime":16320,"hitSuccessfully":true},{"note":46,"velocity":98,"hitTime":16464,"closestNoteTime":16320,"hitSuccessfully":true},{"note":46,"velocity":83,"hitTime":16944,"closestNoteTime":16800,"hitSuccessfully":true},{"note":46,"velocity":93,"hitTime":17408,"closestNoteTime":17280,"hitSuccessfully":true},{"note":36,"velocity":78,"hitTime":17408,"closestNoteTime":17280,"hitSuccessfully":true},{"note":38,"velocity":95,"hitTime":18336,"closestNoteTime":18240,"hitSuccessfully":true},{"note":46,"velocity":97,"hitTime":18368,"closestNoteTime":18240,"hitSuccessfully":true},{"note":46,"velocity":77,"hitTime":18848,"closestNoteTime":18720,"hitSuccessfully":true},{"note":46,"velocity":89,"hitTime":19328,"closestNoteTime":19200,"hitSuccessfully":true},{"note":36,"velocity":79,"hitTime":19328,"closestNoteTime":19200,"hitSuccessfully":true},{"note":46,"velocity":64,"hitTime":19776,"closestNoteTime":19680,"hitSuccessfully":true},{"note":46,"velocity":99,"hitTime":20272,"closestNoteTime":20160,"hitSuccessfully":true},{"note":38,"velocity":100,"hitTime":20272,"closestNoteTime":20160,"hitSuccessfully":true},{"note":46,"velocity":67,"hitTime":20752,"closestNoteTime":20640,"hitSuccessfully":true},{"note":46,"velocity":86,"hitTime":21200,"closestNoteTime":21120,"hitSuccessfully":true},{"note":36,"velocity":83,"hitTime":21200,"closestNoteTime":21120,"hitSuccessfully":true},{"note":46,"velocity":65,"hitTime":21664,"closestNoteTime":21600,"hitSuccessfully":true},{"note":46,"velocity":97,"hitTime":22144,"closestNoteTime":22080,"hitSuccessfully":true},{"note":38,"velocity":97,"hitTime":22144,"closestNoteTime":22080,"hitSuccessfully":true},{"note":46,"velocity":79,"hitTime":22624,"closestNoteTime":22560,"hitSuccessfully":true},{"note":46,"velocity":91,"hitTime":23104,"closestNoteTime":23040,"hitSuccessfully":true},{"note":36,"velocity":77,"hitTime":23136,"closestNoteTime":23040,"hitSuccessfully":true},{"note":46,"velocity":77,"hitTime":23616,"closestNoteTime":23520,"hitSuccessfully":true},{"note":46,"velocity":98,"hitTime":24064,"closestNoteTime":24000,"hitSuccessfully":true},{"note":38,"velocity":97,"hitTime":24064,"closestNoteTime":24000,"hitSuccessfully":true},{"note":46,"velocity":79,"hitTime":24576,"closestNoteTime":24480,"hitSuccessfully":true},{"note":46,"velocity":89,"hitTime":25088,"closestNoteTime":24960,"hitSuccessfully":true},{"note":36,"velocity":77,"hitTime":25120,"closestNoteTime":24960,"hitSuccessfully":true},{"note":46,"velocity":80,"hitTime":25568,"closestNoteTime":25440,"hitSuccessfully":true},{"note":38,"velocity":96,"hitTime":26016,"closestNoteTime":25920,"hitSuccessfully":true},{"note":46,"velocity":101,"hitTime":26048,"closestNoteTime":25920,"hitSuccessfully":true},{"note":46,"velocity":79,"hitTime":26512,"closestNoteTime":26400,"hitSuccessfully":true},{"note":46,"velocity":93,"hitTime":26992,"closestNoteTime":26880,"hitSuccessfully":true},{"note":36,"velocity":85,"hitTime":26992,"closestNoteTime":26880,"hitSuccessfully":true},{"note":46,"velocity":77,"hitTime":27472,"closestNoteTime":27360,"hitSuccessfully":true},{"note":38,"velocity":100,"hitTime":27952,"closestNoteTime":27840,"hitSuccessfully":true},{"note":46,"velocity":98,"hitTime":27952,"closestNoteTime":27840,"hitSuccessfully":true},{"note":46,"velocity":82,"hitTime":28432,"closestNoteTime":28320,"hitSuccessfully":true},{"note":36,"velocity":85,"hitTime":28944,"closestNoteTime":28800,"hitSuccessfully":true},{"note":46,"velocity":91,"hitTime":28944,"closestNoteTime":28800,"hitSuccessfully":true},{"note":46,"velocity":74,"hitTime":29456,"closestNoteTime":29280,"hitSuccessfully":true},{"note":38,"velocity":98,"hitTime":29936,"closestNoteTime":29760,"hitSuccessfully":true},{"note":46,"velocity":91,"hitTime":29936,"closestNoteTime":29760,"hitSuccessfully":true},{"note":46,"velocity":93,"hitTime":30416,"closestNoteTime":30240,"hitSuccessfully":true}]}