{"frames":[{"note":36,"velocity":30,"hitTime":56,"closestNoteTime":0,"hitSuccessfully":true},{"note":46,"velocity":82,"hitTime":56,"closestNoteTime":0,"hitSuccessfully":true},{"note":46,"velocity":75,"hitTime":536,"closestNoteTime":480,"hitSuccessfully":true},{"note":38,"velocity":76,"hitTime":1008,"closestNoteTime":960,"hitSuccessfully":true},{"note":46,"velocity":83,"hitTime":1008,"closestNoteTime":960,"hitSuccessfully":true},{"note":38,"velocity":17,"hitTime":1072,"closestNoteTime":2880,"hitSuccessfully":false},{"note":46,"velocity":79,"hitTime":1504,"closestNoteTime":1440,"hitSuccessfully":true},{"note":36,"velocity":42,"hitTime":1944,"closestNoteTime":1920,"hitSuccessfully":true},{"note":46,"velocity":87,"hitTime":1960,"closestNoteTime":1920,"hitSuccessfully":true},{"note":46,"velocity":80,"hitTime":2456,"closestNoteTime":2400,"hitSuccessfully":true},{"note":38,"velocity":79,"hitTime":2920,"closestNoteTime":2880,"hitSuccessfully":true},{"note":46,"velocity":86,"hitTime":2920,"closestNoteTime":2880,"hitSuccessfully":true},{"note":38,"velocity":56,"hitTime":2976,"closestNoteTime":4800,"hitSuccessfully":false},{"note":46,"velocity":77,"hitTime":3416,"closestNoteTime":3360,"hitSuccessfully":true},{"note":36,"velocity":51,"hitTime":3872,"closestNoteTime":3840,"hitSuccessfully":true},{"note":46,"velocity":88,"hitTime":3888,"closestNoteTime":3840,"hitSuccessfully":true},{"note":46,"velocity":77,"hitTime":4368,"closestNoteTime":4320,"hitSuccessfully":true},{"note":38,"velocity":73,"hitTime":4848,"closestNoteTime":4800,"hitSuccessfully":true},{"note":46,"velocity":85,"hitTime":4848,"closestNoteTime":4800,"hitSuccessfully":true},{"note":38,"velocity":50,"hitTime":4888,"closestNoteTime":6720,"hitSuccessfully":false},{"note":46,"velocity":79,"hitTime":5344,"closestNoteTime":5280,"hitSuccessfully":true},{"note":46,"velocity":84,"hitTime":5816,"closestNoteTime":5760,"hitSuccessfully":true},{"note":46,"velocity":79,"hitTime":6280,"closestNoteTime":6240,"hitSuccessfully":true},{"note":38,"velocity":74,"hitTime":6768,"closestNoteTime":6720,"hitSuccessfully":true},{"note":46,"velocity":87,"hitTime":6768,"closestNoteTime":6720,"hitSuccessfully":true},{"note":38,"velocity":50,"hitTime":6808,"closestNoteTime":8640,"hitSuccessfully":false},{"note":46,"velocity":80,"hitTime":7256,"closestNoteTime":7200,"hitSuccessfully":true},{"note":36,"velocity":48,"hitTime":7688,"closestNoteTime":7680,"hitSuccessfully":true},{"note":46,"velocity":89,"hitTime":7728,"closestNoteTime":7680,"hitSuccessfully":true},{"note":46,"velocity":80,"hitTime":8208,"closestNoteTime":8160,"hitSuccessfully":true},{"note":46,"velocity":86,"hitTime":8688,"closestNoteTime":8640,"hitSuccessfully":true},{"note":38,"velocity":82,"hitTime":8688,"closestNoteTime":8640,"hitSuccessfully":true},{"note":38,"velocity":53,"hitTime":8728,"closestNoteTime":10560,"hitSuccessfully":false},{"note":46,"velocity":79,"hitTime":9160,"closestNoteTime":9120,"hitSuccessfully":true},{"note":46,"velocity":54,"hitTime":9712,"closestNoteTime":9600,"hitSuccessfully":true},{"note":46,"velocity":73,"hitTime":10080,"closestNoteTime":10080,"hitSuccessfully":true},{"note":36,"velocity":35,"hitTime":10512,"closestNoteTime":9600,"hitSuccessfully":false},{"note":38,"velocity":75,"hitTime":10552,"closestNoteTime":10560,"hitSuccessfully":true},{"note":46,"velocity":91,"hitTime":10568,"closestNoteTime":10560,"hitSuccessfully":true},{"note":38,"velocity":56,"hitTime":10592,"closestNoteTime":12480,"hitSuccessfully":false},{"note":46,"velocity":79,"hitTime":11048,"closestNoteTime":11040,"hitSuccessfully":true},{"note":46,"velocity":86,"hitTime":11560,"closestNoteTime":11520,"hitSuccessfully":true},{"note":46,"velocity":70,"hitTime":12024,"closestNoteTime":12000,"hitSuccessfully":true},{"note":46,"velocity":88,"hitTime":12496,"closestNoteTime":12480,"hitSuccessfully":true},{"note":38,"velocity":76,"hitTime":12504,"closestNoteTime":12480,"hitSuccessfully":true},{"note":38,"velocity":30,"hitTime":12576,"closestNoteTime":14400,"hitSuccessfully":false},{"note":46,"velocity":80,"hitTime":12976,"closestNoteTime":12960,"hitSuccessfully":true},{"note":36,"velocity":42,"hitTime":13432,"closestNoteTime":13440,"hitSuccessfully":true},{"note":46,"velocity":91,"hitTime":13440,"closestNoteTime":13440,"hitSuccessfully":true},{"note":46,"velocity":82,"hitTime":13952,"closestNoteTime":13920,"hitSuccessfully":true},{"note":46,"velocity":91,"hitTime":14448,"closestNoteTime":14400,"hitSuccessfully":true},{"note":38,"velocity":78,"hitTime":14464,"closestNoteTime":14400,"hitSuccessfully":true},{"note":38,"velocity":47,"hitTime":14504,"closestNoteTime":0,"hitSuccessfully":false},{"note":46,"velocity":77,"hitTime":14944,"closestNoteTime":14880,"hitSuccessfully":true}]}