{"frames":[{"note":46,"velocity":97,"hitTime":208,"closestNoteTime":0,"hitSuccessfully":true},{"note":46,"velocity":87,"hitTime":608,"closestNoteTime":480,"hitSuccessfully":true},{"note":46,"velocity":108,"hitTime":1088,"closestNoteTime":960,"hitSuccessfully":true},{"note":46,"velocity":94,"hitTime":1792,"closestNoteTime":1920,"hitSuccessfully":true},{"note":46,"velocity":97,"hitTime":2160,"closestNoteTime":2400,"hitSuccessfully":true},{"note":46,"velocity":90,"hitTime":2624,"closestNoteTime":2880,"hitSuccessfully":true},{"note":46,"velocity":106,"hitTime":3072,"closestNoteTime":3360,"hitSuccessfully":true},{"note":46,"velocity":91,"hitTime":3472,"closestNoteTime":3840,"hitSuccessfully":false},{"note":46,"velocity":94,"hitTime":3904,"closestNoteTime":3840,"hitSuccessfully":true},{"note":46,"velocity":93,"hitTime":4432,"closestNoteTime":4320,"hitSuccessfully":true},{"note":46,"velocity":107,"hitTime":4896,"closestNoteTime":4800,"hitSuccessfully":true},{"note":46,"velocity":91,"hitTime":5328,"closestNoteTime":5280,"hitSuccessfully":true},{"note":46,"velocity":99,"hitTime":5776,"closestNoteTime":5760,"hitSuccessfully":true},{"note":46,"velocity":93,"hitTime":6224,"closestNoteTime":6240,"hitSuccessfully":true},{"note":46,"velocity":106,"hitTime":6720,"closestNoteTime":6720,"hitSuccessfully":true},{"note":46,"velocity":94,"hitTime":7200,"closestNoteTime":7200,"hitSuccessfully":true},{"note":46,"velocity":95,"hitTime":7648,"closestNoteTime":7680,"hitSuccessfully":true},{"note":46,"velocity":93,"hitTime":8128,"closestNoteTime":8160,"hitSuccessfully":true},{"note":46,"velocity":114,"hitTime":8640,"closestNoteTime":8640,"hitSuccessfully":true},{"note":36,"velocity":86,"hitTime":9424,"closestNoteTime":9600,"hitSuccessfully":true},{"note":46,"velocity":127,"hitTime":9504,"closestNoteTime":9600,"hitSuccessfully":true},{"note":46,"velocity":97,"hitTime":9952,"closestNoteTime":10080,"hitSuccessfully":true},{"note":46,"velocity":102,"hitTime":10384,"closestNoteTime":10560,"hitSuccessfully":true},{"note":46,"velocity":101,"hitTime":10832,"closestNoteTime":11040,"hitSuccessfully":true},{"note":46,"velocity":99,"hitTime":11296,"closestNoteTime":11520,"hitSuccessfully":true},{"note":46,"velocity":91,"hitTime":11744,"closestNoteTime":12000,"hitSuccessfully":true},{"note":46,"velocity":104,"hitTime":12224,"closestNoteTime":12480,"hitSuccessfully":true},{"note":36,"velocity":52,"hitTime":12224,"closestNoteTime":11520,"hitSuccessfully":false},{"note":46,"velocity":104,"hitTime":12736,"closestNoteTime":12960,"hitSuccessfully":true},{"note":46,"velocity":99,"hitTime":13120,"closestNoteTime":13440,"hitSuccessfully":false},{"note":46,"velocity":94,"hitTime":13536,"closestNoteTime":13440,"hitSuccessfully":true},{"note":46,"velocity":103,"hitTime":14016,"closestNoteTime":13920,"hitSuccessfully":true},{"note":46,"velocity":99,"hitTime":14512,"closestNoteTime":14400,"hitSuccessfully":true},{"note":46,"velocity":89,"hitTime":14960,"closestNoteTime":14880,"hitSuccessfully":true},{"note":46,"velocity":95,"hitTime":15472,"closestNoteTime":15360,"hitSuccessfully":true},{"note":46,"velocity":101,"hitTime":15904,"closestNoteTime":15840,"hitSuccessfully":true},{"note":46,"velocity":97,"hitTime":16400,"closestNoteTime":16320,"hitSuccessfully":true},{"note":46,"velocity":94,"hitTime":16864,"closestNoteTime":16800,"hitSuccessfully":true},{"note":46,"velocity":93,"hitTime":17344,"closestNoteTime":17280,"hitSuccessfully":true},{"note":46,"velocity":105,"hitTime":17792,"closestNoteTime":17760,"hitSuccessfully":true},{"note":46,"velocity":94,"hitTime":18256,"closestNoteTime":18240,"hitSuccessfully":true},{"note":46,"velocity":94,"hitTime":18704,"closestNoteTime":18720,"hitSuccessfully":true},{"note":46,"velocity":93,"hitTime":19184,"closestNoteTime":19200,"hitSuccessfully":true},{"note":46,"velocity":104,"hitTime":19648,"closestNoteTime":19680,"hitSuccessfully":true},{"note":46,"velocity":97,"hitTime":20160,"closestNoteTime":20160,"hitSuccessfully":true},{"note":46,"velocity":90,"hitTime":20576,"closestNoteTime":20640,"hitSuccessfully":true},{"note":46,"velocity":91,"hitTime":21088,"closestNoteTime":21120,"hitSuccessfully":true},{"note":46,"velocity":109,"hitTime":21552,"closestNoteTime":21600,"hitSuccessfully":true},{"note":46,"velocity":96,"hitTime":22048,"closestNoteTime":22080,"hitSuccessfully":true},{"note":46,"velocity":94,"hitTime":22464,"closestNoteTime":22560,"hitSuccessfully":true},{"note":46,"velocity":95,"hitTime":22944,"closestNoteTime":23040,"hitSuccessfully":true},{"note":46,"velocity":107,"hitTime":23424,"closestNoteTime":23520,"hitSuccessfully":true},{"note":46,"velocity":103,"hitTime":23872,"closestNoteTime":24000,"hitSuccessfully":true},{"note":46,"velocity":100,"hitTime":24336,"closestNoteTime":24480,"hitSuccessfully":true},{"note":46,"velocity":100,"hitTime":24832,"closestNoteTime":24960,"hitSuccessfully":true},{"note":46,"velocity":120,"hitTime":25328,"closestNoteTime":25440,"hitSuccessfully":true},{"note":46,"velocity":97,"hitTime":25776,"closestNoteTime":25920,"hitSuccessfully":true},{"note":46,"velocity":99,"hitTime":26224,"closestNoteTime":26400,"hitSuccessfully":true},{"note":46,"velocity":94,"hitTime":26688,"closestNoteTime":26880,"hitSuccessfully":true},{"note":46,"velocity":104,"hitTime":27136,"closestNoteTime":27360,"hitSuccessfully":true},{"note":46,"velocity":94,"hitTime":27552,"closestNoteTime":27840,"hitSuccessfully":true},{"note":46,"velocity":97,"hitTime":28032,"closestNoteTime":28320,"hitSuccessfully":true},{"note":46,"velocity":94,"hitTime":28512,"closestNoteTime":28800,"hitSuccessfully":true},{"note":46,"velocity":105,"hitTime":28944,"closestNoteTime":29280,"hitSuccessfully":false},{"note":46,"velocity":104,"hitTime":29424,"closestNoteTime":29280,"hitSuccessfully":true},{"note":46,"velocity":98,"hitTime":29872,"closestNoteTime":29760,"hitSuccessfully":true},{"note":46,"velocity":102,"hitTime":30352,"closestNoteTime":30240,"hitSuccessfully":true}]}