{"frames":[{"note":36,"velocity":61,"hitTime":-48,"closestNoteTime":0,"hitSuccessfully":true},{"note":38,"velocity":60,"hitTime":288,"closestNoteTime":960,"hitSuccessfully":false},{"note":46,"velocity":75,"hitTime":720,"closestNoteTime":480,"hitSuccessfully":true},{"note":46,"velocity":73,"hitTime":1168,"closestNoteTime":960,"hitSuccessfully":true},{"note":38,"velocity":46,"hitTime":1488,"closestNoteTime":960,"hitSuccessfully":false},{"note":46,"velocity":79,"hitTime":1648,"closestNoteTime":1440,"hitSuccessfully":true},{"note":36,"velocity":32,"hitTime":1648,"closestNoteTime":1920,"hitSuccessfully":true},{"note":36,"velocity":27,"hitTime":1776,"closestNoteTime":3840,"hitSuccessfully":false},{"note":46,"velocity":77,"hitTime":2208,"closestNoteTime":1920,"hitSuccessfully":true},{"note":46,"velocity":75,"hitTime":3152,"closestNoteTime":2880,"hitSuccessfully":true},{"note":36,"velocity":61,"hitTime":3280,"closestNoteTime":3840,"hitSuccessfully":false},{"note":36,"velocity":25,"hitTime":3488,"closestNoteTime":3840,"hitSuccessfully":false},{"note":46,"velocity":75,"hitTime":3600,"closestNoteTime":3360,"hitSuccessfully":true},{"note":46,"velocity":65,"hitTime":4000,"closestNoteTime":3840,"hitSuccessfully":true},{"note":46,"velocity":72,"hitTime":4512,"closestNoteTime":4320,"hitSuccessfully":true},{"note":46,"velocity":74,"hitTime":5072,"closestNoteTime":4800,"hitSuccessfully":true},{"note":38,"velocity":64,"hitTime":5552,"closestNoteTime":4800,"hitSuccessfully":false},{"note":46,"velocity":55,"hitTime":5664,"closestNoteTime":5760,"hitSuccessfully":true},{"note":36,"velocity":47,"hitTime":6016,"closestNoteTime":5760,"hitSuccessfully":true},{"note":46,"velocity":65,"hitTime":6064,"closestNoteTime":6240,"hitSuccessfully":true},{"note":36,"velocity":27,"hitTime":6176,"closestNoteTime":7680,"hitSuccessfully":false},{"note":46,"velocity":66,"hitTime":6688,"closestNoteTime":6720,"hitSuccessfully":true},{"note":46,"velocity":74,"hitTime":7136,"closestNoteTime":7200,"hitSuccessfully":true},{"note":38,"velocity":54,"hitTime":7264,"closestNoteTime":6720,"hitSuccessfully":false},{"note":38,"velocity":41,"hitTime":7328,"closestNoteTime":6720,"hitSuccessfully":false},{"note":36,"velocity":62,"hitTime":7488,"closestNoteTime":7680,"hitSuccessfully":true},{"note":46,"velocity":70,"hitTime":7648,"closestNoteTime":7680,"hitSuccessfully":true},{"note":36,"velocity":26,"hitTime":7680,"closestNoteTime":9600,"hitSuccessfully":false},{"note":46,"velocity":65,"hitTime":8128,"closestNoteTime":8160,"hitSuccessfully":true},{"note":46,"velocity":60,"hitTime":8576,"closestNoteTime":8640,"hitSuccessfully":true},{"note":38,"velocity":68,"hitTime":8880,"closestNoteTime":8640,"hitSuccessfully":true},{"note":38,"velocity":49,"hitTime":8960,"closestNoteTime":10560,"hitSuccessfully":false},{"note":46,"velocity":74,"hitTime":9168,"closestNoteTime":9120,"hitSuccessfully":true},{"note":36,"velocity":60,"hitTime":9232,"closestNoteTime":9600,"hitSuccessfully":false},{"note":36,"velocity":26,"hitTime":9408,"closestNoteTime":9600,"hitSuccessfully":true},{"note":46,"velocity":66,"hitTime":9648,"closestNoteTime":9600,"hitSuccessfully":true},{"note":46,"velocity":64,"hitTime":10112,"closestNoteTime":10080,"hitSuccessfully":true},{"note":38,"velocity":70,"hitTime":10624,"closestNoteTime":10560,"hitSuccessfully":true},{"note":46,"velocity":70,"hitTime":10832,"closestNoteTime":10560,"hitSuccessfully":true},{"note":46,"velocity":70,"hitTime":11344,"closestNoteTime":11520,"hitSuccessfully":true},{"note":36,"velocity":61,"hitTime":11552,"closestNoteTime":11520,"hitSuccessfully":true},{"note":46,"velocity":64,"hitTime":11792,"closestNoteTime":12000,"hitSuccessfully":true},{"note":46,"velocity":73,"hitTime":12272,"closestNoteTime":12480,"hitSuccessfully":true},{"note":38,"velocity":61,"hitTime":12544,"closestNoteTime":12480,"hitSuccessfully":true},{"note":38,"velocity":24,"hitTime":12656,"closestNoteTime":14400,"hitSuccessfully":false},{"note":46,"velocity":70,"hitTime":12928,"closestNoteTime":12960,"hitSuccessfully":true},{"note":46,"velocity":60,"hitTime":13328,"closestNoteTime":13440,"hitSuccessfully":true},{"note":36,"velocity":77,"hitTime":13488,"closestNoteTime":13440,"hitSuccessfully":true},{"note":46,"velocity":48,"hitTime":13776,"closestNoteTime":13920,"hitSuccessfully":true},{"note":38,"velocity":57,"hitTime":14096,"closestNoteTime":14400,"hitSuccessfully":false},{"note":46,"velocity":67,"hitTime":14368,"closestNoteTime":14400,"hitSuccessfully":true},{"note":46,"velocity":66,"hitTime":14816,"closestNoteTime":14880,"hitSuccessfully":true},{"note":36,"velocity":69,"hitTime":15152,"closestNoteTime":15360,"hitSuccessfully":true},{"note":46,"velocity":66,"hitTime":15312,"closestNoteTime":15360,"hitSuccessfully":true},{"note":46,"velocity":65,"hitTime":15760,"closestNoteTime":15840,"hitSuccessfully":true},{"note":46,"velocity":52,"hitTime":16160,"closestNoteTime":16320,"hitSuccessfully":true},{"note":38,"velocity":76,"hitTime":16672,"closestNoteTime":16320,"hitSuccessfully":false},{"note":46,"velocity":58,"hitTime":16800,"closestNoteTime":16800,"hitSuccessfully":true},{"note":36,"velocity":46,"hitTime":16992,"closestNoteTime":17280,"hitSuccessfully":true},{"note":46,"velocity":65,"hitTime":17200,"closestNoteTime":17280,"hitSuccessfully":true},{"note":46,"velocity":66,"hitTime":17680,"closestNoteTime":17760,"hitSuccessfully":true},{"note":38,"velocity":76,"hitTime":18464,"closestNoteTime":18240,"hitSuccessfully":true},{"note":38,"velocity":44,"hitTime":18576,"closestNoteTime":20160,"hitSuccessfully":false},{"note":36,"velocity":64,"hitTime":18736,"closestNoteTime":19200,"hitSuccessfully":false},{"note":46,"velocity":70,"hitTime":19232,"closestNoteTime":19200,"hitSuccessfully":true},{"note":46,"velocity":64,"hitTime":19616,"closestNoteTime":19680,"hitSuccessfully":true},{"note":46,"velocity":75,"hitTime":20176,"closestNoteTime":20160,"hitSuccessfully":true},{"note":46,"velocity":74,"hitTime":20800,"closestNoteTime":20640,"hitSuccessfully":true},{"note":38,"velocity":68,"hitTime":21008,"closestNoteTime":20160,"hitSuccessfully":false},{"note":36,"velocity":56,"hitTime":21056,"closestNoteTime":21120,"hitSuccessfully":true},{"note":46,"velocity":74,"hitTime":21328,"closestNoteTime":21120,"hitSuccessfully":true},{"note":46,"velocity":70,"hitTime":21888,"closestNoteTime":21600,"hitSuccessfully":true},{"note":38,"velocity":64,"hitTime":22288,"closestNoteTime":22080,"hitSuccessfully":true},{"note":46,"velocity":74,"hitTime":22432,"closestNoteTime":22560,"hitSuccessfully":true},{"note":36,"velocity":46,"hitTime":22672,"closestNoteTime":23040,"hitSuccessfully":false},{"note":46,"velocity":75,"hitTime":22912,"closestNoteTime":23040,"hitSuccessfully":true},{"note":46,"velocity":72,"hitTime":23328,"closestNoteTime":23520,"hitSuccessfully":true},{"note":46,"velocity":73,"hitTime":24032,"closestNoteTime":24000,"hitSuccessfully":true},{"note":38,"velocity":54,"hitTime":24384,"closestNoteTime":24000,"hitSuccessfully":false},{"note":46,"velocity":73,"hitTime":24592,"closestNoteTime":24480,"hitSuccessfully":true},{"note":36,"velocity":61,"hitTime":24864,"closestNoteTime":24960,"hitSuccessfully":true},{"note":46,"velocity":74,"hitTime":25056,"closestNoteTime":24960,"hitSuccessfully":true},{"note":38,"velocity":66,"hitTime":25632,"closestNoteTime":25920,"hitSuccessfully":true},{"note":46,"velocity":60,"hitTime":25984,"closestNoteTime":25920,"hitSuccessfully":true},{"note":46,"velocity":66,"hitTime":26736,"closestNoteTime":26880,"hitSuccessfully":true},{"note":36,"velocity":70,"hitTime":27008,"closestNoteTime":26880,"hitSuccessfully":true},{"note":46,"velocity":70,"hitTime":27104,"closestNoteTime":27360,"hitSuccessfully":true},{"note":38,"velocity":58,"hitTime":27280,"closestNoteTime":27840,"hitSuccessfully":false},{"note":46,"velocity":65,"hitTime":27648,"closestNoteTime":27840,"hitSuccessfully":true},{"note":46,"velocity":65,"hitTime":28128,"closestNoteTime":28320,"hitSuccessfully":true},{"note":38,"velocity":72,"hitTime":28128,"closestNoteTime":27840,"hitSuccessfully":true},{"note":46,"velocity":66,"hitTime":28592,"closestNoteTime":28800,"hitSuccessfully":true},{"note":36,"velocity":58,"hitTime":28768,"closestNoteTime":28800,"hitSuccessfully":true},{"note":46,"velocity":60,"hitTime":29040,"closestNoteTime":29280,"hitSuccessfully":true},{"note":46,"velocity":58,"hitTime":29552,"closestNoteTime":29760,"hitSuccessfully":true},{"note":38,"velocity":71,"hitTime":29824,"closestNoteTime":29760,"hitSuccessfully":true},{"note":38,"velocity":17,"hitTime":29952,"closestNoteTime":24000,"hitSuccessfully":false},{"note":36,"velocity":42,"hitTime":29984,"closestNoteTime":23040,"hitSuccessfully":false},{"note":46,"velocity":65,"hitTime":30064,"closestNoteTime":30240,"hitSuccessfully":true},{"note":46,"velocity":67,"hitTime":30672,"closestNoteTime":26400,"hitSuccessfully":false}]}