{"frames":[{"note":46,"velocity":77,"hitTime":64,"closestNoteTime":0,"hitSuccessfully":true},{"note":36,"velocity":30,"hitTime":80,"closestNoteTime":0,"hitSuccessfully":true},{"note":46,"velocity":72,"hitTime":560,"closestNoteTime":480,"hitSuccessfully":true},{"note":46,"velocity":86,"hitTime":1104,"closestNoteTime":960,"hitSuccessfully":true},{"note":38,"velocity":97,"hitTime":1152,"closestNoteTime":960,"hitSuccessfully":true},{"note":46,"velocity":77,"hitTime":1536,"closestNoteTime":1440,"hitSuccessfully":true},{"note":46,"velocity":82,"hitTime":2016,"closestNoteTime":1920,"hitSuccessfully":true},{"note":36,"velocity":50,"hitTime":2096,"closestNoteTime":1920,"hitSuccessfully":true},{"note":46,"velocity":76,"hitTime":2496,"closestNoteTime":2400,"hitSuccessfully":true},{"note":46,"velocity":86,"hitTime":2976,"closestNoteTime":2880,"hitSuccessfully":true},{"note":38,"velocity":94,"hitTime":2976,"closestNoteTime":2880,"hitSuccessfully":true},{"note":46,"velocity":76,"hitTime":3456,"closestNoteTime":3360,"hitSuccessfully":true},{"note":36,"velocity":43,"hitTime":3968,"closestNoteTime":3840,"hitSuccessfully":true},{"note":46,"velocity":74,"hitTime":4400,"closestNoteTime":4320,"hitSuccessfully":true},{"note":46,"velocity":86,"hitTime":4896,"closestNoteTime":4800,"hitSuccessfully":true},{"note":38,"velocity":92,"hitTime":4928,"closestNoteTime":4800,"hitSuccessfully":true},{"note":46,"velocity":72,"hitTime":5408,"closestNoteTime":5280,"hitSuccessfully":true},{"note":46,"velocity":84,"hitTime":5840,"closestNoteTime":5760,"hitSuccessfully":true},{"note":36,"velocity":46,"hitTime":5872,"closestNoteTime":5760,"hitSuccessfully":true},{"note":46,"velocity":73,"hitTime":6320,"closestNoteTime":6240,"hitSuccessfully":true},{"note":38,"velocity":89,"hitTime":6800,"closestNoteTime":6720,"hitSuccessfully":true},{"note":46,"velocity":86,"hitTime":6832,"closestNoteTime":6720,"hitSuccessfully":true},{"note":46,"velocity":74,"hitTime":7264,"closestNoteTime":7200,"hitSuccessfully":true},{"note":46,"velocity":82,"hitTime":7712,"closestNoteTime":7680,"hitSuccessfully":true},{"note":36,"velocity":46,"hitTime":7760,"closestNoteTime":7680,"hitSuccessfully":true},{"note":46,"velocity":77,"hitTime":8224,"closestNoteTime":8160,"hitSuccessfully":true},{"note":46,"velocity":84,"hitTime":8704,"closestNoteTime":8640,"hitSuccessfully":true},{"note":38,"velocity":94,"hitTime":8704,"closestNoteTime":8640,"hitSuccessfully":true},{"note":46,"velocity":79,"hitTime":9184,"closestNoteTime":9120,"hitSuccessfully":true},{"note":46,"velocity":82,"hitTime":9696,"closestNoteTime":9600,"hitSuccessfully":true},{"note":36,"velocity":52,"hitTime":9696,"closestNoteTime":9600,"hitSuccessfully":true},{"note":46,"velocity":72,"hitTime":10128,"closestNoteTime":10080,"hitSuccessfully":true},{"note":46,"velocity":88,"hitTime":10624,"closestNoteTime":10560,"hitSuccessfully":true},{"note":38,"velocity":90,"hitTime":10656,"closestNoteTime":10560,"hitSuccessfully":true},{"note":46,"velocity":76,"hitTime":11120,"closestNoteTime":11040,"hitSuccessfully":true},{"note":36,"velocity":51,"hitTime":11600,"closestNoteTime":11520,"hitSuccessfully":true},{"note":46,"velocity":84,"hitTime":11600,"closestNoteTime":11520,"hitSuccessfully":true},{"note":46,"velocity":75,"hitTime":12048,"closestNoteTime":12000,"hitSuccessfully":true},{"note":46,"velocity":85,"hitTime":12560,"closestNoteTime":12480,"hitSuccessfully":true},{"note":38,"velocity":81,"hitTime":12560,"closestNoteTime":12480,"hitSuccessfully":true},{"note":46,"velocity":79,"hitTime":13040,"closestNoteTime":12960,"hitSuccessfully":true},{"note":46,"velocity":82,"hitTime":13488,"closestNoteTime":13440,"hitSuccessfully":true},{"note":36,"velocity":52,"hitTime":13552,"closestNoteTime":13440,"hitSuccessfully":true},{"note":46,"velocity":74,"hitTime":14032,"closestNoteTime":13920,"hitSuccessfully":true},{"note":46,"velocity":90,"hitTime":14512,"closestNoteTime":14400,"hitSuccessfully":true},{"note":38,"velocity":94,"hitTime":14592,"closestNoteTime":14400,"hitSuccessfully":true},{"note":46,"velocity":79,"hitTime":14992,"closestNoteTime":14880,"hitSuccessfully":true},{"note":46,"velocity":85,"hitTime":15472,"closestNoteTime":15360,"hitSuccessfully":true},{"note":36,"velocity":28,"hitTime":15536,"closestNoteTime":15360,"hitSuccessfully":true},{"note":46,"velocity":79,"hitTime":15936,"closestNoteTime":15840,"hitSuccessfully":true},{"note":46,"velocity":87,"hitTime":16448,"closestNoteTime":16320,"hitSuccessfully":true},{"note":38,"velocity":90,"hitTime":16464,"closestNoteTime":16320,"hitSuccessfully":true},{"note":46,"velocity":80,"hitTime":16928,"closestNoteTime":16800,"hitSuccessfully":true},{"note":46,"velocity":85,"hitTime":17344,"closestNoteTime":17280,"hitSuccessfully":true},{"note":36,"velocity":30,"hitTime":17408,"closestNoteTime":17280,"hitSuccessfully":true},{"note":46,"velocity":80,"hitTime":17808,"closestNoteTime":17760,"hitSuccessfully":true},{"note":38,"velocity":90,"hitTime":18336,"closestNoteTime":18240,"hitSuccessfully":true},{"note":46,"velocity":87,"hitTime":18336,"closestNoteTime":18240,"hitSuccessfully":true},{"note":46,"velocity":83,"hitTime":18816,"closestNoteTime":18720,"hitSuccessfully":true},{"note":46,"velocity":88,"hitTime":19280,"closestNoteTime":19200,"hitSuccessfully":true},{"note":36,"velocity":55,"hitTime":19312,"closestNoteTime":19200,"hitSuccessfully":true},{"note":46,"velocity":77,"hitTime":19728,"closestNoteTime":19680,"hitSuccessfully":true},{"note":46,"velocity":88,"hitTime":20224,"closestNoteTime":20160,"hitSuccessfully":true},{"note":38,"velocity":91,"hitTime":20304,"closestNoteTime":20160,"hitSuccessfully":true},{"note":46,"velocity":86,"hitTime":20704,"closestNoteTime":20640,"hitSuccessfully":true},{"note":46,"velocity":82,"hitTime":21200,"closestNoteTime":21120,"hitSuccessfully":true},{"note":46,"velocity":76,"hitTime":21632,"closestNoteTime":21600,"hitSuccessfully":true},{"note":46,"velocity":88,"hitTime":22112,"closestNoteTime":22080,"hitSuccessfully":true},{"note":38,"velocity":89,"hitTime":22192,"closestNoteTime":22080,"hitSuccessfully":true},{"note":46,"velocity":80,"hitTime":22656,"closestNoteTime":22560,"hitSuccessfully":true},{"note":36,"velocity":48,"hitTime":23088,"closestNoteTime":23040,"hitSuccessfully":true},{"note":46,"velocity":85,"hitTime":23104,"closestNoteTime":23040,"hitSuccessfully":true},{"note":46,"velocity":79,"hitTime":23584,"closestNoteTime":23520,"hitSuccessfully":true},{"note":38,"velocity":94,"hitTime":24128,"closestNoteTime":24000,"hitSuccessfully":true},{"note":46,"velocity":89,"hitTime":24128,"closestNoteTime":24000,"hitSuccessfully":true},{"note":46,"velocity":80,"hitTime":24576,"closestNoteTime":24480,"hitSuccessfully":true},{"note":36,"velocity":42,"hitTime":24928,"closestNoteTime":24960,"hitSuccessfully":true},{"note":46,"velocity":86,"hitTime":25056,"closestNoteTime":24960,"hitSuccessfully":true},{"note":46,"velocity":85,"hitTime":25536,"closestNoteTime":25440,"hitSuccessfully":true},{"note":38,"velocity":95,"hitTime":26032,"closestNoteTime":25920,"hitSuccessfully":true},{"note":46,"velocity":88,"hitTime":26048,"closestNoteTime":25920,"hitSuccessfully":true},{"note":46,"velocity":82,"hitTime":26512,"closestNoteTime":26400,"hitSuccessfully":true},{"note":36,"velocity":52,"hitTime":26928,"closestNoteTime":26880,"hitSuccessfully":true},{"note":46,"velocity":86,"hitTime":26992,"closestNoteTime":26880,"hitSuccessfully":true},{"note":46,"velocity":80,"hitTime":27440,"closestNoteTime":27360,"hitSuccessfully":true},{"note":38,"velocity":86,"hitTime":27952,"closestNoteTime":27840,"hitSuccessfully":true},{"note":46,"velocity":87,"hitTime":27952,"closestNoteTime":27840,"hitSuccessfully":true},{"note":36,"velocity":34,"hitTime":28160,"closestNoteTime":28800,"hitSuccessfully":false},{"note":46,"velocity":80,"hitTime":28464,"closestNoteTime":28320,"hitSuccessfully":true},{"note":46,"velocity":80,"hitTime":28864,"closestNoteTime":28800,"hitSuccessfully":true},{"note":46,"velocity":83,"hitTime":29312,"closestNoteTime":29280,"hitSuccessfully":true},{"note":46,"velocity":88,"hitTime":29856,"closestNoteTime":29760,"hitSuccessfully":true},{"note":38,"velocity":90,"hitTime":29888,"closestNoteTime":29760,"hitSuccessfully":true},{"note":46,"velocity":77,"hitTime":30368,"closestNoteTime":30240,"hitSuccessfully":true}]}