{"frames":[{"note":46,"velocity":90,"hitTime":128,"closestNoteTime":0,"hitSuccessfully":true},{"note":36,"velocity":83,"hitTime":128,"closestNoteTime":0,"hitSuccessfully":true},{"note":46,"velocity":75,"hitTime":608,"closestNoteTime":480,"hitSuccessfully":true},{"note":46,"velocity":95,"hitTime":1072,"closestNoteTime":960,"hitSuccessfully":true},{"note":38,"velocity":115,"hitTime":1088,"closestNoteTime":960,"hitSuccessfully":true},{"note":46,"velocity":80,"hitTime":1552,"closestNoteTime":1440,"hitSuccessfully":true},{"note":46,"velocity":93,"hitTime":2032,"closestNoteTime":1920,"hitSuccessfully":true},{"note":36,"velocity":88,"hitTime":2064,"closestNoteTime":1920,"hitSuccessfully":true},{"note":46,"velocity":77,"hitTime":2512,"closestNoteTime":2400,"hitSuccessfully":true},{"note":46,"velocity":97,"hitTime":3024,"closestNoteTime":2880,"hitSuccessfully":true},{"note":38,"velocity":109,"hitTime":3024,"closestNoteTime":2880,"hitSuccessfully":true},{"note":46,"velocity":82,"hitTime":3504,"closestNoteTime":3360,"hitSuccessfully":true},{"note":46,"velocity":94,"hitTime":3984,"closestNoteTime":3840,"hitSuccessfully":true},{"note":36,"velocity":90,"hitTime":4016,"closestNoteTime":3840,"hitSuccessfully":true},{"note":46,"velocity":79,"hitTime":4464,"closestNoteTime":4320,"hitSuccessfully":true},{"note":46,"velocity":96,"hitTime":4976,"closestNoteTime":4800,"hitSuccessfully":true},{"note":38,"velocity":113,"hitTime":4976,"closestNoteTime":4800,"hitSuccessfully":true},{"note":46,"velocity":75,"hitTime":5488,"closestNoteTime":5280,"hitSuccessfully":true},{"note":46,"velocity":86,"hitTime":6000,"closestNoteTime":5760,"hitSuccessfully":true},{"note":36,"velocity":86,"hitTime":6000,"closestNoteTime":5760,"hitSuccessfully":true},{"note":46,"velocity":72,"hitTime":6400,"closestNoteTime":6240,"hitSuccessfully":true},{"note":46,"velocity":98,"hitTime":6880,"closestNoteTime":6720,"hitSuccessfully":true},{"note":38,"velocity":109,"hitTime":6912,"closestNoteTime":6720,"hitSuccessfully":true},{"note":46,"velocity":82,"hitTime":7360,"closestNoteTime":7200,"hitSuccessfully":true},{"note":46,"velocity":90,"hitTime":7808,"closestNoteTime":7680,"hitSuccessfully":true},{"note":36,"velocity":97,"hitTime":7840,"closestNoteTime":7680,"hitSuccessfully":true},{"note":46,"velocity":77,"hitTime":8304,"closestNoteTime":8160,"hitSuccessfully":true},{"note":38,"velocity":109,"hitTime":8752,"closestNoteTime":8640,"hitSuccessfully":true},{"note":46,"velocity":91,"hitTime":8752,"closestNoteTime":8640,"hitSuccessfully":true},{"note":46,"velocity":76,"hitTime":9232,"closestNoteTime":9120,"hitSuccessfully":true},{"note":46,"velocity":93,"hitTime":9712,"closestNoteTime":9600,"hitSuccessfully":true},{"note":36,"velocity":97,"hitTime":9744,"closestNoteTime":9600,"hitSuccessfully":true},{"note":46,"velocity":80,"hitTime":10176,"closestNoteTime":10080,"hitSuccessfully":true},{"note":46,"velocity":93,"hitTime":10672,"closestNoteTime":10560,"hitSuccessfully":true},{"note":38,"velocity":96,"hitTime":10672,"closestNoteTime":10560,"hitSuccessfully":true},{"note":46,"velocity":80,"hitTime":11168,"closestNoteTime":11040,"hitSuccessfully":true},{"note":36,"velocity":82,"hitTime":11648,"closestNoteTime":11520,"hitSuccessfully":true},{"note":46,"velocity":91,"hitTime":11648,"closestNoteTime":11520,"hitSuccessfully":true},{"note":46,"velocity":77,"hitTime":12096,"closestNoteTime":12000,"hitSuccessfully":true},{"note":38,"velocity":112,"hitTime":12608,"closestNoteTime":12480,"hitSuccessfully":true},{"note":46,"velocity":91,"hitTime":12608,"closestNoteTime":12480,"hitSuccessfully":true},{"note":46,"velocity":82,"hitTime":13088,"closestNoteTime":12960,"hitSuccessfully":true},{"note":36,"velocity":91,"hitTime":13568,"closestNoteTime":13440,"hitSuccessfully":true},{"note":46,"velocity":98,"hitTime":13568,"closestNoteTime":13440,"hitSuccessfully":true},{"note":46,"velocity":85,"hitTime":14048,"closestNoteTime":13920,"hitSuccessfully":true},{"note":38,"velocity":111,"hitTime":14512,"closestNoteTime":14400,"hitSuccessfully":true},{"note":46,"velocity":102,"hitTime":14528,"closestNoteTime":14400,"hitSuccessfully":true},{"note":46,"velocity":99,"hitTime":14992,"closestNoteTime":14880,"hitSuccessfully":true},{"note":46,"velocity":84,"hitTime":20208,"closestNoteTime":20160,"hitSuccessfully":true},{"note":46,"velocity":47,"hitTime":20720,"closestNoteTime":20640,"hitSuccessfully":true},{"note":36,"velocity":70,"hitTime":21200,"closestNoteTime":21120,"hitSuccessfully":true},{"note":46,"velocity":88,"hitTime":21200,"closestNoteTime":21120,"hitSuccessfully":true},{"note":46,"velocity":77,"hitTime":21632,"closestNoteTime":21600,"hitSuccessfully":true},{"note":38,"velocity":111,"hitTime":22112,"closestNoteTime":22080,"hitSuccessfully":true},{"note":46,"velocity":88,"hitTime":22112,"closestNoteTime":22080,"hitSuccessfully":true},{"note":46,"velocity":85,"hitTime":22560,"closestNoteTime":22560,"hitSuccessfully":true},{"note":46,"velocity":95,"hitTime":23024,"closestNoteTime":23040,"hitSuccessfully":true},{"note":36,"velocity":94,"hitTime":23024,"closestNoteTime":23040,"hitSuccessfully":true},{"note":46,"velocity":72,"hitTime":23552,"closestNoteTime":23520,"hitSuccessfully":true},{"note":38,"velocity":112,"hitTime":24016,"closestNoteTime":24000,"hitSuccessfully":true},{"note":46,"velocity":97,"hitTime":24048,"closestNoteTime":24000,"hitSuccessfully":true},{"note":46,"velocity":84,"hitTime":24496,"closestNoteTime":24480,"hitSuccessfully":true},{"note":46,"velocity":97,"hitTime":24976,"closestNoteTime":24960,"hitSuccessfully":true},{"note":36,"velocity":90,"hitTime":25008,"closestNoteTime":24960,"hitSuccessfully":true},{"note":46,"velocity":85,"hitTime":25456,"closestNoteTime":25440,"hitSuccessfully":true},{"note":46,"velocity":94,"hitTime":25920,"closestNoteTime":25920,"hitSuccessfully":true},{"note":38,"velocity":110,"hitTime":25936,"closestNoteTime":25920,"hitSuccessfully":true},{"note":46,"velocity":89,"hitTime":26400,"closestNoteTime":26400,"hitSuccessfully":true},{"note":46,"velocity":97,"hitTime":26896,"closestNoteTime":26880,"hitSuccessfully":true},{"note":36,"velocity":104,"hitTime":26896,"closestNoteTime":26880,"hitSuccessfully":true},{"note":46,"velocity":84,"hitTime":27408,"closestNoteTime":27360,"hitSuccessfully":true},{"note":38,"velocity":115,"hitTime":27872,"closestNoteTime":27840,"hitSuccessfully":true},{"note":46,"velocity":101,"hitTime":27872,"closestNoteTime":27840,"hitSuccessfully":true},{"note":46,"velocity":91,"hitTime":28352,"closestNoteTime":28320,"hitSuccessfully":true},{"note":46,"velocity":97,"hitTime":28832,"closestNoteTime":28800,"hitSuccessfully":true},{"note":36,"velocity":101,"hitTime":28832,"closestNoteTime":28800,"hitSuccessfully":true},{"note":46,"velocity":82,"hitTime":29344,"closestNoteTime":29280,"hitSuccessfully":true},{"note":38,"velocity":110,"hitTime":29792,"closestNoteTime":29760,"hitSuccessfully":true},{"note":46,"velocity":106,"hitTime":29792,"closestNoteTime":29760,"hitSuccessfully":true},{"note":46,"velocity":94,"hitTime":30272,"closestNoteTime":30240,"hitSuccessfully":true}]}