{"frames":[{"note":46,"velocity":85,"hitTime":-88,"closestNoteTime":0,"hitSuccessfully":true},{"note":46,"velocity":60,"hitTime":448,"closestNoteTime":480,"hitSuccessfully":true},{"note":46,"velocity":80,"hitTime":920,"closestNoteTime":960,"hitSuccessfully":true},{"note":46,"velocity":77,"hitTime":1416,"closestNoteTime":1440,"hitSuccessfully":true},{"note":36,"velocity":43,"hitTime":1880,"closestNoteTime":1920,"hitSuccessfully":true},{"note":46,"velocity":104,"hitTime":1880,"closestNoteTime":1920,"hitSuccessfully":true},{"note":46,"velocity":77,"hitTime":2368,"closestNoteTime":2400,"hitSuccessfully":true},{"note":46,"velocity":82,"hitTime":2848,"closestNoteTime":2880,"hitSuccessfully":true},{"note":46,"velocity":83,"hitTime":3328,"closestNoteTime":3360,"hitSuccessfully":true},{"note":36,"velocity":54,"hitTime":3744,"closestNoteTime":3840,"hitSuccessfully":true},{"note":46,"velocity":102,"hitTime":3760,"closestNoteTime":3840,"hitSuccessfully":true},{"note":46,"velocity":77,"hitTime":4296,"closestNoteTime":4320,"hitSuccessfully":true},{"note":46,"velocity":83,"hitTime":4776,"closestNoteTime":4800,"hitSuccessfully":true},{"note":46,"velocity":85,"hitTime":5240,"closestNoteTime":5280,"hitSuccessfully":true},{"note":46,"velocity":102,"hitTime":5696,"closestNoteTime":5760,"hitSuccessfully":true},{"note":36,"velocity":40,"hitTime":5712,"closestNoteTime":5760,"hitSuccessfully":true},{"note":46,"velocity":82,"hitTime":6192,"closestNoteTime":6240,"hitSuccessfully":true},{"note":46,"velocity":85,"hitTime":6672,"closestNoteTime":6720,"hitSuccessfully":true},{"note":46,"velocity":83,"hitTime":7168,"closestNoteTime":7200,"hitSuccessfully":true},{"note":46,"velocity":102,"hitTime":7656,"closestNoteTime":7680,"hitSuccessfully":true},{"note":36,"velocity":39,"hitTime":7680,"closestNoteTime":7680,"hitSuccessfully":true},{"note":46,"velocity":82,"hitTime":8160,"closestNoteTime":8160,"hitSuccessfully":true},{"note":46,"velocity":84,"hitTime":8600,"closestNoteTime":8640,"hitSuccessfully":true},{"note":46,"velocity":86,"hitTime":9112,"closestNoteTime":9120,"hitSuccessfully":true},{"note":46,"velocity":100,"hitTime":9552,"closestNoteTime":9600,"hitSuccessfully":true},{"note":36,"velocity":36,"hitTime":9576,"closestNoteTime":9600,"hitSuccessfully":true},{"note":46,"velocity":84,"hitTime":10048,"closestNoteTime":10080,"hitSuccessfully":true},{"note":46,"velocity":85,"hitTime":10504,"closestNoteTime":10560,"hitSuccessfully":true},{"note":46,"velocity":86,"hitTime":11000,"closestNoteTime":11040,"hitSuccessfully":true},{"note":46,"velocity":96,"hitTime":11496,"closestNoteTime":11520,"hitSuccessfully":true},{"note":36,"velocity":34,"hitTime":11520,"closestNoteTime":11520,"hitSuccessfully":true},{"note":46,"velocity":83,"hitTime":11992,"closestNoteTime":12000,"hitSuccessfully":true},{"note":46,"velocity":89,"hitTime":12456,"closestNoteTime":12480,"hitSuccessfully":true},{"note":46,"velocity":76,"hitTime":12952,"closestNoteTime":12960,"hitSuccessfully":true},{"note":46,"velocity":103,"hitTime":13424,"closestNoteTime":13440,"hitSuccessfully":true},{"note":36,"velocity":34,"hitTime":13472,"closestNoteTime":13440,"hitSuccessfully":true},{"note":46,"velocity":85,"hitTime":13920,"closestNoteTime":13920,"hitSuccessfully":true},{"note":46,"velocity":90,"hitTime":14360,"closestNoteTime":14400,"hitSuccessfully":true},{"note":46,"velocity":93,"hitTime":14856,"closestNoteTime":14880,"hitSuccessfully":true}]}