{
  "frames": [
    {
      "note": 46,
      "velocity": 116,
      "hitTime": 59,
      "closestNoteTime": 0,
      "hitSuccessfully": true
    },
    {
      "note": 46,
      "velocity": 97,
      "hitTime": 450,
      "closestNoteTime": 480,
      "hitSuccessfully": true
    },
    {
      "note": 46,
      "velocity": 107,
      "hitTime": 1017,
      "closestNoteTime": 960,
      "hitSuccessfully": true
    },
    {
      "note": 38,
      "velocity": 85,
      "hitTime": 1021,
      "closestNoteTime": 960,
      "hitSuccessfully": true
    },
    {
      "note": 46,
      "velocity": 100,
      "hitTime": 1506,
      "closestNoteTime": 1440,
      "hitSuccessfully": true
    },
    {
      "note": 46,
      "velocity": 99,
      "hitTime": 1981,
      "closestNoteTime": 1920,
      "hitSuccessfully": true
    },
    {
      "note": 46,
      "velocity": 94,
      "hitTime": 2432,
      "closestNoteTime": 2400,
      "hitSuccessfully": true
    },
    {
      "note": 46,
      "velocity": 107,
      "hitTime": 2945,
      "closestNoteTime": 2880,
      "hitSuccessfully": true
    },
    {
      "note": 38,
      "velocity": 90,
      "hitTime": 2945,
      "closestNoteTime": 2880,
      "hitSuccessfully": true
    },
    {
      "note": 46,
      "velocity": 94,
      "hitTime": 3400,
      "closestNoteTime": 3360,
      "hitSuccessfully": true
    },
    {
      "note": 46,
      "velocity": 101,
      "hitTime": 3866,
      "closestNoteTime": 3840,
      "hitSuccessfully": true
    },
    {
      "note": 46,
      "velocity": 100,
      "hitTime": 4379,
      "closestNoteTime": 4320,
      "hitSuccessfully": true
    },
    {
      "note": 46,
      "velocity": 106,
      "hitTime": 4874,
      "closestNoteTime": 4800,
      "hitSuccessfully": true
    },
    {
      "note": 38,
      "velocity": 90,
      "hitTime": 4891,
      "closestNoteTime": 4800,
      "hitSuccessfully": true
    },
    {
      "note": 46,
      "velocity": 99,
      "hitTime": 5323,
      "closestNoteTime": 5280,
      "hitSuccessfully": true
    },
    {
      "note": 46,
      "velocity": 108,
      "hitTime": 5796,
      "closestNoteTime": 5760,
      "hitSuccessfully": true
    },
    {
      "note": 36,
      "velocity": 48,
      "hitTime": 5955,
      "closestNoteTime": 5760,
      "hitSuccessfully": true
    },
    {
      "note": 46,
      "velocity": 104,
      "hitTime": 6406,
      "closestNoteTime": 6240,
      "hitSuccessfully": true
    },
    {
      "note": 46,
      "velocity": 88,
      "hitTime": 6815,
      "closestNoteTime": 6720,
      "hitSuccessfully": true
    },
    {
      "note": 38,
      "velocity": 87,
      "hitTime": 7061,
      "closestNoteTime": 7200,
      "hitSuccessfully": true
    },
    {
      "note": 46,
      "velocity": 97,
      "hitTime": 7311,
      "closestNoteTime": 7200,
      "hitSuccessfully": true
    },
    {
      "note": 46,
      "velocity": 103,
      "hitTime": 7697,
      "closestNoteTime": 7680,
      "hitSuccessfully": true
    },
    {
      "note": 46,
      "velocity": 103,
      "hitTime": 8249,
      "closestNoteTime": 8160,
      "hitSuccessfully": true
    },
    {
      "note": 46,
      "velocity": 106,
      "hitTime": 8681,
      "closestNoteTime": 8640,
      "hitSuccessfully": true
    },
    {
      "note": 46,
      "velocity": 91,
      "hitTime": 9171,
      "closestNoteTime": 9120,
      "hitSuccessfully": true
    },
    {
      "note": 46,
      "velocity": 107,
      "hitTime": 9684,
      "closestNoteTime": 9600,
      "hitSuccessfully": true
    },
    {
      "note": 46,
      "velocity": 103,
      "hitTime": 10219,
      "closestNoteTime": 10080,
      "hitSuccessfully": true
    },
    {
      "note": 46,
      "velocity": 103,
      "hitTime": 10686,
      "closestNoteTime": 10560,
      "hitSuccessfully": true
    },
    {
      "note": 46,
      "velocity": 101,
      "hitTime": 11219,
      "closestNoteTime": 11040,
      "hitSuccessfully": true
    },
    {
      "note": 46,
      "velocity": 106,
      "hitTime": 11710,
      "closestNoteTime": 11520,
      "hitSuccessfully": true
    },
    {
      "note": 46,
      "velocity": 100,
      "hitTime": 12161,
      "closestNoteTime": 12000,
      "hitSuccessfully": true
    },
    {
      "note": 46,
      "velocity": 106,
      "hitTime": 12631,
      "closestNoteTime": 12480,
      "hitSuccessfully": true
    },
    {
      "note": 38,
      "velocity": 92,
      "hitTime": 12633,
      "closestNoteTime": 12480,
      "hitSuccessfully": true
    },
    {
      "note": 46,
      "velocity": 96,
      "hitTime": 13082,
      "closestNoteTime": 12960,
      "hitSuccessfully": true
    },
    {
      "note": 46,
      "velocity": 98,
      "hitTime": 13595,
      "closestNoteTime": 13440,
      "hitSuccessfully": true
    },
    {
      "note": 46,
      "velocity": 96,
      "hitTime": 14041,
      "closestNoteTime": 13920,
      "hitSuccessfully": true
    },
    {
      "note": 38,
      "velocity": 95,
      "hitTime": 14539,
      "closestNoteTime": 14400,
      "hitSuccessfully": true
    },
    {
      "note": 46,
      "velocity": 109,
      "hitTime": 14539,
      "closestNoteTime": 14400,
      "hitSuccessfully": true
    },
    {
      "note": 46,
      "velocity": 97,
      "hitTime": 15008,
      "closestNoteTime": 14880,
      "hitSuccessfully": true
    },
    {
      "note": 46,
      "velocity": 98,
      "hitTime": 15461,
      "closestNoteTime": 15360,
      "hitSuccessfully": true
    },
    {
      "note": 46,
      "velocity": 97,
      "hitTime": 15951,
      "closestNoteTime": 15840,
      "hitSuccessfully": true
    },
    {
      "note": 46,
      "velocity": 104,
      "hitTime": 16423,
      "closestNoteTime": 16320,
      "hitSuccessfully": true
    },
    {
      "note": 38,
      "velocity": 87,
      "hitTime": 16440,
      "closestNoteTime": 16320,
      "hitSuccessfully": true
    },
    {
      "note": 46,
      "velocity": 96,
      "hitTime": 16872,
      "closestNoteTime": 16800,
      "hitSuccessfully": true
    },
    {
      "note": 46,
      "velocity": 97,
      "hitTime": 17362,
      "closestNoteTime": 17280,
      "hitSuccessfully": true
    },
    {
      "note": 46,
      "velocity": 97,
      "hitTime": 17817,
      "closestNoteTime": 17760,
      "hitSuccessfully": true
    },
    {
      "note": 38,
      "velocity": 94,
      "hitTime": 18283,
      "closestNoteTime": 18240,
      "hitSuccessfully": true
    },
    {
      "note": 46,
      "velocity": 103,
      "hitTime": 18306,
      "closestNoteTime": 18240,
      "hitSuccessfully": true
    },
    {
      "note": 46,
      "velocity": 99,
      "hitTime": 18779,
      "closestNoteTime": 18720,
      "hitSuccessfully": true
    },
    {
      "note": 46,
      "velocity": 100,
      "hitTime": 19250,
      "closestNoteTime": 19200,
      "hitSuccessfully": true
    },
    {
      "note": 46,
      "velocity": 94,
      "hitTime": 19700,
      "closestNoteTime": 19680,
      "hitSuccessfully": true
    },
    {
      "note": 46,
      "velocity": 101,
      "hitTime": 20150,
      "closestNoteTime": 20160,
      "hitSuccessfully": true
    },
    {
      "note": 38,
      "velocity": 85,
      "hitTime": 20173,
      "closestNoteTime": 20160,
      "hitSuccessfully": true
    },
    {
      "note": 46,
      "velocity": 97,
      "hitTime": 20639,
      "closestNoteTime": 20640,
      "hitSuccessfully": true
    },
    {
      "note": 46,
      "velocity": 97,
      "hitTime": 21112,
      "closestNoteTime": 21120,
      "hitSuccessfully": true
    },
    {
      "note": 46,
      "velocity": 101,
      "hitTime": 21601,
      "closestNoteTime": 21600,
      "hitSuccessfully": true
    },
    {
      "note": 38,
      "velocity": 80,
      "hitTime": 22073,
      "closestNoteTime": 22080,
      "hitSuccessfully": true
    },
    {
      "note": 46,
      "velocity": 107,
      "hitTime": 22137,
      "closestNoteTime": 22080,
      "hitSuccessfully": true
    },
    {
      "note": 46,
      "velocity": 96,
      "hitTime": 22649,
      "closestNoteTime": 22560,
      "hitSuccessfully": true
    },
    {
      "note": 46,
      "velocity": 105,
      "hitTime": 23139,
      "closestNoteTime": 23040,
      "hitSuccessfully": true
    },
    {
      "note": 46,
      "velocity": 91,
      "hitTime": 23610,
      "closestNoteTime": 23520,
      "hitSuccessfully": true
    },
    {
      "note": 46,
      "velocity": 102,
      "hitTime": 24084,
      "closestNoteTime": 24000,
      "hitSuccessfully": true
    },
    {
      "note": 38,
      "velocity": 74,
      "hitTime": 24099,
      "closestNoteTime": 24000,
      "hitSuccessfully": true
    },
    {
      "note": 46,
      "velocity": 95,
      "hitTime": 24531,
      "closestNoteTime": 24480,
      "hitSuccessfully": true
    },
    {
      "note": 46,
      "velocity": 97,
      "hitTime": 24965,
      "closestNoteTime": 24960,
      "hitSuccessfully": true
    },
    {
      "note": 46,
      "velocity": 99,
      "hitTime": 25453,
      "closestNoteTime": 25440,
      "hitSuccessfully": true
    },
    {
      "note": 38,
      "velocity": 84,
      "hitTime": 25941,
      "closestNoteTime": 25920,
      "hitSuccessfully": true
    },
    {
      "note": 46,
      "velocity": 105,
      "hitTime": 25967,
      "closestNoteTime": 25920,
      "hitSuccessfully": true
    },
    {
      "note": 46,
      "velocity": 100,
      "hitTime": 26480,
      "closestNoteTime": 26400,
      "hitSuccessfully": true
    },
    {
      "note": 46,
      "velocity": 103,
      "hitTime": 26966,
      "closestNoteTime": 26880,
      "hitSuccessfully": true
    },
    {
      "note": 46,
      "velocity": 97,
      "hitTime": 27459,
      "closestNoteTime": 27360,
      "hitSuccessfully": true
    },
    {
      "note": 38,
      "velocity": 85,
      "hitTime": 27928,
      "closestNoteTime": 27840,
      "hitSuccessfully": true
    },
    {
      "note": 46,
      "velocity": 103,
      "hitTime": 27951,
      "closestNoteTime": 27840,
      "hitSuccessfully": true
    },
    {
      "note": 46,
      "velocity": 95,
      "hitTime": 28381,
      "closestNoteTime": 28320,
      "hitSuccessfully": true
    },
    {
      "note": 46,
      "velocity": 66,
      "hitTime": 28480,
      "closestNoteTime": 28800,
      "hitSuccessfully": true
    },
    {
      "note": 46,
      "velocity": 100,
      "hitTime": 28893,
      "closestNoteTime": 28800,
      "hitSuccessfully": true
    },
    {
      "note": 46,
      "velocity": 97,
      "hitTime": 29321,
      "closestNoteTime": 29760,
      "hitSuccessfully": true
    },
    {
      "note": 38,
      "velocity": 85,
      "hitTime": 29798,
      "closestNoteTime": 29760,
      "hitSuccessfully": true
    },
    {
      "note": 46,
      "velocity": 108,
      "hitTime": 29838,
      "closestNoteTime": 30240,
      "hitSuccessfully": true
    }
  ]
}