{"frames":[{"note":46,"velocity":77,"hitTime":24,"closestNoteTime":0,"hitSuccessfully":true},{"note":46,"velocity":80,"hitTime":504,"closestNoteTime":480,"hitSuccessfully":true},{"note":46,"velocity":77,"hitTime":968,"closestNoteTime":960,"hitSuccessfully":true},{"note":46,"velocity":83,"hitTime":1440,"closestNoteTime":1440,"hitSuccessfully":true},{"note":46,"velocity":79,"hitTime":1864,"closestNoteTime":1920,"hitSuccessfully":true},{"note":46,"velocity":79,"hitTime":2376,"closestNoteTime":2400,"hitSuccessfully":true},{"note":46,"velocity":74,"hitTime":2832,"closestNoteTime":2880,"hitSuccessfully":true},{"note":46,"velocity":79,"hitTime":3288,"closestNoteTime":3360,"hitSuccessfully":true},{"note":46,"velocity":80,"hitTime":3784,"closestNoteTime":3840,"hitSuccessfully":true},{"note":46,"velocity":82,"hitTime":4264,"closestNoteTime":4320,"hitSuccessfully":true},{"note":46,"velocity":82,"hitTime":4720,"closestNoteTime":4800,"hitSuccessfully":true},{"note":46,"velocity":80,"hitTime":5256,"closestNoteTime":5280,"hitSuccessfully":true},{"note":46,"velocity":85,"hitTime":5712,"closestNoteTime":5760,"hitSuccessfully":true},{"note":46,"velocity":60,"hitTime":6208,"closestNoteTime":6240,"hitSuccessfully":true},{"note":46,"velocity":85,"hitTime":6712,"closestNoteTime":6720,"hitSuccessfully":true},{"note":46,"velocity":82,"hitTime":7152,"closestNoteTime":7200,"hitSuccessfully":true},{"note":46,"velocity":85,"hitTime":7648,"closestNoteTime":7680,"hitSuccessfully":true},{"note":46,"velocity":77,"hitTime":8104,"closestNoteTime":8160,"hitSuccessfully":true},{"note":46,"velocity":83,"hitTime":8576,"closestNoteTime":8640,"hitSuccessfully":true},{"note":46,"velocity":83,"hitTime":9032,"closestNoteTime":9120,"hitSuccessfully":true},{"note":46,"velocity":83,"hitTime":9496,"closestNoteTime":9600,"hitSuccessfully":true},{"note":46,"velocity":80,"hitTime":9968,"closestNoteTime":10080,"hitSuccessfully":true},{"note":46,"velocity":82,"hitTime":10480,"closestNoteTime":10560,"hitSuccessfully":true},{"note":46,"velocity":80,"hitTime":10944,"closestNoteTime":11040,"hitSuccessfully":true},{"note":46,"velocity":82,"hitTime":11464,"closestNoteTime":11520,"hitSuccessfully":true},{"note":46,"velocity":80,"hitTime":11936,"closestNoteTime":12000,"hitSuccessfully":true},{"note":46,"velocity":80,"hitTime":12416,"closestNoteTime":12480,"hitSuccessfully":true},{"note":46,"velocity":79,"hitTime":12928,"closestNoteTime":12960,"hitSuccessfully":true},{"note":46,"velocity":80,"hitTime":13384,"closestNoteTime":13440,"hitSuccessfully":true},{"note":46,"velocity":77,"hitTime":13824,"closestNoteTime":13920,"hitSuccessfully":true},{"note":46,"velocity":80,"hitTime":14336,"closestNoteTime":14400,"hitSuccessfully":true},{"note":46,"velocity":80,"hitTime":14784,"closestNoteTime":14880,"hitSuccessfully":true}]}