{"frames":[{"note":46,"velocity":76,"hitTime":32,"closestNoteTime":0,"hitSuccessfully":true},{"note":46,"velocity":79,"hitTime":528,"closestNoteTime":480,"hitSuccessfully":true},{"note":46,"velocity":77,"hitTime":960,"closestNoteTime":960,"hitSuccessfully":true},{"note":46,"velocity":73,"hitTime":1456,"closestNoteTime":1440,"hitSuccessfully":true},{"note":46,"velocity":75,"hitTime":1904,"closestNoteTime":1920,"hitSuccessfully":true},{"note":46,"velocity":72,"hitTime":2360,"closestNoteTime":2400,"hitSuccessfully":true},{"note":46,"velocity":79,"hitTime":2808,"closestNoteTime":2880,"hitSuccessfully":true},{"note":46,"velocity":75,"hitTime":3344,"closestNoteTime":3360,"hitSuccessfully":true},{"note":46,"velocity":75,"hitTime":3784,"closestNoteTime":3840,"hitSuccessfully":true},{"note":46,"velocity":72,"hitTime":4264,"closestNoteTime":4320,"hitSuccessfully":true},{"note":46,"velocity":70,"hitTime":4736,"closestNoteTime":4800,"hitSuccessfully":true},{"note":46,"velocity":66,"hitTime":5240,"closestNoteTime":5280,"hitSuccessfully":true},{"note":46,"velocity":74,"hitTime":5696,"closestNoteTime":5760,"hitSuccessfully":true},{"note":46,"velocity":75,"hitTime":6192,"closestNoteTime":6240,"hitSuccessfully":true},{"note":46,"velocity":74,"hitTime":6648,"closestNoteTime":6720,"hitSuccessfully":true},{"note":46,"velocity":77,"hitTime":7128,"closestNoteTime":7200,"hitSuccessfully":true},{"note":46,"velocity":77,"hitTime":7608,"closestNoteTime":7680,"hitSuccessfully":true},{"note":46,"velocity":73,"hitTime":8096,"closestNoteTime":8160,"hitSuccessfully":true},{"note":46,"velocity":77,"hitTime":8592,"closestNoteTime":8640,"hitSuccessfully":true},{"note":46,"velocity":75,"hitTime":9048,"closestNoteTime":9120,"hitSuccessfully":true},{"note":46,"velocity":75,"hitTime":9536,"closestNoteTime":9600,"hitSuccessfully":true},{"note":46,"velocity":70,"hitTime":9992,"closestNoteTime":10080,"hitSuccessfully":true},{"note":46,"velocity":74,"hitTime":10448,"closestNoteTime":10560,"hitSuccessfully":true},{"note":46,"velocity":72,"hitTime":11000,"closestNoteTime":11040,"hitSuccessfully":true},{"note":46,"velocity":74,"hitTime":11464,"closestNoteTime":11520,"hitSuccessfully":true},{"note":46,"velocity":76,"hitTime":11976,"closestNoteTime":12000,"hitSuccessfully":true},{"note":46,"velocity":77,"hitTime":12472,"closestNoteTime":12480,"hitSuccessfully":true},{"note":46,"velocity":76,"hitTime":12968,"closestNoteTime":12960,"hitSuccessfully":true},{"note":46,"velocity":76,"hitTime":13424,"closestNoteTime":13440,"hitSuccessfully":true},{"note":46,"velocity":76,"hitTime":13888,"closestNoteTime":13920,"hitSuccessfully":true},{"note":46,"velocity":77,"hitTime":14376,"closestNoteTime":14400,"hitSuccessfully":true},{"note":46,"velocity":75,"hitTime":14824,"closestNoteTime":14880,"hitSuccessfully":true}]}