{"frames":[{"note":46,"velocity":94,"hitTime":-8,"closestNoteTime":0,"hitSuccessfully":true},{"note":46,"velocity":91,"hitTime":488,"closestNoteTime":480,"hitSuccessfully":true},{"note":38,"velocity":95,"hitTime":928,"closestNoteTime":960,"hitSuccessfully":true},{"note":46,"velocity":99,"hitTime":928,"closestNoteTime":960,"hitSuccessfully":true},{"note":38,"velocity":54,"hitTime":1008,"closestNoteTime":2880,"hitSuccessfully":false},{"note":46,"velocity":91,"hitTime":1408,"closestNoteTime":1440,"hitSuccessfully":true},{"note":46,"velocity":94,"hitTime":1880,"closestNoteTime":1920,"hitSuccessfully":true},{"note":46,"velocity":91,"hitTime":2344,"closestNoteTime":2400,"hitSuccessfully":true},{"note":46,"velocity":98,"hitTime":2840,"closestNoteTime":2880,"hitSuccessfully":true},{"note":38,"velocity":88,"hitTime":2840,"closestNoteTime":2880,"hitSuccessfully":true},{"note":46,"velocity":93,"hitTime":3312,"closestNoteTime":3360,"hitSuccessfully":true},{"note":46,"velocity":94,"hitTime":3752,"closestNoteTime":3840,"hitSuccessfully":true},{"note":46,"velocity":96,"hitTime":4248,"closestNoteTime":4320,"hitSuccessfully":true},{"note":46,"velocity":99,"hitTime":4728,"closestNoteTime":4800,"hitSuccessfully":true},{"note":38,"velocity":88,"hitTime":4744,"closestNoteTime":4800,"hitSuccessfully":true},{"note":46,"velocity":94,"hitTime":5240,"closestNoteTime":5280,"hitSuccessfully":true},{"note":46,"velocity":96,"hitTime":5696,"closestNoteTime":5760,"hitSuccessfully":true},{"note":46,"velocity":95,"hitTime":6176,"closestNoteTime":6240,"hitSuccessfully":true},{"note":46,"velocity":97,"hitTime":6656,"closestNoteTime":6720,"hitSuccessfully":true},{"note":38,"velocity":89,"hitTime":6672,"closestNoteTime":6720,"hitSuccessfully":true},{"note":46,"velocity":91,"hitTime":7152,"closestNoteTime":7200,"hitSuccessfully":true},{"note":46,"velocity":94,"hitTime":7624,"closestNoteTime":7680,"hitSuccessfully":true},{"note":46,"velocity":91,"hitTime":8128,"closestNoteTime":8160,"hitSuccessfully":true},{"note":38,"velocity":80,"hitTime":8624,"closestNoteTime":8640,"hitSuccessfully":true},{"note":46,"velocity":91,"hitTime":8624,"closestNoteTime":8640,"hitSuccessfully":true},{"note":46,"velocity":89,"hitTime":9120,"closestNoteTime":9120,"hitSuccessfully":true},{"note":46,"velocity":93,"hitTime":9600,"closestNoteTime":9600,"hitSuccessfully":true},{"note":46,"velocity":88,"hitTime":10072,"closestNoteTime":10080,"hitSuccessfully":true},{"note":46,"velocity":89,"hitTime":10568,"closestNoteTime":10560,"hitSuccessfully":true},{"note":38,"velocity":80,"hitTime":10568,"closestNoteTime":10560,"hitSuccessfully":true},{"note":46,"velocity":85,"hitTime":11032,"closestNoteTime":11040,"hitSuccessfully":true},{"note":46,"velocity":88,"hitTime":11488,"closestNoteTime":11520,"hitSuccessfully":true},{"note":46,"velocity":88,"hitTime":12000,"closestNoteTime":12000,"hitSuccessfully":true},{"note":38,"velocity":79,"hitTime":12456,"closestNoteTime":12480,"hitSuccessfully":true},{"note":46,"velocity":91,"hitTime":12456,"closestNoteTime":12480,"hitSuccessfully":true},{"note":46,"velocity":85,"hitTime":12952,"closestNoteTime":12960,"hitSuccessfully":true},{"note":46,"velocity":87,"hitTime":13448,"closestNoteTime":13440,"hitSuccessfully":true},{"note":46,"velocity":90,"hitTime":13944,"closestNoteTime":13920,"hitSuccessfully":true},{"note":46,"velocity":93,"hitTime":14408,"closestNoteTime":14400,"hitSuccessfully":true},{"note":38,"velocity":76,"hitTime":14424,"closestNoteTime":14400,"hitSuccessfully":true},{"note":46,"velocity":87,"hitTime":14880,"closestNoteTime":14880,"hitSuccessfully":true}]}