{"frames":[{"note":46,"velocity":23,"hitTime":-3992,"closestNoteTime":0,"hitSuccessfully":false},{"note":46,"velocity":26,"hitTime":-3848,"closestNoteTime":0,"hitSuccessfully":false},{"note":46,"velocity":27,"hitTime":-3728,"closestNoteTime":0,"hitSuccessfully":false},{"note":46,"velocity":32,"hitTime":-3592,"closestNoteTime":0,"hitSuccessfully":false},{"note":46,"velocity":28,"hitTime":-3480,"closestNoteTime":0,"hitSuccessfully":false},{"note":46,"velocity":67,"hitTime":104,"closestNoteTime":0,"hitSuccessfully":true},{"note":46,"velocity":58,"hitTime":584,"closestNoteTime":480,"hitSuccessfully":true},{"note":46,"velocity":52,"hitTime":1056,"closestNoteTime":960,"hitSuccessfully":true},{"note":46,"velocity":64,"hitTime":1496,"closestNoteTime":1440,"hitSuccessfully":true},{"note":46,"velocity":66,"hitTime":1968,"closestNoteTime":1920,"hitSuccessfully":true},{"note":46,"velocity":70,"hitTime":3920,"closestNoteTime":3840,"hitSuccessfully":true},{"note":46,"velocity":67,"hitTime":4344,"closestNoteTime":4320,"hitSuccessfully":true},{"note":46,"velocity":65,"hitTime":4856,"closestNoteTime":4800,"hitSuccessfully":true},{"note":46,"velocity":56,"hitTime":5328,"closestNoteTime":5280,"hitSuccessfully":true},{"note":46,"velocity":70,"hitTime":5808,"closestNoteTime":5760,"hitSuccessfully":true},{"note":46,"velocity":66,"hitTime":6312,"closestNoteTime":6240,"hitSuccessfully":true},{"note":46,"velocity":70,"hitTime":6784,"closestNoteTime":6720,"hitSuccessfully":true},{"note":46,"velocity":64,"hitTime":7256,"closestNoteTime":7200,"hitSuccessfully":true},{"note":46,"velocity":70,"hitTime":7720,"closestNoteTime":7680,"hitSuccessfully":true},{"note":46,"velocity":74,"hitTime":8200,"closestNoteTime":8160,"hitSuccessfully":true},{"note":46,"velocity":77,"hitTime":8688,"closestNoteTime":8640,"hitSuccessfully":true},{"note":46,"velocity":70,"hitTime":9168,"closestNoteTime":9120,"hitSuccessfully":true},{"note":46,"velocity":79,"hitTime":9624,"closestNoteTime":9600,"hitSuccessfully":true},{"note":46,"velocity":70,"hitTime":10088,"closestNoteTime":10080,"hitSuccessfully":true},{"note":46,"velocity":76,"hitTime":10576,"closestNoteTime":10560,"hitSuccessfully":true},{"note":46,"velocity":73,"hitTime":11072,"closestNoteTime":11040,"hitSuccessfully":true},{"note":46,"velocity":70,"hitTime":11576,"closestNoteTime":11520,"hitSuccessfully":true},{"note":46,"velocity":64,"hitTime":12048,"closestNoteTime":12000,"hitSuccessfully":true},{"note":46,"velocity":67,"hitTime":12512,"closestNoteTime":12480,"hitSuccessfully":true},{"note":46,"velocity":70,"hitTime":12984,"closestNoteTime":12960,"hitSuccessfully":true},{"note":46,"velocity":75,"hitTime":13448,"closestNoteTime":13440,"hitSuccessfully":true},{"note":46,"velocity":72,"hitTime":13936,"closestNoteTime":13920,"hitSuccessfully":true},{"note":46,"velocity":75,"hitTime":14456,"closestNoteTime":14400,"hitSuccessfully":true},{"note":46,"velocity":66,"hitTime":14936,"closestNoteTime":14880,"hitSuccessfully":true}]}