{"frames":[{"note":46,"velocity":70,"hitTime":48,"closestNoteTime":0,"hitSuccessfully":true},{"note":46,"velocity":70,"hitTime":512,"closestNoteTime":480,"hitSuccessfully":true},{"note":38,"velocity":73,"hitTime":984,"closestNoteTime":960,"hitSuccessfully":true},{"note":46,"velocity":77,"hitTime":984,"closestNoteTime":960,"hitSuccessfully":true},{"note":38,"velocity":58,"hitTime":1008,"closestNoteTime":2880,"hitSuccessfully":false},{"note":46,"velocity":73,"hitTime":1464,"closestNoteTime":1440,"hitSuccessfully":true},{"note":46,"velocity":67,"hitTime":1944,"closestNoteTime":1920,"hitSuccessfully":true},{"note":46,"velocity":72,"hitTime":2416,"closestNoteTime":2400,"hitSuccessfully":true},{"note":46,"velocity":77,"hitTime":2912,"closestNoteTime":2880,"hitSuccessfully":true},{"note":38,"velocity":62,"hitTime":2912,"closestNoteTime":2880,"hitSuccessfully":true},{"note":38,"velocity":34,"hitTime":2952,"closestNoteTime":4800,"hitSuccessfully":false},{"note":46,"velocity":66,"hitTime":3384,"closestNoteTime":3360,"hitSuccessfully":true},{"note":46,"velocity":74,"hitTime":3832,"closestNoteTime":3840,"hitSuccessfully":true},{"note":46,"velocity":66,"hitTime":4320,"closestNoteTime":4320,"hitSuccessfully":true},{"note":38,"velocity":72,"hitTime":4840,"closestNoteTime":4800,"hitSuccessfully":true},{"note":46,"velocity":79,"hitTime":4840,"closestNoteTime":4800,"hitSuccessfully":true},{"note":38,"velocity":50,"hitTime":4880,"closestNoteTime":6720,"hitSuccessfully":false},{"note":46,"velocity":64,"hitTime":5336,"closestNoteTime":5280,"hitSuccessfully":true},{"note":46,"velocity":72,"hitTime":5776,"closestNoteTime":5760,"hitSuccessfully":true},{"note":46,"velocity":60,"hitTime":6272,"closestNoteTime":6240,"hitSuccessfully":true},{"note":38,"velocity":66,"hitTime":6744,"closestNoteTime":6720,"hitSuccessfully":true},{"note":46,"velocity":82,"hitTime":6752,"closestNoteTime":6720,"hitSuccessfully":true},{"note":38,"velocity":47,"hitTime":6784,"closestNoteTime":8640,"hitSuccessfully":false},{"note":46,"velocity":70,"hitTime":7248,"closestNoteTime":7200,"hitSuccessfully":true},{"note":46,"velocity":74,"hitTime":7728,"closestNoteTime":7680,"hitSuccessfully":true},{"note":46,"velocity":70,"hitTime":8224,"closestNoteTime":8160,"hitSuccessfully":true},{"note":38,"velocity":69,"hitTime":8680,"closestNoteTime":8640,"hitSuccessfully":true},{"note":46,"velocity":79,"hitTime":8712,"closestNoteTime":8640,"hitSuccessfully":true},{"note":38,"velocity":49,"hitTime":8720,"closestNoteTime":10560,"hitSuccessfully":false},{"note":46,"velocity":70,"hitTime":9160,"closestNoteTime":9120,"hitSuccessfully":true},{"note":46,"velocity":75,"hitTime":9632,"closestNoteTime":9600,"hitSuccessfully":true},{"note":46,"velocity":70,"hitTime":10128,"closestNoteTime":10080,"hitSuccessfully":true},{"note":38,"velocity":72,"hitTime":10608,"closestNoteTime":10560,"hitSuccessfully":true},{"note":46,"velocity":80,"hitTime":10624,"closestNoteTime":10560,"hitSuccessfully":true},{"note":38,"velocity":47,"hitTime":10648,"closestNoteTime":12480,"hitSuccessfully":false},{"note":46,"velocity":70,"hitTime":11064,"closestNoteTime":11040,"hitSuccessfully":true},{"note":46,"velocity":73,"hitTime":11520,"closestNoteTime":11520,"hitSuccessfully":true},{"note":46,"velocity":70,"hitTime":12016,"closestNoteTime":12000,"hitSuccessfully":true},{"note":38,"velocity":66,"hitTime":12520,"closestNoteTime":12480,"hitSuccessfully":true},{"note":46,"velocity":79,"hitTime":12520,"closestNoteTime":12480,"hitSuccessfully":true},{"note":46,"velocity":64,"hitTime":13008,"closestNoteTime":12960,"hitSuccessfully":true},{"note":46,"velocity":73,"hitTime":13464,"closestNoteTime":13440,"hitSuccessfully":true},{"note":46,"velocity":67,"hitTime":13968,"closestNoteTime":13920,"hitSuccessfully":true},{"note":38,"velocity":72,"hitTime":14440,"closestNoteTime":14400,"hitSuccessfully":true},{"note":46,"velocity":80,"hitTime":14440,"closestNoteTime":14400,"hitSuccessfully":true},{"note":38,"velocity":44,"hitTime":14480,"closestNoteTime":0,"hitSuccessfully":false},{"note":46,"velocity":73,"hitTime":14904,"closestNoteTime":14880,"hitSuccessfully":true}]}