{"frames":[{"note":36,"velocity":58,"hitTime":-64,"closestNoteTime":0,"hitSuccessfully":true},{"note":38,"velocity":24,"hitTime":72,"closestNoteTime":960,"hitSuccessfully":false},{"note":38,"velocity":64,"hitTime":432,"closestNoteTime":960,"hitSuccessfully":false},{"note":46,"velocity":75,"hitTime":808,"closestNoteTime":960,"hitSuccessfully":false},{"note":46,"velocity":80,"hitTime":1104,"closestNoteTime":960,"hitSuccessfully":true},{"note":46,"velocity":80,"hitTime":1504,"closestNoteTime":1440,"hitSuccessfully":true},{"note":38,"velocity":69,"hitTime":1744,"closestNoteTime":960,"hitSuccessfully":false},{"note":36,"velocity":51,"hitTime":1808,"closestNoteTime":1920,"hitSuccessfully":true},{"note":46,"velocity":76,"hitTime":1888,"closestNoteTime":1920,"hitSuccessfully":true},{"note":46,"velocity":77,"hitTime":2264,"closestNoteTime":2400,"hitSuccessfully":true},{"note":46,"velocity":76,"hitTime":2696,"closestNoteTime":2880,"hitSuccessfully":false},{"note":46,"velocity":72,"hitTime":3072,"closestNoteTime":2880,"hitSuccessfully":false},{"note":38,"velocity":69,"hitTime":3440,"closestNoteTime":2880,"hitSuccessfully":false},{"note":36,"velocity":55,"hitTime":3552,"closestNoteTime":3840,"hitSuccessfully":false},{"note":46,"velocity":65,"hitTime":3752,"closestNoteTime":3840,"hitSuccessfully":true},{"note":46,"velocity":74,"hitTime":4048,"closestNoteTime":4320,"hitSuccessfully":false},{"note":46,"velocity":72,"hitTime":4424,"closestNoteTime":4320,"hitSuccessfully":true},{"note":38,"velocity":62,"hitTime":4848,"closestNoteTime":4800,"hitSuccessfully":true},{"note":46,"velocity":75,"hitTime":5208,"closestNoteTime":5280,"hitSuccessfully":true},{"note":36,"velocity":52,"hitTime":5264,"closestNoteTime":5760,"hitSuccessfully":false},{"note":46,"velocity":70,"hitTime":5560,"closestNoteTime":5760,"hitSuccessfully":false},{"note":46,"velocity":67,"hitTime":6000,"closestNoteTime":5760,"hitSuccessfully":false},{"note":46,"velocity":55,"hitTime":6376,"closestNoteTime":6240,"hitSuccessfully":true},{"note":36,"velocity":52,"hitTime":6416,"closestNoteTime":5760,"hitSuccessfully":false},{"note":46,"velocity":65,"hitTime":7112,"closestNoteTime":7200,"hitSuccessfully":true},{"note":36,"velocity":34,"hitTime":7288,"closestNoteTime":7680,"hitSuccessfully":false},{"note":36,"velocity":22,"hitTime":7352,"closestNoteTime":7680,"hitSuccessfully":false},{"note":46,"velocity":44,"hitTime":7448,"closestNoteTime":7680,"hitSuccessfully":false},{"note":46,"velocity":70,"hitTime":7744,"closestNoteTime":7680,"hitSuccessfully":true},{"note":46,"velocity":77,"hitTime":8128,"closestNoteTime":8160,"hitSuccessfully":true},{"note":46,"velocity":77,"hitTime":8560,"closestNoteTime":8640,"hitSuccessfully":true},{"note":46,"velocity":77,"hitTime":8920,"closestNoteTime":9120,"hitSuccessfully":false},{"note":36,"velocity":50,"hitTime":9336,"closestNoteTime":9600,"hitSuccessfully":false},{"note":46,"velocity":80,"hitTime":9336,"closestNoteTime":9120,"hitSuccessfully":false},{"note":46,"velocity":75,"hitTime":9680,"closestNoteTime":9600,"hitSuccessfully":true},{"note":46,"velocity":73,"hitTime":9992,"closestNoteTime":10080,"hitSuccessfully":true},{"note":46,"velocity":66,"hitTime":10312,"closestNoteTime":10560,"hitSuccessfully":false},{"note":38,"velocity":71,"hitTime":10784,"closestNoteTime":10560,"hitSuccessfully":false},{"note":36,"velocity":36,"hitTime":10928,"closestNoteTime":11520,"hitSuccessfully":false},{"note":46,"velocity":56,"hitTime":11128,"closestNoteTime":11040,"hitSuccessfully":true},{"note":46,"velocity":73,"hitTime":11448,"closestNoteTime":11520,"hitSuccessfully":true},{"note":46,"velocity":64,"hitTime":12176,"closestNoteTime":12000,"hitSuccessfully":false},{"note":46,"velocity":67,"hitTime":12440,"closestNoteTime":12480,"hitSuccessfully":true},{"note":36,"velocity":32,"hitTime":12520,"closestNoteTime":13440,"hitSuccessfully":false},{"note":46,"velocity":50,"hitTime":12776,"closestNoteTime":12960,"hitSuccessfully":false},{"note":46,"velocity":60,"hitTime":13032,"closestNoteTime":12960,"hitSuccessfully":true},{"note":46,"velocity":73,"hitTime":13360,"closestNoteTime":13440,"hitSuccessfully":true},{"note":36,"velocity":48,"hitTime":13432,"closestNoteTime":13440,"hitSuccessfully":true},{"note":38,"velocity":62,"hitTime":13488,"closestNoteTime":14400,"hitSuccessfully":false},{"note":46,"velocity":62,"hitTime":13688,"closestNoteTime":13920,"hitSuccessfully":false},{"note":46,"velocity":60,"hitTime":13952,"closestNoteTime":13920,"hitSuccessfully":true},{"note":36,"velocity":42,"hitTime":14512,"closestNoteTime":11520,"hitSuccessfully":false},{"note":46,"velocity":58,"hitTime":14592,"closestNoteTime":14400,"hitSuccessfully":false},{"note":46,"velocity":66,"hitTime":14888,"closestNoteTime":14880,"hitSuccessfully":true},{"note":46,"velocity":65,"hitTime":15184,"closestNoteTime":14400,"hitSuccessfully":false}]}