{"frames":[{"note":46,"velocity":95,"hitTime":104,"closestNoteTime":0,"hitSuccessfully":true},{"note":36,"velocity":28,"hitTime":104,"closestNoteTime":0,"hitSuccessfully":true},{"note":46,"velocity":93,"hitTime":568,"closestNoteTime":480,"hitSuccessfully":true},{"note":46,"velocity":98,"hitTime":1024,"closestNoteTime":960,"hitSuccessfully":true},{"note":46,"velocity":89,"hitTime":1496,"closestNoteTime":1440,"hitSuccessfully":true},{"note":36,"velocity":47,"hitTime":1960,"closestNoteTime":1920,"hitSuccessfully":true},{"note":46,"velocity":97,"hitTime":1960,"closestNoteTime":1920,"hitSuccessfully":true},{"note":46,"velocity":93,"hitTime":2448,"closestNoteTime":2400,"hitSuccessfully":true},{"note":46,"velocity":97,"hitTime":2952,"closestNoteTime":2880,"hitSuccessfully":true},{"note":38,"velocity":76,"hitTime":2952,"closestNoteTime":2880,"hitSuccessfully":true},{"note":46,"velocity":91,"hitTime":3432,"closestNoteTime":3360,"hitSuccessfully":true},{"note":36,"velocity":46,"hitTime":3888,"closestNoteTime":3840,"hitSuccessfully":true},{"note":46,"velocity":96,"hitTime":3904,"closestNoteTime":3840,"hitSuccessfully":true},{"note":46,"velocity":91,"hitTime":4376,"closestNoteTime":4320,"hitSuccessfully":true},{"note":46,"velocity":94,"hitTime":4856,"closestNoteTime":4800,"hitSuccessfully":true},{"note":46,"velocity":91,"hitTime":5336,"closestNoteTime":5280,"hitSuccessfully":true},{"note":46,"velocity":97,"hitTime":5792,"closestNoteTime":5760,"hitSuccessfully":true},{"note":36,"velocity":48,"hitTime":5792,"closestNoteTime":5760,"hitSuccessfully":true},{"note":46,"velocity":91,"hitTime":6272,"closestNoteTime":6240,"hitSuccessfully":true},{"note":46,"velocity":94,"hitTime":6768,"closestNoteTime":6720,"hitSuccessfully":true},{"note":46,"velocity":85,"hitTime":7232,"closestNoteTime":7200,"hitSuccessfully":true},{"note":36,"velocity":54,"hitTime":7704,"closestNoteTime":7680,"hitSuccessfully":true},{"note":46,"velocity":104,"hitTime":7704,"closestNoteTime":7680,"hitSuccessfully":true},{"note":46,"velocity":86,"hitTime":8176,"closestNoteTime":8160,"hitSuccessfully":true},{"note":38,"velocity":80,"hitTime":8640,"closestNoteTime":8640,"hitSuccessfully":true},{"note":46,"velocity":97,"hitTime":8656,"closestNoteTime":8640,"hitSuccessfully":true},{"note":46,"velocity":87,"hitTime":9120,"closestNoteTime":9120,"hitSuccessfully":true},{"note":36,"velocity":48,"hitTime":9576,"closestNoteTime":9600,"hitSuccessfully":true},{"note":46,"velocity":98,"hitTime":9592,"closestNoteTime":9600,"hitSuccessfully":true},{"note":46,"velocity":90,"hitTime":10064,"closestNoteTime":10080,"hitSuccessfully":true},{"note":38,"velocity":82,"hitTime":10568,"closestNoteTime":10560,"hitSuccessfully":true},{"note":46,"velocity":100,"hitTime":10568,"closestNoteTime":10560,"hitSuccessfully":true},{"note":46,"velocity":88,"hitTime":11040,"closestNoteTime":11040,"hitSuccessfully":true},{"note":36,"velocity":38,"hitTime":11520,"closestNoteTime":11520,"hitSuccessfully":true},{"note":46,"velocity":99,"hitTime":11536,"closestNoteTime":11520,"hitSuccessfully":true},{"note":46,"velocity":88,"hitTime":12000,"closestNoteTime":12000,"hitSuccessfully":true},{"note":38,"velocity":78,"hitTime":12472,"closestNoteTime":12480,"hitSuccessfully":true},{"note":46,"velocity":100,"hitTime":12472,"closestNoteTime":12480,"hitSuccessfully":true},{"note":46,"velocity":85,"hitTime":12936,"closestNoteTime":12960,"hitSuccessfully":true},{"note":36,"velocity":42,"hitTime":13424,"closestNoteTime":13440,"hitSuccessfully":true},{"note":46,"velocity":97,"hitTime":13424,"closestNoteTime":13440,"hitSuccessfully":true},{"note":46,"velocity":91,"hitTime":13904,"closestNoteTime":13920,"hitSuccessfully":true},{"note":46,"velocity":97,"hitTime":14408,"closestNoteTime":14400,"hitSuccessfully":true},{"note":38,"velocity":79,"hitTime":14408,"closestNoteTime":14400,"hitSuccessfully":true},{"note":46,"velocity":91,"hitTime":14880,"closestNoteTime":14880,"hitSuccessfully":true}]}