{"frames":[{"note":36,"velocity":43,"hitTime":8,"closestNoteTime":0,"hitSuccessfully":true},{"note":46,"velocity":104,"hitTime":8,"closestNoteTime":0,"hitSuccessfully":true},{"note":46,"velocity":100,"hitTime":472,"closestNoteTime":480,"hitSuccessfully":true},{"note":46,"velocity":110,"hitTime":928,"closestNoteTime":960,"hitSuccessfully":true},{"note":46,"velocity":99,"hitTime":1384,"closestNoteTime":1440,"hitSuccessfully":true},{"note":36,"velocity":70,"hitTime":1824,"closestNoteTime":1920,"hitSuccessfully":true},{"note":46,"velocity":120,"hitTime":1864,"closestNoteTime":1920,"hitSuccessfully":true},{"note":36,"velocity":30,"hitTime":1920,"closestNoteTime":3840,"hitSuccessfully":false},{"note":46,"velocity":95,"hitTime":2304,"closestNoteTime":2400,"hitSuccessfully":true},{"note":46,"velocity":120,"hitTime":2776,"closestNoteTime":2880,"hitSuccessfully":true},{"note":46,"velocity":97,"hitTime":3232,"closestNoteTime":3360,"hitSuccessfully":true},{"note":36,"velocity":52,"hitTime":3696,"closestNoteTime":3840,"hitSuccessfully":true},{"note":46,"velocity":127,"hitTime":3728,"closestNoteTime":3840,"hitSuccessfully":true},{"note":36,"velocity":28,"hitTime":3792,"closestNoteTime":5760,"hitSuccessfully":false},{"note":46,"velocity":97,"hitTime":4208,"closestNoteTime":4320,"hitSuccessfully":true},{"note":46,"velocity":120,"hitTime":4704,"closestNoteTime":4800,"hitSuccessfully":true},{"note":46,"velocity":94,"hitTime":5200,"closestNoteTime":5280,"hitSuccessfully":true},{"note":36,"velocity":52,"hitTime":5656,"closestNoteTime":5760,"hitSuccessfully":true},{"note":46,"velocity":109,"hitTime":5680,"closestNoteTime":5760,"hitSuccessfully":true},{"note":36,"velocity":22,"hitTime":5744,"closestNoteTime":7680,"hitSuccessfully":false},{"note":46,"velocity":96,"hitTime":6176,"closestNoteTime":6240,"hitSuccessfully":true},{"note":46,"velocity":110,"hitTime":6656,"closestNoteTime":6720,"hitSuccessfully":true},{"note":46,"velocity":70,"hitTime":7192,"closestNoteTime":7200,"hitSuccessfully":true},{"note":46,"velocity":109,"hitTime":7632,"closestNoteTime":7680,"hitSuccessfully":true},{"note":36,"velocity":25,"hitTime":7688,"closestNoteTime":7680,"hitSuccessfully":true},{"note":36,"velocity":23,"hitTime":7768,"closestNoteTime":9600,"hitSuccessfully":false},{"note":46,"velocity":99,"hitTime":8088,"closestNoteTime":8160,"hitSuccessfully":true},{"note":46,"velocity":120,"hitTime":8560,"closestNoteTime":8640,"hitSuccessfully":true},{"note":46,"velocity":100,"hitTime":9064,"closestNoteTime":9120,"hitSuccessfully":true},{"note":36,"velocity":55,"hitTime":9512,"closestNoteTime":9600,"hitSuccessfully":true},{"note":46,"velocity":125,"hitTime":9576,"closestNoteTime":9600,"hitSuccessfully":true},{"note":46,"velocity":96,"hitTime":10056,"closestNoteTime":10080,"hitSuccessfully":true},{"note":46,"velocity":124,"hitTime":10552,"closestNoteTime":10560,"hitSuccessfully":true},{"note":38,"velocity":98,"hitTime":10568,"closestNoteTime":10560,"hitSuccessfully":true},{"note":46,"velocity":103,"hitTime":11032,"closestNoteTime":11040,"hitSuccessfully":true},{"note":36,"velocity":52,"hitTime":11464,"closestNoteTime":11520,"hitSuccessfully":true},{"note":46,"velocity":127,"hitTime":11504,"closestNoteTime":11520,"hitSuccessfully":true},{"note":46,"velocity":96,"hitTime":11968,"closestNoteTime":12000,"hitSuccessfully":true},{"note":46,"velocity":107,"hitTime":12464,"closestNoteTime":12480,"hitSuccessfully":true},{"note":38,"velocity":91,"hitTime":12480,"closestNoteTime":12480,"hitSuccessfully":true},{"note":46,"velocity":91,"hitTime":12912,"closestNoteTime":12960,"hitSuccessfully":true},{"note":36,"velocity":59,"hitTime":13368,"closestNoteTime":13440,"hitSuccessfully":true},{"note":46,"velocity":110,"hitTime":13408,"closestNoteTime":13440,"hitSuccessfully":true},{"note":46,"velocity":93,"hitTime":13856,"closestNoteTime":13920,"hitSuccessfully":true},{"note":46,"velocity":108,"hitTime":14344,"closestNoteTime":14400,"hitSuccessfully":true},{"note":38,"velocity":93,"hitTime":14368,"closestNoteTime":14400,"hitSuccessfully":true},{"note":46,"velocity":91,"hitTime":14824,"closestNoteTime":14880,"hitSuccessfully":true},{"note":36,"velocity":56,"hitTime":15256,"closestNoteTime":0,"hitSuccessfully":false},{"note":46,"velocity":116,"hitTime":15304,"closestNoteTime":0,"hitSuccessfully":false}]}