{"frames":[{"note":36,"velocity":28,"hitTime":112,"closestNoteTime":0,"hitSuccessfully":true},{"note":46,"velocity":103,"hitTime":160,"closestNoteTime":0,"hitSuccessfully":true},{"note":46,"velocity":60,"hitTime":640,"closestNoteTime":480,"hitSuccessfully":true},{"note":38,"velocity":92,"hitTime":1088,"closestNoteTime":960,"hitSuccessfully":true},{"note":46,"velocity":127,"hitTime":1152,"closestNoteTime":960,"hitSuccessfully":true},{"note":46,"velocity":94,"hitTime":1584,"closestNoteTime":1440,"hitSuccessfully":true},{"note":46,"velocity":127,"hitTime":2080,"closestNoteTime":1920,"hitSuccessfully":true},{"note":36,"velocity":55,"hitTime":2144,"closestNoteTime":1920,"hitSuccessfully":true},{"note":46,"velocity":91,"hitTime":2512,"closestNoteTime":2400,"hitSuccessfully":true},{"note":38,"velocity":83,"hitTime":2992,"closestNoteTime":2880,"hitSuccessfully":true},{"note":46,"velocity":127,"hitTime":2992,"closestNoteTime":2880,"hitSuccessfully":true},{"note":36,"velocity":23,"hitTime":3104,"closestNoteTime":3840,"hitSuccessfully":false},{"note":46,"velocity":86,"hitTime":3504,"closestNoteTime":3360,"hitSuccessfully":true},{"note":46,"velocity":103,"hitTime":3936,"closestNoteTime":3840,"hitSuccessfully":true},{"note":36,"velocity":61,"hitTime":4144,"closestNoteTime":3840,"hitSuccessfully":false},{"note":36,"velocity":42,"hitTime":5008,"closestNoteTime":5760,"hitSuccessfully":false},{"note":46,"velocity":127,"hitTime":5088,"closestNoteTime":4800,"hitSuccessfully":true},{"note":38,"velocity":72,"hitTime":5136,"closestNoteTime":4800,"hitSuccessfully":false},{"note":46,"velocity":76,"hitTime":5600,"closestNoteTime":5760,"hitSuccessfully":true},{"note":46,"velocity":65,"hitTime":6000,"closestNoteTime":6240,"hitSuccessfully":true},{"note":46,"velocity":77,"hitTime":6416,"closestNoteTime":6720,"hitSuccessfully":false},{"note":46,"velocity":98,"hitTime":6960,"closestNoteTime":6720,"hitSuccessfully":true},{"note":38,"velocity":99,"hitTime":6960,"closestNoteTime":6720,"hitSuccessfully":true},{"note":46,"velocity":82,"hitTime":7408,"closestNoteTime":7200,"hitSuccessfully":true},{"note":36,"velocity":65,"hitTime":7840,"closestNoteTime":7680,"hitSuccessfully":true},{"note":46,"velocity":89,"hitTime":7872,"closestNoteTime":7680,"hitSuccessfully":true},{"note":46,"velocity":94,"hitTime":8352,"closestNoteTime":8160,"hitSuccessfully":true},{"note":38,"velocity":90,"hitTime":8800,"closestNoteTime":8640,"hitSuccessfully":true},{"note":46,"velocity":93,"hitTime":8832,"closestNoteTime":8640,"hitSuccessfully":true},{"note":46,"velocity":99,"hitTime":9280,"closestNoteTime":9120,"hitSuccessfully":true},{"note":46,"velocity":88,"hitTime":9744,"closestNoteTime":9600,"hitSuccessfully":true},{"note":36,"velocity":60,"hitTime":9824,"closestNoteTime":9600,"hitSuccessfully":true},{"note":46,"velocity":102,"hitTime":10224,"closestNoteTime":10080,"hitSuccessfully":true},{"note":46,"velocity":99,"hitTime":10672,"closestNoteTime":10560,"hitSuccessfully":true},{"note":38,"velocity":92,"hitTime":10672,"closestNoteTime":10560,"hitSuccessfully":true},{"note":36,"velocity":55,"hitTime":10704,"closestNoteTime":11520,"hitSuccessfully":false},{"note":46,"velocity":99,"hitTime":11168,"closestNoteTime":11040,"hitSuccessfully":true},{"note":46,"velocity":99,"hitTime":11584,"closestNoteTime":11520,"hitSuccessfully":true},{"note":46,"velocity":77,"hitTime":12096,"closestNoteTime":12000,"hitSuccessfully":true},{"note":38,"velocity":96,"hitTime":12560,"closestNoteTime":12480,"hitSuccessfully":true},{"note":46,"velocity":95,"hitTime":12576,"closestNoteTime":12480,"hitSuccessfully":true},{"note":46,"velocity":97,"hitTime":13088,"closestNoteTime":12960,"hitSuccessfully":true},{"note":46,"velocity":94,"hitTime":13520,"closestNoteTime":13440,"hitSuccessfully":true},{"note":36,"velocity":65,"hitTime":13552,"closestNoteTime":13440,"hitSuccessfully":true},{"note":46,"velocity":102,"hitTime":13968,"closestNoteTime":13920,"hitSuccessfully":true},{"note":46,"velocity":93,"hitTime":14448,"closestNoteTime":14400,"hitSuccessfully":true},{"note":38,"velocity":89,"hitTime":14480,"closestNoteTime":14400,"hitSuccessfully":true},{"note":46,"velocity":104,"hitTime":14960,"closestNoteTime":14880,"hitSuccessfully":true},{"note":36,"velocity":62,"hitTime":15360,"closestNoteTime":15360,"hitSuccessfully":true},{"note":46,"velocity":99,"hitTime":15440,"closestNoteTime":15360,"hitSuccessfully":true},{"note":46,"velocity":91,"hitTime":15904,"closestNoteTime":15840,"hitSuccessfully":true},{"note":46,"velocity":91,"hitTime":16416,"closestNoteTime":16320,"hitSuccessfully":true},{"note":38,"velocity":94,"hitTime":16416,"closestNoteTime":16320,"hitSuccessfully":true},{"note":36,"velocity":35,"hitTime":16416,"closestNoteTime":17280,"hitSuccessfully":false},{"note":46,"velocity":82,"hitTime":16896,"closestNoteTime":16800,"hitSuccessfully":true},{"note":36,"velocity":43,"hitTime":17328,"closestNoteTime":17280,"hitSuccessfully":true},{"note":46,"velocity":100,"hitTime":17328,"closestNoteTime":17280,"hitSuccessfully":true},{"note":46,"velocity":88,"hitTime":17856,"closestNoteTime":17760,"hitSuccessfully":true},{"note":46,"velocity":106,"hitTime":18368,"closestNoteTime":18240,"hitSuccessfully":true},{"note":38,"velocity":94,"hitTime":18416,"closestNoteTime":18240,"hitSuccessfully":true},{"note":36,"velocity":51,"hitTime":18416,"closestNoteTime":19200,"hitSuccessfully":false},{"note":46,"velocity":93,"hitTime":18848,"closestNoteTime":18720,"hitSuccessfully":true},{"note":46,"velocity":82,"hitTime":19296,"closestNoteTime":19200,"hitSuccessfully":true},{"note":46,"velocity":101,"hitTime":19760,"closestNoteTime":19680,"hitSuccessfully":true},{"note":46,"velocity":107,"hitTime":20240,"closestNoteTime":20160,"hitSuccessfully":true},{"note":36,"velocity":30,"hitTime":20352,"closestNoteTime":21120,"hitSuccessfully":false},{"note":38,"velocity":101,"hitTime":20432,"closestNoteTime":20160,"hitSuccessfully":true},{"note":46,"velocity":97,"hitTime":20768,"closestNoteTime":20640,"hitSuccessfully":true},{"note":46,"velocity":88,"hitTime":21200,"closestNoteTime":21120,"hitSuccessfully":true},{"note":46,"velocity":82,"hitTime":21712,"closestNoteTime":21600,"hitSuccessfully":true},{"note":46,"velocity":99,"hitTime":22224,"closestNoteTime":22080,"hitSuccessfully":true},{"note":38,"velocity":80,"hitTime":22384,"closestNoteTime":22080,"hitSuccessfully":false},{"note":46,"velocity":90,"hitTime":22720,"closestNoteTime":22560,"hitSuccessfully":true},{"note":46,"velocity":82,"hitTime":23264,"closestNoteTime":23040,"hitSuccessfully":true},{"note":46,"velocity":82,"hitTime":23696,"closestNoteTime":23520,"hitSuccessfully":true},{"note":46,"velocity":93,"hitTime":24176,"closestNoteTime":24000,"hitSuccessfully":true},{"note":38,"velocity":87,"hitTime":24176,"closestNoteTime":24000,"hitSuccessfully":true},{"note":46,"velocity":85,"hitTime":24656,"closestNoteTime":24480,"hitSuccessfully":true},{"note":36,"velocity":59,"hitTime":25088,"closestNoteTime":24960,"hitSuccessfully":true},{"note":46,"velocity":88,"hitTime":25136,"closestNoteTime":24960,"hitSuccessfully":true},{"note":46,"velocity":83,"hitTime":25616,"closestNoteTime":25440,"hitSuccessfully":true},{"note":38,"velocity":91,"hitTime":26080,"closestNoteTime":25920,"hitSuccessfully":true},{"note":46,"velocity":96,"hitTime":26128,"closestNoteTime":25920,"hitSuccessfully":true},{"note":46,"velocity":86,"hitTime":26576,"closestNoteTime":26400,"hitSuccessfully":true},{"note":36,"velocity":58,"hitTime":27040,"closestNoteTime":26880,"hitSuccessfully":true},{"note":46,"velocity":96,"hitTime":27088,"closestNoteTime":26880,"hitSuccessfully":true},{"note":46,"velocity":98,"hitTime":27552,"closestNoteTime":27360,"hitSuccessfully":true},{"note":36,"velocity":48,"hitTime":27872,"closestNoteTime":28800,"hitSuccessfully":false},{"note":46,"velocity":96,"hitTime":27968,"closestNoteTime":27840,"hitSuccessfully":true},{"note":38,"velocity":101,"hitTime":28032,"closestNoteTime":27840,"hitSuccessfully":true},{"note":46,"velocity":88,"hitTime":28480,"closestNoteTime":28320,"hitSuccessfully":true},{"note":46,"velocity":94,"hitTime":28944,"closestNoteTime":28800,"hitSuccessfully":true},{"note":46,"velocity":84,"hitTime":29360,"closestNoteTime":29280,"hitSuccessfully":true}]}