{"frames":[{"note":36,"velocity":71,"hitTime":96,"closestNoteTime":0,"hitSuccessfully":true},{"note":46,"velocity":76,"hitTime":128,"closestNoteTime":0,"hitSuccessfully":true},{"note":46,"velocity":104,"hitTime":608,"closestNoteTime":480,"hitSuccessfully":true},{"note":46,"velocity":105,"hitTime":1056,"closestNoteTime":960,"hitSuccessfully":true},{"note":38,"velocity":100,"hitTime":1120,"closestNoteTime":960,"hitSuccessfully":true},{"note":38,"velocity":68,"hitTime":1232,"closestNoteTime":2880,"hitSuccessfully":false},{"note":46,"velocity":100,"hitTime":1520,"closestNoteTime":1440,"hitSuccessfully":true},{"note":46,"velocity":124,"hitTime":2032,"closestNoteTime":1920,"hitSuccessfully":true},{"note":36,"velocity":61,"hitTime":2128,"closestNoteTime":1920,"hitSuccessfully":true},{"note":46,"velocity":107,"hitTime":2560,"closestNoteTime":2400,"hitSuccessfully":true},{"note":46,"velocity":108,"hitTime":3024,"closestNoteTime":2880,"hitSuccessfully":true},{"note":38,"velocity":98,"hitTime":3040,"closestNoteTime":2880,"hitSuccessfully":true},{"note":38,"velocity":58,"hitTime":3152,"closestNoteTime":4800,"hitSuccessfully":false},{"note":46,"velocity":105,"hitTime":3440,"closestNoteTime":3360,"hitSuccessfully":true},{"note":46,"velocity":124,"hitTime":3904,"closestNoteTime":3840,"hitSuccessfully":true},{"note":36,"velocity":70,"hitTime":3984,"closestNoteTime":3840,"hitSuccessfully":true},{"note":46,"velocity":107,"hitTime":4432,"closestNoteTime":4320,"hitSuccessfully":true},{"note":38,"velocity":98,"hitTime":4896,"closestNoteTime":4800,"hitSuccessfully":true},{"note":46,"velocity":114,"hitTime":4928,"closestNoteTime":4800,"hitSuccessfully":true},{"note":46,"velocity":105,"hitTime":5344,"closestNoteTime":5280,"hitSuccessfully":true},{"note":46,"velocity":122,"hitTime":5824,"closestNoteTime":5760,"hitSuccessfully":true},{"note":36,"velocity":61,"hitTime":5936,"closestNoteTime":5760,"hitSuccessfully":true},{"note":46,"velocity":106,"hitTime":6304,"closestNoteTime":6240,"hitSuccessfully":true},{"note":46,"velocity":108,"hitTime":6768,"closestNoteTime":6720,"hitSuccessfully":true},{"note":38,"velocity":96,"hitTime":6816,"closestNoteTime":6720,"hitSuccessfully":true},{"note":38,"velocity":72,"hitTime":6896,"closestNoteTime":8640,"hitSuccessfully":false},{"note":46,"velocity":105,"hitTime":7216,"closestNoteTime":7200,"hitSuccessfully":true},{"note":46,"velocity":107,"hitTime":7696,"closestNoteTime":7680,"hitSuccessfully":true},{"note":36,"velocity":54,"hitTime":7792,"closestNoteTime":7680,"hitSuccessfully":true},{"note":46,"velocity":106,"hitTime":8192,"closestNoteTime":8160,"hitSuccessfully":true},{"note":38,"velocity":94,"hitTime":8640,"closestNoteTime":8640,"hitSuccessfully":true},{"note":46,"velocity":112,"hitTime":8672,"closestNoteTime":8640,"hitSuccessfully":true},{"note":38,"velocity":64,"hitTime":8752,"closestNoteTime":10560,"hitSuccessfully":false},{"note":46,"velocity":106,"hitTime":9152,"closestNoteTime":9120,"hitSuccessfully":true},{"note":46,"velocity":109,"hitTime":9600,"closestNoteTime":9600,"hitSuccessfully":true},{"note":36,"velocity":46,"hitTime":9712,"closestNoteTime":9600,"hitSuccessfully":true},{"note":46,"velocity":105,"hitTime":10112,"closestNoteTime":10080,"hitSuccessfully":true},{"note":38,"velocity":94,"hitTime":10592,"closestNoteTime":10560,"hitSuccessfully":true},{"note":46,"velocity":108,"hitTime":10624,"closestNoteTime":10560,"hitSuccessfully":true},{"note":46,"velocity":106,"hitTime":10992,"closestNoteTime":11040,"hitSuccessfully":true},{"note":46,"velocity":127,"hitTime":11472,"closestNoteTime":11520,"hitSuccessfully":true},{"note":36,"velocity":58,"hitTime":11584,"closestNoteTime":11520,"hitSuccessfully":true},{"note":46,"velocity":110,"hitTime":12048,"closestNoteTime":12000,"hitSuccessfully":true},{"note":46,"velocity":112,"hitTime":12528,"closestNoteTime":12480,"hitSuccessfully":true},{"note":38,"velocity":101,"hitTime":12576,"closestNoteTime":12480,"hitSuccessfully":true},{"note":46,"velocity":103,"hitTime":12976,"closestNoteTime":12960,"hitSuccessfully":true},{"note":46,"velocity":109,"hitTime":13456,"closestNoteTime":13440,"hitSuccessfully":true},{"note":36,"velocity":48,"hitTime":13568,"closestNoteTime":13440,"hitSuccessfully":true},{"note":46,"velocity":127,"hitTime":13968,"closestNoteTime":13920,"hitSuccessfully":true},{"note":38,"velocity":95,"hitTime":14448,"closestNoteTime":14400,"hitSuccessfully":true},{"note":46,"velocity":101,"hitTime":14448,"closestNoteTime":14400,"hitSuccessfully":true},{"note":46,"velocity":100,"hitTime":14912,"closestNoteTime":14880,"hitSuccessfully":true},{"note":46,"velocity":120,"hitTime":15328,"closestNoteTime":15360,"hitSuccessfully":true},{"note":36,"velocity":70,"hitTime":15360,"closestNoteTime":15360,"hitSuccessfully":true},{"note":46,"velocity":103,"hitTime":15840,"closestNoteTime":15840,"hitSuccessfully":true},{"note":38,"velocity":94,"hitTime":16320,"closestNoteTime":16320,"hitSuccessfully":true},{"note":46,"velocity":106,"hitTime":16352,"closestNoteTime":16320,"hitSuccessfully":true},{"note":46,"velocity":101,"hitTime":16800,"closestNoteTime":16800,"hitSuccessfully":true},{"note":46,"velocity":104,"hitTime":17232,"closestNoteTime":17280,"hitSuccessfully":true},{"note":36,"velocity":34,"hitTime":17376,"closestNoteTime":17280,"hitSuccessfully":true},{"note":46,"velocity":104,"hitTime":17776,"closestNoteTime":17760,"hitSuccessfully":true},{"note":46,"velocity":127,"hitTime":18256,"closestNoteTime":18240,"hitSuccessfully":true},{"note":38,"velocity":98,"hitTime":18256,"closestNoteTime":18240,"hitSuccessfully":true},{"note":46,"velocity":103,"hitTime":18704,"closestNoteTime":18720,"hitSuccessfully":true},{"note":46,"velocity":114,"hitTime":19184,"closestNoteTime":19200,"hitSuccessfully":true},{"note":36,"velocity":46,"hitTime":19264,"closestNoteTime":19200,"hitSuccessfully":true},{"note":46,"velocity":106,"hitTime":19664,"closestNoteTime":19680,"hitSuccessfully":true},{"note":38,"velocity":93,"hitTime":20160,"closestNoteTime":20160,"hitSuccessfully":true},{"note":46,"velocity":109,"hitTime":20176,"closestNoteTime":20160,"hitSuccessfully":true},{"note":46,"velocity":100,"hitTime":20608,"closestNoteTime":20640,"hitSuccessfully":true},{"note":46,"velocity":108,"hitTime":21088,"closestNoteTime":21120,"hitSuccessfully":true},{"note":46,"velocity":105,"hitTime":21552,"closestNoteTime":21600,"hitSuccessfully":true},{"note":38,"velocity":91,"hitTime":22032,"closestNoteTime":22080,"hitSuccessfully":true},{"note":46,"velocity":107,"hitTime":22032,"closestNoteTime":22080,"hitSuccessfully":true},{"note":46,"velocity":103,"hitTime":22512,"closestNoteTime":22560,"hitSuccessfully":true},{"note":46,"velocity":125,"hitTime":23024,"closestNoteTime":23040,"hitSuccessfully":true},{"note":36,"velocity":36,"hitTime":23232,"closestNoteTime":23040,"hitSuccessfully":true},{"note":46,"velocity":105,"hitTime":23584,"closestNoteTime":23520,"hitSuccessfully":true},{"note":38,"velocity":89,"hitTime":24016,"closestNoteTime":24000,"hitSuccessfully":true},{"note":46,"velocity":108,"hitTime":24032,"closestNoteTime":24000,"hitSuccessfully":true},{"note":38,"velocity":68,"hitTime":24096,"closestNoteTime":25920,"hitSuccessfully":false},{"note":46,"velocity":102,"hitTime":24512,"closestNoteTime":24480,"hitSuccessfully":true},{"note":46,"velocity":120,"hitTime":24944,"closestNoteTime":24960,"hitSuccessfully":true},{"note":36,"velocity":65,"hitTime":25024,"closestNoteTime":24960,"hitSuccessfully":true},{"note":46,"velocity":108,"hitTime":25456,"closestNoteTime":25440,"hitSuccessfully":true},{"note":46,"velocity":104,"hitTime":25936,"closestNoteTime":25920,"hitSuccessfully":true},{"note":38,"velocity":87,"hitTime":25936,"closestNoteTime":25920,"hitSuccessfully":true},{"note":46,"velocity":100,"hitTime":26400,"closestNoteTime":26400,"hitSuccessfully":true},{"note":46,"velocity":104,"hitTime":26848,"closestNoteTime":26880,"hitSuccessfully":true},{"note":46,"velocity":106,"hitTime":27360,"closestNoteTime":27360,"hitSuccessfully":true},{"note":38,"velocity":92,"hitTime":27840,"closestNoteTime":27840,"hitSuccessfully":true},{"note":46,"velocity":106,"hitTime":27840,"closestNoteTime":27840,"hitSuccessfully":true},{"note":46,"velocity":101,"hitTime":28320,"closestNoteTime":28320,"hitSuccessfully":true},{"note":46,"velocity":104,"hitTime":28768,"closestNoteTime":28800,"hitSuccessfully":true},{"note":46,"velocity":96,"hitTime":29312,"closestNoteTime":29280,"hitSuccessfully":true},{"note":46,"velocity":112,"hitTime":29744,"closestNoteTime":29760,"hitSuccessfully":true},{"note":38,"velocity":94,"hitTime":29744,"closestNoteTime":29760,"hitSuccessfully":true},{"note":38,"velocity":70,"hitTime":29840,"closestNoteTime":0,"hitSuccessfully":false},{"note":46,"velocity":105,"hitTime":30240,"closestNoteTime":30240,"hitSuccessfully":true},{"note":46,"velocity":116,"hitTime":30704,"closestNoteTime":0,"hitSuccessfully":false}]}