{"frames":[{"note":36,"velocity":59,"hitTime":32,"closestNoteTime":0,"hitSuccessfully":true},{"note":46,"velocity":95,"hitTime":48,"closestNoteTime":0,"hitSuccessfully":true},{"note":46,"velocity":52,"hitTime":888,"closestNoteTime":960,"hitSuccessfully":true},{"note":46,"velocity":62,"hitTime":1464,"closestNoteTime":1440,"hitSuccessfully":true},{"note":46,"velocity":79,"hitTime":1920,"closestNoteTime":1920,"hitSuccessfully":true},{"note":36,"velocity":46,"hitTime":1920,"closestNoteTime":1920,"hitSuccessfully":true},{"note":46,"velocity":74,"hitTime":2392,"closestNoteTime":2400,"hitSuccessfully":true},{"note":46,"velocity":70,"hitTime":2840,"closestNoteTime":2880,"hitSuccessfully":true},{"note":46,"velocity":77,"hitTime":3328,"closestNoteTime":3360,"hitSuccessfully":true},{"note":46,"velocity":79,"hitTime":3808,"closestNoteTime":3840,"hitSuccessfully":true},{"note":36,"velocity":47,"hitTime":3808,"closestNoteTime":3840,"hitSuccessfully":true},{"note":46,"velocity":74,"hitTime":4264,"closestNoteTime":4320,"hitSuccessfully":true},{"note":46,"velocity":67,"hitTime":4720,"closestNoteTime":4800,"hitSuccessfully":true},{"note":46,"velocity":67,"hitTime":5256,"closestNoteTime":5280,"hitSuccessfully":true},{"note":36,"velocity":48,"hitTime":5752,"closestNoteTime":5760,"hitSuccessfully":true},{"note":46,"velocity":80,"hitTime":5752,"closestNoteTime":5760,"hitSuccessfully":true},{"note":46,"velocity":74,"hitTime":6232,"closestNoteTime":6240,"hitSuccessfully":true},{"note":46,"velocity":66,"hitTime":6672,"closestNoteTime":6720,"hitSuccessfully":true},{"note":46,"velocity":70,"hitTime":7192,"closestNoteTime":7200,"hitSuccessfully":true},{"note":36,"velocity":44,"hitTime":7592,"closestNoteTime":7680,"hitSuccessfully":true},{"note":46,"velocity":73,"hitTime":7728,"closestNoteTime":7680,"hitSuccessfully":true},{"note":46,"velocity":36,"hitTime":7840,"closestNoteTime":8160,"hitSuccessfully":false},{"note":46,"velocity":70,"hitTime":8200,"closestNoteTime":8160,"hitSuccessfully":true},{"note":46,"velocity":65,"hitTime":8656,"closestNoteTime":8640,"hitSuccessfully":true},{"note":46,"velocity":73,"hitTime":9136,"closestNoteTime":9120,"hitSuccessfully":true},{"note":36,"velocity":46,"hitTime":9576,"closestNoteTime":9600,"hitSuccessfully":true},{"note":46,"velocity":80,"hitTime":9632,"closestNoteTime":9600,"hitSuccessfully":true},{"note":46,"velocity":77,"hitTime":10096,"closestNoteTime":10080,"hitSuccessfully":true},{"note":46,"velocity":70,"hitTime":10544,"closestNoteTime":10560,"hitSuccessfully":true},{"note":46,"velocity":75,"hitTime":11024,"closestNoteTime":11040,"hitSuccessfully":true},{"note":36,"velocity":51,"hitTime":11504,"closestNoteTime":11520,"hitSuccessfully":true},{"note":46,"velocity":83,"hitTime":11528,"closestNoteTime":11520,"hitSuccessfully":true},{"note":46,"velocity":77,"hitTime":11984,"closestNoteTime":12000,"hitSuccessfully":true},{"note":46,"velocity":77,"hitTime":12472,"closestNoteTime":12480,"hitSuccessfully":true},{"note":46,"velocity":74,"hitTime":12960,"closestNoteTime":12960,"hitSuccessfully":true},{"note":36,"velocity":52,"hitTime":13448,"closestNoteTime":13440,"hitSuccessfully":true},{"note":46,"velocity":82,"hitTime":13456,"closestNoteTime":13440,"hitSuccessfully":true},{"note":46,"velocity":77,"hitTime":13952,"closestNoteTime":13920,"hitSuccessfully":true},{"note":46,"velocity":72,"hitTime":14440,"closestNoteTime":14400,"hitSuccessfully":true},{"note":46,"velocity":76,"hitTime":14904,"closestNoteTime":14880,"hitSuccessfully":true}]}