{"frames":[{"note":36,"velocity":47,"hitTime":0,"closestNoteTime":0,"hitSuccessfully":true},{"note":46,"velocity":94,"hitTime":64,"closestNoteTime":0,"hitSuccessfully":true},{"note":46,"velocity":83,"hitTime":520,"closestNoteTime":480,"hitSuccessfully":true},{"note":46,"velocity":87,"hitTime":984,"closestNoteTime":960,"hitSuccessfully":true},{"note":46,"velocity":88,"hitTime":1472,"closestNoteTime":1440,"hitSuccessfully":true},{"note":36,"velocity":58,"hitTime":1888,"closestNoteTime":1920,"hitSuccessfully":true},{"note":46,"velocity":91,"hitTime":1936,"closestNoteTime":1920,"hitSuccessfully":true},{"note":46,"velocity":83,"hitTime":2432,"closestNoteTime":2400,"hitSuccessfully":true},{"note":46,"velocity":84,"hitTime":2912,"closestNoteTime":2880,"hitSuccessfully":true},{"note":46,"velocity":85,"hitTime":3400,"closestNoteTime":3360,"hitSuccessfully":true},{"note":36,"velocity":43,"hitTime":3824,"closestNoteTime":3840,"hitSuccessfully":true},{"note":46,"velocity":94,"hitTime":3848,"closestNoteTime":3840,"hitSuccessfully":true},{"note":46,"velocity":85,"hitTime":4360,"closestNoteTime":4320,"hitSuccessfully":true},{"note":46,"velocity":84,"hitTime":4840,"closestNoteTime":4800,"hitSuccessfully":true},{"note":46,"velocity":88,"hitTime":5336,"closestNoteTime":5280,"hitSuccessfully":true},{"note":36,"velocity":44,"hitTime":5736,"closestNoteTime":5760,"hitSuccessfully":true},{"note":46,"velocity":91,"hitTime":5792,"closestNoteTime":5760,"hitSuccessfully":true},{"note":46,"velocity":86,"hitTime":6272,"closestNoteTime":6240,"hitSuccessfully":true},{"note":46,"velocity":86,"hitTime":6768,"closestNoteTime":6720,"hitSuccessfully":true},{"note":46,"velocity":88,"hitTime":7248,"closestNoteTime":7200,"hitSuccessfully":true},{"note":36,"velocity":44,"hitTime":7624,"closestNoteTime":7680,"hitSuccessfully":true},{"note":46,"velocity":93,"hitTime":7696,"closestNoteTime":7680,"hitSuccessfully":true},{"note":46,"velocity":86,"hitTime":8216,"closestNoteTime":8160,"hitSuccessfully":true},{"note":46,"velocity":82,"hitTime":8672,"closestNoteTime":8640,"hitSuccessfully":true},{"note":46,"velocity":85,"hitTime":9168,"closestNoteTime":9120,"hitSuccessfully":true},{"note":36,"velocity":36,"hitTime":9608,"closestNoteTime":9600,"hitSuccessfully":true},{"note":46,"velocity":93,"hitTime":9632,"closestNoteTime":9600,"hitSuccessfully":true},{"note":46,"velocity":85,"hitTime":10128,"closestNoteTime":10080,"hitSuccessfully":true},{"note":46,"velocity":86,"hitTime":10600,"closestNoteTime":10560,"hitSuccessfully":true},{"note":46,"velocity":86,"hitTime":11080,"closestNoteTime":11040,"hitSuccessfully":true},{"note":36,"velocity":39,"hitTime":11496,"closestNoteTime":11520,"hitSuccessfully":true},{"note":46,"velocity":94,"hitTime":11552,"closestNoteTime":11520,"hitSuccessfully":true},{"note":46,"velocity":84,"hitTime":12016,"closestNoteTime":12000,"hitSuccessfully":true},{"note":46,"velocity":85,"hitTime":12488,"closestNoteTime":12480,"hitSuccessfully":true},{"note":46,"velocity":88,"hitTime":12992,"closestNoteTime":12960,"hitSuccessfully":true},{"note":36,"velocity":36,"hitTime":13448,"closestNoteTime":13440,"hitSuccessfully":true},{"note":46,"velocity":95,"hitTime":13488,"closestNoteTime":13440,"hitSuccessfully":true},{"note":46,"velocity":86,"hitTime":13944,"closestNoteTime":13920,"hitSuccessfully":true},{"note":46,"velocity":83,"hitTime":14416,"closestNoteTime":14400,"hitSuccessfully":true},{"note":46,"velocity":87,"hitTime":14896,"closestNoteTime":14880,"hitSuccessfully":true}]}