{"frames":[{"note":46,"velocity":31,"hitTime":504,"closestNoteTime":480,"hitSuccessfully":true},{"note":46,"velocity":23,"hitTime":1056,"closestNoteTime":960,"hitSuccessfully":true},{"note":46,"velocity":48,"hitTime":1560,"closestNoteTime":1440,"hitSuccessfully":true},{"note":46,"velocity":34,"hitTime":2056,"closestNoteTime":1920,"hitSuccessfully":true},{"note":46,"velocity":50,"hitTime":2584,"closestNoteTime":2400,"hitSuccessfully":false},{"note":46,"velocity":44,"hitTime":3088,"closestNoteTime":2880,"hitSuccessfully":false},{"note":46,"velocity":55,"hitTime":4456,"closestNoteTime":4320,"hitSuccessfully":true},{"note":46,"velocity":46,"hitTime":4936,"closestNoteTime":4800,"hitSuccessfully":true},{"note":46,"velocity":50,"hitTime":5448,"closestNoteTime":5280,"hitSuccessfully":false},{"note":46,"velocity":44,"hitTime":5912,"closestNoteTime":5760,"hitSuccessfully":false},{"note":46,"velocity":44,"hitTime":6432,"closestNoteTime":6240,"hitSuccessfully":false},{"note":46,"velocity":40,"hitTime":6904,"closestNoteTime":6720,"hitSuccessfully":false},{"note":46,"velocity":42,"hitTime":7440,"closestNoteTime":7200,"hitSuccessfully":false},{"note":46,"velocity":44,"hitTime":7920,"closestNoteTime":7680,"hitSuccessfully":false},{"note":46,"velocity":52,"hitTime":8496,"closestNoteTime":8640,"hitSuccessfully":true},{"note":46,"velocity":40,"hitTime":9128,"closestNoteTime":9120,"hitSuccessfully":true},{"note":46,"velocity":36,"hitTime":9704,"closestNoteTime":9600,"hitSuccessfully":true},{"note":46,"velocity":50,"hitTime":10264,"closestNoteTime":10080,"hitSuccessfully":false},{"note":46,"velocity":39,"hitTime":10816,"closestNoteTime":11040,"hitSuccessfully":false},{"note":46,"velocity":48,"hitTime":11320,"closestNoteTime":11520,"hitSuccessfully":false},{"note":46,"velocity":36,"hitTime":11872,"closestNoteTime":12000,"hitSuccessfully":true},{"note":46,"velocity":46,"hitTime":12512,"closestNoteTime":12480,"hitSuccessfully":true},{"note":46,"velocity":47,"hitTime":13064,"closestNoteTime":12960,"hitSuccessfully":true},{"note":46,"velocity":40,"hitTime":13528,"closestNoteTime":13440,"hitSuccessfully":true},{"note":46,"velocity":44,"hitTime":14040,"closestNoteTime":13920,"hitSuccessfully":true},{"note":46,"velocity":46,"hitTime":14520,"closestNoteTime":14400,"hitSuccessfully":true},{"note":46,"velocity":48,"hitTime":15016,"closestNoteTime":14880,"hitSuccessfully":true}]}