{"frames":[{"note":46,"velocity":79,"hitTime":48,"closestNoteTime":0,"hitSuccessfully":true},{"note":46,"velocity":79,"hitTime":504,"closestNoteTime":480,"hitSuccessfully":true},{"note":46,"velocity":82,"hitTime":1000,"closestNoteTime":960,"hitSuccessfully":true},{"note":46,"velocity":79,"hitTime":1512,"closestNoteTime":1440,"hitSuccessfully":true},{"note":46,"velocity":80,"hitTime":2056,"closestNoteTime":1920,"hitSuccessfully":true},{"note":46,"velocity":80,"hitTime":3024,"closestNoteTime":2880,"hitSuccessfully":true},{"note":46,"velocity":84,"hitTime":3488,"closestNoteTime":3360,"hitSuccessfully":true},{"note":46,"velocity":83,"hitTime":3960,"closestNoteTime":3840,"hitSuccessfully":true},{"note":46,"velocity":82,"hitTime":4416,"closestNoteTime":4320,"hitSuccessfully":true},{"note":46,"velocity":84,"hitTime":4856,"closestNoteTime":4800,"hitSuccessfully":true},{"note":46,"velocity":82,"hitTime":5336,"closestNoteTime":5280,"hitSuccessfully":true},{"note":46,"velocity":82,"hitTime":5832,"closestNoteTime":5760,"hitSuccessfully":true},{"note":46,"velocity":82,"hitTime":6304,"closestNoteTime":6240,"hitSuccessfully":true},{"note":46,"velocity":84,"hitTime":6760,"closestNoteTime":6720,"hitSuccessfully":true},{"note":46,"velocity":85,"hitTime":7240,"closestNoteTime":7200,"hitSuccessfully":true},{"note":46,"velocity":85,"hitTime":7720,"closestNoteTime":7680,"hitSuccessfully":true},{"note":46,"velocity":80,"hitTime":8208,"closestNoteTime":8160,"hitSuccessfully":true},{"note":46,"velocity":85,"hitTime":8736,"closestNoteTime":8640,"hitSuccessfully":true},{"note":46,"velocity":85,"hitTime":9176,"closestNoteTime":9120,"hitSuccessfully":true},{"note":46,"velocity":82,"hitTime":9672,"closestNoteTime":9600,"hitSuccessfully":true},{"note":46,"velocity":85,"hitTime":10184,"closestNoteTime":10080,"hitSuccessfully":true},{"note":46,"velocity":85,"hitTime":10680,"closestNoteTime":10560,"hitSuccessfully":true},{"note":46,"velocity":87,"hitTime":11120,"closestNoteTime":11040,"hitSuccessfully":true},{"note":46,"velocity":88,"hitTime":11632,"closestNoteTime":11520,"hitSuccessfully":true},{"note":46,"velocity":89,"hitTime":12088,"closestNoteTime":12000,"hitSuccessfully":true},{"note":46,"velocity":88,"hitTime":12568,"closestNoteTime":12480,"hitSuccessfully":true},{"note":46,"velocity":90,"hitTime":13024,"closestNoteTime":12960,"hitSuccessfully":true},{"note":46,"velocity":88,"hitTime":13488,"closestNoteTime":13440,"hitSuccessfully":true},{"note":46,"velocity":90,"hitTime":13984,"closestNoteTime":13920,"hitSuccessfully":true},{"note":46,"velocity":91,"hitTime":14480,"closestNoteTime":14400,"hitSuccessfully":true},{"note":46,"velocity":93,"hitTime":14968,"closestNoteTime":14880,"hitSuccessfully":true}]}