{"frames":[{"note":46,"velocity":52,"hitTime":120,"closestNoteTime":0,"hitSuccessfully":true},{"note":46,"velocity":58,"hitTime":560,"closestNoteTime":480,"hitSuccessfully":true},{"note":46,"velocity":60,"hitTime":1016,"closestNoteTime":960,"hitSuccessfully":true},{"note":46,"velocity":67,"hitTime":1496,"closestNoteTime":1440,"hitSuccessfully":true},{"note":46,"velocity":70,"hitTime":1976,"closestNoteTime":1920,"hitSuccessfully":true},{"note":46,"velocity":67,"hitTime":2456,"closestNoteTime":2400,"hitSuccessfully":true},{"note":46,"velocity":66,"hitTime":2944,"closestNoteTime":2880,"hitSuccessfully":true},{"note":46,"velocity":64,"hitTime":3440,"closestNoteTime":3360,"hitSuccessfully":true},{"note":46,"velocity":67,"hitTime":3928,"closestNoteTime":3840,"hitSuccessfully":true},{"note":46,"velocity":67,"hitTime":4400,"closestNoteTime":4320,"hitSuccessfully":true},{"note":46,"velocity":65,"hitTime":4872,"closestNoteTime":4800,"hitSuccessfully":true},{"note":46,"velocity":66,"hitTime":5368,"closestNoteTime":5280,"hitSuccessfully":true},{"note":46,"velocity":66,"hitTime":5848,"closestNoteTime":5760,"hitSuccessfully":true},{"note":46,"velocity":66,"hitTime":6312,"closestNoteTime":6240,"hitSuccessfully":true},{"note":46,"velocity":70,"hitTime":6800,"closestNoteTime":6720,"hitSuccessfully":true},{"note":46,"velocity":67,"hitTime":7280,"closestNoteTime":7200,"hitSuccessfully":true},{"note":46,"velocity":70,"hitTime":7760,"closestNoteTime":7680,"hitSuccessfully":true},{"note":46,"velocity":70,"hitTime":8216,"closestNoteTime":8160,"hitSuccessfully":true},{"note":46,"velocity":67,"hitTime":8728,"closestNoteTime":8640,"hitSuccessfully":true},{"note":46,"velocity":67,"hitTime":9192,"closestNoteTime":9120,"hitSuccessfully":true},{"note":46,"velocity":70,"hitTime":9672,"closestNoteTime":9600,"hitSuccessfully":true},{"note":46,"velocity":67,"hitTime":10160,"closestNoteTime":10080,"hitSuccessfully":true},{"note":46,"velocity":67,"hitTime":10648,"closestNoteTime":10560,"hitSuccessfully":true},{"note":46,"velocity":73,"hitTime":11120,"closestNoteTime":11040,"hitSuccessfully":true},{"note":46,"velocity":76,"hitTime":11592,"closestNoteTime":11520,"hitSuccessfully":true},{"note":46,"velocity":72,"hitTime":12056,"closestNoteTime":12000,"hitSuccessfully":true},{"note":46,"velocity":79,"hitTime":12528,"closestNoteTime":12480,"hitSuccessfully":true},{"note":46,"velocity":66,"hitTime":13008,"closestNoteTime":12960,"hitSuccessfully":true},{"note":46,"velocity":73,"hitTime":13504,"closestNoteTime":13440,"hitSuccessfully":true},{"note":46,"velocity":67,"hitTime":13984,"closestNoteTime":13920,"hitSuccessfully":true},{"note":46,"velocity":74,"hitTime":14456,"closestNoteTime":14400,"hitSuccessfully":true},{"note":46,"velocity":73,"hitTime":14936,"closestNoteTime":14880,"hitSuccessfully":true}]}