{"frames":[{"note":36,"velocity":46,"hitTime":16,"closestNoteTime":0,"hitSuccessfully":true},{"note":46,"velocity":62,"hitTime":608,"closestNoteTime":480,"hitSuccessfully":true},{"note":46,"velocity":54,"hitTime":1040,"closestNoteTime":960,"hitSuccessfully":true},{"note":46,"velocity":76,"hitTime":1520,"closestNoteTime":1440,"hitSuccessfully":true},{"note":36,"velocity":52,"hitTime":1840,"closestNoteTime":1920,"hitSuccessfully":true},{"note":46,"velocity":76,"hitTime":1952,"closestNoteTime":1920,"hitSuccessfully":true},{"note":46,"velocity":77,"hitTime":2400,"closestNoteTime":2400,"hitSuccessfully":true},{"note":46,"velocity":72,"hitTime":2832,"closestNoteTime":2880,"hitSuccessfully":true},{"note":46,"velocity":74,"hitTime":3344,"closestNoteTime":3360,"hitSuccessfully":true},{"note":36,"velocity":46,"hitTime":3824,"closestNoteTime":3840,"hitSuccessfully":true},{"note":46,"velocity":79,"hitTime":3840,"closestNoteTime":3840,"hitSuccessfully":true},{"note":46,"velocity":70,"hitTime":4320,"closestNoteTime":4320,"hitSuccessfully":true},{"note":46,"velocity":64,"hitTime":4752,"closestNoteTime":4800,"hitSuccessfully":true},{"note":46,"velocity":72,"hitTime":5232,"closestNoteTime":5280,"hitSuccessfully":true},{"note":46,"velocity":64,"hitTime":5664,"closestNoteTime":5760,"hitSuccessfully":true},{"note":36,"velocity":58,"hitTime":6128,"closestNoteTime":5760,"hitSuccessfully":false},{"note":46,"velocity":65,"hitTime":6144,"closestNoteTime":6240,"hitSuccessfully":true},{"note":46,"velocity":28,"hitTime":6784,"closestNoteTime":6720,"hitSuccessfully":true},{"note":46,"velocity":70,"hitTime":7200,"closestNoteTime":7200,"hitSuccessfully":true},{"note":36,"velocity":46,"hitTime":7408,"closestNoteTime":7680,"hitSuccessfully":true},{"note":36,"velocity":21,"hitTime":7536,"closestNoteTime":5760,"hitSuccessfully":false},{"note":46,"velocity":70,"hitTime":7616,"closestNoteTime":7680,"hitSuccessfully":true},{"note":46,"velocity":64,"hitTime":8048,"closestNoteTime":8160,"hitSuccessfully":true},{"note":46,"velocity":65,"hitTime":8528,"closestNoteTime":8640,"hitSuccessfully":true},{"note":38,"velocity":71,"hitTime":8928,"closestNoteTime":8640,"hitSuccessfully":true},{"note":46,"velocity":65,"hitTime":9408,"closestNoteTime":9120,"hitSuccessfully":true},{"note":46,"velocity":67,"hitTime":9840,"closestNoteTime":9600,"hitSuccessfully":true},{"note":46,"velocity":66,"hitTime":10272,"closestNoteTime":10080,"hitSuccessfully":true},{"note":46,"velocity":70,"hitTime":10720,"closestNoteTime":10560,"hitSuccessfully":true},{"note":38,"velocity":75,"hitTime":10832,"closestNoteTime":10560,"hitSuccessfully":true},{"note":46,"velocity":70,"hitTime":11200,"closestNoteTime":11040,"hitSuccessfully":true},{"note":46,"velocity":72,"hitTime":11632,"closestNoteTime":11520,"hitSuccessfully":true},{"note":36,"velocity":39,"hitTime":11952,"closestNoteTime":11520,"hitSuccessfully":false},{"note":46,"velocity":70,"hitTime":12064,"closestNoteTime":12000,"hitSuccessfully":true},{"note":38,"velocity":72,"hitTime":12416,"closestNoteTime":12480,"hitSuccessfully":true},{"note":46,"velocity":67,"hitTime":12512,"closestNoteTime":12480,"hitSuccessfully":true},{"note":46,"velocity":64,"hitTime":12944,"closestNoteTime":12960,"hitSuccessfully":true},{"note":46,"velocity":70,"hitTime":13456,"closestNoteTime":13440,"hitSuccessfully":true},{"note":46,"velocity":66,"hitTime":13888,"closestNoteTime":13920,"hitSuccessfully":true},{"note":36,"velocity":52,"hitTime":14048,"closestNoteTime":13440,"hitSuccessfully":false},{"note":38,"velocity":72,"hitTime":14080,"closestNoteTime":14400,"hitSuccessfully":false},{"note":46,"velocity":70,"hitTime":14368,"closestNoteTime":14400,"hitSuccessfully":true},{"note":46,"velocity":65,"hitTime":14848,"closestNoteTime":14880,"hitSuccessfully":true},{"note":46,"velocity":64,"hitTime":15328,"closestNoteTime":15360,"hitSuccessfully":true},{"note":46,"velocity":67,"hitTime":15888,"closestNoteTime":15840,"hitSuccessfully":true},{"note":38,"velocity":71,"hitTime":16240,"closestNoteTime":16320,"hitSuccessfully":true},{"note":46,"velocity":73,"hitTime":16464,"closestNoteTime":16320,"hitSuccessfully":true},{"note":36,"velocity":58,"hitTime":16576,"closestNoteTime":17280,"hitSuccessfully":false},{"note":46,"velocity":70,"hitTime":16912,"closestNoteTime":16800,"hitSuccessfully":true},{"note":46,"velocity":70,"hitTime":17360,"closestNoteTime":17280,"hitSuccessfully":true},{"note":46,"velocity":65,"hitTime":17824,"closestNoteTime":17760,"hitSuccessfully":true},{"note":46,"velocity":65,"hitTime":18272,"closestNoteTime":18240,"hitSuccessfully":true},{"note":38,"velocity":66,"hitTime":18704,"closestNoteTime":18240,"hitSuccessfully":false},{"note":36,"velocity":60,"hitTime":18864,"closestNoteTime":19200,"hitSuccessfully":false},{"note":46,"velocity":55,"hitTime":19232,"closestNoteTime":19200,"hitSuccessfully":true},{"note":46,"velocity":66,"hitTime":19728,"closestNoteTime":19680,"hitSuccessfully":true},{"note":46,"velocity":66,"hitTime":20144,"closestNoteTime":20160,"hitSuccessfully":true},{"note":46,"velocity":70,"hitTime":21088,"closestNoteTime":21120,"hitSuccessfully":true},{"note":38,"velocity":72,"hitTime":21440,"closestNoteTime":22080,"hitSuccessfully":false},{"note":38,"velocity":39,"hitTime":21536,"closestNoteTime":22080,"hitSuccessfully":false},{"note":46,"velocity":62,"hitTime":21536,"closestNoteTime":21600,"hitSuccessfully":true},{"note":36,"velocity":50,"hitTime":21568,"closestNoteTime":21120,"hitSuccessfully":false},{"note":46,"velocity":66,"hitTime":22128,"closestNoteTime":22080,"hitSuccessfully":true},{"note":38,"velocity":68,"hitTime":22320,"closestNoteTime":22080,"hitSuccessfully":true},{"note":36,"velocity":38,"hitTime":22592,"closestNoteTime":23040,"hitSuccessfully":false},{"note":46,"velocity":67,"hitTime":22672,"closestNoteTime":22560,"hitSuccessfully":true},{"note":46,"velocity":70,"hitTime":23200,"closestNoteTime":23040,"hitSuccessfully":true},{"note":38,"velocity":69,"hitTime":23632,"closestNoteTime":24000,"hitSuccessfully":false},{"note":46,"velocity":66,"hitTime":23760,"closestNoteTime":23520,"hitSuccessfully":true},{"note":36,"velocity":30,"hitTime":23840,"closestNoteTime":23040,"hitSuccessfully":false},{"note":46,"velocity":67,"hitTime":24240,"closestNoteTime":24000,"hitSuccessfully":true},{"note":38,"velocity":67,"hitTime":24400,"closestNoteTime":24000,"hitSuccessfully":false},{"note":46,"velocity":65,"hitTime":24816,"closestNoteTime":24960,"hitSuccessfully":true},{"note":46,"velocity":65,"hitTime":25376,"closestNoteTime":25440,"hitSuccessfully":true},{"note":46,"velocity":46,"hitTime":25744,"closestNoteTime":25920,"hitSuccessfully":true},{"note":36,"velocity":36,"hitTime":25936,"closestNoteTime":26880,"hitSuccessfully":false},{"note":38,"velocity":66,"hitTime":26064,"closestNoteTime":25920,"hitSuccessfully":true},{"note":36,"velocity":25,"hitTime":26096,"closestNoteTime":26880,"hitSuccessfully":false},{"note":38,"velocity":49,"hitTime":26144,"closestNoteTime":27840,"hitSuccessfully":false},{"note":46,"velocity":65,"hitTime":26288,"closestNoteTime":26400,"hitSuccessfully":true},{"note":46,"velocity":70,"hitTime":26704,"closestNoteTime":26880,"hitSuccessfully":true},{"note":46,"velocity":65,"hitTime":27200,"closestNoteTime":27360,"hitSuccessfully":true},{"note":38,"velocity":70,"hitTime":27968,"closestNoteTime":27840,"hitSuccessfully":true},{"note":46,"velocity":60,"hitTime":28080,"closestNoteTime":27840,"hitSuccessfully":true},{"note":36,"velocity":58,"hitTime":28096,"closestNoteTime":28800,"hitSuccessfully":false},{"note":46,"velocity":70,"hitTime":28560,"closestNoteTime":28320,"hitSuccessfully":true},{"note":46,"velocity":67,"hitTime":29008,"closestNoteTime":28800,"hitSuccessfully":true},{"note":46,"velocity":60,"hitTime":29408,"closestNoteTime":29280,"hitSuccessfully":true},{"note":38,"velocity":66,"hitTime":29840,"closestNoteTime":29760,"hitSuccessfully":true},{"note":38,"velocity":34,"hitTime":29952,"closestNoteTime":24000,"hitSuccessfully":false},{"note":46,"velocity":46,"hitTime":30000,"closestNoteTime":29760,"hitSuccessfully":true},{"note":36,"velocity":43,"hitTime":30144,"closestNoteTime":28800,"hitSuccessfully":false},{"note":46,"velocity":60,"hitTime":30480,"closestNoteTime":30240,"hitSuccessfully":true}]}