{"frames":[{"note":36,"velocity":71,"hitTime":64,"closestNoteTime":0,"hitSuccessfully":true},{"note":46,"velocity":106,"hitTime":96,"closestNoteTime":0,"hitSuccessfully":true},{"note":46,"velocity":90,"hitTime":576,"closestNoteTime":480,"hitSuccessfully":true},{"note":46,"velocity":74,"hitTime":624,"closestNoteTime":960,"hitSuccessfully":false},{"note":36,"velocity":27,"hitTime":768,"closestNoteTime":1920,"hitSuccessfully":false},{"note":38,"velocity":100,"hitTime":1056,"closestNoteTime":960,"hitSuccessfully":true},{"note":46,"velocity":103,"hitTime":1088,"closestNoteTime":960,"hitSuccessfully":true},{"note":46,"velocity":98,"hitTime":1520,"closestNoteTime":1440,"hitSuccessfully":true},{"note":46,"velocity":112,"hitTime":2000,"closestNoteTime":1920,"hitSuccessfully":true},{"note":36,"velocity":46,"hitTime":2096,"closestNoteTime":1920,"hitSuccessfully":true},{"note":46,"velocity":98,"hitTime":2448,"closestNoteTime":2400,"hitSuccessfully":true},{"note":46,"velocity":80,"hitTime":2528,"closestNoteTime":2880,"hitSuccessfully":false},{"note":38,"velocity":83,"hitTime":2912,"closestNoteTime":2880,"hitSuccessfully":true},{"note":36,"velocity":35,"hitTime":2960,"closestNoteTime":3840,"hitSuccessfully":false},{"note":46,"velocity":103,"hitTime":2960,"closestNoteTime":2880,"hitSuccessfully":true},{"note":46,"velocity":93,"hitTime":3408,"closestNoteTime":3360,"hitSuccessfully":true},{"note":46,"velocity":116,"hitTime":3872,"closestNoteTime":3840,"hitSuccessfully":true},{"note":36,"velocity":44,"hitTime":3984,"closestNoteTime":3840,"hitSuccessfully":true},{"note":46,"velocity":98,"hitTime":4384,"closestNoteTime":4320,"hitSuccessfully":true},{"note":38,"velocity":95,"hitTime":4864,"closestNoteTime":4800,"hitSuccessfully":true},{"note":46,"velocity":106,"hitTime":4880,"closestNoteTime":4800,"hitSuccessfully":true},{"note":46,"velocity":95,"hitTime":5344,"closestNoteTime":5280,"hitSuccessfully":true},{"note":46,"velocity":101,"hitTime":5824,"closestNoteTime":5760,"hitSuccessfully":true},{"note":46,"velocity":99,"hitTime":6304,"closestNoteTime":6240,"hitSuccessfully":true},{"note":46,"velocity":103,"hitTime":6768,"closestNoteTime":6720,"hitSuccessfully":true},{"note":38,"velocity":101,"hitTime":6784,"closestNoteTime":6720,"hitSuccessfully":true},{"note":46,"velocity":100,"hitTime":7248,"closestNoteTime":7200,"hitSuccessfully":true},{"note":36,"velocity":61,"hitTime":7728,"closestNoteTime":7680,"hitSuccessfully":true},{"note":46,"velocity":103,"hitTime":7728,"closestNoteTime":7680,"hitSuccessfully":true},{"note":46,"velocity":84,"hitTime":7808,"closestNoteTime":8160,"hitSuccessfully":false},{"note":46,"velocity":105,"hitTime":8240,"closestNoteTime":8160,"hitSuccessfully":true},{"note":38,"velocity":85,"hitTime":8720,"closestNoteTime":8640,"hitSuccessfully":true},{"note":46,"velocity":108,"hitTime":8736,"closestNoteTime":8640,"hitSuccessfully":true},{"note":46,"velocity":94,"hitTime":9168,"closestNoteTime":9120,"hitSuccessfully":true},{"note":46,"velocity":74,"hitTime":9248,"closestNoteTime":9600,"hitSuccessfully":false},{"note":46,"velocity":102,"hitTime":9648,"closestNoteTime":9600,"hitSuccessfully":true},{"note":36,"velocity":44,"hitTime":9680,"closestNoteTime":9600,"hitSuccessfully":true},{"note":46,"velocity":82,"hitTime":9712,"closestNoteTime":10080,"hitSuccessfully":false},{"note":46,"velocity":103,"hitTime":10128,"closestNoteTime":10080,"hitSuccessfully":true},{"note":46,"velocity":107,"hitTime":10560,"closestNoteTime":10560,"hitSuccessfully":true},{"note":38,"velocity":101,"hitTime":10592,"closestNoteTime":10560,"hitSuccessfully":true},{"note":36,"velocity":40,"hitTime":10672,"closestNoteTime":11520,"hitSuccessfully":false},{"note":46,"velocity":94,"hitTime":11104,"closestNoteTime":11040,"hitSuccessfully":true},{"note":46,"velocity":104,"hitTime":11552,"closestNoteTime":11520,"hitSuccessfully":true},{"note":46,"velocity":90,"hitTime":11600,"closestNoteTime":12000,"hitSuccessfully":false},{"note":36,"velocity":42,"hitTime":11664,"closestNoteTime":11520,"hitSuccessfully":true},{"note":46,"velocity":98,"hitTime":12064,"closestNoteTime":12000,"hitSuccessfully":true},{"note":46,"velocity":101,"hitTime":12512,"closestNoteTime":12480,"hitSuccessfully":true},{"note":38,"velocity":94,"hitTime":12544,"closestNoteTime":12480,"hitSuccessfully":true},{"note":38,"velocity":66,"hitTime":12656,"closestNoteTime":14400,"hitSuccessfully":false},{"note":46,"velocity":97,"hitTime":12992,"closestNoteTime":12960,"hitSuccessfully":true},{"note":46,"velocity":105,"hitTime":13504,"closestNoteTime":13440,"hitSuccessfully":true},{"note":36,"velocity":28,"hitTime":13568,"closestNoteTime":13440,"hitSuccessfully":true},{"note":46,"velocity":97,"hitTime":13936,"closestNoteTime":13920,"hitSuccessfully":true},{"note":46,"velocity":76,"hitTime":14016,"closestNoteTime":14400,"hitSuccessfully":false},{"note":38,"velocity":99,"hitTime":14416,"closestNoteTime":14400,"hitSuccessfully":true},{"note":46,"velocity":107,"hitTime":14448,"closestNoteTime":14400,"hitSuccessfully":true},{"note":36,"velocity":36,"hitTime":14480,"closestNoteTime":15360,"hitSuccessfully":false},{"note":46,"velocity":100,"hitTime":14928,"closestNoteTime":14880,"hitSuccessfully":true},{"note":46,"velocity":94,"hitTime":15376,"closestNoteTime":15360,"hitSuccessfully":true},{"note":46,"velocity":97,"hitTime":15872,"closestNoteTime":15840,"hitSuccessfully":true},{"note":46,"velocity":106,"hitTime":16320,"closestNoteTime":16320,"hitSuccessfully":true},{"note":38,"velocity":89,"hitTime":16352,"closestNoteTime":16320,"hitSuccessfully":true},{"note":36,"velocity":51,"hitTime":16368,"closestNoteTime":17280,"hitSuccessfully":false},{"note":46,"velocity":99,"hitTime":16800,"closestNoteTime":16800,"hitSuccessfully":true},{"note":46,"velocity":105,"hitTime":17312,"closestNoteTime":17280,"hitSuccessfully":true},{"note":36,"velocity":46,"hitTime":17424,"closestNoteTime":17280,"hitSuccessfully":true},{"note":46,"velocity":97,"hitTime":17760,"closestNoteTime":17760,"hitSuccessfully":true},{"note":46,"velocity":109,"hitTime":18272,"closestNoteTime":18240,"hitSuccessfully":true},{"note":38,"velocity":87,"hitTime":18304,"closestNoteTime":18240,"hitSuccessfully":true},{"note":46,"velocity":97,"hitTime":18752,"closestNoteTime":18720,"hitSuccessfully":true},{"note":46,"velocity":97,"hitTime":19264,"closestNoteTime":19200,"hitSuccessfully":true},{"note":46,"velocity":97,"hitTime":19776,"closestNoteTime":19680,"hitSuccessfully":true},{"note":36,"velocity":38,"hitTime":19904,"closestNoteTime":19200,"hitSuccessfully":false},{"note":46,"velocity":103,"hitTime":20224,"closestNoteTime":20160,"hitSuccessfully":true},{"note":38,"velocity":66,"hitTime":20224,"closestNoteTime":20160,"hitSuccessfully":true},{"note":36,"velocity":32,"hitTime":20368,"closestNoteTime":21120,"hitSuccessfully":false},{"note":46,"velocity":96,"hitTime":20736,"closestNoteTime":20640,"hitSuccessfully":true},{"note":46,"velocity":73,"hitTime":20784,"closestNoteTime":21120,"hitSuccessfully":false},{"note":46,"velocity":94,"hitTime":21184,"closestNoteTime":21120,"hitSuccessfully":true},{"note":46,"velocity":102,"hitTime":21680,"closestNoteTime":21600,"hitSuccessfully":true},{"note":46,"velocity":102,"hitTime":22128,"closestNoteTime":22080,"hitSuccessfully":true},{"note":38,"velocity":83,"hitTime":22160,"closestNoteTime":22080,"hitSuccessfully":true},{"note":36,"velocity":34,"hitTime":22240,"closestNoteTime":23040,"hitSuccessfully":false},{"note":46,"velocity":99,"hitTime":22640,"closestNoteTime":22560,"hitSuccessfully":true},{"note":46,"velocity":96,"hitTime":23120,"closestNoteTime":23040,"hitSuccessfully":true},{"note":46,"velocity":105,"hitTime":24032,"closestNoteTime":24000,"hitSuccessfully":true},{"note":38,"velocity":82,"hitTime":24048,"closestNoteTime":24000,"hitSuccessfully":true},{"note":46,"velocity":99,"hitTime":24512,"closestNoteTime":24480,"hitSuccessfully":true},{"note":46,"velocity":77,"hitTime":24592,"closestNoteTime":24960,"hitSuccessfully":false},{"note":46,"velocity":94,"hitTime":25024,"closestNoteTime":24960,"hitSuccessfully":true},{"note":46,"velocity":94,"hitTime":25472,"closestNoteTime":25440,"hitSuccessfully":true},{"note":46,"velocity":107,"hitTime":25952,"closestNoteTime":25920,"hitSuccessfully":true},{"note":38,"velocity":84,"hitTime":25952,"closestNoteTime":25920,"hitSuccessfully":true},{"note":36,"velocity":30,"hitTime":26032,"closestNoteTime":26880,"hitSuccessfully":false},{"note":46,"velocity":98,"hitTime":26464,"closestNoteTime":26400,"hitSuccessfully":true},{"note":46,"velocity":94,"hitTime":26912,"closestNoteTime":26880,"hitSuccessfully":true},{"note":46,"velocity":94,"hitTime":27376,"closestNoteTime":27360,"hitSuccessfully":true},{"note":46,"velocity":103,"hitTime":27856,"closestNoteTime":27840,"hitSuccessfully":true},{"note":38,"velocity":68,"hitTime":27888,"closestNoteTime":27840,"hitSuccessfully":true},{"note":36,"velocity":39,"hitTime":27888,"closestNoteTime":28800,"hitSuccessfully":false},{"note":46,"velocity":96,"hitTime":28336,"closestNoteTime":28320,"hitSuccessfully":true},{"note":46,"velocity":91,"hitTime":28800,"closestNoteTime":28800,"hitSuccessfully":true},{"note":46,"velocity":98,"hitTime":29280,"closestNoteTime":29280,"hitSuccessfully":true},{"note":46,"velocity":102,"hitTime":29728,"closestNoteTime":29760,"hitSuccessfully":true},{"note":38,"velocity":92,"hitTime":29760,"closestNoteTime":29760,"hitSuccessfully":true}]}