{"frames":[{"note":46,"velocity":106,"hitTime":64,"closestNoteTime":0,"hitSuccessfully":true},{"note":36,"velocity":58,"hitTime":64,"closestNoteTime":0,"hitSuccessfully":true},{"note":46,"velocity":101,"hitTime":544,"closestNoteTime":480,"hitSuccessfully":true},{"note":46,"velocity":109,"hitTime":1008,"closestNoteTime":960,"hitSuccessfully":true},{"note":38,"velocity":102,"hitTime":1056,"closestNoteTime":960,"hitSuccessfully":true},{"note":46,"velocity":103,"hitTime":1488,"closestNoteTime":1440,"hitSuccessfully":true},{"note":46,"velocity":127,"hitTime":1936,"closestNoteTime":1920,"hitSuccessfully":true},{"note":36,"velocity":69,"hitTime":2016,"closestNoteTime":1920,"hitSuccessfully":true},{"note":46,"velocity":105,"hitTime":2416,"closestNoteTime":2400,"hitSuccessfully":true},{"note":46,"velocity":110,"hitTime":2880,"closestNoteTime":2880,"hitSuccessfully":true},{"note":38,"velocity":101,"hitTime":2880,"closestNoteTime":2880,"hitSuccessfully":true},{"note":46,"velocity":106,"hitTime":3328,"closestNoteTime":3360,"hitSuccessfully":true},{"note":46,"velocity":120,"hitTime":3824,"closestNoteTime":3840,"hitSuccessfully":true},{"note":36,"velocity":61,"hitTime":3872,"closestNoteTime":3840,"hitSuccessfully":true},{"note":46,"velocity":105,"hitTime":4304,"closestNoteTime":4320,"hitSuccessfully":true},{"note":46,"velocity":108,"hitTime":4784,"closestNoteTime":4800,"hitSuccessfully":true},{"note":38,"velocity":94,"hitTime":4784,"closestNoteTime":4800,"hitSuccessfully":true},{"note":46,"velocity":102,"hitTime":5216,"closestNoteTime":5280,"hitSuccessfully":true},{"note":46,"velocity":112,"hitTime":5664,"closestNoteTime":5760,"hitSuccessfully":true},{"note":36,"velocity":56,"hitTime":5776,"closestNoteTime":5760,"hitSuccessfully":true},{"note":46,"velocity":103,"hitTime":6144,"closestNoteTime":6240,"hitSuccessfully":true},{"note":46,"velocity":106,"hitTime":6624,"closestNoteTime":6720,"hitSuccessfully":true},{"note":38,"velocity":99,"hitTime":6688,"closestNoteTime":6720,"hitSuccessfully":true},{"note":46,"velocity":102,"hitTime":7088,"closestNoteTime":7200,"hitSuccessfully":true},{"note":46,"velocity":112,"hitTime":7568,"closestNoteTime":7680,"hitSuccessfully":true},{"note":36,"velocity":52,"hitTime":7648,"closestNoteTime":7680,"hitSuccessfully":true},{"note":46,"velocity":106,"hitTime":8128,"closestNoteTime":8160,"hitSuccessfully":true},{"note":46,"velocity":120,"hitTime":8640,"closestNoteTime":8640,"hitSuccessfully":true},{"note":38,"velocity":99,"hitTime":8640,"closestNoteTime":8640,"hitSuccessfully":true},{"note":46,"velocity":101,"hitTime":9120,"closestNoteTime":9120,"hitSuccessfully":true},{"note":46,"velocity":104,"hitTime":9600,"closestNoteTime":9600,"hitSuccessfully":true},{"note":36,"velocity":43,"hitTime":9680,"closestNoteTime":9600,"hitSuccessfully":true},{"note":46,"velocity":106,"hitTime":10160,"closestNoteTime":10080,"hitSuccessfully":true},{"note":46,"velocity":116,"hitTime":10624,"closestNoteTime":10560,"hitSuccessfully":true},{"note":38,"velocity":102,"hitTime":10672,"closestNoteTime":10560,"hitSuccessfully":true},{"note":46,"velocity":106,"hitTime":11120,"closestNoteTime":11040,"hitSuccessfully":true},{"note":46,"velocity":109,"hitTime":11584,"closestNoteTime":11520,"hitSuccessfully":true},{"note":36,"velocity":58,"hitTime":11600,"closestNoteTime":11520,"hitSuccessfully":true},{"note":46,"velocity":107,"hitTime":12096,"closestNoteTime":12000,"hitSuccessfully":true},{"note":46,"velocity":108,"hitTime":12544,"closestNoteTime":12480,"hitSuccessfully":true},{"note":38,"velocity":94,"hitTime":12576,"closestNoteTime":12480,"hitSuccessfully":true},{"note":46,"velocity":105,"hitTime":13024,"closestNoteTime":12960,"hitSuccessfully":true},{"note":46,"velocity":104,"hitTime":13488,"closestNoteTime":13440,"hitSuccessfully":true},{"note":36,"velocity":34,"hitTime":13584,"closestNoteTime":13440,"hitSuccessfully":true},{"note":46,"velocity":99,"hitTime":13984,"closestNoteTime":13920,"hitSuccessfully":true},{"note":46,"velocity":124,"hitTime":14448,"closestNoteTime":14400,"hitSuccessfully":true},{"note":38,"velocity":99,"hitTime":14480,"closestNoteTime":14400,"hitSuccessfully":true},{"note":46,"velocity":103,"hitTime":14928,"closestNoteTime":14880,"hitSuccessfully":true},{"note":46,"velocity":108,"hitTime":15376,"closestNoteTime":15360,"hitSuccessfully":true},{"note":36,"velocity":52,"hitTime":15440,"closestNoteTime":15360,"hitSuccessfully":true},{"note":46,"velocity":105,"hitTime":15888,"closestNoteTime":15840,"hitSuccessfully":true},{"note":46,"velocity":108,"hitTime":16352,"closestNoteTime":16320,"hitSuccessfully":true},{"note":38,"velocity":86,"hitTime":16400,"closestNoteTime":16320,"hitSuccessfully":true},{"note":46,"velocity":102,"hitTime":16848,"closestNoteTime":16800,"hitSuccessfully":true},{"note":46,"velocity":104,"hitTime":17312,"closestNoteTime":17280,"hitSuccessfully":true},{"note":46,"velocity":103,"hitTime":17824,"closestNoteTime":17760,"hitSuccessfully":true},{"note":46,"velocity":114,"hitTime":18272,"closestNoteTime":18240,"hitSuccessfully":true},{"note":38,"velocity":92,"hitTime":18304,"closestNoteTime":18240,"hitSuccessfully":true},{"note":46,"velocity":102,"hitTime":18752,"closestNoteTime":18720,"hitSuccessfully":true},{"note":46,"velocity":108,"hitTime":19184,"closestNoteTime":19200,"hitSuccessfully":true},{"note":36,"velocity":47,"hitTime":19344,"closestNoteTime":19200,"hitSuccessfully":true},{"note":46,"velocity":104,"hitTime":19728,"closestNoteTime":19680,"hitSuccessfully":true},{"note":46,"velocity":110,"hitTime":20208,"closestNoteTime":20160,"hitSuccessfully":true},{"note":38,"velocity":100,"hitTime":20224,"closestNoteTime":20160,"hitSuccessfully":true},{"note":46,"velocity":102,"hitTime":20704,"closestNoteTime":20640,"hitSuccessfully":true},{"note":46,"velocity":108,"hitTime":21168,"closestNoteTime":21120,"hitSuccessfully":true},{"note":36,"velocity":27,"hitTime":21296,"closestNoteTime":21120,"hitSuccessfully":true},{"note":46,"velocity":102,"hitTime":21696,"closestNoteTime":21600,"hitSuccessfully":true},{"note":46,"velocity":112,"hitTime":22176,"closestNoteTime":22080,"hitSuccessfully":true},{"note":38,"velocity":95,"hitTime":22176,"closestNoteTime":22080,"hitSuccessfully":true},{"note":46,"velocity":102,"hitTime":22640,"closestNoteTime":22560,"hitSuccessfully":true},{"note":46,"velocity":104,"hitTime":23088,"closestNoteTime":23040,"hitSuccessfully":true},{"note":46,"velocity":93,"hitTime":23600,"closestNoteTime":23520,"hitSuccessfully":true},{"note":46,"velocity":105,"hitTime":24064,"closestNoteTime":24000,"hitSuccessfully":true},{"note":38,"velocity":82,"hitTime":24080,"closestNoteTime":24000,"hitSuccessfully":true},{"note":46,"velocity":100,"hitTime":24544,"closestNoteTime":24480,"hitSuccessfully":true},{"note":46,"velocity":103,"hitTime":24992,"closestNoteTime":24960,"hitSuccessfully":true},{"note":46,"velocity":97,"hitTime":25504,"closestNoteTime":25440,"hitSuccessfully":true},{"note":46,"velocity":106,"hitTime":25952,"closestNoteTime":25920,"hitSuccessfully":true},{"note":38,"velocity":88,"hitTime":25984,"closestNoteTime":25920,"hitSuccessfully":true},{"note":46,"velocity":103,"hitTime":26496,"closestNoteTime":26400,"hitSuccessfully":true},{"note":46,"velocity":124,"hitTime":26976,"closestNoteTime":26880,"hitSuccessfully":true},{"note":36,"velocity":74,"hitTime":27024,"closestNoteTime":26880,"hitSuccessfully":true},{"note":46,"velocity":102,"hitTime":27488,"closestNoteTime":27360,"hitSuccessfully":true},{"note":46,"velocity":102,"hitTime":27968,"closestNoteTime":27840,"hitSuccessfully":true},{"note":46,"velocity":88,"hitTime":28448,"closestNoteTime":28320,"hitSuccessfully":true},{"note":46,"velocity":98,"hitTime":28912,"closestNoteTime":28800,"hitSuccessfully":true},{"note":46,"velocity":102,"hitTime":29392,"closestNoteTime":29280,"hitSuccessfully":true},{"note":46,"velocity":104,"hitTime":29888,"closestNoteTime":29760,"hitSuccessfully":true},{"note":38,"velocity":94,"hitTime":29968,"closestNoteTime":29760,"hitSuccessfully":true},{"note":46,"velocity":103,"hitTime":30352,"closestNoteTime":30240,"hitSuccessfully":true}]}