{"frames":[{"note":36,"velocity":86,"hitTime":-184,"closestNoteTime":0,"hitSuccessfully":false},{"note":46,"velocity":106,"hitTime":328,"closestNoteTime":480,"hitSuccessfully":false},{"note":46,"velocity":104,"hitTime":768,"closestNoteTime":960,"hitSuccessfully":false},{"note":46,"velocity":127,"hitTime":1088,"closestNoteTime":960,"hitSuccessfully":true},{"note":46,"velocity":124,"hitTime":1488,"closestNoteTime":1440,"hitSuccessfully":true},{"note":36,"velocity":88,"hitTime":1936,"closestNoteTime":1920,"hitSuccessfully":true},{"note":46,"velocity":127,"hitTime":1960,"closestNoteTime":1920,"hitSuccessfully":true},{"note":46,"velocity":118,"hitTime":2400,"closestNoteTime":2400,"hitSuccessfully":true},{"note":46,"velocity":127,"hitTime":2872,"closestNoteTime":2880,"hitSuccessfully":true},{"note":38,"velocity":94,"hitTime":2896,"closestNoteTime":2880,"hitSuccessfully":true},{"note":46,"velocity":127,"hitTime":3336,"closestNoteTime":3360,"hitSuccessfully":true},{"note":36,"velocity":73,"hitTime":3824,"closestNoteTime":3840,"hitSuccessfully":true},{"note":46,"velocity":127,"hitTime":3848,"closestNoteTime":3840,"hitSuccessfully":true},{"note":46,"velocity":127,"hitTime":4320,"closestNoteTime":4320,"hitSuccessfully":true},{"note":46,"velocity":127,"hitTime":4784,"closestNoteTime":4800,"hitSuccessfully":true},{"note":46,"velocity":127,"hitTime":5240,"closestNoteTime":5280,"hitSuccessfully":true},{"note":36,"velocity":77,"hitTime":5696,"closestNoteTime":5760,"hitSuccessfully":true},{"note":46,"velocity":127,"hitTime":5736,"closestNoteTime":5760,"hitSuccessfully":true},{"note":36,"velocity":27,"hitTime":5800,"closestNoteTime":7680,"hitSuccessfully":false},{"note":46,"velocity":127,"hitTime":6176,"closestNoteTime":6240,"hitSuccessfully":true},{"note":46,"velocity":127,"hitTime":6672,"closestNoteTime":6720,"hitSuccessfully":true},{"note":38,"velocity":99,"hitTime":6688,"closestNoteTime":6720,"hitSuccessfully":true},{"note":38,"velocity":58,"hitTime":6736,"closestNoteTime":8640,"hitSuccessfully":false},{"note":46,"velocity":127,"hitTime":7152,"closestNoteTime":7200,"hitSuccessfully":true},{"note":36,"velocity":72,"hitTime":7624,"closestNoteTime":7680,"hitSuccessfully":true},{"note":46,"velocity":127,"hitTime":7648,"closestNoteTime":7680,"hitSuccessfully":true},{"note":46,"velocity":127,"hitTime":8128,"closestNoteTime":8160,"hitSuccessfully":true},{"note":38,"velocity":107,"hitTime":8584,"closestNoteTime":8640,"hitSuccessfully":true},{"note":46,"velocity":127,"hitTime":8584,"closestNoteTime":8640,"hitSuccessfully":true},{"note":38,"velocity":82,"hitTime":8616,"closestNoteTime":10560,"hitSuccessfully":false},{"note":46,"velocity":127,"hitTime":9056,"closestNoteTime":9120,"hitSuccessfully":true},{"note":36,"velocity":60,"hitTime":9472,"closestNoteTime":9600,"hitSuccessfully":true},{"note":46,"velocity":127,"hitTime":9512,"closestNoteTime":9600,"hitSuccessfully":true},{"note":36,"velocity":27,"hitTime":9552,"closestNoteTime":11520,"hitSuccessfully":false},{"note":46,"velocity":127,"hitTime":10008,"closestNoteTime":10080,"hitSuccessfully":true},{"note":38,"velocity":106,"hitTime":10472,"closestNoteTime":10560,"hitSuccessfully":true},{"note":46,"velocity":127,"hitTime":10472,"closestNoteTime":10560,"hitSuccessfully":true},{"note":38,"velocity":81,"hitTime":10504,"closestNoteTime":12480,"hitSuccessfully":false},{"note":46,"velocity":127,"hitTime":10960,"closestNoteTime":11040,"hitSuccessfully":true},{"note":36,"velocity":61,"hitTime":11408,"closestNoteTime":11520,"hitSuccessfully":true},{"note":46,"velocity":127,"hitTime":11440,"closestNoteTime":11520,"hitSuccessfully":true},{"note":46,"velocity":127,"hitTime":11896,"closestNoteTime":12000,"hitSuccessfully":true},{"note":46,"velocity":127,"hitTime":12360,"closestNoteTime":12480,"hitSuccessfully":true},{"note":38,"velocity":94,"hitTime":12376,"closestNoteTime":12480,"hitSuccessfully":true},{"note":38,"velocity":76,"hitTime":12400,"closestNoteTime":14400,"hitSuccessfully":false},{"note":36,"velocity":82,"hitTime":13256,"closestNoteTime":13440,"hitSuccessfully":false},{"note":46,"velocity":127,"hitTime":13328,"closestNoteTime":13440,"hitSuccessfully":true},{"note":36,"velocity":21,"hitTime":13352,"closestNoteTime":13440,"hitSuccessfully":true},{"note":46,"velocity":127,"hitTime":13808,"closestNoteTime":13920,"hitSuccessfully":true},{"note":46,"velocity":127,"hitTime":14304,"closestNoteTime":14400,"hitSuccessfully":true},{"note":38,"velocity":103,"hitTime":14320,"closestNoteTime":14400,"hitSuccessfully":true},{"note":38,"velocity":80,"hitTime":14344,"closestNoteTime":4800,"hitSuccessfully":false},{"note":38,"velocity":60,"hitTime":14368,"closestNoteTime":4800,"hitSuccessfully":false},{"note":46,"velocity":127,"hitTime":14768,"closestNoteTime":14880,"hitSuccessfully":true}]}