{"frames":[{"note":36,"velocity":61,"hitTime":-16,"closestNoteTime":0,"hitSuccessfully":true},{"note":46,"velocity":103,"hitTime":32,"closestNoteTime":0,"hitSuccessfully":true},{"note":46,"velocity":120,"hitTime":448,"closestNoteTime":480,"hitSuccessfully":true},{"note":46,"velocity":127,"hitTime":928,"closestNoteTime":960,"hitSuccessfully":true},{"note":36,"velocity":48,"hitTime":960,"closestNoteTime":1920,"hitSuccessfully":false},{"note":46,"velocity":116,"hitTime":1416,"closestNoteTime":1440,"hitSuccessfully":true},{"note":46,"velocity":127,"hitTime":1864,"closestNoteTime":1920,"hitSuccessfully":true},{"note":36,"velocity":61,"hitTime":1864,"closestNoteTime":1920,"hitSuccessfully":true},{"note":46,"velocity":108,"hitTime":2336,"closestNoteTime":2400,"hitSuccessfully":true},{"note":46,"velocity":106,"hitTime":2816,"closestNoteTime":2880,"hitSuccessfully":true},{"note":46,"velocity":114,"hitTime":3272,"closestNoteTime":3360,"hitSuccessfully":true},{"note":36,"velocity":77,"hitTime":3672,"closestNoteTime":3840,"hitSuccessfully":false},{"note":46,"velocity":127,"hitTime":3744,"closestNoteTime":3840,"hitSuccessfully":true},{"note":46,"velocity":107,"hitTime":4200,"closestNoteTime":4320,"hitSuccessfully":true},{"note":46,"velocity":109,"hitTime":4640,"closestNoteTime":4800,"hitSuccessfully":false},{"note":46,"velocity":108,"hitTime":5080,"closestNoteTime":5280,"hitSuccessfully":false},{"note":36,"velocity":78,"hitTime":5520,"closestNoteTime":5760,"hitSuccessfully":false},{"note":46,"velocity":127,"hitTime":5576,"closestNoteTime":5760,"hitSuccessfully":false},{"note":46,"velocity":103,"hitTime":6032,"closestNoteTime":6240,"hitSuccessfully":false},{"note":46,"velocity":105,"hitTime":6496,"closestNoteTime":6720,"hitSuccessfully":false},{"note":46,"velocity":109,"hitTime":7248,"closestNoteTime":7200,"hitSuccessfully":true},{"note":46,"velocity":106,"hitTime":7624,"closestNoteTime":7680,"hitSuccessfully":true},{"note":36,"velocity":70,"hitTime":7888,"closestNoteTime":7680,"hitSuccessfully":false},{"note":46,"velocity":88,"hitTime":8248,"closestNoteTime":8160,"hitSuccessfully":true},{"note":46,"velocity":107,"hitTime":8704,"closestNoteTime":8640,"hitSuccessfully":true},{"note":46,"velocity":114,"hitTime":9136,"closestNoteTime":9120,"hitSuccessfully":true},{"note":36,"velocity":70,"hitTime":9360,"closestNoteTime":9600,"hitSuccessfully":false},{"note":46,"velocity":95,"hitTime":9576,"closestNoteTime":9600,"hitSuccessfully":true},{"note":46,"velocity":108,"hitTime":10112,"closestNoteTime":10080,"hitSuccessfully":true},{"note":46,"velocity":109,"hitTime":10552,"closestNoteTime":10560,"hitSuccessfully":true},{"note":46,"velocity":108,"hitTime":11064,"closestNoteTime":11040,"hitSuccessfully":true},{"note":36,"velocity":83,"hitTime":11464,"closestNoteTime":11520,"hitSuccessfully":true},{"note":46,"velocity":127,"hitTime":11520,"closestNoteTime":11520,"hitSuccessfully":true},{"note":46,"velocity":106,"hitTime":11976,"closestNoteTime":12000,"hitSuccessfully":true},{"note":46,"velocity":108,"hitTime":12440,"closestNoteTime":12480,"hitSuccessfully":true},{"note":46,"velocity":105,"hitTime":12912,"closestNoteTime":12960,"hitSuccessfully":true},{"note":36,"velocity":76,"hitTime":13408,"closestNoteTime":13440,"hitSuccessfully":true},{"note":46,"velocity":127,"hitTime":13416,"closestNoteTime":13440,"hitSuccessfully":true},{"note":46,"velocity":118,"hitTime":13888,"closestNoteTime":13920,"hitSuccessfully":true},{"note":46,"velocity":118,"hitTime":14344,"closestNoteTime":14400,"hitSuccessfully":true},{"note":46,"velocity":127,"hitTime":14856,"closestNoteTime":14880,"hitSuccessfully":true}]}