{"frames":[{"note":46,"velocity":80,"hitTime":64,"closestNoteTime":0,"hitSuccessfully":true},{"note":46,"velocity":88,"hitTime":520,"closestNoteTime":480,"hitSuccessfully":true},{"note":46,"velocity":84,"hitTime":992,"closestNoteTime":960,"hitSuccessfully":true},{"note":46,"velocity":87,"hitTime":1472,"closestNoteTime":1440,"hitSuccessfully":true},{"note":46,"velocity":88,"hitTime":1992,"closestNoteTime":1920,"hitSuccessfully":true},{"note":46,"velocity":86,"hitTime":2464,"closestNoteTime":2400,"hitSuccessfully":true},{"note":46,"velocity":84,"hitTime":3080,"closestNoteTime":2880,"hitSuccessfully":false},{"note":46,"velocity":88,"hitTime":3504,"closestNoteTime":3360,"hitSuccessfully":true},{"note":46,"velocity":91,"hitTime":3976,"closestNoteTime":3840,"hitSuccessfully":true},{"note":46,"velocity":85,"hitTime":4456,"closestNoteTime":4320,"hitSuccessfully":true},{"note":46,"velocity":88,"hitTime":4968,"closestNoteTime":4800,"hitSuccessfully":false},{"note":46,"velocity":86,"hitTime":5424,"closestNoteTime":5280,"hitSuccessfully":true},{"note":46,"velocity":90,"hitTime":5904,"closestNoteTime":5760,"hitSuccessfully":true},{"note":46,"velocity":88,"hitTime":6416,"closestNoteTime":6240,"hitSuccessfully":false},{"note":46,"velocity":77,"hitTime":7104,"closestNoteTime":7200,"hitSuccessfully":true},{"note":46,"velocity":91,"hitTime":7536,"closestNoteTime":7680,"hitSuccessfully":true},{"note":46,"velocity":83,"hitTime":8032,"closestNoteTime":8160,"hitSuccessfully":true},{"note":46,"velocity":80,"hitTime":8536,"closestNoteTime":8640,"hitSuccessfully":true},{"note":46,"velocity":85,"hitTime":8992,"closestNoteTime":9120,"hitSuccessfully":true},{"note":46,"velocity":84,"hitTime":9464,"closestNoteTime":9600,"hitSuccessfully":true},{"note":46,"velocity":85,"hitTime":9960,"closestNoteTime":10080,"hitSuccessfully":true},{"note":46,"velocity":91,"hitTime":10456,"closestNoteTime":10560,"hitSuccessfully":true},{"note":46,"velocity":90,"hitTime":11032,"closestNoteTime":11040,"hitSuccessfully":true},{"note":46,"velocity":85,"hitTime":11488,"closestNoteTime":11520,"hitSuccessfully":true},{"note":46,"velocity":87,"hitTime":11928,"closestNoteTime":12000,"hitSuccessfully":true},{"note":46,"velocity":80,"hitTime":12392,"closestNoteTime":12480,"hitSuccessfully":true},{"note":46,"velocity":99,"hitTime":12880,"closestNoteTime":12960,"hitSuccessfully":true},{"note":46,"velocity":80,"hitTime":13304,"closestNoteTime":13440,"hitSuccessfully":true},{"note":46,"velocity":91,"hitTime":13776,"closestNoteTime":13920,"hitSuccessfully":true},{"note":46,"velocity":73,"hitTime":14296,"closestNoteTime":14400,"hitSuccessfully":true},{"note":46,"velocity":97,"hitTime":14728,"closestNoteTime":14880,"hitSuccessfully":false},{"note":46,"velocity":84,"hitTime":15168,"closestNoteTime":14880,"hitSuccessfully":false}]}