{"frames":[{"note":46,"velocity":82,"hitTime":48,"closestNoteTime":0,"hitSuccessfully":true},{"note":46,"velocity":82,"hitTime":488,"closestNoteTime":480,"hitSuccessfully":true},{"note":46,"velocity":88,"hitTime":928,"closestNoteTime":960,"hitSuccessfully":true},{"note":46,"velocity":79,"hitTime":1440,"closestNoteTime":1440,"hitSuccessfully":true},{"note":46,"velocity":87,"hitTime":1920,"closestNoteTime":1920,"hitSuccessfully":true},{"note":46,"velocity":85,"hitTime":2432,"closestNoteTime":2400,"hitSuccessfully":true},{"note":46,"velocity":93,"hitTime":2896,"closestNoteTime":2880,"hitSuccessfully":true},{"note":46,"velocity":84,"hitTime":3368,"closestNoteTime":3360,"hitSuccessfully":true},{"note":46,"velocity":88,"hitTime":3872,"closestNoteTime":3840,"hitSuccessfully":true},{"note":46,"velocity":84,"hitTime":4344,"closestNoteTime":4320,"hitSuccessfully":true},{"note":46,"velocity":94,"hitTime":4800,"closestNoteTime":4800,"hitSuccessfully":true},{"note":46,"velocity":77,"hitTime":5296,"closestNoteTime":5280,"hitSuccessfully":true},{"note":46,"velocity":80,"hitTime":5752,"closestNoteTime":5760,"hitSuccessfully":true},{"note":46,"velocity":83,"hitTime":6248,"closestNoteTime":6240,"hitSuccessfully":true},{"note":46,"velocity":97,"hitTime":6704,"closestNoteTime":6720,"hitSuccessfully":true},{"note":46,"velocity":82,"hitTime":7168,"closestNoteTime":7200,"hitSuccessfully":true},{"note":46,"velocity":84,"hitTime":7640,"closestNoteTime":7680,"hitSuccessfully":true},{"note":46,"velocity":80,"hitTime":8104,"closestNoteTime":8160,"hitSuccessfully":true},{"note":46,"velocity":94,"hitTime":8584,"closestNoteTime":8640,"hitSuccessfully":true},{"note":46,"velocity":80,"hitTime":9080,"closestNoteTime":9120,"hitSuccessfully":true},{"note":46,"velocity":84,"hitTime":9552,"closestNoteTime":9600,"hitSuccessfully":true},{"note":46,"velocity":85,"hitTime":10048,"closestNoteTime":10080,"hitSuccessfully":true},{"note":46,"velocity":97,"hitTime":10568,"closestNoteTime":10560,"hitSuccessfully":true},{"note":46,"velocity":87,"hitTime":11064,"closestNoteTime":11040,"hitSuccessfully":true},{"note":46,"velocity":88,"hitTime":11520,"closestNoteTime":11520,"hitSuccessfully":true},{"note":46,"velocity":90,"hitTime":11976,"closestNoteTime":12000,"hitSuccessfully":true},{"note":46,"velocity":101,"hitTime":12472,"closestNoteTime":12480,"hitSuccessfully":true},{"note":46,"velocity":93,"hitTime":12952,"closestNoteTime":12960,"hitSuccessfully":true},{"note":46,"velocity":95,"hitTime":13408,"closestNoteTime":13440,"hitSuccessfully":true},{"note":46,"velocity":88,"hitTime":13888,"closestNoteTime":13920,"hitSuccessfully":true},{"note":46,"velocity":104,"hitTime":14384,"closestNoteTime":14400,"hitSuccessfully":true},{"note":46,"velocity":91,"hitTime":14864,"closestNoteTime":14880,"hitSuccessfully":true},{"note":46,"velocity":94,"hitTime":15336,"closestNoteTime":0,"hitSuccessfully":false}]}