{"frames":[{"note":36,"velocity":31,"hitTime":64,"closestNoteTime":0,"hitSuccessfully":true},{"note":46,"velocity":67,"hitTime":88,"closestNoteTime":0,"hitSuccessfully":true},{"note":46,"velocity":65,"hitTime":544,"closestNoteTime":480,"hitSuccessfully":true},{"note":46,"velocity":60,"hitTime":1016,"closestNoteTime":960,"hitSuccessfully":true},{"note":46,"velocity":62,"hitTime":1480,"closestNoteTime":1440,"hitSuccessfully":true},{"note":36,"velocity":40,"hitTime":1936,"closestNoteTime":1920,"hitSuccessfully":true},{"note":46,"velocity":72,"hitTime":1936,"closestNoteTime":1920,"hitSuccessfully":true},{"note":46,"velocity":62,"hitTime":2408,"closestNoteTime":2400,"hitSuccessfully":true},{"note":46,"velocity":60,"hitTime":2872,"closestNoteTime":2880,"hitSuccessfully":true},{"note":46,"velocity":62,"hitTime":3384,"closestNoteTime":3360,"hitSuccessfully":true},{"note":36,"velocity":27,"hitTime":3856,"closestNoteTime":3840,"hitSuccessfully":true},{"note":46,"velocity":70,"hitTime":3864,"closestNoteTime":3840,"hitSuccessfully":true},{"note":46,"velocity":55,"hitTime":4344,"closestNoteTime":4320,"hitSuccessfully":true},{"note":46,"velocity":62,"hitTime":4840,"closestNoteTime":4800,"hitSuccessfully":true},{"note":46,"velocity":64,"hitTime":5336,"closestNoteTime":5280,"hitSuccessfully":true},{"note":46,"velocity":65,"hitTime":5824,"closestNoteTime":5760,"hitSuccessfully":true},{"note":36,"velocity":36,"hitTime":5832,"closestNoteTime":5760,"hitSuccessfully":true},{"note":46,"velocity":58,"hitTime":6304,"closestNoteTime":6240,"hitSuccessfully":true},{"note":46,"velocity":56,"hitTime":6768,"closestNoteTime":6720,"hitSuccessfully":true},{"note":46,"velocity":64,"hitTime":7256,"closestNoteTime":7200,"hitSuccessfully":true},{"note":36,"velocity":32,"hitTime":7736,"closestNoteTime":7680,"hitSuccessfully":true},{"note":46,"velocity":67,"hitTime":7736,"closestNoteTime":7680,"hitSuccessfully":true},{"note":46,"velocity":54,"hitTime":8216,"closestNoteTime":8160,"hitSuccessfully":true},{"note":46,"velocity":64,"hitTime":8696,"closestNoteTime":8640,"hitSuccessfully":true},{"note":46,"velocity":77,"hitTime":9632,"closestNoteTime":9600,"hitSuccessfully":true},{"note":36,"velocity":30,"hitTime":9648,"closestNoteTime":9600,"hitSuccessfully":true},{"note":46,"velocity":64,"hitTime":10128,"closestNoteTime":10080,"hitSuccessfully":true},{"note":46,"velocity":62,"hitTime":10600,"closestNoteTime":10560,"hitSuccessfully":true},{"note":46,"velocity":66,"hitTime":11064,"closestNoteTime":11040,"hitSuccessfully":true},{"note":46,"velocity":77,"hitTime":11560,"closestNoteTime":11520,"hitSuccessfully":true},{"note":36,"velocity":32,"hitTime":11592,"closestNoteTime":11520,"hitSuccessfully":true},{"note":46,"velocity":60,"hitTime":12048,"closestNoteTime":12000,"hitSuccessfully":true},{"note":46,"velocity":60,"hitTime":12512,"closestNoteTime":12480,"hitSuccessfully":true},{"note":46,"velocity":65,"hitTime":12992,"closestNoteTime":12960,"hitSuccessfully":true},{"note":46,"velocity":79,"hitTime":13480,"closestNoteTime":13440,"hitSuccessfully":true},{"note":36,"velocity":47,"hitTime":13488,"closestNoteTime":13440,"hitSuccessfully":true},{"note":46,"velocity":66,"hitTime":13944,"closestNoteTime":13920,"hitSuccessfully":true},{"note":46,"velocity":70,"hitTime":14440,"closestNoteTime":14400,"hitSuccessfully":true},{"note":46,"velocity":65,"hitTime":14912,"closestNoteTime":14880,"hitSuccessfully":true}]}