{"frames":[{"note":46,"velocity":75,"hitTime":64,"closestNoteTime":0,"hitSuccessfully":true},{"note":46,"velocity":74,"hitTime":472,"closestNoteTime":480,"hitSuccessfully":true},{"note":46,"velocity":79,"hitTime":928,"closestNoteTime":960,"hitSuccessfully":true},{"note":38,"velocity":80,"hitTime":960,"closestNoteTime":960,"hitSuccessfully":true},{"note":46,"velocity":66,"hitTime":1416,"closestNoteTime":1440,"hitSuccessfully":true},{"note":46,"velocity":70,"hitTime":1856,"closestNoteTime":1920,"hitSuccessfully":true},{"note":46,"velocity":72,"hitTime":2352,"closestNoteTime":2400,"hitSuccessfully":true},{"note":38,"velocity":83,"hitTime":2848,"closestNoteTime":2880,"hitSuccessfully":true},{"note":46,"velocity":83,"hitTime":2848,"closestNoteTime":2880,"hitSuccessfully":true},{"note":46,"velocity":75,"hitTime":3352,"closestNoteTime":3360,"hitSuccessfully":true},{"note":46,"velocity":73,"hitTime":3824,"closestNoteTime":3840,"hitSuccessfully":true},{"note":46,"velocity":77,"hitTime":4320,"closestNoteTime":4320,"hitSuccessfully":true},{"note":38,"velocity":77,"hitTime":4824,"closestNoteTime":4800,"hitSuccessfully":true},{"note":46,"velocity":82,"hitTime":4824,"closestNoteTime":4800,"hitSuccessfully":true},{"note":46,"velocity":72,"hitTime":5304,"closestNoteTime":5280,"hitSuccessfully":true},{"note":46,"velocity":77,"hitTime":5792,"closestNoteTime":5760,"hitSuccessfully":true},{"note":46,"velocity":76,"hitTime":6272,"closestNoteTime":6240,"hitSuccessfully":true},{"note":46,"velocity":82,"hitTime":6752,"closestNoteTime":6720,"hitSuccessfully":true},{"note":38,"velocity":81,"hitTime":6792,"closestNoteTime":6720,"hitSuccessfully":true},{"note":46,"velocity":76,"hitTime":7232,"closestNoteTime":7200,"hitSuccessfully":true},{"note":46,"velocity":75,"hitTime":7720,"closestNoteTime":7680,"hitSuccessfully":true},{"note":46,"velocity":72,"hitTime":8200,"closestNoteTime":8160,"hitSuccessfully":true},{"note":46,"velocity":80,"hitTime":8664,"closestNoteTime":8640,"hitSuccessfully":true},{"note":38,"velocity":80,"hitTime":8696,"closestNoteTime":8640,"hitSuccessfully":true},{"note":46,"velocity":74,"hitTime":9152,"closestNoteTime":9120,"hitSuccessfully":true},{"note":46,"velocity":75,"hitTime":9616,"closestNoteTime":9600,"hitSuccessfully":true},{"note":46,"velocity":75,"hitTime":10112,"closestNoteTime":10080,"hitSuccessfully":true},{"note":46,"velocity":82,"hitTime":10608,"closestNoteTime":10560,"hitSuccessfully":true},{"note":38,"velocity":78,"hitTime":10624,"closestNoteTime":10560,"hitSuccessfully":true},{"note":46,"velocity":72,"hitTime":11048,"closestNoteTime":11040,"hitSuccessfully":true},{"note":46,"velocity":74,"hitTime":11584,"closestNoteTime":11520,"hitSuccessfully":true},{"note":46,"velocity":75,"hitTime":12040,"closestNoteTime":12000,"hitSuccessfully":true},{"note":46,"velocity":82,"hitTime":12520,"closestNoteTime":12480,"hitSuccessfully":true},{"note":38,"velocity":80,"hitTime":12536,"closestNoteTime":12480,"hitSuccessfully":true},{"note":46,"velocity":66,"hitTime":13008,"closestNoteTime":12960,"hitSuccessfully":true},{"note":46,"velocity":73,"hitTime":13464,"closestNoteTime":13440,"hitSuccessfully":true},{"note":46,"velocity":73,"hitTime":13968,"closestNoteTime":13920,"hitSuccessfully":true},{"note":46,"velocity":83,"hitTime":14440,"closestNoteTime":14400,"hitSuccessfully":true},{"note":38,"velocity":78,"hitTime":14448,"closestNoteTime":14400,"hitSuccessfully":true},{"note":46,"velocity":72,"hitTime":14904,"closestNoteTime":14880,"hitSuccessfully":true}]}