{"frames":[{"note":46,"velocity":86,"hitTime":64,"closestNoteTime":0,"hitSuccessfully":true},{"note":36,"velocity":48,"hitTime":80,"closestNoteTime":0,"hitSuccessfully":true},{"note":46,"velocity":77,"hitTime":520,"closestNoteTime":480,"hitSuccessfully":true},{"note":46,"velocity":88,"hitTime":1016,"closestNoteTime":960,"hitSuccessfully":true},{"note":46,"velocity":80,"hitTime":1496,"closestNoteTime":1440,"hitSuccessfully":true},{"note":36,"velocity":62,"hitTime":1936,"closestNoteTime":1920,"hitSuccessfully":true},{"note":46,"velocity":87,"hitTime":1952,"closestNoteTime":1920,"hitSuccessfully":true},{"note":46,"velocity":82,"hitTime":2424,"closestNoteTime":2400,"hitSuccessfully":true},{"note":36,"velocity":36,"hitTime":2872,"closestNoteTime":3840,"hitSuccessfully":false},{"note":38,"velocity":64,"hitTime":2888,"closestNoteTime":2880,"hitSuccessfully":true},{"note":46,"velocity":89,"hitTime":2904,"closestNoteTime":2880,"hitSuccessfully":true},{"note":46,"velocity":85,"hitTime":3384,"closestNoteTime":3360,"hitSuccessfully":true},{"note":46,"velocity":89,"hitTime":3864,"closestNoteTime":3840,"hitSuccessfully":true},{"note":36,"velocity":31,"hitTime":3864,"closestNoteTime":3840,"hitSuccessfully":true},{"note":46,"velocity":74,"hitTime":4280,"closestNoteTime":4320,"hitSuccessfully":true},{"note":36,"velocity":39,"hitTime":4800,"closestNoteTime":5760,"hitSuccessfully":false},{"note":46,"velocity":84,"hitTime":4816,"closestNoteTime":4800,"hitSuccessfully":true},{"note":46,"velocity":65,"hitTime":5272,"closestNoteTime":5280,"hitSuccessfully":true},{"note":38,"velocity":66,"hitTime":5784,"closestNoteTime":6720,"hitSuccessfully":false},{"note":46,"velocity":79,"hitTime":5792,"closestNoteTime":5760,"hitSuccessfully":true},{"note":36,"velocity":35,"hitTime":5824,"closestNoteTime":5760,"hitSuccessfully":true},{"note":46,"velocity":65,"hitTime":6208,"closestNoteTime":6240,"hitSuccessfully":true},{"note":38,"velocity":61,"hitTime":6704,"closestNoteTime":6720,"hitSuccessfully":true},{"note":46,"velocity":82,"hitTime":6704,"closestNoteTime":6720,"hitSuccessfully":true},{"note":46,"velocity":77,"hitTime":7176,"closestNoteTime":7200,"hitSuccessfully":true},{"note":46,"velocity":91,"hitTime":7680,"closestNoteTime":7680,"hitSuccessfully":true},{"note":36,"velocity":58,"hitTime":7696,"closestNoteTime":7680,"hitSuccessfully":true},{"note":46,"velocity":80,"hitTime":8152,"closestNoteTime":8160,"hitSuccessfully":true},{"note":38,"velocity":60,"hitTime":8632,"closestNoteTime":8640,"hitSuccessfully":true},{"note":36,"velocity":30,"hitTime":8632,"closestNoteTime":9600,"hitSuccessfully":false},{"note":46,"velocity":88,"hitTime":8648,"closestNoteTime":8640,"hitSuccessfully":true},{"note":46,"velocity":80,"hitTime":9112,"closestNoteTime":9120,"hitSuccessfully":true},{"note":36,"velocity":38,"hitTime":9584,"closestNoteTime":9600,"hitSuccessfully":true},{"note":38,"velocity":60,"hitTime":9600,"closestNoteTime":10560,"hitSuccessfully":false},{"note":46,"velocity":82,"hitTime":9608,"closestNoteTime":9600,"hitSuccessfully":true},{"note":46,"velocity":80,"hitTime":10080,"closestNoteTime":10080,"hitSuccessfully":true},{"note":38,"velocity":60,"hitTime":10544,"closestNoteTime":10560,"hitSuccessfully":true},{"note":46,"velocity":85,"hitTime":10576,"closestNoteTime":10560,"hitSuccessfully":true},{"note":46,"velocity":80,"hitTime":11040,"closestNoteTime":11040,"hitSuccessfully":true},{"note":36,"velocity":38,"hitTime":11456,"closestNoteTime":11520,"hitSuccessfully":true},{"note":38,"velocity":67,"hitTime":11512,"closestNoteTime":12480,"hitSuccessfully":false},{"note":46,"velocity":91,"hitTime":11512,"closestNoteTime":11520,"hitSuccessfully":true},{"note":46,"velocity":79,"hitTime":11992,"closestNoteTime":12000,"hitSuccessfully":true},{"note":46,"velocity":93,"hitTime":12488,"closestNoteTime":12480,"hitSuccessfully":true},{"note":46,"velocity":70,"hitTime":13104,"closestNoteTime":12960,"hitSuccessfully":true},{"note":46,"velocity":77,"hitTime":14336,"closestNoteTime":14400,"hitSuccessfully":true},{"note":38,"velocity":58,"hitTime":14336,"closestNoteTime":14400,"hitSuccessfully":true}]}