{"frames":[{"note":36,"velocity":50,"hitTime":80,"closestNoteTime":0,"hitSuccessfully":true},{"note":46,"velocity":77,"hitTime":128,"closestNoteTime":0,"hitSuccessfully":true},{"note":46,"velocity":74,"hitTime":640,"closestNoteTime":480,"hitSuccessfully":true},{"note":46,"velocity":72,"hitTime":1120,"closestNoteTime":960,"hitSuccessfully":true},{"note":46,"velocity":70,"hitTime":1584,"closestNoteTime":1440,"hitSuccessfully":true},{"note":46,"velocity":66,"hitTime":1984,"closestNoteTime":1920,"hitSuccessfully":true},{"note":46,"velocity":75,"hitTime":2912,"closestNoteTime":2880,"hitSuccessfully":true},{"note":36,"velocity":70,"hitTime":2976,"closestNoteTime":3840,"hitSuccessfully":false},{"note":46,"velocity":75,"hitTime":3408,"closestNoteTime":3360,"hitSuccessfully":true},{"note":46,"velocity":73,"hitTime":3888,"closestNoteTime":3840,"hitSuccessfully":true},{"note":46,"velocity":72,"hitTime":4368,"closestNoteTime":4320,"hitSuccessfully":true},{"note":46,"velocity":74,"hitTime":4880,"closestNoteTime":4800,"hitSuccessfully":true},{"note":36,"velocity":61,"hitTime":5520,"closestNoteTime":5760,"hitSuccessfully":true},{"note":46,"velocity":72,"hitTime":5760,"closestNoteTime":5760,"hitSuccessfully":true},{"note":46,"velocity":75,"hitTime":6272,"closestNoteTime":6240,"hitSuccessfully":true},{"note":46,"velocity":70,"hitTime":6752,"closestNoteTime":6720,"hitSuccessfully":true},{"note":46,"velocity":70,"hitTime":7232,"closestNoteTime":7200,"hitSuccessfully":true},{"note":46,"velocity":64,"hitTime":7664,"closestNoteTime":7680,"hitSuccessfully":true},{"note":36,"velocity":65,"hitTime":7952,"closestNoteTime":7680,"hitSuccessfully":true},{"note":46,"velocity":55,"hitTime":8144,"closestNoteTime":8160,"hitSuccessfully":true},{"note":46,"velocity":65,"hitTime":8544,"closestNoteTime":8640,"hitSuccessfully":true},{"note":38,"velocity":60,"hitTime":8816,"closestNoteTime":8640,"hitSuccessfully":true},{"note":46,"velocity":73,"hitTime":9184,"closestNoteTime":9120,"hitSuccessfully":true},{"note":46,"velocity":70,"hitTime":9648,"closestNoteTime":9600,"hitSuccessfully":true},{"note":36,"velocity":30,"hitTime":9824,"closestNoteTime":9600,"hitSuccessfully":true},{"note":46,"velocity":66,"hitTime":10144,"closestNoteTime":10080,"hitSuccessfully":true},{"note":46,"velocity":72,"hitTime":10608,"closestNoteTime":10560,"hitSuccessfully":true},{"note":46,"velocity":70,"hitTime":11056,"closestNoteTime":11040,"hitSuccessfully":true},{"note":46,"velocity":77,"hitTime":11680,"closestNoteTime":11520,"hitSuccessfully":true},{"note":36,"velocity":58,"hitTime":11776,"closestNoteTime":11520,"hitSuccessfully":true},{"note":46,"velocity":67,"hitTime":12208,"closestNoteTime":12000,"hitSuccessfully":true},{"note":46,"velocity":66,"hitTime":12720,"closestNoteTime":12480,"hitSuccessfully":true},{"note":46,"velocity":72,"hitTime":13328,"closestNoteTime":13440,"hitSuccessfully":true},{"note":46,"velocity":64,"hitTime":13792,"closestNoteTime":13920,"hitSuccessfully":true},{"note":46,"velocity":64,"hitTime":14240,"closestNoteTime":14400,"hitSuccessfully":true},{"note":38,"velocity":72,"hitTime":14672,"closestNoteTime":14400,"hitSuccessfully":true},{"note":46,"velocity":80,"hitTime":14992,"closestNoteTime":14880,"hitSuccessfully":true},{"note":36,"velocity":55,"hitTime":15024,"closestNoteTime":15360,"hitSuccessfully":false},{"note":36,"velocity":23,"hitTime":15184,"closestNoteTime":15360,"hitSuccessfully":true},{"note":46,"velocity":74,"hitTime":15536,"closestNoteTime":15360,"hitSuccessfully":true},{"note":46,"velocity":70,"hitTime":16032,"closestNoteTime":15840,"hitSuccessfully":true},{"note":46,"velocity":67,"hitTime":16528,"closestNoteTime":16320,"hitSuccessfully":true},{"note":46,"velocity":66,"hitTime":16976,"closestNoteTime":16800,"hitSuccessfully":true},{"note":46,"velocity":62,"hitTime":17408,"closestNoteTime":17280,"hitSuccessfully":true},{"note":38,"velocity":75,"hitTime":18016,"closestNoteTime":18240,"hitSuccessfully":true},{"note":36,"velocity":66,"hitTime":18208,"closestNoteTime":17280,"hitSuccessfully":false},{"note":46,"velocity":77,"hitTime":18480,"closestNoteTime":18240,"hitSuccessfully":true},{"note":46,"velocity":65,"hitTime":18928,"closestNoteTime":18720,"hitSuccessfully":true},{"note":46,"velocity":67,"hitTime":19408,"closestNoteTime":19200,"hitSuccessfully":true},{"note":46,"velocity":65,"hitTime":19920,"closestNoteTime":19680,"hitSuccessfully":true},{"note":46,"velocity":65,"hitTime":20368,"closestNoteTime":20160,"hitSuccessfully":true},{"note":46,"velocity":65,"hitTime":20800,"closestNoteTime":20640,"hitSuccessfully":true},{"note":46,"velocity":62,"hitTime":21280,"closestNoteTime":21120,"hitSuccessfully":true},{"note":38,"velocity":67,"hitTime":21344,"closestNoteTime":22080,"hitSuccessfully":false},{"note":36,"velocity":46,"hitTime":21392,"closestNoteTime":21120,"hitSuccessfully":true},{"note":46,"velocity":70,"hitTime":21760,"closestNoteTime":21600,"hitSuccessfully":true},{"note":46,"velocity":67,"hitTime":22224,"closestNoteTime":22080,"hitSuccessfully":true},{"note":46,"velocity":65,"hitTime":22704,"closestNoteTime":22560,"hitSuccessfully":true},{"note":46,"velocity":66,"hitTime":23136,"closestNoteTime":23040,"hitSuccessfully":true},{"note":38,"velocity":64,"hitTime":23904,"closestNoteTime":24000,"hitSuccessfully":true},{"note":36,"velocity":52,"hitTime":24016,"closestNoteTime":24960,"hitSuccessfully":false},{"note":46,"velocity":66,"hitTime":24144,"closestNoteTime":24000,"hitSuccessfully":true},{"note":46,"velocity":62,"hitTime":24576,"closestNoteTime":24480,"hitSuccessfully":true},{"note":46,"velocity":66,"hitTime":24976,"closestNoteTime":24960,"hitSuccessfully":true},{"note":46,"velocity":60,"hitTime":25440,"closestNoteTime":25440,"hitSuccessfully":true},{"note":46,"velocity":73,"hitTime":26048,"closestNoteTime":25920,"hitSuccessfully":true},{"note":38,"velocity":68,"hitTime":26448,"closestNoteTime":25920,"hitSuccessfully":false},{"note":36,"velocity":42,"hitTime":26720,"closestNoteTime":26880,"hitSuccessfully":true},{"note":46,"velocity":79,"hitTime":26768,"closestNoteTime":26880,"hitSuccessfully":true},{"note":46,"velocity":65,"hitTime":27264,"closestNoteTime":27360,"hitSuccessfully":true},{"note":46,"velocity":67,"hitTime":27792,"closestNoteTime":27840,"hitSuccessfully":true},{"note":46,"velocity":67,"hitTime":28304,"closestNoteTime":28320,"hitSuccessfully":true},{"note":46,"velocity":36,"hitTime":28784,"closestNoteTime":28800,"hitSuccessfully":true},{"note":38,"velocity":54,"hitTime":28944,"closestNoteTime":29760,"hitSuccessfully":false},{"note":46,"velocity":74,"hitTime":29232,"closestNoteTime":29280,"hitSuccessfully":true},{"note":36,"velocity":54,"hitTime":29344,"closestNoteTime":28800,"hitSuccessfully":false},{"note":36,"velocity":26,"hitTime":29536,"closestNoteTime":28800,"hitSuccessfully":false},{"note":46,"velocity":76,"hitTime":29728,"closestNoteTime":29760,"hitSuccessfully":true},{"note":46,"velocity":70,"hitTime":30208,"closestNoteTime":30240,"hitSuccessfully":true},{"note":46,"velocity":64,"hitTime":30624,"closestNoteTime":26400,"hitSuccessfully":false}]}