{"frames":[{"note":46,"velocity":64,"hitTime":32,"closestNoteTime":0,"hitSuccessfully":true},{"note":46,"velocity":66,"hitTime":488,"closestNoteTime":480,"hitSuccessfully":true},{"note":46,"velocity":67,"hitTime":984,"closestNoteTime":960,"hitSuccessfully":true},{"note":46,"velocity":65,"hitTime":1424,"closestNoteTime":1440,"hitSuccessfully":true},{"note":46,"velocity":67,"hitTime":1920,"closestNoteTime":1920,"hitSuccessfully":true},{"note":46,"velocity":67,"hitTime":2392,"closestNoteTime":2400,"hitSuccessfully":true},{"note":46,"velocity":62,"hitTime":2872,"closestNoteTime":2880,"hitSuccessfully":true},{"note":46,"velocity":64,"hitTime":3368,"closestNoteTime":3360,"hitSuccessfully":true},{"note":46,"velocity":65,"hitTime":3880,"closestNoteTime":3840,"hitSuccessfully":true},{"note":46,"velocity":70,"hitTime":4360,"closestNoteTime":4320,"hitSuccessfully":true},{"note":46,"velocity":60,"hitTime":4816,"closestNoteTime":4800,"hitSuccessfully":true},{"note":46,"velocity":62,"hitTime":5296,"closestNoteTime":5280,"hitSuccessfully":true},{"note":46,"velocity":73,"hitTime":5808,"closestNoteTime":5760,"hitSuccessfully":true},{"note":46,"velocity":72,"hitTime":6264,"closestNoteTime":6240,"hitSuccessfully":true},{"note":46,"velocity":72,"hitTime":6744,"closestNoteTime":6720,"hitSuccessfully":true},{"note":46,"velocity":67,"hitTime":7224,"closestNoteTime":7200,"hitSuccessfully":true},{"note":46,"velocity":64,"hitTime":7736,"closestNoteTime":7680,"hitSuccessfully":true},{"note":46,"velocity":74,"hitTime":8232,"closestNoteTime":8160,"hitSuccessfully":true},{"note":46,"velocity":62,"hitTime":8688,"closestNoteTime":8640,"hitSuccessfully":true},{"note":46,"velocity":62,"hitTime":9184,"closestNoteTime":9120,"hitSuccessfully":true},{"note":46,"velocity":58,"hitTime":9648,"closestNoteTime":9600,"hitSuccessfully":true},{"note":46,"velocity":54,"hitTime":10128,"closestNoteTime":10080,"hitSuccessfully":true},{"note":46,"velocity":70,"hitTime":10616,"closestNoteTime":10560,"hitSuccessfully":true},{"note":46,"velocity":66,"hitTime":11096,"closestNoteTime":11040,"hitSuccessfully":true},{"note":46,"velocity":64,"hitTime":11576,"closestNoteTime":11520,"hitSuccessfully":true},{"note":46,"velocity":60,"hitTime":12072,"closestNoteTime":12000,"hitSuccessfully":true},{"note":46,"velocity":64,"hitTime":12552,"closestNoteTime":12480,"hitSuccessfully":true},{"note":46,"velocity":64,"hitTime":13032,"closestNoteTime":12960,"hitSuccessfully":true},{"note":46,"velocity":64,"hitTime":13520,"closestNoteTime":13440,"hitSuccessfully":true},{"note":46,"velocity":64,"hitTime":13976,"closestNoteTime":13920,"hitSuccessfully":true},{"note":46,"velocity":64,"hitTime":14456,"closestNoteTime":14400,"hitSuccessfully":true},{"note":46,"velocity":70,"hitTime":14920,"closestNoteTime":14880,"hitSuccessfully":true}]}