{"frames":[{"note":46,"velocity":105,"hitTime":-32,"closestNoteTime":0,"hitSuccessfully":true},{"note":46,"velocity":102,"hitTime":448,"closestNoteTime":480,"hitSuccessfully":true},{"note":46,"velocity":100,"hitTime":920,"closestNoteTime":960,"hitSuccessfully":true},{"note":46,"velocity":86,"hitTime":1392,"closestNoteTime":1440,"hitSuccessfully":true},{"note":46,"velocity":98,"hitTime":1872,"closestNoteTime":1920,"hitSuccessfully":true},{"note":46,"velocity":79,"hitTime":2368,"closestNoteTime":2400,"hitSuccessfully":true},{"note":46,"velocity":98,"hitTime":2824,"closestNoteTime":2880,"hitSuccessfully":true},{"note":46,"velocity":86,"hitTime":3328,"closestNoteTime":3360,"hitSuccessfully":true},{"note":46,"velocity":97,"hitTime":3768,"closestNoteTime":3840,"hitSuccessfully":true},{"note":46,"velocity":91,"hitTime":4296,"closestNoteTime":4320,"hitSuccessfully":true},{"note":46,"velocity":93,"hitTime":4752,"closestNoteTime":4800,"hitSuccessfully":true},{"note":46,"velocity":89,"hitTime":5272,"closestNoteTime":5280,"hitSuccessfully":true},{"note":46,"velocity":94,"hitTime":5728,"closestNoteTime":5760,"hitSuccessfully":true},{"note":46,"velocity":88,"hitTime":6264,"closestNoteTime":6240,"hitSuccessfully":true},{"note":46,"velocity":91,"hitTime":6704,"closestNoteTime":6720,"hitSuccessfully":true},{"note":46,"velocity":66,"hitTime":6728,"closestNoteTime":7200,"hitSuccessfully":false},{"note":46,"velocity":93,"hitTime":7200,"closestNoteTime":7200,"hitSuccessfully":true},{"note":46,"velocity":99,"hitTime":7664,"closestNoteTime":7680,"hitSuccessfully":true},{"note":46,"velocity":85,"hitTime":8160,"closestNoteTime":8160,"hitSuccessfully":true},{"note":46,"velocity":91,"hitTime":8632,"closestNoteTime":8640,"hitSuccessfully":true},{"note":46,"velocity":94,"hitTime":9128,"closestNoteTime":9120,"hitSuccessfully":true},{"note":46,"velocity":93,"hitTime":9584,"closestNoteTime":9600,"hitSuccessfully":true},{"note":46,"velocity":91,"hitTime":10064,"closestNoteTime":10080,"hitSuccessfully":true},{"note":46,"velocity":101,"hitTime":11496,"closestNoteTime":11520,"hitSuccessfully":true},{"note":46,"velocity":94,"hitTime":11960,"closestNoteTime":12000,"hitSuccessfully":true},{"note":46,"velocity":97,"hitTime":12448,"closestNoteTime":12480,"hitSuccessfully":true},{"note":46,"velocity":99,"hitTime":12928,"closestNoteTime":12960,"hitSuccessfully":true},{"note":46,"velocity":94,"hitTime":13408,"closestNoteTime":13440,"hitSuccessfully":true},{"note":46,"velocity":94,"hitTime":13904,"closestNoteTime":13920,"hitSuccessfully":true},{"note":46,"velocity":93,"hitTime":14384,"closestNoteTime":14400,"hitSuccessfully":true},{"note":46,"velocity":94,"hitTime":14880,"closestNoteTime":14880,"hitSuccessfully":true}]}