{"frames":[{"note":46,"velocity":79,"hitTime":48,"closestNoteTime":0,"hitSuccessfully":true},{"note":46,"velocity":77,"hitTime":536,"closestNoteTime":480,"hitSuccessfully":true},{"note":38,"velocity":75,"hitTime":976,"closestNoteTime":960,"hitSuccessfully":true},{"note":46,"velocity":91,"hitTime":992,"closestNoteTime":960,"hitSuccessfully":true},{"note":46,"velocity":79,"hitTime":1472,"closestNoteTime":1440,"hitSuccessfully":true},{"note":46,"velocity":83,"hitTime":1952,"closestNoteTime":1920,"hitSuccessfully":true},{"note":46,"velocity":82,"hitTime":2424,"closestNoteTime":2400,"hitSuccessfully":true},{"note":38,"velocity":75,"hitTime":2864,"closestNoteTime":2880,"hitSuccessfully":true},{"note":46,"velocity":90,"hitTime":2880,"closestNoteTime":2880,"hitSuccessfully":true},{"note":46,"velocity":80,"hitTime":3376,"closestNoteTime":3360,"hitSuccessfully":true},{"note":46,"velocity":85,"hitTime":3840,"closestNoteTime":3840,"hitSuccessfully":true},{"note":46,"velocity":88,"hitTime":4352,"closestNoteTime":4320,"hitSuccessfully":true},{"note":38,"velocity":76,"hitTime":4792,"closestNoteTime":4800,"hitSuccessfully":true},{"note":46,"velocity":91,"hitTime":4816,"closestNoteTime":4800,"hitSuccessfully":true},{"note":46,"velocity":80,"hitTime":5288,"closestNoteTime":5280,"hitSuccessfully":true},{"note":46,"velocity":86,"hitTime":5752,"closestNoteTime":5760,"hitSuccessfully":true},{"note":46,"velocity":83,"hitTime":6248,"closestNoteTime":6240,"hitSuccessfully":true},{"note":38,"velocity":79,"hitTime":6704,"closestNoteTime":6720,"hitSuccessfully":true},{"note":46,"velocity":91,"hitTime":6720,"closestNoteTime":6720,"hitSuccessfully":true},{"note":46,"velocity":85,"hitTime":7200,"closestNoteTime":7200,"hitSuccessfully":true},{"note":46,"velocity":82,"hitTime":7672,"closestNoteTime":7680,"hitSuccessfully":true},{"note":46,"velocity":84,"hitTime":8152,"closestNoteTime":8160,"hitSuccessfully":true},{"note":38,"velocity":75,"hitTime":8616,"closestNoteTime":8640,"hitSuccessfully":true},{"note":46,"velocity":89,"hitTime":8616,"closestNoteTime":8640,"hitSuccessfully":true},{"note":38,"velocity":28,"hitTime":8728,"closestNoteTime":10560,"hitSuccessfully":false},{"note":46,"velocity":80,"hitTime":9104,"closestNoteTime":9120,"hitSuccessfully":true},{"note":46,"velocity":82,"hitTime":9584,"closestNoteTime":9600,"hitSuccessfully":true},{"note":46,"velocity":79,"hitTime":10064,"closestNoteTime":10080,"hitSuccessfully":true},{"note":38,"velocity":78,"hitTime":10504,"closestNoteTime":10560,"hitSuccessfully":true},{"note":46,"velocity":89,"hitTime":10520,"closestNoteTime":10560,"hitSuccessfully":true},{"note":38,"velocity":52,"hitTime":10584,"closestNoteTime":12480,"hitSuccessfully":false},{"note":46,"velocity":80,"hitTime":11000,"closestNoteTime":11040,"hitSuccessfully":true},{"note":46,"velocity":82,"hitTime":11488,"closestNoteTime":11520,"hitSuccessfully":true},{"note":46,"velocity":83,"hitTime":11968,"closestNoteTime":12000,"hitSuccessfully":true},{"note":38,"velocity":76,"hitTime":12392,"closestNoteTime":12480,"hitSuccessfully":true},{"note":46,"velocity":91,"hitTime":12432,"closestNoteTime":12480,"hitSuccessfully":true},{"note":38,"velocity":32,"hitTime":12488,"closestNoteTime":14400,"hitSuccessfully":false},{"note":46,"velocity":83,"hitTime":12904,"closestNoteTime":12960,"hitSuccessfully":true},{"note":46,"velocity":84,"hitTime":13384,"closestNoteTime":13440,"hitSuccessfully":true},{"note":46,"velocity":84,"hitTime":13856,"closestNoteTime":13920,"hitSuccessfully":true},{"note":38,"velocity":84,"hitTime":14320,"closestNoteTime":14400,"hitSuccessfully":true},{"note":46,"velocity":94,"hitTime":14352,"closestNoteTime":14400,"hitSuccessfully":true},{"note":46,"velocity":82,"hitTime":14816,"closestNoteTime":14880,"hitSuccessfully":true},{"note":46,"velocity":86,"hitTime":15296,"closestNoteTime":0,"hitSuccessfully":false}]}