{"frames":[{"note":46,"velocity":100,"hitTime":-8,"closestNoteTime":0,"hitSuccessfully":true},{"note":46,"velocity":103,"hitTime":488,"closestNoteTime":480,"hitSuccessfully":true},{"note":46,"velocity":99,"hitTime":960,"closestNoteTime":960,"hitSuccessfully":true},{"note":46,"velocity":101,"hitTime":1440,"closestNoteTime":1440,"hitSuccessfully":true},{"note":46,"velocity":101,"hitTime":1912,"closestNoteTime":1920,"hitSuccessfully":true},{"note":46,"velocity":103,"hitTime":2392,"closestNoteTime":2400,"hitSuccessfully":true},{"note":46,"velocity":102,"hitTime":2856,"closestNoteTime":2880,"hitSuccessfully":true},{"note":46,"velocity":100,"hitTime":3344,"closestNoteTime":3360,"hitSuccessfully":true},{"note":46,"velocity":98,"hitTime":3840,"closestNoteTime":3840,"hitSuccessfully":true},{"note":46,"velocity":98,"hitTime":4304,"closestNoteTime":4320,"hitSuccessfully":true},{"note":46,"velocity":100,"hitTime":4784,"closestNoteTime":4800,"hitSuccessfully":true},{"note":46,"velocity":99,"hitTime":5272,"closestNoteTime":5280,"hitSuccessfully":true},{"note":46,"velocity":98,"hitTime":5768,"closestNoteTime":5760,"hitSuccessfully":true},{"note":46,"velocity":99,"hitTime":6704,"closestNoteTime":6720,"hitSuccessfully":true},{"note":46,"velocity":99,"hitTime":7184,"closestNoteTime":7200,"hitSuccessfully":true},{"note":46,"velocity":99,"hitTime":7664,"closestNoteTime":7680,"hitSuccessfully":true},{"note":46,"velocity":98,"hitTime":8136,"closestNoteTime":8160,"hitSuccessfully":true},{"note":46,"velocity":98,"hitTime":8616,"closestNoteTime":8640,"hitSuccessfully":true},{"note":46,"velocity":98,"hitTime":9096,"closestNoteTime":9120,"hitSuccessfully":true},{"note":46,"velocity":100,"hitTime":9592,"closestNoteTime":9600,"hitSuccessfully":true},{"note":46,"velocity":99,"hitTime":10064,"closestNoteTime":10080,"hitSuccessfully":true},{"note":46,"velocity":99,"hitTime":10560,"closestNoteTime":10560,"hitSuccessfully":true},{"note":46,"velocity":101,"hitTime":11024,"closestNoteTime":11040,"hitSuccessfully":true},{"note":46,"velocity":104,"hitTime":11520,"closestNoteTime":11520,"hitSuccessfully":true},{"note":46,"velocity":101,"hitTime":12000,"closestNoteTime":12000,"hitSuccessfully":true},{"note":46,"velocity":101,"hitTime":12488,"closestNoteTime":12480,"hitSuccessfully":true},{"note":46,"velocity":100,"hitTime":12968,"closestNoteTime":12960,"hitSuccessfully":true},{"note":46,"velocity":100,"hitTime":13432,"closestNoteTime":13440,"hitSuccessfully":true},{"note":46,"velocity":100,"hitTime":13928,"closestNoteTime":13920,"hitSuccessfully":true},{"note":46,"velocity":101,"hitTime":14416,"closestNoteTime":14400,"hitSuccessfully":true},{"note":46,"velocity":106,"hitTime":14880,"closestNoteTime":14880,"hitSuccessfully":true}]}