{"frames":[{"note":46,"velocity":77,"hitTime":64,"closestNoteTime":0,"hitSuccessfully":true},{"note":36,"velocity":42,"hitTime":80,"closestNoteTime":0,"hitSuccessfully":true},{"note":46,"velocity":60,"hitTime":520,"closestNoteTime":480,"hitSuccessfully":true},{"note":46,"velocity":77,"hitTime":976,"closestNoteTime":960,"hitSuccessfully":true},{"note":46,"velocity":77,"hitTime":1448,"closestNoteTime":1440,"hitSuccessfully":true},{"note":36,"velocity":47,"hitTime":1888,"closestNoteTime":1920,"hitSuccessfully":true},{"note":46,"velocity":86,"hitTime":1912,"closestNoteTime":1920,"hitSuccessfully":true},{"note":46,"velocity":79,"hitTime":2392,"closestNoteTime":2400,"hitSuccessfully":true},{"note":46,"velocity":76,"hitTime":2848,"closestNoteTime":2880,"hitSuccessfully":true},{"note":46,"velocity":70,"hitTime":3360,"closestNoteTime":3360,"hitSuccessfully":true},{"note":36,"velocity":44,"hitTime":3856,"closestNoteTime":3840,"hitSuccessfully":true},{"note":46,"velocity":84,"hitTime":3880,"closestNoteTime":3840,"hitSuccessfully":true},{"note":46,"velocity":74,"hitTime":4360,"closestNoteTime":4320,"hitSuccessfully":true},{"note":46,"velocity":75,"hitTime":4832,"closestNoteTime":4800,"hitSuccessfully":true},{"note":46,"velocity":70,"hitTime":5312,"closestNoteTime":5280,"hitSuccessfully":true},{"note":46,"velocity":84,"hitTime":5808,"closestNoteTime":5760,"hitSuccessfully":true},{"note":36,"velocity":42,"hitTime":5824,"closestNoteTime":5760,"hitSuccessfully":true},{"note":46,"velocity":76,"hitTime":6288,"closestNoteTime":6240,"hitSuccessfully":true},{"note":46,"velocity":77,"hitTime":6784,"closestNoteTime":6720,"hitSuccessfully":true},{"note":46,"velocity":79,"hitTime":7256,"closestNoteTime":7200,"hitSuccessfully":true},{"note":36,"velocity":46,"hitTime":7752,"closestNoteTime":7680,"hitSuccessfully":true},{"note":46,"velocity":82,"hitTime":7752,"closestNoteTime":7680,"hitSuccessfully":true},{"note":46,"velocity":79,"hitTime":8272,"closestNoteTime":8160,"hitSuccessfully":true},{"note":46,"velocity":75,"hitTime":8728,"closestNoteTime":8640,"hitSuccessfully":true},{"note":46,"velocity":79,"hitTime":9208,"closestNoteTime":9120,"hitSuccessfully":true},{"note":46,"velocity":86,"hitTime":9704,"closestNoteTime":9600,"hitSuccessfully":true},{"note":36,"velocity":40,"hitTime":9704,"closestNoteTime":9600,"hitSuccessfully":true},{"note":46,"velocity":79,"hitTime":10136,"closestNoteTime":10080,"hitSuccessfully":true},{"note":46,"velocity":79,"hitTime":10616,"closestNoteTime":10560,"hitSuccessfully":true},{"note":46,"velocity":77,"hitTime":11080,"closestNoteTime":11040,"hitSuccessfully":true},{"note":46,"velocity":85,"hitTime":11552,"closestNoteTime":11520,"hitSuccessfully":true},{"note":36,"velocity":47,"hitTime":11576,"closestNoteTime":11520,"hitSuccessfully":true},{"note":46,"velocity":77,"hitTime":12048,"closestNoteTime":12000,"hitSuccessfully":true},{"note":46,"velocity":75,"hitTime":12512,"closestNoteTime":12480,"hitSuccessfully":true},{"note":46,"velocity":77,"hitTime":12984,"closestNoteTime":12960,"hitSuccessfully":true},{"note":46,"velocity":85,"hitTime":13480,"closestNoteTime":13440,"hitSuccessfully":true},{"note":36,"velocity":42,"hitTime":13480,"closestNoteTime":13440,"hitSuccessfully":true},{"note":46,"velocity":79,"hitTime":13960,"closestNoteTime":13920,"hitSuccessfully":true},{"note":46,"velocity":75,"hitTime":14440,"closestNoteTime":14400,"hitSuccessfully":true},{"note":46,"velocity":79,"hitTime":14928,"closestNoteTime":14880,"hitSuccessfully":true}]}