{"frames":[{"note":46,"velocity":102,"hitTime":112,"closestNoteTime":0,"hitSuccessfully":true},{"note":46,"velocity":125,"hitTime":568,"closestNoteTime":480,"hitSuccessfully":true},{"note":46,"velocity":104,"hitTime":1024,"closestNoteTime":960,"hitSuccessfully":true},{"note":38,"velocity":86,"hitTime":1024,"closestNoteTime":960,"hitSuccessfully":true},{"note":46,"velocity":106,"hitTime":1488,"closestNoteTime":1440,"hitSuccessfully":true},{"note":36,"velocity":79,"hitTime":1960,"closestNoteTime":1920,"hitSuccessfully":true},{"note":46,"velocity":125,"hitTime":1960,"closestNoteTime":1920,"hitSuccessfully":true},{"note":46,"velocity":94,"hitTime":2424,"closestNoteTime":2400,"hitSuccessfully":true},{"note":46,"velocity":127,"hitTime":2896,"closestNoteTime":2880,"hitSuccessfully":true},{"note":38,"velocity":87,"hitTime":2912,"closestNoteTime":2880,"hitSuccessfully":true},{"note":46,"velocity":112,"hitTime":3368,"closestNoteTime":3360,"hitSuccessfully":true},{"note":36,"velocity":70,"hitTime":3848,"closestNoteTime":3840,"hitSuccessfully":true},{"note":46,"velocity":86,"hitTime":3872,"closestNoteTime":3840,"hitSuccessfully":true},{"note":46,"velocity":106,"hitTime":4352,"closestNoteTime":4320,"hitSuccessfully":true},{"note":46,"velocity":98,"hitTime":4840,"closestNoteTime":4800,"hitSuccessfully":true},{"note":38,"velocity":88,"hitTime":4848,"closestNoteTime":4800,"hitSuccessfully":true},{"note":46,"velocity":127,"hitTime":5304,"closestNoteTime":5280,"hitSuccessfully":true},{"note":36,"velocity":74,"hitTime":5776,"closestNoteTime":5760,"hitSuccessfully":true},{"note":46,"velocity":112,"hitTime":5800,"closestNoteTime":5760,"hitSuccessfully":true},{"note":46,"velocity":106,"hitTime":6280,"closestNoteTime":6240,"hitSuccessfully":true},{"note":46,"velocity":127,"hitTime":6776,"closestNoteTime":6720,"hitSuccessfully":true},{"note":38,"velocity":98,"hitTime":6776,"closestNoteTime":6720,"hitSuccessfully":true},{"note":46,"velocity":114,"hitTime":7264,"closestNoteTime":7200,"hitSuccessfully":true},{"note":36,"velocity":60,"hitTime":7728,"closestNoteTime":7680,"hitSuccessfully":true},{"note":46,"velocity":96,"hitTime":7744,"closestNoteTime":7680,"hitSuccessfully":true},{"note":46,"velocity":108,"hitTime":8208,"closestNoteTime":8160,"hitSuccessfully":true},{"note":46,"velocity":106,"hitTime":8704,"closestNoteTime":8640,"hitSuccessfully":true},{"note":38,"velocity":96,"hitTime":8736,"closestNoteTime":8640,"hitSuccessfully":true},{"note":46,"velocity":108,"hitTime":9200,"closestNoteTime":9120,"hitSuccessfully":true},{"note":46,"velocity":94,"hitTime":9712,"closestNoteTime":9600,"hitSuccessfully":true},{"note":36,"velocity":76,"hitTime":9720,"closestNoteTime":9600,"hitSuccessfully":true},{"note":46,"velocity":91,"hitTime":10168,"closestNoteTime":10080,"hitSuccessfully":true},{"note":46,"velocity":127,"hitTime":10648,"closestNoteTime":10560,"hitSuccessfully":true},{"note":38,"velocity":98,"hitTime":10648,"closestNoteTime":10560,"hitSuccessfully":true},{"note":46,"velocity":87,"hitTime":11144,"closestNoteTime":11040,"hitSuccessfully":true},{"note":36,"velocity":65,"hitTime":11600,"closestNoteTime":11520,"hitSuccessfully":true},{"note":46,"velocity":99,"hitTime":11624,"closestNoteTime":11520,"hitSuccessfully":true},{"note":46,"velocity":96,"hitTime":12104,"closestNoteTime":12000,"hitSuccessfully":true},{"note":46,"velocity":100,"hitTime":12544,"closestNoteTime":12480,"hitSuccessfully":true},{"note":38,"velocity":97,"hitTime":12560,"closestNoteTime":12480,"hitSuccessfully":true},{"note":46,"velocity":89,"hitTime":13016,"closestNoteTime":12960,"hitSuccessfully":true},{"note":36,"velocity":73,"hitTime":13488,"closestNoteTime":13440,"hitSuccessfully":true},{"note":46,"velocity":101,"hitTime":13496,"closestNoteTime":13440,"hitSuccessfully":true},{"note":46,"velocity":95,"hitTime":13968,"closestNoteTime":13920,"hitSuccessfully":true},{"note":38,"velocity":103,"hitTime":14464,"closestNoteTime":14400,"hitSuccessfully":true},{"note":46,"velocity":106,"hitTime":14464,"closestNoteTime":14400,"hitSuccessfully":true},{"note":46,"velocity":105,"hitTime":14960,"closestNoteTime":14880,"hitSuccessfully":true}]}