{"frames":[{"note":46,"velocity":96,"hitTime":5008,"closestNoteTime":4800,"hitSuccessfully":true},{"note":36,"velocity":73,"hitTime":5056,"closestNoteTime":5760,"hitSuccessfully":false},{"note":46,"velocity":72,"hitTime":5424,"closestNoteTime":5280,"hitSuccessfully":true},{"note":46,"velocity":101,"hitTime":5968,"closestNoteTime":5760,"hitSuccessfully":true},{"note":38,"velocity":96,"hitTime":6016,"closestNoteTime":6720,"hitSuccessfully":false},{"note":38,"velocity":58,"hitTime":6480,"closestNoteTime":6720,"hitSuccessfully":true},{"note":46,"velocity":105,"hitTime":6976,"closestNoteTime":6720,"hitSuccessfully":true},{"note":36,"velocity":82,"hitTime":7040,"closestNoteTime":7680,"hitSuccessfully":false},{"note":46,"velocity":86,"hitTime":7440,"closestNoteTime":7200,"hitSuccessfully":true},{"note":46,"velocity":105,"hitTime":7968,"closestNoteTime":7680,"hitSuccessfully":true},{"note":38,"velocity":93,"hitTime":8000,"closestNoteTime":8640,"hitSuccessfully":false},{"note":46,"velocity":104,"hitTime":9040,"closestNoteTime":9120,"hitSuccessfully":true},{"note":46,"velocity":91,"hitTime":9584,"closestNoteTime":9600,"hitSuccessfully":true},{"note":46,"velocity":101,"hitTime":10080,"closestNoteTime":10080,"hitSuccessfully":true},{"note":38,"velocity":101,"hitTime":10160,"closestNoteTime":10560,"hitSuccessfully":false},{"note":38,"velocity":30,"hitTime":10656,"closestNoteTime":10560,"hitSuccessfully":true},{"note":46,"velocity":108,"hitTime":11232,"closestNoteTime":11040,"hitSuccessfully":true},{"note":36,"velocity":40,"hitTime":11312,"closestNoteTime":11520,"hitSuccessfully":true},{"note":46,"velocity":93,"hitTime":11744,"closestNoteTime":11520,"hitSuccessfully":true},{"note":46,"velocity":105,"hitTime":12336,"closestNoteTime":12480,"hitSuccessfully":true},{"note":38,"velocity":93,"hitTime":12336,"closestNoteTime":12480,"hitSuccessfully":true},{"note":38,"velocity":58,"hitTime":12864,"closestNoteTime":14400,"hitSuccessfully":false},{"note":46,"velocity":106,"hitTime":13456,"closestNoteTime":13440,"hitSuccessfully":true},{"note":46,"velocity":85,"hitTime":13936,"closestNoteTime":13920,"hitSuccessfully":true},{"note":46,"velocity":105,"hitTime":14528,"closestNoteTime":14400,"hitSuccessfully":true},{"note":38,"velocity":95,"hitTime":14560,"closestNoteTime":14400,"hitSuccessfully":true},{"note":38,"velocity":56,"hitTime":15072,"closestNoteTime":16320,"hitSuccessfully":false},{"note":46,"velocity":70,"hitTime":15168,"closestNoteTime":14880,"hitSuccessfully":true},{"note":46,"velocity":103,"hitTime":15648,"closestNoteTime":15360,"hitSuccessfully":true},{"note":46,"velocity":91,"hitTime":16192,"closestNoteTime":16320,"hitSuccessfully":true},{"note":46,"velocity":93,"hitTime":16720,"closestNoteTime":16800,"hitSuccessfully":true},{"note":46,"velocity":91,"hitTime":17312,"closestNoteTime":17280,"hitSuccessfully":true},{"note":46,"velocity":107,"hitTime":17904,"closestNoteTime":17760,"hitSuccessfully":true},{"note":38,"velocity":89,"hitTime":17952,"closestNoteTime":18240,"hitSuccessfully":true},{"note":46,"velocity":85,"hitTime":18496,"closestNoteTime":18240,"hitSuccessfully":true},{"note":46,"velocity":91,"hitTime":18976,"closestNoteTime":18720,"hitSuccessfully":true},{"note":46,"velocity":88,"hitTime":19568,"closestNoteTime":19680,"hitSuccessfully":true},{"note":46,"velocity":58,"hitTime":19648,"closestNoteTime":19200,"hitSuccessfully":false},{"note":46,"velocity":105,"hitTime":20160,"closestNoteTime":20160,"hitSuccessfully":true},{"note":38,"velocity":95,"hitTime":20176,"closestNoteTime":20160,"hitSuccessfully":true},{"note":46,"velocity":88,"hitTime":20736,"closestNoteTime":20640,"hitSuccessfully":true},{"note":46,"velocity":85,"hitTime":21248,"closestNoteTime":21120,"hitSuccessfully":true},{"note":46,"velocity":87,"hitTime":21808,"closestNoteTime":21600,"hitSuccessfully":true},{"note":38,"velocity":96,"hitTime":22448,"closestNoteTime":22080,"hitSuccessfully":false},{"note":46,"velocity":106,"hitTime":22448,"closestNoteTime":22560,"hitSuccessfully":true},{"note":46,"velocity":85,"hitTime":23040,"closestNoteTime":23040,"hitSuccessfully":true},{"note":46,"velocity":89,"hitTime":23520,"closestNoteTime":23520,"hitSuccessfully":true},{"note":46,"velocity":85,"hitTime":24096,"closestNoteTime":24000,"hitSuccessfully":true},{"note":46,"velocity":104,"hitTime":24752,"closestNoteTime":24480,"hitSuccessfully":true},{"note":38,"velocity":94,"hitTime":24752,"closestNoteTime":24000,"hitSuccessfully":false},{"note":46,"velocity":87,"hitTime":25344,"closestNoteTime":25440,"hitSuccessfully":true},{"note":46,"velocity":58,"hitTime":25424,"closestNoteTime":24960,"hitSuccessfully":false},{"note":46,"velocity":85,"hitTime":25824,"closestNoteTime":25920,"hitSuccessfully":true},{"note":46,"velocity":88,"hitTime":26448,"closestNoteTime":26400,"hitSuccessfully":true},{"note":46,"velocity":103,"hitTime":27120,"closestNoteTime":26880,"hitSuccessfully":true},{"note":38,"velocity":89,"hitTime":27120,"closestNoteTime":27840,"hitSuccessfully":false},{"note":46,"velocity":70,"hitTime":27728,"closestNoteTime":27840,"hitSuccessfully":true},{"note":46,"velocity":86,"hitTime":28240,"closestNoteTime":28320,"hitSuccessfully":true},{"note":46,"velocity":87,"hitTime":28752,"closestNoteTime":28800,"hitSuccessfully":true},{"note":46,"velocity":102,"hitTime":29360,"closestNoteTime":29280,"hitSuccessfully":true},{"note":38,"velocity":86,"hitTime":29360,"closestNoteTime":29760,"hitSuccessfully":false},{"note":46,"velocity":79,"hitTime":29920,"closestNoteTime":29760,"hitSuccessfully":true},{"note":46,"velocity":87,"hitTime":30400,"closestNoteTime":30240,"hitSuccessfully":true}]}