{"frames":[{"note":36,"velocity":42,"hitTime":40,"closestNoteTime":0,"hitSuccessfully":true},{"note":46,"velocity":65,"hitTime":80,"closestNoteTime":0,"hitSuccessfully":true},{"note":46,"velocity":75,"hitTime":536,"closestNoteTime":480,"hitSuccessfully":true},{"note":46,"velocity":77,"hitTime":1016,"closestNoteTime":960,"hitSuccessfully":true},{"note":46,"velocity":77,"hitTime":1472,"closestNoteTime":1440,"hitSuccessfully":true},{"note":36,"velocity":59,"hitTime":1936,"closestNoteTime":1920,"hitSuccessfully":true},{"note":46,"velocity":90,"hitTime":1952,"closestNoteTime":1920,"hitSuccessfully":true},{"note":46,"velocity":77,"hitTime":2408,"closestNoteTime":2400,"hitSuccessfully":true},{"note":46,"velocity":79,"hitTime":2888,"closestNoteTime":2880,"hitSuccessfully":true},{"note":46,"velocity":82,"hitTime":3360,"closestNoteTime":3360,"hitSuccessfully":true},{"note":36,"velocity":40,"hitTime":3816,"closestNoteTime":3840,"hitSuccessfully":true},{"note":46,"velocity":77,"hitTime":4280,"closestNoteTime":4320,"hitSuccessfully":true},{"note":46,"velocity":82,"hitTime":4768,"closestNoteTime":4800,"hitSuccessfully":true},{"note":46,"velocity":79,"hitTime":5248,"closestNoteTime":5280,"hitSuccessfully":true},{"note":46,"velocity":90,"hitTime":5768,"closestNoteTime":5760,"hitSuccessfully":true},{"note":36,"velocity":47,"hitTime":5784,"closestNoteTime":5760,"hitSuccessfully":true},{"note":46,"velocity":79,"hitTime":6248,"closestNoteTime":6240,"hitSuccessfully":true},{"note":46,"velocity":84,"hitTime":6704,"closestNoteTime":6720,"hitSuccessfully":true},{"note":46,"velocity":82,"hitTime":7184,"closestNoteTime":7200,"hitSuccessfully":true},{"note":36,"velocity":48,"hitTime":7672,"closestNoteTime":7680,"hitSuccessfully":true},{"note":46,"velocity":91,"hitTime":7672,"closestNoteTime":7680,"hitSuccessfully":true},{"note":46,"velocity":79,"hitTime":8136,"closestNoteTime":8160,"hitSuccessfully":true},{"note":46,"velocity":83,"hitTime":8616,"closestNoteTime":8640,"hitSuccessfully":true},{"note":46,"velocity":82,"hitTime":9104,"closestNoteTime":9120,"hitSuccessfully":true},{"note":46,"velocity":91,"hitTime":9568,"closestNoteTime":9600,"hitSuccessfully":true},{"note":36,"velocity":27,"hitTime":9600,"closestNoteTime":9600,"hitSuccessfully":true},{"note":46,"velocity":77,"hitTime":10056,"closestNoteTime":10080,"hitSuccessfully":true},{"note":46,"velocity":79,"hitTime":10512,"closestNoteTime":10560,"hitSuccessfully":true},{"note":46,"velocity":79,"hitTime":11000,"closestNoteTime":11040,"hitSuccessfully":true},{"note":46,"velocity":91,"hitTime":11488,"closestNoteTime":11520,"hitSuccessfully":true},{"note":36,"velocity":42,"hitTime":11488,"closestNoteTime":11520,"hitSuccessfully":true},{"note":46,"velocity":82,"hitTime":11952,"closestNoteTime":12000,"hitSuccessfully":true},{"note":46,"velocity":88,"hitTime":12424,"closestNoteTime":12480,"hitSuccessfully":true},{"note":46,"velocity":80,"hitTime":12888,"closestNoteTime":12960,"hitSuccessfully":true},{"note":36,"velocity":44,"hitTime":13400,"closestNoteTime":13440,"hitSuccessfully":true},{"note":46,"velocity":99,"hitTime":13400,"closestNoteTime":13440,"hitSuccessfully":true},{"note":46,"velocity":84,"hitTime":13880,"closestNoteTime":13920,"hitSuccessfully":true},{"note":46,"velocity":86,"hitTime":14840,"closestNoteTime":14880,"hitSuccessfully":true}]}