{"frames":[{"note":46,"velocity":87,"hitTime":64,"closestNoteTime":0,"hitSuccessfully":true},{"note":46,"velocity":88,"hitTime":560,"closestNoteTime":480,"hitSuccessfully":true},{"note":46,"velocity":88,"hitTime":1040,"closestNoteTime":960,"hitSuccessfully":true},{"note":46,"velocity":88,"hitTime":1520,"closestNoteTime":1440,"hitSuccessfully":true},{"note":46,"velocity":88,"hitTime":1992,"closestNoteTime":1920,"hitSuccessfully":true},{"note":46,"velocity":85,"hitTime":2472,"closestNoteTime":2400,"hitSuccessfully":true},{"note":46,"velocity":88,"hitTime":2952,"closestNoteTime":2880,"hitSuccessfully":true},{"note":46,"velocity":88,"hitTime":3448,"closestNoteTime":3360,"hitSuccessfully":true},{"note":46,"velocity":89,"hitTime":3944,"closestNoteTime":3840,"hitSuccessfully":true},{"note":46,"velocity":88,"hitTime":4400,"closestNoteTime":4320,"hitSuccessfully":true},{"note":46,"velocity":86,"hitTime":4880,"closestNoteTime":4800,"hitSuccessfully":true},{"note":46,"velocity":89,"hitTime":5376,"closestNoteTime":5280,"hitSuccessfully":true},{"note":46,"velocity":90,"hitTime":5848,"closestNoteTime":5760,"hitSuccessfully":true},{"note":46,"velocity":88,"hitTime":6312,"closestNoteTime":6240,"hitSuccessfully":true},{"note":46,"velocity":90,"hitTime":6784,"closestNoteTime":6720,"hitSuccessfully":true},{"note":46,"velocity":89,"hitTime":7264,"closestNoteTime":7200,"hitSuccessfully":true},{"note":46,"velocity":91,"hitTime":7760,"closestNoteTime":7680,"hitSuccessfully":true},{"note":46,"velocity":89,"hitTime":8216,"closestNoteTime":8160,"hitSuccessfully":true},{"note":46,"velocity":91,"hitTime":8696,"closestNoteTime":8640,"hitSuccessfully":true},{"note":46,"velocity":88,"hitTime":9176,"closestNoteTime":9120,"hitSuccessfully":true},{"note":46,"velocity":88,"hitTime":9656,"closestNoteTime":9600,"hitSuccessfully":true},{"note":46,"velocity":90,"hitTime":10152,"closestNoteTime":10080,"hitSuccessfully":true},{"note":46,"velocity":85,"hitTime":10624,"closestNoteTime":10560,"hitSuccessfully":true},{"note":46,"velocity":91,"hitTime":11104,"closestNoteTime":11040,"hitSuccessfully":true},{"note":46,"velocity":89,"hitTime":11576,"closestNoteTime":11520,"hitSuccessfully":true},{"note":46,"velocity":88,"hitTime":12056,"closestNoteTime":12000,"hitSuccessfully":true},{"note":46,"velocity":89,"hitTime":12536,"closestNoteTime":12480,"hitSuccessfully":true},{"note":46,"velocity":85,"hitTime":13016,"closestNoteTime":12960,"hitSuccessfully":true},{"note":46,"velocity":88,"hitTime":13488,"closestNoteTime":13440,"hitSuccessfully":true},{"note":46,"velocity":89,"hitTime":13984,"closestNoteTime":13920,"hitSuccessfully":true},{"note":46,"velocity":91,"hitTime":14456,"closestNoteTime":14400,"hitSuccessfully":true},{"note":46,"velocity":88,"hitTime":14936,"closestNoteTime":14880,"hitSuccessfully":true}]}