{"frames":[{"note":46,"velocity":73,"hitTime":8,"closestNoteTime":0,"hitSuccessfully":true},{"note":46,"velocity":79,"hitTime":496,"closestNoteTime":480,"hitSuccessfully":true},{"note":38,"velocity":72,"hitTime":976,"closestNoteTime":960,"hitSuccessfully":true},{"note":46,"velocity":67,"hitTime":1152,"closestNoteTime":960,"hitSuccessfully":false},{"note":46,"velocity":79,"hitTime":1512,"closestNoteTime":1440,"hitSuccessfully":true},{"note":46,"velocity":73,"hitTime":1936,"closestNoteTime":1920,"hitSuccessfully":true},{"note":46,"velocity":85,"hitTime":2448,"closestNoteTime":2400,"hitSuccessfully":true},{"note":38,"velocity":78,"hitTime":2632,"closestNoteTime":2880,"hitSuccessfully":false},{"note":46,"velocity":77,"hitTime":3080,"closestNoteTime":2880,"hitSuccessfully":false},{"note":46,"velocity":75,"hitTime":3520,"closestNoteTime":3360,"hitSuccessfully":false},{"note":46,"velocity":70,"hitTime":3984,"closestNoteTime":3840,"hitSuccessfully":true},{"note":46,"velocity":74,"hitTime":4792,"closestNoteTime":4800,"hitSuccessfully":true},{"note":46,"velocity":74,"hitTime":5248,"closestNoteTime":5280,"hitSuccessfully":true},{"note":46,"velocity":74,"hitTime":5752,"closestNoteTime":5760,"hitSuccessfully":true},{"note":46,"velocity":76,"hitTime":6248,"closestNoteTime":6240,"hitSuccessfully":true},{"note":38,"velocity":61,"hitTime":6704,"closestNoteTime":6720,"hitSuccessfully":true},{"note":46,"velocity":72,"hitTime":6960,"closestNoteTime":6720,"hitSuccessfully":false},{"note":46,"velocity":73,"hitTime":7376,"closestNoteTime":7200,"hitSuccessfully":false},{"note":46,"velocity":74,"hitTime":7856,"closestNoteTime":7680,"hitSuccessfully":false},{"note":46,"velocity":77,"hitTime":8272,"closestNoteTime":8160,"hitSuccessfully":true},{"note":38,"velocity":72,"hitTime":8632,"closestNoteTime":8640,"hitSuccessfully":true},{"note":38,"velocity":28,"hitTime":8712,"closestNoteTime":10560,"hitSuccessfully":false},{"note":46,"velocity":77,"hitTime":9008,"closestNoteTime":9120,"hitSuccessfully":true},{"note":46,"velocity":74,"hitTime":9432,"closestNoteTime":9600,"hitSuccessfully":false},{"note":46,"velocity":70,"hitTime":9920,"closestNoteTime":10080,"hitSuccessfully":false},{"note":46,"velocity":73,"hitTime":10360,"closestNoteTime":10560,"hitSuccessfully":false},{"note":38,"velocity":74,"hitTime":10816,"closestNoteTime":10560,"hitSuccessfully":false},{"note":46,"velocity":64,"hitTime":11104,"closestNoteTime":11040,"hitSuccessfully":true},{"note":46,"velocity":65,"hitTime":11616,"closestNoteTime":11520,"hitSuccessfully":true},{"note":46,"velocity":72,"hitTime":12096,"closestNoteTime":12000,"hitSuccessfully":true},{"note":46,"velocity":70,"hitTime":12552,"closestNoteTime":12480,"hitSuccessfully":true},{"note":38,"velocity":72,"hitTime":12768,"closestNoteTime":12480,"hitSuccessfully":false},{"note":46,"velocity":70,"hitTime":13128,"closestNoteTime":12960,"hitSuccessfully":false},{"note":46,"velocity":74,"hitTime":13624,"closestNoteTime":13440,"hitSuccessfully":false},{"note":46,"velocity":66,"hitTime":14080,"closestNoteTime":13920,"hitSuccessfully":false},{"note":46,"velocity":60,"hitTime":14552,"closestNoteTime":14400,"hitSuccessfully":false},{"note":38,"velocity":66,"hitTime":14720,"closestNoteTime":14400,"hitSuccessfully":false},{"note":46,"velocity":65,"hitTime":15032,"closestNoteTime":14880,"hitSuccessfully":false}]}