{"frames":[{"note":36,"velocity":42,"hitTime":48,"closestNoteTime":0,"hitSuccessfully":true},{"note":46,"velocity":105,"hitTime":80,"closestNoteTime":0,"hitSuccessfully":true},{"note":46,"velocity":91,"hitTime":592,"closestNoteTime":480,"hitSuccessfully":true},{"note":38,"velocity":94,"hitTime":1072,"closestNoteTime":960,"hitSuccessfully":true},{"note":46,"velocity":107,"hitTime":1104,"closestNoteTime":960,"hitSuccessfully":true},{"note":46,"velocity":89,"hitTime":1584,"closestNoteTime":1440,"hitSuccessfully":true},{"note":36,"velocity":64,"hitTime":2064,"closestNoteTime":1920,"hitSuccessfully":true},{"note":46,"velocity":104,"hitTime":2080,"closestNoteTime":1920,"hitSuccessfully":true},{"note":46,"velocity":91,"hitTime":2544,"closestNoteTime":2400,"hitSuccessfully":true},{"note":38,"velocity":84,"hitTime":3024,"closestNoteTime":2880,"hitSuccessfully":true},{"note":46,"velocity":95,"hitTime":3056,"closestNoteTime":2880,"hitSuccessfully":true},{"note":38,"velocity":61,"hitTime":3072,"closestNoteTime":4800,"hitSuccessfully":false},{"note":46,"velocity":85,"hitTime":3504,"closestNoteTime":3360,"hitSuccessfully":true},{"note":46,"velocity":97,"hitTime":4016,"closestNoteTime":3840,"hitSuccessfully":true},{"note":36,"velocity":54,"hitTime":4016,"closestNoteTime":3840,"hitSuccessfully":true},{"note":46,"velocity":91,"hitTime":4496,"closestNoteTime":4320,"hitSuccessfully":true},{"note":38,"velocity":88,"hitTime":4944,"closestNoteTime":4800,"hitSuccessfully":true},{"note":46,"velocity":97,"hitTime":4976,"closestNoteTime":4800,"hitSuccessfully":true},{"note":46,"velocity":87,"hitTime":5440,"closestNoteTime":5280,"hitSuccessfully":true},{"note":36,"velocity":55,"hitTime":5920,"closestNoteTime":5760,"hitSuccessfully":true},{"note":46,"velocity":101,"hitTime":5936,"closestNoteTime":5760,"hitSuccessfully":true},{"note":46,"velocity":90,"hitTime":6400,"closestNoteTime":6240,"hitSuccessfully":true},{"note":46,"velocity":94,"hitTime":6880,"closestNoteTime":6720,"hitSuccessfully":true},{"note":38,"velocity":84,"hitTime":6912,"closestNoteTime":6720,"hitSuccessfully":true},{"note":38,"velocity":56,"hitTime":6960,"closestNoteTime":8640,"hitSuccessfully":false},{"note":46,"velocity":85,"hitTime":7392,"closestNoteTime":7200,"hitSuccessfully":true},{"note":36,"velocity":56,"hitTime":7872,"closestNoteTime":7680,"hitSuccessfully":true},{"note":46,"velocity":100,"hitTime":7920,"closestNoteTime":7680,"hitSuccessfully":true},{"note":46,"velocity":86,"hitTime":8400,"closestNoteTime":8160,"hitSuccessfully":true},{"note":38,"velocity":91,"hitTime":8880,"closestNoteTime":8640,"hitSuccessfully":true},{"note":46,"velocity":98,"hitTime":8880,"closestNoteTime":8640,"hitSuccessfully":true},{"note":46,"velocity":86,"hitTime":9360,"closestNoteTime":9120,"hitSuccessfully":true},{"note":36,"velocity":51,"hitTime":9792,"closestNoteTime":9600,"hitSuccessfully":true},{"note":46,"velocity":101,"hitTime":9856,"closestNoteTime":9600,"hitSuccessfully":true},{"note":46,"velocity":87,"hitTime":10304,"closestNoteTime":10080,"hitSuccessfully":true},{"note":38,"velocity":86,"hitTime":10816,"closestNoteTime":10560,"hitSuccessfully":true},{"note":46,"velocity":99,"hitTime":10816,"closestNoteTime":10560,"hitSuccessfully":true},{"note":38,"velocity":57,"hitTime":10864,"closestNoteTime":12480,"hitSuccessfully":false},{"note":46,"velocity":77,"hitTime":11248,"closestNoteTime":11040,"hitSuccessfully":true},{"note":46,"velocity":98,"hitTime":11744,"closestNoteTime":11520,"hitSuccessfully":true},{"note":36,"velocity":47,"hitTime":11776,"closestNoteTime":11520,"hitSuccessfully":true},{"note":46,"velocity":77,"hitTime":12256,"closestNoteTime":12000,"hitSuccessfully":true},{"note":46,"velocity":98,"hitTime":12768,"closestNoteTime":12480,"hitSuccessfully":true},{"note":38,"velocity":83,"hitTime":12800,"closestNoteTime":12480,"hitSuccessfully":false},{"note":46,"velocity":82,"hitTime":13248,"closestNoteTime":12960,"hitSuccessfully":true},{"note":36,"velocity":43,"hitTime":13728,"closestNoteTime":13440,"hitSuccessfully":true},{"note":46,"velocity":96,"hitTime":13760,"closestNoteTime":13920,"hitSuccessfully":true},{"note":46,"velocity":82,"hitTime":14272,"closestNoteTime":14400,"hitSuccessfully":true},{"note":46,"velocity":94,"hitTime":14752,"closestNoteTime":14880,"hitSuccessfully":true},{"note":38,"velocity":85,"hitTime":14800,"closestNoteTime":14400,"hitSuccessfully":false},{"note":46,"velocity":83,"hitTime":15280,"closestNoteTime":15360,"hitSuccessfully":true},{"note":36,"velocity":43,"hitTime":15824,"closestNoteTime":15360,"hitSuccessfully":false},{"note":46,"velocity":87,"hitTime":16272,"closestNoteTime":16320,"hitSuccessfully":true},{"note":38,"velocity":82,"hitTime":16816,"closestNoteTime":16320,"hitSuccessfully":false},{"note":46,"velocity":97,"hitTime":16832,"closestNoteTime":16800,"hitSuccessfully":true},{"note":38,"velocity":56,"hitTime":16864,"closestNoteTime":16320,"hitSuccessfully":false},{"note":46,"velocity":80,"hitTime":17376,"closestNoteTime":17280,"hitSuccessfully":true},{"note":36,"velocity":34,"hitTime":17824,"closestNoteTime":17280,"hitSuccessfully":false},{"note":46,"velocity":98,"hitTime":17888,"closestNoteTime":17760,"hitSuccessfully":true},{"note":46,"velocity":91,"hitTime":18336,"closestNoteTime":18240,"hitSuccessfully":true},{"note":38,"velocity":82,"hitTime":18800,"closestNoteTime":18240,"hitSuccessfully":false},{"note":46,"velocity":94,"hitTime":18848,"closestNoteTime":18720,"hitSuccessfully":true},{"note":46,"velocity":79,"hitTime":19360,"closestNoteTime":19200,"hitSuccessfully":true},{"note":46,"velocity":93,"hitTime":19856,"closestNoteTime":19680,"hitSuccessfully":true},{"note":36,"velocity":32,"hitTime":19888,"closestNoteTime":19200,"hitSuccessfully":false},{"note":38,"velocity":73,"hitTime":20352,"closestNoteTime":20160,"hitSuccessfully":true},{"note":46,"velocity":85,"hitTime":20352,"closestNoteTime":20160,"hitSuccessfully":true}]}