{"frames":[{"note":46,"velocity":36,"hitTime":-440,"closestNoteTime":0,"hitSuccessfully":false},{"note":36,"velocity":48,"hitTime":48,"closestNoteTime":0,"hitSuccessfully":true},{"note":46,"velocity":79,"hitTime":56,"closestNoteTime":0,"hitSuccessfully":true},{"note":46,"velocity":72,"hitTime":568,"closestNoteTime":480,"hitSuccessfully":true},{"note":46,"velocity":82,"hitTime":1048,"closestNoteTime":960,"hitSuccessfully":true},{"note":46,"velocity":94,"hitTime":1544,"closestNoteTime":1440,"hitSuccessfully":true},{"note":36,"velocity":44,"hitTime":1968,"closestNoteTime":1920,"hitSuccessfully":true},{"note":46,"velocity":88,"hitTime":2024,"closestNoteTime":1920,"hitSuccessfully":true},{"note":46,"velocity":83,"hitTime":2496,"closestNoteTime":2400,"hitSuccessfully":true},{"note":46,"velocity":86,"hitTime":2960,"closestNoteTime":2880,"hitSuccessfully":true},{"note":46,"velocity":77,"hitTime":3432,"closestNoteTime":3360,"hitSuccessfully":true},{"note":36,"velocity":42,"hitTime":3904,"closestNoteTime":3840,"hitSuccessfully":true},{"note":46,"velocity":91,"hitTime":3912,"closestNoteTime":3840,"hitSuccessfully":true},{"note":46,"velocity":85,"hitTime":4384,"closestNoteTime":4320,"hitSuccessfully":true},{"note":46,"velocity":94,"hitTime":4864,"closestNoteTime":4800,"hitSuccessfully":true},{"note":46,"velocity":91,"hitTime":5344,"closestNoteTime":5280,"hitSuccessfully":true},{"note":36,"velocity":71,"hitTime":5800,"closestNoteTime":5760,"hitSuccessfully":true},{"note":46,"velocity":80,"hitTime":5816,"closestNoteTime":5760,"hitSuccessfully":true},{"note":46,"velocity":85,"hitTime":6280,"closestNoteTime":6240,"hitSuccessfully":true},{"note":46,"velocity":91,"hitTime":6792,"closestNoteTime":6720,"hitSuccessfully":true},{"note":46,"velocity":88,"hitTime":7264,"closestNoteTime":7200,"hitSuccessfully":true},{"note":36,"velocity":61,"hitTime":7728,"closestNoteTime":7680,"hitSuccessfully":true},{"note":46,"velocity":94,"hitTime":7744,"closestNoteTime":7680,"hitSuccessfully":true},{"note":46,"velocity":95,"hitTime":8224,"closestNoteTime":8160,"hitSuccessfully":true},{"note":46,"velocity":91,"hitTime":8704,"closestNoteTime":8640,"hitSuccessfully":true},{"note":46,"velocity":99,"hitTime":9200,"closestNoteTime":9120,"hitSuccessfully":true},{"note":46,"velocity":94,"hitTime":9680,"closestNoteTime":9600,"hitSuccessfully":true},{"note":36,"velocity":64,"hitTime":9680,"closestNoteTime":9600,"hitSuccessfully":true},{"note":46,"velocity":89,"hitTime":10168,"closestNoteTime":10080,"hitSuccessfully":true},{"note":46,"velocity":98,"hitTime":10648,"closestNoteTime":10560,"hitSuccessfully":true},{"note":46,"velocity":97,"hitTime":11128,"closestNoteTime":11040,"hitSuccessfully":true},{"note":36,"velocity":70,"hitTime":11608,"closestNoteTime":11520,"hitSuccessfully":true},{"note":46,"velocity":100,"hitTime":11608,"closestNoteTime":11520,"hitSuccessfully":true},{"note":46,"velocity":94,"hitTime":12064,"closestNoteTime":12000,"hitSuccessfully":true},{"note":46,"velocity":93,"hitTime":12552,"closestNoteTime":12480,"hitSuccessfully":true},{"note":46,"velocity":95,"hitTime":13032,"closestNoteTime":12960,"hitSuccessfully":true},{"note":36,"velocity":61,"hitTime":13488,"closestNoteTime":13440,"hitSuccessfully":true},{"note":46,"velocity":93,"hitTime":13488,"closestNoteTime":13440,"hitSuccessfully":true},{"note":46,"velocity":93,"hitTime":13952,"closestNoteTime":13920,"hitSuccessfully":true},{"note":46,"velocity":91,"hitTime":14432,"closestNoteTime":14400,"hitSuccessfully":true},{"note":46,"velocity":94,"hitTime":14928,"closestNoteTime":14880,"hitSuccessfully":true}]}