{"frames":[{"note":46,"velocity":58,"hitTime":-24,"closestNoteTime":0,"hitSuccessfully":true},{"note":46,"velocity":66,"hitTime":544,"closestNoteTime":480,"hitSuccessfully":true},{"note":46,"velocity":72,"hitTime":960,"closestNoteTime":960,"hitSuccessfully":true},{"note":36,"velocity":42,"hitTime":1240,"closestNoteTime":1920,"hitSuccessfully":false},{"note":46,"velocity":67,"hitTime":1408,"closestNoteTime":1440,"hitSuccessfully":true},{"note":46,"velocity":66,"hitTime":1736,"closestNoteTime":1920,"hitSuccessfully":false},{"note":46,"velocity":60,"hitTime":2216,"closestNoteTime":2400,"hitSuccessfully":false},{"note":46,"velocity":75,"hitTime":2712,"closestNoteTime":2880,"hitSuccessfully":false},{"note":36,"velocity":55,"hitTime":3096,"closestNoteTime":3840,"hitSuccessfully":false},{"note":46,"velocity":65,"hitTime":3472,"closestNoteTime":3360,"hitSuccessfully":true},{"note":46,"velocity":70,"hitTime":3904,"closestNoteTime":3840,"hitSuccessfully":true},{"note":46,"velocity":66,"hitTime":4368,"closestNoteTime":4320,"hitSuccessfully":true},{"note":46,"velocity":73,"hitTime":5224,"closestNoteTime":5280,"hitSuccessfully":true},{"note":36,"velocity":39,"hitTime":5424,"closestNoteTime":5760,"hitSuccessfully":false},{"note":46,"velocity":70,"hitTime":5664,"closestNoteTime":5760,"hitSuccessfully":true},{"note":46,"velocity":62,"hitTime":6136,"closestNoteTime":6240,"hitSuccessfully":true},{"note":46,"velocity":77,"hitTime":6688,"closestNoteTime":6720,"hitSuccessfully":true},{"note":36,"velocity":47,"hitTime":7072,"closestNoteTime":7680,"hitSuccessfully":false},{"note":46,"velocity":62,"hitTime":7424,"closestNoteTime":7200,"hitSuccessfully":false},{"note":46,"velocity":65,"hitTime":7848,"closestNoteTime":7680,"hitSuccessfully":false},{"note":46,"velocity":66,"hitTime":8288,"closestNoteTime":8160,"hitSuccessfully":true},{"note":36,"velocity":55,"hitTime":8808,"closestNoteTime":9600,"hitSuccessfully":false},{"note":46,"velocity":58,"hitTime":8896,"closestNoteTime":9120,"hitSuccessfully":false},{"note":36,"velocity":25,"hitTime":8896,"closestNoteTime":9600,"hitSuccessfully":false},{"note":46,"velocity":73,"hitTime":9264,"closestNoteTime":9120,"hitSuccessfully":true},{"note":46,"velocity":60,"hitTime":9696,"closestNoteTime":9600,"hitSuccessfully":true},{"note":46,"velocity":70,"hitTime":10136,"closestNoteTime":10080,"hitSuccessfully":true},{"note":36,"velocity":48,"hitTime":10808,"closestNoteTime":11520,"hitSuccessfully":false},{"note":46,"velocity":55,"hitTime":10992,"closestNoteTime":11040,"hitSuccessfully":true},{"note":46,"velocity":65,"hitTime":11408,"closestNoteTime":11520,"hitSuccessfully":true},{"note":46,"velocity":70,"hitTime":11904,"closestNoteTime":12000,"hitSuccessfully":true},{"note":46,"velocity":70,"hitTime":12416,"closestNoteTime":12480,"hitSuccessfully":true},{"note":46,"velocity":64,"hitTime":12952,"closestNoteTime":12960,"hitSuccessfully":true},{"note":46,"velocity":58,"hitTime":13432,"closestNoteTime":13440,"hitSuccessfully":true},{"note":46,"velocity":75,"hitTime":13904,"closestNoteTime":13920,"hitSuccessfully":true},{"note":36,"velocity":32,"hitTime":14032,"closestNoteTime":13440,"hitSuccessfully":false},{"note":46,"velocity":58,"hitTime":14680,"closestNoteTime":14880,"hitSuccessfully":false},{"note":46,"velocity":66,"hitTime":15080,"closestNoteTime":14880,"hitSuccessfully":false}]}