{"frames":[{"note":36,"velocity":80,"hitTime":-392,"closestNoteTime":0,"hitSuccessfully":false},{"note":46,"velocity":97,"hitTime":168,"closestNoteTime":0,"hitSuccessfully":false},{"note":46,"velocity":97,"hitTime":736,"closestNoteTime":960,"hitSuccessfully":false},{"note":46,"velocity":89,"hitTime":1240,"closestNoteTime":1440,"hitSuccessfully":false},{"note":46,"velocity":97,"hitTime":1976,"closestNoteTime":1920,"hitSuccessfully":true},{"note":46,"velocity":100,"hitTime":2528,"closestNoteTime":2400,"hitSuccessfully":true},{"note":36,"velocity":43,"hitTime":2536,"closestNoteTime":1920,"hitSuccessfully":false},{"note":46,"velocity":93,"hitTime":3088,"closestNoteTime":2880,"hitSuccessfully":false},{"note":46,"velocity":104,"hitTime":4080,"closestNoteTime":3840,"hitSuccessfully":false},{"note":46,"velocity":73,"hitTime":4616,"closestNoteTime":4800,"hitSuccessfully":false},{"note":46,"velocity":80,"hitTime":5416,"closestNoteTime":5280,"hitSuccessfully":true},{"note":46,"velocity":76,"hitTime":5456,"closestNoteTime":5760,"hitSuccessfully":false},{"note":46,"velocity":72,"hitTime":5952,"closestNoteTime":5760,"hitSuccessfully":false},{"note":46,"velocity":104,"hitTime":6432,"closestNoteTime":6240,"hitSuccessfully":false},{"note":36,"velocity":54,"hitTime":6448,"closestNoteTime":5760,"hitSuccessfully":false},{"note":46,"velocity":100,"hitTime":7000,"closestNoteTime":7200,"hitSuccessfully":false},{"note":36,"velocity":61,"hitTime":7528,"closestNoteTime":7680,"hitSuccessfully":false},{"note":46,"velocity":96,"hitTime":7568,"closestNoteTime":7680,"hitSuccessfully":true},{"note":36,"velocity":47,"hitTime":8312,"closestNoteTime":7680,"hitSuccessfully":false},{"note":46,"velocity":73,"hitTime":8320,"closestNoteTime":8160,"hitSuccessfully":false},{"note":46,"velocity":102,"hitTime":8832,"closestNoteTime":8640,"hitSuccessfully":false},{"note":36,"velocity":40,"hitTime":8848,"closestNoteTime":9600,"hitSuccessfully":false},{"note":36,"velocity":50,"hitTime":9288,"closestNoteTime":9600,"hitSuccessfully":false},{"note":46,"velocity":104,"hitTime":9336,"closestNoteTime":9120,"hitSuccessfully":false},{"note":36,"velocity":44,"hitTime":9752,"closestNoteTime":9600,"hitSuccessfully":false},{"note":46,"velocity":106,"hitTime":9824,"closestNoteTime":9600,"hitSuccessfully":false},{"note":36,"velocity":50,"hitTime":10280,"closestNoteTime":9600,"hitSuccessfully":false},{"note":46,"velocity":106,"hitTime":10328,"closestNoteTime":10560,"hitSuccessfully":false},{"note":36,"velocity":36,"hitTime":10816,"closestNoteTime":11520,"hitSuccessfully":false},{"note":46,"velocity":94,"hitTime":10840,"closestNoteTime":11040,"hitSuccessfully":false},{"note":36,"velocity":71,"hitTime":11224,"closestNoteTime":11520,"hitSuccessfully":false},{"note":46,"velocity":100,"hitTime":11872,"closestNoteTime":12000,"hitSuccessfully":true},{"note":46,"velocity":104,"hitTime":12552,"closestNoteTime":12480,"hitSuccessfully":true},{"note":36,"velocity":25,"hitTime":12568,"closestNoteTime":13440,"hitSuccessfully":false},{"note":36,"velocity":39,"hitTime":13072,"closestNoteTime":13440,"hitSuccessfully":false},{"note":46,"velocity":88,"hitTime":13144,"closestNoteTime":12960,"hitSuccessfully":false},{"note":46,"velocity":90,"hitTime":13688,"closestNoteTime":13920,"hitSuccessfully":false},{"note":46,"velocity":87,"hitTime":14280,"closestNoteTime":14400,"hitSuccessfully":true},{"note":46,"velocity":94,"hitTime":15072,"closestNoteTime":14880,"hitSuccessfully":false}]}