{"frames":[{"note":46,"velocity":104,"hitTime":144,"closestNoteTime":0,"hitSuccessfully":true},{"note":36,"velocity":80,"hitTime":224,"closestNoteTime":0,"hitSuccessfully":true},{"note":46,"velocity":98,"hitTime":656,"closestNoteTime":480,"hitSuccessfully":true},{"note":46,"velocity":114,"hitTime":1168,"closestNoteTime":960,"hitSuccessfully":true},{"note":38,"velocity":115,"hitTime":1200,"closestNoteTime":960,"hitSuccessfully":true},{"note":46,"velocity":110,"hitTime":2096,"closestNoteTime":1920,"hitSuccessfully":true},{"note":46,"velocity":88,"hitTime":2480,"closestNoteTime":2400,"hitSuccessfully":true},{"note":36,"velocity":87,"hitTime":2960,"closestNoteTime":3840,"hitSuccessfully":false},{"note":46,"velocity":110,"hitTime":2992,"closestNoteTime":2880,"hitSuccessfully":true},{"note":38,"velocity":105,"hitTime":2992,"closestNoteTime":2880,"hitSuccessfully":true},{"note":38,"velocity":78,"hitTime":3408,"closestNoteTime":4800,"hitSuccessfully":false},{"note":46,"velocity":114,"hitTime":3952,"closestNoteTime":3840,"hitSuccessfully":true},{"note":46,"velocity":80,"hitTime":4368,"closestNoteTime":4320,"hitSuccessfully":true},{"note":46,"velocity":104,"hitTime":4880,"closestNoteTime":4800,"hitSuccessfully":true},{"note":38,"velocity":107,"hitTime":4880,"closestNoteTime":4800,"hitSuccessfully":true},{"note":36,"velocity":95,"hitTime":4960,"closestNoteTime":5760,"hitSuccessfully":false},{"note":38,"velocity":32,"hitTime":5360,"closestNoteTime":6720,"hitSuccessfully":false},{"note":46,"velocity":93,"hitTime":5840,"closestNoteTime":5760,"hitSuccessfully":true},{"note":46,"velocity":77,"hitTime":6256,"closestNoteTime":6240,"hitSuccessfully":true},{"note":46,"velocity":99,"hitTime":6784,"closestNoteTime":6720,"hitSuccessfully":true},{"note":36,"velocity":88,"hitTime":6832,"closestNoteTime":7680,"hitSuccessfully":false},{"note":38,"velocity":62,"hitTime":7248,"closestNoteTime":6720,"hitSuccessfully":false},{"note":46,"velocity":94,"hitTime":7744,"closestNoteTime":7680,"hitSuccessfully":true},{"note":46,"velocity":77,"hitTime":7808,"closestNoteTime":8160,"hitSuccessfully":false},{"note":46,"velocity":85,"hitTime":8144,"closestNoteTime":8160,"hitSuccessfully":true},{"note":46,"velocity":98,"hitTime":8720,"closestNoteTime":8640,"hitSuccessfully":true},{"note":38,"velocity":87,"hitTime":8720,"closestNoteTime":8640,"hitSuccessfully":true},{"note":36,"velocity":83,"hitTime":8736,"closestNoteTime":9600,"hitSuccessfully":false},{"note":46,"velocity":83,"hitTime":9200,"closestNoteTime":9120,"hitSuccessfully":true},{"note":46,"velocity":85,"hitTime":9600,"closestNoteTime":9600,"hitSuccessfully":true},{"note":46,"velocity":80,"hitTime":10080,"closestNoteTime":10080,"hitSuccessfully":true},{"note":46,"velocity":98,"hitTime":10608,"closestNoteTime":10560,"hitSuccessfully":true},{"note":36,"velocity":74,"hitTime":10720,"closestNoteTime":11520,"hitSuccessfully":false},{"note":38,"velocity":57,"hitTime":11120,"closestNoteTime":10560,"hitSuccessfully":false},{"note":46,"velocity":101,"hitTime":11584,"closestNoteTime":11520,"hitSuccessfully":true},{"note":46,"velocity":79,"hitTime":11664,"closestNoteTime":12000,"hitSuccessfully":false},{"note":46,"velocity":75,"hitTime":12032,"closestNoteTime":12000,"hitSuccessfully":true},{"note":46,"velocity":102,"hitTime":12512,"closestNoteTime":12480,"hitSuccessfully":true},{"note":36,"velocity":74,"hitTime":12592,"closestNoteTime":13440,"hitSuccessfully":false},{"note":38,"velocity":52,"hitTime":12976,"closestNoteTime":12480,"hitSuccessfully":false},{"note":46,"velocity":64,"hitTime":13376,"closestNoteTime":13440,"hitSuccessfully":true},{"note":46,"velocity":77,"hitTime":13824,"closestNoteTime":13920,"hitSuccessfully":true},{"note":46,"velocity":86,"hitTime":14384,"closestNoteTime":14400,"hitSuccessfully":true},{"note":36,"velocity":69,"hitTime":14448,"closestNoteTime":15360,"hitSuccessfully":false},{"note":38,"velocity":64,"hitTime":14848,"closestNoteTime":14400,"hitSuccessfully":false},{"note":46,"velocity":86,"hitTime":15344,"closestNoteTime":15360,"hitSuccessfully":true},{"note":46,"velocity":77,"hitTime":15776,"closestNoteTime":15840,"hitSuccessfully":true},{"note":46,"velocity":87,"hitTime":16288,"closestNoteTime":16320,"hitSuccessfully":true},{"note":36,"velocity":65,"hitTime":16320,"closestNoteTime":15360,"hitSuccessfully":false},{"note":38,"velocity":69,"hitTime":16752,"closestNoteTime":16320,"hitSuccessfully":false},{"note":46,"velocity":91,"hitTime":17248,"closestNoteTime":17280,"hitSuccessfully":true},{"note":46,"velocity":80,"hitTime":17648,"closestNoteTime":17760,"hitSuccessfully":true},{"note":46,"velocity":97,"hitTime":18160,"closestNoteTime":18240,"hitSuccessfully":true},{"note":38,"velocity":82,"hitTime":18160,"closestNoteTime":18240,"hitSuccessfully":true},{"note":36,"velocity":78,"hitTime":18240,"closestNoteTime":17280,"hitSuccessfully":false},{"note":38,"velocity":49,"hitTime":18672,"closestNoteTime":20160,"hitSuccessfully":false},{"note":46,"velocity":99,"hitTime":19152,"closestNoteTime":19200,"hitSuccessfully":true},{"note":46,"velocity":82,"hitTime":19584,"closestNoteTime":19680,"hitSuccessfully":true},{"note":36,"velocity":80,"hitTime":20064,"closestNoteTime":19200,"hitSuccessfully":false},{"note":46,"velocity":93,"hitTime":20064,"closestNoteTime":20160,"hitSuccessfully":true},{"note":38,"velocity":19,"hitTime":20608,"closestNoteTime":20160,"hitSuccessfully":false},{"note":46,"velocity":93,"hitTime":21056,"closestNoteTime":21120,"hitSuccessfully":true},{"note":46,"velocity":80,"hitTime":21424,"closestNoteTime":21600,"hitSuccessfully":true},{"note":46,"velocity":56,"hitTime":21488,"closestNoteTime":22080,"hitSuccessfully":false},{"note":46,"velocity":91,"hitTime":21936,"closestNoteTime":22080,"hitSuccessfully":true},{"note":38,"velocity":104,"hitTime":22000,"closestNoteTime":22080,"hitSuccessfully":true},{"note":36,"velocity":72,"hitTime":22000,"closestNoteTime":21120,"hitSuccessfully":false},{"note":38,"velocity":61,"hitTime":22448,"closestNoteTime":24000,"hitSuccessfully":false},{"note":46,"velocity":91,"hitTime":22928,"closestNoteTime":23040,"hitSuccessfully":true},{"note":46,"velocity":86,"hitTime":23328,"closestNoteTime":23520,"hitSuccessfully":true},{"note":46,"velocity":99,"hitTime":23792,"closestNoteTime":24000,"hitSuccessfully":true},{"note":36,"velocity":74,"hitTime":23872,"closestNoteTime":23040,"hitSuccessfully":false},{"note":38,"velocity":32,"hitTime":24320,"closestNoteTime":24000,"hitSuccessfully":false},{"note":46,"velocity":97,"hitTime":24560,"closestNoteTime":24480,"hitSuccessfully":true},{"note":46,"velocity":72,"hitTime":24640,"closestNoteTime":24960,"hitSuccessfully":false},{"note":46,"velocity":80,"hitTime":25232,"closestNoteTime":24960,"hitSuccessfully":true},{"note":46,"velocity":101,"hitTime":25744,"closestNoteTime":25920,"hitSuccessfully":true},{"note":38,"velocity":102,"hitTime":25792,"closestNoteTime":25920,"hitSuccessfully":true},{"note":36,"velocity":83,"hitTime":25792,"closestNoteTime":24960,"hitSuccessfully":false},{"note":46,"velocity":102,"hitTime":26736,"closestNoteTime":26880,"hitSuccessfully":true},{"note":46,"velocity":88,"hitTime":27184,"closestNoteTime":27360,"hitSuccessfully":true},{"note":46,"velocity":88,"hitTime":27664,"closestNoteTime":27840,"hitSuccessfully":true}]}