{"frames":[{"note":46,"velocity":105,"hitTime":144,"closestNoteTime":0,"hitSuccessfully":true},{"note":36,"velocity":75,"hitTime":144,"closestNoteTime":0,"hitSuccessfully":true},{"note":46,"velocity":91,"hitTime":656,"closestNoteTime":480,"hitSuccessfully":true},{"note":38,"velocity":89,"hitTime":1168,"closestNoteTime":960,"hitSuccessfully":true},{"note":46,"velocity":105,"hitTime":1168,"closestNoteTime":960,"hitSuccessfully":true},{"note":46,"velocity":97,"hitTime":1696,"closestNoteTime":1440,"hitSuccessfully":true},{"note":46,"velocity":106,"hitTime":2240,"closestNoteTime":2400,"hitSuccessfully":true},{"note":36,"velocity":82,"hitTime":2272,"closestNoteTime":1920,"hitSuccessfully":false},{"note":46,"velocity":94,"hitTime":2720,"closestNoteTime":2880,"hitSuccessfully":true},{"note":46,"velocity":106,"hitTime":3312,"closestNoteTime":3360,"hitSuccessfully":true},{"note":38,"velocity":97,"hitTime":3312,"closestNoteTime":2880,"hitSuccessfully":false},{"note":46,"velocity":101,"hitTime":3872,"closestNoteTime":3840,"hitSuccessfully":true},{"note":36,"velocity":72,"hitTime":4400,"closestNoteTime":3840,"hitSuccessfully":false},{"note":46,"velocity":107,"hitTime":4400,"closestNoteTime":4320,"hitSuccessfully":true},{"note":46,"velocity":79,"hitTime":4864,"closestNoteTime":4800,"hitSuccessfully":true},{"note":46,"velocity":60,"hitTime":4912,"closestNoteTime":5280,"hitSuccessfully":false},{"note":46,"velocity":101,"hitTime":5456,"closestNoteTime":5280,"hitSuccessfully":true},{"note":38,"velocity":101,"hitTime":5504,"closestNoteTime":4800,"hitSuccessfully":false},{"note":46,"velocity":98,"hitTime":5984,"closestNoteTime":5760,"hitSuccessfully":true},{"note":46,"velocity":103,"hitTime":6576,"closestNoteTime":6720,"hitSuccessfully":true},{"note":36,"velocity":74,"hitTime":6576,"closestNoteTime":5760,"hitSuccessfully":false},{"note":46,"velocity":93,"hitTime":7024,"closestNoteTime":7200,"hitSuccessfully":true},{"note":46,"velocity":79,"hitTime":7088,"closestNoteTime":7680,"hitSuccessfully":false},{"note":38,"velocity":101,"hitTime":7648,"closestNoteTime":6720,"hitSuccessfully":false},{"note":46,"velocity":108,"hitTime":7648,"closestNoteTime":7680,"hitSuccessfully":true},{"note":46,"velocity":91,"hitTime":8176,"closestNoteTime":8160,"hitSuccessfully":true},{"note":46,"velocity":114,"hitTime":8720,"closestNoteTime":8640,"hitSuccessfully":true},{"note":36,"velocity":74,"hitTime":8720,"closestNoteTime":9600,"hitSuccessfully":false},{"note":46,"velocity":96,"hitTime":9232,"closestNoteTime":9120,"hitSuccessfully":true},{"note":46,"velocity":107,"hitTime":9760,"closestNoteTime":9600,"hitSuccessfully":true},{"note":46,"velocity":105,"hitTime":10272,"closestNoteTime":10080,"hitSuccessfully":true},{"note":36,"velocity":72,"hitTime":10864,"closestNoteTime":11520,"hitSuccessfully":false},{"note":46,"velocity":108,"hitTime":10864,"closestNoteTime":11040,"hitSuccessfully":true},{"note":46,"velocity":87,"hitTime":11296,"closestNoteTime":11520,"hitSuccessfully":true},{"note":38,"velocity":99,"hitTime":11872,"closestNoteTime":12480,"hitSuccessfully":false},{"note":46,"velocity":107,"hitTime":11936,"closestNoteTime":12000,"hitSuccessfully":true},{"note":46,"velocity":94,"hitTime":12464,"closestNoteTime":12480,"hitSuccessfully":true},{"note":46,"velocity":109,"hitTime":12976,"closestNoteTime":12960,"hitSuccessfully":true},{"note":36,"velocity":64,"hitTime":13008,"closestNoteTime":13440,"hitSuccessfully":false},{"note":46,"velocity":77,"hitTime":13648,"closestNoteTime":13440,"hitSuccessfully":true},{"note":38,"velocity":92,"hitTime":14128,"closestNoteTime":14400,"hitSuccessfully":true},{"note":46,"velocity":125,"hitTime":14160,"closestNoteTime":13920,"hitSuccessfully":true},{"note":36,"velocity":42,"hitTime":14288,"closestNoteTime":13440,"hitSuccessfully":false},{"note":46,"velocity":97,"hitTime":14608,"closestNoteTime":14400,"hitSuccessfully":true},{"note":46,"velocity":116,"hitTime":15168,"closestNoteTime":14880,"hitSuccessfully":true},{"note":36,"velocity":70,"hitTime":15200,"closestNoteTime":15360,"hitSuccessfully":true},{"note":46,"velocity":97,"hitTime":15648,"closestNoteTime":15360,"hitSuccessfully":true},{"note":46,"velocity":109,"hitTime":16208,"closestNoteTime":16320,"hitSuccessfully":true},{"note":38,"velocity":101,"hitTime":16208,"closestNoteTime":16320,"hitSuccessfully":true},{"note":38,"velocity":81,"hitTime":16688,"closestNoteTime":18240,"hitSuccessfully":false},{"note":36,"velocity":78,"hitTime":17264,"closestNoteTime":17280,"hitSuccessfully":true},{"note":46,"velocity":127,"hitTime":17280,"closestNoteTime":17280,"hitSuccessfully":true},{"note":46,"velocity":91,"hitTime":17664,"closestNoteTime":17760,"hitSuccessfully":true},{"note":46,"velocity":70,"hitTime":17760,"closestNoteTime":18240,"hitSuccessfully":false},{"note":46,"velocity":108,"hitTime":18272,"closestNoteTime":18240,"hitSuccessfully":true},{"note":46,"velocity":91,"hitTime":18752,"closestNoteTime":18720,"hitSuccessfully":true},{"note":46,"velocity":127,"hitTime":19312,"closestNoteTime":19200,"hitSuccessfully":true},{"note":36,"velocity":66,"hitTime":19344,"closestNoteTime":19200,"hitSuccessfully":true},{"note":46,"velocity":103,"hitTime":19776,"closestNoteTime":19680,"hitSuccessfully":true},{"note":38,"velocity":99,"hitTime":20336,"closestNoteTime":20160,"hitSuccessfully":true},{"note":46,"velocity":103,"hitTime":20336,"closestNoteTime":20160,"hitSuccessfully":true},{"note":36,"velocity":56,"hitTime":20416,"closestNoteTime":21120,"hitSuccessfully":false},{"note":38,"velocity":73,"hitTime":20864,"closestNoteTime":22080,"hitSuccessfully":false},{"note":46,"velocity":101,"hitTime":21408,"closestNoteTime":21120,"hitSuccessfully":true},{"note":36,"velocity":78,"hitTime":21456,"closestNoteTime":21120,"hitSuccessfully":false},{"note":46,"velocity":86,"hitTime":21856,"closestNoteTime":21600,"hitSuccessfully":true},{"note":38,"velocity":101,"hitTime":22432,"closestNoteTime":22080,"hitSuccessfully":false},{"note":46,"velocity":104,"hitTime":22432,"closestNoteTime":22560,"hitSuccessfully":true},{"note":38,"velocity":72,"hitTime":22960,"closestNoteTime":22080,"hitSuccessfully":false},{"note":36,"velocity":74,"hitTime":23504,"closestNoteTime":23040,"hitSuccessfully":false},{"note":46,"velocity":103,"hitTime":23504,"closestNoteTime":23520,"hitSuccessfully":true},{"note":46,"velocity":83,"hitTime":23952,"closestNoteTime":24000,"hitSuccessfully":true},{"note":38,"velocity":95,"hitTime":24480,"closestNoteTime":24000,"hitSuccessfully":false},{"note":46,"velocity":102,"hitTime":24480,"closestNoteTime":24480,"hitSuccessfully":true},{"note":46,"velocity":93,"hitTime":24992,"closestNoteTime":24960,"hitSuccessfully":true},{"note":46,"velocity":95,"hitTime":25552,"closestNoteTime":25440,"hitSuccessfully":true},{"note":36,"velocity":75,"hitTime":25552,"closestNoteTime":24960,"hitSuccessfully":false},{"note":46,"velocity":88,"hitTime":26032,"closestNoteTime":25920,"hitSuccessfully":true},{"note":38,"velocity":98,"hitTime":26576,"closestNoteTime":25920,"hitSuccessfully":false},{"note":38,"velocity":84,"hitTime":27056,"closestNoteTime":27840,"hitSuccessfully":false},{"note":46,"velocity":122,"hitTime":27600,"closestNoteTime":27360,"hitSuccessfully":true},{"note":36,"velocity":77,"hitTime":27648,"closestNoteTime":26880,"hitSuccessfully":false},{"note":46,"velocity":85,"hitTime":28048,"closestNoteTime":27840,"hitSuccessfully":true},{"note":46,"velocity":112,"hitTime":28576,"closestNoteTime":28320,"hitSuccessfully":true},{"note":38,"velocity":99,"hitTime":28608,"closestNoteTime":27840,"hitSuccessfully":false},{"note":46,"velocity":99,"hitTime":28640,"closestNoteTime":28800,"hitSuccessfully":true},{"note":38,"velocity":68,"hitTime":29088,"closestNoteTime":29760,"hitSuccessfully":false},{"note":36,"velocity":64,"hitTime":29648,"closestNoteTime":28800,"hitSuccessfully":false},{"note":46,"velocity":104,"hitTime":29680,"closestNoteTime":29760,"hitSuccessfully":true},{"note":46,"velocity":80,"hitTime":30160,"closestNoteTime":30240,"hitSuccessfully":true},{"note":46,"velocity":112,"hitTime":30704,"closestNoteTime":29280,"hitSuccessfully":false},{"note":38,"velocity":94,"hitTime":30704,"closestNoteTime":29760,"hitSuccessfully":false}]}