{"frames":[{"note":46,"velocity":96,"hitTime":24,"closestNoteTime":0,"hitSuccessfully":true},{"note":46,"velocity":85,"hitTime":528,"closestNoteTime":480,"hitSuccessfully":true},{"note":46,"velocity":91,"hitTime":1000,"closestNoteTime":960,"hitSuccessfully":true},{"note":46,"velocity":93,"hitTime":1456,"closestNoteTime":1440,"hitSuccessfully":true},{"note":36,"velocity":78,"hitTime":1952,"closestNoteTime":1920,"hitSuccessfully":true},{"note":46,"velocity":106,"hitTime":1960,"closestNoteTime":1920,"hitSuccessfully":true},{"note":46,"velocity":90,"hitTime":2432,"closestNoteTime":2400,"hitSuccessfully":true},{"note":46,"velocity":85,"hitTime":2904,"closestNoteTime":2880,"hitSuccessfully":true},{"note":46,"velocity":87,"hitTime":3384,"closestNoteTime":3360,"hitSuccessfully":true},{"note":36,"velocity":61,"hitTime":3840,"closestNoteTime":3840,"hitSuccessfully":true},{"note":46,"velocity":102,"hitTime":3856,"closestNoteTime":3840,"hitSuccessfully":true},{"note":46,"velocity":85,"hitTime":4336,"closestNoteTime":4320,"hitSuccessfully":true},{"note":46,"velocity":83,"hitTime":4800,"closestNoteTime":4800,"hitSuccessfully":true},{"note":46,"velocity":89,"hitTime":5280,"closestNoteTime":5280,"hitSuccessfully":true},{"note":46,"velocity":99,"hitTime":5768,"closestNoteTime":5760,"hitSuccessfully":true},{"note":36,"velocity":50,"hitTime":5768,"closestNoteTime":5760,"hitSuccessfully":true},{"note":46,"velocity":85,"hitTime":6264,"closestNoteTime":6240,"hitSuccessfully":true},{"note":46,"velocity":87,"hitTime":6720,"closestNoteTime":6720,"hitSuccessfully":true},{"note":46,"velocity":91,"hitTime":7200,"closestNoteTime":7200,"hitSuccessfully":true},{"note":36,"velocity":51,"hitTime":7624,"closestNoteTime":7680,"hitSuccessfully":true},{"note":46,"velocity":101,"hitTime":7624,"closestNoteTime":7680,"hitSuccessfully":true},{"note":46,"velocity":77,"hitTime":8152,"closestNoteTime":8160,"hitSuccessfully":true},{"note":46,"velocity":88,"hitTime":8656,"closestNoteTime":8640,"hitSuccessfully":true},{"note":46,"velocity":36,"hitTime":8792,"closestNoteTime":9120,"hitSuccessfully":false},{"note":46,"velocity":90,"hitTime":9136,"closestNoteTime":9120,"hitSuccessfully":true},{"note":46,"velocity":101,"hitTime":9592,"closestNoteTime":9600,"hitSuccessfully":true},{"note":36,"velocity":43,"hitTime":9648,"closestNoteTime":9600,"hitSuccessfully":true},{"note":46,"velocity":89,"hitTime":10088,"closestNoteTime":10080,"hitSuccessfully":true},{"note":46,"velocity":88,"hitTime":11064,"closestNoteTime":11040,"hitSuccessfully":true},{"note":46,"velocity":97,"hitTime":11536,"closestNoteTime":11520,"hitSuccessfully":true},{"note":36,"velocity":38,"hitTime":11560,"closestNoteTime":11520,"hitSuccessfully":true},{"note":46,"velocity":84,"hitTime":12032,"closestNoteTime":12000,"hitSuccessfully":true},{"note":46,"velocity":88,"hitTime":12512,"closestNoteTime":12480,"hitSuccessfully":true},{"note":46,"velocity":88,"hitTime":13008,"closestNoteTime":12960,"hitSuccessfully":true},{"note":46,"velocity":101,"hitTime":13448,"closestNoteTime":13440,"hitSuccessfully":true},{"note":46,"velocity":88,"hitTime":13920,"closestNoteTime":13920,"hitSuccessfully":true},{"note":46,"velocity":87,"hitTime":14424,"closestNoteTime":14400,"hitSuccessfully":true},{"note":46,"velocity":89,"hitTime":14896,"closestNoteTime":14880,"hitSuccessfully":true}]}