{"frames":[{"note":36,"velocity":52,"hitTime":128,"closestNoteTime":0,"hitSuccessfully":true},{"note":46,"velocity":80,"hitTime":176,"closestNoteTime":0,"hitSuccessfully":true},{"note":46,"velocity":70,"hitTime":624,"closestNoteTime":480,"hitSuccessfully":true},{"note":46,"velocity":99,"hitTime":1104,"closestNoteTime":960,"hitSuccessfully":true},{"note":38,"velocity":88,"hitTime":1104,"closestNoteTime":960,"hitSuccessfully":true},{"note":46,"velocity":77,"hitTime":1616,"closestNoteTime":1440,"hitSuccessfully":true},{"note":46,"velocity":88,"hitTime":2080,"closestNoteTime":1920,"hitSuccessfully":true},{"note":36,"velocity":87,"hitTime":2096,"closestNoteTime":1920,"hitSuccessfully":true},{"note":46,"velocity":70,"hitTime":2576,"closestNoteTime":2400,"hitSuccessfully":true},{"note":38,"velocity":91,"hitTime":3040,"closestNoteTime":2880,"hitSuccessfully":true},{"note":46,"velocity":97,"hitTime":3072,"closestNoteTime":2880,"hitSuccessfully":true},{"note":46,"velocity":75,"hitTime":3488,"closestNoteTime":3360,"hitSuccessfully":true},{"note":36,"velocity":78,"hitTime":3968,"closestNoteTime":3840,"hitSuccessfully":true},{"note":46,"velocity":88,"hitTime":3968,"closestNoteTime":3840,"hitSuccessfully":true},{"note":46,"velocity":79,"hitTime":4432,"closestNoteTime":4320,"hitSuccessfully":true},{"note":38,"velocity":99,"hitTime":4880,"closestNoteTime":4800,"hitSuccessfully":true},{"note":46,"velocity":98,"hitTime":4880,"closestNoteTime":4800,"hitSuccessfully":true},{"note":46,"velocity":84,"hitTime":5376,"closestNoteTime":5280,"hitSuccessfully":true},{"note":36,"velocity":78,"hitTime":5856,"closestNoteTime":5760,"hitSuccessfully":true},{"note":46,"velocity":94,"hitTime":5872,"closestNoteTime":5760,"hitSuccessfully":true},{"note":46,"velocity":58,"hitTime":6352,"closestNoteTime":6240,"hitSuccessfully":true},{"note":46,"velocity":101,"hitTime":6816,"closestNoteTime":6720,"hitSuccessfully":true},{"note":38,"velocity":105,"hitTime":6816,"closestNoteTime":6720,"hitSuccessfully":true},{"note":46,"velocity":79,"hitTime":7296,"closestNoteTime":7200,"hitSuccessfully":true},{"note":36,"velocity":78,"hitTime":7728,"closestNoteTime":7680,"hitSuccessfully":true},{"note":46,"velocity":99,"hitTime":7744,"closestNoteTime":7680,"hitSuccessfully":true},{"note":46,"velocity":79,"hitTime":8176,"closestNoteTime":8160,"hitSuccessfully":true},{"note":46,"velocity":101,"hitTime":8688,"closestNoteTime":8640,"hitSuccessfully":true},{"note":38,"velocity":98,"hitTime":8720,"closestNoteTime":8640,"hitSuccessfully":true},{"note":46,"velocity":91,"hitTime":9200,"closestNoteTime":9120,"hitSuccessfully":true},{"note":36,"velocity":66,"hitTime":9680,"closestNoteTime":9600,"hitSuccessfully":true},{"note":46,"velocity":97,"hitTime":9712,"closestNoteTime":9600,"hitSuccessfully":true},{"note":46,"velocity":86,"hitTime":10192,"closestNoteTime":10080,"hitSuccessfully":true},{"note":38,"velocity":99,"hitTime":10640,"closestNoteTime":10560,"hitSuccessfully":true},{"note":46,"velocity":100,"hitTime":10672,"closestNoteTime":10560,"hitSuccessfully":true},{"note":46,"velocity":91,"hitTime":11184,"closestNoteTime":11040,"hitSuccessfully":true},{"note":36,"velocity":77,"hitTime":11632,"closestNoteTime":11520,"hitSuccessfully":true},{"note":46,"velocity":97,"hitTime":11632,"closestNoteTime":11520,"hitSuccessfully":true},{"note":46,"velocity":85,"hitTime":12112,"closestNoteTime":12000,"hitSuccessfully":true},{"note":38,"velocity":99,"hitTime":12576,"closestNoteTime":12480,"hitSuccessfully":true},{"note":46,"velocity":99,"hitTime":12592,"closestNoteTime":12480,"hitSuccessfully":true},{"note":46,"velocity":88,"hitTime":13072,"closestNoteTime":12960,"hitSuccessfully":true},{"note":36,"velocity":77,"hitTime":13568,"closestNoteTime":13440,"hitSuccessfully":true},{"note":46,"velocity":93,"hitTime":13568,"closestNoteTime":13440,"hitSuccessfully":true},{"note":46,"velocity":91,"hitTime":14064,"closestNoteTime":13920,"hitSuccessfully":true},{"note":38,"velocity":98,"hitTime":14496,"closestNoteTime":14400,"hitSuccessfully":true},{"note":46,"velocity":98,"hitTime":14528,"closestNoteTime":14400,"hitSuccessfully":true},{"note":46,"velocity":89,"hitTime":15008,"closestNoteTime":14880,"hitSuccessfully":true},{"note":46,"velocity":88,"hitTime":15488,"closestNoteTime":15360,"hitSuccessfully":true},{"note":36,"velocity":91,"hitTime":15520,"closestNoteTime":15360,"hitSuccessfully":true},{"note":46,"velocity":79,"hitTime":15936,"closestNoteTime":15840,"hitSuccessfully":true},{"note":38,"velocity":96,"hitTime":16400,"closestNoteTime":16320,"hitSuccessfully":true},{"note":46,"velocity":99,"hitTime":16400,"closestNoteTime":16320,"hitSuccessfully":true},{"note":46,"velocity":82,"hitTime":16912,"closestNoteTime":16800,"hitSuccessfully":true},{"note":36,"velocity":73,"hitTime":17360,"closestNoteTime":17280,"hitSuccessfully":true},{"note":46,"velocity":91,"hitTime":17360,"closestNoteTime":17280,"hitSuccessfully":true},{"note":46,"velocity":70,"hitTime":17872,"closestNoteTime":17760,"hitSuccessfully":true},{"note":38,"velocity":99,"hitTime":18304,"closestNoteTime":18240,"hitSuccessfully":true},{"note":46,"velocity":102,"hitTime":18304,"closestNoteTime":18240,"hitSuccessfully":true},{"note":46,"velocity":79,"hitTime":18784,"closestNoteTime":18720,"hitSuccessfully":true},{"note":46,"velocity":94,"hitTime":19232,"closestNoteTime":19200,"hitSuccessfully":true},{"note":36,"velocity":80,"hitTime":19264,"closestNoteTime":19200,"hitSuccessfully":true},{"note":46,"velocity":80,"hitTime":19696,"closestNoteTime":19680,"hitSuccessfully":true},{"note":46,"velocity":101,"hitTime":20208,"closestNoteTime":20160,"hitSuccessfully":true},{"note":38,"velocity":100,"hitTime":20224,"closestNoteTime":20160,"hitSuccessfully":true},{"note":46,"velocity":89,"hitTime":20688,"closestNoteTime":20640,"hitSuccessfully":true},{"note":46,"velocity":94,"hitTime":21168,"closestNoteTime":21120,"hitSuccessfully":true},{"note":36,"velocity":74,"hitTime":21184,"closestNoteTime":21120,"hitSuccessfully":true},{"note":46,"velocity":82,"hitTime":21680,"closestNoteTime":21600,"hitSuccessfully":true},{"note":38,"velocity":94,"hitTime":22128,"closestNoteTime":22080,"hitSuccessfully":true},{"note":46,"velocity":102,"hitTime":22160,"closestNoteTime":22080,"hitSuccessfully":true},{"note":46,"velocity":82,"hitTime":22656,"closestNoteTime":22560,"hitSuccessfully":true},{"note":46,"velocity":102,"hitTime":23120,"closestNoteTime":23040,"hitSuccessfully":true},{"note":36,"velocity":73,"hitTime":23120,"closestNoteTime":23040,"hitSuccessfully":true},{"note":46,"velocity":79,"hitTime":23600,"closestNoteTime":23520,"hitSuccessfully":true},{"note":38,"velocity":93,"hitTime":24032,"closestNoteTime":24000,"hitSuccessfully":true},{"note":46,"velocity":101,"hitTime":24064,"closestNoteTime":24000,"hitSuccessfully":true},{"note":46,"velocity":83,"hitTime":24560,"closestNoteTime":24480,"hitSuccessfully":true},{"note":36,"velocity":77,"hitTime":24992,"closestNoteTime":24960,"hitSuccessfully":true},{"note":46,"velocity":99,"hitTime":25024,"closestNoteTime":24960,"hitSuccessfully":true},{"note":46,"velocity":67,"hitTime":25504,"closestNoteTime":25440,"hitSuccessfully":true},{"note":46,"velocity":100,"hitTime":25984,"closestNoteTime":25920,"hitSuccessfully":true},{"note":38,"velocity":96,"hitTime":25984,"closestNoteTime":25920,"hitSuccessfully":true},{"note":46,"velocity":77,"hitTime":26464,"closestNoteTime":26400,"hitSuccessfully":true},{"note":36,"velocity":66,"hitTime":26944,"closestNoteTime":26880,"hitSuccessfully":true},{"note":46,"velocity":93,"hitTime":26944,"closestNoteTime":26880,"hitSuccessfully":true},{"note":46,"velocity":79,"hitTime":27408,"closestNoteTime":27360,"hitSuccessfully":true},{"note":38,"velocity":99,"hitTime":27856,"closestNoteTime":27840,"hitSuccessfully":true},{"note":46,"velocity":103,"hitTime":27888,"closestNoteTime":27840,"hitSuccessfully":true},{"note":46,"velocity":83,"hitTime":28400,"closestNoteTime":28320,"hitSuccessfully":true},{"note":46,"velocity":94,"hitTime":28880,"closestNoteTime":28800,"hitSuccessfully":true},{"note":36,"velocity":80,"hitTime":28880,"closestNoteTime":28800,"hitSuccessfully":true},{"note":46,"velocity":82,"hitTime":29360,"closestNoteTime":29280,"hitSuccessfully":true},{"note":38,"velocity":99,"hitTime":29808,"closestNoteTime":29760,"hitSuccessfully":true},{"note":46,"velocity":102,"hitTime":29840,"closestNoteTime":29760,"hitSuccessfully":true},{"note":46,"velocity":94,"hitTime":30320,"closestNoteTime":30240,"hitSuccessfully":true}]}