{
  "frames": [
    {
      "note": 36,
      "velocity": 47,
      "hitTime": 68,
      "closestNoteTime": 0,
      "hitSuccessfully": true
    },
    {
      "note": 38,
      "velocity": 91,
      "hitTime": 132,
      "closestNoteTime": 0,
      "hitSuccessfully": false
    },
    {
      "note": 46,
      "velocity": 84,
      "hitTime": 132,
      "closestNoteTime": 0,
      "hitSuccessfully": true
    },
    {
      "note": 46,
      "velocity": 77,
      "hitTime": 558,
      "closestNoteTime": 480,
      "hitSuccessfully": true
    },
    {
      "note": 46,
      "velocity": 97,
      "hitTime": 972,
      "closestNoteTime": 960,
      "hitSuccessfully": true
    },
    {
      "note": 38,
      "velocity": 98,
      "hitTime": 1030,
      "closestNoteTime": 960,
      "hitSuccessfully": true
    },
    {
      "note": 36,
      "velocity": 64,
      "hitTime": 1094,
      "closestNoteTime": 1440,
      "hitSuccessfully": false
    },
    {
      "note": 46,
      "velocity": 84,
      "hitTime": 1579,
      "closestNoteTime": 1440,
      "hitSuccessfully": true
    },
    {
      "note": 36,
      "velocity": 56,
      "hitTime": 1992,
      "closestNoteTime": 1920,
      "hitSuccessfully": true
    },
    {
      "note": 46,
      "velocity": 97,
      "hitTime": 2033,
      "closestNoteTime": 1920,
      "hitSuccessfully": true
    },
    {
      "note": 38,
      "velocity": 91,
      "hitTime": 2056,
      "closestNoteTime": 2400,
      "hitSuccessfully": false
    },
    {
      "note": 46,
      "velocity": 85,
      "hitTime": 2528,
      "closestNoteTime": 2400,
      "hitSuccessfully": true
    },
    {
      "note": 36,
      "velocity": 36,
      "hitTime": 2937,
      "closestNoteTime": 2880,
      "hitSuccessfully": false
    },
    {
      "note": 38,
      "velocity": 91,
      "hitTime": 2954,
      "closestNoteTime": 2880,
      "hitSuccessfully": true
    },
    {
      "note": 46,
      "velocity": 99,
      "hitTime": 2977,
      "closestNoteTime": 2880,
      "hitSuccessfully": true
    },
    {
      "note": 46,
      "velocity": 79,
      "hitTime": 3449,
      "closestNoteTime": 3360,
      "hitSuccessfully": true
    },
    {
      "note": 38,
      "velocity": 88,
      "hitTime": 3895,
      "closestNoteTime": 3840,
      "hitSuccessfully": false
    },
    {
      "note": 36,
      "velocity": 72,
      "hitTime": 3899,
      "closestNoteTime": 3840,
      "hitSuccessfully": true
    },
    {
      "note": 46,
      "velocity": 98,
      "hitTime": 3919,
      "closestNoteTime": 3840,
      "hitSuccessfully": true
    },
    {
      "note": 46,
      "velocity": 79,
      "hitTime": 4452,
      "closestNoteTime": 4320,
      "hitSuccessfully": true
    },
    {
      "note": 46,
      "velocity": 99,
      "hitTime": 4861,
      "closestNoteTime": 4800,
      "hitSuccessfully": true
    },
    {
      "note": 36,
      "velocity": 55,
      "hitTime": 4884,
      "closestNoteTime": 4800,
      "hitSuccessfully": false
    },
    {
      "note": 38,
      "velocity": 94,
      "hitTime": 4896,
      "closestNoteTime": 4800,
      "hitSuccessfully": true
    },
    {
      "note": 46,
      "velocity": 82,
      "hitTime": 5330,
      "closestNoteTime": 5280,
      "hitSuccessfully": true
    },
    {
      "note": 38,
      "velocity": 95,
      "hitTime": 5782,
      "closestNoteTime": 5760,
      "hitSuccessfully": false
    },
    {
      "note": 46,
      "velocity": 99,
      "hitTime": 5805,
      "closestNoteTime": 5760,
      "hitSuccessfully": true
    },
    {
      "note": 46,
      "velocity": 85,
      "hitTime": 6295,
      "closestNoteTime": 6240,
      "hitSuccessfully": true
    },
    {
      "note": 36,
      "velocity": 77,
      "hitTime": 6763,
      "closestNoteTime": 6720,
      "hitSuccessfully": false
    },
    {
      "note": 46,
      "velocity": 99,
      "hitTime": 6806,
      "closestNoteTime": 6720,
      "hitSuccessfully": true
    },
    {
      "note": 38,
      "velocity": 94,
      "hitTime": 6821,
      "closestNoteTime": 6720,
      "hitSuccessfully": true
    },
    {
      "note": 46,
      "velocity": 82,
      "hitTime": 7378,
      "closestNoteTime": 7200,
      "hitSuccessfully": true
    },
    {
      "note": 46,
      "velocity": 100,
      "hitTime": 7793,
      "closestNoteTime": 7680,
      "hitSuccessfully": true
    },
    {
      "note": 36,
      "velocity": 70,
      "hitTime": 7833,
      "closestNoteTime": 7680,
      "hitSuccessfully": true
    },
    {
      "note": 38,
      "velocity": 100,
      "hitTime": 7850,
      "closestNoteTime": 8160,
      "hitSuccessfully": false
    },
    {
      "note": 46,
      "velocity": 91,
      "hitTime": 8259,
      "closestNoteTime": 8160,
      "hitSuccessfully": true
    },
    {
      "note": 38,
      "velocity": 92,
      "hitTime": 8690,
      "closestNoteTime": 8640,
      "hitSuccessfully": true
    },
    {
      "note": 46,
      "velocity": 100,
      "hitTime": 8731,
      "closestNoteTime": 8640,
      "hitSuccessfully": true
    },
    {
      "note": 46,
      "velocity": 90,
      "hitTime": 9219,
      "closestNoteTime": 9120,
      "hitSuccessfully": true
    },
    {
      "note": 36,
      "velocity": 64,
      "hitTime": 9590,
      "closestNoteTime": 9600,
      "hitSuccessfully": true
    },
    {
      "note": 38,
      "velocity": 94,
      "hitTime": 9648,
      "closestNoteTime": 9600,
      "hitSuccessfully": false
    },
    {
      "note": 46,
      "velocity": 101,
      "hitTime": 9693,
      "closestNoteTime": 9600,
      "hitSuccessfully": true
    },
    {
      "note": 46,
      "velocity": 85,
      "hitTime": 10143,
      "closestNoteTime": 10080,
      "hitSuccessfully": true
    },
    {
      "note": 46,
      "velocity": 100,
      "hitTime": 10638,
      "closestNoteTime": 10560,
      "hitSuccessfully": true
    },
    {
      "note": 38,
      "velocity": 96,
      "hitTime": 10638,
      "closestNoteTime": 10560,
      "hitSuccessfully": true
    },
    {
      "note": 36,
      "velocity": 78,
      "hitTime": 10655,
      "closestNoteTime": 11040,
      "hitSuccessfully": false
    },
    {
      "note": 46,
      "velocity": 91,
      "hitTime": 11207,
      "closestNoteTime": 11040,
      "hitSuccessfully": true
    },
    {
      "note": 46,
      "velocity": 101,
      "hitTime": 11640,
      "closestNoteTime": 11520,
      "hitSuccessfully": true
    },
    {
      "note": 38,
      "velocity": 102,
      "hitTime": 11744,
      "closestNoteTime": 11520,
      "hitSuccessfully": false
    },
    {
      "note": 36,
      "velocity": 75,
      "hitTime": 11757,
      "closestNoteTime": 11520,
      "hitSuccessfully": true
    },
    {
      "note": 46,
      "velocity": 88,
      "hitTime": 12113,
      "closestNoteTime": 12000,
      "hitSuccessfully": true
    },
    {
      "note": 38,
      "velocity": 96,
      "hitTime": 12584,
      "closestNoteTime": 12480,
      "hitSuccessfully": true
    },
    {
      "note": 46,
      "velocity": 84,
      "hitTime": 12642,
      "closestNoteTime": 12480,
      "hitSuccessfully": true
    },
    {
      "note": 38,
      "velocity": 53,
      "hitTime": 12722,
      "closestNoteTime": 12960,
      "hitSuccessfully": false
    },
    {
      "note": 36,
      "velocity": 52,
      "hitTime": 13771,
      "closestNoteTime": 13920,
      "hitSuccessfully": true
    },
    {
      "note": 38,
      "velocity": 68,
      "hitTime": 13825,
      "closestNoteTime": 13920,
      "hitSuccessfully": true
    },
    {
      "note": 36,
      "velocity": 46,
      "hitTime": 15286,
      "closestNoteTime": 15360,
      "hitSuccessfully": true
    },
    {
      "note": 38,
      "velocity": 89,
      "hitTime": 15327,
      "closestNoteTime": 15360,
      "hitSuccessfully": false
    },
    {
      "note": 46,
      "velocity": 91,
      "hitTime": 15349,
      "closestNoteTime": 15360,
      "hitSuccessfully": true
    },
    {
      "note": 46,
      "velocity": 90,
      "hitTime": 16185,
      "closestNoteTime": 16320,
      "hitSuccessfully": true
    },
    {
      "note": 36,
      "velocity": 34,
      "hitTime": 16225,
      "closestNoteTime": 16320,
      "hitSuccessfully": false
    },
    {
      "note": 38,
      "velocity": 83,
      "hitTime": 16225,
      "closestNoteTime": 16320,
      "hitSuccessfully": true
    },
    {
      "note": 36,
      "velocity": 44,
      "hitTime": 17089,
      "closestNoteTime": 17280,
      "hitSuccessfully": true
    },
    {
      "note": 38,
      "velocity": 91,
      "hitTime": 17192,
      "closestNoteTime": 17280,
      "hitSuccessfully": false
    },
    {
      "note": 46,
      "velocity": 89,
      "hitTime": 17206,
      "closestNoteTime": 17280,
      "hitSuccessfully": true
    },
    {
      "note": 36,
      "velocity": 48,
      "hitTime": 18051,
      "closestNoteTime": 18240,
      "hitSuccessfully": false
    },
    {
      "note": 46,
      "velocity": 83,
      "hitTime": 18114,
      "closestNoteTime": 18240,
      "hitSuccessfully": true
    },
    {
      "note": 38,
      "velocity": 87,
      "hitTime": 18132,
      "closestNoteTime": 18240,
      "hitSuccessfully": true
    },
    {
      "note": 36,
      "velocity": 52,
      "hitTime": 19051,
      "closestNoteTime": 19200,
      "hitSuccessfully": true
    },
    {
      "note": 46,
      "velocity": 91,
      "hitTime": 19131,
      "closestNoteTime": 19200,
      "hitSuccessfully": true
    },
    {
      "note": 38,
      "velocity": 89,
      "hitTime": 19156,
      "closestNoteTime": 18720,
      "hitSuccessfully": false
    },
    {
      "note": 36,
      "velocity": 42,
      "hitTime": 19912,
      "closestNoteTime": 19680,
      "hitSuccessfully": false
    },
    {
      "note": 46,
      "velocity": 85,
      "hitTime": 20015,
      "closestNoteTime": 20160,
      "hitSuccessfully": true
    },
    {
      "note": 38,
      "velocity": 87,
      "hitTime": 20015,
      "closestNoteTime": 20160,
      "hitSuccessfully": true
    },
    {
      "note": 36,
      "velocity": 39,
      "hitTime": 20916,
      "closestNoteTime": 21120,
      "hitSuccessfully": true
    },
    {
      "note": 46,
      "velocity": 90,
      "hitTime": 20960,
      "closestNoteTime": 21120,
      "hitSuccessfully": true
    },
    {
      "note": 38,
      "velocity": 86,
      "hitTime": 20975,
      "closestNoteTime": 20640,
      "hitSuccessfully": false
    },
    {
      "note": 36,
      "velocity": 43,
      "hitTime": 21839,
      "closestNoteTime": 21600,
      "hitSuccessfully": false
    },
    {
      "note": 38,
      "velocity": 86,
      "hitTime": 21881,
      "closestNoteTime": 22080,
      "hitSuccessfully": true
    },
    {
      "note": 46,
      "velocity": 84,
      "hitTime": 21899,
      "closestNoteTime": 22080,
      "hitSuccessfully": true
    },
    {
      "note": 36,
      "velocity": 44,
      "hitTime": 22763,
      "closestNoteTime": 22560,
      "hitSuccessfully": true
    },
    {
      "note": 38,
      "velocity": 88,
      "hitTime": 22861,
      "closestNoteTime": 23040,
      "hitSuccessfully": false
    },
    {
      "note": 46,
      "velocity": 89,
      "hitTime": 22884,
      "closestNoteTime": 23040,
      "hitSuccessfully": true
    },
    {
      "note": 46,
      "velocity": 75,
      "hitTime": 23394,
      "closestNoteTime": 23520,
      "hitSuccessfully": true
    },
    {
      "note": 36,
      "velocity": 52,
      "hitTime": 23805,
      "closestNoteTime": 24000,
      "hitSuccessfully": false
    },
    {
      "note": 38,
      "velocity": 93,
      "hitTime": 23867,
      "closestNoteTime": 24000,
      "hitSuccessfully": true
    },
    {
      "note": 46,
      "velocity": 99,
      "hitTime": 23885,
      "closestNoteTime": 24000,
      "hitSuccessfully": true
    },
    {
      "note": 46,
      "velocity": 76,
      "hitTime": 24439,
      "closestNoteTime": 24480,
      "hitSuccessfully": true
    },
    {
      "note": 36,
      "velocity": 67,
      "hitTime": 24871,
      "closestNoteTime": 24960,
      "hitSuccessfully": true
    },
    {
      "note": 38,
      "velocity": 91,
      "hitTime": 24871,
      "closestNoteTime": 24960,
      "hitSuccessfully": false
    },
    {
      "note": 46,
      "velocity": 91,
      "hitTime": 24883,
      "closestNoteTime": 24960,
      "hitSuccessfully": true
    },
    {
      "note": 46,
      "velocity": 86,
      "hitTime": 25343,
      "closestNoteTime": 25440,
      "hitSuccessfully": true
    },
    {
      "note": 46,
      "velocity": 102,
      "hitTime": 25833,
      "closestNoteTime": 25920,
      "hitSuccessfully": true
    },
    {
      "note": 38,
      "velocity": 94,
      "hitTime": 25856,
      "closestNoteTime": 25920,
      "hitSuccessfully": true
    },
    {
      "note": 46,
      "velocity": 87,
      "hitTime": 26282,
      "closestNoteTime": 26400,
      "hitSuccessfully": true
    },
    {
      "note": 36,
      "velocity": 58,
      "hitTime": 26691,
      "closestNoteTime": 26880,
      "hitSuccessfully": true
    },
    {
      "note": 38,
      "velocity": 94,
      "hitTime": 26777,
      "closestNoteTime": 26880,
      "hitSuccessfully": false
    },
    {
      "note": 46,
      "velocity": 98,
      "hitTime": 26792,
      "closestNoteTime": 26880,
      "hitSuccessfully": true
    },
    {
      "note": 46,
      "velocity": 91,
      "hitTime": 27284,
      "closestNoteTime": 27360,
      "hitSuccessfully": true
    },
    {
      "note": 46,
      "velocity": 101,
      "hitTime": 27780,
      "closestNoteTime": 27840,
      "hitSuccessfully": true
    },
    {
      "note": 36,
      "velocity": 36,
      "hitTime": 27820,
      "closestNoteTime": 27840,
      "hitSuccessfully": false
    },
    {
      "note": 38,
      "velocity": 93,
      "hitTime": 27837,
      "closestNoteTime": 27840,
      "hitSuccessfully": true
    },
    {
      "note": 46,
      "velocity": 88,
      "hitTime": 28292,
      "closestNoteTime": 28320,
      "hitSuccessfully": true
    },
    {
      "note": 36,
      "velocity": 43,
      "hitTime": 28701,
      "closestNoteTime": 28800,
      "hitSuccessfully": true
    },
    {
      "note": 46,
      "velocity": 100,
      "hitTime": 28822,
      "closestNoteTime": 28800,
      "hitSuccessfully": true
    },
    {
      "note": 38,
      "velocity": 93,
      "hitTime": 28845,
      "closestNoteTime": 29280,
      "hitSuccessfully": false
    },
    {
      "note": 46,
      "velocity": 84,
      "hitTime": 29332,
      "closestNoteTime": 29280,
      "hitSuccessfully": true
    },
    {
      "note": 36,
      "velocity": 31,
      "hitTime": 29439,
      "closestNoteTime": 29760,
      "hitSuccessfully": false
    },
    {
      "note": 46,
      "velocity": 96,
      "hitTime": 29861,
      "closestNoteTime": 29760,
      "hitSuccessfully": true
    },
    {
      "note": 36,
      "velocity": 58,
      "hitTime": 29865,
      "closestNoteTime": 29760,
      "hitSuccessfully": false
    },
    {
      "note": 38,
      "velocity": 91,
      "hitTime": 29888,
      "closestNoteTime": 29760,
      "hitSuccessfully": true
    }
  ]
}