{"frames":[{"note":46,"velocity":100,"hitTime":176,"closestNoteTime":0,"hitSuccessfully":true},{"note":46,"velocity":91,"hitTime":624,"closestNoteTime":480,"hitSuccessfully":true},{"note":46,"velocity":106,"hitTime":1104,"closestNoteTime":960,"hitSuccessfully":true},{"note":46,"velocity":86,"hitTime":1648,"closestNoteTime":1440,"hitSuccessfully":true},{"note":46,"velocity":91,"hitTime":2080,"closestNoteTime":1920,"hitSuccessfully":true},{"note":46,"velocity":88,"hitTime":2496,"closestNoteTime":2400,"hitSuccessfully":true},{"note":46,"velocity":107,"hitTime":2992,"closestNoteTime":2880,"hitSuccessfully":true},{"note":46,"velocity":88,"hitTime":3488,"closestNoteTime":3360,"hitSuccessfully":true},{"note":46,"velocity":96,"hitTime":3920,"closestNoteTime":3840,"hitSuccessfully":true},{"note":46,"velocity":91,"hitTime":4400,"closestNoteTime":4320,"hitSuccessfully":true},{"note":46,"velocity":107,"hitTime":4880,"closestNoteTime":4800,"hitSuccessfully":true},{"note":46,"velocity":100,"hitTime":5392,"closestNoteTime":5280,"hitSuccessfully":true},{"note":46,"velocity":95,"hitTime":5824,"closestNoteTime":5760,"hitSuccessfully":true},{"note":46,"velocity":91,"hitTime":6224,"closestNoteTime":6240,"hitSuccessfully":true},{"note":46,"velocity":112,"hitTime":6736,"closestNoteTime":6720,"hitSuccessfully":true},{"note":46,"velocity":94,"hitTime":7264,"closestNoteTime":7200,"hitSuccessfully":true},{"note":46,"velocity":106,"hitTime":7696,"closestNoteTime":7680,"hitSuccessfully":true},{"note":46,"velocity":90,"hitTime":8096,"closestNoteTime":8160,"hitSuccessfully":true},{"note":46,"velocity":46,"hitTime":8208,"closestNoteTime":8640,"hitSuccessfully":false},{"note":46,"velocity":107,"hitTime":8608,"closestNoteTime":8640,"hitSuccessfully":true},{"note":46,"velocity":105,"hitTime":9056,"closestNoteTime":9120,"hitSuccessfully":true},{"note":36,"velocity":78,"hitTime":9520,"closestNoteTime":9600,"hitSuccessfully":true},{"note":46,"velocity":125,"hitTime":9568,"closestNoteTime":9600,"hitSuccessfully":true},{"note":46,"velocity":105,"hitTime":10080,"closestNoteTime":10080,"hitSuccessfully":true},{"note":46,"velocity":116,"hitTime":10528,"closestNoteTime":10560,"hitSuccessfully":true},{"note":46,"velocity":101,"hitTime":11072,"closestNoteTime":11040,"hitSuccessfully":true},{"note":46,"velocity":101,"hitTime":11472,"closestNoteTime":11520,"hitSuccessfully":true},{"note":46,"velocity":98,"hitTime":11872,"closestNoteTime":12000,"hitSuccessfully":true},{"note":46,"velocity":112,"hitTime":12384,"closestNoteTime":12480,"hitSuccessfully":true},{"note":46,"velocity":100,"hitTime":12912,"closestNoteTime":12960,"hitSuccessfully":true},{"note":46,"velocity":93,"hitTime":13344,"closestNoteTime":13440,"hitSuccessfully":true},{"note":46,"velocity":80,"hitTime":13728,"closestNoteTime":13920,"hitSuccessfully":true},{"note":46,"velocity":108,"hitTime":14224,"closestNoteTime":14400,"hitSuccessfully":true},{"note":46,"velocity":100,"hitTime":14784,"closestNoteTime":14880,"hitSuccessfully":true},{"note":36,"velocity":74,"hitTime":15200,"closestNoteTime":15360,"hitSuccessfully":true},{"note":46,"velocity":98,"hitTime":15280,"closestNoteTime":15360,"hitSuccessfully":true},{"note":46,"velocity":91,"hitTime":15824,"closestNoteTime":15840,"hitSuccessfully":true},{"note":46,"velocity":108,"hitTime":16256,"closestNoteTime":16320,"hitSuccessfully":true},{"note":46,"velocity":102,"hitTime":16768,"closestNoteTime":16800,"hitSuccessfully":true},{"note":36,"velocity":70,"hitTime":17200,"closestNoteTime":17280,"hitSuccessfully":true},{"note":46,"velocity":112,"hitTime":17280,"closestNoteTime":17280,"hitSuccessfully":true},{"note":46,"velocity":96,"hitTime":17760,"closestNoteTime":17760,"hitSuccessfully":true},{"note":46,"velocity":109,"hitTime":18208,"closestNoteTime":18240,"hitSuccessfully":true},{"note":46,"velocity":106,"hitTime":18752,"closestNoteTime":18720,"hitSuccessfully":true},{"note":46,"velocity":108,"hitTime":19200,"closestNoteTime":19200,"hitSuccessfully":true},{"note":36,"velocity":80,"hitTime":19264,"closestNoteTime":19200,"hitSuccessfully":true},{"note":46,"velocity":102,"hitTime":19664,"closestNoteTime":19680,"hitSuccessfully":true},{"note":46,"velocity":107,"hitTime":20144,"closestNoteTime":20160,"hitSuccessfully":true},{"note":46,"velocity":103,"hitTime":20656,"closestNoteTime":20640,"hitSuccessfully":true},{"note":46,"velocity":106,"hitTime":21056,"closestNoteTime":21120,"hitSuccessfully":true},{"note":36,"velocity":44,"hitTime":21296,"closestNoteTime":21120,"hitSuccessfully":true},{"note":46,"velocity":91,"hitTime":21808,"closestNoteTime":21600,"hitSuccessfully":true},{"note":46,"velocity":106,"hitTime":22144,"closestNoteTime":22080,"hitSuccessfully":true},{"note":46,"velocity":107,"hitTime":23136,"closestNoteTime":23040,"hitSuccessfully":true},{"note":46,"velocity":91,"hitTime":23552,"closestNoteTime":23520,"hitSuccessfully":true},{"note":46,"velocity":118,"hitTime":24080,"closestNoteTime":24000,"hitSuccessfully":true},{"note":46,"velocity":101,"hitTime":24608,"closestNoteTime":24480,"hitSuccessfully":true},{"note":46,"velocity":99,"hitTime":25024,"closestNoteTime":24960,"hitSuccessfully":true},{"note":46,"velocity":93,"hitTime":25520,"closestNoteTime":25440,"hitSuccessfully":true},{"note":46,"velocity":104,"hitTime":25952,"closestNoteTime":25920,"hitSuccessfully":true},{"note":46,"velocity":102,"hitTime":26464,"closestNoteTime":26400,"hitSuccessfully":true},{"note":46,"velocity":100,"hitTime":26912,"closestNoteTime":26880,"hitSuccessfully":true},{"note":46,"velocity":83,"hitTime":27296,"closestNoteTime":27360,"hitSuccessfully":true},{"note":46,"velocity":109,"hitTime":27856,"closestNoteTime":27840,"hitSuccessfully":true},{"note":46,"velocity":109,"hitTime":28880,"closestNoteTime":28800,"hitSuccessfully":true},{"note":46,"velocity":93,"hitTime":29360,"closestNoteTime":29280,"hitSuccessfully":true},{"note":46,"velocity":101,"hitTime":29808,"closestNoteTime":29760,"hitSuccessfully":true},{"note":46,"velocity":62,"hitTime":30448,"closestNoteTime":30240,"hitSuccessfully":true}]}