{"frames":[{"note":46,"velocity":89,"hitTime":40,"closestNoteTime":0,"hitSuccessfully":true},{"note":36,"velocity":76,"hitTime":56,"closestNoteTime":0,"hitSuccessfully":true},{"note":46,"velocity":91,"hitTime":512,"closestNoteTime":480,"hitSuccessfully":true},{"note":38,"velocity":89,"hitTime":976,"closestNoteTime":960,"hitSuccessfully":true},{"note":46,"velocity":102,"hitTime":992,"closestNoteTime":960,"hitSuccessfully":true},{"note":46,"velocity":88,"hitTime":1432,"closestNoteTime":1440,"hitSuccessfully":true},{"note":36,"velocity":77,"hitTime":1928,"closestNoteTime":1920,"hitSuccessfully":true},{"note":46,"velocity":88,"hitTime":1928,"closestNoteTime":1920,"hitSuccessfully":true},{"note":46,"velocity":93,"hitTime":2384,"closestNoteTime":2400,"hitSuccessfully":true},{"note":38,"velocity":93,"hitTime":2864,"closestNoteTime":2880,"hitSuccessfully":true},{"note":46,"velocity":84,"hitTime":2880,"closestNoteTime":2880,"hitSuccessfully":true},{"note":46,"velocity":77,"hitTime":3336,"closestNoteTime":3360,"hitSuccessfully":true},{"note":36,"velocity":80,"hitTime":3800,"closestNoteTime":3840,"hitSuccessfully":true},{"note":46,"velocity":90,"hitTime":4256,"closestNoteTime":4320,"hitSuccessfully":true},{"note":46,"velocity":93,"hitTime":4736,"closestNoteTime":4800,"hitSuccessfully":true},{"note":38,"velocity":94,"hitTime":4752,"closestNoteTime":4800,"hitSuccessfully":true},{"note":46,"velocity":88,"hitTime":5184,"closestNoteTime":5280,"hitSuccessfully":true},{"note":46,"velocity":82,"hitTime":5648,"closestNoteTime":5760,"hitSuccessfully":true},{"note":36,"velocity":80,"hitTime":5648,"closestNoteTime":5760,"hitSuccessfully":true},{"note":46,"velocity":89,"hitTime":6104,"closestNoteTime":6240,"hitSuccessfully":true},{"note":46,"velocity":97,"hitTime":6584,"closestNoteTime":6720,"hitSuccessfully":true},{"note":38,"velocity":94,"hitTime":6600,"closestNoteTime":6720,"hitSuccessfully":true},{"note":46,"velocity":83,"hitTime":7032,"closestNoteTime":7200,"hitSuccessfully":false},{"note":46,"velocity":93,"hitTime":7560,"closestNoteTime":7680,"hitSuccessfully":true},{"note":36,"velocity":82,"hitTime":7560,"closestNoteTime":7680,"hitSuccessfully":true},{"note":46,"velocity":87,"hitTime":8072,"closestNoteTime":8160,"hitSuccessfully":true},{"note":46,"velocity":93,"hitTime":8552,"closestNoteTime":8640,"hitSuccessfully":true},{"note":38,"velocity":100,"hitTime":8552,"closestNoteTime":8640,"hitSuccessfully":true},{"note":46,"velocity":82,"hitTime":9048,"closestNoteTime":9120,"hitSuccessfully":true},{"note":36,"velocity":76,"hitTime":9544,"closestNoteTime":9600,"hitSuccessfully":true},{"note":46,"velocity":80,"hitTime":9544,"closestNoteTime":9600,"hitSuccessfully":true},{"note":46,"velocity":84,"hitTime":10016,"closestNoteTime":10080,"hitSuccessfully":true},{"note":38,"velocity":94,"hitTime":10536,"closestNoteTime":10560,"hitSuccessfully":true},{"note":46,"velocity":94,"hitTime":10552,"closestNoteTime":10560,"hitSuccessfully":true},{"note":46,"velocity":89,"hitTime":11016,"closestNoteTime":11040,"hitSuccessfully":true},{"note":36,"velocity":82,"hitTime":11512,"closestNoteTime":11520,"hitSuccessfully":true},{"note":46,"velocity":95,"hitTime":11528,"closestNoteTime":11520,"hitSuccessfully":true},{"note":46,"velocity":88,"hitTime":11992,"closestNoteTime":12000,"hitSuccessfully":true},{"note":38,"velocity":91,"hitTime":12488,"closestNoteTime":12480,"hitSuccessfully":true},{"note":46,"velocity":98,"hitTime":12488,"closestNoteTime":12480,"hitSuccessfully":true},{"note":46,"velocity":93,"hitTime":12984,"closestNoteTime":12960,"hitSuccessfully":true},{"note":36,"velocity":82,"hitTime":13480,"closestNoteTime":13440,"hitSuccessfully":true},{"note":46,"velocity":100,"hitTime":13496,"closestNoteTime":13440,"hitSuccessfully":true},{"note":46,"velocity":93,"hitTime":13952,"closestNoteTime":13920,"hitSuccessfully":true},{"note":38,"velocity":104,"hitTime":14432,"closestNoteTime":14400,"hitSuccessfully":true},{"note":46,"velocity":96,"hitTime":14448,"closestNoteTime":14400,"hitSuccessfully":true},{"note":46,"velocity":82,"hitTime":14912,"closestNoteTime":14880,"hitSuccessfully":true}]}