{"frames":[{"note":46,"velocity":88,"hitTime":112,"closestNoteTime":0,"hitSuccessfully":true},{"note":46,"velocity":86,"hitTime":568,"closestNoteTime":480,"hitSuccessfully":true},{"note":46,"velocity":89,"hitTime":1024,"closestNoteTime":960,"hitSuccessfully":true},{"note":38,"velocity":83,"hitTime":1064,"closestNoteTime":960,"hitSuccessfully":true},{"note":38,"velocity":72,"hitTime":1088,"closestNoteTime":2880,"hitSuccessfully":false},{"note":46,"velocity":88,"hitTime":1496,"closestNoteTime":1440,"hitSuccessfully":true},{"note":46,"velocity":84,"hitTime":1976,"closestNoteTime":1920,"hitSuccessfully":true},{"note":46,"velocity":87,"hitTime":2432,"closestNoteTime":2400,"hitSuccessfully":true},{"note":38,"velocity":84,"hitTime":2888,"closestNoteTime":2880,"hitSuccessfully":true},{"note":46,"velocity":96,"hitTime":3352,"closestNoteTime":3360,"hitSuccessfully":true},{"note":46,"velocity":91,"hitTime":3792,"closestNoteTime":3840,"hitSuccessfully":true},{"note":46,"velocity":87,"hitTime":4288,"closestNoteTime":4320,"hitSuccessfully":true},{"note":38,"velocity":82,"hitTime":4784,"closestNoteTime":4800,"hitSuccessfully":true},{"note":38,"velocity":37,"hitTime":4864,"closestNoteTime":6720,"hitSuccessfully":false},{"note":46,"velocity":96,"hitTime":5256,"closestNoteTime":5280,"hitSuccessfully":true},{"note":46,"velocity":91,"hitTime":5680,"closestNoteTime":5760,"hitSuccessfully":true},{"note":46,"velocity":89,"hitTime":6176,"closestNoteTime":6240,"hitSuccessfully":true},{"note":46,"velocity":97,"hitTime":6688,"closestNoteTime":6720,"hitSuccessfully":true},{"note":46,"velocity":93,"hitTime":7168,"closestNoteTime":7200,"hitSuccessfully":true},{"note":46,"velocity":88,"hitTime":7648,"closestNoteTime":7680,"hitSuccessfully":true},{"note":46,"velocity":87,"hitTime":8160,"closestNoteTime":8160,"hitSuccessfully":true},{"note":38,"velocity":79,"hitTime":8656,"closestNoteTime":8640,"hitSuccessfully":true},{"note":38,"velocity":26,"hitTime":8704,"closestNoteTime":10560,"hitSuccessfully":false},{"note":46,"velocity":85,"hitTime":9064,"closestNoteTime":9120,"hitSuccessfully":true},{"note":46,"velocity":95,"hitTime":9560,"closestNoteTime":9600,"hitSuccessfully":true},{"note":46,"velocity":91,"hitTime":10032,"closestNoteTime":10080,"hitSuccessfully":true},{"note":38,"velocity":86,"hitTime":10552,"closestNoteTime":10560,"hitSuccessfully":true},{"note":46,"velocity":100,"hitTime":10552,"closestNoteTime":10560,"hitSuccessfully":true},{"note":38,"velocity":41,"hitTime":10608,"closestNoteTime":12480,"hitSuccessfully":false},{"note":46,"velocity":94,"hitTime":11024,"closestNoteTime":11040,"hitSuccessfully":true},{"note":46,"velocity":93,"hitTime":11504,"closestNoteTime":11520,"hitSuccessfully":true},{"note":46,"velocity":94,"hitTime":12024,"closestNoteTime":12000,"hitSuccessfully":true},{"note":46,"velocity":99,"hitTime":12512,"closestNoteTime":12480,"hitSuccessfully":true},{"note":38,"velocity":82,"hitTime":12520,"closestNoteTime":12480,"hitSuccessfully":true},{"note":46,"velocity":95,"hitTime":12976,"closestNoteTime":12960,"hitSuccessfully":true},{"note":46,"velocity":94,"hitTime":13456,"closestNoteTime":13440,"hitSuccessfully":true},{"note":46,"velocity":91,"hitTime":13968,"closestNoteTime":13920,"hitSuccessfully":true},{"note":46,"velocity":76,"hitTime":14008,"closestNoteTime":14400,"hitSuccessfully":false},{"note":38,"velocity":78,"hitTime":14448,"closestNoteTime":14400,"hitSuccessfully":true},{"note":46,"velocity":97,"hitTime":14464,"closestNoteTime":14400,"hitSuccessfully":true},{"note":46,"velocity":97,"hitTime":14936,"closestNoteTime":14880,"hitSuccessfully":true}]}