{"frames":[{"note":36,"velocity":73,"hitTime":128,"closestNoteTime":0,"hitSuccessfully":true},{"note":46,"velocity":98,"hitTime":144,"closestNoteTime":0,"hitSuccessfully":true},{"note":46,"velocity":87,"hitTime":624,"closestNoteTime":480,"hitSuccessfully":true},{"note":38,"velocity":99,"hitTime":1120,"closestNoteTime":960,"hitSuccessfully":true},{"note":46,"velocity":106,"hitTime":1120,"closestNoteTime":960,"hitSuccessfully":true},{"note":46,"velocity":82,"hitTime":1616,"closestNoteTime":1440,"hitSuccessfully":true},{"note":46,"velocity":94,"hitTime":2080,"closestNoteTime":1920,"hitSuccessfully":true},{"note":36,"velocity":88,"hitTime":2080,"closestNoteTime":1920,"hitSuccessfully":true},{"note":46,"velocity":88,"hitTime":2592,"closestNoteTime":2400,"hitSuccessfully":true},{"note":38,"velocity":102,"hitTime":3040,"closestNoteTime":2880,"hitSuccessfully":true},{"note":46,"velocity":100,"hitTime":3040,"closestNoteTime":2880,"hitSuccessfully":true},{"note":46,"velocity":90,"hitTime":3552,"closestNoteTime":3360,"hitSuccessfully":true},{"note":36,"velocity":82,"hitTime":4000,"closestNoteTime":3840,"hitSuccessfully":true},{"note":46,"velocity":97,"hitTime":4032,"closestNoteTime":3840,"hitSuccessfully":true},{"note":46,"velocity":91,"hitTime":4480,"closestNoteTime":4320,"hitSuccessfully":true},{"note":38,"velocity":93,"hitTime":4944,"closestNoteTime":4800,"hitSuccessfully":true},{"note":46,"velocity":108,"hitTime":4944,"closestNoteTime":4800,"hitSuccessfully":true},{"note":46,"velocity":87,"hitTime":5424,"closestNoteTime":5280,"hitSuccessfully":true},{"note":46,"velocity":99,"hitTime":5872,"closestNoteTime":5760,"hitSuccessfully":true},{"note":36,"velocity":67,"hitTime":5904,"closestNoteTime":5760,"hitSuccessfully":true},{"note":46,"velocity":94,"hitTime":6368,"closestNoteTime":6240,"hitSuccessfully":true},{"note":38,"velocity":107,"hitTime":6848,"closestNoteTime":6720,"hitSuccessfully":true},{"note":46,"velocity":105,"hitTime":6864,"closestNoteTime":6720,"hitSuccessfully":true},{"note":46,"velocity":93,"hitTime":7328,"closestNoteTime":7200,"hitSuccessfully":true},{"note":36,"velocity":69,"hitTime":7776,"closestNoteTime":7680,"hitSuccessfully":true},{"note":46,"velocity":94,"hitTime":7808,"closestNoteTime":7680,"hitSuccessfully":true},{"note":46,"velocity":83,"hitTime":8320,"closestNoteTime":8160,"hitSuccessfully":true},{"note":38,"velocity":94,"hitTime":8768,"closestNoteTime":8640,"hitSuccessfully":true},{"note":46,"velocity":101,"hitTime":8800,"closestNoteTime":8640,"hitSuccessfully":true},{"note":46,"velocity":88,"hitTime":9280,"closestNoteTime":9120,"hitSuccessfully":true},{"note":36,"velocity":71,"hitTime":9712,"closestNoteTime":9600,"hitSuccessfully":true},{"note":46,"velocity":100,"hitTime":9728,"closestNoteTime":9600,"hitSuccessfully":true},{"note":46,"velocity":88,"hitTime":10224,"closestNoteTime":10080,"hitSuccessfully":true},{"note":38,"velocity":98,"hitTime":10672,"closestNoteTime":10560,"hitSuccessfully":true},{"note":46,"velocity":104,"hitTime":10672,"closestNoteTime":10560,"hitSuccessfully":true},{"note":46,"velocity":97,"hitTime":11152,"closestNoteTime":11040,"hitSuccessfully":true},{"note":36,"velocity":85,"hitTime":11632,"closestNoteTime":11520,"hitSuccessfully":true},{"note":46,"velocity":100,"hitTime":11664,"closestNoteTime":11520,"hitSuccessfully":true},{"note":46,"velocity":88,"hitTime":12112,"closestNoteTime":12000,"hitSuccessfully":true},{"note":38,"velocity":100,"hitTime":12576,"closestNoteTime":12480,"hitSuccessfully":true},{"note":46,"velocity":99,"hitTime":12592,"closestNoteTime":12480,"hitSuccessfully":true},{"note":46,"velocity":93,"hitTime":13056,"closestNoteTime":12960,"hitSuccessfully":true},{"note":46,"velocity":97,"hitTime":13568,"closestNoteTime":13440,"hitSuccessfully":true},{"note":36,"velocity":70,"hitTime":13568,"closestNoteTime":13440,"hitSuccessfully":true},{"note":46,"velocity":80,"hitTime":14048,"closestNoteTime":13920,"hitSuccessfully":true},{"note":38,"velocity":97,"hitTime":14496,"closestNoteTime":14400,"hitSuccessfully":true},{"note":46,"velocity":91,"hitTime":14976,"closestNoteTime":14880,"hitSuccessfully":true},{"note":36,"velocity":66,"hitTime":15408,"closestNoteTime":15360,"hitSuccessfully":true},{"note":46,"velocity":95,"hitTime":15472,"closestNoteTime":15360,"hitSuccessfully":true},{"note":46,"velocity":90,"hitTime":15920,"closestNoteTime":15840,"hitSuccessfully":true},{"note":46,"velocity":104,"hitTime":16400,"closestNoteTime":16320,"hitSuccessfully":true},{"note":38,"velocity":86,"hitTime":16400,"closestNoteTime":16320,"hitSuccessfully":true},{"note":46,"velocity":88,"hitTime":16912,"closestNoteTime":16800,"hitSuccessfully":true},{"note":36,"velocity":66,"hitTime":17344,"closestNoteTime":17280,"hitSuccessfully":true},{"note":46,"velocity":94,"hitTime":17360,"closestNoteTime":17280,"hitSuccessfully":true},{"note":46,"velocity":94,"hitTime":17872,"closestNoteTime":17760,"hitSuccessfully":true},{"note":46,"velocity":104,"hitTime":18320,"closestNoteTime":18240,"hitSuccessfully":true},{"note":38,"velocity":93,"hitTime":18320,"closestNoteTime":18240,"hitSuccessfully":true},{"note":46,"velocity":91,"hitTime":18800,"closestNoteTime":18720,"hitSuccessfully":true},{"note":36,"velocity":64,"hitTime":19264,"closestNoteTime":19200,"hitSuccessfully":true},{"note":46,"velocity":97,"hitTime":19280,"closestNoteTime":19200,"hitSuccessfully":true},{"note":46,"velocity":85,"hitTime":19776,"closestNoteTime":19680,"hitSuccessfully":true},{"note":38,"velocity":93,"hitTime":20224,"closestNoteTime":20160,"hitSuccessfully":true},{"note":46,"velocity":99,"hitTime":20224,"closestNoteTime":20160,"hitSuccessfully":true},{"note":46,"velocity":93,"hitTime":20704,"closestNoteTime":20640,"hitSuccessfully":true},{"note":36,"velocity":66,"hitTime":21184,"closestNoteTime":21120,"hitSuccessfully":true},{"note":46,"velocity":96,"hitTime":21216,"closestNoteTime":21120,"hitSuccessfully":true},{"note":46,"velocity":86,"hitTime":21680,"closestNoteTime":21600,"hitSuccessfully":true},{"note":38,"velocity":101,"hitTime":22128,"closestNoteTime":22080,"hitSuccessfully":true},{"note":46,"velocity":104,"hitTime":22160,"closestNoteTime":22080,"hitSuccessfully":true},{"note":46,"velocity":88,"hitTime":22640,"closestNoteTime":22560,"hitSuccessfully":true},{"note":36,"velocity":67,"hitTime":23088,"closestNoteTime":23040,"hitSuccessfully":true},{"note":46,"velocity":99,"hitTime":23120,"closestNoteTime":23040,"hitSuccessfully":true},{"note":46,"velocity":86,"hitTime":23600,"closestNoteTime":23520,"hitSuccessfully":true},{"note":38,"velocity":103,"hitTime":24048,"closestNoteTime":24000,"hitSuccessfully":true},{"note":46,"velocity":98,"hitTime":24080,"closestNoteTime":24000,"hitSuccessfully":true},{"note":46,"velocity":77,"hitTime":24512,"closestNoteTime":24480,"hitSuccessfully":true},{"note":46,"velocity":94,"hitTime":24992,"closestNoteTime":24960,"hitSuccessfully":true},{"note":46,"velocity":87,"hitTime":25472,"closestNoteTime":25440,"hitSuccessfully":true},{"note":38,"velocity":98,"hitTime":25952,"closestNoteTime":25920,"hitSuccessfully":true},{"note":46,"velocity":100,"hitTime":25984,"closestNoteTime":25920,"hitSuccessfully":true},{"note":46,"velocity":91,"hitTime":26496,"closestNoteTime":26400,"hitSuccessfully":true},{"note":36,"velocity":82,"hitTime":26944,"closestNoteTime":26880,"hitSuccessfully":true},{"note":46,"velocity":95,"hitTime":26944,"closestNoteTime":26880,"hitSuccessfully":true},{"note":46,"velocity":86,"hitTime":27440,"closestNoteTime":27360,"hitSuccessfully":true},{"note":46,"velocity":100,"hitTime":27904,"closestNoteTime":27840,"hitSuccessfully":true},{"note":38,"velocity":95,"hitTime":27936,"closestNoteTime":27840,"hitSuccessfully":true},{"note":46,"velocity":93,"hitTime":28416,"closestNoteTime":28320,"hitSuccessfully":true},{"note":36,"velocity":79,"hitTime":28912,"closestNoteTime":28800,"hitSuccessfully":true},{"note":46,"velocity":96,"hitTime":28960,"closestNoteTime":28800,"hitSuccessfully":true},{"note":46,"velocity":93,"hitTime":29408,"closestNoteTime":29280,"hitSuccessfully":true},{"note":46,"velocity":104,"hitTime":29920,"closestNoteTime":29760,"hitSuccessfully":true},{"note":38,"velocity":104,"hitTime":29920,"closestNoteTime":29760,"hitSuccessfully":true},{"note":46,"velocity":88,"hitTime":30400,"closestNoteTime":30240,"hitSuccessfully":true}]}