{"frames":[{"note":46,"velocity":91,"hitTime":56,"closestNoteTime":0,"hitSuccessfully":true},{"note":46,"velocity":88,"hitTime":512,"closestNoteTime":480,"hitSuccessfully":true},{"note":38,"velocity":94,"hitTime":984,"closestNoteTime":960,"hitSuccessfully":true},{"note":46,"velocity":99,"hitTime":984,"closestNoteTime":960,"hitSuccessfully":true},{"note":46,"velocity":88,"hitTime":1440,"closestNoteTime":1440,"hitSuccessfully":true},{"note":46,"velocity":99,"hitTime":1928,"closestNoteTime":1920,"hitSuccessfully":true},{"note":46,"velocity":94,"hitTime":2384,"closestNoteTime":2400,"hitSuccessfully":true},{"note":46,"velocity":101,"hitTime":2864,"closestNoteTime":2880,"hitSuccessfully":true},{"note":46,"velocity":91,"hitTime":3336,"closestNoteTime":3360,"hitSuccessfully":true},{"note":46,"velocity":91,"hitTime":3792,"closestNoteTime":3840,"hitSuccessfully":true},{"note":46,"velocity":91,"hitTime":4296,"closestNoteTime":4320,"hitSuccessfully":true},{"note":38,"velocity":87,"hitTime":4768,"closestNoteTime":4800,"hitSuccessfully":true},{"note":46,"velocity":100,"hitTime":4784,"closestNoteTime":4800,"hitSuccessfully":true},{"note":46,"velocity":93,"hitTime":5240,"closestNoteTime":5280,"hitSuccessfully":true},{"note":46,"velocity":91,"hitTime":5720,"closestNoteTime":5760,"hitSuccessfully":true},{"note":46,"velocity":93,"hitTime":6200,"closestNoteTime":6240,"hitSuccessfully":true},{"note":38,"velocity":86,"hitTime":6672,"closestNoteTime":6720,"hitSuccessfully":true},{"note":46,"velocity":102,"hitTime":6680,"closestNoteTime":6720,"hitSuccessfully":true},{"note":46,"velocity":89,"hitTime":7168,"closestNoteTime":7200,"hitSuccessfully":true},{"note":46,"velocity":93,"hitTime":7640,"closestNoteTime":7680,"hitSuccessfully":true},{"note":46,"velocity":91,"hitTime":8128,"closestNoteTime":8160,"hitSuccessfully":true},{"note":46,"velocity":101,"hitTime":8584,"closestNoteTime":8640,"hitSuccessfully":true},{"note":46,"velocity":91,"hitTime":9048,"closestNoteTime":9120,"hitSuccessfully":true},{"note":46,"velocity":90,"hitTime":9536,"closestNoteTime":9600,"hitSuccessfully":true},{"note":46,"velocity":91,"hitTime":10016,"closestNoteTime":10080,"hitSuccessfully":true},{"note":38,"velocity":80,"hitTime":10512,"closestNoteTime":10560,"hitSuccessfully":true},{"note":46,"velocity":100,"hitTime":10512,"closestNoteTime":10560,"hitSuccessfully":true},{"note":46,"velocity":91,"hitTime":10992,"closestNoteTime":11040,"hitSuccessfully":true},{"note":46,"velocity":91,"hitTime":11448,"closestNoteTime":11520,"hitSuccessfully":true},{"note":46,"velocity":95,"hitTime":11944,"closestNoteTime":12000,"hitSuccessfully":true},{"note":46,"velocity":97,"hitTime":12480,"closestNoteTime":12480,"hitSuccessfully":true},{"note":38,"velocity":84,"hitTime":12504,"closestNoteTime":12480,"hitSuccessfully":true},{"note":46,"velocity":97,"hitTime":12960,"closestNoteTime":12960,"hitSuccessfully":true},{"note":46,"velocity":93,"hitTime":13416,"closestNoteTime":13440,"hitSuccessfully":true},{"note":46,"velocity":91,"hitTime":13896,"closestNoteTime":13920,"hitSuccessfully":true},{"note":38,"velocity":90,"hitTime":14352,"closestNoteTime":14400,"hitSuccessfully":true},{"note":46,"velocity":101,"hitTime":14384,"closestNoteTime":14400,"hitSuccessfully":true},{"note":46,"velocity":91,"hitTime":14848,"closestNoteTime":14880,"hitSuccessfully":true}]}