{"frames":[{"note":46,"velocity":97,"hitTime":64,"closestNoteTime":0,"hitSuccessfully":true},{"note":36,"velocity":52,"hitTime":80,"closestNoteTime":0,"hitSuccessfully":true},{"note":46,"velocity":99,"hitTime":528,"closestNoteTime":480,"hitSuccessfully":true},{"note":46,"velocity":97,"hitTime":1000,"closestNoteTime":960,"hitSuccessfully":true},{"note":46,"velocity":77,"hitTime":1024,"closestNoteTime":1440,"hitSuccessfully":false},{"note":46,"velocity":103,"hitTime":1472,"closestNoteTime":1440,"hitSuccessfully":true},{"note":46,"velocity":106,"hitTime":1968,"closestNoteTime":1920,"hitSuccessfully":true},{"note":36,"velocity":58,"hitTime":1968,"closestNoteTime":1920,"hitSuccessfully":true},{"note":46,"velocity":100,"hitTime":2416,"closestNoteTime":2400,"hitSuccessfully":true},{"note":46,"velocity":101,"hitTime":2912,"closestNoteTime":2880,"hitSuccessfully":true},{"note":46,"velocity":95,"hitTime":3400,"closestNoteTime":3360,"hitSuccessfully":true},{"note":36,"velocity":50,"hitTime":3896,"closestNoteTime":3840,"hitSuccessfully":true},{"note":46,"velocity":109,"hitTime":3904,"closestNoteTime":3840,"hitSuccessfully":true},{"note":46,"velocity":99,"hitTime":4360,"closestNoteTime":4320,"hitSuccessfully":true},{"note":46,"velocity":100,"hitTime":4856,"closestNoteTime":4800,"hitSuccessfully":true},{"note":46,"velocity":101,"hitTime":5296,"closestNoteTime":5280,"hitSuccessfully":true},{"note":46,"velocity":99,"hitTime":5792,"closestNoteTime":5760,"hitSuccessfully":true},{"note":46,"velocity":79,"hitTime":5832,"closestNoteTime":6240,"hitSuccessfully":false},{"note":46,"velocity":112,"hitTime":6288,"closestNoteTime":6240,"hitSuccessfully":true},{"note":36,"velocity":74,"hitTime":6328,"closestNoteTime":5760,"hitSuccessfully":false},{"note":46,"velocity":102,"hitTime":6800,"closestNoteTime":6720,"hitSuccessfully":true},{"note":46,"velocity":102,"hitTime":7248,"closestNoteTime":7200,"hitSuccessfully":true},{"note":46,"velocity":108,"hitTime":7760,"closestNoteTime":7680,"hitSuccessfully":true},{"note":36,"velocity":44,"hitTime":7784,"closestNoteTime":7680,"hitSuccessfully":true},{"note":46,"velocity":104,"hitTime":8256,"closestNoteTime":8160,"hitSuccessfully":true},{"note":46,"velocity":100,"hitTime":8696,"closestNoteTime":8640,"hitSuccessfully":true},{"note":46,"velocity":106,"hitTime":9152,"closestNoteTime":9120,"hitSuccessfully":true},{"note":46,"velocity":109,"hitTime":9664,"closestNoteTime":9600,"hitSuccessfully":true},{"note":46,"velocity":103,"hitTime":9688,"closestNoteTime":10080,"hitSuccessfully":false},{"note":46,"velocity":94,"hitTime":10184,"closestNoteTime":10080,"hitSuccessfully":true},{"note":46,"velocity":100,"hitTime":10640,"closestNoteTime":10560,"hitSuccessfully":true},{"note":46,"velocity":112,"hitTime":11080,"closestNoteTime":11040,"hitSuccessfully":true},{"note":36,"velocity":39,"hitTime":11096,"closestNoteTime":11520,"hitSuccessfully":false},{"note":46,"velocity":102,"hitTime":11592,"closestNoteTime":11520,"hitSuccessfully":true},{"note":46,"velocity":102,"hitTime":12088,"closestNoteTime":12000,"hitSuccessfully":true},{"note":46,"velocity":103,"hitTime":12568,"closestNoteTime":12480,"hitSuccessfully":true},{"note":46,"velocity":102,"hitTime":13032,"closestNoteTime":12960,"hitSuccessfully":true},{"note":46,"velocity":79,"hitTime":13072,"closestNoteTime":13440,"hitSuccessfully":false},{"note":36,"velocity":55,"hitTime":13440,"closestNoteTime":13440,"hitSuccessfully":true},{"note":46,"velocity":107,"hitTime":13448,"closestNoteTime":13440,"hitSuccessfully":true},{"note":46,"velocity":93,"hitTime":13472,"closestNoteTime":13920,"hitSuccessfully":false},{"note":46,"velocity":105,"hitTime":13944,"closestNoteTime":13920,"hitSuccessfully":true},{"note":46,"velocity":103,"hitTime":14440,"closestNoteTime":14400,"hitSuccessfully":true},{"note":46,"velocity":108,"hitTime":14936,"closestNoteTime":14880,"hitSuccessfully":true}]}