{"frames":[{"note":36,"velocity":91,"hitTime":96,"closestNoteTime":0,"hitSuccessfully":true},{"note":46,"velocity":88,"hitTime":128,"closestNoteTime":0,"hitSuccessfully":true},{"note":46,"velocity":77,"hitTime":560,"closestNoteTime":480,"hitSuccessfully":true},{"note":46,"velocity":91,"hitTime":1040,"closestNoteTime":960,"hitSuccessfully":true},{"note":38,"velocity":109,"hitTime":1072,"closestNoteTime":960,"hitSuccessfully":true},{"note":46,"velocity":77,"hitTime":1552,"closestNoteTime":1440,"hitSuccessfully":true},{"note":36,"velocity":83,"hitTime":2000,"closestNoteTime":1920,"hitSuccessfully":true},{"note":46,"velocity":91,"hitTime":2000,"closestNoteTime":1920,"hitSuccessfully":true},{"note":46,"velocity":67,"hitTime":2512,"closestNoteTime":2400,"hitSuccessfully":true},{"note":38,"velocity":96,"hitTime":2960,"closestNoteTime":2880,"hitSuccessfully":true},{"note":46,"velocity":91,"hitTime":2992,"closestNoteTime":2880,"hitSuccessfully":true},{"note":46,"velocity":79,"hitTime":3472,"closestNoteTime":3360,"hitSuccessfully":true},{"note":46,"velocity":86,"hitTime":3936,"closestNoteTime":3840,"hitSuccessfully":true},{"note":36,"velocity":96,"hitTime":3952,"closestNoteTime":3840,"hitSuccessfully":true},{"note":46,"velocity":77,"hitTime":4416,"closestNoteTime":4320,"hitSuccessfully":true},{"note":46,"velocity":98,"hitTime":4864,"closestNoteTime":4800,"hitSuccessfully":true},{"note":38,"velocity":109,"hitTime":4896,"closestNoteTime":4800,"hitSuccessfully":true},{"note":46,"velocity":75,"hitTime":5344,"closestNoteTime":5280,"hitSuccessfully":true},{"note":36,"velocity":76,"hitTime":5824,"closestNoteTime":5760,"hitSuccessfully":true},{"note":46,"velocity":90,"hitTime":5824,"closestNoteTime":5760,"hitSuccessfully":true},{"note":46,"velocity":70,"hitTime":6336,"closestNoteTime":6240,"hitSuccessfully":true},{"note":46,"velocity":91,"hitTime":6768,"closestNoteTime":6720,"hitSuccessfully":true},{"note":38,"velocity":103,"hitTime":6800,"closestNoteTime":6720,"hitSuccessfully":true},{"note":46,"velocity":75,"hitTime":7248,"closestNoteTime":7200,"hitSuccessfully":true},{"note":36,"velocity":88,"hitTime":7712,"closestNoteTime":7680,"hitSuccessfully":true},{"note":46,"velocity":85,"hitTime":7712,"closestNoteTime":7680,"hitSuccessfully":true},{"note":46,"velocity":82,"hitTime":8160,"closestNoteTime":8160,"hitSuccessfully":true},{"note":46,"velocity":91,"hitTime":8640,"closestNoteTime":8640,"hitSuccessfully":true},{"note":38,"velocity":99,"hitTime":8672,"closestNoteTime":8640,"hitSuccessfully":true},{"note":46,"velocity":82,"hitTime":9184,"closestNoteTime":9120,"hitSuccessfully":true},{"note":46,"velocity":88,"hitTime":9664,"closestNoteTime":9600,"hitSuccessfully":true},{"note":36,"velocity":86,"hitTime":9680,"closestNoteTime":9600,"hitSuccessfully":true},{"note":46,"velocity":76,"hitTime":10112,"closestNoteTime":10080,"hitSuccessfully":true},{"note":38,"velocity":112,"hitTime":10624,"closestNoteTime":10560,"hitSuccessfully":true},{"note":46,"velocity":93,"hitTime":10624,"closestNoteTime":10560,"hitSuccessfully":true},{"note":46,"velocity":80,"hitTime":11072,"closestNoteTime":11040,"hitSuccessfully":true},{"note":36,"velocity":78,"hitTime":11584,"closestNoteTime":11520,"hitSuccessfully":true},{"note":46,"velocity":93,"hitTime":11584,"closestNoteTime":11520,"hitSuccessfully":true},{"note":46,"velocity":79,"hitTime":12096,"closestNoteTime":12000,"hitSuccessfully":true},{"note":46,"velocity":94,"hitTime":12544,"closestNoteTime":12480,"hitSuccessfully":true},{"note":38,"velocity":110,"hitTime":12576,"closestNoteTime":12480,"hitSuccessfully":true},{"note":46,"velocity":80,"hitTime":13008,"closestNoteTime":12960,"hitSuccessfully":true},{"note":36,"velocity":88,"hitTime":13488,"closestNoteTime":13440,"hitSuccessfully":true},{"note":46,"velocity":90,"hitTime":13520,"closestNoteTime":13440,"hitSuccessfully":true},{"note":46,"velocity":82,"hitTime":14000,"closestNoteTime":13920,"hitSuccessfully":true},{"note":46,"velocity":93,"hitTime":14448,"closestNoteTime":14400,"hitSuccessfully":true},{"note":38,"velocity":109,"hitTime":14480,"closestNoteTime":14400,"hitSuccessfully":true},{"note":46,"velocity":84,"hitTime":14928,"closestNoteTime":14880,"hitSuccessfully":true},{"note":36,"velocity":85,"hitTime":15360,"closestNoteTime":15360,"hitSuccessfully":true},{"note":46,"velocity":86,"hitTime":15392,"closestNoteTime":15360,"hitSuccessfully":true},{"note":46,"velocity":77,"hitTime":15872,"closestNoteTime":15840,"hitSuccessfully":true},{"note":38,"velocity":107,"hitTime":16352,"closestNoteTime":16320,"hitSuccessfully":true},{"note":46,"velocity":88,"hitTime":16352,"closestNoteTime":16320,"hitSuccessfully":true},{"note":46,"velocity":85,"hitTime":16864,"closestNoteTime":16800,"hitSuccessfully":true},{"note":36,"velocity":80,"hitTime":17312,"closestNoteTime":17280,"hitSuccessfully":true},{"note":46,"velocity":90,"hitTime":17344,"closestNoteTime":17280,"hitSuccessfully":true},{"note":46,"velocity":80,"hitTime":17824,"closestNoteTime":17760,"hitSuccessfully":true},{"note":46,"velocity":91,"hitTime":18304,"closestNoteTime":18240,"hitSuccessfully":true},{"note":38,"velocity":112,"hitTime":18304,"closestNoteTime":18240,"hitSuccessfully":true},{"note":46,"velocity":79,"hitTime":18784,"closestNoteTime":18720,"hitSuccessfully":true},{"note":36,"velocity":83,"hitTime":19216,"closestNoteTime":19200,"hitSuccessfully":true},{"note":46,"velocity":90,"hitTime":19248,"closestNoteTime":19200,"hitSuccessfully":true},{"note":46,"velocity":76,"hitTime":19728,"closestNoteTime":19680,"hitSuccessfully":true},{"note":38,"velocity":110,"hitTime":20176,"closestNoteTime":20160,"hitSuccessfully":true},{"note":46,"velocity":94,"hitTime":20208,"closestNoteTime":20160,"hitSuccessfully":true},{"note":46,"velocity":79,"hitTime":20688,"closestNoteTime":20640,"hitSuccessfully":true},{"note":36,"velocity":86,"hitTime":21152,"closestNoteTime":21120,"hitSuccessfully":true},{"note":46,"velocity":91,"hitTime":21168,"closestNoteTime":21120,"hitSuccessfully":true},{"note":46,"velocity":74,"hitTime":21648,"closestNoteTime":21600,"hitSuccessfully":true},{"note":46,"velocity":99,"hitTime":22112,"closestNoteTime":22080,"hitSuccessfully":true},{"note":38,"velocity":113,"hitTime":22112,"closestNoteTime":22080,"hitSuccessfully":true},{"note":46,"velocity":75,"hitTime":22592,"closestNoteTime":22560,"hitSuccessfully":true},{"note":36,"velocity":86,"hitTime":23040,"closestNoteTime":23040,"hitSuccessfully":true},{"note":46,"velocity":91,"hitTime":23072,"closestNoteTime":23040,"hitSuccessfully":true},{"note":46,"velocity":72,"hitTime":23536,"closestNoteTime":23520,"hitSuccessfully":true},{"note":46,"velocity":95,"hitTime":24032,"closestNoteTime":24000,"hitSuccessfully":true},{"note":38,"velocity":112,"hitTime":24032,"closestNoteTime":24000,"hitSuccessfully":true},{"note":46,"velocity":82,"hitTime":24496,"closestNoteTime":24480,"hitSuccessfully":true},{"note":46,"velocity":88,"hitTime":25008,"closestNoteTime":24960,"hitSuccessfully":true},{"note":36,"velocity":93,"hitTime":25008,"closestNoteTime":24960,"hitSuccessfully":true},{"note":46,"velocity":79,"hitTime":25488,"closestNoteTime":25440,"hitSuccessfully":true},{"note":46,"velocity":91,"hitTime":25968,"closestNoteTime":25920,"hitSuccessfully":true},{"note":38,"velocity":105,"hitTime":26000,"closestNoteTime":25920,"hitSuccessfully":true},{"note":46,"velocity":95,"hitTime":26960,"closestNoteTime":26880,"hitSuccessfully":true},{"note":36,"velocity":101,"hitTime":26960,"closestNoteTime":26880,"hitSuccessfully":true},{"note":46,"velocity":93,"hitTime":27440,"closestNoteTime":27360,"hitSuccessfully":true},{"note":46,"velocity":104,"hitTime":27888,"closestNoteTime":27840,"hitSuccessfully":true},{"note":38,"velocity":109,"hitTime":27888,"closestNoteTime":27840,"hitSuccessfully":true},{"note":46,"velocity":94,"hitTime":28352,"closestNoteTime":28320,"hitSuccessfully":true},{"note":46,"velocity":93,"hitTime":28832,"closestNoteTime":28800,"hitSuccessfully":true},{"note":36,"velocity":97,"hitTime":28832,"closestNoteTime":28800,"hitSuccessfully":true},{"note":46,"velocity":88,"hitTime":29312,"closestNoteTime":29280,"hitSuccessfully":true},{"note":46,"velocity":104,"hitTime":29760,"closestNoteTime":29760,"hitSuccessfully":true},{"note":38,"velocity":109,"hitTime":29792,"closestNoteTime":29760,"hitSuccessfully":true},{"note":46,"velocity":94,"hitTime":30272,"closestNoteTime":30240,"hitSuccessfully":true}]}