{"frames":[{"note":36,"velocity":36,"hitTime":0,"closestNoteTime":0,"hitSuccessfully":true},{"note":46,"velocity":12,"hitTime":0,"closestNoteTime":0,"hitSuccessfully":true},{"note":46,"velocity":7,"hitTime":480,"closestNoteTime":480,"hitSuccessfully":true},{"note":38,"velocity":79,"hitTime":960,"closestNoteTime":960,"hitSuccessfully":true},{"note":46,"velocity":18,"hitTime":960,"closestNoteTime":960,"hitSuccessfully":true},{"note":46,"velocity":13,"hitTime":1440,"closestNoteTime":1440,"hitSuccessfully":true},{"note":46,"velocity":10,"hitTime":1920,"closestNoteTime":1920,"hitSuccessfully":true},{"note":36,"velocity":35,"hitTime":1920,"closestNoteTime":1920,"hitSuccessfully":true},{"note":46,"velocity":5,"hitTime":2400,"closestNoteTime":2400,"hitSuccessfully":true},{"note":38,"velocity":75,"hitTime":2880,"closestNoteTime":2880,"hitSuccessfully":true},{"note":46,"velocity":17,"hitTime":2880,"closestNoteTime":2880,"hitSuccessfully":true},{"note":46,"velocity":10,"hitTime":3360,"closestNoteTime":3360,"hitSuccessfully":true},{"note":46,"velocity":16,"hitTime":3840,"closestNoteTime":3840,"hitSuccessfully":true},{"note":36,"velocity":31,"hitTime":3840,"closestNoteTime":3840,"hitSuccessfully":true},{"note":46,"velocity":7,"hitTime":4320,"closestNoteTime":4320,"hitSuccessfully":true},{"note":38,"velocity":79,"hitTime":4800,"closestNoteTime":4800,"hitSuccessfully":true},{"note":46,"velocity":17,"hitTime":4800,"closestNoteTime":4800,"hitSuccessfully":true},{"note":46,"velocity":11,"hitTime":5280,"closestNoteTime":5280,"hitSuccessfully":true},{"note":46,"velocity":16,"hitTime":5760,"closestNoteTime":5760,"hitSuccessfully":true},{"note":36,"velocity":32,"hitTime":5760,"closestNoteTime":5760,"hitSuccessfully":true},{"note":46,"velocity":4,"hitTime":6240,"closestNoteTime":6240,"hitSuccessfully":true},{"note":46,"velocity":18,"hitTime":6720,"closestNoteTime":6720,"hitSuccessfully":true},{"note":38,"velocity":79,"hitTime":6720,"closestNoteTime":6720,"hitSuccessfully":true},{"note":46,"velocity":12,"hitTime":7200,"closestNoteTime":7200,"hitSuccessfully":true},{"note":36,"velocity":31,"hitTime":7680,"closestNoteTime":7680,"hitSuccessfully":true},{"note":46,"velocity":16,"hitTime":7680,"closestNoteTime":7680,"hitSuccessfully":true},{"note":46,"velocity":10,"hitTime":8160,"closestNoteTime":8160,"hitSuccessfully":true},{"note":46,"velocity":16,"hitTime":8640,"closestNoteTime":8640,"hitSuccessfully":true},{"note":38,"velocity":78,"hitTime":8640,"closestNoteTime":8640,"hitSuccessfully":true},{"note":46,"velocity":5,"hitTime":9120,"closestNoteTime":9120,"hitSuccessfully":true},{"note":46,"velocity":15,"hitTime":9600,"closestNoteTime":9600,"hitSuccessfully":true},{"note":36,"velocity":31,"hitTime":9600,"closestNoteTime":9600,"hitSuccessfully":true},{"note":46,"velocity":14,"hitTime":10080,"closestNoteTime":10080,"hitSuccessfully":true},{"note":38,"velocity":78,"hitTime":10560,"closestNoteTime":10560,"hitSuccessfully":true},{"note":46,"velocity":19,"hitTime":10560,"closestNoteTime":10560,"hitSuccessfully":true},{"note":46,"velocity":7,"hitTime":11040,"closestNoteTime":11040,"hitSuccessfully":true},{"note":46,"velocity":15,"hitTime":11520,"closestNoteTime":11520,"hitSuccessfully":true},{"note":36,"velocity":27,"hitTime":11520,"closestNoteTime":11520,"hitSuccessfully":true},{"note":46,"velocity":10,"hitTime":12000,"closestNoteTime":12000,"hitSuccessfully":true},{"note":38,"velocity":78,"hitTime":12480,"closestNoteTime":12480,"hitSuccessfully":true},{"note":46,"velocity":15,"hitTime":12480,"closestNoteTime":12480,"hitSuccessfully":true},{"note":46,"velocity":6,"hitTime":12960,"closestNoteTime":12960,"hitSuccessfully":true},{"note":46,"velocity":12,"hitTime":13440,"closestNoteTime":13440,"hitSuccessfully":true},{"note":36,"velocity":26,"hitTime":13440,"closestNoteTime":13440,"hitSuccessfully":true},{"note":46,"velocity":11,"hitTime":13920,"closestNoteTime":13920,"hitSuccessfully":true},{"note":38,"velocity":80,"hitTime":14400,"closestNoteTime":14400,"hitSuccessfully":true},{"note":46,"velocity":16,"hitTime":14400,"closestNoteTime":14400,"hitSuccessfully":true},{"note":46,"velocity":8,"hitTime":14880,"closestNoteTime":14880,"hitSuccessfully":true},{"note":46,"velocity":15,"hitTime":15360,"closestNoteTime":15360,"hitSuccessfully":true},{"note":36,"velocity":30,"hitTime":15360,"closestNoteTime":15360,"hitSuccessfully":true},{"note":46,"velocity":9,"hitTime":15840,"closestNoteTime":15840,"hitSuccessfully":true},{"note":38,"velocity":76,"hitTime":16320,"closestNoteTime":16320,"hitSuccessfully":true},{"note":46,"velocity":17,"hitTime":16320,"closestNoteTime":16320,"hitSuccessfully":true},{"note":46,"velocity":7,"hitTime":16800,"closestNoteTime":16800,"hitSuccessfully":true},{"note":46,"velocity":16,"hitTime":17280,"closestNoteTime":17280,"hitSuccessfully":true},{"note":36,"velocity":32,"hitTime":17280,"closestNoteTime":17280,"hitSuccessfully":true},{"note":46,"velocity":7,"hitTime":17760,"closestNoteTime":17760,"hitSuccessfully":true},{"note":46,"velocity":18,"hitTime":18240,"closestNoteTime":18240,"hitSuccessfully":true},{"note":38,"velocity":80,"hitTime":18240,"closestNoteTime":18240,"hitSuccessfully":true},{"note":46,"velocity":7,"hitTime":18720,"closestNoteTime":18720,"hitSuccessfully":true},{"note":36,"velocity":31,"hitTime":19200,"closestNoteTime":19200,"hitSuccessfully":true},{"note":46,"velocity":17,"hitTime":19200,"closestNoteTime":19200,"hitSuccessfully":true},{"note":46,"velocity":13,"hitTime":19680,"closestNoteTime":19680,"hitSuccessfully":true},{"note":38,"velocity":81,"hitTime":20160,"closestNoteTime":20160,"hitSuccessfully":true},{"note":46,"velocity":16,"hitTime":20160,"closestNoteTime":20160,"hitSuccessfully":true},{"note":46,"velocity":6,"hitTime":20640,"closestNoteTime":20640,"hitSuccessfully":true},{"note":46,"velocity":11,"hitTime":21120,"closestNoteTime":21120,"hitSuccessfully":true},{"note":36,"velocity":31,"hitTime":21120,"closestNoteTime":21120,"hitSuccessfully":true},{"note":46,"velocity":7,"hitTime":21600,"closestNoteTime":21600,"hitSuccessfully":true},{"note":46,"velocity":18,"hitTime":22080,"closestNoteTime":22080,"hitSuccessfully":true},{"note":38,"velocity":78,"hitTime":22080,"closestNoteTime":22080,"hitSuccessfully":true},{"note":46,"velocity":8,"hitTime":22560,"closestNoteTime":22560,"hitSuccessfully":true},{"note":36,"velocity":30,"hitTime":23040,"closestNoteTime":23040,"hitSuccessfully":true},{"note":46,"velocity":14,"hitTime":23040,"closestNoteTime":23040,"hitSuccessfully":true},{"note":46,"velocity":11,"hitTime":23520,"closestNoteTime":23520,"hitSuccessfully":true},{"note":38,"velocity":80,"hitTime":24000,"closestNoteTime":24000,"hitSuccessfully":true},{"note":46,"velocity":14,"hitTime":24000,"closestNoteTime":24000,"hitSuccessfully":true},{"note":46,"velocity":9,"hitTime":24480,"closestNoteTime":24480,"hitSuccessfully":true},{"note":46,"velocity":12,"hitTime":24960,"closestNoteTime":24960,"hitSuccessfully":true},{"note":36,"velocity":30,"hitTime":24960,"closestNoteTime":24960,"hitSuccessfully":true},{"note":46,"velocity":7,"hitTime":25440,"closestNoteTime":25440,"hitSuccessfully":true},{"note":46,"velocity":16,"hitTime":25920,"closestNoteTime":25920,"hitSuccessfully":true},{"note":38,"velocity":77,"hitTime":25920,"closestNoteTime":25920,"hitSuccessfully":true},{"note":46,"velocity":9,"hitTime":26400,"closestNoteTime":26400,"hitSuccessfully":true},{"note":46,"velocity":17,"hitTime":26880,"closestNoteTime":26880,"hitSuccessfully":true},{"note":36,"velocity":30,"hitTime":26880,"closestNoteTime":26880,"hitSuccessfully":true},{"note":46,"velocity":11,"hitTime":27360,"closestNoteTime":27360,"hitSuccessfully":true},{"note":38,"velocity":81,"hitTime":27840,"closestNoteTime":27840,"hitSuccessfully":true},{"note":46,"velocity":19,"hitTime":27840,"closestNoteTime":27840,"hitSuccessfully":true},{"note":46,"velocity":7,"hitTime":28320,"closestNoteTime":28320,"hitSuccessfully":true},{"note":46,"velocity":14,"hitTime":28800,"closestNoteTime":28800,"hitSuccessfully":true},{"note":36,"velocity":31,"hitTime":28800,"closestNoteTime":28800,"hitSuccessfully":true},{"note":46,"velocity":7,"hitTime":29280,"closestNoteTime":29280,"hitSuccessfully":true},{"note":46,"velocity":18,"hitTime":29760,"closestNoteTime":29760,"hitSuccessfully":true},{"note":38,"velocity":80,"hitTime":29760,"closestNoteTime":29760,"hitSuccessfully":true},{"note":46,"velocity":15,"hitTime":30240,"closestNoteTime":30240,"hitSuccessfully":true}]}