{"frames":[{"note":36,"velocity":36,"hitTime":0,"closestNoteTime":0,"hitSuccessfully":true},{"note":46,"velocity":40,"hitTime":0,"closestNoteTime":0,"hitSuccessfully":true},{"note":46,"velocity":32,"hitTime":480,"closestNoteTime":480,"hitSuccessfully":true},{"note":46,"velocity":42,"hitTime":960,"closestNoteTime":960,"hitSuccessfully":true},{"note":46,"velocity":39,"hitTime":1440,"closestNoteTime":1440,"hitSuccessfully":true},{"note":46,"velocity":44,"hitTime":1920,"closestNoteTime":1920,"hitSuccessfully":true},{"note":36,"velocity":32,"hitTime":1920,"closestNoteTime":1920,"hitSuccessfully":true},{"note":46,"velocity":39,"hitTime":2400,"closestNoteTime":2400,"hitSuccessfully":true},{"note":46,"velocity":40,"hitTime":2880,"closestNoteTime":2880,"hitSuccessfully":true},{"note":46,"velocity":42,"hitTime":3360,"closestNoteTime":3360,"hitSuccessfully":true},{"note":46,"velocity":44,"hitTime":3840,"closestNoteTime":3840,"hitSuccessfully":true},{"note":36,"velocity":36,"hitTime":3840,"closestNoteTime":3840,"hitSuccessfully":true},{"note":46,"velocity":39,"hitTime":4320,"closestNoteTime":4320,"hitSuccessfully":true},{"note":46,"velocity":39,"hitTime":4800,"closestNoteTime":4800,"hitSuccessfully":true},{"note":46,"velocity":42,"hitTime":5280,"closestNoteTime":5280,"hitSuccessfully":true},{"note":46,"velocity":26,"hitTime":5760,"closestNoteTime":5760,"hitSuccessfully":false},{"note":46,"velocity":40,"hitTime":5760,"closestNoteTime":5760,"hitSuccessfully":true},{"note":36,"velocity":30,"hitTime":5760,"closestNoteTime":5760,"hitSuccessfully":true},{"note":46,"velocity":40,"hitTime":6240,"closestNoteTime":6240,"hitSuccessfully":true},{"note":46,"velocity":47,"hitTime":6720,"closestNoteTime":6720,"hitSuccessfully":true},{"note":46,"velocity":36,"hitTime":7200,"closestNoteTime":7200,"hitSuccessfully":true},{"note":46,"velocity":32,"hitTime":7680,"closestNoteTime":7680,"hitSuccessfully":true},{"note":36,"velocity":28,"hitTime":7680,"closestNoteTime":7680,"hitSuccessfully":true},{"note":46,"velocity":43,"hitTime":8160,"closestNoteTime":8160,"hitSuccessfully":true},{"note":46,"velocity":43,"hitTime":8640,"closestNoteTime":8640,"hitSuccessfully":true},{"note":46,"velocity":40,"hitTime":9120,"closestNoteTime":9120,"hitSuccessfully":true},{"note":46,"velocity":34,"hitTime":9600,"closestNoteTime":9600,"hitSuccessfully":true},{"note":36,"velocity":36,"hitTime":9600,"closestNoteTime":9600,"hitSuccessfully":true},{"note":46,"velocity":36,"hitTime":10080,"closestNoteTime":10080,"hitSuccessfully":true},{"note":46,"velocity":36,"hitTime":10560,"closestNoteTime":10560,"hitSuccessfully":true},{"note":46,"velocity":40,"hitTime":11040,"closestNoteTime":11040,"hitSuccessfully":true},{"note":46,"velocity":26,"hitTime":11520,"closestNoteTime":11520,"hitSuccessfully":false},{"note":46,"velocity":42,"hitTime":11520,"closestNoteTime":11520,"hitSuccessfully":true},{"note":36,"velocity":31,"hitTime":11520,"closestNoteTime":11520,"hitSuccessfully":true},{"note":46,"velocity":42,"hitTime":12000,"closestNoteTime":12000,"hitSuccessfully":true},{"note":46,"velocity":40,"hitTime":12480,"closestNoteTime":12480,"hitSuccessfully":true},{"note":46,"velocity":36,"hitTime":12960,"closestNoteTime":12960,"hitSuccessfully":true},{"note":36,"velocity":31,"hitTime":13440,"closestNoteTime":13440,"hitSuccessfully":true},{"note":46,"velocity":40,"hitTime":13440,"closestNoteTime":13440,"hitSuccessfully":true},{"note":46,"velocity":35,"hitTime":13920,"closestNoteTime":13920,"hitSuccessfully":true},{"note":46,"velocity":36,"hitTime":14400,"closestNoteTime":14400,"hitSuccessfully":true},{"note":46,"velocity":39,"hitTime":14880,"closestNoteTime":14880,"hitSuccessfully":true}]}