{"frames":[{"note":46,"velocity":62,"hitTime":64,"closestNoteTime":0,"hitSuccessfully":true},{"note":46,"velocity":62,"hitTime":520,"closestNoteTime":480,"hitSuccessfully":true},{"note":46,"velocity":67,"hitTime":1000,"closestNoteTime":960,"hitSuccessfully":true},{"note":46,"velocity":70,"hitTime":1472,"closestNoteTime":1440,"hitSuccessfully":true},{"note":46,"velocity":67,"hitTime":1952,"closestNoteTime":1920,"hitSuccessfully":true},{"note":46,"velocity":60,"hitTime":2408,"closestNoteTime":2400,"hitSuccessfully":true},{"note":46,"velocity":66,"hitTime":2888,"closestNoteTime":2880,"hitSuccessfully":true},{"note":46,"velocity":65,"hitTime":3376,"closestNoteTime":3360,"hitSuccessfully":true},{"note":46,"velocity":67,"hitTime":3880,"closestNoteTime":3840,"hitSuccessfully":true},{"note":46,"velocity":74,"hitTime":4336,"closestNoteTime":4320,"hitSuccessfully":true},{"note":46,"velocity":72,"hitTime":4816,"closestNoteTime":4800,"hitSuccessfully":true},{"note":46,"velocity":74,"hitTime":5288,"closestNoteTime":5280,"hitSuccessfully":true},{"note":46,"velocity":77,"hitTime":5768,"closestNoteTime":5760,"hitSuccessfully":true},{"note":46,"velocity":67,"hitTime":6248,"closestNoteTime":6240,"hitSuccessfully":true},{"note":46,"velocity":65,"hitTime":6728,"closestNoteTime":6720,"hitSuccessfully":true},{"note":46,"velocity":55,"hitTime":7216,"closestNoteTime":7200,"hitSuccessfully":true},{"note":46,"velocity":56,"hitTime":7712,"closestNoteTime":7680,"hitSuccessfully":true},{"note":46,"velocity":64,"hitTime":8176,"closestNoteTime":8160,"hitSuccessfully":true},{"note":46,"velocity":62,"hitTime":8656,"closestNoteTime":8640,"hitSuccessfully":true},{"note":46,"velocity":60,"hitTime":9128,"closestNoteTime":9120,"hitSuccessfully":true},{"note":46,"velocity":62,"hitTime":9600,"closestNoteTime":9600,"hitSuccessfully":true},{"note":46,"velocity":60,"hitTime":10080,"closestNoteTime":10080,"hitSuccessfully":true},{"note":46,"velocity":70,"hitTime":10560,"closestNoteTime":10560,"hitSuccessfully":true},{"note":46,"velocity":62,"hitTime":11032,"closestNoteTime":11040,"hitSuccessfully":true},{"note":46,"velocity":62,"hitTime":11536,"closestNoteTime":11520,"hitSuccessfully":true},{"note":46,"velocity":65,"hitTime":12016,"closestNoteTime":12000,"hitSuccessfully":true},{"note":46,"velocity":66,"hitTime":12504,"closestNoteTime":12480,"hitSuccessfully":true},{"note":46,"velocity":58,"hitTime":12984,"closestNoteTime":12960,"hitSuccessfully":true},{"note":46,"velocity":58,"hitTime":13464,"closestNoteTime":13440,"hitSuccessfully":true},{"note":46,"velocity":66,"hitTime":13920,"closestNoteTime":13920,"hitSuccessfully":true},{"note":46,"velocity":67,"hitTime":14400,"closestNoteTime":14400,"hitSuccessfully":true},{"note":46,"velocity":74,"hitTime":14856,"closestNoteTime":14880,"hitSuccessfully":true}]}