{"frames":[{"note":46,"velocity":94,"hitTime":128,"closestNoteTime":0,"hitSuccessfully":true},{"note":46,"velocity":83,"hitTime":560,"closestNoteTime":480,"hitSuccessfully":true},{"note":46,"velocity":93,"hitTime":1040,"closestNoteTime":960,"hitSuccessfully":true},{"note":46,"velocity":85,"hitTime":1472,"closestNoteTime":1440,"hitSuccessfully":true},{"note":38,"velocity":101,"hitTime":1984,"closestNoteTime":2880,"hitSuccessfully":false},{"note":46,"velocity":108,"hitTime":2000,"closestNoteTime":1920,"hitSuccessfully":true},{"note":38,"velocity":50,"hitTime":2112,"closestNoteTime":2880,"hitSuccessfully":false},{"note":46,"velocity":85,"hitTime":2432,"closestNoteTime":2400,"hitSuccessfully":true},{"note":46,"velocity":93,"hitTime":2912,"closestNoteTime":2880,"hitSuccessfully":true},{"note":46,"velocity":94,"hitTime":3392,"closestNoteTime":3360,"hitSuccessfully":true},{"note":46,"velocity":118,"hitTime":3872,"closestNoteTime":3840,"hitSuccessfully":true},{"note":46,"velocity":91,"hitTime":4224,"closestNoteTime":4320,"hitSuccessfully":true},{"note":46,"velocity":97,"hitTime":4736,"closestNoteTime":4800,"hitSuccessfully":true},{"note":46,"velocity":127,"hitTime":5680,"closestNoteTime":5760,"hitSuccessfully":true},{"note":38,"velocity":107,"hitTime":5696,"closestNoteTime":4800,"hitSuccessfully":false},{"note":46,"velocity":91,"hitTime":6176,"closestNoteTime":6240,"hitSuccessfully":true},{"note":46,"velocity":86,"hitTime":6640,"closestNoteTime":6720,"hitSuccessfully":true},{"note":46,"velocity":86,"hitTime":7088,"closestNoteTime":7200,"hitSuccessfully":true},{"note":46,"velocity":127,"hitTime":7552,"closestNoteTime":7680,"hitSuccessfully":true},{"note":38,"velocity":112,"hitTime":7552,"closestNoteTime":6720,"hitSuccessfully":false},{"note":38,"velocity":64,"hitTime":7648,"closestNoteTime":6720,"hitSuccessfully":false},{"note":46,"velocity":94,"hitTime":8048,"closestNoteTime":8160,"hitSuccessfully":true},{"note":46,"velocity":95,"hitTime":8480,"closestNoteTime":8640,"hitSuccessfully":true},{"note":46,"velocity":93,"hitTime":8912,"closestNoteTime":9120,"hitSuccessfully":true},{"note":46,"velocity":104,"hitTime":9392,"closestNoteTime":9600,"hitSuccessfully":true},{"note":46,"velocity":94,"hitTime":9792,"closestNoteTime":10080,"hitSuccessfully":true},{"note":46,"velocity":94,"hitTime":10272,"closestNoteTime":10560,"hitSuccessfully":true},{"note":46,"velocity":91,"hitTime":10736,"closestNoteTime":11040,"hitSuccessfully":false},{"note":46,"velocity":108,"hitTime":11184,"closestNoteTime":11040,"hitSuccessfully":true},{"note":46,"velocity":97,"hitTime":11648,"closestNoteTime":11520,"hitSuccessfully":true},{"note":46,"velocity":96,"hitTime":12096,"closestNoteTime":12000,"hitSuccessfully":true},{"note":46,"velocity":93,"hitTime":12576,"closestNoteTime":12480,"hitSuccessfully":true},{"note":46,"velocity":120,"hitTime":13040,"closestNoteTime":12960,"hitSuccessfully":true},{"note":46,"velocity":97,"hitTime":13488,"closestNoteTime":13440,"hitSuccessfully":true},{"note":46,"velocity":100,"hitTime":14032,"closestNoteTime":13920,"hitSuccessfully":true},{"note":46,"velocity":91,"hitTime":14432,"closestNoteTime":14400,"hitSuccessfully":true},{"note":46,"velocity":112,"hitTime":14912,"closestNoteTime":14880,"hitSuccessfully":true},{"note":38,"velocity":104,"hitTime":14944,"closestNoteTime":14400,"hitSuccessfully":false},{"note":46,"velocity":97,"hitTime":15344,"closestNoteTime":15360,"hitSuccessfully":true},{"note":46,"velocity":101,"hitTime":15824,"closestNoteTime":15840,"hitSuccessfully":true},{"note":46,"velocity":98,"hitTime":16304,"closestNoteTime":16320,"hitSuccessfully":true},{"note":38,"velocity":112,"hitTime":16784,"closestNoteTime":16320,"hitSuccessfully":false},{"note":46,"velocity":127,"hitTime":16784,"closestNoteTime":16800,"hitSuccessfully":true},{"note":36,"velocity":88,"hitTime":16816,"closestNoteTime":17280,"hitSuccessfully":false},{"note":38,"velocity":58,"hitTime":16896,"closestNoteTime":16320,"hitSuccessfully":false},{"note":46,"velocity":106,"hitTime":17232,"closestNoteTime":17280,"hitSuccessfully":true},{"note":46,"velocity":104,"hitTime":17696,"closestNoteTime":17760,"hitSuccessfully":true},{"note":46,"velocity":101,"hitTime":18176,"closestNoteTime":18240,"hitSuccessfully":true},{"note":46,"velocity":127,"hitTime":18624,"closestNoteTime":18720,"hitSuccessfully":true},{"note":46,"velocity":104,"hitTime":19120,"closestNoteTime":19200,"hitSuccessfully":true},{"note":46,"velocity":102,"hitTime":19600,"closestNoteTime":19680,"hitSuccessfully":true},{"note":46,"velocity":98,"hitTime":20016,"closestNoteTime":20160,"hitSuccessfully":true},{"note":46,"velocity":124,"hitTime":20480,"closestNoteTime":20640,"hitSuccessfully":true},{"note":38,"velocity":109,"hitTime":20512,"closestNoteTime":20160,"hitSuccessfully":false},{"note":38,"velocity":46,"hitTime":20672,"closestNoteTime":20160,"hitSuccessfully":false},{"note":46,"velocity":99,"hitTime":20960,"closestNoteTime":21120,"hitSuccessfully":true},{"note":46,"velocity":101,"hitTime":21408,"closestNoteTime":21600,"hitSuccessfully":true},{"note":46,"velocity":100,"hitTime":21824,"closestNoteTime":22080,"hitSuccessfully":true},{"note":46,"velocity":107,"hitTime":22272,"closestNoteTime":22560,"hitSuccessfully":true},{"note":38,"velocity":106,"hitTime":22272,"closestNoteTime":22080,"hitSuccessfully":true},{"note":38,"velocity":46,"hitTime":22400,"closestNoteTime":24000,"hitSuccessfully":false},{"note":46,"velocity":97,"hitTime":22752,"closestNoteTime":23040,"hitSuccessfully":true},{"note":46,"velocity":99,"hitTime":23216,"closestNoteTime":23520,"hitSuccessfully":false},{"note":46,"velocity":94,"hitTime":23664,"closestNoteTime":23520,"hitSuccessfully":true},{"note":46,"velocity":108,"hitTime":24128,"closestNoteTime":24000,"hitSuccessfully":true},{"note":38,"velocity":105,"hitTime":24144,"closestNoteTime":24000,"hitSuccessfully":true},{"note":46,"velocity":98,"hitTime":24608,"closestNoteTime":24480,"hitSuccessfully":true},{"note":46,"velocity":99,"hitTime":25056,"closestNoteTime":24960,"hitSuccessfully":true},{"note":46,"velocity":96,"hitTime":25488,"closestNoteTime":25440,"hitSuccessfully":true},{"note":46,"velocity":76,"hitTime":25568,"closestNoteTime":25920,"hitSuccessfully":false},{"note":46,"velocity":127,"hitTime":26000,"closestNoteTime":25920,"hitSuccessfully":true},{"note":38,"velocity":110,"hitTime":26016,"closestNoteTime":25920,"hitSuccessfully":true},{"note":46,"velocity":102,"hitTime":26400,"closestNoteTime":26400,"hitSuccessfully":true},{"note":46,"velocity":108,"hitTime":26912,"closestNoteTime":26880,"hitSuccessfully":true},{"note":46,"velocity":97,"hitTime":27328,"closestNoteTime":27360,"hitSuccessfully":true},{"note":46,"velocity":127,"hitTime":27808,"closestNoteTime":27840,"hitSuccessfully":true},{"note":38,"velocity":102,"hitTime":27872,"closestNoteTime":27840,"hitSuccessfully":true},{"note":46,"velocity":89,"hitTime":28240,"closestNoteTime":28320,"hitSuccessfully":true},{"note":46,"velocity":70,"hitTime":28320,"closestNoteTime":28800,"hitSuccessfully":false},{"note":46,"velocity":102,"hitTime":28720,"closestNoteTime":28800,"hitSuccessfully":true},{"note":46,"velocity":100,"hitTime":29152,"closestNoteTime":29280,"hitSuccessfully":true},{"note":38,"velocity":106,"hitTime":29696,"closestNoteTime":29760,"hitSuccessfully":true},{"note":46,"velocity":127,"hitTime":29696,"closestNoteTime":29760,"hitSuccessfully":true},{"note":38,"velocity":41,"hitTime":29824,"closestNoteTime":20160,"hitSuccessfully":false},{"note":46,"velocity":90,"hitTime":30144,"closestNoteTime":30240,"hitSuccessfully":true},{"note":46,"velocity":104,"hitTime":30592,"closestNoteTime":5280,"hitSuccessfully":false}]}