{"frames":[{"note":46,"velocity":95,"hitTime":112,"closestNoteTime":0,"hitSuccessfully":true},{"note":46,"velocity":96,"hitTime":528,"closestNoteTime":480,"hitSuccessfully":true},{"note":46,"velocity":106,"hitTime":984,"closestNoteTime":960,"hitSuccessfully":true},{"note":46,"velocity":105,"hitTime":1480,"closestNoteTime":1440,"hitSuccessfully":true},{"note":46,"velocity":106,"hitTime":1936,"closestNoteTime":1920,"hitSuccessfully":true},{"note":46,"velocity":104,"hitTime":2416,"closestNoteTime":2400,"hitSuccessfully":true},{"note":38,"velocity":91,"hitTime":2872,"closestNoteTime":2880,"hitSuccessfully":true},{"note":46,"velocity":125,"hitTime":2880,"closestNoteTime":2880,"hitSuccessfully":true},{"note":46,"velocity":98,"hitTime":3368,"closestNoteTime":3360,"hitSuccessfully":true},{"note":46,"velocity":102,"hitTime":3832,"closestNoteTime":3840,"hitSuccessfully":true},{"note":46,"velocity":94,"hitTime":4288,"closestNoteTime":4320,"hitSuccessfully":true},{"note":46,"velocity":124,"hitTime":4792,"closestNoteTime":4800,"hitSuccessfully":true},{"note":38,"velocity":94,"hitTime":4792,"closestNoteTime":4800,"hitSuccessfully":true},{"note":46,"velocity":94,"hitTime":5248,"closestNoteTime":5280,"hitSuccessfully":true},{"note":46,"velocity":97,"hitTime":5720,"closestNoteTime":5760,"hitSuccessfully":true},{"note":46,"velocity":90,"hitTime":6192,"closestNoteTime":6240,"hitSuccessfully":true},{"note":46,"velocity":106,"hitTime":6696,"closestNoteTime":6720,"hitSuccessfully":true},{"note":46,"velocity":94,"hitTime":7232,"closestNoteTime":7200,"hitSuccessfully":true},{"note":46,"velocity":99,"hitTime":7712,"closestNoteTime":7680,"hitSuccessfully":true},{"note":46,"velocity":101,"hitTime":8224,"closestNoteTime":8160,"hitSuccessfully":true},{"note":46,"velocity":112,"hitTime":8704,"closestNoteTime":8640,"hitSuccessfully":true},{"note":46,"velocity":99,"hitTime":9160,"closestNoteTime":9120,"hitSuccessfully":true},{"note":46,"velocity":100,"hitTime":9616,"closestNoteTime":9600,"hitSuccessfully":true},{"note":46,"velocity":95,"hitTime":10096,"closestNoteTime":10080,"hitSuccessfully":true},{"note":46,"velocity":127,"hitTime":10592,"closestNoteTime":10560,"hitSuccessfully":true},{"note":46,"velocity":98,"hitTime":11048,"closestNoteTime":11040,"hitSuccessfully":true},{"note":46,"velocity":93,"hitTime":11504,"closestNoteTime":11520,"hitSuccessfully":true},{"note":46,"velocity":94,"hitTime":11968,"closestNoteTime":12000,"hitSuccessfully":true},{"note":46,"velocity":105,"hitTime":12464,"closestNoteTime":12480,"hitSuccessfully":true},{"note":46,"velocity":99,"hitTime":12904,"closestNoteTime":12960,"hitSuccessfully":true},{"note":46,"velocity":90,"hitTime":13816,"closestNoteTime":13920,"hitSuccessfully":true},{"note":46,"velocity":99,"hitTime":14808,"closestNoteTime":14880,"hitSuccessfully":true},{"note":46,"velocity":94,"hitTime":15248,"closestNoteTime":14400,"hitSuccessfully":false}]}