{"frames":[{"note":36,"velocity":65,"hitTime":56,"closestNoteTime":0,"hitSuccessfully":true},{"note":46,"velocity":80,"hitTime":80,"closestNoteTime":0,"hitSuccessfully":true},{"note":46,"velocity":77,"hitTime":536,"closestNoteTime":480,"hitSuccessfully":true},{"note":46,"velocity":82,"hitTime":1016,"closestNoteTime":960,"hitSuccessfully":true},{"note":46,"velocity":84,"hitTime":1496,"closestNoteTime":1440,"hitSuccessfully":true},{"note":36,"velocity":66,"hitTime":2008,"closestNoteTime":1920,"hitSuccessfully":true},{"note":46,"velocity":77,"hitTime":2008,"closestNoteTime":1920,"hitSuccessfully":true},{"note":46,"velocity":70,"hitTime":2464,"closestNoteTime":2400,"hitSuccessfully":true},{"note":46,"velocity":77,"hitTime":2944,"closestNoteTime":2880,"hitSuccessfully":true},{"note":46,"velocity":76,"hitTime":3440,"closestNoteTime":3360,"hitSuccessfully":true},{"note":36,"velocity":72,"hitTime":3920,"closestNoteTime":3840,"hitSuccessfully":true},{"note":46,"velocity":80,"hitTime":3936,"closestNoteTime":3840,"hitSuccessfully":true},{"note":46,"velocity":70,"hitTime":4352,"closestNoteTime":4320,"hitSuccessfully":true},{"note":46,"velocity":85,"hitTime":4816,"closestNoteTime":4800,"hitSuccessfully":true},{"note":46,"velocity":80,"hitTime":5304,"closestNoteTime":5280,"hitSuccessfully":true},{"note":36,"velocity":60,"hitTime":5784,"closestNoteTime":5760,"hitSuccessfully":true},{"note":46,"velocity":84,"hitTime":5800,"closestNoteTime":5760,"hitSuccessfully":true},{"note":46,"velocity":74,"hitTime":6248,"closestNoteTime":6240,"hitSuccessfully":true},{"note":46,"velocity":77,"hitTime":6720,"closestNoteTime":6720,"hitSuccessfully":true},{"note":46,"velocity":90,"hitTime":7216,"closestNoteTime":7200,"hitSuccessfully":true},{"note":36,"velocity":65,"hitTime":7672,"closestNoteTime":7680,"hitSuccessfully":true},{"note":46,"velocity":94,"hitTime":7680,"closestNoteTime":7680,"hitSuccessfully":true},{"note":46,"velocity":74,"hitTime":8136,"closestNoteTime":8160,"hitSuccessfully":true},{"note":46,"velocity":91,"hitTime":8608,"closestNoteTime":8640,"hitSuccessfully":true},{"note":46,"velocity":91,"hitTime":9104,"closestNoteTime":9120,"hitSuccessfully":true},{"note":36,"velocity":61,"hitTime":9576,"closestNoteTime":9600,"hitSuccessfully":true},{"note":46,"velocity":93,"hitTime":9584,"closestNoteTime":9600,"hitSuccessfully":true},{"note":46,"velocity":80,"hitTime":10056,"closestNoteTime":10080,"hitSuccessfully":true},{"note":46,"velocity":89,"hitTime":10552,"closestNoteTime":10560,"hitSuccessfully":true},{"note":46,"velocity":84,"hitTime":11032,"closestNoteTime":11040,"hitSuccessfully":true},{"note":36,"velocity":48,"hitTime":11512,"closestNoteTime":11520,"hitSuccessfully":true},{"note":46,"velocity":91,"hitTime":11536,"closestNoteTime":11520,"hitSuccessfully":true},{"note":46,"velocity":85,"hitTime":11968,"closestNoteTime":12000,"hitSuccessfully":true},{"note":46,"velocity":84,"hitTime":12464,"closestNoteTime":12480,"hitSuccessfully":true},{"note":46,"velocity":89,"hitTime":12920,"closestNoteTime":12960,"hitSuccessfully":true},{"note":36,"velocity":80,"hitTime":13416,"closestNoteTime":13440,"hitSuccessfully":true},{"note":46,"velocity":83,"hitTime":13416,"closestNoteTime":13440,"hitSuccessfully":true},{"note":46,"velocity":91,"hitTime":13880,"closestNoteTime":13920,"hitSuccessfully":true},{"note":46,"velocity":87,"hitTime":14360,"closestNoteTime":14400,"hitSuccessfully":true},{"note":46,"velocity":77,"hitTime":14880,"closestNoteTime":14880,"hitSuccessfully":true}]}