{"frames":[{"note":36,"velocity":83,"hitTime":144,"closestNoteTime":0,"hitSuccessfully":true},{"note":46,"velocity":106,"hitTime":176,"closestNoteTime":0,"hitSuccessfully":true},{"note":46,"velocity":94,"hitTime":656,"closestNoteTime":480,"hitSuccessfully":true},{"note":46,"velocity":101,"hitTime":1136,"closestNoteTime":960,"hitSuccessfully":true},{"note":38,"velocity":110,"hitTime":1200,"closestNoteTime":960,"hitSuccessfully":true},{"note":38,"velocity":80,"hitTime":1616,"closestNoteTime":2880,"hitSuccessfully":false},{"note":46,"velocity":100,"hitTime":2112,"closestNoteTime":1920,"hitSuccessfully":true},{"note":46,"velocity":88,"hitTime":2592,"closestNoteTime":2400,"hitSuccessfully":true},{"note":46,"velocity":112,"hitTime":3040,"closestNoteTime":2880,"hitSuccessfully":true},{"note":36,"velocity":95,"hitTime":3088,"closestNoteTime":3840,"hitSuccessfully":false},{"note":46,"velocity":87,"hitTime":3600,"closestNoteTime":3360,"hitSuccessfully":true},{"note":46,"velocity":124,"hitTime":4160,"closestNoteTime":4320,"hitSuccessfully":true},{"note":36,"velocity":54,"hitTime":4192,"closestNoteTime":3840,"hitSuccessfully":false},{"note":36,"velocity":91,"hitTime":7776,"closestNoteTime":7680,"hitSuccessfully":true},{"note":46,"velocity":109,"hitTime":7808,"closestNoteTime":7680,"hitSuccessfully":true},{"note":46,"velocity":70,"hitTime":8240,"closestNoteTime":8160,"hitSuccessfully":true},{"note":46,"velocity":60,"hitTime":8288,"closestNoteTime":8640,"hitSuccessfully":false},{"note":46,"velocity":94,"hitTime":8688,"closestNoteTime":8640,"hitSuccessfully":true},{"note":38,"velocity":94,"hitTime":8768,"closestNoteTime":8640,"hitSuccessfully":true},{"note":38,"velocity":67,"hitTime":9200,"closestNoteTime":10560,"hitSuccessfully":false},{"note":46,"velocity":107,"hitTime":9712,"closestNoteTime":9600,"hitSuccessfully":true},{"note":46,"velocity":90,"hitTime":10624,"closestNoteTime":10560,"hitSuccessfully":true},{"note":46,"velocity":60,"hitTime":11152,"closestNoteTime":11040,"hitSuccessfully":true},{"note":36,"velocity":102,"hitTime":11632,"closestNoteTime":11520,"hitSuccessfully":true},{"note":46,"velocity":86,"hitTime":12064,"closestNoteTime":12000,"hitSuccessfully":true},{"note":46,"velocity":70,"hitTime":12112,"closestNoteTime":12480,"hitSuccessfully":false},{"note":46,"velocity":99,"hitTime":12544,"closestNoteTime":12480,"hitSuccessfully":true},{"note":38,"velocity":78,"hitTime":13008,"closestNoteTime":12480,"hitSuccessfully":false},{"note":46,"velocity":105,"hitTime":13536,"closestNoteTime":13440,"hitSuccessfully":true},{"note":36,"velocity":55,"hitTime":13536,"closestNoteTime":13440,"hitSuccessfully":true},{"note":46,"velocity":88,"hitTime":13984,"closestNoteTime":13920,"hitSuccessfully":true},{"note":38,"velocity":102,"hitTime":14480,"closestNoteTime":14400,"hitSuccessfully":true},{"note":46,"velocity":105,"hitTime":14480,"closestNoteTime":14400,"hitSuccessfully":true},{"note":38,"velocity":81,"hitTime":14896,"closestNoteTime":16320,"hitSuccessfully":false},{"note":46,"velocity":120,"hitTime":15376,"closestNoteTime":15360,"hitSuccessfully":true},{"note":36,"velocity":80,"hitTime":15408,"closestNoteTime":15360,"hitSuccessfully":true},{"note":46,"velocity":97,"hitTime":15440,"closestNoteTime":15840,"hitSuccessfully":false},{"note":46,"velocity":93,"hitTime":15840,"closestNoteTime":15840,"hitSuccessfully":true},{"note":46,"velocity":56,"hitTime":15920,"closestNoteTime":16320,"hitSuccessfully":false},{"note":46,"velocity":108,"hitTime":16368,"closestNoteTime":16320,"hitSuccessfully":true},{"note":38,"velocity":99,"hitTime":16368,"closestNoteTime":16320,"hitSuccessfully":true},{"note":38,"velocity":72,"hitTime":16832,"closestNoteTime":18240,"hitSuccessfully":false},{"note":36,"velocity":80,"hitTime":17344,"closestNoteTime":17280,"hitSuccessfully":true},{"note":46,"velocity":112,"hitTime":17360,"closestNoteTime":17280,"hitSuccessfully":true},{"note":46,"velocity":85,"hitTime":17744,"closestNoteTime":17760,"hitSuccessfully":true},{"note":46,"velocity":82,"hitTime":17792,"closestNoteTime":18240,"hitSuccessfully":false},{"note":46,"velocity":107,"hitTime":18272,"closestNoteTime":18240,"hitSuccessfully":true},{"note":38,"velocity":81,"hitTime":18736,"closestNoteTime":18240,"hitSuccessfully":false},{"note":46,"velocity":108,"hitTime":19232,"closestNoteTime":19200,"hitSuccessfully":true},{"note":36,"velocity":72,"hitTime":19264,"closestNoteTime":19200,"hitSuccessfully":true},{"note":46,"velocity":82,"hitTime":19648,"closestNoteTime":19680,"hitSuccessfully":true},{"note":46,"velocity":64,"hitTime":19728,"closestNoteTime":20160,"hitSuccessfully":false},{"note":38,"velocity":102,"hitTime":20144,"closestNoteTime":20160,"hitSuccessfully":true},{"note":36,"velocity":69,"hitTime":20208,"closestNoteTime":21120,"hitSuccessfully":false},{"note":46,"velocity":118,"hitTime":21136,"closestNoteTime":21120,"hitSuccessfully":true},{"note":36,"velocity":70,"hitTime":21200,"closestNoteTime":21120,"hitSuccessfully":true},{"note":46,"velocity":114,"hitTime":22096,"closestNoteTime":22080,"hitSuccessfully":true},{"note":36,"velocity":66,"hitTime":22128,"closestNoteTime":23040,"hitSuccessfully":false},{"note":38,"velocity":103,"hitTime":22160,"closestNoteTime":22080,"hitSuccessfully":true},{"note":38,"velocity":68,"hitTime":22560,"closestNoteTime":24000,"hitSuccessfully":false},{"note":46,"velocity":108,"hitTime":23040,"closestNoteTime":23040,"hitSuccessfully":true},{"note":36,"velocity":62,"hitTime":23072,"closestNoteTime":23040,"hitSuccessfully":true},{"note":46,"velocity":127,"hitTime":23984,"closestNoteTime":24000,"hitSuccessfully":true},{"note":38,"velocity":92,"hitTime":24000,"closestNoteTime":24000,"hitSuccessfully":true},{"note":36,"velocity":65,"hitTime":24064,"closestNoteTime":24960,"hitSuccessfully":false},{"note":38,"velocity":49,"hitTime":24432,"closestNoteTime":25920,"hitSuccessfully":false},{"note":36,"velocity":72,"hitTime":24912,"closestNoteTime":24960,"hitSuccessfully":true},{"note":46,"velocity":87,"hitTime":24912,"closestNoteTime":24960,"hitSuccessfully":true},{"note":46,"velocity":73,"hitTime":25264,"closestNoteTime":25440,"hitSuccessfully":true},{"note":46,"velocity":105,"hitTime":25856,"closestNoteTime":25920,"hitSuccessfully":true},{"note":38,"velocity":94,"hitTime":25872,"closestNoteTime":25920,"hitSuccessfully":true},{"note":36,"velocity":36,"hitTime":25936,"closestNoteTime":26880,"hitSuccessfully":false},{"note":38,"velocity":69,"hitTime":26336,"closestNoteTime":27840,"hitSuccessfully":false},{"note":46,"velocity":107,"hitTime":26816,"closestNoteTime":26880,"hitSuccessfully":true},{"note":36,"velocity":76,"hitTime":26848,"closestNoteTime":26880,"hitSuccessfully":true},{"note":46,"velocity":104,"hitTime":27840,"closestNoteTime":27840,"hitSuccessfully":true},{"note":38,"velocity":93,"hitTime":27856,"closestNoteTime":27840,"hitSuccessfully":true},{"note":46,"velocity":104,"hitTime":28768,"closestNoteTime":28800,"hitSuccessfully":true},{"note":36,"velocity":60,"hitTime":28800,"closestNoteTime":28800,"hitSuccessfully":true},{"note":46,"velocity":100,"hitTime":29728,"closestNoteTime":29760,"hitSuccessfully":true},{"note":38,"velocity":95,"hitTime":29760,"closestNoteTime":29760,"hitSuccessfully":true},{"note":36,"velocity":70,"hitTime":30560,"closestNoteTime":9600,"hitSuccessfully":false}]}