{"frames":[{"note":46,"velocity":60,"hitTime":104,"closestNoteTime":0,"hitSuccessfully":true},{"note":46,"velocity":58,"hitTime":560,"closestNoteTime":480,"hitSuccessfully":true},{"note":46,"velocity":66,"hitTime":1000,"closestNoteTime":960,"hitSuccessfully":true},{"note":38,"velocity":79,"hitTime":1008,"closestNoteTime":960,"hitSuccessfully":true},{"note":46,"velocity":55,"hitTime":1496,"closestNoteTime":1440,"hitSuccessfully":true},{"note":46,"velocity":56,"hitTime":1952,"closestNoteTime":1920,"hitSuccessfully":true},{"note":46,"velocity":58,"hitTime":2432,"closestNoteTime":2400,"hitSuccessfully":true},{"note":38,"velocity":72,"hitTime":2896,"closestNoteTime":2880,"hitSuccessfully":true},{"note":46,"velocity":67,"hitTime":2896,"closestNoteTime":2880,"hitSuccessfully":true},{"note":46,"velocity":55,"hitTime":3352,"closestNoteTime":3360,"hitSuccessfully":true},{"note":46,"velocity":55,"hitTime":3848,"closestNoteTime":3840,"hitSuccessfully":true},{"note":46,"velocity":52,"hitTime":4360,"closestNoteTime":4320,"hitSuccessfully":true},{"note":46,"velocity":73,"hitTime":4824,"closestNoteTime":4800,"hitSuccessfully":true},{"note":38,"velocity":76,"hitTime":4856,"closestNoteTime":4800,"hitSuccessfully":true},{"note":46,"velocity":50,"hitTime":5336,"closestNoteTime":5280,"hitSuccessfully":true},{"note":46,"velocity":58,"hitTime":5792,"closestNoteTime":5760,"hitSuccessfully":true},{"note":46,"velocity":55,"hitTime":6272,"closestNoteTime":6240,"hitSuccessfully":true},{"note":46,"velocity":72,"hitTime":6744,"closestNoteTime":6720,"hitSuccessfully":true},{"note":38,"velocity":74,"hitTime":6752,"closestNoteTime":6720,"hitSuccessfully":true},{"note":46,"velocity":55,"hitTime":7232,"closestNoteTime":7200,"hitSuccessfully":true},{"note":46,"velocity":50,"hitTime":7728,"closestNoteTime":7680,"hitSuccessfully":true},{"note":46,"velocity":56,"hitTime":8200,"closestNoteTime":8160,"hitSuccessfully":true},{"note":46,"velocity":70,"hitTime":8656,"closestNoteTime":8640,"hitSuccessfully":true},{"note":38,"velocity":74,"hitTime":8656,"closestNoteTime":8640,"hitSuccessfully":true},{"note":46,"velocity":52,"hitTime":9136,"closestNoteTime":9120,"hitSuccessfully":true},{"note":46,"velocity":55,"hitTime":9608,"closestNoteTime":9600,"hitSuccessfully":true},{"note":46,"velocity":48,"hitTime":10112,"closestNoteTime":10080,"hitSuccessfully":true},{"note":46,"velocity":73,"hitTime":10584,"closestNoteTime":10560,"hitSuccessfully":true},{"note":38,"velocity":77,"hitTime":10608,"closestNoteTime":10560,"hitSuccessfully":true},{"note":46,"velocity":52,"hitTime":11080,"closestNoteTime":11040,"hitSuccessfully":true},{"note":46,"velocity":56,"hitTime":11544,"closestNoteTime":11520,"hitSuccessfully":true},{"note":46,"velocity":58,"hitTime":12040,"closestNoteTime":12000,"hitSuccessfully":true},{"note":46,"velocity":70,"hitTime":12520,"closestNoteTime":12480,"hitSuccessfully":true},{"note":38,"velocity":79,"hitTime":12536,"closestNoteTime":12480,"hitSuccessfully":true},{"note":46,"velocity":52,"hitTime":12976,"closestNoteTime":12960,"hitSuccessfully":true},{"note":46,"velocity":55,"hitTime":13488,"closestNoteTime":13440,"hitSuccessfully":true},{"note":46,"velocity":52,"hitTime":13984,"closestNoteTime":13920,"hitSuccessfully":true},{"note":46,"velocity":70,"hitTime":14440,"closestNoteTime":14400,"hitSuccessfully":true},{"note":38,"velocity":72,"hitTime":14464,"closestNoteTime":14400,"hitSuccessfully":true},{"note":46,"velocity":55,"hitTime":14944,"closestNoteTime":14880,"hitSuccessfully":true}]}