{"frames":[{"note":46,"velocity":73,"hitTime":8,"closestNoteTime":0,"hitSuccessfully":true},{"note":46,"velocity":73,"hitTime":504,"closestNoteTime":480,"hitSuccessfully":true},{"note":46,"velocity":76,"hitTime":976,"closestNoteTime":960,"hitSuccessfully":true},{"note":46,"velocity":77,"hitTime":1464,"closestNoteTime":1440,"hitSuccessfully":true},{"note":46,"velocity":79,"hitTime":1952,"closestNoteTime":1920,"hitSuccessfully":true},{"note":46,"velocity":79,"hitTime":2432,"closestNoteTime":2400,"hitSuccessfully":true},{"note":46,"velocity":76,"hitTime":2912,"closestNoteTime":2880,"hitSuccessfully":true},{"note":46,"velocity":79,"hitTime":3408,"closestNoteTime":3360,"hitSuccessfully":true},{"note":46,"velocity":76,"hitTime":3904,"closestNoteTime":3840,"hitSuccessfully":true},{"note":46,"velocity":77,"hitTime":4376,"closestNoteTime":4320,"hitSuccessfully":true},{"note":46,"velocity":72,"hitTime":4864,"closestNoteTime":4800,"hitSuccessfully":true},{"note":46,"velocity":70,"hitTime":5352,"closestNoteTime":5280,"hitSuccessfully":true},{"note":46,"velocity":77,"hitTime":5832,"closestNoteTime":5760,"hitSuccessfully":true},{"note":46,"velocity":76,"hitTime":6288,"closestNoteTime":6240,"hitSuccessfully":true},{"note":46,"velocity":76,"hitTime":6784,"closestNoteTime":6720,"hitSuccessfully":true},{"note":46,"velocity":75,"hitTime":7264,"closestNoteTime":7200,"hitSuccessfully":true},{"note":46,"velocity":77,"hitTime":7760,"closestNoteTime":7680,"hitSuccessfully":true},{"note":46,"velocity":77,"hitTime":8240,"closestNoteTime":8160,"hitSuccessfully":true},{"note":46,"velocity":75,"hitTime":8712,"closestNoteTime":8640,"hitSuccessfully":true},{"note":46,"velocity":79,"hitTime":9176,"closestNoteTime":9120,"hitSuccessfully":true},{"note":46,"velocity":79,"hitTime":9672,"closestNoteTime":9600,"hitSuccessfully":true},{"note":46,"velocity":74,"hitTime":10168,"closestNoteTime":10080,"hitSuccessfully":true},{"note":46,"velocity":77,"hitTime":10648,"closestNoteTime":10560,"hitSuccessfully":true},{"note":46,"velocity":74,"hitTime":11120,"closestNoteTime":11040,"hitSuccessfully":true},{"note":46,"velocity":76,"hitTime":11600,"closestNoteTime":11520,"hitSuccessfully":true},{"note":46,"velocity":76,"hitTime":12072,"closestNoteTime":12000,"hitSuccessfully":true},{"note":46,"velocity":75,"hitTime":12568,"closestNoteTime":12480,"hitSuccessfully":true},{"note":46,"velocity":72,"hitTime":13048,"closestNoteTime":12960,"hitSuccessfully":true},{"note":46,"velocity":75,"hitTime":13528,"closestNoteTime":13440,"hitSuccessfully":true},{"note":46,"velocity":76,"hitTime":14008,"closestNoteTime":13920,"hitSuccessfully":true},{"note":46,"velocity":77,"hitTime":14504,"closestNoteTime":14400,"hitSuccessfully":true},{"note":46,"velocity":75,"hitTime":14976,"closestNoteTime":14880,"hitSuccessfully":true}]}