{
  "frames": [
    {
      "note": 46,
      "velocity": 77,
      "hitTime": 119,
      "closestNoteTime": 0,
      "hitSuccessfully": true
    },
    {
      "note": 46,
      "velocity": 70,
      "hitTime": 516,
      "closestNoteTime": 480,
      "hitSuccessfully": true
    },
    {
      "note": 46,
      "velocity": 70,
      "hitTime": 948,
      "closestNoteTime": 960,
      "hitSuccessfully": true
    },
    {
      "note": 46,
      "velocity": 74,
      "hitTime": 1389,
      "closestNoteTime": 1440,
      "hitSuccessfully": true
    },
    {
      "note": 46,
      "velocity": 80,
      "hitTime": 1888,
      "closestNoteTime": 1920,
      "hitSuccessfully": true
    },
    {
      "note": 36,
      "velocity": 54,
      "hitTime": 1962,
      "closestNoteTime": 1920,
      "hitSuccessfully": true
    },
    {
      "note": 46,
      "velocity": 73,
      "hitTime": 2279,
      "closestNoteTime": 2400,
      "hitSuccessfully": true
    },
    {
      "note": 46,
      "velocity": 73,
      "hitTime": 2820,
      "closestNoteTime": 2880,
      "hitSuccessfully": true
    },
    {
      "note": 46,
      "velocity": 80,
      "hitTime": 3301,
      "closestNoteTime": 3360,
      "hitSuccessfully": true
    },
    {
      "note": 46,
      "velocity": 82,
      "hitTime": 3762,
      "closestNoteTime": 3840,
      "hitSuccessfully": true
    },
    {
      "note": 36,
      "velocity": 62,
      "hitTime": 3854,
      "closestNoteTime": 3840,
      "hitSuccessfully": true
    },
    {
      "note": 46,
      "velocity": 73,
      "hitTime": 4182,
      "closestNoteTime": 4320,
      "hitSuccessfully": true
    },
    {
      "note": 46,
      "velocity": 73,
      "hitTime": 4695,
      "closestNoteTime": 4800,
      "hitSuccessfully": true
    },
    {
      "note": 46,
      "velocity": 66,
      "hitTime": 5124,
      "closestNoteTime": 5280,
      "hitSuccessfully": true
    },
    {
      "note": 46,
      "velocity": 80,
      "hitTime": 5657,
      "closestNoteTime": 5760,
      "hitSuccessfully": true
    },
    {
      "note": 36,
      "velocity": 56,
      "hitTime": 5768,
      "closestNoteTime": 5760,
      "hitSuccessfully": true
    },
    {
      "note": 46,
      "velocity": 70,
      "hitTime": 6138,
      "closestNoteTime": 6240,
      "hitSuccessfully": true
    },
    {
      "note": 46,
      "velocity": 70,
      "hitTime": 6642,
      "closestNoteTime": 6720,
      "hitSuccessfully": true
    },
    {
      "note": 46,
      "velocity": 64,
      "hitTime": 7111,
      "closestNoteTime": 7200,
      "hitSuccessfully": true
    },
    {
      "note": 36,
      "velocity": 44,
      "hitTime": 7656,
      "closestNoteTime": 7680,
      "hitSuccessfully": true
    },
    {
      "note": 46,
      "velocity": 75,
      "hitTime": 7656,
      "closestNoteTime": 7680,
      "hitSuccessfully": true
    },
    {
      "note": 36,
      "velocity": 22,
      "hitTime": 7776,
      "closestNoteTime": 8160,
      "hitSuccessfully": false
    },
    {
      "note": 46,
      "velocity": 66,
      "hitTime": 8185,
      "closestNoteTime": 8160,
      "hitSuccessfully": true
    },
    {
      "note": 46,
      "velocity": 62,
      "hitTime": 8677,
      "closestNoteTime": 8640,
      "hitSuccessfully": true
    },
    {
      "note": 46,
      "velocity": 73,
      "hitTime": 9150,
      "closestNoteTime": 9120,
      "hitSuccessfully": true
    },
    {
      "note": 46,
      "velocity": 79,
      "hitTime": 9600,
      "closestNoteTime": 9600,
      "hitSuccessfully": true
    },
    {
      "note": 46,
      "velocity": 82,
      "hitTime": 10060,
      "closestNoteTime": 10080,
      "hitSuccessfully": true
    },
    {
      "note": 46,
      "velocity": 75,
      "hitTime": 10561,
      "closestNoteTime": 10560,
      "hitSuccessfully": true
    },
    {
      "note": 46,
      "velocity": 67,
      "hitTime": 11022,
      "closestNoteTime": 11040,
      "hitSuccessfully": true
    },
    {
      "note": 36,
      "velocity": 31,
      "hitTime": 11515,
      "closestNoteTime": 11520,
      "hitSuccessfully": true
    },
    {
      "note": 46,
      "velocity": 65,
      "hitTime": 11555,
      "closestNoteTime": 11520,
      "hitSuccessfully": true
    },
    {
      "note": 46,
      "velocity": 58,
      "hitTime": 11963,
      "closestNoteTime": 12000,
      "hitSuccessfully": true
    },
    {
      "note": 46,
      "velocity": 76,
      "hitTime": 12508,
      "closestNoteTime": 12480,
      "hitSuccessfully": true
    },
    {
      "note": 46,
      "velocity": 76,
      "hitTime": 12989,
      "closestNoteTime": 12960,
      "hitSuccessfully": true
    },
    {
      "note": 46,
      "velocity": 83,
      "hitTime": 13462,
      "closestNoteTime": 13440,
      "hitSuccessfully": true
    },
    {
      "note": 36,
      "velocity": 22,
      "hitTime": 13655,
      "closestNoteTime": 13440,
      "hitSuccessfully": true
    },
    {
      "note": 36,
      "velocity": 27,
      "hitTime": 13839,
      "closestNoteTime": 13920,
      "hitSuccessfully": false
    },
    {
      "note": 46,
      "velocity": 65,
      "hitTime": 14320,
      "closestNoteTime": 14400,
      "hitSuccessfully": true
    },
    {
      "note": 46,
      "velocity": 70,
      "hitTime": 14740,
      "closestNoteTime": 14880,
      "hitSuccessfully": true
    }
  ]
}