{"frames":[{"note":46,"velocity":74,"hitTime":48,"closestNoteTime":0,"hitSuccessfully":true},{"note":46,"velocity":73,"hitTime":464,"closestNoteTime":480,"hitSuccessfully":true},{"note":46,"velocity":74,"hitTime":888,"closestNoteTime":960,"hitSuccessfully":true},{"note":38,"velocity":79,"hitTime":920,"closestNoteTime":960,"hitSuccessfully":true},{"note":46,"velocity":76,"hitTime":1368,"closestNoteTime":1440,"hitSuccessfully":true},{"note":46,"velocity":70,"hitTime":1800,"closestNoteTime":1920,"hitSuccessfully":true},{"note":46,"velocity":73,"hitTime":2272,"closestNoteTime":2400,"hitSuccessfully":true},{"note":46,"velocity":79,"hitTime":2752,"closestNoteTime":2880,"hitSuccessfully":true},{"note":38,"velocity":80,"hitTime":2752,"closestNoteTime":2880,"hitSuccessfully":true},{"note":46,"velocity":70,"hitTime":3208,"closestNoteTime":3360,"hitSuccessfully":false},{"note":46,"velocity":67,"hitTime":3672,"closestNoteTime":3840,"hitSuccessfully":false},{"note":46,"velocity":67,"hitTime":4112,"closestNoteTime":4320,"hitSuccessfully":false},{"note":46,"velocity":76,"hitTime":4608,"closestNoteTime":4800,"hitSuccessfully":false},{"note":38,"velocity":80,"hitTime":4608,"closestNoteTime":4800,"hitSuccessfully":false},{"note":46,"velocity":70,"hitTime":5064,"closestNoteTime":5280,"hitSuccessfully":false},{"note":46,"velocity":73,"hitTime":5584,"closestNoteTime":5760,"hitSuccessfully":false},{"note":46,"velocity":64,"hitTime":6040,"closestNoteTime":6240,"hitSuccessfully":false},{"note":46,"velocity":76,"hitTime":7680,"closestNoteTime":7680,"hitSuccessfully":true},{"note":46,"velocity":47,"hitTime":7728,"closestNoteTime":8160,"hitSuccessfully":false},{"note":46,"velocity":72,"hitTime":8144,"closestNoteTime":8160,"hitSuccessfully":true},{"note":38,"velocity":76,"hitTime":8160,"closestNoteTime":8640,"hitSuccessfully":false},{"note":46,"velocity":50,"hitTime":8208,"closestNoteTime":8640,"hitSuccessfully":false},{"note":46,"velocity":70,"hitTime":8704,"closestNoteTime":8640,"hitSuccessfully":true},{"note":46,"velocity":72,"hitTime":9152,"closestNoteTime":9120,"hitSuccessfully":true},{"note":46,"velocity":70,"hitTime":9616,"closestNoteTime":9600,"hitSuccessfully":true},{"note":46,"velocity":72,"hitTime":10112,"closestNoteTime":10080,"hitSuccessfully":true},{"note":38,"velocity":78,"hitTime":10136,"closestNoteTime":10560,"hitSuccessfully":false},{"note":46,"velocity":62,"hitTime":10592,"closestNoteTime":10560,"hitSuccessfully":true},{"note":46,"velocity":64,"hitTime":11048,"closestNoteTime":11040,"hitSuccessfully":true},{"note":46,"velocity":62,"hitTime":11544,"closestNoteTime":11520,"hitSuccessfully":true},{"note":46,"velocity":72,"hitTime":12064,"closestNoteTime":12000,"hitSuccessfully":true},{"note":38,"velocity":79,"hitTime":12080,"closestNoteTime":12480,"hitSuccessfully":false},{"note":46,"velocity":58,"hitTime":12520,"closestNoteTime":12480,"hitSuccessfully":true},{"note":46,"velocity":62,"hitTime":12992,"closestNoteTime":12960,"hitSuccessfully":true},{"note":46,"velocity":58,"hitTime":13488,"closestNoteTime":13440,"hitSuccessfully":true},{"note":46,"velocity":74,"hitTime":13984,"closestNoteTime":13920,"hitSuccessfully":true},{"note":38,"velocity":74,"hitTime":14032,"closestNoteTime":14400,"hitSuccessfully":false},{"note":46,"velocity":66,"hitTime":14480,"closestNoteTime":14400,"hitSuccessfully":true},{"note":46,"velocity":66,"hitTime":14944,"closestNoteTime":14880,"hitSuccessfully":true}]}