{"frames":[{"note":36,"velocity":50,"hitTime":56,"closestNoteTime":0,"hitSuccessfully":true},{"note":46,"velocity":80,"hitTime":88,"closestNoteTime":0,"hitSuccessfully":true},{"note":46,"velocity":82,"hitTime":512,"closestNoteTime":480,"hitSuccessfully":true},{"note":46,"velocity":88,"hitTime":984,"closestNoteTime":960,"hitSuccessfully":true},{"note":38,"velocity":84,"hitTime":984,"closestNoteTime":960,"hitSuccessfully":true},{"note":46,"velocity":74,"hitTime":1408,"closestNoteTime":1440,"hitSuccessfully":true},{"note":36,"velocity":64,"hitTime":1840,"closestNoteTime":1920,"hitSuccessfully":true},{"note":46,"velocity":90,"hitTime":1880,"closestNoteTime":1920,"hitSuccessfully":true},{"note":46,"velocity":73,"hitTime":2360,"closestNoteTime":2400,"hitSuccessfully":true},{"note":38,"velocity":90,"hitTime":2832,"closestNoteTime":2880,"hitSuccessfully":true},{"note":46,"velocity":85,"hitTime":2848,"closestNoteTime":2880,"hitSuccessfully":true},{"note":46,"velocity":74,"hitTime":3288,"closestNoteTime":3360,"hitSuccessfully":true},{"note":36,"velocity":58,"hitTime":3728,"closestNoteTime":3840,"hitSuccessfully":true},{"note":46,"velocity":85,"hitTime":3784,"closestNoteTime":3840,"hitSuccessfully":true},{"note":46,"velocity":80,"hitTime":4264,"closestNoteTime":4320,"hitSuccessfully":true},{"note":46,"velocity":79,"hitTime":4728,"closestNoteTime":4800,"hitSuccessfully":true},{"note":46,"velocity":77,"hitTime":5216,"closestNoteTime":5280,"hitSuccessfully":true},{"note":36,"velocity":60,"hitTime":5696,"closestNoteTime":5760,"hitSuccessfully":true},{"note":46,"velocity":86,"hitTime":5736,"closestNoteTime":5760,"hitSuccessfully":true},{"note":46,"velocity":79,"hitTime":6200,"closestNoteTime":6240,"hitSuccessfully":true},{"note":46,"velocity":80,"hitTime":6712,"closestNoteTime":6720,"hitSuccessfully":true},{"note":38,"velocity":87,"hitTime":6712,"closestNoteTime":6720,"hitSuccessfully":true},{"note":46,"velocity":75,"hitTime":7168,"closestNoteTime":7200,"hitSuccessfully":true},{"note":36,"velocity":54,"hitTime":7608,"closestNoteTime":7680,"hitSuccessfully":true},{"note":46,"velocity":85,"hitTime":7680,"closestNoteTime":7680,"hitSuccessfully":true},{"note":46,"velocity":60,"hitTime":7720,"closestNoteTime":8160,"hitSuccessfully":false},{"note":46,"velocity":73,"hitTime":8160,"closestNoteTime":8160,"hitSuccessfully":true},{"note":38,"velocity":94,"hitTime":8640,"closestNoteTime":8640,"hitSuccessfully":true},{"note":46,"velocity":90,"hitTime":8640,"closestNoteTime":8640,"hitSuccessfully":true},{"note":46,"velocity":75,"hitTime":9096,"closestNoteTime":9120,"hitSuccessfully":true},{"note":36,"velocity":55,"hitTime":9552,"closestNoteTime":9600,"hitSuccessfully":true},{"note":46,"velocity":85,"hitTime":9600,"closestNoteTime":9600,"hitSuccessfully":true},{"note":46,"velocity":74,"hitTime":10072,"closestNoteTime":10080,"hitSuccessfully":true},{"note":46,"velocity":84,"hitTime":10528,"closestNoteTime":10560,"hitSuccessfully":true},{"note":38,"velocity":94,"hitTime":10568,"closestNoteTime":10560,"hitSuccessfully":true},{"note":46,"velocity":76,"hitTime":11024,"closestNoteTime":11040,"hitSuccessfully":true},{"note":36,"velocity":46,"hitTime":11448,"closestNoteTime":11520,"hitSuccessfully":true},{"note":46,"velocity":82,"hitTime":11488,"closestNoteTime":11520,"hitSuccessfully":true},{"note":46,"velocity":50,"hitTime":11568,"closestNoteTime":12000,"hitSuccessfully":false},{"note":46,"velocity":74,"hitTime":11944,"closestNoteTime":12000,"hitSuccessfully":true},{"note":46,"velocity":88,"hitTime":12432,"closestNoteTime":12480,"hitSuccessfully":true},{"note":38,"velocity":83,"hitTime":12440,"closestNoteTime":12480,"hitSuccessfully":true},{"note":46,"velocity":77,"hitTime":12896,"closestNoteTime":12960,"hitSuccessfully":true},{"note":36,"velocity":55,"hitTime":13312,"closestNoteTime":13440,"hitSuccessfully":true},{"note":46,"velocity":84,"hitTime":13352,"closestNoteTime":13440,"hitSuccessfully":true},{"note":46,"velocity":74,"hitTime":13824,"closestNoteTime":13920,"hitSuccessfully":true},{"note":46,"velocity":85,"hitTime":14280,"closestNoteTime":14400,"hitSuccessfully":true},{"note":38,"velocity":89,"hitTime":14320,"closestNoteTime":14400,"hitSuccessfully":true},{"note":46,"velocity":80,"hitTime":14744,"closestNoteTime":14880,"hitSuccessfully":true}]}