{"frames":[{"note":46,"velocity":101,"hitTime":4000,"closestNoteTime":3840,"hitSuccessfully":true},{"note":36,"velocity":77,"hitTime":4064,"closestNoteTime":3840,"hitSuccessfully":true},{"note":46,"velocity":79,"hitTime":4480,"closestNoteTime":4320,"hitSuccessfully":true},{"note":46,"velocity":85,"hitTime":4976,"closestNoteTime":4800,"hitSuccessfully":true},{"note":46,"velocity":82,"hitTime":5424,"closestNoteTime":5280,"hitSuccessfully":true},{"note":46,"velocity":85,"hitTime":5936,"closestNoteTime":5760,"hitSuccessfully":true},{"note":46,"velocity":40,"hitTime":6336,"closestNoteTime":6240,"hitSuccessfully":true},{"note":46,"velocity":85,"hitTime":6848,"closestNoteTime":6720,"hitSuccessfully":true},{"note":46,"velocity":79,"hitTime":7280,"closestNoteTime":7200,"hitSuccessfully":true},{"note":38,"velocity":82,"hitTime":7776,"closestNoteTime":8640,"hitSuccessfully":false},{"note":46,"velocity":99,"hitTime":7776,"closestNoteTime":7680,"hitSuccessfully":true},{"note":46,"velocity":70,"hitTime":8336,"closestNoteTime":8160,"hitSuccessfully":true},{"note":46,"velocity":62,"hitTime":8656,"closestNoteTime":8640,"hitSuccessfully":true},{"note":46,"velocity":79,"hitTime":9088,"closestNoteTime":9120,"hitSuccessfully":true},{"note":46,"velocity":82,"hitTime":9648,"closestNoteTime":9600,"hitSuccessfully":true},{"note":46,"velocity":76,"hitTime":10144,"closestNoteTime":10080,"hitSuccessfully":true},{"note":46,"velocity":87,"hitTime":10592,"closestNoteTime":10560,"hitSuccessfully":true},{"note":46,"velocity":70,"hitTime":11040,"closestNoteTime":11040,"hitSuccessfully":true},{"note":46,"velocity":104,"hitTime":11584,"closestNoteTime":11520,"hitSuccessfully":true},{"note":38,"velocity":83,"hitTime":11584,"closestNoteTime":12480,"hitSuccessfully":false},{"note":36,"velocity":94,"hitTime":11616,"closestNoteTime":11520,"hitSuccessfully":true},{"note":46,"velocity":88,"hitTime":12096,"closestNoteTime":12000,"hitSuccessfully":true},{"note":46,"velocity":83,"hitTime":12576,"closestNoteTime":12480,"hitSuccessfully":true},{"note":46,"velocity":70,"hitTime":13008,"closestNoteTime":12960,"hitSuccessfully":true},{"note":46,"velocity":94,"hitTime":13488,"closestNoteTime":13440,"hitSuccessfully":true},{"note":36,"velocity":87,"hitTime":13536,"closestNoteTime":13440,"hitSuccessfully":true},{"note":46,"velocity":79,"hitTime":13968,"closestNoteTime":13920,"hitSuccessfully":true},{"note":46,"velocity":101,"hitTime":14480,"closestNoteTime":14400,"hitSuccessfully":true},{"note":36,"velocity":79,"hitTime":14576,"closestNoteTime":15360,"hitSuccessfully":false},{"note":46,"velocity":104,"hitTime":15408,"closestNoteTime":15360,"hitSuccessfully":true},{"note":36,"velocity":58,"hitTime":15440,"closestNoteTime":15360,"hitSuccessfully":true},{"note":38,"velocity":88,"hitTime":15456,"closestNoteTime":16320,"hitSuccessfully":false},{"note":46,"velocity":80,"hitTime":15488,"closestNoteTime":15840,"hitSuccessfully":false},{"note":38,"velocity":56,"hitTime":15888,"closestNoteTime":16320,"hitSuccessfully":false},{"note":46,"velocity":91,"hitTime":16352,"closestNoteTime":16320,"hitSuccessfully":true},{"note":36,"velocity":62,"hitTime":16480,"closestNoteTime":17280,"hitSuccessfully":false},{"note":46,"velocity":77,"hitTime":16832,"closestNoteTime":16800,"hitSuccessfully":true},{"note":46,"velocity":101,"hitTime":17344,"closestNoteTime":17280,"hitSuccessfully":true},{"note":36,"velocity":56,"hitTime":17344,"closestNoteTime":17280,"hitSuccessfully":true},{"note":46,"velocity":100,"hitTime":18240,"closestNoteTime":18240,"hitSuccessfully":true},{"note":36,"velocity":48,"hitTime":18272,"closestNoteTime":19200,"hitSuccessfully":false},{"note":46,"velocity":84,"hitTime":18736,"closestNoteTime":18720,"hitSuccessfully":true},{"note":46,"velocity":101,"hitTime":19232,"closestNoteTime":19200,"hitSuccessfully":true},{"note":36,"velocity":78,"hitTime":19264,"closestNoteTime":19200,"hitSuccessfully":true},{"note":38,"velocity":82,"hitTime":19264,"closestNoteTime":20160,"hitSuccessfully":false},{"note":38,"velocity":41,"hitTime":19696,"closestNoteTime":20160,"hitSuccessfully":false},{"note":46,"velocity":93,"hitTime":20128,"closestNoteTime":20160,"hitSuccessfully":true},{"note":36,"velocity":46,"hitTime":20208,"closestNoteTime":21120,"hitSuccessfully":false},{"note":46,"velocity":80,"hitTime":20576,"closestNoteTime":20640,"hitSuccessfully":true},{"note":36,"velocity":58,"hitTime":21120,"closestNoteTime":21120,"hitSuccessfully":true},{"note":46,"velocity":97,"hitTime":21120,"closestNoteTime":21120,"hitSuccessfully":true},{"note":46,"velocity":91,"hitTime":22000,"closestNoteTime":22080,"hitSuccessfully":true},{"note":36,"velocity":56,"hitTime":22016,"closestNoteTime":23040,"hitSuccessfully":false},{"note":46,"velocity":76,"hitTime":22512,"closestNoteTime":22560,"hitSuccessfully":true},{"note":46,"velocity":101,"hitTime":23008,"closestNoteTime":23040,"hitSuccessfully":true},{"note":38,"velocity":93,"hitTime":23008,"closestNoteTime":22080,"hitSuccessfully":false},{"note":36,"velocity":71,"hitTime":23072,"closestNoteTime":23040,"hitSuccessfully":true},{"note":46,"velocity":87,"hitTime":23552,"closestNoteTime":23520,"hitSuccessfully":true},{"note":46,"velocity":89,"hitTime":24000,"closestNoteTime":24000,"hitSuccessfully":true},{"note":36,"velocity":51,"hitTime":24032,"closestNoteTime":24960,"hitSuccessfully":false},{"note":46,"velocity":74,"hitTime":24384,"closestNoteTime":24480,"hitSuccessfully":true},{"note":46,"velocity":91,"hitTime":24944,"closestNoteTime":24960,"hitSuccessfully":true},{"note":36,"velocity":52,"hitTime":24944,"closestNoteTime":24960,"hitSuccessfully":true},{"note":46,"velocity":82,"hitTime":25344,"closestNoteTime":25440,"hitSuccessfully":true},{"note":46,"velocity":93,"hitTime":25872,"closestNoteTime":25920,"hitSuccessfully":true},{"note":36,"velocity":47,"hitTime":25904,"closestNoteTime":26880,"hitSuccessfully":false},{"note":46,"velocity":74,"hitTime":25936,"closestNoteTime":26400,"hitSuccessfully":false},{"note":46,"velocity":13,"hitTime":26368,"closestNoteTime":26400,"hitSuccessfully":true},{"note":46,"velocity":99,"hitTime":26864,"closestNoteTime":26880,"hitSuccessfully":true},{"note":38,"velocity":78,"hitTime":26864,"closestNoteTime":25920,"hitSuccessfully":false},{"note":36,"velocity":74,"hitTime":26896,"closestNoteTime":26880,"hitSuccessfully":true},{"note":38,"velocity":32,"hitTime":27328,"closestNoteTime":27840,"hitSuccessfully":false},{"note":46,"velocity":88,"hitTime":27744,"closestNoteTime":27840,"hitSuccessfully":true},{"note":36,"velocity":55,"hitTime":27840,"closestNoteTime":28800,"hitSuccessfully":false},{"note":46,"velocity":73,"hitTime":28160,"closestNoteTime":28320,"hitSuccessfully":true},{"note":36,"velocity":55,"hitTime":28720,"closestNoteTime":28800,"hitSuccessfully":true},{"note":46,"velocity":96,"hitTime":28736,"closestNoteTime":28800,"hitSuccessfully":true},{"note":46,"velocity":80,"hitTime":29168,"closestNoteTime":29280,"hitSuccessfully":true},{"note":36,"velocity":43,"hitTime":29632,"closestNoteTime":9600,"hitSuccessfully":false},{"note":46,"velocity":97,"hitTime":29648,"closestNoteTime":29760,"hitSuccessfully":true},{"note":46,"velocity":82,"hitTime":29680,"closestNoteTime":30240,"hitSuccessfully":false},{"note":46,"velocity":88,"hitTime":30080,"closestNoteTime":30240,"hitSuccessfully":true},{"note":36,"velocity":74,"hitTime":30592,"closestNoteTime":9600,"hitSuccessfully":false},{"note":46,"velocity":102,"hitTime":30624,"closestNoteTime":27360,"hitSuccessfully":false}]}