{
  "frames": [
    {
      "note": 46,
      "velocity": 108,
      "hitTime": 15,
      "closestNoteTime": 0,
      "hitSuccessfully": true
    },
    {
      "note": 36,
      "velocity": 64,
      "hitTime": 38,
      "closestNoteTime": 0,
      "hitSuccessfully": true
    },
    {
      "note": 46,
      "velocity": 88,
      "hitTime": 551,
      "closestNoteTime": 480,
      "hitSuccessfully": true
    },
    {
      "note": 46,
      "velocity": 109,
      "hitTime": 1040,
      "closestNoteTime": 960,
      "hitSuccessfully": true
    },
    {
      "note": 38,
      "velocity": 94,
      "hitTime": 1061,
      "closestNoteTime": 960,
      "hitSuccessfully": true
    },
    {
      "note": 46,
      "velocity": 91,
      "hitTime": 1550,
      "closestNoteTime": 1440,
      "hitSuccessfully": true
    },
    {
      "note": 36,
      "velocity": 84,
      "hitTime": 1985,
      "closestNoteTime": 1920,
      "hitSuccessfully": true
    },
    {
      "note": 46,
      "velocity": 104,
      "hitTime": 2025,
      "closestNoteTime": 1920,
      "hitSuccessfully": true
    },
    {
      "note": 46,
      "velocity": 91,
      "hitTime": 2492,
      "closestNoteTime": 2400,
      "hitSuccessfully": true
    },
    {
      "note": 38,
      "velocity": 94,
      "hitTime": 2964,
      "closestNoteTime": 2880,
      "hitSuccessfully": true
    },
    {
      "note": 46,
      "velocity": 104,
      "hitTime": 2987,
      "closestNoteTime": 2880,
      "hitSuccessfully": true
    },
    {
      "note": 46,
      "velocity": 90,
      "hitTime": 3477,
      "closestNoteTime": 3360,
      "hitSuccessfully": true
    },
    {
      "note": 36,
      "velocity": 71,
      "hitTime": 3949,
      "closestNoteTime": 3840,
      "hitSuccessfully": true
    },
    {
      "note": 46,
      "velocity": 104,
      "hitTime": 3965,
      "closestNoteTime": 3840,
      "hitSuccessfully": true
    },
    {
      "note": 46,
      "velocity": 87,
      "hitTime": 4462,
      "closestNoteTime": 4320,
      "hitSuccessfully": true
    },
    {
      "note": 38,
      "velocity": 92,
      "hitTime": 4972,
      "closestNoteTime": 4800,
      "hitSuccessfully": true
    },
    {
      "note": 46,
      "velocity": 100,
      "hitTime": 4974,
      "closestNoteTime": 4800,
      "hitSuccessfully": true
    },
    {
      "note": 46,
      "velocity": 77,
      "hitTime": 5439,
      "closestNoteTime": 5280,
      "hitSuccessfully": true
    },
    {
      "note": 36,
      "velocity": 55,
      "hitTime": 5873,
      "closestNoteTime": 5760,
      "hitSuccessfully": true
    },
    {
      "note": 46,
      "velocity": 99,
      "hitTime": 5912,
      "closestNoteTime": 5760,
      "hitSuccessfully": true
    },
    {
      "note": 46,
      "velocity": 91,
      "hitTime": 6384,
      "closestNoteTime": 6240,
      "hitSuccessfully": true
    },
    {
      "note": 38,
      "velocity": 98,
      "hitTime": 6874,
      "closestNoteTime": 6720,
      "hitSuccessfully": true
    },
    {
      "note": 46,
      "velocity": 107,
      "hitTime": 6875,
      "closestNoteTime": 6720,
      "hitSuccessfully": true
    },
    {
      "note": 46,
      "velocity": 88,
      "hitTime": 7344,
      "closestNoteTime": 7200,
      "hitSuccessfully": true
    },
    {
      "note": 36,
      "velocity": 66,
      "hitTime": 7797,
      "closestNoteTime": 7680,
      "hitSuccessfully": true
    },
    {
      "note": 46,
      "velocity": 104,
      "hitTime": 7797,
      "closestNoteTime": 7680,
      "hitSuccessfully": true
    },
    {
      "note": 46,
      "velocity": 94,
      "hitTime": 8269,
      "closestNoteTime": 8160,
      "hitSuccessfully": true
    },
    {
      "note": 46,
      "velocity": 103,
      "hitTime": 8782,
      "closestNoteTime": 8640,
      "hitSuccessfully": true
    },
    {
      "note": 38,
      "velocity": 94,
      "hitTime": 8782,
      "closestNoteTime": 8640,
      "hitSuccessfully": true
    },
    {
      "note": 46,
      "velocity": 95,
      "hitTime": 9254,
      "closestNoteTime": 9120,
      "hitSuccessfully": true
    },
    {
      "note": 36,
      "velocity": 61,
      "hitTime": 9744,
      "closestNoteTime": 9600,
      "hitSuccessfully": true
    },
    {
      "note": 46,
      "velocity": 102,
      "hitTime": 9744,
      "closestNoteTime": 9600,
      "hitSuccessfully": true
    },
    {
      "note": 46,
      "velocity": 91,
      "hitTime": 10256,
      "closestNoteTime": 10080,
      "hitSuccessfully": true
    },
    {
      "note": 46,
      "velocity": 104,
      "hitTime": 10746,
      "closestNoteTime": 10560,
      "hitSuccessfully": true
    },
    {
      "note": 38,
      "velocity": 95,
      "hitTime": 10746,
      "closestNoteTime": 10560,
      "hitSuccessfully": true
    },
    {
      "note": 46,
      "velocity": 82,
      "hitTime": 11175,
      "closestNoteTime": 11040,
      "hitSuccessfully": true
    },
    {
      "note": 46,
      "velocity": 104,
      "hitTime": 11627,
      "closestNoteTime": 11520,
      "hitSuccessfully": true
    },
    {
      "note": 36,
      "velocity": 59,
      "hitTime": 11650,
      "closestNoteTime": 11520,
      "hitSuccessfully": true
    },
    {
      "note": 46,
      "velocity": 91,
      "hitTime": 12140,
      "closestNoteTime": 12000,
      "hitSuccessfully": true
    },
    {
      "note": 46,
      "velocity": 104,
      "hitTime": 12648,
      "closestNoteTime": 12480,
      "hitSuccessfully": true
    },
    {
      "note": 38,
      "velocity": 90,
      "hitTime": 12652,
      "closestNoteTime": 12480,
      "hitSuccessfully": true
    },
    {
      "note": 46,
      "velocity": 89,
      "hitTime": 13120,
      "closestNoteTime": 12960,
      "hitSuccessfully": true
    },
    {
      "note": 46,
      "velocity": 104,
      "hitTime": 13614,
      "closestNoteTime": 13440,
      "hitSuccessfully": true
    },
    {
      "note": 46,
      "velocity": 88,
      "hitTime": 14064,
      "closestNoteTime": 13920,
      "hitSuccessfully": true
    },
    {
      "note": 46,
      "velocity": 108,
      "hitTime": 14519,
      "closestNoteTime": 14400,
      "hitSuccessfully": true
    },
    {
      "note": 46,
      "velocity": 75,
      "hitTime": 15025,
      "closestNoteTime": 14880,
      "hitSuccessfully": true
    },
    {
      "note": 36,
      "velocity": 66,
      "hitTime": 15440,
      "closestNoteTime": 15360,
      "hitSuccessfully": true
    },
    {
      "note": 46,
      "velocity": 99,
      "hitTime": 15498,
      "closestNoteTime": 15360,
      "hitSuccessfully": true
    },
    {
      "note": 46,
      "velocity": 87,
      "hitTime": 15930,
      "closestNoteTime": 15840,
      "hitSuccessfully": true
    },
    {
      "note": 46,
      "velocity": 105,
      "hitTime": 16438,
      "closestNoteTime": 16320,
      "hitSuccessfully": true
    },
    {
      "note": 38,
      "velocity": 89,
      "hitTime": 16442,
      "closestNoteTime": 16320,
      "hitSuccessfully": true
    },
    {
      "note": 46,
      "velocity": 93,
      "hitTime": 16932,
      "closestNoteTime": 16800,
      "hitSuccessfully": true
    },
    {
      "note": 36,
      "velocity": 30,
      "hitTime": 17381,
      "closestNoteTime": 17280,
      "hitSuccessfully": true
    },
    {
      "note": 46,
      "velocity": 101,
      "hitTime": 17404,
      "closestNoteTime": 17280,
      "hitSuccessfully": true
    },
    {
      "note": 46,
      "velocity": 82,
      "hitTime": 17917,
      "closestNoteTime": 17760,
      "hitSuccessfully": true
    },
    {
      "note": 46,
      "velocity": 108,
      "hitTime": 18362,
      "closestNoteTime": 18240,
      "hitSuccessfully": true
    },
    {
      "note": 46,
      "velocity": 79,
      "hitTime": 18879,
      "closestNoteTime": 18720,
      "hitSuccessfully": true
    },
    {
      "note": 46,
      "velocity": 101,
      "hitTime": 19368,
      "closestNoteTime": 19200,
      "hitSuccessfully": true
    },
    {
      "note": 46,
      "velocity": 62,
      "hitTime": 19860,
      "closestNoteTime": 19680,
      "hitSuccessfully": true
    },
    {
      "note": 36,
      "velocity": 54,
      "hitTime": 20186,
      "closestNoteTime": 20160,
      "hitSuccessfully": false
    },
    {
      "note": 46,
      "velocity": 108,
      "hitTime": 20290,
      "closestNoteTime": 20160,
      "hitSuccessfully": true
    },
    {
      "note": 38,
      "velocity": 89,
      "hitTime": 20313,
      "closestNoteTime": 20160,
      "hitSuccessfully": true
    },
    {
      "note": 46,
      "velocity": 91,
      "hitTime": 20762,
      "closestNoteTime": 20640,
      "hitSuccessfully": true
    },
    {
      "note": 46,
      "velocity": 102,
      "hitTime": 21273,
      "closestNoteTime": 21120,
      "hitSuccessfully": true
    },
    {
      "note": 46,
      "velocity": 96,
      "hitTime": 21745,
      "closestNoteTime": 21600,
      "hitSuccessfully": true
    },
    {
      "note": 46,
      "velocity": 103,
      "hitTime": 22214,
      "closestNoteTime": 22080,
      "hitSuccessfully": true
    },
    {
      "note": 38,
      "velocity": 72,
      "hitTime": 22260,
      "closestNoteTime": 22080,
      "hitSuccessfully": true
    },
    {
      "note": 46,
      "velocity": 106,
      "hitTime": 23199,
      "closestNoteTime": 23040,
      "hitSuccessfully": true
    },
    {
      "note": 46,
      "velocity": 93,
      "hitTime": 23684,
      "closestNoteTime": 23520,
      "hitSuccessfully": true
    },
    {
      "note": 46,
      "velocity": 104,
      "hitTime": 24120,
      "closestNoteTime": 24000,
      "hitSuccessfully": true
    },
    {
      "note": 38,
      "velocity": 90,
      "hitTime": 24144,
      "closestNoteTime": 24000,
      "hitSuccessfully": true
    },
    {
      "note": 46,
      "velocity": 95,
      "hitTime": 24633,
      "closestNoteTime": 24480,
      "hitSuccessfully": true
    },
    {
      "note": 38,
      "velocity": 74,
      "hitTime": 24633,
      "closestNoteTime": 24960,
      "hitSuccessfully": false
    },
    {
      "note": 36,
      "velocity": 66,
      "hitTime": 25101,
      "closestNoteTime": 24960,
      "hitSuccessfully": true
    },
    {
      "note": 46,
      "velocity": 101,
      "hitTime": 25146,
      "closestNoteTime": 24960,
      "hitSuccessfully": true
    },
    {
      "note": 46,
      "velocity": 100,
      "hitTime": 25592,
      "closestNoteTime": 25440,
      "hitSuccessfully": true
    },
    {
      "note": 46,
      "velocity": 106,
      "hitTime": 26067,
      "closestNoteTime": 25920,
      "hitSuccessfully": true
    },
    {
      "note": 38,
      "velocity": 94,
      "hitTime": 26080,
      "closestNoteTime": 25920,
      "hitSuccessfully": true
    },
    {
      "note": 46,
      "velocity": 82,
      "hitTime": 26557,
      "closestNoteTime": 26400,
      "hitSuccessfully": true
    },
    {
      "note": 46,
      "velocity": 110,
      "hitTime": 27006,
      "closestNoteTime": 26880,
      "hitSuccessfully": true
    },
    {
      "note": 46,
      "velocity": 97,
      "hitTime": 27479,
      "closestNoteTime": 27360,
      "hitSuccessfully": true
    },
    {
      "note": 36,
      "velocity": 55,
      "hitTime": 27888,
      "closestNoteTime": 27840,
      "hitSuccessfully": false
    },
    {
      "note": 46,
      "velocity": 106,
      "hitTime": 27951,
      "closestNoteTime": 27840,
      "hitSuccessfully": true
    },
    {
      "note": 38,
      "velocity": 92,
      "hitTime": 27974,
      "closestNoteTime": 27840,
      "hitSuccessfully": true
    },
    {
      "note": 46,
      "velocity": 87,
      "hitTime": 28501,
      "closestNoteTime": 28320,
      "hitSuccessfully": true
    },
    {
      "note": 46,
      "velocity": 105,
      "hitTime": 28953,
      "closestNoteTime": 28800,
      "hitSuccessfully": true
    },
    {
      "note": 46,
      "velocity": 96,
      "hitTime": 29425,
      "closestNoteTime": 29280,
      "hitSuccessfully": true
    },
    {
      "note": 46,
      "velocity": 103,
      "hitTime": 29938,
      "closestNoteTime": 29760,
      "hitSuccessfully": true
    }
  ]
}