{"frames":[{"note":36,"velocity":42,"hitTime":-112,"closestNoteTime":0,"hitSuccessfully":true},{"note":46,"velocity":93,"hitTime":424,"closestNoteTime":480,"hitSuccessfully":true},{"note":46,"velocity":91,"hitTime":864,"closestNoteTime":960,"hitSuccessfully":true},{"note":46,"velocity":91,"hitTime":1304,"closestNoteTime":1440,"hitSuccessfully":true},{"note":46,"velocity":102,"hitTime":1832,"closestNoteTime":1920,"hitSuccessfully":true},{"note":36,"velocity":52,"hitTime":1840,"closestNoteTime":1920,"hitSuccessfully":true},{"note":46,"velocity":89,"hitTime":2296,"closestNoteTime":2400,"hitSuccessfully":true},{"note":46,"velocity":93,"hitTime":2776,"closestNoteTime":2880,"hitSuccessfully":true},{"note":46,"velocity":90,"hitTime":3272,"closestNoteTime":3360,"hitSuccessfully":true},{"note":36,"velocity":62,"hitTime":3720,"closestNoteTime":3840,"hitSuccessfully":true},{"note":46,"velocity":100,"hitTime":3784,"closestNoteTime":3840,"hitSuccessfully":true},{"note":46,"velocity":86,"hitTime":4208,"closestNoteTime":4320,"hitSuccessfully":true},{"note":46,"velocity":88,"hitTime":4696,"closestNoteTime":4800,"hitSuccessfully":true},{"note":46,"velocity":89,"hitTime":5160,"closestNoteTime":5280,"hitSuccessfully":true},{"note":36,"velocity":52,"hitTime":5656,"closestNoteTime":5760,"hitSuccessfully":true},{"note":46,"velocity":100,"hitTime":5688,"closestNoteTime":5760,"hitSuccessfully":true},{"note":46,"velocity":88,"hitTime":6128,"closestNoteTime":6240,"hitSuccessfully":true},{"note":46,"velocity":91,"hitTime":6624,"closestNoteTime":6720,"hitSuccessfully":true},{"note":46,"velocity":90,"hitTime":7080,"closestNoteTime":7200,"hitSuccessfully":true},{"note":46,"velocity":101,"hitTime":7584,"closestNoteTime":7680,"hitSuccessfully":true},{"note":36,"velocity":43,"hitTime":7600,"closestNoteTime":7680,"hitSuccessfully":true},{"note":46,"velocity":89,"hitTime":8040,"closestNoteTime":8160,"hitSuccessfully":true},{"note":46,"velocity":91,"hitTime":8512,"closestNoteTime":8640,"hitSuccessfully":true},{"note":46,"velocity":91,"hitTime":8968,"closestNoteTime":9120,"hitSuccessfully":false},{"note":46,"velocity":102,"hitTime":9472,"closestNoteTime":9600,"hitSuccessfully":true},{"note":36,"velocity":67,"hitTime":9512,"closestNoteTime":9600,"hitSuccessfully":true},{"note":46,"velocity":91,"hitTime":9952,"closestNoteTime":10080,"hitSuccessfully":true},{"note":46,"velocity":93,"hitTime":10424,"closestNoteTime":10560,"hitSuccessfully":true},{"note":46,"velocity":98,"hitTime":10888,"closestNoteTime":11040,"hitSuccessfully":false},{"note":36,"velocity":51,"hitTime":11400,"closestNoteTime":11520,"hitSuccessfully":true},{"note":46,"velocity":107,"hitTime":11416,"closestNoteTime":11520,"hitSuccessfully":true},{"note":46,"velocity":99,"hitTime":11856,"closestNoteTime":12000,"hitSuccessfully":true},{"note":46,"velocity":101,"hitTime":12312,"closestNoteTime":12480,"hitSuccessfully":false},{"note":46,"velocity":93,"hitTime":12808,"closestNoteTime":12960,"hitSuccessfully":false},{"note":36,"velocity":32,"hitTime":13288,"closestNoteTime":13440,"hitSuccessfully":false},{"note":46,"velocity":106,"hitTime":13312,"closestNoteTime":13440,"hitSuccessfully":true},{"note":46,"velocity":96,"hitTime":13720,"closestNoteTime":13920,"hitSuccessfully":false},{"note":46,"velocity":102,"hitTime":14208,"closestNoteTime":14400,"hitSuccessfully":false},{"note":46,"velocity":103,"hitTime":14680,"closestNoteTime":14880,"hitSuccessfully":false},{"note":36,"velocity":51,"hitTime":15112,"closestNoteTime":13440,"hitSuccessfully":false}]}