{"frames":[{"note":46,"velocity":90,"hitTime":88,"closestNoteTime":0,"hitSuccessfully":true},{"note":46,"velocity":97,"hitTime":600,"closestNoteTime":480,"hitSuccessfully":true},{"note":46,"velocity":102,"hitTime":1048,"closestNoteTime":960,"hitSuccessfully":true},{"note":38,"velocity":91,"hitTime":1064,"closestNoteTime":960,"hitSuccessfully":true},{"note":46,"velocity":94,"hitTime":1504,"closestNoteTime":1440,"hitSuccessfully":true},{"note":46,"velocity":98,"hitTime":1960,"closestNoteTime":1920,"hitSuccessfully":true},{"note":46,"velocity":93,"hitTime":2432,"closestNoteTime":2400,"hitSuccessfully":true},{"note":46,"velocity":101,"hitTime":2896,"closestNoteTime":2880,"hitSuccessfully":true},{"note":46,"velocity":77,"hitTime":2936,"closestNoteTime":3360,"hitSuccessfully":false},{"note":46,"velocity":93,"hitTime":3368,"closestNoteTime":3360,"hitSuccessfully":true},{"note":46,"velocity":94,"hitTime":3832,"closestNoteTime":3840,"hitSuccessfully":true},{"note":46,"velocity":93,"hitTime":4320,"closestNoteTime":4320,"hitSuccessfully":true},{"note":46,"velocity":70,"hitTime":4360,"closestNoteTime":4800,"hitSuccessfully":false},{"note":46,"velocity":99,"hitTime":4800,"closestNoteTime":4800,"hitSuccessfully":true},{"note":38,"velocity":88,"hitTime":4800,"closestNoteTime":4800,"hitSuccessfully":true},{"note":46,"velocity":79,"hitTime":4824,"closestNoteTime":5280,"hitSuccessfully":false},{"note":46,"velocity":90,"hitTime":5280,"closestNoteTime":5280,"hitSuccessfully":true},{"note":46,"velocity":88,"hitTime":5736,"closestNoteTime":5760,"hitSuccessfully":true},{"note":46,"velocity":88,"hitTime":6216,"closestNoteTime":6240,"hitSuccessfully":true},{"note":46,"velocity":100,"hitTime":6712,"closestNoteTime":6720,"hitSuccessfully":true},{"note":38,"velocity":90,"hitTime":6712,"closestNoteTime":6720,"hitSuccessfully":true},{"note":46,"velocity":89,"hitTime":7184,"closestNoteTime":7200,"hitSuccessfully":true},{"note":46,"velocity":89,"hitTime":7640,"closestNoteTime":7680,"hitSuccessfully":true},{"note":46,"velocity":72,"hitTime":7664,"closestNoteTime":8160,"hitSuccessfully":false},{"note":46,"velocity":91,"hitTime":8160,"closestNoteTime":8160,"hitSuccessfully":true},{"note":46,"velocity":98,"hitTime":8664,"closestNoteTime":8640,"hitSuccessfully":true},{"note":38,"velocity":88,"hitTime":8664,"closestNoteTime":8640,"hitSuccessfully":true},{"note":46,"velocity":76,"hitTime":8696,"closestNoteTime":9120,"hitSuccessfully":false},{"note":46,"velocity":88,"hitTime":9136,"closestNoteTime":9120,"hitSuccessfully":true},{"note":46,"velocity":88,"hitTime":9608,"closestNoteTime":9600,"hitSuccessfully":true},{"note":46,"velocity":89,"hitTime":10088,"closestNoteTime":10080,"hitSuccessfully":true},{"note":46,"velocity":97,"hitTime":10608,"closestNoteTime":10560,"hitSuccessfully":true},{"note":38,"velocity":89,"hitTime":10608,"closestNoteTime":10560,"hitSuccessfully":true},{"note":46,"velocity":74,"hitTime":10632,"closestNoteTime":11040,"hitSuccessfully":false},{"note":46,"velocity":88,"hitTime":11080,"closestNoteTime":11040,"hitSuccessfully":true},{"note":46,"velocity":88,"hitTime":11560,"closestNoteTime":11520,"hitSuccessfully":true},{"note":46,"velocity":91,"hitTime":12040,"closestNoteTime":12000,"hitSuccessfully":true},{"note":46,"velocity":96,"hitTime":12512,"closestNoteTime":12480,"hitSuccessfully":true},{"note":38,"velocity":82,"hitTime":12520,"closestNoteTime":12480,"hitSuccessfully":true},{"note":46,"velocity":88,"hitTime":12976,"closestNoteTime":12960,"hitSuccessfully":true},{"note":46,"velocity":88,"hitTime":13448,"closestNoteTime":13440,"hitSuccessfully":true},{"note":46,"velocity":89,"hitTime":13944,"closestNoteTime":13920,"hitSuccessfully":true},{"note":46,"velocity":99,"hitTime":14440,"closestNoteTime":14400,"hitSuccessfully":true},{"note":38,"velocity":87,"hitTime":14440,"closestNoteTime":14400,"hitSuccessfully":true},{"note":46,"velocity":91,"hitTime":14904,"closestNoteTime":14880,"hitSuccessfully":true}]}