{"frames":[{"note":36,"velocity":61,"hitTime":-32,"closestNoteTime":0,"hitSuccessfully":true},{"note":46,"velocity":108,"hitTime":424,"closestNoteTime":480,"hitSuccessfully":true},{"note":46,"velocity":127,"hitTime":904,"closestNoteTime":960,"hitSuccessfully":true},{"note":46,"velocity":106,"hitTime":1816,"closestNoteTime":1920,"hitSuccessfully":true},{"note":46,"velocity":127,"hitTime":2472,"closestNoteTime":2400,"hitSuccessfully":true},{"note":46,"velocity":118,"hitTime":3168,"closestNoteTime":3360,"hitSuccessfully":false},{"note":46,"velocity":127,"hitTime":3688,"closestNoteTime":3840,"hitSuccessfully":false},{"note":46,"velocity":127,"hitTime":4904,"closestNoteTime":4800,"hitSuccessfully":true},{"note":46,"velocity":125,"hitTime":5320,"closestNoteTime":5280,"hitSuccessfully":true},{"note":46,"velocity":127,"hitTime":5792,"closestNoteTime":5760,"hitSuccessfully":true},{"note":46,"velocity":127,"hitTime":6304,"closestNoteTime":6240,"hitSuccessfully":true},{"note":46,"velocity":127,"hitTime":6752,"closestNoteTime":6720,"hitSuccessfully":true},{"note":46,"velocity":116,"hitTime":7200,"closestNoteTime":7200,"hitSuccessfully":true},{"note":46,"velocity":127,"hitTime":7680,"closestNoteTime":7680,"hitSuccessfully":true},{"note":46,"velocity":108,"hitTime":8120,"closestNoteTime":8160,"hitSuccessfully":true},{"note":46,"velocity":127,"hitTime":8576,"closestNoteTime":8640,"hitSuccessfully":true},{"note":46,"velocity":127,"hitTime":9088,"closestNoteTime":9120,"hitSuccessfully":true},{"note":46,"velocity":122,"hitTime":9568,"closestNoteTime":9600,"hitSuccessfully":true},{"note":36,"velocity":99,"hitTime":9808,"closestNoteTime":9600,"hitSuccessfully":false},{"note":46,"velocity":105,"hitTime":10160,"closestNoteTime":10080,"hitSuccessfully":true},{"note":46,"velocity":127,"hitTime":10616,"closestNoteTime":10560,"hitSuccessfully":true},{"note":46,"velocity":125,"hitTime":11064,"closestNoteTime":11040,"hitSuccessfully":true},{"note":36,"velocity":59,"hitTime":11512,"closestNoteTime":11520,"hitSuccessfully":true},{"note":46,"velocity":127,"hitTime":11520,"closestNoteTime":11520,"hitSuccessfully":true},{"note":46,"velocity":125,"hitTime":11952,"closestNoteTime":12000,"hitSuccessfully":true},{"note":46,"velocity":127,"hitTime":12432,"closestNoteTime":12480,"hitSuccessfully":true},{"note":46,"velocity":60,"hitTime":12904,"closestNoteTime":12960,"hitSuccessfully":true},{"note":46,"velocity":114,"hitTime":13352,"closestNoteTime":13440,"hitSuccessfully":true},{"note":46,"velocity":127,"hitTime":13824,"closestNoteTime":13920,"hitSuccessfully":true},{"note":38,"velocity":111,"hitTime":14280,"closestNoteTime":14400,"hitSuccessfully":true},{"note":46,"velocity":127,"hitTime":14280,"closestNoteTime":14400,"hitSuccessfully":true},{"note":38,"velocity":62,"hitTime":14344,"closestNoteTime":12480,"hitSuccessfully":false},{"note":46,"velocity":127,"hitTime":14760,"closestNoteTime":14880,"hitSuccessfully":true},{"note":46,"velocity":118,"hitTime":15240,"closestNoteTime":4320,"hitSuccessfully":false}]}