{"frames":[{"note":36,"velocity":78,"hitTime":48,"closestNoteTime":0,"hitSuccessfully":true},{"note":46,"velocity":127,"hitTime":128,"closestNoteTime":0,"hitSuccessfully":true},{"note":46,"velocity":127,"hitTime":528,"closestNoteTime":480,"hitSuccessfully":true},{"note":46,"velocity":127,"hitTime":1040,"closestNoteTime":960,"hitSuccessfully":true},{"note":46,"velocity":127,"hitTime":1504,"closestNoteTime":1440,"hitSuccessfully":true},{"note":36,"velocity":110,"hitTime":1824,"closestNoteTime":1920,"hitSuccessfully":true},{"note":46,"velocity":127,"hitTime":1952,"closestNoteTime":1920,"hitSuccessfully":true},{"note":46,"velocity":127,"hitTime":2480,"closestNoteTime":2400,"hitSuccessfully":true},{"note":46,"velocity":127,"hitTime":2992,"closestNoteTime":2880,"hitSuccessfully":true},{"note":46,"velocity":112,"hitTime":3456,"closestNoteTime":3360,"hitSuccessfully":true},{"note":46,"velocity":127,"hitTime":3904,"closestNoteTime":3840,"hitSuccessfully":true},{"note":46,"velocity":114,"hitTime":4384,"closestNoteTime":4320,"hitSuccessfully":true},{"note":46,"velocity":127,"hitTime":4864,"closestNoteTime":4800,"hitSuccessfully":true},{"note":38,"velocity":102,"hitTime":4864,"closestNoteTime":4800,"hitSuccessfully":true},{"note":38,"velocity":75,"hitTime":4928,"closestNoteTime":6720,"hitSuccessfully":false},{"note":46,"velocity":127,"hitTime":5328,"closestNoteTime":5280,"hitSuccessfully":true},{"note":36,"velocity":118,"hitTime":5840,"closestNoteTime":5760,"hitSuccessfully":true},{"note":46,"velocity":127,"hitTime":5840,"closestNoteTime":5760,"hitSuccessfully":true},{"note":46,"velocity":109,"hitTime":6320,"closestNoteTime":6240,"hitSuccessfully":true},{"note":46,"velocity":127,"hitTime":6720,"closestNoteTime":6720,"hitSuccessfully":true},{"note":46,"velocity":124,"hitTime":7328,"closestNoteTime":7200,"hitSuccessfully":true},{"note":46,"velocity":120,"hitTime":7792,"closestNoteTime":7680,"hitSuccessfully":true},{"note":46,"velocity":109,"hitTime":8224,"closestNoteTime":8160,"hitSuccessfully":true},{"note":46,"velocity":127,"hitTime":8720,"closestNoteTime":8640,"hitSuccessfully":true},{"note":46,"velocity":120,"hitTime":9232,"closestNoteTime":9120,"hitSuccessfully":true},{"note":46,"velocity":124,"hitTime":9664,"closestNoteTime":9600,"hitSuccessfully":true},{"note":46,"velocity":104,"hitTime":10144,"closestNoteTime":10080,"hitSuccessfully":true},{"note":46,"velocity":127,"hitTime":10592,"closestNoteTime":10560,"hitSuccessfully":true},{"note":36,"velocity":106,"hitTime":10624,"closestNoteTime":11520,"hitSuccessfully":false},{"note":46,"velocity":80,"hitTime":11216,"closestNoteTime":11040,"hitSuccessfully":true},{"note":46,"velocity":127,"hitTime":11648,"closestNoteTime":11520,"hitSuccessfully":true},{"note":46,"velocity":108,"hitTime":12048,"closestNoteTime":12000,"hitSuccessfully":true},{"note":36,"velocity":118,"hitTime":12960,"closestNoteTime":13440,"hitSuccessfully":false},{"note":46,"velocity":127,"hitTime":12976,"closestNoteTime":12960,"hitSuccessfully":true},{"note":36,"velocity":83,"hitTime":15392,"closestNoteTime":15360,"hitSuccessfully":true},{"note":46,"velocity":127,"hitTime":15472,"closestNoteTime":15360,"hitSuccessfully":true},{"note":46,"velocity":104,"hitTime":15904,"closestNoteTime":15840,"hitSuccessfully":true},{"note":46,"velocity":127,"hitTime":16384,"closestNoteTime":16320,"hitSuccessfully":true},{"note":38,"velocity":106,"hitTime":16400,"closestNoteTime":16320,"hitSuccessfully":true},{"note":46,"velocity":108,"hitTime":16896,"closestNoteTime":16800,"hitSuccessfully":true},{"note":46,"velocity":127,"hitTime":17344,"closestNoteTime":17280,"hitSuccessfully":true},{"note":36,"velocity":125,"hitTime":17504,"closestNoteTime":17280,"hitSuccessfully":true},{"note":46,"velocity":118,"hitTime":17776,"closestNoteTime":17760,"hitSuccessfully":true},{"note":38,"velocity":94,"hitTime":18224,"closestNoteTime":18240,"hitSuccessfully":true},{"note":46,"velocity":127,"hitTime":18256,"closestNoteTime":18240,"hitSuccessfully":true},{"note":38,"velocity":43,"hitTime":18336,"closestNoteTime":20160,"hitSuccessfully":false},{"note":46,"velocity":109,"hitTime":18704,"closestNoteTime":18720,"hitSuccessfully":true},{"note":36,"velocity":98,"hitTime":19136,"closestNoteTime":19200,"hitSuccessfully":true},{"note":46,"velocity":127,"hitTime":19200,"closestNoteTime":19200,"hitSuccessfully":true},{"note":46,"velocity":112,"hitTime":19648,"closestNoteTime":19680,"hitSuccessfully":true},{"note":46,"velocity":127,"hitTime":20160,"closestNoteTime":20160,"hitSuccessfully":true},{"note":46,"velocity":64,"hitTime":20752,"closestNoteTime":20640,"hitSuccessfully":true},{"note":46,"velocity":127,"hitTime":21152,"closestNoteTime":21120,"hitSuccessfully":true},{"note":36,"velocity":80,"hitTime":21280,"closestNoteTime":21120,"hitSuccessfully":true},{"note":46,"velocity":100,"hitTime":21632,"closestNoteTime":21600,"hitSuccessfully":true},{"note":46,"velocity":127,"hitTime":22112,"closestNoteTime":22080,"hitSuccessfully":true},{"note":46,"velocity":96,"hitTime":22784,"closestNoteTime":22560,"hitSuccessfully":true},{"note":46,"velocity":127,"hitTime":23152,"closestNoteTime":23040,"hitSuccessfully":true},{"note":46,"velocity":109,"hitTime":23616,"closestNoteTime":23520,"hitSuccessfully":true},{"note":36,"velocity":87,"hitTime":24064,"closestNoteTime":24960,"hitSuccessfully":false},{"note":46,"velocity":127,"hitTime":24096,"closestNoteTime":24000,"hitSuccessfully":true},{"note":46,"velocity":108,"hitTime":24624,"closestNoteTime":24480,"hitSuccessfully":true},{"note":46,"velocity":108,"hitTime":25040,"closestNoteTime":24960,"hitSuccessfully":true},{"note":46,"velocity":103,"hitTime":25488,"closestNoteTime":25440,"hitSuccessfully":true},{"note":46,"velocity":127,"hitTime":25920,"closestNoteTime":25920,"hitSuccessfully":true},{"note":46,"velocity":107,"hitTime":26416,"closestNoteTime":26400,"hitSuccessfully":true},{"note":46,"velocity":122,"hitTime":26912,"closestNoteTime":26880,"hitSuccessfully":true},{"note":46,"velocity":103,"hitTime":27312,"closestNoteTime":27360,"hitSuccessfully":true},{"note":38,"velocity":98,"hitTime":27792,"closestNoteTime":27840,"hitSuccessfully":true},{"note":46,"velocity":127,"hitTime":27808,"closestNoteTime":27840,"hitSuccessfully":true},{"note":38,"velocity":76,"hitTime":27840,"closestNoteTime":25920,"hitSuccessfully":false},{"note":46,"velocity":124,"hitTime":28320,"closestNoteTime":28320,"hitSuccessfully":true},{"note":46,"velocity":106,"hitTime":28784,"closestNoteTime":28800,"hitSuccessfully":true},{"note":46,"velocity":103,"hitTime":29232,"closestNoteTime":29280,"hitSuccessfully":true},{"note":46,"velocity":127,"hitTime":29696,"closestNoteTime":29760,"hitSuccessfully":true},{"note":46,"velocity":104,"hitTime":30224,"closestNoteTime":30240,"hitSuccessfully":true},{"note":46,"velocity":127,"hitTime":30688,"closestNoteTime":14880,"hitSuccessfully":false}]}