{
  "frames": [
    {
      "note": 46,
      "velocity": 104,
      "hitTime": 204,
      "closestNoteTime": 0,
      "hitSuccessfully": true
    },
    {
      "note": 46,
      "velocity": 88,
      "hitTime": 659,
      "closestNoteTime": 480,
      "hitSuccessfully": true
    },
    {
      "note": 46,
      "velocity": 93,
      "hitTime": 1126,
      "closestNoteTime": 960,
      "hitSuccessfully": true
    },
    {
      "note": 46,
      "velocity": 79,
      "hitTime": 1554,
      "closestNoteTime": 1440,
      "hitSuccessfully": true
    },
    {
      "note": 46,
      "velocity": 90,
      "hitTime": 2060,
      "closestNoteTime": 1920,
      "hitSuccessfully": true
    },
    {
      "note": 46,
      "velocity": 76,
      "hitTime": 2502,
      "closestNoteTime": 2400,
      "hitSuccessfully": true
    },
    {
      "note": 46,
      "velocity": 80,
      "hitTime": 2987,
      "closestNoteTime": 2880,
      "hitSuccessfully": true
    },
    {
      "note": 46,
      "velocity": 80,
      "hitTime": 3424,
      "closestNoteTime": 3360,
      "hitSuccessfully": true
    },
    {
      "note": 46,
      "velocity": 122,
      "hitTime": 3954,
      "closestNoteTime": 3840,
      "hitSuccessfully": true
    },
    {
      "note": 36,
      "velocity": 88,
      "hitTime": 3994,
      "closestNoteTime": 3840,
      "hitSuccessfully": true
    },
    {
      "note": 46,
      "velocity": 91,
      "hitTime": 4426,
      "closestNoteTime": 4320,
      "hitSuccessfully": true
    },
    {
      "note": 46,
      "velocity": 85,
      "hitTime": 4916,
      "closestNoteTime": 4800,
      "hitSuccessfully": true
    },
    {
      "note": 46,
      "velocity": 87,
      "hitTime": 5325,
      "closestNoteTime": 5280,
      "hitSuccessfully": true
    },
    {
      "note": 38,
      "velocity": 106,
      "hitTime": 5875,
      "closestNoteTime": 5760,
      "hitSuccessfully": false
    },
    {
      "note": 46,
      "velocity": 108,
      "hitTime": 5878,
      "closestNoteTime": 5760,
      "hitSuccessfully": true
    },
    {
      "note": 46,
      "velocity": 89,
      "hitTime": 6413,
      "closestNoteTime": 6240,
      "hitSuccessfully": true
    },
    {
      "note": 46,
      "velocity": 80,
      "hitTime": 6799,
      "closestNoteTime": 6720,
      "hitSuccessfully": true
    },
    {
      "note": 46,
      "velocity": 65,
      "hitTime": 7168,
      "closestNoteTime": 7200,
      "hitSuccessfully": true
    },
    {
      "note": 46,
      "velocity": 109,
      "hitTime": 7704,
      "closestNoteTime": 7680,
      "hitSuccessfully": true
    },
    {
      "note": 36,
      "velocity": 90,
      "hitTime": 7721,
      "closestNoteTime": 7680,
      "hitSuccessfully": true
    },
    {
      "note": 38,
      "velocity": 85,
      "hitTime": 7824,
      "closestNoteTime": 8160,
      "hitSuccessfully": false
    },
    {
      "note": 46,
      "velocity": 88,
      "hitTime": 8170,
      "closestNoteTime": 8160,
      "hitSuccessfully": true
    },
    {
      "note": 46,
      "velocity": 86,
      "hitTime": 8683,
      "closestNoteTime": 8640,
      "hitSuccessfully": true
    },
    {
      "note": 46,
      "velocity": 79,
      "hitTime": 9114,
      "closestNoteTime": 9120,
      "hitSuccessfully": true
    },
    {
      "note": 46,
      "velocity": 58,
      "hitTime": 9178,
      "closestNoteTime": 9600,
      "hitSuccessfully": true
    },
    {
      "note": 46,
      "velocity": 105,
      "hitTime": 9587,
      "closestNoteTime": 9600,
      "hitSuccessfully": true
    },
    {
      "note": 38,
      "velocity": 106,
      "hitTime": 9604,
      "closestNoteTime": 9600,
      "hitSuccessfully": false
    },
    {
      "note": 46,
      "velocity": 91,
      "hitTime": 10077,
      "closestNoteTime": 9600,
      "hitSuccessfully": true
    },
    {
      "note": 46,
      "velocity": 85,
      "hitTime": 10509,
      "closestNoteTime": 10560,
      "hitSuccessfully": true
    },
    {
      "note": 46,
      "velocity": 76,
      "hitTime": 10915,
      "closestNoteTime": 10560,
      "hitSuccessfully": false
    },
    {
      "note": 46,
      "velocity": 105,
      "hitTime": 11467,
      "closestNoteTime": 11520,
      "hitSuccessfully": true
    },
    {
      "note": 36,
      "velocity": 89,
      "hitTime": 11471,
      "closestNoteTime": 11520,
      "hitSuccessfully": true
    },
    {
      "note": 46,
      "velocity": 83,
      "hitTime": 11903,
      "closestNoteTime": 12000,
      "hitSuccessfully": true
    },
    {
      "note": 46,
      "velocity": 87,
      "hitTime": 12432,
      "closestNoteTime": 12480,
      "hitSuccessfully": true
    },
    {
      "note": 46,
      "velocity": 82,
      "hitTime": 12801,
      "closestNoteTime": 12960,
      "hitSuccessfully": true
    },
    {
      "note": 46,
      "velocity": 101,
      "hitTime": 13368,
      "closestNoteTime": 13440,
      "hitSuccessfully": true
    },
    {
      "note": 38,
      "velocity": 94,
      "hitTime": 13417,
      "closestNoteTime": 13440,
      "hitSuccessfully": false
    },
    {
      "note": 46,
      "velocity": 86,
      "hitTime": 13867,
      "closestNoteTime": 13920,
      "hitSuccessfully": true
    },
    {
      "note": 46,
      "velocity": 88,
      "hitTime": 14316,
      "closestNoteTime": 14400,
      "hitSuccessfully": true
    },
    {
      "note": 46,
      "velocity": 80,
      "hitTime": 14726,
      "closestNoteTime": 14880,
      "hitSuccessfully": true
    },
    {
      "note": 46,
      "velocity": 104,
      "hitTime": 15252,
      "closestNoteTime": 15360,
      "hitSuccessfully": true
    },
    {
      "note": 36,
      "velocity": 92,
      "hitTime": 15258,
      "closestNoteTime": 15360,
      "hitSuccessfully": true
    },
    {
      "note": 46,
      "velocity": 93,
      "hitTime": 15750,
      "closestNoteTime": 15840,
      "hitSuccessfully": true
    },
    {
      "note": 46,
      "velocity": 101,
      "hitTime": 16302,
      "closestNoteTime": 16320,
      "hitSuccessfully": true
    },
    {
      "note": 38,
      "velocity": 102,
      "hitTime": 16326,
      "closestNoteTime": 16320,
      "hitSuccessfully": true
    },
    {
      "note": 46,
      "velocity": 99,
      "hitTime": 17224,
      "closestNoteTime": 17280,
      "hitSuccessfully": true
    },
    {
      "note": 46,
      "velocity": 85,
      "hitTime": 17674,
      "closestNoteTime": 17760,
      "hitSuccessfully": true
    },
    {
      "note": 46,
      "velocity": 70,
      "hitTime": 17737,
      "closestNoteTime": 17280,
      "hitSuccessfully": true
    },
    {
      "note": 46,
      "velocity": 93,
      "hitTime": 18185,
      "closestNoteTime": 18240,
      "hitSuccessfully": true
    },
    {
      "note": 46,
      "velocity": 82,
      "hitTime": 18596,
      "closestNoteTime": 18240,
      "hitSuccessfully": false
    },
    {
      "note": 46,
      "velocity": 109,
      "hitTime": 19131,
      "closestNoteTime": 19200,
      "hitSuccessfully": true
    },
    {
      "note": 36,
      "velocity": 83,
      "hitTime": 19149,
      "closestNoteTime": 19200,
      "hitSuccessfully": true
    },
    {
      "note": 46,
      "velocity": 91,
      "hitTime": 19636,
      "closestNoteTime": 19680,
      "hitSuccessfully": true
    },
    {
      "note": 46,
      "velocity": 103,
      "hitTime": 20111,
      "closestNoteTime": 20160,
      "hitSuccessfully": true
    },
    {
      "note": 38,
      "velocity": 98,
      "hitTime": 20140,
      "closestNoteTime": 20160,
      "hitSuccessfully": true
    },
    {
      "note": 46,
      "velocity": 100,
      "hitTime": 21119,
      "closestNoteTime": 21120,
      "hitSuccessfully": true
    },
    {
      "note": 46,
      "velocity": 75,
      "hitTime": 21176,
      "closestNoteTime": 21120,
      "hitSuccessfully": true
    },
    {
      "note": 46,
      "velocity": 83,
      "hitTime": 21541,
      "closestNoteTime": 21120,
      "hitSuccessfully": true
    },
    {
      "note": 46,
      "velocity": 87,
      "hitTime": 22017,
      "closestNoteTime": 22080,
      "hitSuccessfully": true
    },
    {
      "note": 46,
      "velocity": 83,
      "hitTime": 22466,
      "closestNoteTime": 22080,
      "hitSuccessfully": true
    },
    {
      "note": 46,
      "velocity": 114,
      "hitTime": 23003,
      "closestNoteTime": 23040,
      "hitSuccessfully": true
    },
    {
      "note": 36,
      "velocity": 92,
      "hitTime": 23060,
      "closestNoteTime": 23040,
      "hitSuccessfully": true
    },
    {
      "note": 46,
      "velocity": 103,
      "hitTime": 23492,
      "closestNoteTime": 24000,
      "hitSuccessfully": true
    },
    {
      "note": 46,
      "velocity": 112,
      "hitTime": 23981,
      "closestNoteTime": 24000,
      "hitSuccessfully": true
    },
    {
      "note": 38,
      "velocity": 102,
      "hitTime": 24022,
      "closestNoteTime": 24000,
      "hitSuccessfully": true
    },
    {
      "note": 46,
      "velocity": 96,
      "hitTime": 24845,
      "closestNoteTime": 24960,
      "hitSuccessfully": true
    },
    {
      "note": 46,
      "velocity": 100,
      "hitTime": 25318,
      "closestNoteTime": 25440,
      "hitSuccessfully": true
    },
    {
      "note": 46,
      "velocity": 86,
      "hitTime": 25767,
      "closestNoteTime": 25920,
      "hitSuccessfully": true
    },
    {
      "note": 46,
      "velocity": 74,
      "hitTime": 25807,
      "closestNoteTime": 25920,
      "hitSuccessfully": false
    },
    {
      "note": 46,
      "velocity": 87,
      "hitTime": 26252,
      "closestNoteTime": 26400,
      "hitSuccessfully": true
    },
    {
      "note": 36,
      "velocity": 46,
      "hitTime": 26704,
      "closestNoteTime": 26880,
      "hitSuccessfully": true
    },
    {
      "note": 46,
      "velocity": 127,
      "hitTime": 26786,
      "closestNoteTime": 26880,
      "hitSuccessfully": true
    },
    {
      "note": 36,
      "velocity": 67,
      "hitTime": 27046,
      "closestNoteTime": 27360,
      "hitSuccessfully": false
    },
    {
      "note": 46,
      "velocity": 96,
      "hitTime": 27520,
      "closestNoteTime": 27360,
      "hitSuccessfully": true
    },
    {
      "note": 46,
      "velocity": 99,
      "hitTime": 27992,
      "closestNoteTime": 27840,
      "hitSuccessfully": true
    },
    {
      "note": 46,
      "velocity": 101,
      "hitTime": 28405,
      "closestNoteTime": 28320,
      "hitSuccessfully": true
    },
    {
      "note": 38,
      "velocity": 101,
      "hitTime": 28405,
      "closestNoteTime": 28800,
      "hitSuccessfully": true
    },
    {
      "note": 38,
      "velocity": 41,
      "hitTime": 28857,
      "closestNoteTime": 28800,
      "hitSuccessfully": false
    },
    {
      "note": 46,
      "velocity": 112,
      "hitTime": 29345,
      "closestNoteTime": 29280,
      "hitSuccessfully": true
    },
    {
      "note": 36,
      "velocity": 80,
      "hitTime": 29350,
      "closestNoteTime": 29760,
      "hitSuccessfully": true
    },
    {
      "note": 46,
      "velocity": 88,
      "hitTime": 29736,
      "closestNoteTime": 29760,
      "hitSuccessfully": true
    },
    {
      "note": 46,
      "velocity": 72,
      "hitTime": 29817,
      "closestNoteTime": 29760,
      "hitSuccessfully": true
    },
    {
      "note": 46,
      "velocity": 106,
      "hitTime": 30248,
      "closestNoteTime": 29760,
      "hitSuccessfully": false
    },
    {
      "note": 38,
      "velocity": 100,
      "hitTime": 30271,
      "closestNoteTime": 29760,
      "hitSuccessfully": true
    },
    {
      "note": 38,
      "velocity": 34,
      "hitTime": 30709,
      "closestNoteTime": 28800,
      "hitSuccessfully": false
    }
  ]
}