{"frames":[{"note":36,"velocity":67,"hitTime":-192,"closestNoteTime":0,"hitSuccessfully":false},{"note":46,"velocity":80,"hitTime":136,"closestNoteTime":0,"hitSuccessfully":true},{"note":36,"velocity":52,"hitTime":864,"closestNoteTime":0,"hitSuccessfully":false},{"note":46,"velocity":77,"hitTime":1528,"closestNoteTime":1440,"hitSuccessfully":true},{"note":46,"velocity":80,"hitTime":1976,"closestNoteTime":1920,"hitSuccessfully":true},{"note":46,"velocity":108,"hitTime":2416,"closestNoteTime":2400,"hitSuccessfully":true},{"note":46,"velocity":99,"hitTime":2912,"closestNoteTime":2880,"hitSuccessfully":true},{"note":46,"velocity":58,"hitTime":2960,"closestNoteTime":3360,"hitSuccessfully":false},{"note":36,"velocity":27,"hitTime":3248,"closestNoteTime":3840,"hitSuccessfully":false},{"note":46,"velocity":75,"hitTime":3352,"closestNoteTime":3360,"hitSuccessfully":true},{"note":46,"velocity":70,"hitTime":3408,"closestNoteTime":3840,"hitSuccessfully":false},{"note":36,"velocity":64,"hitTime":3824,"closestNoteTime":3840,"hitSuccessfully":true},{"note":38,"velocity":67,"hitTime":3848,"closestNoteTime":4800,"hitSuccessfully":false},{"note":46,"velocity":98,"hitTime":4360,"closestNoteTime":4320,"hitSuccessfully":true},{"note":36,"velocity":36,"hitTime":4368,"closestNoteTime":5760,"hitSuccessfully":false},{"note":46,"velocity":67,"hitTime":4808,"closestNoteTime":4800,"hitSuccessfully":true},{"note":46,"velocity":77,"hitTime":5160,"closestNoteTime":5280,"hitSuccessfully":true},{"note":36,"velocity":64,"hitTime":5600,"closestNoteTime":5760,"hitSuccessfully":false},{"note":46,"velocity":90,"hitTime":6176,"closestNoteTime":6240,"hitSuccessfully":true},{"note":46,"velocity":82,"hitTime":6736,"closestNoteTime":6720,"hitSuccessfully":true},{"note":46,"velocity":106,"hitTime":7328,"closestNoteTime":7200,"hitSuccessfully":true},{"note":46,"velocity":104,"hitTime":7880,"closestNoteTime":7680,"hitSuccessfully":false},{"note":38,"velocity":72,"hitTime":8576,"closestNoteTime":8640,"hitSuccessfully":true},{"note":38,"velocity":28,"hitTime":8640,"closestNoteTime":6720,"hitSuccessfully":false},{"note":46,"velocity":67,"hitTime":9096,"closestNoteTime":9120,"hitSuccessfully":true},{"note":46,"velocity":46,"hitTime":9152,"closestNoteTime":9600,"hitSuccessfully":false},{"note":46,"velocity":82,"hitTime":9616,"closestNoteTime":9600,"hitSuccessfully":true},{"note":46,"velocity":65,"hitTime":9656,"closestNoteTime":10080,"hitSuccessfully":false},{"note":36,"velocity":44,"hitTime":10128,"closestNoteTime":9600,"hitSuccessfully":false},{"note":46,"velocity":75,"hitTime":10136,"closestNoteTime":10080,"hitSuccessfully":true},{"note":46,"velocity":99,"hitTime":10632,"closestNoteTime":10560,"hitSuccessfully":true},{"note":36,"velocity":23,"hitTime":10672,"closestNoteTime":11520,"hitSuccessfully":false},{"note":46,"velocity":74,"hitTime":10672,"closestNoteTime":11040,"hitSuccessfully":false},{"note":36,"velocity":39,"hitTime":11128,"closestNoteTime":11520,"hitSuccessfully":false},{"note":46,"velocity":102,"hitTime":11152,"closestNoteTime":11040,"hitSuccessfully":true},{"note":38,"velocity":60,"hitTime":11528,"closestNoteTime":12480,"hitSuccessfully":false},{"note":36,"velocity":30,"hitTime":11560,"closestNoteTime":11520,"hitSuccessfully":true},{"note":36,"velocity":30,"hitTime":12064,"closestNoteTime":13440,"hitSuccessfully":false},{"note":46,"velocity":93,"hitTime":12096,"closestNoteTime":12000,"hitSuccessfully":true},{"note":36,"velocity":28,"hitTime":12520,"closestNoteTime":13440,"hitSuccessfully":false},{"note":46,"velocity":66,"hitTime":12976,"closestNoteTime":12960,"hitSuccessfully":true},{"note":46,"velocity":70,"hitTime":13408,"closestNoteTime":13440,"hitSuccessfully":true},{"note":36,"velocity":66,"hitTime":13552,"closestNoteTime":13440,"hitSuccessfully":true},{"note":46,"velocity":73,"hitTime":13992,"closestNoteTime":13920,"hitSuccessfully":true},{"note":36,"velocity":27,"hitTime":14008,"closestNoteTime":9600,"hitSuccessfully":false},{"note":36,"velocity":36,"hitTime":14464,"closestNoteTime":9600,"hitSuccessfully":false},{"note":46,"velocity":80,"hitTime":14520,"closestNoteTime":14400,"hitSuccessfully":true},{"note":46,"velocity":86,"hitTime":14936,"closestNoteTime":14880,"hitSuccessfully":true},{"note":36,"velocity":59,"hitTime":14944,"closestNoteTime":9600,"hitSuccessfully":false}]}