{"frames":[{"note":36,"velocity":46,"hitTime":-48,"closestNoteTime":0,"hitSuccessfully":true},{"note":46,"velocity":75,"hitTime":64,"closestNoteTime":0,"hitSuccessfully":true},{"note":46,"velocity":67,"hitTime":576,"closestNoteTime":480,"hitSuccessfully":true},{"note":46,"velocity":84,"hitTime":1088,"closestNoteTime":960,"hitSuccessfully":true},{"note":38,"velocity":96,"hitTime":1088,"closestNoteTime":960,"hitSuccessfully":true},{"note":46,"velocity":72,"hitTime":1568,"closestNoteTime":1440,"hitSuccessfully":true},{"note":36,"velocity":42,"hitTime":1984,"closestNoteTime":1920,"hitSuccessfully":true},{"note":46,"velocity":83,"hitTime":2016,"closestNoteTime":1920,"hitSuccessfully":true},{"note":46,"velocity":77,"hitTime":2528,"closestNoteTime":2400,"hitSuccessfully":true},{"note":38,"velocity":90,"hitTime":2960,"closestNoteTime":2880,"hitSuccessfully":true},{"note":46,"velocity":85,"hitTime":3008,"closestNoteTime":2880,"hitSuccessfully":true},{"note":46,"velocity":73,"hitTime":3456,"closestNoteTime":3360,"hitSuccessfully":true},{"note":36,"velocity":43,"hitTime":3872,"closestNoteTime":3840,"hitSuccessfully":true},{"note":46,"velocity":82,"hitTime":3920,"closestNoteTime":3840,"hitSuccessfully":true},{"note":46,"velocity":77,"hitTime":4400,"closestNoteTime":4320,"hitSuccessfully":true},{"note":38,"velocity":91,"hitTime":4912,"closestNoteTime":4800,"hitSuccessfully":true},{"note":46,"velocity":85,"hitTime":4928,"closestNoteTime":4800,"hitSuccessfully":true},{"note":46,"velocity":67,"hitTime":5392,"closestNoteTime":5280,"hitSuccessfully":true},{"note":36,"velocity":46,"hitTime":5792,"closestNoteTime":5760,"hitSuccessfully":true},{"note":46,"velocity":80,"hitTime":5824,"closestNoteTime":5760,"hitSuccessfully":true},{"note":46,"velocity":77,"hitTime":6336,"closestNoteTime":6240,"hitSuccessfully":true},{"note":38,"velocity":89,"hitTime":6752,"closestNoteTime":6720,"hitSuccessfully":true},{"note":46,"velocity":82,"hitTime":6832,"closestNoteTime":6720,"hitSuccessfully":true},{"note":46,"velocity":80,"hitTime":7312,"closestNoteTime":7200,"hitSuccessfully":true},{"note":36,"velocity":42,"hitTime":7728,"closestNoteTime":7680,"hitSuccessfully":true},{"note":46,"velocity":82,"hitTime":7776,"closestNoteTime":7680,"hitSuccessfully":true},{"note":46,"velocity":80,"hitTime":8256,"closestNoteTime":8160,"hitSuccessfully":true},{"note":38,"velocity":92,"hitTime":8736,"closestNoteTime":8640,"hitSuccessfully":true},{"note":46,"velocity":85,"hitTime":8768,"closestNoteTime":8640,"hitSuccessfully":true},{"note":46,"velocity":80,"hitTime":9248,"closestNoteTime":9120,"hitSuccessfully":true},{"note":36,"velocity":35,"hitTime":9536,"closestNoteTime":9600,"hitSuccessfully":true},{"note":46,"velocity":85,"hitTime":9696,"closestNoteTime":9600,"hitSuccessfully":true},{"note":46,"velocity":75,"hitTime":10160,"closestNoteTime":10080,"hitSuccessfully":true},{"note":46,"velocity":86,"hitTime":10672,"closestNoteTime":10560,"hitSuccessfully":true},{"note":38,"velocity":94,"hitTime":10688,"closestNoteTime":10560,"hitSuccessfully":true},{"note":46,"velocity":83,"hitTime":11168,"closestNoteTime":11040,"hitSuccessfully":true},{"note":36,"velocity":46,"hitTime":11520,"closestNoteTime":11520,"hitSuccessfully":true},{"note":46,"velocity":85,"hitTime":11664,"closestNoteTime":11520,"hitSuccessfully":true},{"note":46,"velocity":74,"hitTime":12112,"closestNoteTime":12000,"hitSuccessfully":true},{"note":46,"velocity":88,"hitTime":12624,"closestNoteTime":12480,"hitSuccessfully":true},{"note":38,"velocity":91,"hitTime":12624,"closestNoteTime":12480,"hitSuccessfully":true},{"note":46,"velocity":80,"hitTime":13104,"closestNoteTime":12960,"hitSuccessfully":true},{"note":46,"velocity":84,"hitTime":13504,"closestNoteTime":13440,"hitSuccessfully":true},{"note":36,"velocity":42,"hitTime":13552,"closestNoteTime":13440,"hitSuccessfully":true},{"note":46,"velocity":80,"hitTime":13984,"closestNoteTime":13920,"hitSuccessfully":true},{"note":46,"velocity":86,"hitTime":14512,"closestNoteTime":14400,"hitSuccessfully":true},{"note":38,"velocity":94,"hitTime":14544,"closestNoteTime":14400,"hitSuccessfully":true},{"note":46,"velocity":80,"hitTime":15024,"closestNoteTime":14880,"hitSuccessfully":true},{"note":36,"velocity":43,"hitTime":15456,"closestNoteTime":15360,"hitSuccessfully":true},{"note":46,"velocity":80,"hitTime":15488,"closestNoteTime":15360,"hitSuccessfully":true},{"note":46,"velocity":80,"hitTime":15936,"closestNoteTime":15840,"hitSuccessfully":true},{"note":38,"velocity":91,"hitTime":16416,"closestNoteTime":16320,"hitSuccessfully":true},{"note":46,"velocity":85,"hitTime":16448,"closestNoteTime":16320,"hitSuccessfully":true},{"note":46,"velocity":82,"hitTime":16928,"closestNoteTime":16800,"hitSuccessfully":true},{"note":36,"velocity":42,"hitTime":17360,"closestNoteTime":17280,"hitSuccessfully":true},{"note":46,"velocity":84,"hitTime":17408,"closestNoteTime":17280,"hitSuccessfully":true},{"note":46,"velocity":76,"hitTime":17840,"closestNoteTime":17760,"hitSuccessfully":true},{"note":46,"velocity":86,"hitTime":18352,"closestNoteTime":18240,"hitSuccessfully":true},{"note":38,"velocity":91,"hitTime":18384,"closestNoteTime":18240,"hitSuccessfully":true},{"note":46,"velocity":79,"hitTime":18864,"closestNoteTime":18720,"hitSuccessfully":true},{"note":46,"velocity":87,"hitTime":19280,"closestNoteTime":19200,"hitSuccessfully":true},{"note":36,"velocity":39,"hitTime":19344,"closestNoteTime":19200,"hitSuccessfully":true},{"note":46,"velocity":80,"hitTime":19760,"closestNoteTime":19680,"hitSuccessfully":true},{"note":46,"velocity":83,"hitTime":20272,"closestNoteTime":20160,"hitSuccessfully":true},{"note":38,"velocity":93,"hitTime":20304,"closestNoteTime":20160,"hitSuccessfully":true},{"note":46,"velocity":80,"hitTime":20784,"closestNoteTime":20640,"hitSuccessfully":true},{"note":46,"velocity":79,"hitTime":21216,"closestNoteTime":21120,"hitSuccessfully":true},{"note":46,"velocity":79,"hitTime":21696,"closestNoteTime":21600,"hitSuccessfully":true},{"note":46,"velocity":91,"hitTime":22224,"closestNoteTime":22080,"hitSuccessfully":true},{"note":36,"velocity":50,"hitTime":22256,"closestNoteTime":23040,"hitSuccessfully":false},{"note":38,"velocity":72,"hitTime":22464,"closestNoteTime":22080,"hitSuccessfully":false},{"note":46,"velocity":79,"hitTime":22816,"closestNoteTime":22560,"hitSuccessfully":true},{"note":46,"velocity":83,"hitTime":23296,"closestNoteTime":23040,"hitSuccessfully":true},{"note":46,"velocity":72,"hitTime":23792,"closestNoteTime":23520,"hitSuccessfully":true},{"note":46,"velocity":85,"hitTime":24272,"closestNoteTime":24000,"hitSuccessfully":true},{"note":38,"velocity":87,"hitTime":24288,"closestNoteTime":24000,"hitSuccessfully":true},{"note":46,"velocity":74,"hitTime":24720,"closestNoteTime":24480,"hitSuccessfully":true},{"note":46,"velocity":70,"hitTime":25200,"closestNoteTime":24960,"hitSuccessfully":true},{"note":46,"velocity":70,"hitTime":25680,"closestNoteTime":25440,"hitSuccessfully":true},{"note":46,"velocity":87,"hitTime":26112,"closestNoteTime":25920,"hitSuccessfully":true},{"note":38,"velocity":95,"hitTime":26160,"closestNoteTime":25920,"hitSuccessfully":true},{"note":46,"velocity":82,"hitTime":26592,"closestNoteTime":26400,"hitSuccessfully":true},{"note":46,"velocity":82,"hitTime":27056,"closestNoteTime":26880,"hitSuccessfully":true},{"note":36,"velocity":52,"hitTime":27072,"closestNoteTime":26880,"hitSuccessfully":true},{"note":46,"velocity":74,"hitTime":27504,"closestNoteTime":27360,"hitSuccessfully":true},{"note":38,"velocity":84,"hitTime":27984,"closestNoteTime":27840,"hitSuccessfully":true},{"note":46,"velocity":85,"hitTime":28016,"closestNoteTime":27840,"hitSuccessfully":true},{"note":46,"velocity":77,"hitTime":28464,"closestNoteTime":28320,"hitSuccessfully":true},{"note":36,"velocity":40,"hitTime":28896,"closestNoteTime":28800,"hitSuccessfully":true},{"note":46,"velocity":85,"hitTime":28928,"closestNoteTime":28800,"hitSuccessfully":true},{"note":46,"velocity":75,"hitTime":29376,"closestNoteTime":29280,"hitSuccessfully":true},{"note":38,"velocity":78,"hitTime":29888,"closestNoteTime":29760,"hitSuccessfully":true},{"note":46,"velocity":85,"hitTime":29888,"closestNoteTime":29760,"hitSuccessfully":true}]}