{"frames":[{"note":46,"velocity":104,"hitTime":128,"closestNoteTime":0,"hitSuccessfully":true},{"note":36,"velocity":74,"hitTime":160,"closestNoteTime":0,"hitSuccessfully":true},{"note":46,"velocity":94,"hitTime":640,"closestNoteTime":480,"hitSuccessfully":true},{"note":46,"velocity":107,"hitTime":1120,"closestNoteTime":960,"hitSuccessfully":true},{"note":38,"velocity":104,"hitTime":1152,"closestNoteTime":960,"hitSuccessfully":true},{"note":46,"velocity":91,"hitTime":1600,"closestNoteTime":1440,"hitSuccessfully":true},{"note":36,"velocity":84,"hitTime":2096,"closestNoteTime":1920,"hitSuccessfully":true},{"note":46,"velocity":97,"hitTime":2112,"closestNoteTime":1920,"hitSuccessfully":true},{"note":46,"velocity":84,"hitTime":2576,"closestNoteTime":2400,"hitSuccessfully":true},{"note":38,"velocity":94,"hitTime":3024,"closestNoteTime":2880,"hitSuccessfully":true},{"note":46,"velocity":104,"hitTime":3024,"closestNoteTime":2880,"hitSuccessfully":true},{"note":46,"velocity":86,"hitTime":3504,"closestNoteTime":3360,"hitSuccessfully":true},{"note":46,"velocity":104,"hitTime":4016,"closestNoteTime":3840,"hitSuccessfully":true},{"note":36,"velocity":81,"hitTime":4048,"closestNoteTime":3840,"hitSuccessfully":true},{"note":46,"velocity":90,"hitTime":4496,"closestNoteTime":4320,"hitSuccessfully":true},{"note":46,"velocity":102,"hitTime":4976,"closestNoteTime":4800,"hitSuccessfully":true},{"note":38,"velocity":84,"hitTime":4976,"closestNoteTime":4800,"hitSuccessfully":true},{"note":46,"velocity":91,"hitTime":5440,"closestNoteTime":5280,"hitSuccessfully":true},{"note":46,"velocity":96,"hitTime":5920,"closestNoteTime":5760,"hitSuccessfully":true},{"note":36,"velocity":79,"hitTime":5936,"closestNoteTime":5760,"hitSuccessfully":true},{"note":46,"velocity":86,"hitTime":6400,"closestNoteTime":6240,"hitSuccessfully":true},{"note":46,"velocity":102,"hitTime":6848,"closestNoteTime":6720,"hitSuccessfully":true},{"note":38,"velocity":83,"hitTime":6848,"closestNoteTime":6720,"hitSuccessfully":true},{"note":46,"velocity":93,"hitTime":7344,"closestNoteTime":7200,"hitSuccessfully":true},{"note":46,"velocity":96,"hitTime":7840,"closestNoteTime":7680,"hitSuccessfully":true},{"note":36,"velocity":74,"hitTime":7840,"closestNoteTime":7680,"hitSuccessfully":true},{"note":46,"velocity":85,"hitTime":8304,"closestNoteTime":8160,"hitSuccessfully":true},{"note":46,"velocity":103,"hitTime":8752,"closestNoteTime":8640,"hitSuccessfully":true},{"note":38,"velocity":85,"hitTime":8752,"closestNoteTime":8640,"hitSuccessfully":true},{"note":46,"velocity":86,"hitTime":9232,"closestNoteTime":9120,"hitSuccessfully":true},{"note":46,"velocity":101,"hitTime":9712,"closestNoteTime":9600,"hitSuccessfully":true},{"note":36,"velocity":85,"hitTime":9744,"closestNoteTime":9600,"hitSuccessfully":true},{"note":46,"velocity":77,"hitTime":10224,"closestNoteTime":10080,"hitSuccessfully":true},{"note":38,"velocity":86,"hitTime":10688,"closestNoteTime":10560,"hitSuccessfully":true},{"note":46,"velocity":105,"hitTime":10688,"closestNoteTime":10560,"hitSuccessfully":true},{"note":46,"velocity":91,"hitTime":11168,"closestNoteTime":11040,"hitSuccessfully":true},{"note":36,"velocity":79,"hitTime":11616,"closestNoteTime":11520,"hitSuccessfully":true},{"note":46,"velocity":101,"hitTime":11648,"closestNoteTime":11520,"hitSuccessfully":true},{"note":46,"velocity":91,"hitTime":12096,"closestNoteTime":12000,"hitSuccessfully":true},{"note":46,"velocity":106,"hitTime":12576,"closestNoteTime":12480,"hitSuccessfully":true},{"note":38,"velocity":84,"hitTime":12576,"closestNoteTime":12480,"hitSuccessfully":true},{"note":46,"velocity":86,"hitTime":13088,"closestNoteTime":12960,"hitSuccessfully":true},{"note":36,"velocity":66,"hitTime":13552,"closestNoteTime":13440,"hitSuccessfully":true},{"note":46,"velocity":101,"hitTime":13568,"closestNoteTime":13440,"hitSuccessfully":true},{"note":46,"velocity":75,"hitTime":14064,"closestNoteTime":13920,"hitSuccessfully":true},{"note":38,"velocity":93,"hitTime":14464,"closestNoteTime":14400,"hitSuccessfully":true},{"note":46,"velocity":104,"hitTime":14480,"closestNoteTime":14400,"hitSuccessfully":true},{"note":38,"velocity":46,"hitTime":14560,"closestNoteTime":16320,"hitSuccessfully":false},{"note":46,"velocity":87,"hitTime":14944,"closestNoteTime":14880,"hitSuccessfully":true},{"note":46,"velocity":97,"hitTime":15392,"closestNoteTime":15360,"hitSuccessfully":true},{"note":36,"velocity":72,"hitTime":15424,"closestNoteTime":15360,"hitSuccessfully":true},{"note":46,"velocity":91,"hitTime":15872,"closestNoteTime":15840,"hitSuccessfully":true},{"note":46,"velocity":102,"hitTime":16352,"closestNoteTime":16320,"hitSuccessfully":true},{"note":38,"velocity":91,"hitTime":16352,"closestNoteTime":16320,"hitSuccessfully":true},{"note":46,"velocity":89,"hitTime":16864,"closestNoteTime":16800,"hitSuccessfully":true},{"note":36,"velocity":66,"hitTime":17344,"closestNoteTime":17280,"hitSuccessfully":true},{"note":46,"velocity":95,"hitTime":17376,"closestNoteTime":17280,"hitSuccessfully":true},{"note":46,"velocity":88,"hitTime":17856,"closestNoteTime":17760,"hitSuccessfully":true},{"note":46,"velocity":108,"hitTime":18320,"closestNoteTime":18240,"hitSuccessfully":true},{"note":38,"velocity":99,"hitTime":18320,"closestNoteTime":18240,"hitSuccessfully":true},{"note":46,"velocity":85,"hitTime":18800,"closestNoteTime":18720,"hitSuccessfully":true},{"note":46,"velocity":100,"hitTime":19232,"closestNoteTime":19200,"hitSuccessfully":true},{"note":36,"velocity":80,"hitTime":19248,"closestNoteTime":19200,"hitSuccessfully":true},{"note":46,"velocity":80,"hitTime":19680,"closestNoteTime":19680,"hitSuccessfully":true},{"note":46,"velocity":127,"hitTime":20160,"closestNoteTime":20160,"hitSuccessfully":true},{"note":38,"velocity":96,"hitTime":20192,"closestNoteTime":20160,"hitSuccessfully":true},{"note":46,"velocity":85,"hitTime":20672,"closestNoteTime":20640,"hitSuccessfully":true},{"note":36,"velocity":75,"hitTime":21152,"closestNoteTime":21120,"hitSuccessfully":true},{"note":46,"velocity":100,"hitTime":21152,"closestNoteTime":21120,"hitSuccessfully":true},{"note":46,"velocity":88,"hitTime":21632,"closestNoteTime":21600,"hitSuccessfully":true},{"note":38,"velocity":91,"hitTime":22112,"closestNoteTime":22080,"hitSuccessfully":true},{"note":46,"velocity":109,"hitTime":22112,"closestNoteTime":22080,"hitSuccessfully":true},{"note":46,"velocity":83,"hitTime":22624,"closestNoteTime":22560,"hitSuccessfully":true},{"note":36,"velocity":76,"hitTime":23072,"closestNoteTime":23040,"hitSuccessfully":true},{"note":46,"velocity":101,"hitTime":23072,"closestNoteTime":23040,"hitSuccessfully":true},{"note":46,"velocity":93,"hitTime":23568,"closestNoteTime":23520,"hitSuccessfully":true},{"note":46,"velocity":103,"hitTime":24064,"closestNoteTime":24000,"hitSuccessfully":true},{"note":38,"velocity":89,"hitTime":24064,"closestNoteTime":24000,"hitSuccessfully":true},{"note":46,"velocity":89,"hitTime":24560,"closestNoteTime":24480,"hitSuccessfully":true},{"note":46,"velocity":98,"hitTime":25040,"closestNoteTime":24960,"hitSuccessfully":true},{"note":36,"velocity":72,"hitTime":25056,"closestNoteTime":24960,"hitSuccessfully":true},{"note":46,"velocity":88,"hitTime":25520,"closestNoteTime":25440,"hitSuccessfully":true},{"note":38,"velocity":103,"hitTime":26000,"closestNoteTime":25920,"hitSuccessfully":true},{"note":46,"velocity":107,"hitTime":26000,"closestNoteTime":25920,"hitSuccessfully":true},{"note":46,"velocity":85,"hitTime":26512,"closestNoteTime":26400,"hitSuccessfully":true},{"note":36,"velocity":62,"hitTime":26960,"closestNoteTime":26880,"hitSuccessfully":true},{"note":46,"velocity":99,"hitTime":26992,"closestNoteTime":26880,"hitSuccessfully":true},{"note":46,"velocity":94,"hitTime":27440,"closestNoteTime":27360,"hitSuccessfully":true},{"note":46,"velocity":104,"hitTime":27952,"closestNoteTime":27840,"hitSuccessfully":true},{"note":38,"velocity":94,"hitTime":27952,"closestNoteTime":27840,"hitSuccessfully":true},{"note":46,"velocity":93,"hitTime":28432,"closestNoteTime":28320,"hitSuccessfully":true},{"note":36,"velocity":59,"hitTime":28864,"closestNoteTime":28800,"hitSuccessfully":true},{"note":46,"velocity":103,"hitTime":28912,"closestNoteTime":28800,"hitSuccessfully":true},{"note":46,"velocity":88,"hitTime":29392,"closestNoteTime":29280,"hitSuccessfully":true},{"note":46,"velocity":109,"hitTime":29856,"closestNoteTime":29760,"hitSuccessfully":true},{"note":38,"velocity":96,"hitTime":29856,"closestNoteTime":29760,"hitSuccessfully":true},{"note":46,"velocity":87,"hitTime":30336,"closestNoteTime":30240,"hitSuccessfully":true}]}