{"frames":[{"note":46,"velocity":101,"hitTime":48,"closestNoteTime":0,"hitSuccessfully":true},{"note":36,"velocity":52,"hitTime":64,"closestNoteTime":0,"hitSuccessfully":true},{"note":46,"velocity":88,"hitTime":520,"closestNoteTime":480,"hitSuccessfully":true},{"note":46,"velocity":91,"hitTime":960,"closestNoteTime":960,"hitSuccessfully":true},{"note":38,"velocity":78,"hitTime":968,"closestNoteTime":960,"hitSuccessfully":true},{"note":46,"velocity":90,"hitTime":1456,"closestNoteTime":1440,"hitSuccessfully":true},{"note":46,"velocity":103,"hitTime":1936,"closestNoteTime":1920,"hitSuccessfully":true},{"note":36,"velocity":56,"hitTime":1936,"closestNoteTime":1920,"hitSuccessfully":true},{"note":46,"velocity":90,"hitTime":2408,"closestNoteTime":2400,"hitSuccessfully":true},{"note":46,"velocity":93,"hitTime":2872,"closestNoteTime":2880,"hitSuccessfully":true},{"note":38,"velocity":82,"hitTime":2872,"closestNoteTime":2880,"hitSuccessfully":true},{"note":46,"velocity":89,"hitTime":3352,"closestNoteTime":3360,"hitSuccessfully":true},{"note":46,"velocity":102,"hitTime":3840,"closestNoteTime":3840,"hitSuccessfully":true},{"note":36,"velocity":46,"hitTime":3848,"closestNoteTime":3840,"hitSuccessfully":true},{"note":46,"velocity":93,"hitTime":4304,"closestNoteTime":4320,"hitSuccessfully":true},{"note":46,"velocity":95,"hitTime":4784,"closestNoteTime":4800,"hitSuccessfully":true},{"note":38,"velocity":78,"hitTime":4800,"closestNoteTime":4800,"hitSuccessfully":true},{"note":46,"velocity":91,"hitTime":5272,"closestNoteTime":5280,"hitSuccessfully":true},{"note":46,"velocity":103,"hitTime":5752,"closestNoteTime":5760,"hitSuccessfully":true},{"note":36,"velocity":51,"hitTime":5760,"closestNoteTime":5760,"hitSuccessfully":true},{"note":46,"velocity":91,"hitTime":6216,"closestNoteTime":6240,"hitSuccessfully":true},{"note":46,"velocity":97,"hitTime":6704,"closestNoteTime":6720,"hitSuccessfully":true},{"note":38,"velocity":82,"hitTime":6712,"closestNoteTime":6720,"hitSuccessfully":true},{"note":46,"velocity":89,"hitTime":7192,"closestNoteTime":7200,"hitSuccessfully":true},{"note":46,"velocity":103,"hitTime":7680,"closestNoteTime":7680,"hitSuccessfully":true},{"note":36,"velocity":60,"hitTime":7688,"closestNoteTime":7680,"hitSuccessfully":true},{"note":46,"velocity":88,"hitTime":8144,"closestNoteTime":8160,"hitSuccessfully":true},{"note":46,"velocity":94,"hitTime":8632,"closestNoteTime":8640,"hitSuccessfully":true},{"note":38,"velocity":81,"hitTime":8640,"closestNoteTime":8640,"hitSuccessfully":true},{"note":46,"velocity":91,"hitTime":9112,"closestNoteTime":9120,"hitSuccessfully":true},{"note":36,"velocity":52,"hitTime":9592,"closestNoteTime":9600,"hitSuccessfully":true},{"note":46,"velocity":104,"hitTime":9592,"closestNoteTime":9600,"hitSuccessfully":true},{"note":46,"velocity":85,"hitTime":10088,"closestNoteTime":10080,"hitSuccessfully":true},{"note":46,"velocity":94,"hitTime":10552,"closestNoteTime":10560,"hitSuccessfully":true},{"note":38,"velocity":82,"hitTime":10552,"closestNoteTime":10560,"hitSuccessfully":true},{"note":46,"velocity":91,"hitTime":11008,"closestNoteTime":11040,"hitSuccessfully":true},{"note":36,"velocity":58,"hitTime":11496,"closestNoteTime":11520,"hitSuccessfully":true},{"note":46,"velocity":104,"hitTime":11520,"closestNoteTime":11520,"hitSuccessfully":true},{"note":46,"velocity":90,"hitTime":11992,"closestNoteTime":12000,"hitSuccessfully":true},{"note":46,"velocity":95,"hitTime":12472,"closestNoteTime":12480,"hitSuccessfully":true},{"note":38,"velocity":86,"hitTime":12472,"closestNoteTime":12480,"hitSuccessfully":true},{"note":46,"velocity":90,"hitTime":12928,"closestNoteTime":12960,"hitSuccessfully":true},{"note":36,"velocity":52,"hitTime":13432,"closestNoteTime":13440,"hitSuccessfully":true},{"note":46,"velocity":103,"hitTime":13448,"closestNoteTime":13440,"hitSuccessfully":true},{"note":46,"velocity":90,"hitTime":13912,"closestNoteTime":13920,"hitSuccessfully":true},{"note":46,"velocity":91,"hitTime":14368,"closestNoteTime":14400,"hitSuccessfully":true},{"note":38,"velocity":83,"hitTime":14384,"closestNoteTime":14400,"hitSuccessfully":true},{"note":46,"velocity":91,"hitTime":14856,"closestNoteTime":14880,"hitSuccessfully":true}]}