{"frames":[{"note":46,"velocity":101,"hitTime":88,"closestNoteTime":0,"hitSuccessfully":true},{"note":36,"velocity":55,"hitTime":104,"closestNoteTime":0,"hitSuccessfully":true},{"note":46,"velocity":91,"hitTime":568,"closestNoteTime":480,"hitSuccessfully":true},{"note":38,"velocity":96,"hitTime":1024,"closestNoteTime":960,"hitSuccessfully":true},{"note":46,"velocity":106,"hitTime":1040,"closestNoteTime":960,"hitSuccessfully":true},{"note":46,"velocity":98,"hitTime":1504,"closestNoteTime":1440,"hitSuccessfully":true},{"note":46,"velocity":109,"hitTime":1976,"closestNoteTime":1920,"hitSuccessfully":true},{"note":36,"velocity":52,"hitTime":2000,"closestNoteTime":1920,"hitSuccessfully":true},{"note":46,"velocity":96,"hitTime":2456,"closestNoteTime":2400,"hitSuccessfully":true},{"note":46,"velocity":106,"hitTime":2928,"closestNoteTime":2880,"hitSuccessfully":true},{"note":46,"velocity":101,"hitTime":3392,"closestNoteTime":3360,"hitSuccessfully":true},{"note":46,"velocity":118,"hitTime":3848,"closestNoteTime":3840,"hitSuccessfully":true},{"note":36,"velocity":42,"hitTime":3888,"closestNoteTime":3840,"hitSuccessfully":true},{"note":46,"velocity":94,"hitTime":4336,"closestNoteTime":4320,"hitSuccessfully":true},{"note":46,"velocity":108,"hitTime":4800,"closestNoteTime":4800,"hitSuccessfully":true},{"note":36,"velocity":27,"hitTime":4880,"closestNoteTime":5760,"hitSuccessfully":false},{"note":46,"velocity":100,"hitTime":5296,"closestNoteTime":5280,"hitSuccessfully":true},{"note":46,"velocity":127,"hitTime":5768,"closestNoteTime":5760,"hitSuccessfully":true},{"note":36,"velocity":56,"hitTime":5792,"closestNoteTime":5760,"hitSuccessfully":true},{"note":46,"velocity":97,"hitTime":6232,"closestNoteTime":6240,"hitSuccessfully":true},{"note":46,"velocity":102,"hitTime":6704,"closestNoteTime":6720,"hitSuccessfully":true},{"note":46,"velocity":96,"hitTime":7200,"closestNoteTime":7200,"hitSuccessfully":true},{"note":46,"velocity":108,"hitTime":7680,"closestNoteTime":7680,"hitSuccessfully":true},{"note":36,"velocity":38,"hitTime":7696,"closestNoteTime":7680,"hitSuccessfully":true},{"note":46,"velocity":96,"hitTime":8160,"closestNoteTime":8160,"hitSuccessfully":true},{"note":46,"velocity":104,"hitTime":8616,"closestNoteTime":8640,"hitSuccessfully":true},{"note":38,"velocity":89,"hitTime":8632,"closestNoteTime":8640,"hitSuccessfully":true},{"note":46,"velocity":96,"hitTime":9096,"closestNoteTime":9120,"hitSuccessfully":true},{"note":46,"velocity":107,"hitTime":9552,"closestNoteTime":9600,"hitSuccessfully":true},{"note":36,"velocity":21,"hitTime":9584,"closestNoteTime":9600,"hitSuccessfully":true},{"note":46,"velocity":93,"hitTime":10048,"closestNoteTime":10080,"hitSuccessfully":true},{"note":46,"velocity":105,"hitTime":10520,"closestNoteTime":10560,"hitSuccessfully":true},{"note":46,"velocity":99,"hitTime":10976,"closestNoteTime":11040,"hitSuccessfully":true},{"note":46,"velocity":120,"hitTime":11440,"closestNoteTime":11520,"hitSuccessfully":true},{"note":36,"velocity":30,"hitTime":11480,"closestNoteTime":11520,"hitSuccessfully":true},{"note":46,"velocity":97,"hitTime":11936,"closestNoteTime":12000,"hitSuccessfully":true},{"note":38,"velocity":86,"hitTime":12416,"closestNoteTime":12480,"hitSuccessfully":true},{"note":46,"velocity":108,"hitTime":12416,"closestNoteTime":12480,"hitSuccessfully":true},{"note":46,"velocity":101,"hitTime":12888,"closestNoteTime":12960,"hitSuccessfully":true},{"note":46,"velocity":120,"hitTime":13352,"closestNoteTime":13440,"hitSuccessfully":true},{"note":36,"velocity":51,"hitTime":13368,"closestNoteTime":13440,"hitSuccessfully":true},{"note":46,"velocity":94,"hitTime":13848,"closestNoteTime":13920,"hitSuccessfully":true},{"note":38,"velocity":85,"hitTime":14304,"closestNoteTime":14400,"hitSuccessfully":true},{"note":46,"velocity":106,"hitTime":14320,"closestNoteTime":14400,"hitSuccessfully":true},{"note":46,"velocity":97,"hitTime":14840,"closestNoteTime":14880,"hitSuccessfully":true},{"note":46,"velocity":120,"hitTime":15272,"closestNoteTime":0,"hitSuccessfully":false},{"note":36,"velocity":42,"hitTime":15296,"closestNoteTime":0,"hitSuccessfully":false}]}