{"frames":[{"note":36,"velocity":58,"hitTime":-32,"closestNoteTime":0,"hitSuccessfully":true},{"note":46,"velocity":60,"hitTime":-32,"closestNoteTime":0,"hitSuccessfully":true},{"note":38,"velocity":49,"hitTime":304,"closestNoteTime":960,"hitSuccessfully":false},{"note":38,"velocity":32,"hitTime":344,"closestNoteTime":960,"hitSuccessfully":false},{"note":46,"velocity":67,"hitTime":408,"closestNoteTime":480,"hitSuccessfully":true},{"note":46,"velocity":67,"hitTime":760,"closestNoteTime":960,"hitSuccessfully":false},{"note":38,"velocity":61,"hitTime":856,"closestNoteTime":960,"hitSuccessfully":true},{"note":46,"velocity":66,"hitTime":1104,"closestNoteTime":960,"hitSuccessfully":true},{"note":38,"velocity":67,"hitTime":1264,"closestNoteTime":2880,"hitSuccessfully":false},{"note":46,"velocity":66,"hitTime":1392,"closestNoteTime":1440,"hitSuccessfully":true},{"note":46,"velocity":62,"hitTime":1656,"closestNoteTime":1920,"hitSuccessfully":false},{"note":46,"velocity":66,"hitTime":1992,"closestNoteTime":1920,"hitSuccessfully":true},{"note":36,"velocity":56,"hitTime":2056,"closestNoteTime":1920,"hitSuccessfully":true},{"note":46,"velocity":55,"hitTime":2296,"closestNoteTime":2400,"hitSuccessfully":true},{"note":46,"velocity":60,"hitTime":2592,"closestNoteTime":2880,"hitSuccessfully":false},{"note":38,"velocity":67,"hitTime":2968,"closestNoteTime":2880,"hitSuccessfully":true},{"note":38,"velocity":46,"hitTime":2992,"closestNoteTime":4800,"hitSuccessfully":false},{"note":46,"velocity":70,"hitTime":3264,"closestNoteTime":3360,"hitSuccessfully":true},{"note":36,"velocity":27,"hitTime":3488,"closestNoteTime":3840,"hitSuccessfully":false},{"note":46,"velocity":62,"hitTime":3528,"closestNoteTime":3840,"hitSuccessfully":false},{"note":46,"velocity":62,"hitTime":3928,"closestNoteTime":3840,"hitSuccessfully":true},{"note":46,"velocity":64,"hitTime":4264,"closestNoteTime":4320,"hitSuccessfully":true},{"note":36,"velocity":20,"hitTime":4264,"closestNoteTime":3840,"hitSuccessfully":false},{"note":38,"velocity":54,"hitTime":4544,"closestNoteTime":4800,"hitSuccessfully":false},{"note":46,"velocity":56,"hitTime":4880,"closestNoteTime":4800,"hitSuccessfully":true},{"note":46,"velocity":62,"hitTime":5152,"closestNoteTime":5280,"hitSuccessfully":true},{"note":46,"velocity":72,"hitTime":5512,"closestNoteTime":5760,"hitSuccessfully":false},{"note":38,"velocity":66,"hitTime":5656,"closestNoteTime":4800,"hitSuccessfully":false},{"note":36,"velocity":52,"hitTime":5672,"closestNoteTime":5760,"hitSuccessfully":true},{"note":46,"velocity":70,"hitTime":5816,"closestNoteTime":5760,"hitSuccessfully":true},{"note":46,"velocity":60,"hitTime":6088,"closestNoteTime":6240,"hitSuccessfully":false},{"note":46,"velocity":64,"hitTime":6384,"closestNoteTime":6240,"hitSuccessfully":true},{"note":46,"velocity":62,"hitTime":6664,"closestNoteTime":6720,"hitSuccessfully":true},{"note":38,"velocity":67,"hitTime":6880,"closestNoteTime":6720,"hitSuccessfully":false},{"note":46,"velocity":60,"hitTime":7240,"closestNoteTime":7200,"hitSuccessfully":true},{"note":46,"velocity":62,"hitTime":7504,"closestNoteTime":7680,"hitSuccessfully":false},{"note":36,"velocity":39,"hitTime":7664,"closestNoteTime":7680,"hitSuccessfully":true},{"note":46,"velocity":65,"hitTime":7816,"closestNoteTime":7680,"hitSuccessfully":true},{"note":46,"velocity":58,"hitTime":8152,"closestNoteTime":8160,"hitSuccessfully":true},{"note":46,"velocity":48,"hitTime":8392,"closestNoteTime":8640,"hitSuccessfully":false},{"note":38,"velocity":70,"hitTime":8552,"closestNoteTime":8640,"hitSuccessfully":true},{"note":46,"velocity":64,"hitTime":8736,"closestNoteTime":8640,"hitSuccessfully":true},{"note":46,"velocity":62,"hitTime":8976,"closestNoteTime":9120,"hitSuccessfully":true},{"note":46,"velocity":62,"hitTime":9288,"closestNoteTime":9600,"hitSuccessfully":false},{"note":46,"velocity":65,"hitTime":9744,"closestNoteTime":9600,"hitSuccessfully":true},{"note":38,"velocity":68,"hitTime":9912,"closestNoteTime":10560,"hitSuccessfully":false},{"note":36,"velocity":36,"hitTime":9944,"closestNoteTime":9600,"hitSuccessfully":false},{"note":46,"velocity":62,"hitTime":10088,"closestNoteTime":10080,"hitSuccessfully":true},{"note":46,"velocity":58,"hitTime":10424,"closestNoteTime":10560,"hitSuccessfully":true},{"note":46,"velocity":55,"hitTime":10720,"closestNoteTime":11040,"hitSuccessfully":false},{"note":38,"velocity":67,"hitTime":11176,"closestNoteTime":10560,"hitSuccessfully":false},{"note":36,"velocity":38,"hitTime":11224,"closestNoteTime":11520,"hitSuccessfully":false},{"note":46,"velocity":44,"hitTime":11320,"closestNoteTime":11520,"hitSuccessfully":false},{"note":46,"velocity":58,"hitTime":11560,"closestNoteTime":11520,"hitSuccessfully":true},{"note":46,"velocity":55,"hitTime":11792,"closestNoteTime":12000,"hitSuccessfully":false},{"note":46,"velocity":52,"hitTime":12056,"closestNoteTime":12000,"hitSuccessfully":true},{"note":46,"velocity":72,"hitTime":12576,"closestNoteTime":12480,"hitSuccessfully":true},{"note":38,"velocity":26,"hitTime":12904,"closestNoteTime":12480,"hitSuccessfully":false},{"note":36,"velocity":47,"hitTime":13008,"closestNoteTime":13440,"hitSuccessfully":false},{"note":36,"velocity":36,"hitTime":13504,"closestNoteTime":13440,"hitSuccessfully":true},{"note":46,"velocity":47,"hitTime":13600,"closestNoteTime":13440,"hitSuccessfully":false},{"note":46,"velocity":64,"hitTime":14128,"closestNoteTime":13920,"hitSuccessfully":false},{"note":38,"velocity":61,"hitTime":14200,"closestNoteTime":14400,"hitSuccessfully":false},{"note":46,"velocity":58,"hitTime":14520,"closestNoteTime":14400,"hitSuccessfully":true},{"note":38,"velocity":60,"hitTime":14624,"closestNoteTime":14400,"hitSuccessfully":false},{"note":46,"velocity":56,"hitTime":14800,"closestNoteTime":14880,"hitSuccessfully":true},{"note":46,"velocity":36,"hitTime":15080,"closestNoteTime":13920,"hitSuccessfully":false}]}