{"frames":[{"note":46,"velocity":103,"hitTime":40,"closestNoteTime":0,"hitSuccessfully":true},{"note":36,"velocity":48,"hitTime":56,"closestNoteTime":0,"hitSuccessfully":true},{"note":46,"velocity":93,"hitTime":504,"closestNoteTime":480,"hitSuccessfully":true},{"note":36,"velocity":36,"hitTime":536,"closestNoteTime":1920,"hitSuccessfully":false},{"note":38,"velocity":87,"hitTime":976,"closestNoteTime":960,"hitSuccessfully":true},{"note":46,"velocity":88,"hitTime":1440,"closestNoteTime":1440,"hitSuccessfully":true},{"note":36,"velocity":56,"hitTime":1896,"closestNoteTime":1920,"hitSuccessfully":true},{"note":46,"velocity":106,"hitTime":1912,"closestNoteTime":1920,"hitSuccessfully":true},{"note":46,"velocity":93,"hitTime":2384,"closestNoteTime":2400,"hitSuccessfully":true},{"note":38,"velocity":94,"hitTime":2848,"closestNoteTime":2880,"hitSuccessfully":true},{"note":46,"velocity":87,"hitTime":3320,"closestNoteTime":3360,"hitSuccessfully":true},{"note":36,"velocity":43,"hitTime":3784,"closestNoteTime":3840,"hitSuccessfully":true},{"note":46,"velocity":104,"hitTime":3784,"closestNoteTime":3840,"hitSuccessfully":true},{"note":46,"velocity":94,"hitTime":4280,"closestNoteTime":4320,"hitSuccessfully":true},{"note":46,"velocity":101,"hitTime":4720,"closestNoteTime":4800,"hitSuccessfully":true},{"note":38,"velocity":93,"hitTime":4752,"closestNoteTime":4800,"hitSuccessfully":true},{"note":46,"velocity":95,"hitTime":5192,"closestNoteTime":5280,"hitSuccessfully":true},{"note":36,"velocity":43,"hitTime":5672,"closestNoteTime":5760,"hitSuccessfully":true},{"note":46,"velocity":114,"hitTime":5688,"closestNoteTime":5760,"hitSuccessfully":true},{"note":46,"velocity":91,"hitTime":6192,"closestNoteTime":6240,"hitSuccessfully":true},{"note":46,"velocity":100,"hitTime":6680,"closestNoteTime":6720,"hitSuccessfully":true},{"note":38,"velocity":87,"hitTime":6688,"closestNoteTime":6720,"hitSuccessfully":true},{"note":46,"velocity":93,"hitTime":7160,"closestNoteTime":7200,"hitSuccessfully":true},{"note":46,"velocity":108,"hitTime":7632,"closestNoteTime":7680,"hitSuccessfully":true},{"note":36,"velocity":31,"hitTime":7640,"closestNoteTime":7680,"hitSuccessfully":true},{"note":46,"velocity":98,"hitTime":8152,"closestNoteTime":8160,"hitSuccessfully":true},{"note":36,"velocity":27,"hitTime":8616,"closestNoteTime":9600,"hitSuccessfully":false},{"note":46,"velocity":104,"hitTime":8616,"closestNoteTime":8640,"hitSuccessfully":true},{"note":38,"velocity":85,"hitTime":8616,"closestNoteTime":8640,"hitSuccessfully":true},{"note":46,"velocity":91,"hitTime":8632,"closestNoteTime":9120,"hitSuccessfully":false},{"note":46,"velocity":91,"hitTime":9072,"closestNoteTime":9120,"hitSuccessfully":true},{"note":46,"velocity":104,"hitTime":9552,"closestNoteTime":9600,"hitSuccessfully":true},{"note":36,"velocity":31,"hitTime":9552,"closestNoteTime":9600,"hitSuccessfully":true},{"note":46,"velocity":101,"hitTime":10080,"closestNoteTime":10080,"hitSuccessfully":true},{"note":46,"velocity":102,"hitTime":10544,"closestNoteTime":10560,"hitSuccessfully":true},{"note":38,"velocity":85,"hitTime":10544,"closestNoteTime":10560,"hitSuccessfully":true},{"note":46,"velocity":97,"hitTime":11016,"closestNoteTime":11040,"hitSuccessfully":true},{"note":46,"velocity":79,"hitTime":11056,"closestNoteTime":11520,"hitSuccessfully":false},{"note":46,"velocity":104,"hitTime":11488,"closestNoteTime":11520,"hitSuccessfully":true},{"note":46,"velocity":98,"hitTime":11968,"closestNoteTime":12000,"hitSuccessfully":true},{"note":38,"velocity":83,"hitTime":12432,"closestNoteTime":12480,"hitSuccessfully":true},{"note":46,"velocity":104,"hitTime":12432,"closestNoteTime":12480,"hitSuccessfully":true},{"note":46,"velocity":96,"hitTime":12904,"closestNoteTime":12960,"hitSuccessfully":true},{"note":46,"velocity":112,"hitTime":13384,"closestNoteTime":13440,"hitSuccessfully":true},{"note":36,"velocity":21,"hitTime":13400,"closestNoteTime":13440,"hitSuccessfully":true},{"note":46,"velocity":98,"hitTime":13864,"closestNoteTime":13920,"hitSuccessfully":true},{"note":46,"velocity":77,"hitTime":13896,"closestNoteTime":14400,"hitSuccessfully":false},{"note":38,"velocity":73,"hitTime":14360,"closestNoteTime":14400,"hitSuccessfully":true},{"note":46,"velocity":93,"hitTime":14376,"closestNoteTime":14400,"hitSuccessfully":true},{"note":46,"velocity":93,"hitTime":14848,"closestNoteTime":14880,"hitSuccessfully":true},{"note":46,"velocity":64,"hitTime":14888,"closestNoteTime":2880,"hitSuccessfully":false}]}