{"frames":[{"note":36,"velocity":46,"hitTime":16,"closestNoteTime":0,"hitSuccessfully":true},{"note":46,"velocity":79,"hitTime":1440,"closestNoteTime":1440,"hitSuccessfully":true},{"note":46,"velocity":88,"hitTime":1920,"closestNoteTime":1920,"hitSuccessfully":true},{"note":46,"velocity":79,"hitTime":2360,"closestNoteTime":2400,"hitSuccessfully":true},{"note":46,"velocity":77,"hitTime":2856,"closestNoteTime":2880,"hitSuccessfully":true},{"note":46,"velocity":80,"hitTime":3352,"closestNoteTime":3360,"hitSuccessfully":true},{"note":36,"velocity":44,"hitTime":3792,"closestNoteTime":3840,"hitSuccessfully":true},{"note":46,"velocity":88,"hitTime":3848,"closestNoteTime":3840,"hitSuccessfully":true},{"note":46,"velocity":73,"hitTime":4304,"closestNoteTime":4320,"hitSuccessfully":true},{"note":46,"velocity":80,"hitTime":4784,"closestNoteTime":4800,"hitSuccessfully":true},{"note":46,"velocity":73,"hitTime":5264,"closestNoteTime":5280,"hitSuccessfully":true},{"note":36,"velocity":54,"hitTime":5752,"closestNoteTime":5760,"hitSuccessfully":true},{"note":46,"velocity":83,"hitTime":5760,"closestNoteTime":5760,"hitSuccessfully":true},{"note":46,"velocity":70,"hitTime":6232,"closestNoteTime":6240,"hitSuccessfully":true},{"note":46,"velocity":77,"hitTime":6688,"closestNoteTime":6720,"hitSuccessfully":true},{"note":46,"velocity":74,"hitTime":7192,"closestNoteTime":7200,"hitSuccessfully":true},{"note":36,"velocity":36,"hitTime":7624,"closestNoteTime":7680,"hitSuccessfully":true},{"note":46,"velocity":82,"hitTime":7640,"closestNoteTime":7680,"hitSuccessfully":true},{"note":46,"velocity":73,"hitTime":8128,"closestNoteTime":8160,"hitSuccessfully":true},{"note":46,"velocity":76,"hitTime":8584,"closestNoteTime":8640,"hitSuccessfully":true},{"note":46,"velocity":75,"hitTime":9072,"closestNoteTime":9120,"hitSuccessfully":true},{"note":36,"velocity":51,"hitTime":9560,"closestNoteTime":9600,"hitSuccessfully":true},{"note":46,"velocity":85,"hitTime":9576,"closestNoteTime":9600,"hitSuccessfully":true},{"note":46,"velocity":76,"hitTime":10016,"closestNoteTime":10080,"hitSuccessfully":true},{"note":46,"velocity":74,"hitTime":10488,"closestNoteTime":10560,"hitSuccessfully":true},{"note":46,"velocity":82,"hitTime":10968,"closestNoteTime":11040,"hitSuccessfully":true},{"note":36,"velocity":38,"hitTime":11464,"closestNoteTime":11520,"hitSuccessfully":true},{"note":46,"velocity":84,"hitTime":11488,"closestNoteTime":11520,"hitSuccessfully":true},{"note":46,"velocity":80,"hitTime":11944,"closestNoteTime":12000,"hitSuccessfully":true},{"note":46,"velocity":80,"hitTime":12416,"closestNoteTime":12480,"hitSuccessfully":true},{"note":46,"velocity":74,"hitTime":12880,"closestNoteTime":12960,"hitSuccessfully":true},{"note":36,"velocity":40,"hitTime":13368,"closestNoteTime":13440,"hitSuccessfully":true},{"note":46,"velocity":84,"hitTime":13368,"closestNoteTime":13440,"hitSuccessfully":true},{"note":46,"velocity":75,"hitTime":13832,"closestNoteTime":13920,"hitSuccessfully":true},{"note":46,"velocity":73,"hitTime":14280,"closestNoteTime":14400,"hitSuccessfully":true},{"note":46,"velocity":79,"hitTime":14760,"closestNoteTime":14880,"hitSuccessfully":true}]}