{"frames":[{"note":36,"velocity":64,"hitTime":80,"closestNoteTime":0,"hitSuccessfully":true},{"note":46,"velocity":122,"hitTime":112,"closestNoteTime":0,"hitSuccessfully":true},{"note":46,"velocity":100,"hitTime":560,"closestNoteTime":480,"hitSuccessfully":true},{"note":46,"velocity":110,"hitTime":1040,"closestNoteTime":960,"hitSuccessfully":true},{"note":38,"velocity":110,"hitTime":1072,"closestNoteTime":960,"hitSuccessfully":true},{"note":38,"velocity":53,"hitTime":1200,"closestNoteTime":2880,"hitSuccessfully":false},{"note":46,"velocity":104,"hitTime":1520,"closestNoteTime":1440,"hitSuccessfully":true},{"note":46,"velocity":110,"hitTime":2000,"closestNoteTime":1920,"hitSuccessfully":true},{"note":36,"velocity":36,"hitTime":2080,"closestNoteTime":1920,"hitSuccessfully":true},{"note":46,"velocity":107,"hitTime":2496,"closestNoteTime":2400,"hitSuccessfully":true},{"note":46,"velocity":101,"hitTime":2544,"closestNoteTime":2880,"hitSuccessfully":false},{"note":38,"velocity":87,"hitTime":2912,"closestNoteTime":2880,"hitSuccessfully":true},{"note":46,"velocity":109,"hitTime":2992,"closestNoteTime":2880,"hitSuccessfully":true},{"note":46,"velocity":102,"hitTime":3424,"closestNoteTime":3360,"hitSuccessfully":true},{"note":46,"velocity":107,"hitTime":3904,"closestNoteTime":3840,"hitSuccessfully":true},{"note":36,"velocity":50,"hitTime":3904,"closestNoteTime":3840,"hitSuccessfully":true},{"note":46,"velocity":106,"hitTime":4416,"closestNoteTime":4320,"hitSuccessfully":true},{"note":46,"velocity":107,"hitTime":4896,"closestNoteTime":4800,"hitSuccessfully":true},{"note":38,"velocity":91,"hitTime":4960,"closestNoteTime":4800,"hitSuccessfully":true},{"note":46,"velocity":100,"hitTime":5360,"closestNoteTime":5280,"hitSuccessfully":true},{"note":46,"velocity":91,"hitTime":5440,"closestNoteTime":5760,"hitSuccessfully":false},{"note":46,"velocity":103,"hitTime":5840,"closestNoteTime":5760,"hitSuccessfully":true},{"note":36,"velocity":38,"hitTime":5888,"closestNoteTime":5760,"hitSuccessfully":true},{"note":46,"velocity":103,"hitTime":6320,"closestNoteTime":6240,"hitSuccessfully":true},{"note":38,"velocity":88,"hitTime":6768,"closestNoteTime":6720,"hitSuccessfully":true},{"note":46,"velocity":107,"hitTime":6800,"closestNoteTime":6720,"hitSuccessfully":true},{"note":36,"velocity":21,"hitTime":6880,"closestNoteTime":7680,"hitSuccessfully":false},{"note":46,"velocity":98,"hitTime":7248,"closestNoteTime":7200,"hitSuccessfully":true},{"note":46,"velocity":88,"hitTime":7312,"closestNoteTime":7680,"hitSuccessfully":false},{"note":36,"velocity":34,"hitTime":7744,"closestNoteTime":7680,"hitSuccessfully":true},{"note":46,"velocity":103,"hitTime":7744,"closestNoteTime":7680,"hitSuccessfully":true},{"note":46,"velocity":94,"hitTime":7792,"closestNoteTime":8160,"hitSuccessfully":false},{"note":46,"velocity":100,"hitTime":8192,"closestNoteTime":8160,"hitSuccessfully":true},{"note":46,"velocity":106,"hitTime":8640,"closestNoteTime":8640,"hitSuccessfully":true},{"note":38,"velocity":94,"hitTime":8704,"closestNoteTime":8640,"hitSuccessfully":true},{"note":46,"velocity":104,"hitTime":8704,"closestNoteTime":9120,"hitSuccessfully":false},{"note":36,"velocity":35,"hitTime":8784,"closestNoteTime":9600,"hitSuccessfully":false},{"note":46,"velocity":96,"hitTime":9152,"closestNoteTime":9120,"hitSuccessfully":true},{"note":46,"velocity":95,"hitTime":9632,"closestNoteTime":9600,"hitSuccessfully":true},{"note":36,"velocity":26,"hitTime":9696,"closestNoteTime":9600,"hitSuccessfully":true},{"note":46,"velocity":100,"hitTime":10144,"closestNoteTime":10080,"hitSuccessfully":true},{"note":46,"velocity":110,"hitTime":10608,"closestNoteTime":10560,"hitSuccessfully":true},{"note":38,"velocity":95,"hitTime":10624,"closestNoteTime":10560,"hitSuccessfully":true},{"note":46,"velocity":106,"hitTime":10656,"closestNoteTime":11040,"hitSuccessfully":false},{"note":46,"velocity":98,"hitTime":11056,"closestNoteTime":11040,"hitSuccessfully":true},{"note":46,"velocity":84,"hitTime":11136,"closestNoteTime":11520,"hitSuccessfully":false},{"note":46,"velocity":108,"hitTime":11536,"closestNoteTime":11520,"hitSuccessfully":true},{"note":46,"velocity":96,"hitTime":11568,"closestNoteTime":12000,"hitSuccessfully":false},{"note":36,"velocity":42,"hitTime":11600,"closestNoteTime":11520,"hitSuccessfully":true},{"note":46,"velocity":96,"hitTime":12016,"closestNoteTime":12000,"hitSuccessfully":true},{"note":46,"velocity":104,"hitTime":12496,"closestNoteTime":12480,"hitSuccessfully":true},{"note":36,"velocity":43,"hitTime":12560,"closestNoteTime":13440,"hitSuccessfully":false},{"note":46,"velocity":99,"hitTime":12992,"closestNoteTime":12960,"hitSuccessfully":true},{"note":46,"velocity":106,"hitTime":13440,"closestNoteTime":13440,"hitSuccessfully":true},{"note":36,"velocity":48,"hitTime":13472,"closestNoteTime":13440,"hitSuccessfully":true},{"note":46,"velocity":97,"hitTime":13488,"closestNoteTime":13920,"hitSuccessfully":false},{"note":46,"velocity":101,"hitTime":13888,"closestNoteTime":13920,"hitSuccessfully":true},{"note":46,"velocity":112,"hitTime":14400,"closestNoteTime":14400,"hitSuccessfully":true},{"note":38,"velocity":92,"hitTime":14400,"closestNoteTime":14400,"hitSuccessfully":true},{"note":36,"velocity":38,"hitTime":14464,"closestNoteTime":15360,"hitSuccessfully":false},{"note":46,"velocity":99,"hitTime":14912,"closestNoteTime":14880,"hitSuccessfully":true},{"note":46,"velocity":99,"hitTime":15392,"closestNoteTime":15360,"hitSuccessfully":true},{"note":46,"velocity":99,"hitTime":15856,"closestNoteTime":15840,"hitSuccessfully":true},{"note":46,"velocity":85,"hitTime":15904,"closestNoteTime":16320,"hitSuccessfully":false},{"note":36,"velocity":39,"hitTime":16032,"closestNoteTime":15360,"hitSuccessfully":false},{"note":46,"velocity":120,"hitTime":16352,"closestNoteTime":16320,"hitSuccessfully":true},{"note":38,"velocity":94,"hitTime":16352,"closestNoteTime":16320,"hitSuccessfully":true},{"note":36,"velocity":35,"hitTime":16496,"closestNoteTime":17280,"hitSuccessfully":false},{"note":46,"velocity":98,"hitTime":16816,"closestNoteTime":16800,"hitSuccessfully":true},{"note":46,"velocity":89,"hitTime":17264,"closestNoteTime":17280,"hitSuccessfully":true},{"note":46,"velocity":88,"hitTime":17696,"closestNoteTime":17760,"hitSuccessfully":true},{"note":46,"velocity":109,"hitTime":18224,"closestNoteTime":18240,"hitSuccessfully":true},{"note":38,"velocity":90,"hitTime":18256,"closestNoteTime":18240,"hitSuccessfully":true},{"note":36,"velocity":42,"hitTime":18288,"closestNoteTime":19200,"hitSuccessfully":false},{"note":46,"velocity":97,"hitTime":18736,"closestNoteTime":18720,"hitSuccessfully":true},{"note":46,"velocity":91,"hitTime":19200,"closestNoteTime":19200,"hitSuccessfully":true},{"note":46,"velocity":91,"hitTime":19680,"closestNoteTime":19680,"hitSuccessfully":true},{"note":38,"velocity":86,"hitTime":20160,"closestNoteTime":20160,"hitSuccessfully":true},{"note":46,"velocity":104,"hitTime":20160,"closestNoteTime":20160,"hitSuccessfully":true},{"note":36,"velocity":42,"hitTime":20208,"closestNoteTime":21120,"hitSuccessfully":false},{"note":46,"velocity":97,"hitTime":20672,"closestNoteTime":20640,"hitSuccessfully":true},{"note":46,"velocity":93,"hitTime":21184,"closestNoteTime":21120,"hitSuccessfully":true},{"note":46,"velocity":97,"hitTime":21600,"closestNoteTime":21600,"hitSuccessfully":true},{"note":46,"velocity":79,"hitTime":21680,"closestNoteTime":22080,"hitSuccessfully":false},{"note":38,"velocity":84,"hitTime":22112,"closestNoteTime":22080,"hitSuccessfully":true},{"note":46,"velocity":104,"hitTime":22112,"closestNoteTime":22080,"hitSuccessfully":true},{"note":36,"velocity":39,"hitTime":22144,"closestNoteTime":23040,"hitSuccessfully":false},{"note":46,"velocity":99,"hitTime":22624,"closestNoteTime":22560,"hitSuccessfully":true},{"note":46,"velocity":100,"hitTime":23072,"closestNoteTime":23040,"hitSuccessfully":true},{"note":46,"velocity":97,"hitTime":23536,"closestNoteTime":23520,"hitSuccessfully":true},{"note":38,"velocity":87,"hitTime":23984,"closestNoteTime":24000,"hitSuccessfully":true},{"note":46,"velocity":106,"hitTime":24016,"closestNoteTime":24000,"hitSuccessfully":true},{"note":46,"velocity":97,"hitTime":24496,"closestNoteTime":24480,"hitSuccessfully":true},{"note":46,"velocity":99,"hitTime":24960,"closestNoteTime":24960,"hitSuccessfully":true},{"note":46,"velocity":96,"hitTime":25408,"closestNoteTime":25440,"hitSuccessfully":true},{"note":46,"velocity":75,"hitTime":25488,"closestNoteTime":25920,"hitSuccessfully":false},{"note":46,"velocity":104,"hitTime":25920,"closestNoteTime":25920,"hitSuccessfully":true},{"note":38,"velocity":88,"hitTime":25936,"closestNoteTime":25920,"hitSuccessfully":true},{"note":46,"velocity":99,"hitTime":26432,"closestNoteTime":26400,"hitSuccessfully":true},{"note":46,"velocity":100,"hitTime":26880,"closestNoteTime":26880,"hitSuccessfully":true},{"note":46,"velocity":99,"hitTime":27312,"closestNoteTime":27360,"hitSuccessfully":true},{"note":36,"velocity":47,"hitTime":27792,"closestNoteTime":26880,"hitSuccessfully":false},{"note":46,"velocity":109,"hitTime":27872,"closestNoteTime":27840,"hitSuccessfully":true},{"note":46,"velocity":102,"hitTime":28320,"closestNoteTime":28320,"hitSuccessfully":true},{"note":38,"velocity":91,"hitTime":28832,"closestNoteTime":29760,"hitSuccessfully":false},{"note":46,"velocity":104,"hitTime":29184,"closestNoteTime":29280,"hitSuccessfully":true},{"note":46,"velocity":109,"hitTime":29904,"closestNoteTime":29760,"hitSuccessfully":true},{"note":46,"velocity":102,"hitTime":30432,"closestNoteTime":30240,"hitSuccessfully":true}]}