{"frames":[{"note":46,"velocity":74,"hitTime":2992,"closestNoteTime":2880,"hitSuccessfully":true},{"note":46,"velocity":77,"hitTime":3536,"closestNoteTime":3360,"hitSuccessfully":true},{"note":46,"velocity":79,"hitTime":4016,"closestNoteTime":3840,"hitSuccessfully":true},{"note":46,"velocity":65,"hitTime":4528,"closestNoteTime":4320,"hitSuccessfully":true},{"note":46,"velocity":66,"hitTime":5104,"closestNoteTime":5280,"hitSuccessfully":true},{"note":36,"velocity":42,"hitTime":6000,"closestNoteTime":5760,"hitSuccessfully":true},{"note":46,"velocity":72,"hitTime":6176,"closestNoteTime":6240,"hitSuccessfully":true},{"note":36,"velocity":27,"hitTime":6288,"closestNoteTime":7680,"hitSuccessfully":false},{"note":46,"velocity":74,"hitTime":6976,"closestNoteTime":6720,"hitSuccessfully":true},{"note":46,"velocity":66,"hitTime":7488,"closestNoteTime":7200,"hitSuccessfully":true},{"note":46,"velocity":62,"hitTime":8080,"closestNoteTime":8160,"hitSuccessfully":true},{"note":36,"velocity":51,"hitTime":9152,"closestNoteTime":9600,"hitSuccessfully":false},{"note":46,"velocity":66,"hitTime":9424,"closestNoteTime":9600,"hitSuccessfully":true},{"note":46,"velocity":70,"hitTime":9904,"closestNoteTime":10080,"hitSuccessfully":true},{"note":46,"velocity":64,"hitTime":10352,"closestNoteTime":10560,"hitSuccessfully":true},{"note":46,"velocity":62,"hitTime":10896,"closestNoteTime":11040,"hitSuccessfully":true},{"note":46,"velocity":64,"hitTime":11408,"closestNoteTime":11520,"hitSuccessfully":true},{"note":38,"velocity":72,"hitTime":12128,"closestNoteTime":12480,"hitSuccessfully":false},{"note":38,"velocity":28,"hitTime":12288,"closestNoteTime":12480,"hitSuccessfully":true},{"note":46,"velocity":67,"hitTime":12656,"closestNoteTime":12480,"hitSuccessfully":true},{"note":36,"velocity":52,"hitTime":12960,"closestNoteTime":13440,"hitSuccessfully":false},{"note":46,"velocity":67,"hitTime":13136,"closestNoteTime":12960,"hitSuccessfully":true},{"note":36,"velocity":22,"hitTime":13200,"closestNoteTime":13440,"hitSuccessfully":true},{"note":46,"velocity":67,"hitTime":13680,"closestNoteTime":13440,"hitSuccessfully":true},{"note":46,"velocity":73,"hitTime":14400,"closestNoteTime":14400,"hitSuccessfully":true},{"note":46,"velocity":76,"hitTime":15072,"closestNoteTime":14880,"hitSuccessfully":true},{"note":46,"velocity":77,"hitTime":15824,"closestNoteTime":15840,"hitSuccessfully":true},{"note":36,"velocity":36,"hitTime":15824,"closestNoteTime":15360,"hitSuccessfully":false},{"note":36,"velocity":21,"hitTime":16160,"closestNoteTime":15360,"hitSuccessfully":false},{"note":46,"velocity":66,"hitTime":16240,"closestNoteTime":16320,"hitSuccessfully":true},{"note":46,"velocity":72,"hitTime":16864,"closestNoteTime":16800,"hitSuccessfully":true},{"note":46,"velocity":62,"hitTime":17504,"closestNoteTime":17280,"hitSuccessfully":true},{"note":38,"velocity":72,"hitTime":18096,"closestNoteTime":18240,"hitSuccessfully":true},{"note":38,"velocity":37,"hitTime":18288,"closestNoteTime":20160,"hitSuccessfully":false},{"note":46,"velocity":76,"hitTime":18544,"closestNoteTime":18720,"hitSuccessfully":true},{"note":36,"velocity":39,"hitTime":18976,"closestNoteTime":19200,"hitSuccessfully":true},{"note":46,"velocity":72,"hitTime":19024,"closestNoteTime":19200,"hitSuccessfully":true},{"note":36,"velocity":23,"hitTime":19136,"closestNoteTime":17280,"hitSuccessfully":false},{"note":46,"velocity":73,"hitTime":19520,"closestNoteTime":19680,"hitSuccessfully":true},{"note":46,"velocity":66,"hitTime":20000,"closestNoteTime":20160,"hitSuccessfully":true},{"note":46,"velocity":46,"hitTime":20512,"closestNoteTime":20640,"hitSuccessfully":true},{"note":38,"velocity":72,"hitTime":21360,"closestNoteTime":22080,"hitSuccessfully":false},{"note":46,"velocity":79,"hitTime":21792,"closestNoteTime":21600,"hitSuccessfully":true},{"note":36,"velocity":64,"hitTime":21840,"closestNoteTime":21120,"hitSuccessfully":false},{"note":36,"velocity":28,"hitTime":22000,"closestNoteTime":21120,"hitSuccessfully":false},{"note":46,"velocity":70,"hitTime":22304,"closestNoteTime":22080,"hitSuccessfully":true},{"note":46,"velocity":70,"hitTime":22832,"closestNoteTime":22560,"hitSuccessfully":true},{"note":46,"velocity":64,"hitTime":23344,"closestNoteTime":23520,"hitSuccessfully":true},{"note":46,"velocity":40,"hitTime":23872,"closestNoteTime":24000,"hitSuccessfully":true},{"note":36,"velocity":60,"hitTime":24496,"closestNoteTime":24960,"hitSuccessfully":false},{"note":46,"velocity":77,"hitTime":24576,"closestNoteTime":24480,"hitSuccessfully":true},{"note":36,"velocity":26,"hitTime":24736,"closestNoteTime":24960,"hitSuccessfully":true},{"note":46,"velocity":72,"hitTime":25136,"closestNoteTime":24960,"hitSuccessfully":true},{"note":46,"velocity":73,"hitTime":25648,"closestNoteTime":25440,"hitSuccessfully":true},{"note":46,"velocity":62,"hitTime":26160,"closestNoteTime":25920,"hitSuccessfully":true},{"note":46,"velocity":70,"hitTime":26720,"closestNoteTime":26880,"hitSuccessfully":true},{"note":38,"velocity":70,"hitTime":27328,"closestNoteTime":27840,"hitSuccessfully":false},{"note":38,"velocity":43,"hitTime":27568,"closestNoteTime":27840,"hitSuccessfully":true},{"note":36,"velocity":54,"hitTime":27600,"closestNoteTime":26880,"hitSuccessfully":false},{"note":46,"velocity":77,"hitTime":27712,"closestNoteTime":27840,"hitSuccessfully":true},{"note":36,"velocity":23,"hitTime":27872,"closestNoteTime":28800,"hitSuccessfully":false},{"note":46,"velocity":73,"hitTime":28304,"closestNoteTime":28320,"hitSuccessfully":true},{"note":46,"velocity":72,"hitTime":28880,"closestNoteTime":28800,"hitSuccessfully":true},{"note":46,"velocity":62,"hitTime":29472,"closestNoteTime":29280,"hitSuccessfully":true},{"note":38,"velocity":54,"hitTime":30112,"closestNoteTime":29760,"hitSuccessfully":false},{"note":38,"velocity":39,"hitTime":30192,"closestNoteTime":29760,"hitSuccessfully":false},{"note":36,"velocity":54,"hitTime":30512,"closestNoteTime":28800,"hitSuccessfully":false},{"note":46,"velocity":70,"hitTime":30672,"closestNoteTime":30240,"hitSuccessfully":false},{"note":36,"velocity":23,"hitTime":30704,"closestNoteTime":28800,"hitSuccessfully":false}]}