{"frames":[{"note":46,"velocity":107,"hitTime":48,"closestNoteTime":0,"hitSuccessfully":true},{"note":46,"velocity":108,"hitTime":528,"closestNoteTime":480,"hitSuccessfully":true},{"note":46,"velocity":105,"hitTime":984,"closestNoteTime":960,"hitSuccessfully":true},{"note":46,"velocity":102,"hitTime":1456,"closestNoteTime":1440,"hitSuccessfully":true},{"note":46,"velocity":99,"hitTime":1912,"closestNoteTime":1920,"hitSuccessfully":true},{"note":46,"velocity":101,"hitTime":2392,"closestNoteTime":2400,"hitSuccessfully":true},{"note":46,"velocity":103,"hitTime":2872,"closestNoteTime":2880,"hitSuccessfully":true},{"note":46,"velocity":104,"hitTime":3328,"closestNoteTime":3360,"hitSuccessfully":true},{"note":46,"velocity":104,"hitTime":3800,"closestNoteTime":3840,"hitSuccessfully":true},{"note":46,"velocity":99,"hitTime":4256,"closestNoteTime":4320,"hitSuccessfully":true},{"note":46,"velocity":106,"hitTime":4704,"closestNoteTime":4800,"hitSuccessfully":true},{"note":46,"velocity":106,"hitTime":5160,"closestNoteTime":5280,"hitSuccessfully":true},{"note":46,"velocity":110,"hitTime":5616,"closestNoteTime":5760,"hitSuccessfully":true},{"note":46,"velocity":106,"hitTime":6088,"closestNoteTime":6240,"hitSuccessfully":false},{"note":46,"velocity":105,"hitTime":6544,"closestNoteTime":6720,"hitSuccessfully":false},{"note":46,"velocity":107,"hitTime":7000,"closestNoteTime":7200,"hitSuccessfully":false},{"note":46,"velocity":93,"hitTime":7544,"closestNoteTime":7680,"hitSuccessfully":true},{"note":46,"velocity":106,"hitTime":8136,"closestNoteTime":8160,"hitSuccessfully":true},{"note":46,"velocity":107,"hitTime":8656,"closestNoteTime":8640,"hitSuccessfully":true},{"note":46,"velocity":105,"hitTime":9136,"closestNoteTime":9120,"hitSuccessfully":true},{"note":46,"velocity":102,"hitTime":9624,"closestNoteTime":9600,"hitSuccessfully":true},{"note":46,"velocity":99,"hitTime":10096,"closestNoteTime":10080,"hitSuccessfully":true},{"note":46,"velocity":101,"hitTime":10584,"closestNoteTime":10560,"hitSuccessfully":true},{"note":46,"velocity":101,"hitTime":11080,"closestNoteTime":11040,"hitSuccessfully":true},{"note":46,"velocity":103,"hitTime":11560,"closestNoteTime":11520,"hitSuccessfully":true},{"note":46,"velocity":99,"hitTime":12040,"closestNoteTime":12000,"hitSuccessfully":true},{"note":46,"velocity":102,"hitTime":12520,"closestNoteTime":12480,"hitSuccessfully":true},{"note":46,"velocity":102,"hitTime":13016,"closestNoteTime":12960,"hitSuccessfully":true},{"note":46,"velocity":101,"hitTime":13504,"closestNoteTime":13440,"hitSuccessfully":true},{"note":46,"velocity":102,"hitTime":13984,"closestNoteTime":13920,"hitSuccessfully":true},{"note":46,"velocity":102,"hitTime":14456,"closestNoteTime":14400,"hitSuccessfully":true}]}