{"frames":[{"note":46,"velocity":58,"hitTime":72,"closestNoteTime":0,"hitSuccessfully":true},{"note":46,"velocity":58,"hitTime":544,"closestNoteTime":480,"hitSuccessfully":true},{"note":46,"velocity":70,"hitTime":1008,"closestNoteTime":960,"hitSuccessfully":true},{"note":38,"velocity":77,"hitTime":1024,"closestNoteTime":960,"hitSuccessfully":true},{"note":46,"velocity":64,"hitTime":1496,"closestNoteTime":1440,"hitSuccessfully":true},{"note":46,"velocity":65,"hitTime":1960,"closestNoteTime":1920,"hitSuccessfully":true},{"note":46,"velocity":55,"hitTime":2432,"closestNoteTime":2400,"hitSuccessfully":true},{"note":46,"velocity":67,"hitTime":2896,"closestNoteTime":2880,"hitSuccessfully":true},{"note":38,"velocity":78,"hitTime":2912,"closestNoteTime":2880,"hitSuccessfully":true},{"note":46,"velocity":64,"hitTime":3368,"closestNoteTime":3360,"hitSuccessfully":true},{"note":46,"velocity":65,"hitTime":3848,"closestNoteTime":3840,"hitSuccessfully":true},{"note":46,"velocity":58,"hitTime":4344,"closestNoteTime":4320,"hitSuccessfully":true},{"note":46,"velocity":60,"hitTime":4824,"closestNoteTime":4800,"hitSuccessfully":true},{"note":38,"velocity":72,"hitTime":4840,"closestNoteTime":4800,"hitSuccessfully":true},{"note":46,"velocity":58,"hitTime":5296,"closestNoteTime":5280,"hitSuccessfully":true},{"note":46,"velocity":70,"hitTime":5776,"closestNoteTime":5760,"hitSuccessfully":true},{"note":46,"velocity":70,"hitTime":6272,"closestNoteTime":6240,"hitSuccessfully":true},{"note":38,"velocity":76,"hitTime":6752,"closestNoteTime":6720,"hitSuccessfully":true},{"note":46,"velocity":93,"hitTime":6768,"closestNoteTime":6720,"hitSuccessfully":true},{"note":46,"velocity":67,"hitTime":7272,"closestNoteTime":7200,"hitSuccessfully":true},{"note":46,"velocity":73,"hitTime":7768,"closestNoteTime":7680,"hitSuccessfully":true},{"note":46,"velocity":64,"hitTime":8240,"closestNoteTime":8160,"hitSuccessfully":true},{"note":46,"velocity":77,"hitTime":8712,"closestNoteTime":8640,"hitSuccessfully":true},{"note":38,"velocity":83,"hitTime":8712,"closestNoteTime":8640,"hitSuccessfully":true},{"note":46,"velocity":72,"hitTime":9192,"closestNoteTime":9120,"hitSuccessfully":true},{"note":46,"velocity":77,"hitTime":9656,"closestNoteTime":9600,"hitSuccessfully":true},{"note":46,"velocity":65,"hitTime":10152,"closestNoteTime":10080,"hitSuccessfully":true},{"note":38,"velocity":73,"hitTime":10624,"closestNoteTime":10560,"hitSuccessfully":true},{"note":46,"velocity":95,"hitTime":10640,"closestNoteTime":10560,"hitSuccessfully":true},{"note":46,"velocity":67,"hitTime":11120,"closestNoteTime":11040,"hitSuccessfully":true},{"note":46,"velocity":73,"hitTime":11616,"closestNoteTime":11520,"hitSuccessfully":true},{"note":46,"velocity":67,"hitTime":12096,"closestNoteTime":12000,"hitSuccessfully":true},{"note":38,"velocity":80,"hitTime":12568,"closestNoteTime":12480,"hitSuccessfully":true},{"note":46,"velocity":76,"hitTime":12576,"closestNoteTime":12480,"hitSuccessfully":true},{"note":46,"velocity":66,"hitTime":13048,"closestNoteTime":12960,"hitSuccessfully":true},{"note":46,"velocity":60,"hitTime":13512,"closestNoteTime":13440,"hitSuccessfully":true},{"note":46,"velocity":60,"hitTime":13984,"closestNoteTime":13920,"hitSuccessfully":true},{"note":38,"velocity":77,"hitTime":14456,"closestNoteTime":14400,"hitSuccessfully":true},{"note":46,"velocity":77,"hitTime":14464,"closestNoteTime":14400,"hitSuccessfully":true},{"note":46,"velocity":58,"hitTime":14960,"closestNoteTime":14880,"hitSuccessfully":true}]}