{"frames":[{"note":46,"velocity":103,"hitTime":48,"closestNoteTime":0,"hitSuccessfully":true},{"note":46,"velocity":88,"hitTime":536,"closestNoteTime":480,"hitSuccessfully":true},{"note":46,"velocity":93,"hitTime":992,"closestNoteTime":960,"hitSuccessfully":true},{"note":46,"velocity":89,"hitTime":1480,"closestNoteTime":1440,"hitSuccessfully":true},{"note":36,"velocity":39,"hitTime":1976,"closestNoteTime":1920,"hitSuccessfully":true},{"note":46,"velocity":101,"hitTime":1984,"closestNoteTime":1920,"hitSuccessfully":true},{"note":46,"velocity":89,"hitTime":2424,"closestNoteTime":2400,"hitSuccessfully":true},{"note":46,"velocity":85,"hitTime":2936,"closestNoteTime":2880,"hitSuccessfully":true},{"note":46,"velocity":90,"hitTime":3392,"closestNoteTime":3360,"hitSuccessfully":true},{"note":46,"velocity":104,"hitTime":3904,"closestNoteTime":3840,"hitSuccessfully":true},{"note":46,"velocity":85,"hitTime":4368,"closestNoteTime":4320,"hitSuccessfully":true},{"note":46,"velocity":90,"hitTime":4840,"closestNoteTime":4800,"hitSuccessfully":true},{"note":46,"velocity":88,"hitTime":5344,"closestNoteTime":5280,"hitSuccessfully":true},{"note":36,"velocity":65,"hitTime":5800,"closestNoteTime":5760,"hitSuccessfully":true},{"note":46,"velocity":103,"hitTime":5840,"closestNoteTime":5760,"hitSuccessfully":true},{"note":46,"velocity":85,"hitTime":6272,"closestNoteTime":6240,"hitSuccessfully":true},{"note":46,"velocity":89,"hitTime":6736,"closestNoteTime":6720,"hitSuccessfully":true},{"note":46,"velocity":97,"hitTime":7232,"closestNoteTime":7200,"hitSuccessfully":true},{"note":36,"velocity":70,"hitTime":7704,"closestNoteTime":7680,"hitSuccessfully":true},{"note":46,"velocity":105,"hitTime":7728,"closestNoteTime":7680,"hitSuccessfully":true},{"note":46,"velocity":83,"hitTime":8160,"closestNoteTime":8160,"hitSuccessfully":true},{"note":46,"velocity":89,"hitTime":8648,"closestNoteTime":8640,"hitSuccessfully":true},{"note":46,"velocity":90,"hitTime":9120,"closestNoteTime":9120,"hitSuccessfully":true},{"note":36,"velocity":60,"hitTime":9576,"closestNoteTime":9600,"hitSuccessfully":true},{"note":46,"velocity":108,"hitTime":9616,"closestNoteTime":9600,"hitSuccessfully":true},{"note":46,"velocity":91,"hitTime":10072,"closestNoteTime":10080,"hitSuccessfully":true},{"note":46,"velocity":91,"hitTime":10552,"closestNoteTime":10560,"hitSuccessfully":true},{"note":46,"velocity":91,"hitTime":11024,"closestNoteTime":11040,"hitSuccessfully":true},{"note":36,"velocity":48,"hitTime":11504,"closestNoteTime":11520,"hitSuccessfully":true},{"note":46,"velocity":104,"hitTime":11544,"closestNoteTime":11520,"hitSuccessfully":true},{"note":36,"velocity":26,"hitTime":11608,"closestNoteTime":13440,"hitSuccessfully":false},{"note":46,"velocity":86,"hitTime":12000,"closestNoteTime":12000,"hitSuccessfully":true},{"note":46,"velocity":94,"hitTime":12504,"closestNoteTime":12480,"hitSuccessfully":true},{"note":46,"velocity":85,"hitTime":12952,"closestNoteTime":12960,"hitSuccessfully":true},{"note":36,"velocity":44,"hitTime":13408,"closestNoteTime":13440,"hitSuccessfully":true},{"note":46,"velocity":109,"hitTime":13456,"closestNoteTime":13440,"hitSuccessfully":true},{"note":46,"velocity":88,"hitTime":13912,"closestNoteTime":13920,"hitSuccessfully":true},{"note":46,"velocity":93,"hitTime":14400,"closestNoteTime":14400,"hitSuccessfully":true},{"note":46,"velocity":87,"hitTime":14848,"closestNoteTime":14880,"hitSuccessfully":true}]}