{"frames":[{"note":46,"velocity":48,"hitTime":200,"closestNoteTime":0,"hitSuccessfully":false},{"note":46,"velocity":62,"hitTime":592,"closestNoteTime":480,"hitSuccessfully":true},{"note":46,"velocity":62,"hitTime":1024,"closestNoteTime":960,"hitSuccessfully":true},{"note":46,"velocity":66,"hitTime":1520,"closestNoteTime":1440,"hitSuccessfully":true},{"note":46,"velocity":67,"hitTime":1952,"closestNoteTime":1920,"hitSuccessfully":true},{"note":46,"velocity":65,"hitTime":2416,"closestNoteTime":2400,"hitSuccessfully":true},{"note":46,"velocity":65,"hitTime":2896,"closestNoteTime":2880,"hitSuccessfully":true},{"note":46,"velocity":67,"hitTime":3368,"closestNoteTime":3360,"hitSuccessfully":true},{"note":46,"velocity":64,"hitTime":3824,"closestNoteTime":3840,"hitSuccessfully":true},{"note":46,"velocity":65,"hitTime":4336,"closestNoteTime":4320,"hitSuccessfully":true},{"note":46,"velocity":65,"hitTime":4784,"closestNoteTime":4800,"hitSuccessfully":true},{"note":46,"velocity":67,"hitTime":5272,"closestNoteTime":5280,"hitSuccessfully":true},{"note":46,"velocity":70,"hitTime":5736,"closestNoteTime":5760,"hitSuccessfully":true},{"note":46,"velocity":64,"hitTime":6224,"closestNoteTime":6240,"hitSuccessfully":true},{"note":46,"velocity":60,"hitTime":6728,"closestNoteTime":6720,"hitSuccessfully":true},{"note":46,"velocity":73,"hitTime":7168,"closestNoteTime":7200,"hitSuccessfully":true},{"note":46,"velocity":62,"hitTime":7664,"closestNoteTime":7680,"hitSuccessfully":true},{"note":46,"velocity":73,"hitTime":8160,"closestNoteTime":8160,"hitSuccessfully":true},{"note":46,"velocity":65,"hitTime":8616,"closestNoteTime":8640,"hitSuccessfully":true},{"note":46,"velocity":64,"hitTime":9112,"closestNoteTime":9120,"hitSuccessfully":true},{"note":46,"velocity":65,"hitTime":9592,"closestNoteTime":9600,"hitSuccessfully":true},{"note":46,"velocity":64,"hitTime":10080,"closestNoteTime":10080,"hitSuccessfully":true},{"note":46,"velocity":70,"hitTime":10568,"closestNoteTime":10560,"hitSuccessfully":true},{"note":46,"velocity":58,"hitTime":11040,"closestNoteTime":11040,"hitSuccessfully":true},{"note":46,"velocity":73,"hitTime":11552,"closestNoteTime":11520,"hitSuccessfully":true},{"note":46,"velocity":66,"hitTime":12008,"closestNoteTime":12000,"hitSuccessfully":true},{"note":46,"velocity":70,"hitTime":12456,"closestNoteTime":12480,"hitSuccessfully":true},{"note":46,"velocity":67,"hitTime":12952,"closestNoteTime":12960,"hitSuccessfully":true},{"note":46,"velocity":62,"hitTime":13448,"closestNoteTime":13440,"hitSuccessfully":true},{"note":46,"velocity":64,"hitTime":13944,"closestNoteTime":13920,"hitSuccessfully":true},{"note":46,"velocity":64,"hitTime":14416,"closestNoteTime":14400,"hitSuccessfully":true},{"note":46,"velocity":65,"hitTime":14912,"closestNoteTime":14880,"hitSuccessfully":true}]}