{"frames":[{"note":36,"velocity":61,"hitTime":16,"closestNoteTime":0,"hitSuccessfully":true},{"note":46,"velocity":106,"hitTime":224,"closestNoteTime":0,"hitSuccessfully":true},{"note":46,"velocity":105,"hitTime":640,"closestNoteTime":480,"hitSuccessfully":true},{"note":46,"velocity":107,"hitTime":1088,"closestNoteTime":960,"hitSuccessfully":true},{"note":46,"velocity":102,"hitTime":1488,"closestNoteTime":1440,"hitSuccessfully":true},{"note":46,"velocity":127,"hitTime":2016,"closestNoteTime":1920,"hitSuccessfully":true},{"note":46,"velocity":103,"hitTime":2480,"closestNoteTime":2400,"hitSuccessfully":true},{"note":46,"velocity":107,"hitTime":2928,"closestNoteTime":2880,"hitSuccessfully":true},{"note":46,"velocity":103,"hitTime":3360,"closestNoteTime":3360,"hitSuccessfully":true},{"note":46,"velocity":127,"hitTime":3904,"closestNoteTime":3840,"hitSuccessfully":true},{"note":46,"velocity":98,"hitTime":4400,"closestNoteTime":4320,"hitSuccessfully":true},{"note":46,"velocity":99,"hitTime":4896,"closestNoteTime":4800,"hitSuccessfully":true},{"note":46,"velocity":96,"hitTime":5264,"closestNoteTime":5280,"hitSuccessfully":true},{"note":46,"velocity":103,"hitTime":5792,"closestNoteTime":5760,"hitSuccessfully":true},{"note":46,"velocity":97,"hitTime":6176,"closestNoteTime":6240,"hitSuccessfully":true},{"note":46,"velocity":60,"hitTime":6656,"closestNoteTime":6720,"hitSuccessfully":true},{"note":46,"velocity":70,"hitTime":6688,"closestNoteTime":7200,"hitSuccessfully":false},{"note":46,"velocity":97,"hitTime":7456,"closestNoteTime":7200,"hitSuccessfully":true},{"note":46,"velocity":106,"hitTime":7920,"closestNoteTime":7680,"hitSuccessfully":true},{"note":46,"velocity":96,"hitTime":8368,"closestNoteTime":8160,"hitSuccessfully":true},{"note":46,"velocity":97,"hitTime":8768,"closestNoteTime":8640,"hitSuccessfully":true},{"note":46,"velocity":95,"hitTime":9312,"closestNoteTime":9120,"hitSuccessfully":true},{"note":46,"velocity":101,"hitTime":9760,"closestNoteTime":9600,"hitSuccessfully":true},{"note":46,"velocity":99,"hitTime":10224,"closestNoteTime":10080,"hitSuccessfully":true},{"note":46,"velocity":118,"hitTime":10672,"closestNoteTime":10560,"hitSuccessfully":true},{"note":46,"velocity":99,"hitTime":11152,"closestNoteTime":11040,"hitSuccessfully":true},{"note":46,"velocity":97,"hitTime":11584,"closestNoteTime":11520,"hitSuccessfully":true},{"note":46,"velocity":96,"hitTime":11984,"closestNoteTime":12000,"hitSuccessfully":true},{"note":46,"velocity":127,"hitTime":12544,"closestNoteTime":12480,"hitSuccessfully":true},{"note":46,"velocity":99,"hitTime":13024,"closestNoteTime":12960,"hitSuccessfully":true},{"note":46,"velocity":99,"hitTime":13456,"closestNoteTime":13440,"hitSuccessfully":true},{"note":46,"velocity":97,"hitTime":13856,"closestNoteTime":13920,"hitSuccessfully":true},{"note":38,"velocity":94,"hitTime":14400,"closestNoteTime":14400,"hitSuccessfully":true},{"note":46,"velocity":122,"hitTime":14416,"closestNoteTime":14400,"hitSuccessfully":true},{"note":38,"velocity":67,"hitTime":14480,"closestNoteTime":16320,"hitSuccessfully":false},{"note":46,"velocity":98,"hitTime":14896,"closestNoteTime":14880,"hitSuccessfully":true},{"note":46,"velocity":96,"hitTime":15328,"closestNoteTime":15360,"hitSuccessfully":true},{"note":46,"velocity":98,"hitTime":15808,"closestNoteTime":15840,"hitSuccessfully":true},{"note":38,"velocity":94,"hitTime":16288,"closestNoteTime":16320,"hitSuccessfully":true},{"note":46,"velocity":127,"hitTime":16288,"closestNoteTime":16320,"hitSuccessfully":true},{"note":38,"velocity":69,"hitTime":16352,"closestNoteTime":18240,"hitSuccessfully":false},{"note":46,"velocity":100,"hitTime":16832,"closestNoteTime":16800,"hitSuccessfully":true},{"note":46,"velocity":98,"hitTime":17280,"closestNoteTime":17280,"hitSuccessfully":true},{"note":46,"velocity":98,"hitTime":17712,"closestNoteTime":17760,"hitSuccessfully":true},{"note":36,"velocity":77,"hitTime":18224,"closestNoteTime":17280,"hitSuccessfully":false},{"note":38,"velocity":93,"hitTime":18224,"closestNoteTime":18240,"hitSuccessfully":true},{"note":46,"velocity":127,"hitTime":18256,"closestNoteTime":18240,"hitSuccessfully":true},{"note":38,"velocity":58,"hitTime":18336,"closestNoteTime":20160,"hitSuccessfully":false},{"note":46,"velocity":105,"hitTime":18736,"closestNoteTime":18720,"hitSuccessfully":true},{"note":46,"velocity":97,"hitTime":19152,"closestNoteTime":19200,"hitSuccessfully":true},{"note":46,"velocity":94,"hitTime":19584,"closestNoteTime":19680,"hitSuccessfully":true},{"note":46,"velocity":127,"hitTime":20096,"closestNoteTime":20160,"hitSuccessfully":true},{"note":46,"velocity":103,"hitTime":20576,"closestNoteTime":20640,"hitSuccessfully":true},{"note":46,"velocity":99,"hitTime":20976,"closestNoteTime":21120,"hitSuccessfully":true},{"note":46,"velocity":93,"hitTime":21440,"closestNoteTime":21600,"hitSuccessfully":true},{"note":46,"velocity":127,"hitTime":21952,"closestNoteTime":22080,"hitSuccessfully":true},{"note":46,"velocity":101,"hitTime":22448,"closestNoteTime":22560,"hitSuccessfully":true},{"note":46,"velocity":100,"hitTime":22880,"closestNoteTime":23040,"hitSuccessfully":true},{"note":46,"velocity":98,"hitTime":23312,"closestNoteTime":23520,"hitSuccessfully":true},{"note":46,"velocity":105,"hitTime":23792,"closestNoteTime":24000,"hitSuccessfully":true},{"note":46,"velocity":100,"hitTime":24224,"closestNoteTime":24480,"hitSuccessfully":true},{"note":46,"velocity":106,"hitTime":24624,"closestNoteTime":24960,"hitSuccessfully":false},{"note":46,"velocity":101,"hitTime":25136,"closestNoteTime":24960,"hitSuccessfully":true},{"note":46,"velocity":96,"hitTime":25552,"closestNoteTime":25440,"hitSuccessfully":true},{"note":46,"velocity":98,"hitTime":26016,"closestNoteTime":25920,"hitSuccessfully":true},{"note":46,"velocity":112,"hitTime":26448,"closestNoteTime":26400,"hitSuccessfully":true},{"note":46,"velocity":103,"hitTime":26496,"closestNoteTime":26880,"hitSuccessfully":false},{"note":36,"velocity":69,"hitTime":26784,"closestNoteTime":26880,"hitSuccessfully":true},{"note":46,"velocity":104,"hitTime":26976,"closestNoteTime":26880,"hitSuccessfully":true},{"note":46,"velocity":96,"hitTime":27456,"closestNoteTime":27360,"hitSuccessfully":true},{"note":46,"velocity":96,"hitTime":27888,"closestNoteTime":27840,"hitSuccessfully":true},{"note":46,"velocity":116,"hitTime":28352,"closestNoteTime":28320,"hitSuccessfully":true},{"note":46,"velocity":100,"hitTime":28848,"closestNoteTime":28800,"hitSuccessfully":true},{"note":36,"velocity":20,"hitTime":29040,"closestNoteTime":28800,"hitSuccessfully":true}]}