{"frames":[{"note":36,"velocity":78,"hitTime":64,"closestNoteTime":0,"hitSuccessfully":true},{"note":46,"velocity":91,"hitTime":336,"closestNoteTime":480,"hitSuccessfully":true},{"note":36,"velocity":71,"hitTime":928,"closestNoteTime":1920,"hitSuccessfully":false},{"note":46,"velocity":91,"hitTime":928,"closestNoteTime":960,"hitSuccessfully":true},{"note":46,"velocity":94,"hitTime":1424,"closestNoteTime":1440,"hitSuccessfully":true},{"note":36,"velocity":76,"hitTime":1456,"closestNoteTime":1920,"hitSuccessfully":false},{"note":46,"velocity":94,"hitTime":1936,"closestNoteTime":1920,"hitSuccessfully":true},{"note":36,"velocity":66,"hitTime":2000,"closestNoteTime":1920,"hitSuccessfully":true},{"note":46,"velocity":87,"hitTime":2448,"closestNoteTime":2400,"hitSuccessfully":true},{"note":36,"velocity":55,"hitTime":2496,"closestNoteTime":3840,"hitSuccessfully":false},{"note":46,"velocity":84,"hitTime":2960,"closestNoteTime":2880,"hitSuccessfully":true},{"note":36,"velocity":54,"hitTime":3072,"closestNoteTime":3840,"hitSuccessfully":false},{"note":46,"velocity":86,"hitTime":3392,"closestNoteTime":3360,"hitSuccessfully":true},{"note":46,"velocity":90,"hitTime":4192,"closestNoteTime":4320,"hitSuccessfully":true},{"note":36,"velocity":65,"hitTime":4192,"closestNoteTime":3840,"hitSuccessfully":false},{"note":46,"velocity":87,"hitTime":4704,"closestNoteTime":4800,"hitSuccessfully":true},{"note":36,"velocity":39,"hitTime":4752,"closestNoteTime":3840,"hitSuccessfully":false},{"note":46,"velocity":88,"hitTime":5200,"closestNoteTime":5280,"hitSuccessfully":true},{"note":36,"velocity":51,"hitTime":5264,"closestNoteTime":5760,"hitSuccessfully":false},{"note":46,"velocity":89,"hitTime":5712,"closestNoteTime":5760,"hitSuccessfully":true},{"note":46,"velocity":88,"hitTime":6256,"closestNoteTime":6240,"hitSuccessfully":true},{"note":36,"velocity":46,"hitTime":6304,"closestNoteTime":5760,"hitSuccessfully":false},{"note":46,"velocity":90,"hitTime":6864,"closestNoteTime":6720,"hitSuccessfully":true},{"note":36,"velocity":39,"hitTime":6944,"closestNoteTime":7680,"hitSuccessfully":false},{"note":38,"velocity":74,"hitTime":7744,"closestNoteTime":8640,"hitSuccessfully":false},{"note":36,"velocity":60,"hitTime":7776,"closestNoteTime":7680,"hitSuccessfully":true},{"note":46,"velocity":90,"hitTime":8320,"closestNoteTime":8160,"hitSuccessfully":true},{"note":36,"velocity":55,"hitTime":8336,"closestNoteTime":9600,"hitSuccessfully":false},{"note":46,"velocity":94,"hitTime":8800,"closestNoteTime":8640,"hitSuccessfully":true},{"note":36,"velocity":55,"hitTime":8896,"closestNoteTime":9600,"hitSuccessfully":false},{"note":46,"velocity":91,"hitTime":9360,"closestNoteTime":9120,"hitSuccessfully":true},{"note":36,"velocity":38,"hitTime":9600,"closestNoteTime":9600,"hitSuccessfully":true},{"note":46,"velocity":93,"hitTime":9808,"closestNoteTime":9600,"hitSuccessfully":true},{"note":38,"velocity":63,"hitTime":9968,"closestNoteTime":10560,"hitSuccessfully":false},{"note":36,"velocity":73,"hitTime":10048,"closestNoteTime":11520,"hitSuccessfully":false},{"note":36,"velocity":58,"hitTime":10720,"closestNoteTime":11520,"hitSuccessfully":false},{"note":46,"velocity":54,"hitTime":10752,"closestNoteTime":10560,"hitSuccessfully":true},{"note":36,"velocity":70,"hitTime":11392,"closestNoteTime":11520,"hitSuccessfully":true},{"note":46,"velocity":70,"hitTime":11552,"closestNoteTime":11520,"hitSuccessfully":true},{"note":38,"velocity":30,"hitTime":12064,"closestNoteTime":12480,"hitSuccessfully":false},{"note":46,"velocity":94,"hitTime":12080,"closestNoteTime":12000,"hitSuccessfully":true},{"note":46,"velocity":90,"hitTime":12576,"closestNoteTime":12480,"hitSuccessfully":true},{"note":36,"velocity":46,"hitTime":12624,"closestNoteTime":13440,"hitSuccessfully":false},{"note":46,"velocity":93,"hitTime":13024,"closestNoteTime":12960,"hitSuccessfully":true},{"note":46,"velocity":94,"hitTime":13504,"closestNoteTime":13440,"hitSuccessfully":true},{"note":36,"velocity":43,"hitTime":13584,"closestNoteTime":13440,"hitSuccessfully":true},{"note":46,"velocity":89,"hitTime":14016,"closestNoteTime":13920,"hitSuccessfully":true},{"note":46,"velocity":103,"hitTime":14528,"closestNoteTime":14400,"hitSuccessfully":true},{"note":36,"velocity":46,"hitTime":14544,"closestNoteTime":15360,"hitSuccessfully":false},{"note":38,"velocity":66,"hitTime":14656,"closestNoteTime":14400,"hitSuccessfully":true},{"note":38,"velocity":46,"hitTime":14704,"closestNoteTime":16320,"hitSuccessfully":false},{"note":46,"velocity":91,"hitTime":15440,"closestNoteTime":15360,"hitSuccessfully":true},{"note":46,"velocity":80,"hitTime":15936,"closestNoteTime":15840,"hitSuccessfully":true},{"note":36,"velocity":64,"hitTime":16016,"closestNoteTime":15360,"hitSuccessfully":false},{"note":46,"velocity":105,"hitTime":16416,"closestNoteTime":16320,"hitSuccessfully":true},{"note":36,"velocity":44,"hitTime":16640,"closestNoteTime":17280,"hitSuccessfully":false},{"note":46,"velocity":77,"hitTime":16880,"closestNoteTime":16800,"hitSuccessfully":true},{"note":36,"velocity":42,"hitTime":17168,"closestNoteTime":17280,"hitSuccessfully":true},{"note":36,"velocity":27,"hitTime":17632,"closestNoteTime":19200,"hitSuccessfully":false},{"note":46,"velocity":79,"hitTime":17920,"closestNoteTime":17760,"hitSuccessfully":true},{"note":46,"velocity":85,"hitTime":18432,"closestNoteTime":18240,"hitSuccessfully":true},{"note":46,"velocity":88,"hitTime":19264,"closestNoteTime":19200,"hitSuccessfully":true},{"note":46,"velocity":80,"hitTime":19776,"closestNoteTime":19680,"hitSuccessfully":true},{"note":46,"velocity":83,"hitTime":20208,"closestNoteTime":20160,"hitSuccessfully":true},{"note":36,"velocity":39,"hitTime":20544,"closestNoteTime":21120,"hitSuccessfully":false},{"note":46,"velocity":87,"hitTime":20704,"closestNoteTime":20640,"hitSuccessfully":true},{"note":36,"velocity":28,"hitTime":21216,"closestNoteTime":21120,"hitSuccessfully":true},{"note":46,"velocity":82,"hitTime":21248,"closestNoteTime":21120,"hitSuccessfully":true},{"note":46,"velocity":82,"hitTime":21696,"closestNoteTime":21600,"hitSuccessfully":true},{"note":36,"velocity":30,"hitTime":21696,"closestNoteTime":23040,"hitSuccessfully":false},{"note":46,"velocity":94,"hitTime":22208,"closestNoteTime":22080,"hitSuccessfully":true},{"note":46,"velocity":91,"hitTime":23168,"closestNoteTime":23040,"hitSuccessfully":true},{"note":36,"velocity":23,"hitTime":23472,"closestNoteTime":23040,"hitSuccessfully":false},{"note":46,"velocity":82,"hitTime":23632,"closestNoteTime":23520,"hitSuccessfully":true},{"note":36,"velocity":28,"hitTime":24000,"closestNoteTime":23040,"hitSuccessfully":false},{"note":46,"velocity":85,"hitTime":24080,"closestNoteTime":24000,"hitSuccessfully":true},{"note":46,"velocity":88,"hitTime":24640,"closestNoteTime":24480,"hitSuccessfully":true},{"note":36,"velocity":46,"hitTime":24864,"closestNoteTime":24960,"hitSuccessfully":true},{"note":46,"velocity":91,"hitTime":25152,"closestNoteTime":24960,"hitSuccessfully":true},{"note":36,"velocity":44,"hitTime":25440,"closestNoteTime":26880,"hitSuccessfully":false},{"note":46,"velocity":87,"hitTime":25616,"closestNoteTime":25440,"hitSuccessfully":true},{"note":36,"velocity":27,"hitTime":26896,"closestNoteTime":26880,"hitSuccessfully":true},{"note":46,"velocity":93,"hitTime":26944,"closestNoteTime":26880,"hitSuccessfully":true},{"note":46,"velocity":88,"hitTime":27456,"closestNoteTime":27360,"hitSuccessfully":true},{"note":46,"velocity":88,"hitTime":27936,"closestNoteTime":27840,"hitSuccessfully":true},{"note":46,"velocity":91,"hitTime":28640,"closestNoteTime":28800,"hitSuccessfully":true},{"note":46,"velocity":88,"hitTime":29088,"closestNoteTime":29280,"hitSuccessfully":true},{"note":46,"velocity":70,"hitTime":29760,"closestNoteTime":29760,"hitSuccessfully":true},{"note":46,"velocity":90,"hitTime":30432,"closestNoteTime":30240,"hitSuccessfully":true}]}