{"frames":[{"note":46,"velocity":47,"hitTime":1824,"closestNoteTime":1920,"hitSuccessfully":true},{"note":46,"velocity":64,"hitTime":2272,"closestNoteTime":2400,"hitSuccessfully":true},{"note":46,"velocity":56,"hitTime":2784,"closestNoteTime":2880,"hitSuccessfully":true},{"note":36,"velocity":52,"hitTime":3856,"closestNoteTime":3840,"hitSuccessfully":true},{"note":46,"velocity":66,"hitTime":4816,"closestNoteTime":4800,"hitSuccessfully":true},{"note":36,"velocity":25,"hitTime":4960,"closestNoteTime":5760,"hitSuccessfully":false},{"note":46,"velocity":55,"hitTime":5360,"closestNoteTime":5280,"hitSuccessfully":true},{"note":46,"velocity":64,"hitTime":5808,"closestNoteTime":5760,"hitSuccessfully":true},{"note":46,"velocity":52,"hitTime":6176,"closestNoteTime":6240,"hitSuccessfully":true},{"note":36,"velocity":52,"hitTime":6688,"closestNoteTime":5760,"hitSuccessfully":false},{"note":46,"velocity":50,"hitTime":7408,"closestNoteTime":7200,"hitSuccessfully":true},{"note":36,"velocity":44,"hitTime":7440,"closestNoteTime":7680,"hitSuccessfully":true},{"note":46,"velocity":44,"hitTime":8160,"closestNoteTime":8160,"hitSuccessfully":true},{"note":46,"velocity":55,"hitTime":8624,"closestNoteTime":8640,"hitSuccessfully":true},{"note":46,"velocity":54,"hitTime":9104,"closestNoteTime":9120,"hitSuccessfully":true},{"note":46,"velocity":44,"hitTime":9392,"closestNoteTime":9600,"hitSuccessfully":true},{"note":36,"velocity":20,"hitTime":10336,"closestNoteTime":9600,"hitSuccessfully":false},{"note":46,"velocity":39,"hitTime":10896,"closestNoteTime":11040,"hitSuccessfully":true},{"note":46,"velocity":36,"hitTime":11536,"closestNoteTime":11520,"hitSuccessfully":true},{"note":46,"velocity":62,"hitTime":12016,"closestNoteTime":12000,"hitSuccessfully":true},{"note":46,"velocity":60,"hitTime":12528,"closestNoteTime":12480,"hitSuccessfully":true},{"note":36,"velocity":32,"hitTime":13136,"closestNoteTime":13440,"hitSuccessfully":false},{"note":46,"velocity":52,"hitTime":14752,"closestNoteTime":14880,"hitSuccessfully":true},{"note":46,"velocity":56,"hitTime":15264,"closestNoteTime":15360,"hitSuccessfully":true},{"note":46,"velocity":58,"hitTime":15712,"closestNoteTime":15840,"hitSuccessfully":true},{"note":46,"velocity":60,"hitTime":16112,"closestNoteTime":16320,"hitSuccessfully":true},{"note":46,"velocity":21,"hitTime":19200,"closestNoteTime":19200,"hitSuccessfully":true},{"note":46,"velocity":32,"hitTime":19728,"closestNoteTime":19680,"hitSuccessfully":true},{"note":46,"velocity":52,"hitTime":20400,"closestNoteTime":20160,"hitSuccessfully":true},{"note":46,"velocity":56,"hitTime":20960,"closestNoteTime":21120,"hitSuccessfully":true},{"note":36,"velocity":39,"hitTime":21440,"closestNoteTime":21120,"hitSuccessfully":false},{"note":46,"velocity":55,"hitTime":22704,"closestNoteTime":22560,"hitSuccessfully":true},{"note":46,"velocity":48,"hitTime":23392,"closestNoteTime":23520,"hitSuccessfully":true},{"note":46,"velocity":60,"hitTime":23936,"closestNoteTime":24000,"hitSuccessfully":true},{"note":46,"velocity":55,"hitTime":24368,"closestNoteTime":24480,"hitSuccessfully":true},{"note":36,"velocity":36,"hitTime":24768,"closestNoteTime":24960,"hitSuccessfully":true},{"note":46,"velocity":62,"hitTime":25600,"closestNoteTime":25440,"hitSuccessfully":true},{"note":46,"velocity":31,"hitTime":26368,"closestNoteTime":26400,"hitSuccessfully":true},{"note":46,"velocity":62,"hitTime":26848,"closestNoteTime":26880,"hitSuccessfully":true},{"note":46,"velocity":60,"hitTime":27248,"closestNoteTime":27360,"hitSuccessfully":true},{"note":36,"velocity":23,"hitTime":27840,"closestNoteTime":26880,"hitSuccessfully":false},{"note":46,"velocity":64,"hitTime":28640,"closestNoteTime":28800,"hitSuccessfully":true},{"note":46,"velocity":70,"hitTime":29232,"closestNoteTime":29280,"hitSuccessfully":true},{"note":46,"velocity":73,"hitTime":29824,"closestNoteTime":29760,"hitSuccessfully":true},{"note":46,"velocity":67,"hitTime":30352,"closestNoteTime":30240,"hitSuccessfully":true}]}