{"frames":[{"note":46,"velocity":97,"hitTime":64,"closestNoteTime":0,"hitSuccessfully":true},{"note":36,"velocity":61,"hitTime":64,"closestNoteTime":0,"hitSuccessfully":true},{"note":46,"velocity":95,"hitTime":520,"closestNoteTime":480,"hitSuccessfully":true},{"note":46,"velocity":103,"hitTime":976,"closestNoteTime":960,"hitSuccessfully":true},{"note":38,"velocity":101,"hitTime":976,"closestNoteTime":960,"hitSuccessfully":true},{"note":46,"velocity":91,"hitTime":1456,"closestNoteTime":1440,"hitSuccessfully":true},{"note":36,"velocity":64,"hitTime":1912,"closestNoteTime":1920,"hitSuccessfully":true},{"note":46,"velocity":107,"hitTime":1928,"closestNoteTime":1920,"hitSuccessfully":true},{"note":46,"velocity":94,"hitTime":2392,"closestNoteTime":2400,"hitSuccessfully":true},{"note":46,"velocity":70,"hitTime":2432,"closestNoteTime":2880,"hitSuccessfully":false},{"note":46,"velocity":99,"hitTime":2864,"closestNoteTime":2880,"hitSuccessfully":true},{"note":38,"velocity":94,"hitTime":2864,"closestNoteTime":2880,"hitSuccessfully":true},{"note":46,"velocity":90,"hitTime":3328,"closestNoteTime":3360,"hitSuccessfully":true},{"note":46,"velocity":106,"hitTime":3824,"closestNoteTime":3840,"hitSuccessfully":true},{"note":36,"velocity":58,"hitTime":3840,"closestNoteTime":3840,"hitSuccessfully":true},{"note":46,"velocity":99,"hitTime":4304,"closestNoteTime":4320,"hitSuccessfully":true},{"note":46,"velocity":103,"hitTime":4792,"closestNoteTime":4800,"hitSuccessfully":true},{"note":38,"velocity":98,"hitTime":4800,"closestNoteTime":4800,"hitSuccessfully":true},{"note":46,"velocity":90,"hitTime":5248,"closestNoteTime":5280,"hitSuccessfully":true},{"note":46,"velocity":73,"hitTime":5288,"closestNoteTime":5760,"hitSuccessfully":false},{"note":36,"velocity":64,"hitTime":5736,"closestNoteTime":5760,"hitSuccessfully":true},{"note":46,"velocity":107,"hitTime":5752,"closestNoteTime":5760,"hitSuccessfully":true},{"note":46,"velocity":91,"hitTime":6208,"closestNoteTime":6240,"hitSuccessfully":true},{"note":46,"velocity":98,"hitTime":6648,"closestNoteTime":6720,"hitSuccessfully":true},{"note":38,"velocity":96,"hitTime":6680,"closestNoteTime":6720,"hitSuccessfully":true},{"note":46,"velocity":89,"hitTime":7160,"closestNoteTime":7200,"hitSuccessfully":true},{"note":46,"velocity":101,"hitTime":7640,"closestNoteTime":7680,"hitSuccessfully":true},{"note":36,"velocity":55,"hitTime":7656,"closestNoteTime":7680,"hitSuccessfully":true},{"note":46,"velocity":95,"hitTime":8120,"closestNoteTime":8160,"hitSuccessfully":true},{"note":46,"velocity":99,"hitTime":8592,"closestNoteTime":8640,"hitSuccessfully":true},{"note":38,"velocity":94,"hitTime":8616,"closestNoteTime":8640,"hitSuccessfully":true},{"note":46,"velocity":88,"hitTime":9056,"closestNoteTime":9120,"hitSuccessfully":true},{"note":36,"velocity":59,"hitTime":9512,"closestNoteTime":9600,"hitSuccessfully":true},{"note":46,"velocity":101,"hitTime":9528,"closestNoteTime":9600,"hitSuccessfully":true},{"note":46,"velocity":97,"hitTime":10488,"closestNoteTime":10560,"hitSuccessfully":true},{"note":38,"velocity":96,"hitTime":10488,"closestNoteTime":10560,"hitSuccessfully":true},{"note":46,"velocity":89,"hitTime":10944,"closestNoteTime":11040,"hitSuccessfully":true},{"note":36,"velocity":64,"hitTime":11392,"closestNoteTime":11520,"hitSuccessfully":true},{"note":46,"velocity":104,"hitTime":11416,"closestNoteTime":11520,"hitSuccessfully":true},{"note":46,"velocity":80,"hitTime":11440,"closestNoteTime":12000,"hitSuccessfully":false},{"note":46,"velocity":90,"hitTime":11896,"closestNoteTime":12000,"hitSuccessfully":true},{"note":46,"velocity":73,"hitTime":11936,"closestNoteTime":12480,"hitSuccessfully":false},{"note":46,"velocity":100,"hitTime":12368,"closestNoteTime":12480,"hitSuccessfully":true},{"note":38,"velocity":91,"hitTime":12376,"closestNoteTime":12480,"hitSuccessfully":true},{"note":46,"velocity":91,"hitTime":12848,"closestNoteTime":12960,"hitSuccessfully":true},{"note":46,"velocity":98,"hitTime":13312,"closestNoteTime":13440,"hitSuccessfully":true},{"note":36,"velocity":61,"hitTime":13344,"closestNoteTime":13440,"hitSuccessfully":true},{"note":38,"velocity":94,"hitTime":13360,"closestNoteTime":14400,"hitSuccessfully":false},{"note":46,"velocity":88,"hitTime":13808,"closestNoteTime":13920,"hitSuccessfully":true},{"note":46,"velocity":99,"hitTime":14264,"closestNoteTime":14400,"hitSuccessfully":true},{"note":38,"velocity":89,"hitTime":14280,"closestNoteTime":14400,"hitSuccessfully":true},{"note":46,"velocity":82,"hitTime":14736,"closestNoteTime":14880,"hitSuccessfully":true}]}