{"frames":[{"note":46,"velocity":90,"hitTime":-144,"closestNoteTime":0,"hitSuccessfully":true},{"note":36,"velocity":58,"hitTime":-104,"closestNoteTime":0,"hitSuccessfully":true},{"note":46,"velocity":89,"hitTime":328,"closestNoteTime":480,"hitSuccessfully":false},{"note":46,"velocity":91,"hitTime":784,"closestNoteTime":960,"hitSuccessfully":false},{"note":46,"velocity":93,"hitTime":1264,"closestNoteTime":1440,"hitSuccessfully":false},{"note":46,"velocity":87,"hitTime":1736,"closestNoteTime":1920,"hitSuccessfully":false},{"note":36,"velocity":85,"hitTime":1736,"closestNoteTime":1920,"hitSuccessfully":false},{"note":36,"velocity":27,"hitTime":1840,"closestNoteTime":1920,"hitSuccessfully":true},{"note":46,"velocity":88,"hitTime":2224,"closestNoteTime":2400,"hitSuccessfully":false},{"note":46,"velocity":91,"hitTime":2680,"closestNoteTime":2880,"hitSuccessfully":false},{"note":46,"velocity":86,"hitTime":3168,"closestNoteTime":3360,"hitSuccessfully":false},{"note":46,"velocity":95,"hitTime":3688,"closestNoteTime":3840,"hitSuccessfully":false},{"note":46,"velocity":88,"hitTime":4328,"closestNoteTime":4320,"hitSuccessfully":true},{"note":46,"velocity":91,"hitTime":4808,"closestNoteTime":4800,"hitSuccessfully":true},{"note":36,"velocity":70,"hitTime":5104,"closestNoteTime":5760,"hitSuccessfully":false},{"note":46,"velocity":82,"hitTime":5544,"closestNoteTime":5760,"hitSuccessfully":false},{"note":46,"velocity":88,"hitTime":6232,"closestNoteTime":6240,"hitSuccessfully":true},{"note":46,"velocity":91,"hitTime":6752,"closestNoteTime":6720,"hitSuccessfully":true},{"note":46,"velocity":95,"hitTime":7224,"closestNoteTime":7200,"hitSuccessfully":true},{"note":36,"velocity":73,"hitTime":7664,"closestNoteTime":7680,"hitSuccessfully":true},{"note":46,"velocity":91,"hitTime":7688,"closestNoteTime":7680,"hitSuccessfully":true},{"note":46,"velocity":89,"hitTime":8160,"closestNoteTime":8160,"hitSuccessfully":true},{"note":46,"velocity":91,"hitTime":8680,"closestNoteTime":8640,"hitSuccessfully":true},{"note":36,"velocity":38,"hitTime":8720,"closestNoteTime":9600,"hitSuccessfully":false},{"note":46,"velocity":93,"hitTime":9136,"closestNoteTime":9120,"hitSuccessfully":true},{"note":36,"velocity":36,"hitTime":9160,"closestNoteTime":9600,"hitSuccessfully":false},{"note":46,"velocity":100,"hitTime":9672,"closestNoteTime":9600,"hitSuccessfully":true},{"note":36,"velocity":42,"hitTime":9728,"closestNoteTime":9600,"hitSuccessfully":true},{"note":46,"velocity":88,"hitTime":10152,"closestNoteTime":10080,"hitSuccessfully":true},{"note":46,"velocity":102,"hitTime":10672,"closestNoteTime":10560,"hitSuccessfully":true},{"note":36,"velocity":40,"hitTime":10824,"closestNoteTime":11520,"hitSuccessfully":false},{"note":46,"velocity":102,"hitTime":11360,"closestNoteTime":11520,"hitSuccessfully":false},{"note":36,"velocity":40,"hitTime":11384,"closestNoteTime":11520,"hitSuccessfully":true},{"note":46,"velocity":90,"hitTime":11904,"closestNoteTime":12000,"hitSuccessfully":true},{"note":46,"velocity":99,"hitTime":12512,"closestNoteTime":12480,"hitSuccessfully":true},{"note":46,"velocity":101,"hitTime":13312,"closestNoteTime":13440,"hitSuccessfully":true},{"note":36,"velocity":74,"hitTime":13848,"closestNoteTime":13440,"hitSuccessfully":false},{"note":46,"velocity":56,"hitTime":13912,"closestNoteTime":13920,"hitSuccessfully":true},{"note":46,"velocity":83,"hitTime":14360,"closestNoteTime":14400,"hitSuccessfully":true},{"note":46,"velocity":95,"hitTime":14920,"closestNoteTime":14880,"hitSuccessfully":true}]}