{"frames":[{"note":36,"velocity":61,"hitTime":0,"closestNoteTime":0,"hitSuccessfully":true},{"note":46,"velocity":93,"hitTime":112,"closestNoteTime":0,"hitSuccessfully":true},{"note":46,"velocity":86,"hitTime":608,"closestNoteTime":480,"hitSuccessfully":true},{"note":36,"velocity":47,"hitTime":720,"closestNoteTime":1920,"hitSuccessfully":false},{"note":46,"velocity":96,"hitTime":1120,"closestNoteTime":960,"hitSuccessfully":true},{"note":36,"velocity":48,"hitTime":1248,"closestNoteTime":1920,"hitSuccessfully":false},{"note":46,"velocity":91,"hitTime":1568,"closestNoteTime":1440,"hitSuccessfully":true},{"note":46,"velocity":93,"hitTime":2112,"closestNoteTime":1920,"hitSuccessfully":true},{"note":36,"velocity":27,"hitTime":2400,"closestNoteTime":1920,"hitSuccessfully":false},{"note":46,"velocity":90,"hitTime":2592,"closestNoteTime":2400,"hitSuccessfully":true},{"note":36,"velocity":30,"hitTime":2864,"closestNoteTime":1920,"hitSuccessfully":false},{"note":46,"velocity":97,"hitTime":3072,"closestNoteTime":2880,"hitSuccessfully":true},{"note":46,"velocity":87,"hitTime":4032,"closestNoteTime":3840,"hitSuccessfully":true},{"note":36,"velocity":58,"hitTime":4032,"closestNoteTime":3840,"hitSuccessfully":true},{"note":46,"velocity":96,"hitTime":4512,"closestNoteTime":4320,"hitSuccessfully":true},{"note":36,"velocity":56,"hitTime":4592,"closestNoteTime":5760,"hitSuccessfully":false},{"note":46,"velocity":100,"hitTime":4976,"closestNoteTime":4800,"hitSuccessfully":true},{"note":36,"velocity":64,"hitTime":5024,"closestNoteTime":5760,"hitSuccessfully":false},{"note":46,"velocity":91,"hitTime":5568,"closestNoteTime":5280,"hitSuccessfully":true},{"note":46,"velocity":88,"hitTime":6016,"closestNoteTime":5760,"hitSuccessfully":true},{"note":46,"velocity":87,"hitTime":6368,"closestNoteTime":6240,"hitSuccessfully":true},{"note":36,"velocity":52,"hitTime":6688,"closestNoteTime":5760,"hitSuccessfully":false},{"note":46,"velocity":90,"hitTime":7056,"closestNoteTime":7200,"hitSuccessfully":true},{"note":46,"velocity":91,"hitTime":7648,"closestNoteTime":7680,"hitSuccessfully":true},{"note":46,"velocity":93,"hitTime":8128,"closestNoteTime":8160,"hitSuccessfully":true},{"note":46,"velocity":76,"hitTime":8560,"closestNoteTime":8640,"hitSuccessfully":true},{"note":36,"velocity":66,"hitTime":8880,"closestNoteTime":9600,"hitSuccessfully":false},{"note":46,"velocity":85,"hitTime":9344,"closestNoteTime":9120,"hitSuccessfully":true},{"note":36,"velocity":27,"hitTime":9504,"closestNoteTime":9600,"hitSuccessfully":true},{"note":46,"velocity":85,"hitTime":9792,"closestNoteTime":9600,"hitSuccessfully":true},{"note":46,"velocity":82,"hitTime":10144,"closestNoteTime":10080,"hitSuccessfully":true},{"note":46,"velocity":74,"hitTime":10496,"closestNoteTime":10560,"hitSuccessfully":true},{"note":36,"velocity":87,"hitTime":11056,"closestNoteTime":11520,"hitSuccessfully":false},{"note":46,"velocity":82,"hitTime":11824,"closestNoteTime":12000,"hitSuccessfully":true},{"note":46,"velocity":89,"hitTime":12288,"closestNoteTime":12480,"hitSuccessfully":true},{"note":46,"velocity":73,"hitTime":12688,"closestNoteTime":12960,"hitSuccessfully":true},{"note":46,"velocity":79,"hitTime":13040,"closestNoteTime":13440,"hitSuccessfully":false},{"note":46,"velocity":70,"hitTime":13328,"closestNoteTime":13440,"hitSuccessfully":true},{"note":46,"velocity":52,"hitTime":13600,"closestNoteTime":13920,"hitSuccessfully":false},{"note":46,"velocity":82,"hitTime":13920,"closestNoteTime":13920,"hitSuccessfully":true},{"note":36,"velocity":25,"hitTime":14352,"closestNoteTime":13440,"hitSuccessfully":false},{"note":46,"velocity":84,"hitTime":14400,"closestNoteTime":14400,"hitSuccessfully":true},{"note":38,"velocity":77,"hitTime":14672,"closestNoteTime":14400,"hitSuccessfully":true},{"note":46,"velocity":88,"hitTime":15232,"closestNoteTime":15360,"hitSuccessfully":true},{"note":36,"velocity":35,"hitTime":15264,"closestNoteTime":15360,"hitSuccessfully":true},{"note":36,"velocity":34,"hitTime":15744,"closestNoteTime":17280,"hitSuccessfully":false},{"note":46,"velocity":93,"hitTime":15824,"closestNoteTime":15840,"hitSuccessfully":true},{"note":36,"velocity":43,"hitTime":16240,"closestNoteTime":17280,"hitSuccessfully":false},{"note":46,"velocity":99,"hitTime":16544,"closestNoteTime":16320,"hitSuccessfully":true},{"note":36,"velocity":32,"hitTime":16672,"closestNoteTime":17280,"hitSuccessfully":false},{"note":46,"velocity":94,"hitTime":17152,"closestNoteTime":17280,"hitSuccessfully":true},{"note":36,"velocity":26,"hitTime":17376,"closestNoteTime":17280,"hitSuccessfully":true},{"note":46,"velocity":93,"hitTime":17744,"closestNoteTime":17760,"hitSuccessfully":true},{"note":36,"velocity":42,"hitTime":17856,"closestNoteTime":19200,"hitSuccessfully":false},{"note":36,"velocity":32,"hitTime":18256,"closestNoteTime":19200,"hitSuccessfully":false},{"note":46,"velocity":98,"hitTime":18304,"closestNoteTime":18240,"hitSuccessfully":true},{"note":38,"velocity":84,"hitTime":18656,"closestNoteTime":18240,"hitSuccessfully":false},{"note":36,"velocity":36,"hitTime":18704,"closestNoteTime":19200,"hitSuccessfully":false},{"note":36,"velocity":38,"hitTime":19328,"closestNoteTime":19200,"hitSuccessfully":true},{"note":46,"velocity":96,"hitTime":19360,"closestNoteTime":19200,"hitSuccessfully":true},{"note":46,"velocity":99,"hitTime":19888,"closestNoteTime":19680,"hitSuccessfully":true},{"note":36,"velocity":30,"hitTime":20000,"closestNoteTime":21120,"hitSuccessfully":false},{"note":38,"velocity":89,"hitTime":20256,"closestNoteTime":20160,"hitSuccessfully":true},{"note":38,"velocity":39,"hitTime":20400,"closestNoteTime":22080,"hitSuccessfully":false},{"note":36,"velocity":36,"hitTime":20592,"closestNoteTime":21120,"hitSuccessfully":false},{"note":46,"velocity":99,"hitTime":20960,"closestNoteTime":21120,"hitSuccessfully":true},{"note":46,"velocity":100,"hitTime":21488,"closestNoteTime":21600,"hitSuccessfully":true},{"note":36,"velocity":32,"hitTime":21712,"closestNoteTime":21120,"hitSuccessfully":false},{"note":36,"velocity":22,"hitTime":22272,"closestNoteTime":23040,"hitSuccessfully":false},{"note":36,"velocity":32,"hitTime":22752,"closestNoteTime":23040,"hitSuccessfully":true},{"note":46,"velocity":101,"hitTime":22784,"closestNoteTime":22560,"hitSuccessfully":true},{"note":46,"velocity":95,"hitTime":23312,"closestNoteTime":23040,"hitSuccessfully":true},{"note":46,"velocity":95,"hitTime":23824,"closestNoteTime":24000,"hitSuccessfully":true},{"note":46,"velocity":99,"hitTime":24592,"closestNoteTime":24480,"hitSuccessfully":true},{"note":46,"velocity":91,"hitTime":25184,"closestNoteTime":24960,"hitSuccessfully":true},{"note":36,"velocity":83,"hitTime":25648,"closestNoteTime":24960,"hitSuccessfully":false},{"note":46,"velocity":103,"hitTime":25856,"closestNoteTime":25920,"hitSuccessfully":true},{"note":46,"velocity":88,"hitTime":26496,"closestNoteTime":26400,"hitSuccessfully":true},{"note":46,"velocity":93,"hitTime":27008,"closestNoteTime":26880,"hitSuccessfully":true},{"note":36,"velocity":69,"hitTime":27232,"closestNoteTime":26880,"hitSuccessfully":false},{"note":46,"velocity":88,"hitTime":27888,"closestNoteTime":27840,"hitSuccessfully":true},{"note":46,"velocity":86,"hitTime":28480,"closestNoteTime":28320,"hitSuccessfully":true},{"note":36,"velocity":30,"hitTime":28832,"closestNoteTime":28800,"hitSuccessfully":true},{"note":46,"velocity":97,"hitTime":29040,"closestNoteTime":28800,"hitSuccessfully":true},{"note":46,"velocity":94,"hitTime":29584,"closestNoteTime":29760,"hitSuccessfully":true},{"note":36,"velocity":54,"hitTime":29904,"closestNoteTime":26880,"hitSuccessfully":false},{"note":46,"velocity":88,"hitTime":30064,"closestNoteTime":30240,"hitSuccessfully":true},{"note":36,"velocity":42,"hitTime":30336,"closestNoteTime":26880,"hitSuccessfully":false},{"note":46,"velocity":88,"hitTime":30512,"closestNoteTime":29280,"hitSuccessfully":false},{"note":36,"velocity":32,"hitTime":30656,"closestNoteTime":26880,"hitSuccessfully":false}]}